<?xml version="1.0" encoding="UTF-8" standalone="no"?>
<!-- This is a Stata 16.1 generated SVG file (http://www.stata.com) -->

<svg version="1.1" width="5.50in" height="4.00in" viewBox="0 0 3960 2880" xmlns="http://www.w3.org/2000/svg" xmlns:xlink="http://www.w3.org/1999/xlink">
	<desc>Stata Graph - Graph</desc>
	<rect x="0" y="0" width="3960" height="2880" style="fill:#EAF2F3;stroke:none"/>
	<rect x="0.00" y="0.00" width="3959.88" height="2880.00" style="fill:#FFFFFF"/>
	<rect x="2.88" y="2.88" width="3954.12" height="2874.24" style="fill:none;stroke:#EAF2F3;stroke-width:5.76"/>
	<rect x="430.77" y="245.40" width="3428.25" height="2263.83" style="fill:#FFFFFF"/>
	<rect x="433.65" y="248.28" width="3422.49" height="2258.07" style="fill:none;stroke:#FFFFFF;stroke-width:5.76"/>
	<line x1="430.77" y1="2445.87" x2="3859.02" y2="2445.87" style="stroke:#EAF2F3;stroke-width:8.64"/>
	<line x1="430.77" y1="2232.15" x2="3859.02" y2="2232.15" style="stroke:#EAF2F3;stroke-width:8.64"/>
	<line x1="430.77" y1="2018.43" x2="3859.02" y2="2018.43" style="stroke:#EAF2F3;stroke-width:8.64"/>
	<line x1="430.77" y1="1804.70" x2="3859.02" y2="1804.70" style="stroke:#EAF2F3;stroke-width:8.64"/>
	<line x1="430.77" y1="1590.98" x2="3859.02" y2="1590.98" style="stroke:#EAF2F3;stroke-width:8.64"/>
	<line x1="430.77" y1="1377.26" x2="3859.02" y2="1377.26" style="stroke:#EAF2F3;stroke-width:8.64"/>
	<line x1="430.77" y1="1163.53" x2="3859.02" y2="1163.53" style="stroke:#EAF2F3;stroke-width:8.64"/>
	<line x1="430.77" y1="949.81" x2="3859.02" y2="949.81" style="stroke:#EAF2F3;stroke-width:8.64"/>
	<line x1="430.77" y1="736.09" x2="3859.02" y2="736.09" style="stroke:#EAF2F3;stroke-width:8.64"/>
	<line x1="430.77" y1="522.49" x2="3859.02" y2="522.49" style="stroke:#EAF2F3;stroke-width:8.64"/>
	<line x1="430.77" y1="308.77" x2="3859.02" y2="308.77" style="stroke:#EAF2F3;stroke-width:8.64"/>
	<defs>
		<path id="path_MpDzBCpG" d="M514.68 2445.87 L514.68 2445.87 L535.34 2445.87 L556.01 2445.87 L576.67 2445.87 L597.22 2445.87 L617.88 2445.87 L638.55 2445.87 L659.22 2445.87 L679.76 2445.87 L700.42 2445.87 L721.09 2445.87 L741.76 2445.87 L762.30 2445.87 L782.97 2445.75 L803.63 2445.75 L824.30 2445.62 L844.84 2445.50 L865.51 2445.25 L886.17 2444.88 L906.84 2444.39 L927.38 2443.64 L948.05 2442.53 L968.72 2441.17 L989.38 2439.44 L1009.92 2437.21 L1030.59 2434.36 L1051.26 2430.90 L1071.92 2426.81 L1092.46 2422.11 L1113.13 2416.67 L1133.80 2410.48 L1154.46 2403.80 L1175.01 2396.37 L1195.67 2388.45 L1216.34 2380.16 L1237.01 2371.37 L1257.55 2362.21 L1278.21 2352.93 L1298.88 2343.40 L1319.55 2333.87 L1340.09 2324.35 L1360.76 2314.82 L1381.42 2305.29 L1402.09 2296.01 L1422.63 2286.85 L1443.30 2277.81 L1463.96 2269.03 L1484.63 2260.36 L1505.17 2251.95 L1525.84 2243.66 L1546.50 2235.37 L1567.17 2227.32 L1587.71 2219.28 L1608.38 2211.36 L1629.05 2203.56 L1649.71 2196.01 L1670.25 2188.46 L1690.92 2181.16 L1711.59 2173.98 L1732.25 2167.05 L1752.80 2160.25 L1773.46 2153.69 L1794.13 2147.25 L1814.79 2141.19 L1835.34 2135.13 L1856.00 2129.43 L1876.67 2123.99 L1897.34 2118.67 L1917.88 2113.59 L1938.54 2108.64 L1959.21 2104.06 L1979.88 2099.61 L2000.42 2095.28 L2021.09 2091.19 L2041.75 2087.36 L2062.42 2083.64 L2082.96 2080.06 L2103.63 2076.71 L2124.29 2073.50 L2144.96 2070.40 L2165.50 2067.43 L2186.17 2064.71 L2206.83 2061.99 L2227.50 2059.39 L2248.04 2057.04 L2268.71 2054.69 L2289.38 2052.58 L2310.04 2050.48 L2330.58 2048.50 L2351.25 2046.52 L2371.92 2044.79 L2392.58 2043.05 L2413.13 2041.44 L2433.79 2039.96 L2454.46 2038.47 L2475.12 2036.99 L2495.67 2035.75 L2516.33 2034.39 L2537.00 2033.28 L2557.66 2032.16 L2578.21 2031.05 L2598.87 2030.06 L2619.54 2029.07 L2640.21 2028.08 L2660.75 2027.21 L2681.41 2026.35 L2702.08 2025.60 L2722.75 2024.74 L2743.29 2023.99 L2763.96 2023.38 L2784.62 2022.63 L2805.29 2022.01 L2825.83 2021.40 L2846.50 2020.78 L2867.16 2020.28 L2887.83 2019.79 L2908.37 2019.17 L2929.04 2018.67 L2949.70 2018.18 L2970.37 2017.68 L2990.91 2017.31 L3011.58 2016.82 L3032.25 2016.45 L3052.91 2015.95 L3073.45 2015.58 L3094.12 2015.21 L3114.79 2014.71 L3135.45 2014.34 L3156.00 2013.97 L3176.66 2013.60 L3197.33 2013.23 L3217.99 2012.86 L3238.54 2012.49 L3259.20 2012.11 L3259.20 1916.82 L3238.54 1917.32 L3217.99 1917.81 L3197.33 1918.18 L3176.66 1918.68 L3156.00 1919.17 L3135.45 1919.55 L3114.79 1920.04 L3094.12 1920.54 L3073.45 1921.03 L3052.91 1921.53 L3032.25 1922.02 L3011.58 1922.52 L2990.91 1923.01 L2970.37 1923.51 L2949.70 1924.00 L2929.04 1924.62 L2908.37 1925.24 L2887.83 1925.73 L2867.16 1926.35 L2846.50 1927.10 L2825.83 1927.71 L2805.29 1928.33 L2784.62 1929.08 L2763.96 1929.82 L2743.29 1930.68 L2722.75 1931.55 L2702.08 1932.42 L2681.41 1933.28 L2660.75 1934.27 L2640.21 1935.26 L2619.54 1936.38 L2598.87 1937.49 L2578.21 1938.60 L2557.66 1939.84 L2537.00 1941.20 L2516.33 1942.56 L2495.67 1944.05 L2475.12 1945.53 L2454.46 1947.14 L2433.79 1948.88 L2413.13 1950.73 L2392.58 1952.59 L2371.92 1954.57 L2351.25 1956.67 L2330.58 1958.90 L2310.04 1961.25 L2289.38 1963.73 L2268.71 1966.33 L2248.04 1968.92 L2227.50 1971.89 L2206.83 1974.86 L2186.17 1977.96 L2165.50 1981.30 L2144.96 1984.76 L2124.29 1988.35 L2103.63 1992.19 L2082.96 1996.15 L2062.42 2000.36 L2041.75 2004.69 L2021.09 2009.27 L2000.42 2014.09 L1979.88 2019.04 L1959.21 2024.12 L1938.54 2029.56 L1917.88 2035.13 L1897.34 2040.95 L1876.67 2047.01 L1856.00 2053.32 L1835.34 2059.76 L1814.79 2066.57 L1794.13 2073.50 L1773.46 2080.67 L1752.80 2088.10 L1732.25 2095.77 L1711.59 2103.69 L1690.92 2111.74 L1670.25 2120.15 L1649.71 2128.81 L1629.05 2137.60 L1608.38 2146.63 L1587.71 2155.92 L1567.17 2165.45 L1546.50 2175.10 L1525.84 2184.87 L1505.17 2194.77 L1484.63 2204.92 L1463.96 2215.07 L1443.30 2225.47 L1422.63 2235.86 L1402.09 2246.63 L1381.42 2257.39 L1360.76 2268.53 L1340.09 2279.79 L1319.55 2291.30 L1298.88 2302.94 L1278.21 2314.82 L1257.55 2326.57 L1237.01 2338.21 L1216.34 2349.59 L1195.67 2360.36 L1175.01 2370.63 L1154.46 2380.16 L1133.80 2389.07 L1113.13 2397.11 L1092.46 2404.29 L1071.92 2410.85 L1051.26 2416.54 L1030.59 2421.62 L1009.92 2425.95 L989.38 2429.66 L968.72 2432.75 L948.05 2435.35 L927.38 2437.46 L906.84 2439.31 L886.17 2440.67 L865.51 2441.79 L844.84 2442.65 L824.30 2443.40 L803.63 2444.02 L782.97 2444.39 L762.30 2444.76 L741.76 2445.01 L721.09 2445.13 L700.42 2445.38 L679.76 2445.50 L659.22 2445.62 L638.55 2445.62 L617.88 2445.75 L597.22 2445.75 L576.67 2445.87 L556.01 2445.87 L535.34 2445.87 L514.68 2445.87 L514.68 2445.87 Z" stroke-linejoin="round"/>
	</defs>
	<defs>
		<clipPath id="clipPath_qNKhhbrA">
			<use xlink:href="#path_MpDzBCpG"/>
		</clipPath>
	</defs>
	<use xlink:href="#path_MpDzBCpG" style="stroke:none;fill:#FF3333;fill-opacity:0.25"/>
	<use xlink:href="#path_MpDzBCpG" style="fill:none;stroke:#FF0000;stroke-opacity:0.25;stroke-width:17.28" clip-path="url(#clipPath_qNKhhbrA)"/>
	<defs>
		<path id="path_JVzWnllA" d="M514.68 2445.87 L514.68 2445.87 L535.34 2445.87 L556.01 2445.87 L576.67 2445.87 L597.22 2445.87 L617.88 2445.87 L638.55 2445.87 L659.22 2445.87 L679.76 2445.87 L700.42 2445.87 L721.09 2445.87 L741.76 2445.87 L762.30 2445.87 L782.97 2445.75 L803.63 2445.75 L824.30 2445.62 L844.84 2445.50 L865.51 2445.25 L886.17 2444.88 L906.84 2444.39 L927.38 2443.64 L948.05 2442.65 L968.72 2441.29 L989.38 2439.56 L1009.92 2437.33 L1030.59 2434.61 L1051.26 2431.39 L1071.92 2427.43 L1092.46 2422.98 L1113.13 2417.90 L1133.80 2412.21 L1154.46 2405.90 L1175.01 2399.09 L1195.67 2391.79 L1216.34 2383.99 L1237.01 2375.95 L1257.55 2367.54 L1278.21 2359.00 L1298.88 2350.33 L1319.55 2341.67 L1340.09 2333.01 L1360.76 2324.35 L1381.42 2315.81 L1402.09 2307.51 L1422.63 2299.22 L1443.30 2291.18 L1463.96 2283.26 L1484.63 2275.46 L1505.17 2267.91 L1525.84 2260.36 L1546.50 2252.94 L1567.17 2245.64 L1587.71 2238.46 L1608.38 2231.41 L1629.05 2224.48 L1649.71 2217.67 L1670.25 2210.99 L1690.92 2204.43 L1711.59 2198.12 L1732.25 2191.93 L1752.80 2185.86 L1773.46 2180.05 L1794.13 2174.36 L1814.79 2168.91 L1835.34 2163.59 L1856.00 2158.51 L1876.67 2153.56 L1897.34 2148.86 L1917.88 2144.41 L1938.54 2140.08 L1959.21 2135.87 L1979.88 2131.91 L2000.42 2128.20 L2021.09 2124.48 L2041.75 2121.02 L2062.42 2117.68 L2082.96 2114.46 L2103.63 2111.49 L2124.29 2108.64 L2144.96 2105.80 L2165.50 2103.20 L2186.17 2100.72 L2206.83 2098.25 L2227.50 2096.02 L2248.04 2093.79 L2268.71 2091.81 L2289.38 2089.83 L2310.04 2087.98 L2330.58 2086.12 L2351.25 2084.51 L2371.92 2082.90 L2392.58 2081.29 L2413.13 2079.93 L2433.79 2078.57 L2454.46 2077.21 L2475.12 2075.97 L2495.67 2074.73 L2516.33 2073.62 L2537.00 2072.63 L2557.66 2071.64 L2578.21 2070.65 L2598.87 2069.66 L2619.54 2068.79 L2640.21 2068.05 L2660.75 2067.18 L2681.41 2066.44 L2702.08 2065.70 L2722.75 2065.08 L2743.29 2064.46 L2763.96 2063.84 L2784.62 2063.22 L2805.29 2062.61 L2825.83 2062.11 L2846.50 2061.62 L2867.16 2061.12 L2887.83 2060.63 L2908.37 2060.13 L2929.04 2059.64 L2949.70 2059.26 L2970.37 2058.89 L2990.91 2058.40 L3011.58 2058.03 L3032.25 2057.66 L3052.91 2057.28 L3073.45 2056.91 L3094.12 2056.54 L3114.79 2056.17 L3135.45 2055.80 L3156.00 2055.43 L3176.66 2055.18 L3197.33 2054.81 L3217.99 2054.44 L3238.54 2054.07 L3259.20 2053.82 L3259.20 1820.67 L3238.54 1821.16 L3217.99 1821.78 L3197.33 1822.28 L3176.66 1822.77 L3156.00 1823.39 L3135.45 1823.88 L3114.79 1824.50 L3094.12 1825.00 L3073.45 1825.62 L3052.91 1826.24 L3032.25 1826.73 L3011.58 1827.35 L2990.91 1827.97 L2970.37 1828.59 L2949.70 1829.21 L2929.04 1829.95 L2908.37 1830.57 L2887.83 1831.31 L2867.16 1832.05 L2846.50 1832.79 L2825.83 1833.66 L2805.29 1834.53 L2784.62 1835.39 L2763.96 1836.26 L2743.29 1837.25 L2722.75 1838.24 L2702.08 1839.23 L2681.41 1840.34 L2660.75 1841.58 L2640.21 1842.82 L2619.54 1844.06 L2598.87 1845.42 L2578.21 1846.78 L2557.66 1848.26 L2537.00 1849.87 L2516.33 1851.61 L2495.67 1853.34 L2475.12 1855.19 L2454.46 1857.05 L2433.79 1859.15 L2413.13 1861.26 L2392.58 1863.49 L2371.92 1865.96 L2351.25 1868.44 L2330.58 1871.03 L2310.04 1873.88 L2289.38 1876.85 L2268.71 1879.94 L2248.04 1883.16 L2227.50 1886.50 L2206.83 1890.09 L2186.17 1893.81 L2165.50 1897.77 L2144.96 1901.97 L2124.29 1906.30 L2103.63 1910.76 L2082.96 1915.59 L2062.42 1920.54 L2041.75 1925.73 L2021.09 1931.18 L2000.42 1936.87 L1979.88 1942.81 L1959.21 1949.00 L1938.54 1955.43 L1917.88 1962.24 L1897.34 1969.17 L1876.67 1976.47 L1856.00 1984.02 L1835.34 1991.82 L1814.79 1999.99 L1794.13 2008.40 L1773.46 2017.06 L1752.80 2026.10 L1732.25 2035.26 L1711.59 2044.79 L1690.92 2054.56 L1670.25 2064.59 L1649.71 2074.98 L1629.05 2085.50 L1608.38 2096.39 L1587.71 2107.40 L1567.17 2118.67 L1546.50 2130.18 L1525.84 2141.81 L1505.17 2153.56 L1484.63 2165.57 L1463.96 2177.70 L1443.30 2190.07 L1422.63 2202.57 L1402.09 2215.32 L1381.42 2228.19 L1360.76 2241.43 L1340.09 2254.80 L1319.55 2268.41 L1298.88 2282.15 L1278.21 2296.01 L1257.55 2309.74 L1237.01 2323.36 L1216.34 2336.47 L1195.67 2349.10 L1175.01 2360.98 L1154.46 2371.99 L1133.80 2382.14 L1113.13 2391.42 L1092.46 2399.83 L1071.92 2407.14 L1051.26 2413.70 L1030.59 2419.26 L1009.92 2424.09 L989.38 2428.30 L968.72 2431.76 L948.05 2434.61 L927.38 2436.96 L906.84 2438.82 L886.17 2440.43 L865.51 2441.54 L844.84 2442.53 L824.30 2443.27 L803.63 2443.89 L782.97 2444.26 L762.30 2444.63 L741.76 2444.88 L721.09 2445.13 L700.42 2445.38 L679.76 2445.50 L659.22 2445.62 L638.55 2445.62 L617.88 2445.75 L597.22 2445.75 L576.67 2445.87 L556.01 2445.87 L535.34 2445.87 L514.68 2445.87 L514.68 2445.87 Z" stroke-linejoin="round"/>
	</defs>
	<defs>
		<clipPath id="clipPath_KhlJFdKE">
			<use xlink:href="#path_JVzWnllA"/>
		</clipPath>
	</defs>
	<use xlink:href="#path_JVzWnllA" style="stroke:none;fill:#3333FF;fill-opacity:0.25"/>
	<use xlink:href="#path_JVzWnllA" style="fill:none;stroke:#0000FF;stroke-opacity:0.25;stroke-width:17.28" clip-path="url(#clipPath_KhlJFdKE)"/>
	<path d=" M494.01 2445.87 L514.68 2445.87 L535.34 2445.87 L555.88 2445.87 L576.55 2445.87 L597.22 2445.87 L617.88 2445.87 L638.43 2445.87 L659.09 2445.87 L679.76 2445.87 L700.42 2445.87 L720.97 2445.87 L741.63 2445.87 L762.30 2445.75 L782.97 2445.62 L803.51 2445.50 L824.17 2445.25 L844.84 2444.88 L865.51 2444.39 L886.05 2443.64 L906.72 2442.78 L927.38 2441.54 L948.05 2440.06 L968.59 2438.07 L989.26 2435.72 L1009.92 2432.75 L1030.59 2429.16 L1051.13 2424.96 L1071.80 2420.13 L1092.46 2414.56 L1113.13 2408.13 L1133.67 2401.07 L1154.34 2393.40 L1175.01 2384.98 L1195.67 2375.95 L1216.21 2366.42 L1236.88 2356.40 L1257.55 2346.13 L1278.21 2335.61 L1298.76 2324.96 L1319.42 2314.32 L1340.09 2303.80 L1360.76 2293.41 L1381.30 2283.14 L1401.96 2273.11 L1422.63 2263.21 L1443.30 2253.43 L1463.84 2243.91 L1484.51 2234.50 L1505.17 2225.22 L1525.84 2216.18 L1546.38 2207.15 L1567.05 2198.36 L1587.71 2189.58 L1608.38 2181.04 L1628.92 2172.62 L1649.59 2164.46 L1670.25 2156.41 L1690.92 2148.61 L1711.46 2140.94 L1732.13 2133.52 L1752.80 2126.34 L1773.46 2119.28 L1794.00 2112.48 L1814.67 2105.92 L1835.34 2099.61 L1856.00 2093.54 L1876.55 2087.60 L1897.21 2081.91 L1917.88 2076.47 L1938.54 2071.27 L1959.09 2066.19 L1979.75 2061.49 L2000.42 2056.91 L2021.09 2052.46 L2041.63 2048.25 L2062.29 2044.17 L2082.96 2040.33 L2103.63 2036.74 L2124.17 2033.15 L2144.84 2029.81 L2165.50 2026.59 L2186.17 2023.62 L2206.71 2020.65 L2227.38 2017.93 L2248.04 2015.33 L2268.71 2012.86 L2289.25 2010.38 L2309.92 2008.15 L2330.58 2006.05 L2351.25 2003.95 L2371.79 2001.97 L2392.46 2000.23 L2413.13 1998.38 L2433.79 1996.77 L2454.33 1995.16 L2475.00 1993.67 L2495.67 1992.19 L2516.33 1990.83 L2536.88 1989.59 L2557.54 1988.35 L2578.21 1987.24 L2598.87 1986.13 L2619.42 1985.01 L2640.08 1984.02 L2660.75 1983.16 L2681.41 1982.17 L2701.96 1981.30 L2722.62 1980.56 L2743.29 1979.69 L2763.96 1978.95 L2784.50 1978.33 L2805.16 1977.59 L2825.83 1976.97 L2846.50 1976.35 L2867.04 1975.73 L2887.71 1975.11 L2908.37 1974.62 L2929.04 1974.00 L2949.58 1973.50 L2970.25 1973.01 L2990.91 1972.51 L3011.58 1972.02 L3032.12 1971.65 L3052.79 1971.15 L3073.45 1970.66 L3094.12 1970.29 L3114.66 1969.79 L3135.33 1969.42 L3156.00 1968.92 L3176.66 1968.55 L3197.20 1968.18 L3217.87 1967.69 L3238.54 1967.32 L3259.20 1966.94" stroke-linejoin="round" style="fill:none;stroke:#FF0000;stroke-width:8.64"/>
	<line x1="494.01" y1="2445.87" x2="514.68" y2="2445.87" style="stroke:#0000FF;stroke-width:8.64"/>
	<line x1="514.68" y1="2445.87" x2="535.34" y2="2445.87" style="stroke:#0000FF;stroke-width:8.64"/>
	<line x1="535.34" y1="2445.87" x2="551.55" y2="2445.87" style="stroke:#0000FF;stroke-width:8.64"/>
	<line x1="580.39" y1="2445.87" x2="597.22" y2="2445.87" style="stroke:#0000FF;stroke-width:8.64"/>
	<line x1="597.22" y1="2445.87" x2="617.88" y2="2445.87" style="stroke:#0000FF;stroke-width:8.64"/>
	<line x1="617.88" y1="2445.87" x2="637.93" y2="2445.87" style="stroke:#0000FF;stroke-width:8.64"/>
	<line x1="666.76" y1="2445.87" x2="679.76" y2="2445.87" style="stroke:#0000FF;stroke-width:8.64"/>
	<line x1="679.76" y1="2445.87" x2="700.42" y2="2445.87" style="stroke:#0000FF;stroke-width:8.64"/>
	<line x1="700.42" y1="2445.87" x2="720.97" y2="2445.87" style="stroke:#0000FF;stroke-width:8.64"/>
	<line x1="720.97" y1="2445.87" x2="724.43" y2="2445.87" style="stroke:#0000FF;stroke-width:8.64"/>
	<line x1="753.14" y1="2445.75" x2="762.30" y2="2445.75" style="stroke:#0000FF;stroke-width:8.64"/>
	<line x1="762.30" y1="2445.75" x2="782.97" y2="2445.62" style="stroke:#0000FF;stroke-width:8.64"/>
	<line x1="782.97" y1="2445.62" x2="803.51" y2="2445.50" style="stroke:#0000FF;stroke-width:8.64"/>
	<line x1="803.51" y1="2445.50" x2="810.81" y2="2445.38" style="stroke:#0000FF;stroke-width:8.64"/>
	<line x1="839.52" y1="2444.88" x2="844.84" y2="2444.76" style="stroke:#0000FF;stroke-width:8.64"/>
	<line x1="844.84" y1="2444.76" x2="865.51" y2="2444.26" style="stroke:#0000FF;stroke-width:8.64"/>
	<line x1="865.51" y1="2444.26" x2="886.05" y2="2443.64" style="stroke:#0000FF;stroke-width:8.64"/>
	<line x1="886.05" y1="2443.64" x2="897.19" y2="2443.15" style="stroke:#0000FF;stroke-width:8.64"/>
	<line x1="925.90" y1="2441.42" x2="927.38" y2="2441.42" style="stroke:#0000FF;stroke-width:8.64"/>
	<line x1="927.38" y1="2441.42" x2="948.05" y2="2439.81" style="stroke:#0000FF;stroke-width:8.64"/>
	<line x1="948.05" y1="2439.81" x2="968.59" y2="2437.83" style="stroke:#0000FF;stroke-width:8.64"/>
	<line x1="968.59" y1="2437.83" x2="983.19" y2="2436.09" style="stroke:#0000FF;stroke-width:8.64"/>
	<line x1="1011.78" y1="2432.01" x2="1030.59" y2="2428.67" style="stroke:#0000FF;stroke-width:8.64"/>
	<line x1="1030.59" y1="2428.67" x2="1051.13" y2="2424.34" style="stroke:#0000FF;stroke-width:8.64"/>
	<line x1="1051.13" y1="2424.34" x2="1068.09" y2="2420.25" style="stroke:#0000FF;stroke-width:8.64"/>
	<line x1="1095.81" y1="2412.46" x2="1113.13" y2="2406.89" style="stroke:#0000FF;stroke-width:8.64"/>
	<line x1="1113.13" y1="2406.89" x2="1133.67" y2="2399.59" style="stroke:#0000FF;stroke-width:8.64"/>
	<line x1="1133.67" y1="2399.59" x2="1150.01" y2="2393.15" style="stroke:#0000FF;stroke-width:8.64"/>
	<line x1="1176.62" y1="2382.14" x2="1195.67" y2="2373.60" style="stroke:#0000FF;stroke-width:8.64"/>
	<line x1="1195.67" y1="2373.60" x2="1216.21" y2="2363.70" style="stroke:#0000FF;stroke-width:8.64"/>
	<line x1="1216.21" y1="2363.70" x2="1228.59" y2="2357.51" style="stroke:#0000FF;stroke-width:8.64"/>
	<line x1="1254.33" y1="2344.39" x2="1257.55" y2="2342.66" style="stroke:#0000FF;stroke-width:8.64"/>
	<line x1="1257.55" y1="2342.66" x2="1278.21" y2="2331.89" style="stroke:#0000FF;stroke-width:8.64"/>
	<line x1="1278.21" y1="2331.89" x2="1298.76" y2="2320.88" style="stroke:#0000FF;stroke-width:8.64"/>
	<line x1="1298.76" y1="2320.88" x2="1305.19" y2="2317.54" style="stroke:#0000FF;stroke-width:8.64"/>
	<line x1="1330.68" y1="2304.05" x2="1340.09" y2="2299.10" style="stroke:#0000FF;stroke-width:8.64"/>
	<line x1="1340.09" y1="2299.10" x2="1360.76" y2="2288.33" style="stroke:#0000FF;stroke-width:8.64"/>
	<line x1="1360.76" y1="2288.33" x2="1381.30" y2="2277.69" style="stroke:#0000FF;stroke-width:8.64"/>
	<line x1="1381.30" y1="2277.69" x2="1381.79" y2="2277.44" style="stroke:#0000FF;stroke-width:8.64"/>
	<line x1="1407.53" y1="2264.57" x2="1422.63" y2="2257.02" style="stroke:#0000FF;stroke-width:8.64"/>
	<line x1="1422.63" y1="2257.02" x2="1443.30" y2="2247.00" style="stroke:#0000FF;stroke-width:8.64"/>
	<line x1="1443.30" y1="2247.00" x2="1459.26" y2="2239.33" style="stroke:#0000FF;stroke-width:8.64"/>
	<line x1="1485.37" y1="2227.07" x2="1505.17" y2="2217.79" style="stroke:#0000FF;stroke-width:8.64"/>
	<line x1="1505.17" y1="2217.79" x2="1525.84" y2="2208.39" style="stroke:#0000FF;stroke-width:8.64"/>
	<line x1="1525.84" y1="2208.39" x2="1537.59" y2="2203.07" style="stroke:#0000FF;stroke-width:8.64"/>
	<line x1="1563.95" y1="2191.31" x2="1567.05" y2="2189.95" style="stroke:#0000FF;stroke-width:8.64"/>
	<line x1="1567.05" y1="2189.95" x2="1587.71" y2="2181.04" style="stroke:#0000FF;stroke-width:8.64"/>
	<line x1="1587.71" y1="2181.04" x2="1608.38" y2="2172.13" style="stroke:#0000FF;stroke-width:8.64"/>
	<line x1="1608.38" y1="2172.13" x2="1616.79" y2="2168.54" style="stroke:#0000FF;stroke-width:8.64"/>
	<line x1="1643.40" y1="2157.52" x2="1649.59" y2="2154.93" style="stroke:#0000FF;stroke-width:8.64"/>
	<line x1="1649.59" y1="2154.93" x2="1670.25" y2="2146.63" style="stroke:#0000FF;stroke-width:8.64"/>
	<line x1="1670.25" y1="2146.63" x2="1690.92" y2="2138.59" style="stroke:#0000FF;stroke-width:8.64"/>
	<line x1="1690.92" y1="2138.59" x2="1696.98" y2="2136.24" style="stroke:#0000FF;stroke-width:8.64"/>
	<line x1="1723.84" y1="2126.09" x2="1732.13" y2="2123.00" style="stroke:#0000FF;stroke-width:8.64"/>
	<line x1="1732.13" y1="2123.00" x2="1752.80" y2="2115.57" style="stroke:#0000FF;stroke-width:8.64"/>
	<line x1="1752.80" y1="2115.57" x2="1773.46" y2="2108.27" style="stroke:#0000FF;stroke-width:8.64"/>
	<line x1="1773.46" y1="2108.27" x2="1778.04" y2="2106.66" style="stroke:#0000FF;stroke-width:8.64"/>
	<line x1="1805.51" y1="2097.50" x2="1814.67" y2="2094.53" style="stroke:#0000FF;stroke-width:8.64"/>
	<line x1="1814.67" y1="2094.53" x2="1835.34" y2="2087.98" style="stroke:#0000FF;stroke-width:8.64"/>
	<line x1="1835.34" y1="2087.98" x2="1856.00" y2="2081.66" style="stroke:#0000FF;stroke-width:8.64"/>
	<line x1="1856.00" y1="2081.66" x2="1860.33" y2="2080.30" style="stroke:#0000FF;stroke-width:8.64"/>
	<line x1="1888.05" y1="2072.26" x2="1897.21" y2="2069.66" style="stroke:#0000FF;stroke-width:8.64"/>
	<line x1="1897.21" y1="2069.66" x2="1917.88" y2="2064.09" style="stroke:#0000FF;stroke-width:8.64"/>
	<line x1="1917.88" y1="2064.09" x2="1938.54" y2="2058.65" style="stroke:#0000FF;stroke-width:8.64"/>
	<line x1="1938.54" y1="2058.65" x2="1943.62" y2="2057.41" style="stroke:#0000FF;stroke-width:8.64"/>
	<line x1="1971.59" y1="2050.48" x2="1979.75" y2="2048.50" style="stroke:#0000FF;stroke-width:8.64"/>
	<line x1="1979.75" y1="2048.50" x2="2000.42" y2="2043.80" style="stroke:#0000FF;stroke-width:8.64"/>
	<line x1="2000.42" y1="2043.80" x2="2021.09" y2="2039.22" style="stroke:#0000FF;stroke-width:8.64"/>
	<line x1="2021.09" y1="2039.22" x2="2027.77" y2="2037.85" style="stroke:#0000FF;stroke-width:8.64"/>
	<line x1="2055.98" y1="2032.04" x2="2062.29" y2="2030.68" style="stroke:#0000FF;stroke-width:8.64"/>
	<line x1="2062.29" y1="2030.68" x2="2082.96" y2="2026.72" style="stroke:#0000FF;stroke-width:8.64"/>
	<line x1="2082.96" y1="2026.72" x2="2103.63" y2="2023.00" style="stroke:#0000FF;stroke-width:8.64"/>
	<line x1="2103.63" y1="2023.00" x2="2112.66" y2="2021.40" style="stroke:#0000FF;stroke-width:8.64"/>
	<line x1="2141.00" y1="2016.57" x2="2144.84" y2="2015.83" style="stroke:#0000FF;stroke-width:8.64"/>
	<line x1="2144.84" y1="2015.83" x2="2165.50" y2="2012.61" style="stroke:#0000FF;stroke-width:8.64"/>
	<line x1="2165.50" y1="2012.61" x2="2186.17" y2="2009.39" style="stroke:#0000FF;stroke-width:8.64"/>
	<line x1="2186.17" y1="2009.39" x2="2197.92" y2="2007.66" style="stroke:#0000FF;stroke-width:8.64"/>
	<line x1="2226.39" y1="2003.70" x2="2227.38" y2="2003.58" style="stroke:#0000FF;stroke-width:8.64"/>
	<line x1="2227.38" y1="2003.58" x2="2248.04" y2="2000.85" style="stroke:#0000FF;stroke-width:8.64"/>
	<line x1="2248.04" y1="2000.85" x2="2268.71" y2="1998.25" style="stroke:#0000FF;stroke-width:8.64"/>
	<line x1="2268.71" y1="1998.25" x2="2283.56" y2="1996.52" style="stroke:#0000FF;stroke-width:8.64"/>
	<line x1="2312.27" y1="1993.18" x2="2330.58" y2="1991.20" style="stroke:#0000FF;stroke-width:8.64"/>
	<line x1="2330.58" y1="1991.20" x2="2351.25" y2="1989.10" style="stroke:#0000FF;stroke-width:8.64"/>
	<line x1="2351.25" y1="1989.10" x2="2369.44" y2="1987.36" style="stroke:#0000FF;stroke-width:8.64"/>
	<line x1="2398.15" y1="1984.76" x2="2413.13" y2="1983.40" style="stroke:#0000FF;stroke-width:8.64"/>
	<line x1="2413.13" y1="1983.40" x2="2433.79" y2="1981.67" style="stroke:#0000FF;stroke-width:8.64"/>
	<line x1="2433.79" y1="1981.67" x2="2454.33" y2="1980.06" style="stroke:#0000FF;stroke-width:8.64"/>
	<line x1="2454.33" y1="1980.06" x2="2455.57" y2="1979.94" style="stroke:#0000FF;stroke-width:8.64"/>
	<line x1="2484.28" y1="1977.71" x2="2495.67" y2="1976.97" style="stroke:#0000FF;stroke-width:8.64"/>
	<line x1="2495.67" y1="1976.97" x2="2516.33" y2="1975.61" style="stroke:#0000FF;stroke-width:8.64"/>
	<line x1="2516.33" y1="1975.61" x2="2536.88" y2="1974.25" style="stroke:#0000FF;stroke-width:8.64"/>
	<line x1="2536.88" y1="1974.25" x2="2541.82" y2="1973.87" style="stroke:#0000FF;stroke-width:8.64"/>
	<line x1="2570.53" y1="1972.27" x2="2578.21" y2="1971.77" style="stroke:#0000FF;stroke-width:8.64"/>
	<line x1="2578.21" y1="1971.77" x2="2598.87" y2="1970.66" style="stroke:#0000FF;stroke-width:8.64"/>
	<line x1="2598.87" y1="1970.66" x2="2619.42" y2="1969.54" style="stroke:#0000FF;stroke-width:8.64"/>
	<line x1="2619.42" y1="1969.54" x2="2628.08" y2="1969.17" style="stroke:#0000FF;stroke-width:8.64"/>
	<line x1="2656.91" y1="1967.81" x2="2660.75" y2="1967.56" style="stroke:#0000FF;stroke-width:8.64"/>
	<line x1="2660.75" y1="1967.56" x2="2681.41" y2="1966.70" style="stroke:#0000FF;stroke-width:8.64"/>
	<line x1="2681.41" y1="1966.70" x2="2701.96" y2="1965.71" style="stroke:#0000FF;stroke-width:8.64"/>
	<line x1="2701.96" y1="1965.71" x2="2714.46" y2="1965.21" style="stroke:#0000FF;stroke-width:8.64"/>
	<line x1="2743.29" y1="1964.10" x2="2743.29" y2="1964.10" style="stroke:#0000FF;stroke-width:8.64"/>
	<line x1="2743.29" y1="1964.10" x2="2763.96" y2="1963.36" style="stroke:#0000FF;stroke-width:8.64"/>
	<line x1="2763.96" y1="1963.36" x2="2784.50" y2="1962.61" style="stroke:#0000FF;stroke-width:8.64"/>
	<line x1="2784.50" y1="1962.61" x2="2800.83" y2="1961.99" style="stroke:#0000FF;stroke-width:8.64"/>
	<line x1="2829.67" y1="1961.13" x2="2846.50" y2="1960.51" style="stroke:#0000FF;stroke-width:8.64"/>
	<line x1="2846.50" y1="1960.51" x2="2867.04" y2="1959.89" style="stroke:#0000FF;stroke-width:8.64"/>
	<line x1="2867.04" y1="1959.89" x2="2887.21" y2="1959.39" style="stroke:#0000FF;stroke-width:8.64"/>
	<line x1="2916.05" y1="1958.53" x2="2929.04" y2="1958.16" style="stroke:#0000FF;stroke-width:8.64"/>
	<line x1="2929.04" y1="1958.16" x2="2949.58" y2="1957.66" style="stroke:#0000FF;stroke-width:8.64"/>
	<line x1="2949.58" y1="1957.66" x2="2970.25" y2="1957.17" style="stroke:#0000FF;stroke-width:8.64"/>
	<line x1="2970.25" y1="1957.17" x2="2973.59" y2="1957.17" style="stroke:#0000FF;stroke-width:8.64"/>
	<line x1="3002.42" y1="1956.42" x2="3011.58" y2="1956.18" style="stroke:#0000FF;stroke-width:8.64"/>
	<line x1="3011.58" y1="1956.18" x2="3032.12" y2="1955.68" style="stroke:#0000FF;stroke-width:8.64"/>
	<line x1="3032.12" y1="1955.68" x2="3052.79" y2="1955.19" style="stroke:#0000FF;stroke-width:8.64"/>
	<line x1="3052.79" y1="1955.19" x2="3059.97" y2="1954.94" style="stroke:#0000FF;stroke-width:8.64"/>
	<line x1="3088.80" y1="1954.44" x2="3094.12" y2="1954.32" style="stroke:#0000FF;stroke-width:8.64"/>
	<line x1="3094.12" y1="1954.32" x2="3114.66" y2="1953.83" style="stroke:#0000FF;stroke-width:8.64"/>
	<line x1="3114.66" y1="1953.83" x2="3135.33" y2="1953.45" style="stroke:#0000FF;stroke-width:8.64"/>
	<line x1="3135.33" y1="1953.45" x2="3146.34" y2="1953.21" style="stroke:#0000FF;stroke-width:8.64"/>
	<line x1="3175.18" y1="1952.59" x2="3176.66" y2="1952.46" style="stroke:#0000FF;stroke-width:8.64"/>
	<line x1="3176.66" y1="1952.46" x2="3197.20" y2="1952.09" style="stroke:#0000FF;stroke-width:8.64"/>
	<line x1="3197.20" y1="1952.09" x2="3217.87" y2="1951.60" style="stroke:#0000FF;stroke-width:8.64"/>
	<line x1="3217.87" y1="1951.60" x2="3232.72" y2="1951.35" style="stroke:#0000FF;stroke-width:8.64"/>
	<path d="" stroke-linejoin="round" style="fill:none;stroke:#0000FF;stroke-width:8.64"/>
	<line x1="430.77" y1="2509.23" x2="430.77" y2="245.40" style="stroke:#000000;stroke-width:5.76"/>
	<line x1="430.77" y1="2445.87" x2="390.80" y2="2445.87" style="stroke:#000000;stroke-width:5.76"/>
	<text x="370.75" y="2473.88" style="font-family:'Helvetica';font-size:79.94px;fill:#000000" text-anchor="end">0.0</text>
	<line x1="430.77" y1="2232.15" x2="390.80" y2="2232.15" style="stroke:#000000;stroke-width:5.76"/>
	<text x="370.75" y="2260.16" style="font-family:'Helvetica';font-size:79.94px;fill:#000000" text-anchor="end">0.1</text>
	<line x1="430.77" y1="2018.43" x2="390.80" y2="2018.43" style="stroke:#000000;stroke-width:5.76"/>
	<text x="370.75" y="2046.44" style="font-family:'Helvetica';font-size:79.94px;fill:#000000" text-anchor="end">0.2</text>
	<line x1="430.77" y1="1804.70" x2="390.80" y2="1804.70" style="stroke:#000000;stroke-width:5.76"/>
	<text x="370.75" y="1832.71" style="font-family:'Helvetica';font-size:79.94px;fill:#000000" text-anchor="end">0.3</text>
	<line x1="430.77" y1="1590.98" x2="390.80" y2="1590.98" style="stroke:#000000;stroke-width:5.76"/>
	<text x="370.75" y="1618.99" style="font-family:'Helvetica';font-size:79.94px;fill:#000000" text-anchor="end">0.4</text>
	<line x1="430.77" y1="1377.26" x2="390.80" y2="1377.26" style="stroke:#000000;stroke-width:5.76"/>
	<text x="370.75" y="1405.27" style="font-family:'Helvetica';font-size:79.94px;fill:#000000" text-anchor="end">0.5</text>
	<line x1="430.77" y1="1163.53" x2="390.80" y2="1163.53" style="stroke:#000000;stroke-width:5.76"/>
	<text x="370.75" y="1191.55" style="font-family:'Helvetica';font-size:79.94px;fill:#000000" text-anchor="end">0.6</text>
	<line x1="430.77" y1="949.81" x2="390.80" y2="949.81" style="stroke:#000000;stroke-width:5.76"/>
	<text x="370.75" y="977.82" style="font-family:'Helvetica';font-size:79.94px;fill:#000000" text-anchor="end">0.7</text>
	<line x1="430.77" y1="736.09" x2="390.80" y2="736.09" style="stroke:#000000;stroke-width:5.76"/>
	<text x="370.75" y="764.10" style="font-family:'Helvetica';font-size:79.94px;fill:#000000" text-anchor="end">0.8</text>
	<line x1="430.77" y1="522.49" x2="390.80" y2="522.49" style="stroke:#000000;stroke-width:5.76"/>
	<text x="370.75" y="550.50" style="font-family:'Helvetica';font-size:79.94px;fill:#000000" text-anchor="end">0.9</text>
	<line x1="430.77" y1="308.77" x2="390.80" y2="308.77" style="stroke:#000000;stroke-width:5.76"/>
	<text x="370.75" y="336.78" style="font-family:'Helvetica';font-size:79.94px;fill:#000000" text-anchor="end">1.0</text>
	<text x="190.71" y="1377.26" style="font-family:'Helvetica';font-size:99.99px;fill:#000000" transform="rotate(-90 190.71,1377.26)" text-anchor="middle">Cumulative mortality (%)</text>
	<line x1="430.77" y1="2509.23" x2="3859.02" y2="2509.23" style="stroke:#000000;stroke-width:5.76"/>
	<line x1="494.13" y1="2509.23" x2="494.13" y2="2549.21" style="stroke:#000000;stroke-width:5.76"/>
	<text x="494.13" y="2625.15" style="font-family:'Helvetica';font-size:79.94px;fill:#000000" text-anchor="middle">0</text>
	<line x1="906.84" y1="2509.23" x2="906.84" y2="2549.21" style="stroke:#000000;stroke-width:5.76"/>
	<text x="906.84" y="2625.15" style="font-family:'Helvetica';font-size:79.94px;fill:#000000" text-anchor="middle">20</text>
	<line x1="1319.55" y1="2509.23" x2="1319.55" y2="2549.21" style="stroke:#000000;stroke-width:5.76"/>
	<text x="1319.55" y="2625.15" style="font-family:'Helvetica';font-size:79.94px;fill:#000000" text-anchor="middle">40</text>
	<line x1="1732.25" y1="2509.23" x2="1732.25" y2="2549.21" style="stroke:#000000;stroke-width:5.76"/>
	<text x="1732.25" y="2625.15" style="font-family:'Helvetica';font-size:79.94px;fill:#000000" text-anchor="middle">60</text>
	<line x1="2144.96" y1="2509.23" x2="2144.96" y2="2549.21" style="stroke:#000000;stroke-width:5.76"/>
	<text x="2144.96" y="2625.15" style="font-family:'Helvetica';font-size:79.94px;fill:#000000" text-anchor="middle">80</text>
	<line x1="2557.66" y1="2509.23" x2="2557.66" y2="2549.21" style="stroke:#000000;stroke-width:5.76"/>
	<text x="2557.66" y="2625.15" style="font-family:'Helvetica';font-size:79.94px;fill:#000000" text-anchor="middle">100</text>
	<line x1="2970.37" y1="2509.23" x2="2970.37" y2="2549.21" style="stroke:#000000;stroke-width:5.76"/>
	<text x="2970.37" y="2625.15" style="font-family:'Helvetica';font-size:79.94px;fill:#000000" text-anchor="middle">120</text>
	<line x1="3383.08" y1="2509.23" x2="3383.08" y2="2549.21" style="stroke:#000000;stroke-width:5.76"/>
	<text x="3383.08" y="2625.15" style="font-family:'Helvetica';font-size:79.94px;fill:#000000" text-anchor="middle">140</text>
	<line x1="3795.78" y1="2509.23" x2="3795.78" y2="2549.21" style="stroke:#000000;stroke-width:5.76"/>
	<text x="3795.78" y="2625.15" style="font-family:'Helvetica';font-size:79.94px;fill:#000000" text-anchor="middle">160</text>
	<text x="2144.96" y="2729.16" style="font-family:'Helvetica';font-size:99.99px;fill:#000000" text-anchor="middle">Days since 1 Mar 2020</text>
	<rect x="465.30" y="279.93" width="917.48" height="326.34" style="fill:#FFFFFF"/>
	<rect x="468.18" y="282.81" width="911.72" height="320.58" style="fill:none;stroke:#EAF2F3;stroke-width:5.76"/>
	<rect x="508.49" y="323.12" width="374.34" height="99.99" style="fill:#FF3333;fill-opacity:0.25"/>
	<rect x="512.81" y="327.44" width="365.70" height="91.35" style="fill:none;stroke:#FF0000;stroke-opacity:0.25;stroke-width:8.64"/>
	<rect x="508.49" y="463.09" width="374.34" height="99.99" style="fill:#3333FF;fill-opacity:0.25"/>
	<rect x="512.81" y="467.41" width="365.70" height="91.35" style="fill:none;stroke:#0000FF;stroke-opacity:0.25;stroke-width:8.64"/>
	<text x="942.85" y="408.15" style="font-family:'Helvetica';font-size:99.99px;fill:#000000">No HCQ</text>
	<text x="942.85" y="548.11" style="font-family:'Helvetica';font-size:99.99px;fill:#000000">HCQ</text>
	<text x="1305.93" y="195.01" style="font-family:'Helvetica';font-size:110.01px;fill:#1E2D53">Time to COVID-19 Death in ONS</text>
</svg>
