<?xml version="1.0" encoding="UTF-8" standalone="no"?>
<!-- This is a Stata 16.1 generated SVG file (http://www.stata.com) -->

<svg version="1.1" width="5.50in" height="4.00in" viewBox="0 0 3960 2880" xmlns="http://www.w3.org/2000/svg" xmlns:xlink="http://www.w3.org/1999/xlink">
	<desc>Stata Graph - Graph</desc>
	<rect x="0" y="0" width="3960" height="2880" style="fill:#EAF2F3;stroke:none"/>
	<rect x="0.00" y="0.00" width="3959.88" height="2880.00" style="fill:#FFFFFF"/>
	<rect x="2.88" y="2.88" width="3954.12" height="2874.24" style="fill:none;stroke:#EAF2F3;stroke-width:5.76"/>
	<rect x="430.77" y="245.40" width="3428.25" height="2263.83" style="fill:#FFFFFF"/>
	<rect x="433.65" y="248.28" width="3422.49" height="2258.07" style="fill:none;stroke:#FFFFFF;stroke-width:5.76"/>
	<line x1="430.77" y1="2445.87" x2="3859.02" y2="2445.87" style="stroke:#EAF2F3;stroke-width:8.64"/>
	<line x1="430.77" y1="2232.15" x2="3859.02" y2="2232.15" style="stroke:#EAF2F3;stroke-width:8.64"/>
	<line x1="430.77" y1="2018.43" x2="3859.02" y2="2018.43" style="stroke:#EAF2F3;stroke-width:8.64"/>
	<line x1="430.77" y1="1804.70" x2="3859.02" y2="1804.70" style="stroke:#EAF2F3;stroke-width:8.64"/>
	<line x1="430.77" y1="1590.98" x2="3859.02" y2="1590.98" style="stroke:#EAF2F3;stroke-width:8.64"/>
	<line x1="430.77" y1="1377.26" x2="3859.02" y2="1377.26" style="stroke:#EAF2F3;stroke-width:8.64"/>
	<line x1="430.77" y1="1163.53" x2="3859.02" y2="1163.53" style="stroke:#EAF2F3;stroke-width:8.64"/>
	<line x1="430.77" y1="949.81" x2="3859.02" y2="949.81" style="stroke:#EAF2F3;stroke-width:8.64"/>
	<line x1="430.77" y1="736.09" x2="3859.02" y2="736.09" style="stroke:#EAF2F3;stroke-width:8.64"/>
	<line x1="430.77" y1="522.49" x2="3859.02" y2="522.49" style="stroke:#EAF2F3;stroke-width:8.64"/>
	<line x1="430.77" y1="308.77" x2="3859.02" y2="308.77" style="stroke:#EAF2F3;stroke-width:8.64"/>
	<defs>
		<path id="path_DfUiLUzW" d="M514.68 2445.87 L514.68 2445.87 L535.34 2445.87 L556.01 2445.87 L576.67 2445.87 L597.22 2445.87 L617.88 2445.87 L638.55 2445.87 L659.22 2445.87 L679.76 2445.87 L700.42 2445.87 L721.09 2445.87 L741.76 2445.87 L762.30 2445.87 L782.97 2445.87 L803.63 2445.87 L824.30 2445.87 L844.84 2445.87 L865.51 2445.87 L886.17 2445.87 L906.84 2445.87 L927.38 2445.87 L948.05 2445.87 L968.72 2445.75 L989.38 2445.75 L1009.92 2445.75 L1030.59 2445.62 L1051.26 2445.50 L1071.92 2445.25 L1092.46 2445.01 L1113.13 2444.51 L1133.80 2443.89 L1154.46 2443.15 L1175.01 2442.04 L1195.67 2440.80 L1216.34 2439.19 L1237.01 2437.21 L1257.55 2435.10 L1278.21 2432.75 L1298.88 2430.15 L1319.55 2427.56 L1340.09 2424.83 L1360.76 2421.99 L1381.42 2419.26 L1402.09 2416.42 L1422.63 2413.70 L1443.30 2410.97 L1463.96 2408.37 L1484.63 2405.78 L1505.17 2403.18 L1525.84 2400.70 L1546.50 2398.35 L1567.17 2396.00 L1587.71 2393.65 L1608.38 2391.42 L1629.05 2389.07 L1649.71 2386.84 L1670.25 2384.49 L1690.92 2382.14 L1711.59 2379.91 L1732.25 2377.56 L1752.80 2375.21 L1773.46 2372.98 L1794.13 2370.75 L1814.79 2368.40 L1835.34 2366.17 L1856.00 2364.07 L1876.67 2361.97 L1897.34 2359.86 L1917.88 2357.88 L1938.54 2355.90 L1959.21 2354.05 L1979.88 2352.19 L2000.42 2350.46 L2021.09 2348.85 L2041.75 2347.24 L2062.42 2345.75 L2082.96 2344.27 L2103.63 2342.91 L2124.29 2341.55 L2144.96 2340.31 L2165.50 2339.20 L2186.17 2337.96 L2206.83 2336.97 L2227.50 2335.85 L2248.04 2334.86 L2268.71 2334.00 L2289.38 2333.13 L2310.04 2332.27 L2330.58 2331.40 L2351.25 2330.66 L2371.92 2329.91 L2392.58 2329.30 L2413.13 2328.55 L2433.79 2327.93 L2454.46 2327.44 L2475.12 2326.82 L2495.67 2326.33 L2516.33 2325.71 L2537.00 2325.21 L2557.66 2324.84 L2578.21 2324.35 L2598.87 2323.97 L2619.54 2323.60 L2640.21 2323.11 L2660.75 2322.74 L2681.41 2322.49 L2702.08 2322.12 L2722.75 2321.75 L2743.29 2321.50 L2763.96 2321.25 L2784.62 2321.00 L2805.29 2320.63 L2825.83 2320.39 L2846.50 2320.14 L2867.16 2320.01 L2887.83 2319.77 L2908.37 2319.52 L2929.04 2319.27 L2949.70 2319.15 L2970.37 2318.90 L2990.91 2318.78 L3011.58 2318.53 L3032.25 2318.40 L3052.91 2318.28 L3073.45 2318.03 L3094.12 2317.91 L3114.79 2317.79 L3135.45 2317.66 L3156.00 2317.41 L3176.66 2317.29 L3197.33 2317.17 L3217.99 2317.04 L3238.54 2316.92 L3259.20 2316.80 L3259.20 2139.95 L3238.54 2140.20 L3217.99 2140.57 L3197.33 2140.94 L3176.66 2141.19 L3156.00 2141.56 L3135.45 2141.93 L3114.79 2142.30 L3094.12 2142.55 L3073.45 2142.92 L3052.91 2143.29 L3032.25 2143.66 L3011.58 2144.04 L2990.91 2144.28 L2970.37 2144.65 L2949.70 2145.15 L2929.04 2145.52 L2908.37 2145.89 L2887.83 2146.26 L2867.16 2146.76 L2846.50 2147.13 L2825.83 2147.62 L2805.29 2148.12 L2784.62 2148.61 L2763.96 2149.23 L2743.29 2149.73 L2722.75 2150.35 L2702.08 2150.97 L2681.41 2151.58 L2660.75 2152.33 L2640.21 2153.07 L2619.54 2153.81 L2598.87 2154.55 L2578.21 2155.42 L2557.66 2156.29 L2537.00 2157.28 L2516.33 2158.27 L2495.67 2159.38 L2475.12 2160.50 L2454.46 2161.61 L2433.79 2162.85 L2413.13 2164.21 L2392.58 2165.57 L2371.92 2167.05 L2351.25 2168.54 L2330.58 2170.15 L2310.04 2171.88 L2289.38 2173.61 L2268.71 2175.47 L2248.04 2177.45 L2227.50 2179.55 L2206.83 2181.66 L2186.17 2183.88 L2165.50 2186.24 L2144.96 2188.71 L2124.29 2191.31 L2103.63 2193.91 L2082.96 2196.63 L2062.42 2199.60 L2041.75 2202.57 L2021.09 2205.67 L2000.42 2208.76 L1979.88 2212.10 L1959.21 2215.44 L1938.54 2218.91 L1917.88 2222.50 L1897.34 2226.21 L1876.67 2229.92 L1856.00 2233.88 L1835.34 2237.84 L1814.79 2241.93 L1794.13 2246.01 L1773.46 2250.34 L1752.80 2254.80 L1732.25 2259.25 L1711.59 2263.83 L1690.92 2268.53 L1670.25 2273.36 L1649.71 2278.18 L1629.05 2283.01 L1608.38 2287.84 L1587.71 2292.54 L1567.17 2297.37 L1546.50 2302.07 L1525.84 2306.90 L1505.17 2311.85 L1484.63 2316.92 L1463.96 2322.24 L1443.30 2327.93 L1422.63 2334.12 L1402.09 2340.68 L1381.42 2347.73 L1360.76 2355.04 L1340.09 2362.59 L1319.55 2370.01 L1298.88 2377.19 L1278.21 2383.75 L1257.55 2389.93 L1237.01 2395.38 L1216.34 2400.33 L1195.67 2404.66 L1175.01 2408.62 L1154.46 2412.09 L1133.80 2415.18 L1113.13 2417.90 L1092.46 2420.38 L1071.92 2422.61 L1051.26 2424.71 L1030.59 2426.57 L1009.92 2428.17 L989.38 2429.78 L968.72 2431.14 L948.05 2432.51 L927.38 2433.74 L906.84 2434.73 L886.17 2435.85 L865.51 2436.71 L844.84 2437.58 L824.30 2438.32 L803.63 2438.94 L782.97 2439.56 L762.30 2440.18 L741.76 2440.67 L721.09 2441.05 L700.42 2441.42 L679.76 2441.79 L659.22 2442.04 L638.55 2442.16 L617.88 2442.28 L597.22 2442.28 L576.67 2442.16 L556.01 2441.91 L535.34 2444.26 L514.68 2445.87 L514.68 2445.87 Z" stroke-linejoin="round"/>
	</defs>
	<defs>
		<clipPath id="clipPath_vgTgZxRv">
			<use xlink:href="#path_DfUiLUzW"/>
		</clipPath>
	</defs>
	<use xlink:href="#path_DfUiLUzW" style="stroke:none;fill:#FF3333;fill-opacity:0.25"/>
	<use xlink:href="#path_DfUiLUzW" style="fill:none;stroke:#FF0000;stroke-opacity:0.25;stroke-width:17.28" clip-path="url(#clipPath_vgTgZxRv)"/>
	<defs>
		<path id="path_oRqcSloC" d="M514.68 2445.87 L514.68 2445.87 L535.34 2445.87 L556.01 2445.87 L576.67 2445.87 L597.22 2445.87 L617.88 2445.87 L638.55 2445.87 L659.22 2445.87 L679.76 2445.87 L700.42 2445.87 L721.09 2445.87 L741.76 2445.87 L762.30 2445.87 L782.97 2445.87 L803.63 2445.87 L824.30 2445.87 L844.84 2445.87 L865.51 2445.87 L886.17 2445.87 L906.84 2445.87 L927.38 2445.87 L948.05 2445.87 L968.72 2445.75 L989.38 2445.75 L1009.92 2445.62 L1030.59 2445.50 L1051.26 2445.25 L1071.92 2444.88 L1092.46 2444.51 L1113.13 2443.77 L1133.80 2442.90 L1154.46 2441.79 L1175.01 2440.30 L1195.67 2438.32 L1216.34 2436.09 L1237.01 2433.50 L1257.55 2430.40 L1278.21 2427.18 L1298.88 2423.72 L1319.55 2420.01 L1340.09 2416.17 L1360.76 2412.46 L1381.42 2408.62 L1402.09 2404.79 L1422.63 2401.20 L1443.30 2397.48 L1463.96 2394.02 L1484.63 2390.55 L1505.17 2387.09 L1525.84 2383.87 L1546.50 2380.65 L1567.17 2377.56 L1587.71 2374.47 L1608.38 2371.50 L1629.05 2368.40 L1649.71 2365.43 L1670.25 2362.46 L1690.92 2359.37 L1711.59 2356.40 L1732.25 2353.30 L1752.80 2350.33 L1773.46 2347.36 L1794.13 2344.39 L1814.79 2341.42 L1835.34 2338.58 L1856.00 2335.73 L1876.67 2333.01 L1897.34 2330.29 L1917.88 2327.69 L1938.54 2325.21 L1959.21 2322.74 L1979.88 2320.39 L2000.42 2318.16 L2021.09 2316.05 L2041.75 2313.95 L2062.42 2311.97 L2082.96 2310.11 L2103.63 2308.38 L2124.29 2306.65 L2144.96 2305.04 L2165.50 2303.43 L2186.17 2301.95 L2206.83 2300.58 L2227.50 2299.22 L2248.04 2297.99 L2268.71 2296.75 L2289.38 2295.51 L2310.04 2294.40 L2330.58 2293.41 L2351.25 2292.42 L2371.92 2291.43 L2392.58 2290.56 L2413.13 2289.69 L2433.79 2288.83 L2454.46 2288.09 L2475.12 2287.34 L2495.67 2286.60 L2516.33 2285.98 L2537.00 2285.36 L2557.66 2284.74 L2578.21 2284.13 L2598.87 2283.63 L2619.54 2283.01 L2640.21 2282.52 L2660.75 2282.02 L2681.41 2281.65 L2702.08 2281.16 L2722.75 2280.78 L2743.29 2280.41 L2763.96 2280.04 L2784.62 2279.67 L2805.29 2279.30 L2825.83 2279.05 L2846.50 2278.68 L2867.16 2278.43 L2887.83 2278.18 L2908.37 2277.81 L2929.04 2277.57 L2949.70 2277.32 L2970.37 2277.07 L2990.91 2276.82 L3011.58 2276.58 L3032.25 2276.33 L3052.91 2276.20 L3073.45 2275.96 L3094.12 2275.71 L3114.79 2275.59 L3135.45 2275.34 L3156.00 2275.09 L3176.66 2274.97 L3197.33 2274.72 L3217.99 2274.60 L3238.54 2274.35 L3259.20 2274.22 L3259.20 1855.44 L3238.54 1856.06 L3217.99 1856.80 L3197.33 1857.42 L3176.66 1858.04 L3156.00 1858.66 L3135.45 1859.40 L3114.79 1860.02 L3094.12 1860.64 L3073.45 1861.38 L3052.91 1862.00 L3032.25 1862.74 L3011.58 1863.36 L2990.91 1864.10 L2970.37 1864.85 L2949.70 1865.59 L2929.04 1866.33 L2908.37 1867.20 L2887.83 1867.94 L2867.16 1868.81 L2846.50 1869.80 L2825.83 1870.66 L2805.29 1871.65 L2784.62 1872.64 L2763.96 1873.76 L2743.29 1874.87 L2722.75 1875.98 L2702.08 1877.22 L2681.41 1878.46 L2660.75 1879.82 L2640.21 1881.31 L2619.54 1882.79 L2598.87 1884.40 L2578.21 1886.01 L2557.66 1887.87 L2537.00 1889.72 L2516.33 1891.70 L2495.67 1893.81 L2475.12 1895.91 L2454.46 1898.26 L2433.79 1900.74 L2413.13 1903.21 L2392.58 1905.93 L2371.92 1908.78 L2351.25 1911.87 L2330.58 1914.97 L2310.04 1918.31 L2289.38 1921.77 L2268.71 1925.49 L2248.04 1929.32 L2227.50 1933.28 L2206.83 1937.49 L2186.17 1941.95 L2165.50 1946.52 L2144.96 1951.35 L2124.29 1956.42 L2103.63 1961.62 L2082.96 1967.07 L2062.42 1972.76 L2041.75 1978.58 L2021.09 1984.76 L2000.42 1991.08 L1979.88 1997.63 L1959.21 2004.44 L1938.54 2011.37 L1917.88 2018.55 L1897.34 2025.97 L1876.67 2033.52 L1856.00 2041.32 L1835.34 2049.24 L1814.79 2057.53 L1794.13 2065.82 L1773.46 2074.49 L1752.80 2083.15 L1732.25 2092.18 L1711.59 2101.22 L1690.92 2110.50 L1670.25 2119.90 L1649.71 2129.43 L1629.05 2138.84 L1608.38 2148.37 L1587.71 2157.77 L1567.17 2167.05 L1546.50 2176.46 L1525.84 2185.99 L1505.17 2195.76 L1484.63 2205.79 L1463.96 2216.31 L1443.30 2227.57 L1422.63 2239.45 L1402.09 2252.07 L1381.42 2265.44 L1360.76 2279.55 L1340.09 2293.78 L1319.55 2307.76 L1298.88 2321.25 L1278.21 2333.87 L1257.55 2345.51 L1237.01 2356.03 L1216.34 2365.31 L1195.67 2373.60 L1175.01 2380.90 L1154.46 2387.34 L1133.80 2393.03 L1113.13 2398.10 L1092.46 2402.56 L1071.92 2406.52 L1051.26 2410.11 L1030.59 2413.32 L1009.92 2416.29 L989.38 2419.02 L968.72 2421.49 L948.05 2423.72 L927.38 2425.70 L906.84 2427.56 L886.17 2429.29 L865.51 2430.77 L844.84 2432.13 L824.30 2433.50 L803.63 2434.61 L782.97 2435.60 L762.30 2436.47 L741.76 2437.33 L721.09 2438.07 L700.42 2438.69 L679.76 2439.19 L659.22 2439.56 L638.55 2439.93 L617.88 2440.06 L597.22 2440.18 L576.67 2439.93 L556.01 2439.31 L535.34 2441.17 L514.68 2445.87 L514.68 2445.87 Z" stroke-linejoin="round"/>
	</defs>
	<defs>
		<clipPath id="clipPath_FKILFLht">
			<use xlink:href="#path_oRqcSloC"/>
		</clipPath>
	</defs>
	<use xlink:href="#path_oRqcSloC" style="stroke:none;fill:#3333FF;fill-opacity:0.25"/>
	<use xlink:href="#path_oRqcSloC" style="fill:none;stroke:#0000FF;stroke-opacity:0.25;stroke-width:17.28" clip-path="url(#clipPath_FKILFLht)"/>
	<path d=" M494.01 2445.87 L514.68 2445.87 L535.34 2445.87 L555.88 2445.87 L576.55 2445.87 L597.22 2445.87 L617.88 2445.87 L638.43 2445.87 L659.09 2445.87 L679.76 2445.87 L700.42 2445.87 L720.97 2445.87 L741.63 2445.87 L762.30 2445.87 L782.97 2445.87 L803.51 2445.87 L824.17 2445.87 L844.84 2445.87 L865.51 2445.75 L886.05 2445.62 L906.72 2445.62 L927.38 2445.38 L948.05 2445.25 L968.59 2445.01 L989.26 2444.63 L1009.92 2444.26 L1030.59 2443.64 L1051.13 2443.03 L1071.80 2442.16 L1092.46 2441.05 L1113.13 2439.81 L1133.67 2438.20 L1154.34 2436.22 L1175.01 2433.99 L1195.67 2431.39 L1216.21 2428.42 L1236.88 2425.08 L1257.55 2421.37 L1278.21 2417.41 L1298.76 2413.08 L1319.42 2408.62 L1340.09 2404.04 L1360.76 2399.34 L1381.30 2394.76 L1401.96 2390.31 L1422.63 2385.97 L1443.30 2381.89 L1463.84 2377.81 L1484.51 2373.97 L1505.17 2370.38 L1525.84 2366.79 L1546.38 2363.20 L1567.05 2359.86 L1587.71 2356.52 L1608.38 2353.06 L1628.92 2349.71 L1649.59 2346.37 L1670.25 2343.03 L1690.92 2339.69 L1711.46 2336.35 L1732.13 2333.01 L1752.80 2329.79 L1773.46 2326.57 L1794.00 2323.36 L1814.67 2320.26 L1835.34 2317.17 L1856.00 2314.20 L1876.55 2311.35 L1897.21 2308.50 L1917.88 2305.66 L1938.54 2303.06 L1959.09 2300.46 L1979.75 2297.99 L2000.42 2295.51 L2021.09 2293.16 L2041.63 2290.93 L2062.29 2288.83 L2082.96 2286.85 L2103.63 2284.87 L2124.17 2283.01 L2144.84 2281.16 L2165.50 2279.42 L2186.17 2277.81 L2206.71 2276.33 L2227.38 2274.84 L2248.04 2273.36 L2268.71 2272.00 L2289.25 2270.76 L2309.92 2269.52 L2330.58 2268.28 L2351.25 2267.17 L2371.79 2266.18 L2392.46 2265.19 L2413.13 2264.20 L2433.79 2263.33 L2454.33 2262.47 L2475.00 2261.60 L2495.67 2260.86 L2516.33 2260.12 L2536.88 2259.37 L2557.54 2258.76 L2578.21 2258.14 L2598.87 2257.52 L2619.42 2256.90 L2640.08 2256.40 L2660.75 2255.91 L2681.41 2255.41 L2701.96 2254.92 L2722.62 2254.42 L2743.29 2254.05 L2763.96 2253.68 L2784.50 2253.19 L2805.16 2252.94 L2825.83 2252.57 L2846.50 2252.20 L2867.04 2251.83 L2887.71 2251.58 L2908.37 2251.21 L2929.04 2250.96 L2949.58 2250.71 L2970.25 2250.46 L2990.91 2250.22 L3011.58 2249.97 L3032.12 2249.72 L3052.79 2249.47 L3073.45 2249.23 L3094.12 2248.98 L3114.66 2248.73 L3135.33 2248.48 L3156.00 2248.24 L3176.66 2247.99 L3197.20 2247.87 L3217.87 2247.62 L3238.54 2247.37 L3259.20 2247.12" stroke-linejoin="round" style="fill:none;stroke:#FF0000;stroke-width:8.64"/>
	<line x1="494.01" y1="2445.87" x2="514.68" y2="2445.87" style="stroke:#0000FF;stroke-width:8.64"/>
	<line x1="514.68" y1="2445.87" x2="535.34" y2="2445.87" style="stroke:#0000FF;stroke-width:8.64"/>
	<line x1="535.34" y1="2445.87" x2="551.55" y2="2445.87" style="stroke:#0000FF;stroke-width:8.64"/>
	<line x1="580.39" y1="2445.87" x2="597.22" y2="2445.87" style="stroke:#0000FF;stroke-width:8.64"/>
	<line x1="597.22" y1="2445.87" x2="617.88" y2="2445.87" style="stroke:#0000FF;stroke-width:8.64"/>
	<line x1="617.88" y1="2445.87" x2="637.93" y2="2445.87" style="stroke:#0000FF;stroke-width:8.64"/>
	<line x1="666.76" y1="2445.87" x2="679.76" y2="2445.87" style="stroke:#0000FF;stroke-width:8.64"/>
	<line x1="679.76" y1="2445.87" x2="700.42" y2="2445.87" style="stroke:#0000FF;stroke-width:8.64"/>
	<line x1="700.42" y1="2445.87" x2="720.97" y2="2445.87" style="stroke:#0000FF;stroke-width:8.64"/>
	<line x1="720.97" y1="2445.87" x2="724.43" y2="2445.87" style="stroke:#0000FF;stroke-width:8.64"/>
	<line x1="753.14" y1="2445.87" x2="762.30" y2="2445.87" style="stroke:#0000FF;stroke-width:8.64"/>
	<line x1="762.30" y1="2445.87" x2="782.97" y2="2445.87" style="stroke:#0000FF;stroke-width:8.64"/>
	<line x1="782.97" y1="2445.87" x2="803.51" y2="2445.87" style="stroke:#0000FF;stroke-width:8.64"/>
	<line x1="803.51" y1="2445.87" x2="810.81" y2="2445.75" style="stroke:#0000FF;stroke-width:8.64"/>
	<line x1="839.52" y1="2445.75" x2="844.84" y2="2445.75" style="stroke:#0000FF;stroke-width:8.64"/>
	<line x1="844.84" y1="2445.75" x2="865.51" y2="2445.62" style="stroke:#0000FF;stroke-width:8.64"/>
	<line x1="865.51" y1="2445.62" x2="886.05" y2="2445.50" style="stroke:#0000FF;stroke-width:8.64"/>
	<line x1="886.05" y1="2445.50" x2="897.19" y2="2445.38" style="stroke:#0000FF;stroke-width:8.64"/>
	<line x1="926.02" y1="2445.13" x2="927.38" y2="2445.13" style="stroke:#0000FF;stroke-width:8.64"/>
	<line x1="927.38" y1="2445.13" x2="948.05" y2="2444.76" style="stroke:#0000FF;stroke-width:8.64"/>
	<line x1="948.05" y1="2444.76" x2="968.59" y2="2444.39" style="stroke:#0000FF;stroke-width:8.64"/>
	<line x1="968.59" y1="2444.39" x2="983.57" y2="2444.02" style="stroke:#0000FF;stroke-width:8.64"/>
	<line x1="1012.40" y1="2443.03" x2="1030.59" y2="2442.28" style="stroke:#0000FF;stroke-width:8.64"/>
	<line x1="1030.59" y1="2442.28" x2="1051.13" y2="2441.17" style="stroke:#0000FF;stroke-width:8.64"/>
	<line x1="1051.13" y1="2441.17" x2="1069.82" y2="2439.93" style="stroke:#0000FF;stroke-width:8.64"/>
	<line x1="1098.53" y1="2437.58" x2="1113.13" y2="2436.09" style="stroke:#0000FF;stroke-width:8.64"/>
	<line x1="1113.13" y1="2436.09" x2="1133.67" y2="2433.50" style="stroke:#0000FF;stroke-width:8.64"/>
	<line x1="1133.67" y1="2433.50" x2="1154.34" y2="2430.40" style="stroke:#0000FF;stroke-width:8.64"/>
	<line x1="1154.34" y1="2430.40" x2="1155.70" y2="2430.15" style="stroke:#0000FF;stroke-width:8.64"/>
	<line x1="1184.04" y1="2424.96" x2="1195.67" y2="2422.61" style="stroke:#0000FF;stroke-width:8.64"/>
	<line x1="1195.67" y1="2422.61" x2="1216.21" y2="2417.90" style="stroke:#0000FF;stroke-width:8.64"/>
	<line x1="1216.21" y1="2417.90" x2="1236.88" y2="2412.46" style="stroke:#0000FF;stroke-width:8.64"/>
	<line x1="1236.88" y1="2412.46" x2="1239.97" y2="2411.59" style="stroke:#0000FF;stroke-width:8.64"/>
	<line x1="1267.57" y1="2403.55" x2="1278.21" y2="2400.21" style="stroke:#0000FF;stroke-width:8.64"/>
	<line x1="1278.21" y1="2400.21" x2="1298.76" y2="2393.28" style="stroke:#0000FF;stroke-width:8.64"/>
	<line x1="1298.76" y1="2393.28" x2="1319.42" y2="2386.10" style="stroke:#0000FF;stroke-width:8.64"/>
	<line x1="1319.42" y1="2386.10" x2="1322.14" y2="2385.11" style="stroke:#0000FF;stroke-width:8.64"/>
	<line x1="1349.25" y1="2375.46" x2="1360.76" y2="2371.25" style="stroke:#0000FF;stroke-width:8.64"/>
	<line x1="1360.76" y1="2371.25" x2="1381.30" y2="2363.95" style="stroke:#0000FF;stroke-width:8.64"/>
	<line x1="1381.30" y1="2363.95" x2="1401.96" y2="2356.77" style="stroke:#0000FF;stroke-width:8.64"/>
	<line x1="1401.96" y1="2356.77" x2="1403.57" y2="2356.27" style="stroke:#0000FF;stroke-width:8.64"/>
	<line x1="1430.92" y1="2347.12" x2="1443.30" y2="2343.16" style="stroke:#0000FF;stroke-width:8.64"/>
	<line x1="1443.30" y1="2343.16" x2="1463.84" y2="2336.84" style="stroke:#0000FF;stroke-width:8.64"/>
	<line x1="1463.84" y1="2336.84" x2="1484.51" y2="2330.66" style="stroke:#0000FF;stroke-width:8.64"/>
	<line x1="1484.51" y1="2330.66" x2="1485.99" y2="2330.16" style="stroke:#0000FF;stroke-width:8.64"/>
	<line x1="1513.71" y1="2322.37" x2="1525.84" y2="2319.02" style="stroke:#0000FF;stroke-width:8.64"/>
	<line x1="1525.84" y1="2319.02" x2="1546.38" y2="2313.45" style="stroke:#0000FF;stroke-width:8.64"/>
	<line x1="1546.38" y1="2313.45" x2="1567.05" y2="2307.89" style="stroke:#0000FF;stroke-width:8.64"/>
	<line x1="1567.05" y1="2307.89" x2="1569.27" y2="2307.27" style="stroke:#0000FF;stroke-width:8.64"/>
	<line x1="1597.24" y1="2300.09" x2="1608.38" y2="2297.12" style="stroke:#0000FF;stroke-width:8.64"/>
	<line x1="1608.38" y1="2297.12" x2="1628.92" y2="2291.80" style="stroke:#0000FF;stroke-width:8.64"/>
	<line x1="1628.92" y1="2291.80" x2="1649.59" y2="2286.35" style="stroke:#0000FF;stroke-width:8.64"/>
	<line x1="1649.59" y1="2286.35" x2="1652.93" y2="2285.49" style="stroke:#0000FF;stroke-width:8.64"/>
	<line x1="1680.90" y1="2278.18" x2="1690.92" y2="2275.59" style="stroke:#0000FF;stroke-width:8.64"/>
	<line x1="1690.92" y1="2275.59" x2="1711.46" y2="2270.26" style="stroke:#0000FF;stroke-width:8.64"/>
	<line x1="1711.46" y1="2270.26" x2="1732.13" y2="2264.94" style="stroke:#0000FF;stroke-width:8.64"/>
	<line x1="1732.13" y1="2264.94" x2="1736.58" y2="2263.83" style="stroke:#0000FF;stroke-width:8.64"/>
	<line x1="1764.55" y1="2256.78" x2="1773.46" y2="2254.55" style="stroke:#0000FF;stroke-width:8.64"/>
	<line x1="1773.46" y1="2254.55" x2="1794.00" y2="2249.47" style="stroke:#0000FF;stroke-width:8.64"/>
	<line x1="1794.00" y1="2249.47" x2="1814.67" y2="2244.52" style="stroke:#0000FF;stroke-width:8.64"/>
	<line x1="1814.67" y1="2244.52" x2="1820.49" y2="2243.16" style="stroke:#0000FF;stroke-width:8.64"/>
	<line x1="1848.45" y1="2236.60" x2="1856.00" y2="2234.87" style="stroke:#0000FF;stroke-width:8.64"/>
	<line x1="1856.00" y1="2234.87" x2="1876.55" y2="2230.17" style="stroke:#0000FF;stroke-width:8.64"/>
	<line x1="1876.55" y1="2230.17" x2="1897.21" y2="2225.59" style="stroke:#0000FF;stroke-width:8.64"/>
	<line x1="1897.21" y1="2225.59" x2="1904.64" y2="2223.98" style="stroke:#0000FF;stroke-width:8.64"/>
	<line x1="1932.85" y1="2218.16" x2="1938.54" y2="2216.93" style="stroke:#0000FF;stroke-width:8.64"/>
	<line x1="1938.54" y1="2216.93" x2="1959.09" y2="2212.84" style="stroke:#0000FF;stroke-width:8.64"/>
	<line x1="1959.09" y1="2212.84" x2="1979.75" y2="2208.76" style="stroke:#0000FF;stroke-width:8.64"/>
	<line x1="1979.75" y1="2208.76" x2="1989.28" y2="2206.90" style="stroke:#0000FF;stroke-width:8.64"/>
	<line x1="2017.62" y1="2201.83" x2="2021.09" y2="2201.21" style="stroke:#0000FF;stroke-width:8.64"/>
	<line x1="2021.09" y1="2201.21" x2="2041.63" y2="2197.62" style="stroke:#0000FF;stroke-width:8.64"/>
	<line x1="2041.63" y1="2197.62" x2="2062.29" y2="2194.28" style="stroke:#0000FF;stroke-width:8.64"/>
	<line x1="2062.29" y1="2194.28" x2="2074.55" y2="2192.30" style="stroke:#0000FF;stroke-width:8.64"/>
	<line x1="2102.88" y1="2187.97" x2="2103.63" y2="2187.84" style="stroke:#0000FF;stroke-width:8.64"/>
	<line x1="2103.63" y1="2187.84" x2="2124.17" y2="2184.87" style="stroke:#0000FF;stroke-width:8.64"/>
	<line x1="2124.17" y1="2184.87" x2="2144.84" y2="2182.03" style="stroke:#0000FF;stroke-width:8.64"/>
	<line x1="2144.84" y1="2182.03" x2="2159.93" y2="2180.05" style="stroke:#0000FF;stroke-width:8.64"/>
	<line x1="2188.52" y1="2176.21" x2="2206.71" y2="2174.11" style="stroke:#0000FF;stroke-width:8.64"/>
	<line x1="2206.71" y1="2174.11" x2="2227.38" y2="2171.76" style="stroke:#0000FF;stroke-width:8.64"/>
	<line x1="2227.38" y1="2171.76" x2="2245.69" y2="2169.78" style="stroke:#0000FF;stroke-width:8.64"/>
	<line x1="2274.40" y1="2166.68" x2="2289.25" y2="2165.20" style="stroke:#0000FF;stroke-width:8.64"/>
	<line x1="2289.25" y1="2165.20" x2="2309.92" y2="2163.34" style="stroke:#0000FF;stroke-width:8.64"/>
	<line x1="2309.92" y1="2163.34" x2="2330.58" y2="2161.36" style="stroke:#0000FF;stroke-width:8.64"/>
	<line x1="2330.58" y1="2161.36" x2="2331.70" y2="2161.24" style="stroke:#0000FF;stroke-width:8.64"/>
	<line x1="2360.41" y1="2158.89" x2="2371.79" y2="2157.90" style="stroke:#0000FF;stroke-width:8.64"/>
	<line x1="2371.79" y1="2157.90" x2="2392.46" y2="2156.29" style="stroke:#0000FF;stroke-width:8.64"/>
	<line x1="2392.46" y1="2156.29" x2="2413.13" y2="2154.80" style="stroke:#0000FF;stroke-width:8.64"/>
	<line x1="2413.13" y1="2154.80" x2="2417.83" y2="2154.43" style="stroke:#0000FF;stroke-width:8.64"/>
	<line x1="2446.54" y1="2152.45" x2="2454.33" y2="2151.96" style="stroke:#0000FF;stroke-width:8.64"/>
	<line x1="2454.33" y1="2151.96" x2="2475.00" y2="2150.59" style="stroke:#0000FF;stroke-width:8.64"/>
	<line x1="2475.00" y1="2150.59" x2="2495.67" y2="2149.36" style="stroke:#0000FF;stroke-width:8.64"/>
	<line x1="2495.67" y1="2149.36" x2="2503.96" y2="2148.86" style="stroke:#0000FF;stroke-width:8.64"/>
	<line x1="2532.79" y1="2147.38" x2="2536.88" y2="2147.13" style="stroke:#0000FF;stroke-width:8.64"/>
	<line x1="2536.88" y1="2147.13" x2="2557.54" y2="2146.02" style="stroke:#0000FF;stroke-width:8.64"/>
	<line x1="2557.54" y1="2146.02" x2="2578.21" y2="2145.03" style="stroke:#0000FF;stroke-width:8.64"/>
	<line x1="2578.21" y1="2145.03" x2="2590.34" y2="2144.41" style="stroke:#0000FF;stroke-width:8.64"/>
	<line x1="2619.17" y1="2143.17" x2="2619.42" y2="2143.17" style="stroke:#0000FF;stroke-width:8.64"/>
	<line x1="2619.42" y1="2143.17" x2="2640.08" y2="2142.30" style="stroke:#0000FF;stroke-width:8.64"/>
	<line x1="2640.08" y1="2142.30" x2="2660.75" y2="2141.44" style="stroke:#0000FF;stroke-width:8.64"/>
	<line x1="2660.75" y1="2141.44" x2="2676.84" y2="2140.82" style="stroke:#0000FF;stroke-width:8.64"/>
	<line x1="2705.55" y1="2139.83" x2="2722.62" y2="2139.21" style="stroke:#0000FF;stroke-width:8.64"/>
	<line x1="2722.62" y1="2139.21" x2="2743.29" y2="2138.59" style="stroke:#0000FF;stroke-width:8.64"/>
	<line x1="2743.29" y1="2138.59" x2="2763.21" y2="2137.85" style="stroke:#0000FF;stroke-width:8.64"/>
	<line x1="2791.92" y1="2136.98" x2="2805.16" y2="2136.73" style="stroke:#0000FF;stroke-width:8.64"/>
	<line x1="2805.16" y1="2136.73" x2="2825.83" y2="2136.12" style="stroke:#0000FF;stroke-width:8.64"/>
	<line x1="2825.83" y1="2136.12" x2="2846.50" y2="2135.62" style="stroke:#0000FF;stroke-width:8.64"/>
	<line x1="2846.50" y1="2135.62" x2="2849.59" y2="2135.50" style="stroke:#0000FF;stroke-width:8.64"/>
	<line x1="2878.43" y1="2134.88" x2="2887.71" y2="2134.63" style="stroke:#0000FF;stroke-width:8.64"/>
	<line x1="2887.71" y1="2134.63" x2="2908.37" y2="2134.14" style="stroke:#0000FF;stroke-width:8.64"/>
	<line x1="2908.37" y1="2134.14" x2="2929.04" y2="2133.64" style="stroke:#0000FF;stroke-width:8.64"/>
	<line x1="2929.04" y1="2133.64" x2="2935.97" y2="2133.52" style="stroke:#0000FF;stroke-width:8.64"/>
	<line x1="2964.80" y1="2132.90" x2="2970.25" y2="2132.77" style="stroke:#0000FF;stroke-width:8.64"/>
	<line x1="2970.25" y1="2132.77" x2="2990.91" y2="2132.40" style="stroke:#0000FF;stroke-width:8.64"/>
	<line x1="2990.91" y1="2132.40" x2="3011.58" y2="2131.91" style="stroke:#0000FF;stroke-width:8.64"/>
	<line x1="3011.58" y1="2131.91" x2="3022.35" y2="2131.66" style="stroke:#0000FF;stroke-width:8.64"/>
	<line x1="3051.18" y1="2131.17" x2="3052.79" y2="2131.17" style="stroke:#0000FF;stroke-width:8.64"/>
	<line x1="3052.79" y1="2131.17" x2="3073.45" y2="2130.79" style="stroke:#0000FF;stroke-width:8.64"/>
	<line x1="3073.45" y1="2130.79" x2="3094.12" y2="2130.42" style="stroke:#0000FF;stroke-width:8.64"/>
	<line x1="3094.12" y1="2130.42" x2="3108.72" y2="2130.18" style="stroke:#0000FF;stroke-width:8.64"/>
	<line x1="3137.56" y1="2129.68" x2="3156.00" y2="2129.31" style="stroke:#0000FF;stroke-width:8.64"/>
	<line x1="3156.00" y1="2129.31" x2="3176.66" y2="2128.94" style="stroke:#0000FF;stroke-width:8.64"/>
	<line x1="3176.66" y1="2128.94" x2="3195.10" y2="2128.57" style="stroke:#0000FF;stroke-width:8.64"/>
	<line x1="3223.93" y1="2128.07" x2="3238.54" y2="2127.95" style="stroke:#0000FF;stroke-width:8.64"/>
	<line x1="3238.54" y1="2127.95" x2="3259.20" y2="2127.58" style="stroke:#0000FF;stroke-width:8.64"/>
	<path d="" stroke-linejoin="round" style="fill:none;stroke:#0000FF;stroke-width:8.64"/>
	<line x1="430.77" y1="2509.23" x2="430.77" y2="245.40" style="stroke:#000000;stroke-width:5.76"/>
	<line x1="430.77" y1="2445.87" x2="390.80" y2="2445.87" style="stroke:#000000;stroke-width:5.76"/>
	<text x="370.75" y="2473.88" style="font-family:'Helvetica';font-size:79.94px;fill:#000000" text-anchor="end">0.0</text>
	<line x1="430.77" y1="2232.15" x2="390.80" y2="2232.15" style="stroke:#000000;stroke-width:5.76"/>
	<text x="370.75" y="2260.16" style="font-family:'Helvetica';font-size:79.94px;fill:#000000" text-anchor="end">0.1</text>
	<line x1="430.77" y1="2018.43" x2="390.80" y2="2018.43" style="stroke:#000000;stroke-width:5.76"/>
	<text x="370.75" y="2046.44" style="font-family:'Helvetica';font-size:79.94px;fill:#000000" text-anchor="end">0.2</text>
	<line x1="430.77" y1="1804.70" x2="390.80" y2="1804.70" style="stroke:#000000;stroke-width:5.76"/>
	<text x="370.75" y="1832.71" style="font-family:'Helvetica';font-size:79.94px;fill:#000000" text-anchor="end">0.3</text>
	<line x1="430.77" y1="1590.98" x2="390.80" y2="1590.98" style="stroke:#000000;stroke-width:5.76"/>
	<text x="370.75" y="1618.99" style="font-family:'Helvetica';font-size:79.94px;fill:#000000" text-anchor="end">0.4</text>
	<line x1="430.77" y1="1377.26" x2="390.80" y2="1377.26" style="stroke:#000000;stroke-width:5.76"/>
	<text x="370.75" y="1405.27" style="font-family:'Helvetica';font-size:79.94px;fill:#000000" text-anchor="end">0.5</text>
	<line x1="430.77" y1="1163.53" x2="390.80" y2="1163.53" style="stroke:#000000;stroke-width:5.76"/>
	<text x="370.75" y="1191.55" style="font-family:'Helvetica';font-size:79.94px;fill:#000000" text-anchor="end">0.6</text>
	<line x1="430.77" y1="949.81" x2="390.80" y2="949.81" style="stroke:#000000;stroke-width:5.76"/>
	<text x="370.75" y="977.82" style="font-family:'Helvetica';font-size:79.94px;fill:#000000" text-anchor="end">0.7</text>
	<line x1="430.77" y1="736.09" x2="390.80" y2="736.09" style="stroke:#000000;stroke-width:5.76"/>
	<text x="370.75" y="764.10" style="font-family:'Helvetica';font-size:79.94px;fill:#000000" text-anchor="end">0.8</text>
	<line x1="430.77" y1="522.49" x2="390.80" y2="522.49" style="stroke:#000000;stroke-width:5.76"/>
	<text x="370.75" y="550.50" style="font-family:'Helvetica';font-size:79.94px;fill:#000000" text-anchor="end">0.9</text>
	<line x1="430.77" y1="308.77" x2="390.80" y2="308.77" style="stroke:#000000;stroke-width:5.76"/>
	<text x="370.75" y="336.78" style="font-family:'Helvetica';font-size:79.94px;fill:#000000" text-anchor="end">1.0</text>
	<text x="190.71" y="1377.26" style="font-family:'Helvetica';font-size:99.99px;fill:#000000" transform="rotate(-90 190.71,1377.26)" text-anchor="middle">Cumulative mortality (%)</text>
	<line x1="430.77" y1="2509.23" x2="3859.02" y2="2509.23" style="stroke:#000000;stroke-width:5.76"/>
	<line x1="494.13" y1="2509.23" x2="494.13" y2="2549.21" style="stroke:#000000;stroke-width:5.76"/>
	<text x="494.13" y="2625.15" style="font-family:'Helvetica';font-size:79.94px;fill:#000000" text-anchor="middle">0</text>
	<line x1="906.84" y1="2509.23" x2="906.84" y2="2549.21" style="stroke:#000000;stroke-width:5.76"/>
	<text x="906.84" y="2625.15" style="font-family:'Helvetica';font-size:79.94px;fill:#000000" text-anchor="middle">20</text>
	<line x1="1319.55" y1="2509.23" x2="1319.55" y2="2549.21" style="stroke:#000000;stroke-width:5.76"/>
	<text x="1319.55" y="2625.15" style="font-family:'Helvetica';font-size:79.94px;fill:#000000" text-anchor="middle">40</text>
	<line x1="1732.25" y1="2509.23" x2="1732.25" y2="2549.21" style="stroke:#000000;stroke-width:5.76"/>
	<text x="1732.25" y="2625.15" style="font-family:'Helvetica';font-size:79.94px;fill:#000000" text-anchor="middle">60</text>
	<line x1="2144.96" y1="2509.23" x2="2144.96" y2="2549.21" style="stroke:#000000;stroke-width:5.76"/>
	<text x="2144.96" y="2625.15" style="font-family:'Helvetica';font-size:79.94px;fill:#000000" text-anchor="middle">80</text>
	<line x1="2557.66" y1="2509.23" x2="2557.66" y2="2549.21" style="stroke:#000000;stroke-width:5.76"/>
	<text x="2557.66" y="2625.15" style="font-family:'Helvetica';font-size:79.94px;fill:#000000" text-anchor="middle">100</text>
	<line x1="2970.37" y1="2509.23" x2="2970.37" y2="2549.21" style="stroke:#000000;stroke-width:5.76"/>
	<text x="2970.37" y="2625.15" style="font-family:'Helvetica';font-size:79.94px;fill:#000000" text-anchor="middle">120</text>
	<line x1="3383.08" y1="2509.23" x2="3383.08" y2="2549.21" style="stroke:#000000;stroke-width:5.76"/>
	<text x="3383.08" y="2625.15" style="font-family:'Helvetica';font-size:79.94px;fill:#000000" text-anchor="middle">140</text>
	<line x1="3795.78" y1="2509.23" x2="3795.78" y2="2549.21" style="stroke:#000000;stroke-width:5.76"/>
	<text x="3795.78" y="2625.15" style="font-family:'Helvetica';font-size:79.94px;fill:#000000" text-anchor="middle">160</text>
	<text x="2144.96" y="2729.16" style="font-family:'Helvetica';font-size:99.99px;fill:#000000" text-anchor="middle">Days since 1 Mar 2020</text>
	<rect x="465.30" y="279.93" width="917.48" height="326.34" style="fill:#FFFFFF"/>
	<rect x="468.18" y="282.81" width="911.72" height="320.58" style="fill:none;stroke:#EAF2F3;stroke-width:5.76"/>
	<rect x="508.49" y="323.12" width="374.34" height="99.99" style="fill:#FF3333;fill-opacity:0.25"/>
	<rect x="512.81" y="327.44" width="365.70" height="91.35" style="fill:none;stroke:#FF0000;stroke-opacity:0.25;stroke-width:8.64"/>
	<rect x="508.49" y="463.09" width="374.34" height="99.99" style="fill:#3333FF;fill-opacity:0.25"/>
	<rect x="512.81" y="467.41" width="365.70" height="91.35" style="fill:none;stroke:#0000FF;stroke-opacity:0.25;stroke-width:8.64"/>
	<text x="942.85" y="408.15" style="font-family:'Helvetica';font-size:99.99px;fill:#000000">No HCQ</text>
	<text x="942.85" y="548.11" style="font-family:'Helvetica';font-size:99.99px;fill:#000000">HCQ</text>
	<text x="888.90" y="195.01" style="font-family:'Helvetica';font-size:110.01px;fill:#1E2D53">Time to COVID-19 Death in ONS, SLE population</text>
</svg>
