<?xml version="1.0" encoding="UTF-8" standalone="no"?>
<!-- This is a Stata 16.1 generated SVG file (http://www.stata.com) -->

<svg version="1.1" width="5.50in" height="4.00in" viewBox="0 0 3960 2880" xmlns="http://www.w3.org/2000/svg" xmlns:xlink="http://www.w3.org/1999/xlink">
	<desc>Stata Graph - Graph</desc>
	<rect x="0" y="0" width="3960" height="2880" style="fill:#EAF2F3;stroke:none"/>
	<rect x="0.00" y="0.00" width="3959.88" height="2880.00" style="fill:#FFFFFF"/>
	<rect x="2.88" y="2.88" width="3954.12" height="2874.24" style="fill:none;stroke:#EAF2F3;stroke-width:5.76"/>
	<rect x="430.77" y="235.38" width="3428.25" height="2293.90" style="fill:#FFFFFF"/>
	<rect x="433.65" y="238.26" width="3422.49" height="2288.14" style="fill:none;stroke:#FFFFFF;stroke-width:5.76"/>
	<line x1="430.77" y1="2465.92" x2="3859.02" y2="2465.92" style="stroke:#EAF2F3;stroke-width:8.64"/>
	<line x1="430.77" y1="2249.23" x2="3859.02" y2="2249.23" style="stroke:#EAF2F3;stroke-width:8.64"/>
	<line x1="430.77" y1="2032.41" x2="3859.02" y2="2032.41" style="stroke:#EAF2F3;stroke-width:8.64"/>
	<line x1="430.77" y1="1815.72" x2="3859.02" y2="1815.72" style="stroke:#EAF2F3;stroke-width:8.64"/>
	<line x1="430.77" y1="1599.02" x2="3859.02" y2="1599.02" style="stroke:#EAF2F3;stroke-width:8.64"/>
	<line x1="430.77" y1="1382.33" x2="3859.02" y2="1382.33" style="stroke:#EAF2F3;stroke-width:8.64"/>
	<line x1="430.77" y1="1165.64" x2="3859.02" y2="1165.64" style="stroke:#EAF2F3;stroke-width:8.64"/>
	<line x1="430.77" y1="948.82" x2="3859.02" y2="948.82" style="stroke:#EAF2F3;stroke-width:8.64"/>
	<line x1="430.77" y1="732.13" x2="3859.02" y2="732.13" style="stroke:#EAF2F3;stroke-width:8.64"/>
	<line x1="430.77" y1="515.43" x2="3859.02" y2="515.43" style="stroke:#EAF2F3;stroke-width:8.64"/>
	<line x1="430.77" y1="298.74" x2="3859.02" y2="298.74" style="stroke:#EAF2F3;stroke-width:8.64"/>
	<defs>
		<path id="path_FlEGAoWO" d="M535.34 2465.92 L535.34 2465.92 L556.01 2465.92 L576.67 2465.92 L597.22 2465.92 L617.88 2465.92 L638.55 2465.92 L659.22 2465.92 L679.76 2465.92 L700.42 2465.92 L721.09 2465.92 L741.76 2465.92 L762.30 2465.92 L782.97 2465.80 L803.63 2465.80 L824.30 2465.67 L844.84 2465.55 L865.51 2465.30 L886.17 2464.93 L906.84 2464.43 L927.38 2463.69 L948.05 2462.58 L968.72 2461.09 L989.38 2459.24 L1009.92 2456.89 L1030.59 2453.79 L1051.26 2450.20 L1071.92 2445.87 L1092.46 2440.92 L1113.13 2435.23 L1133.80 2428.79 L1154.46 2421.86 L1175.01 2414.19 L1195.67 2406.15 L1216.34 2397.61 L1237.01 2388.57 L1257.55 2379.29 L1278.21 2369.76 L1298.88 2360.11 L1319.55 2350.33 L1340.09 2340.56 L1360.76 2330.78 L1381.42 2321.13 L1402.09 2311.60 L1422.63 2302.32 L1443.30 2293.04 L1463.96 2284.00 L1484.63 2275.09 L1505.17 2266.30 L1525.84 2257.77 L1546.50 2249.10 L1567.17 2240.69 L1587.71 2232.27 L1608.38 2223.98 L1629.05 2215.69 L1649.71 2207.65 L1670.25 2199.72 L1690.92 2191.93 L1711.59 2184.26 L1732.25 2176.95 L1752.80 2169.78 L1773.46 2162.72 L1794.13 2156.04 L1814.79 2149.60 L1835.34 2143.42 L1856.00 2137.48 L1876.67 2131.78 L1897.34 2126.34 L1917.88 2121.14 L1938.54 2116.19 L1959.21 2111.49 L1979.88 2107.03 L2000.42 2102.70 L2021.09 2098.62 L2041.75 2094.78 L2062.42 2091.07 L2082.96 2087.60 L2103.63 2084.26 L2124.29 2081.05 L2144.96 2078.07 L2165.50 2075.10 L2186.17 2072.38 L2206.83 2069.78 L2227.50 2067.31 L2248.04 2064.96 L2268.71 2062.73 L2289.38 2060.63 L2310.04 2058.65 L2330.58 2056.79 L2351.25 2054.93 L2371.92 2053.20 L2392.58 2051.59 L2413.13 2049.98 L2433.79 2048.50 L2454.46 2047.01 L2475.12 2045.65 L2495.67 2044.41 L2516.33 2043.18 L2537.00 2041.94 L2557.66 2040.83 L2578.21 2039.83 L2598.87 2038.72 L2619.54 2037.73 L2640.21 2036.74 L2660.75 2035.87 L2681.41 2034.88 L2702.08 2034.02 L2722.75 2033.28 L2743.29 2032.41 L2763.96 2031.67 L2784.62 2030.80 L2805.29 2030.06 L2825.83 2029.32 L2846.50 2028.57 L2867.16 2027.83 L2887.83 2027.21 L2908.37 2026.47 L2929.04 2025.73 L2949.70 2025.11 L2970.37 2024.37 L2970.37 1928.33 L2949.70 1929.20 L2929.04 1930.07 L2908.37 1930.93 L2887.83 1931.67 L2867.16 1932.54 L2846.50 1933.41 L2825.83 1934.27 L2805.29 1935.14 L2784.62 1936.01 L2763.96 1936.87 L2743.29 1937.86 L2722.75 1938.73 L2702.08 1939.72 L2681.41 1940.71 L2660.75 1941.70 L2640.21 1942.81 L2619.54 1943.93 L2598.87 1945.04 L2578.21 1946.15 L2557.66 1947.39 L2537.00 1948.63 L2516.33 1949.99 L2495.67 1951.35 L2475.12 1952.84 L2454.46 1954.32 L2433.79 1955.93 L2413.13 1957.66 L2392.58 1959.52 L2371.92 1961.38 L2351.25 1963.36 L2330.58 1965.46 L2310.04 1967.56 L2289.38 1969.91 L2268.71 1972.39 L2248.04 1974.99 L2227.50 1977.71 L2206.83 1980.56 L2186.17 1983.53 L2165.50 1986.74 L2144.96 1990.09 L2124.29 1993.67 L2103.63 1997.39 L2082.96 2001.35 L2062.42 2005.43 L2041.75 2009.76 L2021.09 2014.34 L2000.42 2019.17 L1979.88 2024.12 L1959.21 2029.44 L1938.54 2034.88 L1917.88 2040.70 L1897.34 2046.64 L1876.67 2052.95 L1856.00 2059.51 L1835.34 2066.32 L1814.79 2073.37 L1794.13 2080.67 L1773.46 2088.22 L1752.80 2096.14 L1732.25 2104.19 L1711.59 2112.48 L1690.92 2121.02 L1670.25 2129.80 L1649.71 2138.84 L1629.05 2148.12 L1608.38 2157.65 L1587.71 2167.30 L1567.17 2177.08 L1546.50 2187.23 L1525.84 2197.37 L1505.17 2207.65 L1484.63 2218.04 L1463.96 2228.56 L1443.30 2239.20 L1422.63 2249.97 L1402.09 2260.86 L1381.42 2272.00 L1360.76 2283.26 L1340.09 2294.77 L1319.55 2306.40 L1298.88 2318.40 L1278.21 2330.41 L1257.55 2342.41 L1237.01 2354.29 L1216.34 2365.80 L1195.67 2376.94 L1175.01 2387.46 L1154.46 2397.36 L1133.80 2406.52 L1113.13 2414.81 L1092.46 2422.36 L1071.92 2429.16 L1051.26 2435.23 L1030.59 2440.43 L1009.92 2445.13 L989.38 2449.09 L968.72 2452.43 L948.05 2455.28 L927.38 2457.63 L906.84 2459.61 L886.17 2461.22 L865.51 2462.45 L844.84 2463.32 L824.30 2464.06 L803.63 2464.68 L782.97 2465.05 L762.30 2465.30 L741.76 2465.55 L721.09 2465.67 L700.42 2465.80 L679.76 2465.80 L659.22 2465.92 L638.55 2465.92 L617.88 2465.92 L597.22 2465.92 L576.67 2465.92 L556.01 2465.92 L535.34 2465.92 L535.34 2465.92 Z" stroke-linejoin="round"/>
	</defs>
	<defs>
		<clipPath id="clipPath_ReMIxFRb">
			<use xlink:href="#path_FlEGAoWO"/>
		</clipPath>
	</defs>
	<use xlink:href="#path_FlEGAoWO" style="stroke:none;fill:#FF3333;fill-opacity:0.25"/>
	<use xlink:href="#path_FlEGAoWO" style="fill:none;stroke:#FF0000;stroke-opacity:0.25;stroke-width:17.28" clip-path="url(#clipPath_ReMIxFRb)"/>
	<defs>
		<path id="path_lyATJJxS" d="M535.34 2465.92 L535.34 2465.92 L556.01 2465.92 L576.67 2465.92 L597.22 2465.92 L617.88 2465.92 L638.55 2465.92 L659.22 2465.92 L679.76 2465.92 L700.42 2465.92 L721.09 2465.92 L741.76 2465.92 L762.30 2465.92 L782.97 2465.80 L803.63 2465.80 L824.30 2465.67 L844.84 2465.55 L865.51 2465.30 L886.17 2464.93 L906.84 2464.43 L927.38 2463.69 L948.05 2462.70 L968.72 2461.34 L989.38 2459.48 L1009.92 2457.26 L1030.59 2454.53 L1051.26 2451.19 L1071.92 2447.23 L1092.46 2442.65 L1113.13 2437.46 L1133.80 2431.76 L1154.46 2425.45 L1175.01 2418.65 L1195.67 2411.34 L1216.34 2403.67 L1237.01 2395.75 L1257.55 2387.46 L1278.21 2379.04 L1298.88 2370.51 L1319.55 2361.84 L1340.09 2353.30 L1360.76 2344.89 L1381.42 2336.47 L1402.09 2328.18 L1422.63 2320.01 L1443.30 2311.97 L1463.96 2304.17 L1484.63 2296.38 L1505.17 2288.83 L1525.84 2281.28 L1546.50 2273.85 L1567.17 2266.43 L1587.71 2259.13 L1608.38 2251.95 L1629.05 2244.90 L1649.71 2237.84 L1670.25 2231.03 L1690.92 2224.35 L1711.59 2217.92 L1732.25 2211.61 L1752.80 2205.42 L1773.46 2199.48 L1794.13 2193.66 L1814.79 2188.09 L1835.34 2182.77 L1856.00 2177.70 L1876.67 2172.75 L1897.34 2168.17 L1917.88 2163.71 L1938.54 2159.38 L1959.21 2155.30 L1979.88 2151.46 L2000.42 2147.75 L2021.09 2144.16 L2041.75 2140.82 L2062.42 2137.60 L2082.96 2134.63 L2103.63 2131.66 L2124.29 2128.94 L2144.96 2126.34 L2165.50 2123.86 L2186.17 2121.51 L2206.83 2119.28 L2227.50 2117.18 L2248.04 2115.08 L2268.71 2113.22 L2289.38 2111.36 L2310.04 2109.63 L2330.58 2108.02 L2351.25 2106.41 L2371.92 2104.93 L2392.58 2103.57 L2413.13 2102.21 L2433.79 2100.97 L2454.46 2099.73 L2475.12 2098.49 L2495.67 2097.38 L2516.33 2096.39 L2537.00 2095.40 L2557.66 2094.41 L2578.21 2093.42 L2598.87 2092.55 L2619.54 2091.69 L2640.21 2090.95 L2660.75 2090.08 L2681.41 2089.34 L2702.08 2088.59 L2722.75 2087.85 L2743.29 2087.11 L2763.96 2086.49 L2784.62 2085.75 L2805.29 2085.13 L2825.83 2084.51 L2846.50 2083.89 L2867.16 2083.27 L2887.83 2082.65 L2908.37 2082.04 L2929.04 2081.42 L2949.70 2080.80 L2970.37 2080.18 L2970.37 1846.66 L2949.70 1847.65 L2929.04 1848.64 L2908.37 1849.63 L2887.83 1850.49 L2867.16 1851.48 L2846.50 1852.47 L2825.83 1853.46 L2805.29 1854.58 L2784.62 1855.57 L2763.96 1856.56 L2743.29 1857.67 L2722.75 1858.78 L2702.08 1859.90 L2681.41 1861.01 L2660.75 1862.25 L2640.21 1863.49 L2619.54 1864.72 L2598.87 1866.08 L2578.21 1867.45 L2557.66 1868.93 L2537.00 1870.42 L2516.33 1872.02 L2495.67 1873.63 L2475.12 1875.37 L2454.46 1877.10 L2433.79 1879.08 L2413.13 1881.06 L2392.58 1883.16 L2371.92 1885.27 L2351.25 1887.62 L2330.58 1890.09 L2310.04 1892.69 L2289.38 1895.41 L2268.71 1898.26 L2248.04 1901.23 L2227.50 1904.45 L2206.83 1907.79 L2186.17 1911.25 L2165.50 1914.97 L2144.96 1918.93 L2124.29 1923.01 L2103.63 1927.34 L2082.96 1931.92 L2062.42 1936.75 L2041.75 1941.82 L2021.09 1947.14 L2000.42 1952.71 L1979.88 1958.53 L1959.21 1964.59 L1938.54 1971.03 L1917.88 1977.71 L1897.34 1984.76 L1876.67 1992.07 L1856.00 1999.74 L1835.34 2007.78 L1814.79 2016.07 L1794.13 2024.61 L1773.46 2033.52 L1752.80 2042.81 L1732.25 2052.33 L1711.59 2062.11 L1690.92 2072.13 L1670.25 2082.53 L1649.71 2093.05 L1629.05 2103.94 L1608.38 2114.95 L1587.71 2126.22 L1567.17 2137.72 L1546.50 2149.36 L1525.84 2161.11 L1505.17 2173.12 L1484.63 2185.12 L1463.96 2197.25 L1443.30 2209.63 L1422.63 2222.12 L1402.09 2234.87 L1381.42 2247.74 L1360.76 2260.86 L1340.09 2274.10 L1319.55 2287.59 L1298.88 2301.33 L1278.21 2315.06 L1257.55 2328.68 L1237.01 2342.17 L1216.34 2355.28 L1195.67 2367.78 L1175.01 2379.66 L1154.46 2390.80 L1133.80 2401.07 L1113.13 2410.48 L1092.46 2418.89 L1071.92 2426.44 L1051.26 2433.12 L1030.59 2438.82 L1009.92 2443.89 L989.38 2448.22 L968.72 2451.81 L948.05 2454.78 L927.38 2457.38 L906.84 2459.36 L886.17 2460.97 L865.51 2462.33 L844.84 2463.32 L824.30 2464.06 L803.63 2464.68 L782.97 2465.05 L762.30 2465.30 L741.76 2465.55 L721.09 2465.67 L700.42 2465.80 L679.76 2465.80 L659.22 2465.80 L638.55 2465.92 L617.88 2465.92 L597.22 2465.92 L576.67 2465.92 L556.01 2465.92 L535.34 2465.92 L535.34 2465.92 Z" stroke-linejoin="round"/>
	</defs>
	<defs>
		<clipPath id="clipPath_MaSBickz">
			<use xlink:href="#path_lyATJJxS"/>
		</clipPath>
	</defs>
	<use xlink:href="#path_lyATJJxS" style="stroke:none;fill:#3333FF;fill-opacity:0.25"/>
	<use xlink:href="#path_lyATJJxS" style="fill:none;stroke:#0000FF;stroke-opacity:0.25;stroke-width:17.28" clip-path="url(#clipPath_MaSBickz)"/>
	<path d=" M494.01 2465.92 L514.68 2465.92 L535.34 2465.92 L555.88 2465.92 L576.55 2465.92 L597.22 2465.92 L617.88 2465.92 L638.43 2465.92 L659.09 2465.92 L679.76 2465.92 L700.42 2465.92 L720.97 2465.92 L741.63 2465.92 L762.30 2465.80 L782.97 2465.80 L803.51 2465.55 L824.17 2465.42 L844.84 2465.05 L865.51 2464.56 L886.05 2463.82 L906.72 2462.95 L927.38 2461.71 L948.05 2459.98 L968.59 2458.00 L989.26 2455.40 L1009.92 2452.18 L1030.59 2448.47 L1051.13 2444.02 L1071.80 2438.82 L1092.46 2433.00 L1113.13 2426.32 L1133.67 2419.02 L1154.34 2410.97 L1175.01 2402.31 L1195.67 2393.03 L1216.21 2383.25 L1236.88 2373.10 L1257.55 2362.59 L1278.21 2351.82 L1298.76 2341.05 L1319.42 2330.29 L1340.09 2319.52 L1360.76 2308.88 L1381.30 2298.48 L1401.96 2288.09 L1422.63 2277.94 L1443.30 2268.04 L1463.84 2258.14 L1484.51 2248.48 L1505.17 2238.95 L1525.84 2229.55 L1546.38 2220.14 L1567.05 2210.99 L1587.71 2201.83 L1608.38 2192.79 L1628.92 2184.01 L1649.59 2175.35 L1670.25 2166.81 L1690.92 2158.51 L1711.46 2150.47 L1732.13 2142.67 L1752.80 2135.00 L1773.46 2127.58 L1794.00 2120.52 L1814.67 2113.59 L1835.34 2106.91 L1856.00 2100.60 L1876.55 2094.53 L1897.21 2088.59 L1917.88 2083.03 L1938.54 2077.70 L1959.09 2072.63 L1979.75 2067.80 L2000.42 2063.10 L2021.09 2058.77 L2041.63 2054.56 L2062.29 2050.48 L2082.96 2046.64 L2103.63 2043.05 L2124.17 2039.59 L2144.84 2036.37 L2165.50 2033.28 L2186.17 2030.31 L2206.71 2027.46 L2227.38 2024.86 L2248.04 2022.26 L2268.71 2019.91 L2289.25 2017.68 L2309.92 2015.46 L2330.58 2013.48 L2351.25 2011.50 L2371.79 2009.64 L2392.46 2007.91 L2413.13 2006.17 L2433.79 2004.57 L2454.33 2003.08 L2475.00 2001.72 L2495.67 2000.23 L2516.33 1999.00 L2536.88 1997.76 L2557.54 1996.52 L2578.21 1995.41 L2598.87 1994.29 L2619.42 1993.18 L2640.08 1992.19 L2660.75 1991.20 L2681.41 1990.21 L2701.96 1989.34 L2722.62 1988.35 L2743.29 1987.49 L2763.96 1986.62 L2784.50 1985.88 L2805.16 1985.01 L2825.83 1984.15 L2846.50 1983.40 L2867.04 1982.66 L2887.71 1981.79 L2908.37 1981.05 L2929.04 1980.31 L2949.58 1979.57 L2970.25 1978.82" stroke-linejoin="round" style="fill:none;stroke:#FF0000;stroke-width:8.64"/>
	<path d=" M494.01 2465.92 L514.68 2465.92 L535.34 2465.92 L555.88 2465.92 L576.55 2465.92 L597.22 2465.92 L617.88 2465.92 L638.43 2465.92 L659.09 2465.92 L679.76 2465.92 L700.42 2465.92 L720.97 2465.92 L741.63 2465.92 L762.30 2465.80 L782.97 2465.80 L803.51 2465.55 L824.17 2465.42 L844.84 2465.05 L865.51 2464.56 L886.05 2463.82 L906.72 2462.95 L927.38 2461.59 L948.05 2459.98 L968.59 2457.88 L989.26 2455.40 L1009.92 2452.18 L1030.59 2448.35 L1051.13 2443.89 L1071.80 2438.82 L1092.46 2432.88 L1113.13 2426.19 L1133.67 2418.89 L1154.34 2410.85 L1175.01 2402.06 L1195.67 2392.78 L1216.21 2383.00 L1236.88 2372.73 L1257.55 2362.21 L1278.21 2351.45 L1298.76 2340.68 L1319.42 2329.79 L1340.09 2319.02 L1360.76 2308.38 L1381.30 2297.86 L1401.96 2287.59 L1422.63 2277.44 L1443.30 2267.42 L1463.84 2257.52 L1484.51 2247.87 L1505.17 2238.21 L1525.84 2228.81 L1546.38 2219.40 L1567.05 2210.12 L1587.71 2200.96 L1608.38 2191.93 L1628.92 2183.14 L1649.59 2174.36 L1670.25 2165.94 L1690.92 2157.65 L1711.46 2149.48 L1732.13 2141.56 L1752.80 2134.01 L1773.46 2126.59 L1794.00 2119.41 L1814.67 2112.48 L1835.34 2105.80 L1856.00 2099.48 L1876.55 2093.30 L1897.21 2087.48 L1917.88 2081.91 L1938.54 2076.47 L1959.09 2071.39 L1979.75 2066.57 L2000.42 2061.86 L2021.09 2057.41 L2041.63 2053.20 L2062.29 2049.24 L2082.96 2045.40 L2103.63 2041.69 L2124.17 2038.23 L2144.84 2035.01 L2165.50 2031.91 L2186.17 2028.94 L2206.71 2026.10 L2227.38 2023.50 L2248.04 2020.90 L2268.71 2018.55 L2289.25 2016.20 L2309.92 2014.09 L2330.58 2011.99 L2351.25 2010.01 L2371.79 2008.15 L2392.46 2006.42 L2413.13 2004.69 L2433.79 2003.20 L2454.33 2001.60 L2475.00 2000.23 L2495.67 1998.75 L2516.33 1997.51 L2536.88 1996.27 L2557.54 1995.04 L2578.21 1993.92 L2598.87 1992.81 L2619.42 1991.69 L2640.08 1990.70 L2660.75 1989.71 L2681.41 1988.72 L2701.96 1987.73 L2722.62 1986.87 L2743.29 1986.00 L2763.96 1985.14 L2784.50 1984.27 L2805.16 1983.53 L2825.83 1982.66 L2846.50 1981.92 L2867.04 1981.05 L2887.71 1980.31 L2908.37 1979.57 L2929.04 1978.82 L2949.58 1977.96 L2970.25 1977.22" stroke-linejoin="round" style="fill:none;stroke:#0000FF;stroke-width:8.64"/>
	<line x1="430.77" y1="2529.28" x2="430.77" y2="235.38" style="stroke:#000000;stroke-width:5.76"/>
	<line x1="430.77" y1="2465.92" x2="390.80" y2="2465.92" style="stroke:#000000;stroke-width:5.76"/>
	<text x="370.75" y="2493.93" style="font-family:'Helvetica';font-size:79.94px;fill:#000000" text-anchor="end">0.0</text>
	<line x1="430.77" y1="2249.23" x2="390.80" y2="2249.23" style="stroke:#000000;stroke-width:5.76"/>
	<text x="370.75" y="2277.24" style="font-family:'Helvetica';font-size:79.94px;fill:#000000" text-anchor="end">0.1</text>
	<line x1="430.77" y1="2032.41" x2="390.80" y2="2032.41" style="stroke:#000000;stroke-width:5.76"/>
	<text x="370.75" y="2060.42" style="font-family:'Helvetica';font-size:79.94px;fill:#000000" text-anchor="end">0.2</text>
	<line x1="430.77" y1="1815.72" x2="390.80" y2="1815.72" style="stroke:#000000;stroke-width:5.76"/>
	<text x="370.75" y="1843.73" style="font-family:'Helvetica';font-size:79.94px;fill:#000000" text-anchor="end">0.3</text>
	<line x1="430.77" y1="1599.02" x2="390.80" y2="1599.02" style="stroke:#000000;stroke-width:5.76"/>
	<text x="370.75" y="1627.04" style="font-family:'Helvetica';font-size:79.94px;fill:#000000" text-anchor="end">0.4</text>
	<line x1="430.77" y1="1382.33" x2="390.80" y2="1382.33" style="stroke:#000000;stroke-width:5.76"/>
	<text x="370.75" y="1410.34" style="font-family:'Helvetica';font-size:79.94px;fill:#000000" text-anchor="end">0.5</text>
	<line x1="430.77" y1="1165.64" x2="390.80" y2="1165.64" style="stroke:#000000;stroke-width:5.76"/>
	<text x="370.75" y="1193.65" style="font-family:'Helvetica';font-size:79.94px;fill:#000000" text-anchor="end">0.6</text>
	<line x1="430.77" y1="948.82" x2="390.80" y2="948.82" style="stroke:#000000;stroke-width:5.76"/>
	<text x="370.75" y="976.83" style="font-family:'Helvetica';font-size:79.94px;fill:#000000" text-anchor="end">0.7</text>
	<line x1="430.77" y1="732.13" x2="390.80" y2="732.13" style="stroke:#000000;stroke-width:5.76"/>
	<text x="370.75" y="760.14" style="font-family:'Helvetica';font-size:79.94px;fill:#000000" text-anchor="end">0.8</text>
	<line x1="430.77" y1="515.43" x2="390.80" y2="515.43" style="stroke:#000000;stroke-width:5.76"/>
	<text x="370.75" y="543.45" style="font-family:'Helvetica';font-size:79.94px;fill:#000000" text-anchor="end">0.9</text>
	<line x1="430.77" y1="298.74" x2="390.80" y2="298.74" style="stroke:#000000;stroke-width:5.76"/>
	<text x="370.75" y="326.75" style="font-family:'Helvetica';font-size:79.94px;fill:#000000" text-anchor="end">1.0</text>
	<text x="190.71" y="1382.33" style="font-family:'Helvetica';font-size:99.99px;fill:#000000" transform="rotate(-90 190.71,1382.33)" text-anchor="middle">Cumulative incidence (%)</text>
	<line x1="430.77" y1="2529.28" x2="3859.02" y2="2529.28" style="stroke:#000000;stroke-width:5.76"/>
	<line x1="494.13" y1="2529.28" x2="494.13" y2="2569.25" style="stroke:#000000;stroke-width:5.76"/>
	<text x="494.13" y="2645.20" style="font-family:'Helvetica';font-size:79.94px;fill:#000000" text-anchor="middle">0</text>
	<line x1="906.84" y1="2529.28" x2="906.84" y2="2569.25" style="stroke:#000000;stroke-width:5.76"/>
	<text x="906.84" y="2645.20" style="font-family:'Helvetica';font-size:79.94px;fill:#000000" text-anchor="middle">20</text>
	<line x1="1319.55" y1="2529.28" x2="1319.55" y2="2569.25" style="stroke:#000000;stroke-width:5.76"/>
	<text x="1319.55" y="2645.20" style="font-family:'Helvetica';font-size:79.94px;fill:#000000" text-anchor="middle">40</text>
	<line x1="1732.25" y1="2529.28" x2="1732.25" y2="2569.25" style="stroke:#000000;stroke-width:5.76"/>
	<text x="1732.25" y="2645.20" style="font-family:'Helvetica';font-size:79.94px;fill:#000000" text-anchor="middle">60</text>
	<line x1="2144.96" y1="2529.28" x2="2144.96" y2="2569.25" style="stroke:#000000;stroke-width:5.76"/>
	<text x="2144.96" y="2645.20" style="font-family:'Helvetica';font-size:79.94px;fill:#000000" text-anchor="middle">80</text>
	<line x1="2557.66" y1="2529.28" x2="2557.66" y2="2569.25" style="stroke:#000000;stroke-width:5.76"/>
	<text x="2557.66" y="2645.20" style="font-family:'Helvetica';font-size:79.94px;fill:#000000" text-anchor="middle">100</text>
	<line x1="2970.37" y1="2529.28" x2="2970.37" y2="2569.25" style="stroke:#000000;stroke-width:5.76"/>
	<text x="2970.37" y="2645.20" style="font-family:'Helvetica';font-size:79.94px;fill:#000000" text-anchor="middle">120</text>
	<line x1="3383.08" y1="2529.28" x2="3383.08" y2="2569.25" style="stroke:#000000;stroke-width:5.76"/>
	<text x="3383.08" y="2645.20" style="font-family:'Helvetica';font-size:79.94px;fill:#000000" text-anchor="middle">140</text>
	<line x1="3795.78" y1="2529.28" x2="3795.78" y2="2569.25" style="stroke:#000000;stroke-width:5.76"/>
	<text x="3795.78" y="2645.20" style="font-family:'Helvetica';font-size:79.94px;fill:#000000" text-anchor="middle">160</text>
	<text x="2144.96" y="2735.17" style="font-family:'Helvetica';font-size:79.94px;fill:#000000" text-anchor="middle">Days since 1 Mar 2020</text>
	<rect x="465.30" y="269.91" width="917.48" height="326.46" style="fill:#FFFFFF"/>
	<rect x="468.18" y="272.79" width="911.72" height="320.70" style="fill:none;stroke:#EAF2F3;stroke-width:5.76"/>
	<rect x="508.49" y="313.10" width="374.34" height="99.99" style="fill:#FF3333;fill-opacity:0.25"/>
	<rect x="512.81" y="317.42" width="365.70" height="91.35" style="fill:none;stroke:#FF0000;stroke-opacity:0.25;stroke-width:8.64"/>
	<rect x="508.49" y="453.06" width="374.34" height="99.99" style="fill:#3333FF;fill-opacity:0.25"/>
	<rect x="512.81" y="457.38" width="365.70" height="91.35" style="fill:none;stroke:#0000FF;stroke-opacity:0.25;stroke-width:8.64"/>
	<text x="942.85" y="398.12" style="font-family:'Helvetica';font-size:99.99px;fill:#000000">No HCQ</text>
	<text x="942.85" y="538.09" style="font-family:'Helvetica';font-size:99.99px;fill:#000000">HCQ</text>
	<text x="1382.29" y="187.99" style="font-family:'Helvetica';font-size:99.99px;fill:#1E2D53">Time to COVID-19 Death in ONS</text>
</svg>
