<?xml version="1.0" encoding="UTF-8" standalone="no"?>
<!-- This is a Stata 16.1 generated SVG file (http://www.stata.com) -->

<svg version="1.1" width="5.50in" height="4.00in" viewBox="0 0 3960 2880" xmlns="http://www.w3.org/2000/svg" xmlns:xlink="http://www.w3.org/1999/xlink">
	<desc>Stata Graph - Graph</desc>
	<rect x="0" y="0" width="3960" height="2880" style="fill:#EAF2F3;stroke:none"/>
	<rect x="0.00" y="0.00" width="3959.88" height="2880.00" style="fill:#FFFFFF"/>
	<rect x="2.88" y="2.88" width="3954.12" height="2874.24" style="fill:none;stroke:#EAF2F3;stroke-width:5.76"/>
	<rect x="430.77" y="245.40" width="3428.25" height="2263.83" style="fill:#FFFFFF"/>
	<rect x="433.65" y="248.28" width="3422.49" height="2258.07" style="fill:none;stroke:#FFFFFF;stroke-width:5.76"/>
	<line x1="430.77" y1="2445.87" x2="3859.02" y2="2445.87" style="stroke:#EAF2F3;stroke-width:8.64"/>
	<line x1="430.77" y1="2232.15" x2="3859.02" y2="2232.15" style="stroke:#EAF2F3;stroke-width:8.64"/>
	<line x1="430.77" y1="2018.43" x2="3859.02" y2="2018.43" style="stroke:#EAF2F3;stroke-width:8.64"/>
	<line x1="430.77" y1="1804.70" x2="3859.02" y2="1804.70" style="stroke:#EAF2F3;stroke-width:8.64"/>
	<line x1="430.77" y1="1590.98" x2="3859.02" y2="1590.98" style="stroke:#EAF2F3;stroke-width:8.64"/>
	<line x1="430.77" y1="1377.26" x2="3859.02" y2="1377.26" style="stroke:#EAF2F3;stroke-width:8.64"/>
	<line x1="430.77" y1="1163.53" x2="3859.02" y2="1163.53" style="stroke:#EAF2F3;stroke-width:8.64"/>
	<line x1="430.77" y1="949.81" x2="3859.02" y2="949.81" style="stroke:#EAF2F3;stroke-width:8.64"/>
	<line x1="430.77" y1="736.09" x2="3859.02" y2="736.09" style="stroke:#EAF2F3;stroke-width:8.64"/>
	<line x1="430.77" y1="522.49" x2="3859.02" y2="522.49" style="stroke:#EAF2F3;stroke-width:8.64"/>
	<line x1="430.77" y1="308.77" x2="3859.02" y2="308.77" style="stroke:#EAF2F3;stroke-width:8.64"/>
	<defs>
		<path id="path_FoWRANoV" d="M514.68 2445.87 L514.68 2445.87 L535.34 2445.87 L556.01 2445.87 L576.67 2445.87 L597.22 2445.87 L617.88 2445.87 L638.55 2445.87 L659.22 2445.87 L679.76 2445.87 L700.42 2445.87 L721.09 2445.87 L741.76 2445.87 L762.30 2445.87 L782.97 2445.75 L803.63 2445.75 L824.30 2445.62 L844.84 2445.38 L865.51 2445.13 L886.17 2444.63 L906.84 2444.02 L927.38 2443.15 L948.05 2441.79 L968.72 2440.18 L989.38 2438.07 L1009.92 2435.23 L1030.59 2431.89 L1051.26 2427.80 L1071.92 2422.85 L1092.46 2417.16 L1113.13 2410.73 L1133.80 2403.55 L1154.46 2395.50 L1175.01 2386.84 L1195.67 2377.56 L1216.34 2367.78 L1237.01 2357.51 L1257.55 2346.87 L1278.21 2336.10 L1298.88 2325.09 L1319.55 2313.95 L1340.09 2302.94 L1360.76 2291.92 L1381.42 2281.03 L1402.09 2270.26 L1422.63 2259.75 L1443.30 2249.35 L1463.96 2239.33 L1484.63 2229.30 L1505.17 2219.65 L1525.84 2210.00 L1546.50 2200.47 L1567.17 2191.06 L1587.71 2181.90 L1608.38 2172.75 L1629.05 2163.71 L1649.71 2154.93 L1670.25 2146.26 L1690.92 2137.72 L1711.59 2129.43 L1732.25 2121.39 L1752.80 2113.59 L1773.46 2105.92 L1794.13 2098.62 L1814.79 2091.56 L1835.34 2084.76 L1856.00 2078.20 L1876.67 2071.89 L1897.34 2065.82 L1917.88 2060.13 L1938.54 2054.56 L1959.21 2049.36 L1979.88 2044.29 L2000.42 2039.46 L2021.09 2034.88 L2041.75 2030.55 L2062.42 2026.47 L2082.96 2022.51 L2103.63 2018.67 L2124.29 2015.08 L2144.96 2011.74 L2165.50 2008.40 L2186.17 2005.31 L2206.83 2002.46 L2227.50 1999.61 L2248.04 1996.89 L2268.71 1994.42 L2289.38 1992.07 L2310.04 1989.71 L2330.58 1987.49 L2351.25 1985.51 L2371.92 1983.53 L2392.58 1981.67 L2413.13 1979.94 L2433.79 1978.21 L2454.46 1976.60 L2475.12 1975.11 L2495.67 1973.63 L2516.33 1972.27 L2537.00 1970.90 L2557.66 1969.67 L2578.21 1968.55 L2598.87 1967.32 L2619.54 1966.33 L2640.21 1965.21 L2660.75 1964.22 L2681.41 1963.36 L2702.08 1962.49 L2722.75 1961.62 L2743.29 1960.76 L2763.96 1960.01 L2784.62 1959.15 L2805.29 1958.53 L2825.83 1957.79 L2846.50 1957.04 L2867.16 1956.42 L2887.83 1955.81 L2908.37 1955.19 L2929.04 1954.57 L2949.70 1953.95 L2970.37 1953.33 L2990.91 1952.84 L3011.58 1952.22 L3032.25 1951.72 L3052.91 1951.10 L3073.45 1950.61 L3094.12 1949.99 L3114.79 1949.49 L3135.45 1949.00 L3156.00 1948.50 L3176.66 1947.89 L3197.33 1947.39 L3217.99 1946.90 L3238.54 1946.40 L3259.20 1945.91 L3259.20 1834.40 L3238.54 1835.02 L3217.99 1835.64 L3197.33 1836.26 L3176.66 1836.88 L3156.00 1837.50 L3135.45 1838.12 L3114.79 1838.73 L3094.12 1839.35 L3073.45 1840.10 L3052.91 1840.72 L3032.25 1841.33 L3011.58 1841.95 L2990.91 1842.57 L2970.37 1843.31 L2949.70 1843.93 L2929.04 1844.55 L2908.37 1845.29 L2887.83 1846.04 L2867.16 1846.78 L2846.50 1847.52 L2825.83 1848.26 L2805.29 1849.01 L2784.62 1849.87 L2763.96 1850.74 L2743.29 1851.61 L2722.75 1852.47 L2702.08 1853.46 L2681.41 1854.45 L2660.75 1855.57 L2640.21 1856.68 L2619.54 1857.79 L2598.87 1859.03 L2578.21 1860.27 L2557.66 1861.63 L2537.00 1863.11 L2516.33 1864.60 L2495.67 1866.21 L2475.12 1867.82 L2454.46 1869.55 L2433.79 1871.41 L2413.13 1873.39 L2392.58 1875.37 L2371.92 1877.59 L2351.25 1879.82 L2330.58 1882.30 L2310.04 1884.90 L2289.38 1887.49 L2268.71 1890.34 L2248.04 1893.31 L2227.50 1896.53 L2206.83 1899.75 L2186.17 1903.21 L2165.50 1906.92 L2144.96 1910.76 L2124.29 1914.84 L2103.63 1919.05 L2082.96 1923.51 L2062.42 1928.21 L2041.75 1933.04 L2021.09 1938.23 L2000.42 1943.55 L1979.88 1949.25 L1959.21 1955.06 L1938.54 1961.13 L1917.88 1967.56 L1897.34 1974.12 L1876.67 1981.05 L1856.00 1988.23 L1835.34 1995.78 L1814.79 2003.45 L1794.13 2011.50 L1773.46 2019.66 L1752.80 2028.33 L1732.25 2037.11 L1711.59 2046.15 L1690.92 2055.55 L1670.25 2065.20 L1649.71 2075.10 L1629.05 2085.25 L1608.38 2095.77 L1587.71 2106.41 L1567.17 2117.43 L1546.50 2128.57 L1525.84 2139.83 L1505.17 2151.34 L1484.63 2162.97 L1463.96 2174.85 L1443.30 2186.73 L1422.63 2198.86 L1402.09 2211.23 L1381.42 2223.73 L1360.76 2236.48 L1340.09 2249.47 L1319.55 2262.84 L1298.88 2276.33 L1278.21 2289.94 L1257.55 2303.68 L1237.01 2317.29 L1216.34 2330.53 L1195.67 2343.28 L1175.01 2355.41 L1154.46 2366.79 L1133.80 2377.19 L1113.13 2386.84 L1092.46 2395.50 L1071.92 2403.18 L1051.26 2410.11 L1030.59 2416.17 L1009.92 2421.37 L989.38 2425.82 L968.72 2429.54 L948.05 2432.75 L927.38 2435.35 L906.84 2437.58 L886.17 2439.31 L865.51 2440.67 L844.84 2441.79 L824.30 2442.65 L803.63 2443.40 L782.97 2443.89 L762.30 2444.26 L741.76 2444.63 L721.09 2444.88 L700.42 2445.13 L679.76 2445.25 L659.22 2445.50 L638.55 2445.50 L617.88 2445.62 L597.22 2445.75 L576.67 2445.75 L556.01 2445.87 L535.34 2445.87 L514.68 2445.87 L514.68 2445.87 Z" stroke-linejoin="round"/>
	</defs>
	<defs>
		<clipPath id="clipPath_GNLKAMSY">
			<use xlink:href="#path_FoWRANoV"/>
		</clipPath>
	</defs>
	<use xlink:href="#path_FoWRANoV" style="stroke:none;fill:#FF3333;fill-opacity:0.25"/>
	<use xlink:href="#path_FoWRANoV" style="fill:none;stroke:#FF0000;stroke-opacity:0.25;stroke-width:17.28" clip-path="url(#clipPath_GNLKAMSY)"/>
	<defs>
		<path id="path_ZOCPRmbE" d="M514.68 2445.87 L514.68 2445.87 L535.34 2445.87 L556.01 2445.87 L576.67 2445.87 L597.22 2445.87 L617.88 2445.87 L638.55 2445.87 L659.22 2445.87 L679.76 2445.87 L700.42 2445.87 L721.09 2445.87 L741.76 2445.87 L762.30 2445.87 L782.97 2445.75 L803.63 2445.75 L824.30 2445.62 L844.84 2445.38 L865.51 2445.13 L886.17 2444.76 L906.84 2444.14 L927.38 2443.27 L948.05 2442.04 L968.72 2440.55 L989.38 2438.57 L1009.92 2435.97 L1030.59 2432.88 L1051.26 2429.16 L1071.92 2424.83 L1092.46 2419.76 L1113.13 2414.07 L1133.80 2407.76 L1154.46 2400.70 L1175.01 2393.15 L1195.67 2385.11 L1216.34 2376.57 L1237.01 2367.66 L1257.55 2358.50 L1278.21 2349.22 L1298.88 2339.69 L1319.55 2330.29 L1340.09 2320.88 L1360.76 2311.47 L1381.42 2302.32 L1402.09 2293.28 L1422.63 2284.37 L1443.30 2275.59 L1463.96 2267.05 L1484.63 2258.63 L1505.17 2250.46 L1525.84 2242.30 L1546.50 2234.25 L1567.17 2226.33 L1587.71 2218.54 L1608.38 2210.86 L1629.05 2203.31 L1649.71 2195.89 L1670.25 2188.59 L1690.92 2181.53 L1711.59 2174.60 L1732.25 2167.92 L1752.80 2161.36 L1773.46 2155.05 L1794.13 2148.99 L1814.79 2143.05 L1835.34 2137.35 L1856.00 2131.91 L1876.67 2126.71 L1897.34 2121.64 L1917.88 2116.81 L1938.54 2112.23 L1959.21 2107.90 L1979.88 2103.57 L2000.42 2099.61 L2021.09 2095.77 L2041.75 2092.06 L2062.42 2088.59 L2082.96 2085.25 L2103.63 2082.16 L2124.29 2079.06 L2144.96 2076.22 L2165.50 2073.50 L2186.17 2070.90 L2206.83 2068.42 L2227.50 2066.07 L2248.04 2063.84 L2268.71 2061.62 L2289.38 2059.64 L2310.04 2057.66 L2330.58 2055.92 L2351.25 2054.19 L2371.92 2052.46 L2392.58 2050.97 L2413.13 2049.49 L2433.79 2048.00 L2454.46 2046.77 L2475.12 2045.40 L2495.67 2044.29 L2516.33 2043.05 L2537.00 2041.94 L2557.66 2040.95 L2578.21 2039.96 L2598.87 2038.97 L2619.54 2038.10 L2640.21 2037.24 L2660.75 2036.49 L2681.41 2035.63 L2702.08 2034.88 L2722.75 2034.27 L2743.29 2033.52 L2763.96 2032.90 L2784.62 2032.29 L2805.29 2031.67 L2825.83 2031.05 L2846.50 2030.43 L2867.16 2029.93 L2887.83 2029.44 L2908.37 2028.82 L2929.04 2028.33 L2949.70 2027.83 L2970.37 2027.34 L2990.91 2026.96 L3011.58 2026.47 L3032.25 2025.97 L3052.91 2025.48 L3073.45 2025.11 L3094.12 2024.61 L3114.79 2024.12 L3135.45 2023.75 L3156.00 2023.25 L3176.66 2022.88 L3197.33 2022.39 L3217.99 2022.01 L3238.54 2021.52 L3259.20 2021.15 L3259.20 1742.83 L3238.54 1743.57 L3217.99 1744.19 L3197.33 1744.93 L3176.66 1745.67 L3156.00 1746.41 L3135.45 1747.03 L3114.79 1747.78 L3094.12 1748.52 L3073.45 1749.26 L3052.91 1750.00 L3032.25 1750.75 L3011.58 1751.49 L2990.91 1752.23 L2970.37 1753.10 L2949.70 1753.84 L2929.04 1754.58 L2908.37 1755.45 L2887.83 1756.31 L2867.16 1757.18 L2846.50 1758.05 L2825.83 1758.91 L2805.29 1759.78 L2784.62 1760.77 L2763.96 1761.76 L2743.29 1762.87 L2722.75 1763.99 L2702.08 1765.10 L2681.41 1766.34 L2660.75 1767.58 L2640.21 1768.81 L2619.54 1770.18 L2598.87 1771.66 L2578.21 1773.15 L2557.66 1774.75 L2537.00 1776.36 L2516.33 1778.10 L2495.67 1779.95 L2475.12 1781.93 L2454.46 1784.04 L2433.79 1786.14 L2413.13 1788.37 L2392.58 1790.84 L2371.92 1793.32 L2351.25 1796.04 L2330.58 1798.89 L2310.04 1801.86 L2289.38 1804.95 L2268.71 1808.17 L2248.04 1811.63 L2227.50 1815.35 L2206.83 1819.18 L2186.17 1823.27 L2165.50 1827.47 L2144.96 1831.93 L2124.29 1836.63 L2103.63 1841.58 L2082.96 1846.78 L2062.42 1852.10 L2041.75 1857.79 L2021.09 1863.86 L2000.42 1870.04 L1979.88 1876.60 L1959.21 1883.41 L1938.54 1890.46 L1917.88 1898.01 L1897.34 1905.69 L1876.67 1913.85 L1856.00 1922.27 L1835.34 1931.06 L1814.79 1940.09 L1794.13 1949.49 L1773.46 1959.27 L1752.80 1969.30 L1732.25 1979.69 L1711.59 1990.46 L1690.92 2001.35 L1670.25 2012.73 L1649.71 2024.37 L1629.05 2036.25 L1608.38 2048.37 L1587.71 2060.87 L1567.17 2073.50 L1546.50 2086.49 L1525.84 2099.61 L1505.17 2112.85 L1484.63 2126.34 L1463.96 2139.95 L1443.30 2153.81 L1422.63 2167.92 L1402.09 2182.15 L1381.42 2196.75 L1360.76 2211.61 L1340.09 2226.58 L1319.55 2241.93 L1298.88 2257.39 L1278.21 2272.99 L1257.55 2288.58 L1237.01 2303.93 L1216.34 2318.90 L1195.67 2333.26 L1175.01 2346.87 L1154.46 2359.61 L1133.80 2371.37 L1113.13 2382.14 L1092.46 2391.79 L1071.92 2400.33 L1051.26 2407.88 L1030.59 2414.44 L1009.92 2420.13 L989.38 2424.96 L968.72 2428.92 L948.05 2432.38 L927.38 2435.10 L906.84 2437.33 L886.17 2439.19 L865.51 2440.55 L844.84 2441.66 L824.30 2442.65 L803.63 2443.27 L782.97 2443.89 L762.30 2444.26 L741.76 2444.63 L721.09 2444.88 L700.42 2445.13 L679.76 2445.25 L659.22 2445.50 L638.55 2445.50 L617.88 2445.62 L597.22 2445.75 L576.67 2445.75 L556.01 2445.87 L535.34 2445.87 L514.68 2445.87 L514.68 2445.87 Z" stroke-linejoin="round"/>
	</defs>
	<defs>
		<clipPath id="clipPath_OXZLVKcr">
			<use xlink:href="#path_ZOCPRmbE"/>
		</clipPath>
	</defs>
	<use xlink:href="#path_ZOCPRmbE" style="stroke:none;fill:#3333FF;fill-opacity:0.25"/>
	<use xlink:href="#path_ZOCPRmbE" style="fill:none;stroke:#0000FF;stroke-opacity:0.25;stroke-width:17.28" clip-path="url(#clipPath_OXZLVKcr)"/>
	<path d=" M494.01 2445.87 L514.68 2445.87 L535.34 2445.87 L555.88 2445.87 L576.55 2445.87 L597.22 2445.87 L617.88 2445.87 L638.43 2445.87 L659.09 2445.87 L679.76 2445.87 L700.42 2445.87 L720.97 2445.87 L741.63 2445.75 L762.30 2445.62 L782.97 2445.50 L803.51 2445.38 L824.17 2445.01 L844.84 2444.51 L865.51 2443.89 L886.05 2443.15 L906.72 2442.04 L927.38 2440.55 L948.05 2438.69 L968.59 2436.34 L989.26 2433.37 L1009.92 2429.78 L1030.59 2425.58 L1051.13 2420.50 L1071.80 2414.69 L1092.46 2407.88 L1113.13 2400.33 L1133.67 2392.04 L1154.34 2382.76 L1175.01 2372.86 L1195.67 2362.21 L1216.21 2350.95 L1236.88 2339.32 L1257.55 2327.32 L1278.21 2315.06 L1298.76 2302.81 L1319.42 2290.56 L1340.09 2278.43 L1360.76 2266.43 L1381.30 2254.55 L1401.96 2242.92 L1422.63 2231.53 L1443.30 2220.27 L1463.84 2209.25 L1484.51 2198.49 L1505.17 2187.84 L1525.84 2177.33 L1546.38 2166.93 L1567.05 2156.66 L1587.71 2146.63 L1608.38 2136.73 L1628.92 2126.96 L1649.59 2117.43 L1670.25 2108.15 L1690.92 2099.11 L1711.46 2090.33 L1732.13 2081.79 L1752.80 2073.37 L1773.46 2065.33 L1794.00 2057.53 L1814.67 2049.98 L1835.34 2042.68 L1856.00 2035.75 L1876.55 2028.94 L1897.21 2022.51 L1917.88 2016.32 L1938.54 2010.38 L1959.09 2004.81 L1979.75 1999.37 L2000.42 1994.17 L2021.09 1989.22 L2041.63 1984.52 L2062.29 1979.94 L2082.96 1975.61 L2103.63 1971.52 L2124.17 1967.69 L2144.84 1963.97 L2165.50 1960.39 L2186.17 1957.04 L2206.71 1953.83 L2227.38 1950.73 L2248.04 1947.89 L2268.71 1945.16 L2289.25 1942.56 L2309.92 1940.09 L2330.58 1937.74 L2351.25 1935.51 L2371.79 1933.28 L2392.46 1931.30 L2413.13 1929.45 L2433.79 1927.59 L2454.33 1925.86 L2475.00 1924.25 L2495.67 1922.64 L2516.33 1921.28 L2536.88 1919.79 L2557.54 1918.56 L2578.21 1917.19 L2598.87 1916.08 L2619.42 1914.84 L2640.08 1913.73 L2660.75 1912.74 L2681.41 1911.75 L2701.96 1910.76 L2722.62 1909.89 L2743.29 1909.03 L2763.96 1908.16 L2784.50 1907.42 L2805.16 1906.55 L2825.83 1905.81 L2846.50 1905.07 L2867.04 1904.45 L2887.71 1903.71 L2908.37 1903.09 L2929.04 1902.34 L2949.58 1901.73 L2970.25 1901.11 L2990.91 1900.49 L3011.58 1899.87 L3032.12 1899.37 L3052.79 1898.76 L3073.45 1898.14 L3094.12 1897.52 L3114.66 1897.02 L3135.33 1896.40 L3156.00 1895.79 L3176.66 1895.29 L3197.20 1894.67 L3217.87 1894.18 L3238.54 1893.56 L3259.20 1893.06" stroke-linejoin="round" style="fill:none;stroke:#FF0000;stroke-width:8.64"/>
	<line x1="494.01" y1="2445.87" x2="514.68" y2="2445.87" style="stroke:#0000FF;stroke-width:8.64"/>
	<line x1="514.68" y1="2445.87" x2="535.34" y2="2445.87" style="stroke:#0000FF;stroke-width:8.64"/>
	<line x1="535.34" y1="2445.87" x2="551.55" y2="2445.87" style="stroke:#0000FF;stroke-width:8.64"/>
	<line x1="580.39" y1="2445.87" x2="597.22" y2="2445.87" style="stroke:#0000FF;stroke-width:8.64"/>
	<line x1="597.22" y1="2445.87" x2="617.88" y2="2445.87" style="stroke:#0000FF;stroke-width:8.64"/>
	<line x1="617.88" y1="2445.87" x2="637.93" y2="2445.87" style="stroke:#0000FF;stroke-width:8.64"/>
	<line x1="666.76" y1="2445.87" x2="679.76" y2="2445.87" style="stroke:#0000FF;stroke-width:8.64"/>
	<line x1="679.76" y1="2445.87" x2="700.42" y2="2445.87" style="stroke:#0000FF;stroke-width:8.64"/>
	<line x1="700.42" y1="2445.87" x2="720.97" y2="2445.87" style="stroke:#0000FF;stroke-width:8.64"/>
	<line x1="720.97" y1="2445.87" x2="724.43" y2="2445.87" style="stroke:#0000FF;stroke-width:8.64"/>
	<line x1="753.14" y1="2445.62" x2="762.30" y2="2445.62" style="stroke:#0000FF;stroke-width:8.64"/>
	<line x1="762.30" y1="2445.62" x2="782.97" y2="2445.50" style="stroke:#0000FF;stroke-width:8.64"/>
	<line x1="782.97" y1="2445.50" x2="803.51" y2="2445.38" style="stroke:#0000FF;stroke-width:8.64"/>
	<line x1="803.51" y1="2445.38" x2="810.81" y2="2445.25" style="stroke:#0000FF;stroke-width:8.64"/>
	<line x1="839.52" y1="2444.76" x2="844.84" y2="2444.63" style="stroke:#0000FF;stroke-width:8.64"/>
	<line x1="844.84" y1="2444.63" x2="865.51" y2="2444.02" style="stroke:#0000FF;stroke-width:8.64"/>
	<line x1="865.51" y1="2444.02" x2="886.05" y2="2443.15" style="stroke:#0000FF;stroke-width:8.64"/>
	<line x1="886.05" y1="2443.15" x2="897.06" y2="2442.53" style="stroke:#0000FF;stroke-width:8.64"/>
	<line x1="925.90" y1="2440.67" x2="927.38" y2="2440.55" style="stroke:#0000FF;stroke-width:8.64"/>
	<line x1="927.38" y1="2440.55" x2="948.05" y2="2438.69" style="stroke:#0000FF;stroke-width:8.64"/>
	<line x1="948.05" y1="2438.69" x2="968.59" y2="2436.47" style="stroke:#0000FF;stroke-width:8.64"/>
	<line x1="968.59" y1="2436.47" x2="983.07" y2="2434.36" style="stroke:#0000FF;stroke-width:8.64"/>
	<line x1="1011.41" y1="2429.66" x2="1030.59" y2="2425.82" style="stroke:#0000FF;stroke-width:8.64"/>
	<line x1="1030.59" y1="2425.82" x2="1051.13" y2="2420.75" style="stroke:#0000FF;stroke-width:8.64"/>
	<line x1="1051.13" y1="2420.75" x2="1067.47" y2="2416.29" style="stroke:#0000FF;stroke-width:8.64"/>
	<line x1="1094.94" y1="2407.51" x2="1113.13" y2="2400.95" style="stroke:#0000FF;stroke-width:8.64"/>
	<line x1="1113.13" y1="2400.95" x2="1133.67" y2="2392.66" style="stroke:#0000FF;stroke-width:8.64"/>
	<line x1="1133.67" y1="2392.66" x2="1148.40" y2="2386.22" style="stroke:#0000FF;stroke-width:8.64"/>
	<line x1="1174.51" y1="2373.97" x2="1175.01" y2="2373.72" style="stroke:#0000FF;stroke-width:8.64"/>
	<line x1="1175.01" y1="2373.72" x2="1195.67" y2="2363.20" style="stroke:#0000FF;stroke-width:8.64"/>
	<line x1="1195.67" y1="2363.20" x2="1216.21" y2="2352.07" style="stroke:#0000FF;stroke-width:8.64"/>
	<line x1="1216.21" y1="2352.07" x2="1225.25" y2="2346.99" style="stroke:#0000FF;stroke-width:8.64"/>
	<line x1="1250.37" y1="2332.88" x2="1257.55" y2="2328.68" style="stroke:#0000FF;stroke-width:8.64"/>
	<line x1="1257.55" y1="2328.68" x2="1278.21" y2="2316.67" style="stroke:#0000FF;stroke-width:8.64"/>
	<line x1="1278.21" y1="2316.67" x2="1298.76" y2="2304.42" style="stroke:#0000FF;stroke-width:8.64"/>
	<line x1="1298.76" y1="2304.42" x2="1299.99" y2="2303.68" style="stroke:#0000FF;stroke-width:8.64"/>
	<line x1="1324.99" y1="2289.20" x2="1340.09" y2="2280.41" style="stroke:#0000FF;stroke-width:8.64"/>
	<line x1="1340.09" y1="2280.41" x2="1360.76" y2="2268.53" style="stroke:#0000FF;stroke-width:8.64"/>
	<line x1="1360.76" y1="2268.53" x2="1374.86" y2="2260.49" style="stroke:#0000FF;stroke-width:8.64"/>
	<line x1="1399.98" y1="2246.38" x2="1401.96" y2="2245.27" style="stroke:#0000FF;stroke-width:8.64"/>
	<line x1="1401.96" y1="2245.27" x2="1422.63" y2="2234.00" style="stroke:#0000FF;stroke-width:8.64"/>
	<line x1="1422.63" y1="2234.00" x2="1443.30" y2="2222.99" style="stroke:#0000FF;stroke-width:8.64"/>
	<line x1="1443.30" y1="2222.99" x2="1450.72" y2="2219.03" style="stroke:#0000FF;stroke-width:8.64"/>
	<line x1="1476.21" y1="2205.67" x2="1484.51" y2="2201.33" style="stroke:#0000FF;stroke-width:8.64"/>
	<line x1="1484.51" y1="2201.33" x2="1505.17" y2="2190.81" style="stroke:#0000FF;stroke-width:8.64"/>
	<line x1="1505.17" y1="2190.81" x2="1525.84" y2="2180.42" style="stroke:#0000FF;stroke-width:8.64"/>
	<line x1="1525.84" y1="2180.42" x2="1527.57" y2="2179.55" style="stroke:#0000FF;stroke-width:8.64"/>
	<line x1="1553.31" y1="2166.81" x2="1567.05" y2="2160.00" style="stroke:#0000FF;stroke-width:8.64"/>
	<line x1="1567.05" y1="2160.00" x2="1587.71" y2="2150.10" style="stroke:#0000FF;stroke-width:8.64"/>
	<line x1="1587.71" y1="2150.10" x2="1605.16" y2="2141.81" style="stroke:#0000FF;stroke-width:8.64"/>
	<line x1="1631.40" y1="2129.56" x2="1649.59" y2="2121.27" style="stroke:#0000FF;stroke-width:8.64"/>
	<line x1="1649.59" y1="2121.27" x2="1670.25" y2="2112.11" style="stroke:#0000FF;stroke-width:8.64"/>
	<line x1="1670.25" y1="2112.11" x2="1683.87" y2="2106.17" style="stroke:#0000FF;stroke-width:8.64"/>
	<line x1="1710.47" y1="2094.91" x2="1711.46" y2="2094.41" style="stroke:#0000FF;stroke-width:8.64"/>
	<line x1="1711.46" y1="2094.41" x2="1732.13" y2="2086.00" style="stroke:#0000FF;stroke-width:8.64"/>
	<line x1="1732.13" y1="2086.00" x2="1752.80" y2="2077.70" style="stroke:#0000FF;stroke-width:8.64"/>
	<line x1="1752.80" y1="2077.70" x2="1763.93" y2="2073.37" style="stroke:#0000FF;stroke-width:8.64"/>
	<line x1="1790.91" y1="2063.22" x2="1794.00" y2="2062.11" style="stroke:#0000FF;stroke-width:8.64"/>
	<line x1="1794.00" y1="2062.11" x2="1814.67" y2="2054.56" style="stroke:#0000FF;stroke-width:8.64"/>
	<line x1="1814.67" y1="2054.56" x2="1835.34" y2="2047.38" style="stroke:#0000FF;stroke-width:8.64"/>
	<line x1="1835.34" y1="2047.38" x2="1845.24" y2="2044.17" style="stroke:#0000FF;stroke-width:8.64"/>
	<line x1="1872.59" y1="2035.13" x2="1876.55" y2="2033.89" style="stroke:#0000FF;stroke-width:8.64"/>
	<line x1="1876.55" y1="2033.89" x2="1897.21" y2="2027.46" style="stroke:#0000FF;stroke-width:8.64"/>
	<line x1="1897.21" y1="2027.46" x2="1917.88" y2="2021.40" style="stroke:#0000FF;stroke-width:8.64"/>
	<line x1="1917.88" y1="2021.40" x2="1927.65" y2="2018.55" style="stroke:#0000FF;stroke-width:8.64"/>
	<line x1="1955.50" y1="2010.88" x2="1959.09" y2="2009.89" style="stroke:#0000FF;stroke-width:8.64"/>
	<line x1="1959.09" y1="2009.89" x2="1979.75" y2="2004.57" style="stroke:#0000FF;stroke-width:8.64"/>
	<line x1="1979.75" y1="2004.57" x2="2000.42" y2="1999.37" style="stroke:#0000FF;stroke-width:8.64"/>
	<line x1="2000.42" y1="1999.37" x2="2011.31" y2="1996.89" style="stroke:#0000FF;stroke-width:8.64"/>
	<line x1="2039.40" y1="1990.33" x2="2041.63" y2="1989.84" style="stroke:#0000FF;stroke-width:8.64"/>
	<line x1="2041.63" y1="1989.84" x2="2062.29" y2="1985.38" style="stroke:#0000FF;stroke-width:8.64"/>
	<line x1="2062.29" y1="1985.38" x2="2082.96" y2="1981.18" style="stroke:#0000FF;stroke-width:8.64"/>
	<line x1="2082.96" y1="1981.18" x2="2095.71" y2="1978.70" style="stroke:#0000FF;stroke-width:8.64"/>
	<line x1="2124.05" y1="1973.26" x2="2124.17" y2="1973.26" style="stroke:#0000FF;stroke-width:8.64"/>
	<line x1="2124.17" y1="1973.26" x2="2144.84" y2="1969.54" style="stroke:#0000FF;stroke-width:8.64"/>
	<line x1="2144.84" y1="1969.54" x2="2165.50" y2="1966.08" style="stroke:#0000FF;stroke-width:8.64"/>
	<line x1="2165.50" y1="1966.08" x2="2180.85" y2="1963.60" style="stroke:#0000FF;stroke-width:8.64"/>
	<line x1="2209.31" y1="1959.15" x2="2227.38" y2="1956.55" style="stroke:#0000FF;stroke-width:8.64"/>
	<line x1="2227.38" y1="1956.55" x2="2248.04" y2="1953.70" style="stroke:#0000FF;stroke-width:8.64"/>
	<line x1="2248.04" y1="1953.70" x2="2266.23" y2="1951.23" style="stroke:#0000FF;stroke-width:8.64"/>
	<line x1="2294.82" y1="1947.76" x2="2309.92" y2="1945.91" style="stroke:#0000FF;stroke-width:8.64"/>
	<line x1="2309.92" y1="1945.91" x2="2330.58" y2="1943.55" style="stroke:#0000FF;stroke-width:8.64"/>
	<line x1="2330.58" y1="1943.55" x2="2351.25" y2="1941.45" style="stroke:#0000FF;stroke-width:8.64"/>
	<line x1="2351.25" y1="1941.45" x2="2352.12" y2="1941.45" style="stroke:#0000FF;stroke-width:8.64"/>
	<line x1="2380.70" y1="1938.48" x2="2392.46" y2="1937.37" style="stroke:#0000FF;stroke-width:8.64"/>
	<line x1="2392.46" y1="1937.37" x2="2413.13" y2="1935.39" style="stroke:#0000FF;stroke-width:8.64"/>
	<line x1="2413.13" y1="1935.39" x2="2433.79" y2="1933.65" style="stroke:#0000FF;stroke-width:8.64"/>
	<line x1="2433.79" y1="1933.65" x2="2438.00" y2="1933.28" style="stroke:#0000FF;stroke-width:8.64"/>
	<line x1="2466.71" y1="1930.93" x2="2475.00" y2="1930.31" style="stroke:#0000FF;stroke-width:8.64"/>
	<line x1="2475.00" y1="1930.31" x2="2495.67" y2="1928.83" style="stroke:#0000FF;stroke-width:8.64"/>
	<line x1="2495.67" y1="1928.83" x2="2516.33" y2="1927.34" style="stroke:#0000FF;stroke-width:8.64"/>
	<line x1="2516.33" y1="1927.34" x2="2524.13" y2="1926.85" style="stroke:#0000FF;stroke-width:8.64"/>
	<line x1="2552.96" y1="1924.99" x2="2557.54" y2="1924.62" style="stroke:#0000FF;stroke-width:8.64"/>
	<line x1="2557.54" y1="1924.62" x2="2578.21" y2="1923.38" style="stroke:#0000FF;stroke-width:8.64"/>
	<line x1="2578.21" y1="1923.38" x2="2598.87" y2="1922.15" style="stroke:#0000FF;stroke-width:8.64"/>
	<line x1="2598.87" y1="1922.15" x2="2610.38" y2="1921.53" style="stroke:#0000FF;stroke-width:8.64"/>
	<line x1="2639.22" y1="1920.04" x2="2640.08" y2="1919.92" style="stroke:#0000FF;stroke-width:8.64"/>
	<line x1="2640.08" y1="1919.92" x2="2660.75" y2="1918.93" style="stroke:#0000FF;stroke-width:8.64"/>
	<line x1="2660.75" y1="1918.93" x2="2681.41" y2="1917.94" style="stroke:#0000FF;stroke-width:8.64"/>
	<line x1="2681.41" y1="1917.94" x2="2696.76" y2="1917.32" style="stroke:#0000FF;stroke-width:8.64"/>
	<line x1="2725.59" y1="1915.96" x2="2743.29" y2="1915.21" style="stroke:#0000FF;stroke-width:8.64"/>
	<line x1="2743.29" y1="1915.21" x2="2763.96" y2="1914.47" style="stroke:#0000FF;stroke-width:8.64"/>
	<line x1="2763.96" y1="1914.47" x2="2783.14" y2="1913.73" style="stroke:#0000FF;stroke-width:8.64"/>
	<line x1="2811.97" y1="1912.62" x2="2825.83" y2="1912.12" style="stroke:#0000FF;stroke-width:8.64"/>
	<line x1="2825.83" y1="1912.12" x2="2846.50" y2="1911.38" style="stroke:#0000FF;stroke-width:8.64"/>
	<line x1="2846.50" y1="1911.38" x2="2867.04" y2="1910.64" style="stroke:#0000FF;stroke-width:8.64"/>
	<line x1="2867.04" y1="1910.64" x2="2869.51" y2="1910.51" style="stroke:#0000FF;stroke-width:8.64"/>
	<line x1="2898.35" y1="1909.77" x2="2908.37" y2="1909.40" style="stroke:#0000FF;stroke-width:8.64"/>
	<line x1="2908.37" y1="1909.40" x2="2929.04" y2="1908.78" style="stroke:#0000FF;stroke-width:8.64"/>
	<line x1="2929.04" y1="1908.78" x2="2949.58" y2="1908.04" style="stroke:#0000FF;stroke-width:8.64"/>
	<line x1="2949.58" y1="1908.04" x2="2955.89" y2="1907.91" style="stroke:#0000FF;stroke-width:8.64"/>
	<line x1="2984.73" y1="1907.05" x2="2990.91" y2="1906.92" style="stroke:#0000FF;stroke-width:8.64"/>
	<line x1="2990.91" y1="1906.92" x2="3011.58" y2="1906.30" style="stroke:#0000FF;stroke-width:8.64"/>
	<line x1="3011.58" y1="1906.30" x2="3032.12" y2="1905.69" style="stroke:#0000FF;stroke-width:8.64"/>
	<line x1="3032.12" y1="1905.69" x2="3042.27" y2="1905.44" style="stroke:#0000FF;stroke-width:8.64"/>
	<line x1="3071.10" y1="1904.70" x2="3073.45" y2="1904.57" style="stroke:#0000FF;stroke-width:8.64"/>
	<line x1="3073.45" y1="1904.57" x2="3094.12" y2="1903.95" style="stroke:#0000FF;stroke-width:8.64"/>
	<line x1="3094.12" y1="1903.95" x2="3114.66" y2="1903.33" style="stroke:#0000FF;stroke-width:8.64"/>
	<line x1="3114.66" y1="1903.33" x2="3128.65" y2="1902.96" style="stroke:#0000FF;stroke-width:8.64"/>
	<line x1="3157.48" y1="1902.10" x2="3176.66" y2="1901.73" style="stroke:#0000FF;stroke-width:8.64"/>
	<line x1="3176.66" y1="1901.73" x2="3197.20" y2="1901.11" style="stroke:#0000FF;stroke-width:8.64"/>
	<line x1="3197.20" y1="1901.11" x2="3215.15" y2="1900.74" style="stroke:#0000FF;stroke-width:8.64"/>
	<line x1="3243.86" y1="1899.87" x2="3259.20" y2="1899.50" style="stroke:#0000FF;stroke-width:8.64"/>
	<path d="" stroke-linejoin="round" style="fill:none;stroke:#0000FF;stroke-width:8.64"/>
	<line x1="430.77" y1="2509.23" x2="430.77" y2="245.40" style="stroke:#000000;stroke-width:5.76"/>
	<line x1="430.77" y1="2445.87" x2="390.80" y2="2445.87" style="stroke:#000000;stroke-width:5.76"/>
	<text x="370.75" y="2473.88" style="font-family:'Helvetica';font-size:79.94px;fill:#000000" text-anchor="end">0.0</text>
	<line x1="430.77" y1="2232.15" x2="390.80" y2="2232.15" style="stroke:#000000;stroke-width:5.76"/>
	<text x="370.75" y="2260.16" style="font-family:'Helvetica';font-size:79.94px;fill:#000000" text-anchor="end">0.1</text>
	<line x1="430.77" y1="2018.43" x2="390.80" y2="2018.43" style="stroke:#000000;stroke-width:5.76"/>
	<text x="370.75" y="2046.44" style="font-family:'Helvetica';font-size:79.94px;fill:#000000" text-anchor="end">0.2</text>
	<line x1="430.77" y1="1804.70" x2="390.80" y2="1804.70" style="stroke:#000000;stroke-width:5.76"/>
	<text x="370.75" y="1832.71" style="font-family:'Helvetica';font-size:79.94px;fill:#000000" text-anchor="end">0.3</text>
	<line x1="430.77" y1="1590.98" x2="390.80" y2="1590.98" style="stroke:#000000;stroke-width:5.76"/>
	<text x="370.75" y="1618.99" style="font-family:'Helvetica';font-size:79.94px;fill:#000000" text-anchor="end">0.4</text>
	<line x1="430.77" y1="1377.26" x2="390.80" y2="1377.26" style="stroke:#000000;stroke-width:5.76"/>
	<text x="370.75" y="1405.27" style="font-family:'Helvetica';font-size:79.94px;fill:#000000" text-anchor="end">0.5</text>
	<line x1="430.77" y1="1163.53" x2="390.80" y2="1163.53" style="stroke:#000000;stroke-width:5.76"/>
	<text x="370.75" y="1191.55" style="font-family:'Helvetica';font-size:79.94px;fill:#000000" text-anchor="end">0.6</text>
	<line x1="430.77" y1="949.81" x2="390.80" y2="949.81" style="stroke:#000000;stroke-width:5.76"/>
	<text x="370.75" y="977.82" style="font-family:'Helvetica';font-size:79.94px;fill:#000000" text-anchor="end">0.7</text>
	<line x1="430.77" y1="736.09" x2="390.80" y2="736.09" style="stroke:#000000;stroke-width:5.76"/>
	<text x="370.75" y="764.10" style="font-family:'Helvetica';font-size:79.94px;fill:#000000" text-anchor="end">0.8</text>
	<line x1="430.77" y1="522.49" x2="390.80" y2="522.49" style="stroke:#000000;stroke-width:5.76"/>
	<text x="370.75" y="550.50" style="font-family:'Helvetica';font-size:79.94px;fill:#000000" text-anchor="end">0.9</text>
	<line x1="430.77" y1="308.77" x2="390.80" y2="308.77" style="stroke:#000000;stroke-width:5.76"/>
	<text x="370.75" y="336.78" style="font-family:'Helvetica';font-size:79.94px;fill:#000000" text-anchor="end">1.0</text>
	<text x="190.71" y="1377.26" style="font-family:'Helvetica';font-size:99.99px;fill:#000000" transform="rotate(-90 190.71,1377.26)" text-anchor="middle">Cumulative mortality (%)</text>
	<line x1="430.77" y1="2509.23" x2="3859.02" y2="2509.23" style="stroke:#000000;stroke-width:5.76"/>
	<line x1="494.13" y1="2509.23" x2="494.13" y2="2549.21" style="stroke:#000000;stroke-width:5.76"/>
	<text x="494.13" y="2625.15" style="font-family:'Helvetica';font-size:79.94px;fill:#000000" text-anchor="middle">0</text>
	<line x1="906.84" y1="2509.23" x2="906.84" y2="2549.21" style="stroke:#000000;stroke-width:5.76"/>
	<text x="906.84" y="2625.15" style="font-family:'Helvetica';font-size:79.94px;fill:#000000" text-anchor="middle">20</text>
	<line x1="1319.55" y1="2509.23" x2="1319.55" y2="2549.21" style="stroke:#000000;stroke-width:5.76"/>
	<text x="1319.55" y="2625.15" style="font-family:'Helvetica';font-size:79.94px;fill:#000000" text-anchor="middle">40</text>
	<line x1="1732.25" y1="2509.23" x2="1732.25" y2="2549.21" style="stroke:#000000;stroke-width:5.76"/>
	<text x="1732.25" y="2625.15" style="font-family:'Helvetica';font-size:79.94px;fill:#000000" text-anchor="middle">60</text>
	<line x1="2144.96" y1="2509.23" x2="2144.96" y2="2549.21" style="stroke:#000000;stroke-width:5.76"/>
	<text x="2144.96" y="2625.15" style="font-family:'Helvetica';font-size:79.94px;fill:#000000" text-anchor="middle">80</text>
	<line x1="2557.66" y1="2509.23" x2="2557.66" y2="2549.21" style="stroke:#000000;stroke-width:5.76"/>
	<text x="2557.66" y="2625.15" style="font-family:'Helvetica';font-size:79.94px;fill:#000000" text-anchor="middle">100</text>
	<line x1="2970.37" y1="2509.23" x2="2970.37" y2="2549.21" style="stroke:#000000;stroke-width:5.76"/>
	<text x="2970.37" y="2625.15" style="font-family:'Helvetica';font-size:79.94px;fill:#000000" text-anchor="middle">120</text>
	<line x1="3383.08" y1="2509.23" x2="3383.08" y2="2549.21" style="stroke:#000000;stroke-width:5.76"/>
	<text x="3383.08" y="2625.15" style="font-family:'Helvetica';font-size:79.94px;fill:#000000" text-anchor="middle">140</text>
	<line x1="3795.78" y1="2509.23" x2="3795.78" y2="2549.21" style="stroke:#000000;stroke-width:5.76"/>
	<text x="3795.78" y="2625.15" style="font-family:'Helvetica';font-size:79.94px;fill:#000000" text-anchor="middle">160</text>
	<text x="2144.96" y="2729.16" style="font-family:'Helvetica';font-size:99.99px;fill:#000000" text-anchor="middle">Days since 1 Mar 2020</text>
	<rect x="465.30" y="279.93" width="917.48" height="326.34" style="fill:#FFFFFF"/>
	<rect x="468.18" y="282.81" width="911.72" height="320.58" style="fill:none;stroke:#EAF2F3;stroke-width:5.76"/>
	<rect x="508.49" y="323.12" width="374.34" height="99.99" style="fill:#FF3333;fill-opacity:0.25"/>
	<rect x="512.81" y="327.44" width="365.70" height="91.35" style="fill:none;stroke:#FF0000;stroke-opacity:0.25;stroke-width:8.64"/>
	<rect x="508.49" y="463.09" width="374.34" height="99.99" style="fill:#3333FF;fill-opacity:0.25"/>
	<rect x="512.81" y="467.41" width="365.70" height="91.35" style="fill:none;stroke:#0000FF;stroke-opacity:0.25;stroke-width:8.64"/>
	<text x="942.85" y="408.15" style="font-family:'Helvetica';font-size:99.99px;fill:#000000">No HCQ</text>
	<text x="942.85" y="548.11" style="font-family:'Helvetica';font-size:99.99px;fill:#000000">HCQ</text>
	<text x="919.34" y="195.01" style="font-family:'Helvetica';font-size:110.01px;fill:#1E2D53">Time to COVID-19 Death in ONS, RA population</text>
</svg>
