<?xml version="1.0" encoding="UTF-8" standalone="no"?>
<!-- This is a Stata 16.1 generated SVG file (http://www.stata.com) -->

<svg version="1.1" width="5.50in" height="4.00in" viewBox="0 0 3960 2880" xmlns="http://www.w3.org/2000/svg" xmlns:xlink="http://www.w3.org/1999/xlink">
	<desc>Stata Graph - Graph</desc>
	<rect x="0" y="0" width="3960" height="2880" style="fill:#EAF2F3;stroke:none"/>
	<rect x="0.00" y="0.00" width="3959.88" height="2880.00" style="fill:#FFFFFF"/>
	<rect x="2.88" y="2.88" width="3954.12" height="2874.24" style="fill:none;stroke:#EAF2F3;stroke-width:5.76"/>
	<rect x="430.77" y="245.40" width="3428.25" height="2263.83" style="fill:#FFFFFF"/>
	<rect x="433.65" y="248.28" width="3422.49" height="2258.07" style="fill:none;stroke:#FFFFFF;stroke-width:5.76"/>
	<line x1="430.77" y1="2445.87" x2="3859.02" y2="2445.87" style="stroke:#EAF2F3;stroke-width:8.64"/>
	<line x1="430.77" y1="2232.15" x2="3859.02" y2="2232.15" style="stroke:#EAF2F3;stroke-width:8.64"/>
	<line x1="430.77" y1="2018.43" x2="3859.02" y2="2018.43" style="stroke:#EAF2F3;stroke-width:8.64"/>
	<line x1="430.77" y1="1804.70" x2="3859.02" y2="1804.70" style="stroke:#EAF2F3;stroke-width:8.64"/>
	<line x1="430.77" y1="1590.98" x2="3859.02" y2="1590.98" style="stroke:#EAF2F3;stroke-width:8.64"/>
	<line x1="430.77" y1="1377.26" x2="3859.02" y2="1377.26" style="stroke:#EAF2F3;stroke-width:8.64"/>
	<line x1="430.77" y1="1163.53" x2="3859.02" y2="1163.53" style="stroke:#EAF2F3;stroke-width:8.64"/>
	<line x1="430.77" y1="949.81" x2="3859.02" y2="949.81" style="stroke:#EAF2F3;stroke-width:8.64"/>
	<line x1="430.77" y1="736.09" x2="3859.02" y2="736.09" style="stroke:#EAF2F3;stroke-width:8.64"/>
	<line x1="430.77" y1="522.49" x2="3859.02" y2="522.49" style="stroke:#EAF2F3;stroke-width:8.64"/>
	<line x1="430.77" y1="308.77" x2="3859.02" y2="308.77" style="stroke:#EAF2F3;stroke-width:8.64"/>
	<defs>
		<path id="path_vwZkylIs" d="M514.68 2445.87 L514.68 2445.87 L535.34 2445.87 L556.01 2445.87 L576.67 2445.87 L597.22 2445.87 L617.88 2445.87 L638.55 2445.87 L659.22 2445.87 L679.76 2445.87 L700.42 2445.87 L721.09 2445.87 L741.76 2445.87 L762.30 2445.87 L782.97 2445.75 L803.63 2445.75 L824.30 2445.62 L844.84 2445.50 L865.51 2445.25 L886.17 2444.88 L906.84 2444.39 L927.38 2443.64 L948.05 2442.65 L968.72 2441.29 L989.38 2439.44 L1009.92 2437.21 L1030.59 2434.36 L1051.26 2430.90 L1071.92 2426.81 L1092.46 2422.11 L1113.13 2416.54 L1133.80 2410.35 L1154.46 2403.55 L1175.01 2396.12 L1195.67 2388.08 L1216.34 2379.66 L1237.01 2370.88 L1257.55 2361.72 L1278.21 2352.31 L1298.88 2342.91 L1319.55 2333.38 L1340.09 2323.85 L1360.76 2314.44 L1381.42 2305.04 L1402.09 2295.88 L1422.63 2286.85 L1443.30 2277.94 L1463.96 2269.27 L1484.63 2260.74 L1505.17 2252.32 L1525.84 2244.03 L1546.50 2235.74 L1567.17 2227.57 L1587.71 2219.40 L1608.38 2211.36 L1629.05 2203.44 L1649.71 2195.64 L1670.25 2187.97 L1690.92 2180.42 L1711.59 2173.12 L1732.25 2165.94 L1752.80 2159.01 L1773.46 2152.20 L1794.13 2145.64 L1814.79 2139.46 L1835.34 2133.39 L1856.00 2127.70 L1876.67 2122.13 L1897.34 2116.81 L1917.88 2111.86 L1938.54 2107.03 L1959.21 2102.45 L1979.88 2098.12 L2000.42 2093.92 L2021.09 2090.08 L2041.75 2086.24 L2062.42 2082.65 L2082.96 2079.31 L2103.63 2076.09 L2124.29 2073.00 L2144.96 2070.03 L2165.50 2067.31 L2186.17 2064.59 L2206.83 2062.11 L2227.50 2059.76 L2248.04 2057.41 L2268.71 2055.30 L2289.38 2053.20 L2310.04 2051.34 L2330.58 2049.49 L2351.25 2047.63 L2371.92 2046.02 L2392.58 2044.41 L2413.13 2042.93 L2433.79 2041.44 L2454.46 2040.08 L2475.12 2038.72 L2495.67 2037.48 L2516.33 2036.25 L2537.00 2035.13 L2557.66 2034.02 L2578.21 2032.90 L2598.87 2031.91 L2619.54 2030.92 L2640.21 2030.06 L2660.75 2029.19 L2681.41 2028.20 L2702.08 2027.46 L2722.75 2026.59 L2743.29 2025.73 L2763.96 2024.98 L2784.62 2024.24 L2805.29 2023.50 L2825.83 2022.76 L2846.50 2022.01 L2867.16 2021.40 L2887.83 2020.65 L2908.37 2019.91 L2929.04 2019.29 L2949.70 2018.55 L2970.37 2017.93 L2970.37 1923.14 L2949.70 1924.00 L2929.04 1924.87 L2908.37 1925.61 L2887.83 1926.48 L2867.16 1927.34 L2846.50 1928.21 L2825.83 1928.95 L2805.29 1929.82 L2784.62 1930.68 L2763.96 1931.55 L2743.29 1932.54 L2722.75 1933.41 L2702.08 1934.40 L2681.41 1935.26 L2660.75 1936.25 L2640.21 1937.37 L2619.54 1938.36 L2598.87 1939.47 L2578.21 1940.71 L2557.66 1941.82 L2537.00 1943.06 L2516.33 1944.42 L2495.67 1945.78 L2475.12 1947.14 L2454.46 1948.63 L2433.79 1950.24 L2413.13 1951.85 L2392.58 1953.58 L2371.92 1955.43 L2351.25 1957.41 L2330.58 1959.39 L2310.04 1961.50 L2289.38 1963.85 L2268.71 1966.20 L2248.04 1968.68 L2227.50 1971.28 L2206.83 1974.12 L2186.17 1977.09 L2165.50 1980.19 L2144.96 1983.40 L2124.29 1986.87 L2103.63 1990.58 L2082.96 1994.29 L2062.42 1998.38 L2041.75 2002.59 L2021.09 2007.04 L2000.42 2011.62 L1979.88 2016.57 L1959.21 2021.64 L1938.54 2027.09 L1917.88 2032.66 L1897.34 2038.47 L1876.67 2044.66 L1856.00 2050.97 L1835.34 2057.66 L1814.79 2064.46 L1794.13 2071.64 L1773.46 2078.94 L1752.80 2086.61 L1732.25 2094.53 L1711.59 2102.58 L1690.92 2110.87 L1670.25 2119.41 L1649.71 2128.20 L1629.05 2137.23 L1608.38 2146.39 L1587.71 2155.79 L1567.17 2165.32 L1546.50 2175.10 L1525.84 2184.87 L1505.17 2194.77 L1484.63 2204.92 L1463.96 2215.07 L1443.30 2225.22 L1422.63 2235.61 L1402.09 2246.26 L1381.42 2257.02 L1360.76 2267.91 L1340.09 2279.05 L1319.55 2290.56 L1298.88 2302.19 L1278.21 2313.95 L1257.55 2325.83 L1237.01 2337.46 L1216.34 2348.85 L1195.67 2359.86 L1175.01 2370.13 L1154.46 2379.79 L1133.80 2388.82 L1113.13 2396.86 L1092.46 2404.29 L1071.92 2410.73 L1051.26 2416.54 L1030.59 2421.62 L1009.92 2425.95 L989.38 2429.66 L968.72 2432.75 L948.05 2435.35 L927.38 2437.58 L906.84 2439.31 L886.17 2440.67 L865.51 2441.79 L844.84 2442.65 L824.30 2443.40 L803.63 2443.89 L782.97 2444.26 L762.30 2444.63 L741.76 2444.88 L721.09 2445.13 L700.42 2445.25 L679.76 2445.38 L659.22 2445.50 L638.55 2445.62 L617.88 2445.75 L597.22 2445.75 L576.67 2445.75 L556.01 2445.87 L535.34 2445.87 L514.68 2445.87 L514.68 2445.87 Z" stroke-linejoin="round"/>
	</defs>
	<defs>
		<clipPath id="clipPath_HRFplwpY">
			<use xlink:href="#path_vwZkylIs"/>
		</clipPath>
	</defs>
	<use xlink:href="#path_vwZkylIs" style="stroke:none;fill:#FF3333;fill-opacity:0.25"/>
	<use xlink:href="#path_vwZkylIs" style="fill:none;stroke:#FF0000;stroke-opacity:0.25;stroke-width:17.28" clip-path="url(#clipPath_HRFplwpY)"/>
	<defs>
		<path id="path_usNRJIlZ" d="M514.68 2445.87 L514.68 2445.87 L535.34 2445.87 L556.01 2445.87 L576.67 2445.87 L597.22 2445.87 L617.88 2445.87 L638.55 2445.87 L659.22 2445.87 L679.76 2445.87 L700.42 2445.87 L721.09 2445.87 L741.76 2445.87 L762.30 2445.87 L782.97 2445.75 L803.63 2445.75 L824.30 2445.62 L844.84 2445.50 L865.51 2445.25 L886.17 2444.88 L906.84 2444.39 L927.38 2443.64 L948.05 2442.65 L968.72 2441.42 L989.38 2439.68 L1009.92 2437.46 L1030.59 2434.86 L1051.26 2431.64 L1071.92 2427.80 L1092.46 2423.35 L1113.13 2418.27 L1133.80 2412.58 L1154.46 2406.39 L1175.01 2399.59 L1195.67 2392.29 L1216.34 2384.74 L1237.01 2376.69 L1257.55 2368.40 L1278.21 2359.99 L1298.88 2351.45 L1319.55 2343.03 L1340.09 2334.49 L1360.76 2326.20 L1381.42 2317.91 L1402.09 2309.74 L1422.63 2301.82 L1443.30 2294.03 L1463.96 2286.23 L1484.63 2278.68 L1505.17 2271.25 L1525.84 2263.95 L1546.50 2256.65 L1567.17 2249.35 L1587.71 2242.17 L1608.38 2235.12 L1629.05 2228.19 L1649.71 2221.38 L1670.25 2214.58 L1690.92 2208.02 L1711.59 2201.58 L1732.25 2195.39 L1752.80 2189.33 L1773.46 2183.39 L1794.13 2177.82 L1814.79 2172.25 L1835.34 2167.05 L1856.00 2161.98 L1876.67 2157.15 L1897.34 2152.57 L1917.88 2148.12 L1938.54 2143.91 L1959.21 2139.95 L1979.88 2136.12 L2000.42 2132.40 L2021.09 2128.94 L2041.75 2125.72 L2062.42 2122.50 L2082.96 2119.53 L2103.63 2116.69 L2124.29 2113.96 L2144.96 2111.36 L2165.50 2108.89 L2186.17 2106.66 L2206.83 2104.43 L2227.50 2102.33 L2248.04 2100.35 L2268.71 2098.37 L2289.38 2096.64 L2310.04 2094.91 L2330.58 2093.30 L2351.25 2091.81 L2371.92 2090.33 L2392.58 2088.84 L2413.13 2087.60 L2433.79 2086.37 L2454.46 2085.13 L2475.12 2084.02 L2495.67 2082.90 L2516.33 2081.79 L2537.00 2080.80 L2557.66 2079.81 L2578.21 2078.94 L2598.87 2078.07 L2619.54 2077.21 L2640.21 2076.34 L2660.75 2075.60 L2681.41 2074.86 L2702.08 2074.11 L2722.75 2073.37 L2743.29 2072.75 L2763.96 2072.01 L2784.62 2071.39 L2805.29 2070.65 L2825.83 2070.03 L2846.50 2069.41 L2867.16 2068.79 L2887.83 2068.17 L2908.37 2067.56 L2929.04 2066.94 L2949.70 2066.32 L2970.37 2065.82 L2970.37 1835.64 L2949.70 1836.63 L2929.04 1837.50 L2908.37 1838.49 L2887.83 1839.48 L2867.16 1840.47 L2846.50 1841.46 L2825.83 1842.45 L2805.29 1843.44 L2784.62 1844.43 L2763.96 1845.54 L2743.29 1846.53 L2722.75 1847.65 L2702.08 1848.76 L2681.41 1850.00 L2660.75 1851.11 L2640.21 1852.35 L2619.54 1853.59 L2598.87 1854.95 L2578.21 1856.31 L2557.66 1857.67 L2537.00 1859.15 L2516.33 1860.76 L2495.67 1862.37 L2475.12 1864.10 L2454.46 1865.84 L2433.79 1867.69 L2413.13 1869.67 L2392.58 1871.78 L2371.92 1873.88 L2351.25 1876.23 L2330.58 1878.58 L2310.04 1881.18 L2289.38 1883.78 L2268.71 1886.63 L2248.04 1889.60 L2227.50 1892.82 L2206.83 1896.03 L2186.17 1899.50 L2165.50 1903.21 L2144.96 1907.05 L2124.29 1911.13 L2103.63 1915.34 L2082.96 1919.92 L2062.42 1924.62 L2041.75 1929.57 L2021.09 1934.89 L2000.42 1940.34 L1979.88 1946.03 L1959.21 1952.09 L1938.54 1958.40 L1917.88 1965.09 L1897.34 1972.02 L1876.67 1979.20 L1856.00 1986.74 L1835.34 1994.66 L1814.79 2002.83 L1794.13 2011.37 L1773.46 2020.16 L1752.80 2029.19 L1732.25 2038.60 L1711.59 2048.25 L1690.92 2058.15 L1670.25 2068.30 L1649.71 2078.82 L1629.05 2089.46 L1608.38 2100.35 L1587.71 2111.36 L1567.17 2122.63 L1546.50 2134.01 L1525.84 2145.64 L1505.17 2157.28 L1484.63 2169.03 L1463.96 2180.91 L1443.30 2193.04 L1422.63 2205.29 L1402.09 2217.67 L1381.42 2230.29 L1360.76 2243.16 L1340.09 2256.28 L1319.55 2269.65 L1298.88 2283.26 L1278.21 2296.87 L1257.55 2310.61 L1237.01 2323.97 L1216.34 2337.09 L1195.67 2349.59 L1175.01 2361.47 L1154.46 2372.49 L1133.80 2382.63 L1113.13 2391.91 L1092.46 2400.21 L1071.92 2407.63 L1051.26 2414.07 L1030.59 2419.64 L1009.92 2424.46 L989.38 2428.55 L968.72 2432.01 L948.05 2434.73 L927.38 2437.08 L906.84 2438.94 L886.17 2440.43 L865.51 2441.54 L844.84 2442.53 L824.30 2443.27 L803.63 2443.77 L782.97 2444.26 L762.30 2444.63 L741.76 2444.88 L721.09 2445.13 L700.42 2445.25 L679.76 2445.38 L659.22 2445.50 L638.55 2445.62 L617.88 2445.62 L597.22 2445.75 L576.67 2445.75 L556.01 2445.87 L535.34 2445.87 L514.68 2445.87 L514.68 2445.87 Z" stroke-linejoin="round"/>
	</defs>
	<defs>
		<clipPath id="clipPath_PhdiLdKq">
			<use xlink:href="#path_usNRJIlZ"/>
		</clipPath>
	</defs>
	<use xlink:href="#path_usNRJIlZ" style="stroke:none;fill:#3333FF;fill-opacity:0.25"/>
	<use xlink:href="#path_usNRJIlZ" style="fill:none;stroke:#0000FF;stroke-opacity:0.25;stroke-width:17.28" clip-path="url(#clipPath_PhdiLdKq)"/>
	<path d=" M494.01 2445.87 L514.68 2445.87 L535.34 2445.87 L555.88 2445.87 L576.55 2445.87 L597.22 2445.87 L617.88 2445.87 L638.43 2445.87 L659.09 2445.87 L679.76 2445.87 L700.42 2445.87 L720.97 2445.87 L741.63 2445.87 L762.30 2445.75 L782.97 2445.62 L803.51 2445.50 L824.17 2445.25 L844.84 2444.88 L865.51 2444.39 L886.05 2443.64 L906.72 2442.78 L927.38 2441.66 L948.05 2440.06 L968.59 2438.20 L989.26 2435.72 L1009.92 2432.75 L1030.59 2429.29 L1051.13 2424.96 L1071.80 2420.13 L1092.46 2414.44 L1113.13 2408.00 L1133.67 2400.95 L1154.34 2393.03 L1175.01 2384.61 L1195.67 2375.46 L1216.21 2365.80 L1236.88 2355.78 L1257.55 2345.38 L1278.21 2334.86 L1298.76 2324.22 L1319.42 2313.70 L1340.09 2303.31 L1360.76 2293.04 L1381.30 2282.89 L1401.96 2272.86 L1422.63 2263.09 L1443.30 2253.43 L1463.84 2244.03 L1484.51 2234.75 L1505.17 2225.47 L1525.84 2216.43 L1546.38 2207.40 L1567.05 2198.49 L1587.71 2189.70 L1608.38 2180.91 L1628.92 2172.38 L1649.59 2163.96 L1670.25 2155.79 L1690.92 2147.75 L1711.46 2139.95 L1732.13 2132.28 L1752.80 2124.85 L1773.46 2117.68 L1794.00 2110.75 L1814.67 2104.06 L1835.34 2097.63 L1856.00 2091.44 L1876.55 2085.50 L1897.21 2079.81 L1917.88 2074.36 L1938.54 2069.16 L1959.09 2064.21 L1979.75 2059.51 L2000.42 2055.06 L2021.09 2050.73 L2041.63 2046.64 L2062.29 2042.81 L2082.96 2039.09 L2103.63 2035.63 L2124.17 2032.16 L2144.84 2029.07 L2165.50 2025.97 L2186.17 2023.13 L2206.71 2020.41 L2227.38 2017.81 L2248.04 2015.46 L2268.71 2013.10 L2289.25 2010.88 L2309.92 2008.77 L2330.58 2006.79 L2351.25 2004.94 L2371.79 2003.08 L2392.46 2001.35 L2413.13 1999.74 L2433.79 1998.25 L2454.33 1996.77 L2475.00 1995.28 L2495.67 1994.05 L2516.33 1992.68 L2536.88 1991.45 L2557.54 1990.33 L2578.21 1989.22 L2598.87 1988.11 L2619.42 1987.12 L2640.08 1986.13 L2660.75 1985.14 L2681.41 1984.15 L2701.96 1983.28 L2722.62 1982.41 L2743.29 1981.55 L2763.96 1980.68 L2784.50 1979.94 L2805.16 1979.07 L2825.83 1978.33 L2846.50 1977.46 L2867.04 1976.72 L2887.71 1975.98 L2908.37 1975.24 L2929.04 1974.49 L2949.58 1973.75 L2970.25 1973.01" stroke-linejoin="round" style="fill:none;stroke:#FF0000;stroke-width:8.64"/>
	<path d=" M494.01 2445.87 L514.68 2445.87 L535.34 2445.87 L555.88 2445.87 L576.55 2445.87 L597.22 2445.87 L617.88 2445.87 L638.43 2445.87 L659.09 2445.87 L679.76 2445.87 L700.42 2445.87 L720.97 2445.87 L741.63 2445.75 L762.30 2445.75 L782.97 2445.62 L803.51 2445.50 L824.17 2445.13 L844.84 2444.88 L865.51 2444.39 L886.05 2443.64 L906.72 2442.78 L927.38 2441.54 L948.05 2439.93 L968.59 2437.95 L989.26 2435.60 L1009.92 2432.51 L1030.59 2428.92 L1051.13 2424.59 L1071.80 2419.64 L1092.46 2413.82 L1113.13 2407.38 L1133.67 2400.08 L1154.34 2392.04 L1175.01 2383.38 L1195.67 2374.09 L1216.21 2364.32 L1236.88 2354.17 L1257.55 2343.53 L1278.21 2332.88 L1298.76 2321.99 L1319.42 2311.35 L1340.09 2300.71 L1360.76 2290.19 L1381.30 2279.79 L1401.96 2269.65 L1422.63 2259.75 L1443.30 2249.97 L1463.84 2240.32 L1484.51 2230.79 L1505.17 2221.51 L1525.84 2212.22 L1546.38 2203.07 L1567.05 2193.91 L1587.71 2185.00 L1608.38 2176.09 L1628.92 2167.43 L1649.59 2158.89 L1670.25 2150.47 L1690.92 2142.30 L1711.46 2134.26 L1732.13 2126.59 L1752.80 2119.04 L1773.46 2111.74 L1794.00 2104.56 L1814.67 2097.75 L1835.34 2091.19 L1856.00 2084.88 L1876.55 2078.94 L1897.21 2073.12 L1917.88 2067.56 L1938.54 2062.36 L1959.09 2057.28 L1979.75 2052.46 L2000.42 2047.88 L2021.09 2043.55 L2041.63 2039.34 L2062.29 2035.38 L2082.96 2031.67 L2103.63 2028.08 L2124.17 2024.61 L2144.84 2021.40 L2165.50 2018.30 L2186.17 2015.46 L2206.71 2012.61 L2227.38 2010.01 L2248.04 2007.54 L2268.71 2005.18 L2289.25 2002.83 L2309.92 2000.73 L2330.58 1998.75 L2351.25 1996.77 L2371.79 1994.91 L2392.46 1993.18 L2413.13 1991.57 L2433.79 1989.96 L2454.33 1988.48 L2475.00 1987.12 L2495.67 1985.75 L2516.33 1984.39 L2536.88 1983.16 L2557.54 1981.92 L2578.21 1980.80 L2598.87 1979.69 L2619.42 1978.70 L2640.08 1977.59 L2660.75 1976.72 L2681.41 1975.73 L2701.96 1974.74 L2722.62 1973.87 L2743.29 1973.01 L2763.96 1972.14 L2784.50 1971.40 L2805.16 1970.53 L2825.83 1969.67 L2846.50 1968.92 L2867.04 1968.18 L2887.71 1967.32 L2908.37 1966.57 L2929.04 1965.83 L2949.58 1965.09 L2970.25 1964.35" stroke-linejoin="round" style="fill:none;stroke:#0000FF;stroke-width:8.64"/>
	<line x1="430.77" y1="2509.23" x2="430.77" y2="245.40" style="stroke:#000000;stroke-width:5.76"/>
	<line x1="430.77" y1="2445.87" x2="390.80" y2="2445.87" style="stroke:#000000;stroke-width:5.76"/>
	<text x="370.75" y="2473.88" style="font-family:'Helvetica';font-size:79.94px;fill:#000000" text-anchor="end">0.0</text>
	<line x1="430.77" y1="2232.15" x2="390.80" y2="2232.15" style="stroke:#000000;stroke-width:5.76"/>
	<text x="370.75" y="2260.16" style="font-family:'Helvetica';font-size:79.94px;fill:#000000" text-anchor="end">0.1</text>
	<line x1="430.77" y1="2018.43" x2="390.80" y2="2018.43" style="stroke:#000000;stroke-width:5.76"/>
	<text x="370.75" y="2046.44" style="font-family:'Helvetica';font-size:79.94px;fill:#000000" text-anchor="end">0.2</text>
	<line x1="430.77" y1="1804.70" x2="390.80" y2="1804.70" style="stroke:#000000;stroke-width:5.76"/>
	<text x="370.75" y="1832.71" style="font-family:'Helvetica';font-size:79.94px;fill:#000000" text-anchor="end">0.3</text>
	<line x1="430.77" y1="1590.98" x2="390.80" y2="1590.98" style="stroke:#000000;stroke-width:5.76"/>
	<text x="370.75" y="1618.99" style="font-family:'Helvetica';font-size:79.94px;fill:#000000" text-anchor="end">0.4</text>
	<line x1="430.77" y1="1377.26" x2="390.80" y2="1377.26" style="stroke:#000000;stroke-width:5.76"/>
	<text x="370.75" y="1405.27" style="font-family:'Helvetica';font-size:79.94px;fill:#000000" text-anchor="end">0.5</text>
	<line x1="430.77" y1="1163.53" x2="390.80" y2="1163.53" style="stroke:#000000;stroke-width:5.76"/>
	<text x="370.75" y="1191.55" style="font-family:'Helvetica';font-size:79.94px;fill:#000000" text-anchor="end">0.6</text>
	<line x1="430.77" y1="949.81" x2="390.80" y2="949.81" style="stroke:#000000;stroke-width:5.76"/>
	<text x="370.75" y="977.82" style="font-family:'Helvetica';font-size:79.94px;fill:#000000" text-anchor="end">0.7</text>
	<line x1="430.77" y1="736.09" x2="390.80" y2="736.09" style="stroke:#000000;stroke-width:5.76"/>
	<text x="370.75" y="764.10" style="font-family:'Helvetica';font-size:79.94px;fill:#000000" text-anchor="end">0.8</text>
	<line x1="430.77" y1="522.49" x2="390.80" y2="522.49" style="stroke:#000000;stroke-width:5.76"/>
	<text x="370.75" y="550.50" style="font-family:'Helvetica';font-size:79.94px;fill:#000000" text-anchor="end">0.9</text>
	<line x1="430.77" y1="308.77" x2="390.80" y2="308.77" style="stroke:#000000;stroke-width:5.76"/>
	<text x="370.75" y="336.78" style="font-family:'Helvetica';font-size:79.94px;fill:#000000" text-anchor="end">1.0</text>
	<text x="190.71" y="1377.26" style="font-family:'Helvetica';font-size:99.99px;fill:#000000" transform="rotate(-90 190.71,1377.26)" text-anchor="middle">Cumulative mortality (%)</text>
	<line x1="430.77" y1="2509.23" x2="3859.02" y2="2509.23" style="stroke:#000000;stroke-width:5.76"/>
	<line x1="494.13" y1="2509.23" x2="494.13" y2="2549.21" style="stroke:#000000;stroke-width:5.76"/>
	<text x="494.13" y="2625.15" style="font-family:'Helvetica';font-size:79.94px;fill:#000000" text-anchor="middle">0</text>
	<line x1="906.84" y1="2509.23" x2="906.84" y2="2549.21" style="stroke:#000000;stroke-width:5.76"/>
	<text x="906.84" y="2625.15" style="font-family:'Helvetica';font-size:79.94px;fill:#000000" text-anchor="middle">20</text>
	<line x1="1319.55" y1="2509.23" x2="1319.55" y2="2549.21" style="stroke:#000000;stroke-width:5.76"/>
	<text x="1319.55" y="2625.15" style="font-family:'Helvetica';font-size:79.94px;fill:#000000" text-anchor="middle">40</text>
	<line x1="1732.25" y1="2509.23" x2="1732.25" y2="2549.21" style="stroke:#000000;stroke-width:5.76"/>
	<text x="1732.25" y="2625.15" style="font-family:'Helvetica';font-size:79.94px;fill:#000000" text-anchor="middle">60</text>
	<line x1="2144.96" y1="2509.23" x2="2144.96" y2="2549.21" style="stroke:#000000;stroke-width:5.76"/>
	<text x="2144.96" y="2625.15" style="font-family:'Helvetica';font-size:79.94px;fill:#000000" text-anchor="middle">80</text>
	<line x1="2557.66" y1="2509.23" x2="2557.66" y2="2549.21" style="stroke:#000000;stroke-width:5.76"/>
	<text x="2557.66" y="2625.15" style="font-family:'Helvetica';font-size:79.94px;fill:#000000" text-anchor="middle">100</text>
	<line x1="2970.37" y1="2509.23" x2="2970.37" y2="2549.21" style="stroke:#000000;stroke-width:5.76"/>
	<text x="2970.37" y="2625.15" style="font-family:'Helvetica';font-size:79.94px;fill:#000000" text-anchor="middle">120</text>
	<line x1="3383.08" y1="2509.23" x2="3383.08" y2="2549.21" style="stroke:#000000;stroke-width:5.76"/>
	<text x="3383.08" y="2625.15" style="font-family:'Helvetica';font-size:79.94px;fill:#000000" text-anchor="middle">140</text>
	<line x1="3795.78" y1="2509.23" x2="3795.78" y2="2549.21" style="stroke:#000000;stroke-width:5.76"/>
	<text x="3795.78" y="2625.15" style="font-family:'Helvetica';font-size:79.94px;fill:#000000" text-anchor="middle">160</text>
	<text x="2144.96" y="2729.16" style="font-family:'Helvetica';font-size:99.99px;fill:#000000" text-anchor="middle">Days since 1 Mar 2020</text>
	<rect x="465.30" y="279.93" width="917.48" height="326.34" style="fill:#FFFFFF"/>
	<rect x="468.18" y="282.81" width="911.72" height="320.58" style="fill:none;stroke:#EAF2F3;stroke-width:5.76"/>
	<rect x="508.49" y="323.12" width="374.34" height="99.99" style="fill:#FF3333;fill-opacity:0.25"/>
	<rect x="512.81" y="327.44" width="365.70" height="91.35" style="fill:none;stroke:#FF0000;stroke-opacity:0.25;stroke-width:8.64"/>
	<rect x="508.49" y="463.09" width="374.34" height="99.99" style="fill:#3333FF;fill-opacity:0.25"/>
	<rect x="512.81" y="467.41" width="365.70" height="91.35" style="fill:none;stroke:#0000FF;stroke-opacity:0.25;stroke-width:8.64"/>
	<text x="942.85" y="408.15" style="font-family:'Helvetica';font-size:99.99px;fill:#000000">No HCQ</text>
	<text x="942.85" y="548.11" style="font-family:'Helvetica';font-size:99.99px;fill:#000000">HCQ</text>
	<text x="1305.93" y="195.01" style="font-family:'Helvetica';font-size:110.01px;fill:#1E2D53">Time to COVID-19 Death in ONS</text>
</svg>
