<?xml version="1.0" encoding="UTF-8" standalone="no"?>
<!-- This is a Stata 16.1 generated SVG file (http://www.stata.com) -->

<svg version="1.1" width="5.50in" height="4.00in" viewBox="0 0 3960 2880" xmlns="http://www.w3.org/2000/svg" xmlns:xlink="http://www.w3.org/1999/xlink">
	<desc>Stata Graph - Graph</desc>
	<rect x="0" y="0" width="3960" height="2880" style="fill:#FFFFFF;stroke:none"/>
	<rect x="0.00" y="0.00" width="3959.88" height="2880.00" style="fill:#FFFFFF"/>
	<rect x="2.88" y="2.88" width="3954.12" height="2874.24" style="fill:none;stroke:#FFFFFF;stroke-width:5.76"/>
	<rect x="1125.54" y="103.74" width="2180.41" height="2201.02" style="fill:none;stroke:#000000;stroke-width:5.76"/>
	<path d=" M1342.44 164.22 L1346.52 355.42 L1350.73 512.46 L1354.82 643.52 L1358.90 754.77 L1362.98 850.19 L1367.19 933.10 L1371.27 1005.75 L1375.36 1069.85 L1379.57 1127.03 L1383.65 1178.14 L1387.73 1224.17 L1391.82 1265.88 L1396.02 1303.87 L1400.11 1338.52 L1404.19 1370.33 L1408.40 1399.53 L1412.48 1426.51 L1416.57 1451.63 L1420.65 1474.90 L1424.86 1496.56 L1428.94 1516.73 L1433.03 1535.66 L1437.23 1553.36 L1441.32 1570.07 L1445.40 1585.78 L1449.48 1600.63 L1453.69 1614.62 L1457.78 1627.86 L1461.86 1640.36 L1466.07 1652.24 L1470.15 1663.50 L1474.23 1674.27 L1478.32 1684.54 L1482.53 1694.31 L1486.61 1703.72 L1490.69 1712.63 L1494.90 1721.17 L1498.98 1729.34 L1503.07 1737.13 L1507.15 1744.68 L1511.36 1751.86 L1515.44 1758.79 L1519.53 1765.47 L1523.73 1771.91 L1527.82 1777.97 L1531.90 1784.04 L1535.98 1789.73 L1540.19 1795.30 L1544.28 1800.62 L1548.36 1805.82 L1552.57 1810.77 L1556.65 1815.59 L1560.73 1820.30 L1564.82 1824.75 L1569.03 1829.21 L1573.11 1833.41 L1577.19 1837.62 L1581.40 1841.58 L1585.48 1845.42 L1589.57 1849.25 L1593.65 1852.84 L1597.86 1856.43 L1601.94 1859.90 L1606.03 1863.24 L1610.23 1866.58 L1614.32 1869.80 L1618.40 1872.89 L1622.49 1875.86 L1626.69 1878.83 L1630.78 1881.68 L1634.86 1884.52 L1639.07 1887.25 L1643.15 1889.97 L1647.24 1892.57 L1651.32 1895.04 L1655.53 1897.52 L1659.61 1899.99 L1663.69 1902.34 L1667.90 1904.70 L1671.99 1906.92 L1676.07 1909.15 L1680.15 1911.25 L1684.36 1913.36 L1688.44 1915.46 L1692.53 1917.44 L1696.61 1919.55 L1700.82 1921.40 L1704.90 1923.38 L1708.99 1925.24 L1713.19 1926.97 L1717.28 1928.83 L1721.36 1930.56 L1725.45 1932.29 L1729.65 1934.03 L1733.74 1935.63 L1737.82 1937.24 L1742.03 1938.85 L1746.11 1940.46 L1750.20 1941.95 L1754.28 1943.43 L1758.49 1944.92 L1762.57 1946.40 L1766.65 1947.76 L1770.86 1949.25 L1774.95 1950.61 L1779.03 1951.97 L1783.11 1953.33 L1787.32 1954.57 L1791.40 1955.81 L1795.49 1957.17 L1799.70 1958.40 L1803.78 1959.64 L1807.86 1960.76 L1811.95 1961.99 L1816.15 1963.11 L1820.24 1964.22 L1824.32 1965.46 L1828.53 1966.57 L1832.61 1967.56 L1836.70 1968.68 L1840.78 1969.79 L1844.99 1970.78 L1849.07 1971.77 L1853.16 1972.76 L1857.36 1973.75 L1861.45 1974.74 L1865.53 1975.73 L1869.62 1976.72 L1873.82 1977.59 L1877.91 1978.58 L1881.99 1979.44 L1886.20 1980.43 L1890.28 1981.30 L1894.37 1982.17 L1898.45 1983.03 L1902.66 1983.90 L1906.74 1984.64 L1910.82 1985.51 L1915.03 1986.37 L1919.12 1987.12 L1923.20 1987.98 L1927.28 1988.72 L1931.49 1989.47 L1935.57 1990.21 L1939.66 1990.95 L1943.87 1991.69 L1947.95 1992.44 L1952.03 1993.18 L1956.12 1993.92 L1960.32 1994.66 L1964.41 1995.28 L1968.49 1996.03 L1972.70 1996.64 L1976.78 1997.39 L1980.87 1998.01 L1984.95 1998.62 L1989.16 1999.37 L1993.24 1999.99 L1997.33 2000.61 L2001.53 2001.22 L2005.62 2001.84 L2009.70 2002.46 L2013.78 2003.08 L2017.99 2003.70 L2022.08 2004.19 L2026.16 2004.81 L2030.24 2005.43 L2034.45 2005.93 L2038.53 2006.55 L2042.62 2007.04 L2046.83 2007.66 L2050.91 2008.15 L2054.99 2008.77 L2059.08 2009.27 L2063.28 2009.76 L2067.37 2010.26 L2071.45 2010.88 L2075.66 2011.37 L2079.74 2011.87 L2083.83 2012.36 L2087.91 2012.86 L2092.12 2013.35 L2096.20 2013.85 L2100.28 2014.34 L2104.49 2014.71 L2108.58 2015.21 L2112.66 2015.70 L2116.74 2016.20 L2120.95 2016.57 L2125.03 2017.06 L2129.12 2017.56 L2133.33 2017.93 L2137.41 2018.43 L2141.49 2018.80 L2145.58 2019.29 L2149.78 2019.66 L2153.87 2020.03 L2157.95 2020.53 L2162.16 2020.90 L2166.24 2021.27 L2170.33 2021.77 L2174.41 2022.14 L2178.62 2022.51 L2182.70 2022.88 L2186.79 2023.38 L2190.99 2023.75 L2195.08 2024.12 L2199.16 2024.49 L2203.24 2024.86 L2207.45 2025.23 L2211.54 2025.60 L2215.62 2025.97 L2219.83 2026.35 L2223.91 2026.72 L2227.99 2026.96 L2232.08 2027.34 L2236.29 2027.71 L2240.37 2028.08 L2244.45 2028.45 L2248.66 2028.70 L2252.74 2029.07 L2256.83 2029.44 L2260.91 2029.81 L2265.12 2030.06 L2269.20 2030.43 L2273.29 2030.68 L2277.49 2031.05 L2281.58 2031.42 L2285.66 2031.67 L2289.75 2032.04 L2293.95 2032.29 L2298.04 2032.66 L2302.12 2032.90 L2306.33 2033.28 L2310.41 2033.52 L2314.50 2033.77 L2318.58 2034.14 L2322.79 2034.39 L2326.87 2034.64 L2330.95 2035.01 L2335.16 2035.26 L2339.25 2035.50 L2343.33 2035.87 L2347.41 2036.12 L2351.62 2036.37 L2355.70 2036.62 L2359.79 2036.99 L2364.00 2037.24 L2368.08 2037.48 L2372.16 2037.73 L2376.25 2037.98 L2380.45 2038.23 L2384.54 2038.47 L2388.62 2038.72 L2392.71 2038.97 L2396.91 2039.34 L2401.00 2039.59 L2405.08 2039.83 L2409.29 2040.08 L2413.37 2040.33 L2417.46 2040.58 L2421.54 2040.83 L2425.75 2040.95 L2429.83 2041.20 L2433.91 2041.44 L2438.12 2041.69 L2442.21 2041.94 L2446.29 2042.19 L2450.37 2042.43 L2454.58 2042.68 L2458.66 2042.93 L2462.75 2043.05 L2466.96 2043.30 L2471.04 2043.55 L2475.12 2043.80 L2479.21 2044.04 L2483.41 2044.17 L2487.50 2044.41 L2491.58 2044.66 L2495.79 2044.91 L2499.87 2045.03 L2503.96 2045.28 L2508.04 2045.53 L2512.25 2045.65 L2516.33 2045.90 L2520.42 2046.15 L2524.62 2046.27 L2528.71 2046.52 L2532.79 2046.77 L2536.88 2046.89 L2541.08 2047.14 L2545.17 2047.26 L2549.25 2047.51 L2553.46 2047.63 L2557.54 2047.88 L2561.63 2048.13 L2565.71 2048.25 L2569.92 2048.50 L2574.00 2048.62 L2578.08 2048.87 L2582.29 2048.99 L2586.38 2049.24 L2590.46 2049.36 L2594.54 2049.61 L2598.75 2049.74 L2602.83 2049.98 L2606.92 2050.11 L2611.13 2050.23 L2615.21 2050.48 L2619.29 2050.60 L2623.38 2050.85 L2627.58 2050.97 L2631.67 2051.10 L2635.75 2051.34 L2639.96 2051.47 L2644.04 2051.72 L2648.13 2051.84 L2652.21 2051.96 L2656.42 2052.21 L2660.50 2052.33 L2664.59 2052.46 L2668.79 2052.71 L2672.88 2052.83 L2676.96 2052.95 L2681.04 2053.08 L2685.25 2053.32 L2689.34 2053.45 L2693.42 2053.57 L2697.63 2053.82 L2701.71 2053.94 L2705.79 2054.07 L2709.88 2054.19 L2714.09 2054.31 L2718.17 2054.56 L2722.25 2054.69 L2726.34 2054.81 L2730.54 2054.93 L2734.63 2055.18 L2738.71 2055.30 L2742.92 2055.43 L2747.00 2055.55 L2751.09 2055.68 L2755.17 2055.80 L2759.38 2056.05 L2763.46 2056.17 L2767.55 2056.29 L2771.75 2056.42 L2775.84 2056.54 L2779.92 2056.67 L2784.00 2056.79 L2788.21 2056.91 L2792.30 2057.16 L2796.38 2057.28 L2800.59 2057.41 L2804.67 2057.53 L2808.75 2057.66 L2812.84 2057.78 L2817.05 2057.90 L2821.13 2058.03 L2825.21 2058.15 L2829.42 2058.27 L2833.50 2058.40 L2837.59 2058.52 L2841.67 2058.65 L2845.88 2058.77 L2849.96 2058.89 L2854.05 2059.02 L2858.25 2059.14 L2862.34 2059.26 L2866.42 2059.39 L2870.51 2059.51 L2874.71 2059.64 L2878.80 2059.76 L2882.88 2059.88 L2887.09 2060.01 L2891.17 2060.13 L2895.26 2060.25 L2899.34 2060.38 L2903.55 2060.50 L2907.63 2060.63 L2911.71 2060.75 L2915.92 2060.87 L2920.01 2061.00 L2924.09 2061.12 L2928.17 2061.24 L2932.38 2061.37 L2936.46 2061.49 L2940.55 2061.62 L2944.76 2061.74 L2948.84 2061.74 L2952.92 2061.86 L2957.01 2061.99 L2961.21 2062.11 L2965.30 2062.23 L2969.38 2062.36 L2973.59 2062.48 L2977.67 2062.61 L2981.76 2062.73 L2985.84 2062.73 L2990.05 2062.85 L2994.13 2062.98 L2998.22 2063.10 L3002.42 2063.22 L3006.51 2063.35 L3010.59 2063.35 L3014.67 2063.47 L3018.88 2063.60 L3022.97 2063.72 L3027.05 2063.84 L3031.26 2063.97 L3035.34 2063.97 L3039.42 2064.09 L3043.51 2064.21 L3047.72 2064.34 L3051.80 2064.46 L3055.88 2064.46 L3060.09 2064.59 L3064.17 2064.71 L3068.26 2064.83 L3072.34 2064.96 L3076.55 2064.96 L3080.63 2065.08 L3084.72 2065.20 L3088.80 2065.33 L3093.01 2065.33 L3097.09 2065.45 L3101.18 2065.58 L3105.38 2065.70 L3109.47 2065.70 L3113.55 2065.82 L3117.63 2065.95 L3121.84 2066.07" stroke-linejoin="round" style="fill:none;stroke:#006000;stroke-width:8.64"/>
	<circle cx="1556.65" cy="1813.74" r="26.35" style="fill:#FF4500"/>
	<circle cx="1556.65" cy="1813.74" r="22.03" style="fill:none;stroke:#FF4500;stroke-width:8.64"/>
	<text x="1627.68" y="1772.77" style="font-family:'Helvetica';font-size:79.94px;fill:#FF4500">E-value: (1.9, 1.9)</text>
	<line x1="1122.66" y1="2307.64" x2="1122.66" y2="100.86" style="stroke:#000000;stroke-width:5.76"/>
	<line x1="1122.66" y1="2244.28" x2="1082.69" y2="2244.28" style="stroke:#000000;stroke-width:5.76"/>
	<text x="1032.58" y="2244.28" style="font-family:'Helvetica';font-size:99.99px;fill:#000000" transform="rotate(-90 1032.58,2244.28)" text-anchor="middle">1</text>
	<line x1="1122.66" y1="1765.84" x2="1082.69" y2="1765.84" style="stroke:#000000;stroke-width:5.76"/>
	<text x="1032.58" y="1765.84" style="font-family:'Helvetica';font-size:99.99px;fill:#000000" transform="rotate(-90 1032.58,1765.84)" text-anchor="middle">2</text>
	<line x1="1122.66" y1="1287.54" x2="1082.69" y2="1287.54" style="stroke:#000000;stroke-width:5.76"/>
	<text x="1032.58" y="1287.54" style="font-family:'Helvetica';font-size:99.99px;fill:#000000" transform="rotate(-90 1032.58,1287.54)" text-anchor="middle">3</text>
	<line x1="1122.66" y1="809.10" x2="1082.69" y2="809.10" style="stroke:#000000;stroke-width:5.76"/>
	<text x="1032.58" y="809.10" style="font-family:'Helvetica';font-size:99.99px;fill:#000000" transform="rotate(-90 1032.58,809.10)" text-anchor="middle">4</text>
	<line x1="1122.66" y1="330.67" x2="1082.69" y2="330.67" style="stroke:#000000;stroke-width:5.76"/>
	<text x="1032.58" y="330.67" style="font-family:'Helvetica';font-size:99.99px;fill:#000000" transform="rotate(-90 1032.58,330.67)" text-anchor="middle">5</text>
	<text x="827.85" y="1204.25" style="font-family:'Helvetica';font-size:79.94px;fill:#000000" transform="rotate(-90 827.85,1204.25)" text-anchor="middle">Risk ratio for confounder-outcome relationship</text>
	<line x1="1122.66" y1="2307.64" x2="3308.83" y2="2307.64" style="stroke:#000000;stroke-width:5.76"/>
	<line x1="1186.02" y1="2307.64" x2="1186.02" y2="2347.61" style="stroke:#000000;stroke-width:5.76"/>
	<text x="1186.02" y="2437.59" style="font-family:'Helvetica';font-size:99.99px;fill:#000000" text-anchor="middle">1</text>
	<line x1="1597.86" y1="2307.64" x2="1597.86" y2="2347.61" style="stroke:#000000;stroke-width:5.76"/>
	<text x="1597.86" y="2437.59" style="font-family:'Helvetica';font-size:99.99px;fill:#000000" text-anchor="middle">2</text>
	<line x1="2009.82" y1="2307.64" x2="2009.82" y2="2347.61" style="stroke:#000000;stroke-width:5.76"/>
	<text x="2009.82" y="2437.59" style="font-family:'Helvetica';font-size:99.99px;fill:#000000" text-anchor="middle">3</text>
	<line x1="2421.66" y1="2307.64" x2="2421.66" y2="2347.61" style="stroke:#000000;stroke-width:5.76"/>
	<text x="2421.66" y="2437.59" style="font-family:'Helvetica';font-size:99.99px;fill:#000000" text-anchor="middle">4</text>
	<line x1="2833.50" y1="2307.64" x2="2833.50" y2="2347.61" style="stroke:#000000;stroke-width:5.76"/>
	<text x="2833.50" y="2437.59" style="font-family:'Helvetica';font-size:99.99px;fill:#000000" text-anchor="middle">5</text>
	<line x1="3245.47" y1="2307.64" x2="3245.47" y2="2347.61" style="stroke:#000000;stroke-width:5.76"/>
	<text x="3245.47" y="2437.59" style="font-family:'Helvetica';font-size:99.99px;fill:#000000" text-anchor="middle">6</text>
	<text x="2215.74" y="2634.31" style="font-family:'Helvetica';font-size:79.94px;fill:#000000" text-anchor="middle">Risk ratio for exposure-confounder relationship</text>
</svg>
