<?xml version="1.0" encoding="UTF-8" standalone="no"?>
<!-- This is a Stata 16.1 generated SVG file (http://www.stata.com) -->

<svg version="1.1" width="5.50in" height="4.00in" viewBox="0 0 3960 2880" xmlns="http://www.w3.org/2000/svg" xmlns:xlink="http://www.w3.org/1999/xlink">
	<desc>Stata Graph - Graph</desc>
	<rect x="0" y="0" width="3960" height="2880" style="fill:#FFFFFF;stroke:none"/>
	<rect x="0.00" y="0.00" width="3959.88" height="2880.00" style="fill:#FFFFFF"/>
	<rect x="2.88" y="2.88" width="3954.12" height="2874.24" style="fill:none;stroke:#FFFFFF;stroke-width:5.76"/>
	<rect x="1125.54" y="103.74" width="2180.41" height="2201.02" style="fill:none;stroke:#000000;stroke-width:5.76"/>
	<path d=" M1338.36 314.46 L1342.44 506.40 L1346.52 661.59 L1350.73 789.55 L1354.82 896.97 L1358.90 988.42 L1362.98 1067.25 L1367.19 1135.81 L1371.27 1195.96 L1375.36 1249.30 L1379.57 1296.82 L1383.65 1339.39 L1387.73 1377.88 L1391.82 1412.77 L1396.02 1444.58 L1400.11 1473.66 L1404.19 1500.27 L1408.40 1524.90 L1412.48 1547.54 L1416.57 1568.70 L1420.65 1588.26 L1424.86 1606.45 L1428.94 1623.53 L1433.03 1639.49 L1437.23 1654.47 L1441.32 1668.57 L1445.40 1681.82 L1449.48 1694.31 L1453.69 1706.19 L1457.78 1717.46 L1461.86 1727.98 L1466.07 1738.12 L1470.15 1747.65 L1474.23 1756.81 L1478.32 1765.47 L1482.53 1773.76 L1486.61 1781.68 L1490.69 1789.23 L1494.90 1796.53 L1498.98 1803.47 L1503.07 1810.02 L1507.15 1816.46 L1511.36 1822.65 L1515.44 1828.46 L1519.53 1834.16 L1523.73 1839.60 L1527.82 1844.80 L1531.90 1849.87 L1535.98 1854.82 L1540.19 1859.53 L1544.28 1864.10 L1548.36 1868.44 L1552.57 1872.77 L1556.65 1876.85 L1560.73 1880.81 L1564.82 1884.65 L1569.03 1888.36 L1573.11 1892.07 L1577.19 1895.54 L1581.40 1899.00 L1585.48 1902.22 L1589.57 1905.44 L1593.65 1908.66 L1597.86 1911.63 L1601.94 1914.60 L1606.03 1917.44 L1610.23 1920.29 L1614.32 1923.01 L1618.40 1925.61 L1622.49 1928.21 L1626.69 1930.68 L1630.78 1933.16 L1634.86 1935.51 L1639.07 1937.86 L1643.15 1940.21 L1647.24 1942.44 L1651.32 1944.54 L1655.53 1946.65 L1659.61 1948.75 L1663.69 1950.73 L1667.90 1952.71 L1671.99 1954.69 L1676.07 1956.55 L1680.15 1958.40 L1684.36 1960.26 L1688.44 1961.99 L1692.53 1963.73 L1696.61 1965.46 L1700.82 1967.07 L1704.90 1968.68 L1708.99 1970.29 L1713.19 1971.89 L1717.28 1973.38 L1721.36 1974.86 L1725.45 1976.35 L1729.65 1977.83 L1733.74 1979.20 L1737.82 1980.56 L1742.03 1981.92 L1746.11 1983.28 L1750.20 1984.64 L1754.28 1985.88 L1758.49 1987.12 L1762.57 1988.35 L1766.65 1989.59 L1770.86 1990.83 L1774.95 1991.94 L1779.03 1993.18 L1783.11 1994.29 L1787.32 1995.41 L1791.40 1996.52 L1795.49 1997.63 L1799.70 1998.62 L1803.78 1999.74 L1807.86 2000.73 L1811.95 2001.72 L1816.15 2002.71 L1820.24 2003.70 L1824.32 2004.69 L1828.53 2005.56 L1832.61 2006.55 L1836.70 2007.41 L1840.78 2008.40 L1844.99 2009.27 L1849.07 2010.13 L1853.16 2011.00 L1857.36 2011.87 L1861.45 2012.73 L1865.53 2013.48 L1869.62 2014.34 L1873.82 2015.08 L1877.91 2015.95 L1881.99 2016.69 L1886.20 2017.44 L1890.28 2018.18 L1894.37 2019.04 L1898.45 2019.66 L1902.66 2020.41 L1906.74 2021.15 L1910.82 2021.89 L1915.03 2022.63 L1919.12 2023.25 L1923.20 2023.99 L1927.28 2024.61 L1931.49 2025.23 L1935.57 2025.97 L1939.66 2026.59 L1943.87 2027.21 L1947.95 2027.83 L1952.03 2028.45 L1956.12 2029.07 L1960.32 2029.69 L1964.41 2030.31 L1968.49 2030.80 L1972.70 2031.42 L1976.78 2032.04 L1980.87 2032.53 L1984.95 2033.15 L1989.16 2033.65 L1993.24 2034.27 L1997.33 2034.76 L2001.53 2035.38 L2005.62 2035.87 L2009.70 2036.37 L2013.78 2036.86 L2017.99 2037.36 L2022.08 2037.85 L2026.16 2038.47 L2030.24 2038.97 L2034.45 2039.34 L2038.53 2039.83 L2042.62 2040.33 L2046.83 2040.83 L2050.91 2041.32 L2054.99 2041.82 L2059.08 2042.19 L2063.28 2042.68 L2067.37 2043.05 L2071.45 2043.55 L2075.66 2044.04 L2079.74 2044.41 L2083.83 2044.91 L2087.91 2045.28 L2092.12 2045.65 L2096.20 2046.15 L2100.28 2046.52 L2104.49 2046.89 L2108.58 2047.38 L2112.66 2047.76 L2116.74 2048.13 L2120.95 2048.50 L2125.03 2048.87 L2129.12 2049.24 L2133.33 2049.61 L2137.41 2049.98 L2141.49 2050.35 L2145.58 2050.73 L2149.78 2051.10 L2153.87 2051.47 L2157.95 2051.84 L2162.16 2052.21 L2166.24 2052.58 L2170.33 2052.95 L2174.41 2053.20 L2178.62 2053.57 L2182.70 2053.94 L2186.79 2054.31 L2190.99 2054.56 L2195.08 2054.93 L2199.16 2055.18 L2203.24 2055.55 L2207.45 2055.92 L2211.54 2056.17 L2215.62 2056.54 L2219.83 2056.79 L2223.91 2057.16 L2227.99 2057.41 L2232.08 2057.78 L2236.29 2058.03 L2240.37 2058.27 L2244.45 2058.65 L2248.66 2058.89 L2252.74 2059.14 L2256.83 2059.51 L2260.91 2059.76 L2265.12 2060.01 L2269.20 2060.38 L2273.29 2060.63 L2277.49 2060.87 L2281.58 2061.12 L2285.66 2061.37 L2289.75 2061.74 L2293.95 2061.99 L2298.04 2062.23 L2302.12 2062.48 L2306.33 2062.73 L2310.41 2062.98 L2314.50 2063.22 L2318.58 2063.47 L2322.79 2063.72 L2326.87 2063.97 L2330.95 2064.21 L2335.16 2064.46 L2339.25 2064.71 L2343.33 2064.96 L2347.41 2065.20 L2351.62 2065.45 L2355.70 2065.70 L2359.79 2065.95 L2364.00 2066.19 L2368.08 2066.44 L2372.16 2066.57 L2376.25 2066.81 L2380.45 2067.06 L2384.54 2067.31 L2388.62 2067.56 L2392.71 2067.68 L2396.91 2067.93 L2401.00 2068.17 L2405.08 2068.42 L2409.29 2068.55 L2413.37 2068.79 L2417.46 2069.04 L2421.54 2069.16 L2425.75 2069.41 L2429.83 2069.66 L2433.91 2069.78 L2438.12 2070.03 L2442.21 2070.28 L2446.29 2070.40 L2450.37 2070.65 L2454.58 2070.77 L2458.66 2071.02 L2462.75 2071.27 L2466.96 2071.39 L2471.04 2071.64 L2475.12 2071.76 L2479.21 2072.01 L2483.41 2072.13 L2487.50 2072.38 L2491.58 2072.51 L2495.79 2072.75 L2499.87 2072.88 L2503.96 2073.12 L2508.04 2073.25 L2512.25 2073.37 L2516.33 2073.62 L2520.42 2073.74 L2524.62 2073.99 L2528.71 2074.11 L2532.79 2074.36 L2536.88 2074.49 L2541.08 2074.61 L2545.17 2074.86 L2549.25 2074.98 L2553.46 2075.10 L2557.54 2075.35 L2561.63 2075.48 L2565.71 2075.60 L2569.92 2075.85 L2574.00 2075.97 L2578.08 2076.09 L2582.29 2076.34 L2586.38 2076.47 L2590.46 2076.59 L2594.54 2076.71 L2598.75 2076.96 L2602.83 2077.08 L2606.92 2077.21 L2611.13 2077.33 L2615.21 2077.58 L2619.29 2077.70 L2623.38 2077.83 L2627.58 2077.95 L2631.67 2078.07 L2635.75 2078.32 L2639.96 2078.45 L2644.04 2078.57 L2648.13 2078.69 L2652.21 2078.82 L2656.42 2078.94 L2660.50 2079.06 L2664.59 2079.31 L2668.79 2079.44 L2672.88 2079.56 L2676.96 2079.68 L2681.04 2079.81 L2685.25 2079.93 L2689.34 2080.06 L2693.42 2080.18 L2697.63 2080.30 L2701.71 2080.55 L2705.79 2080.67 L2709.88 2080.80 L2714.09 2080.92 L2718.17 2081.05 L2722.25 2081.17 L2726.34 2081.29 L2730.54 2081.42 L2734.63 2081.54 L2738.71 2081.66 L2742.92 2081.79 L2747.00 2081.91 L2751.09 2082.04 L2755.17 2082.16 L2759.38 2082.28 L2763.46 2082.41 L2767.55 2082.53 L2771.75 2082.65 L2775.84 2082.78 L2779.92 2082.90 L2784.00 2083.03 L2788.21 2083.15 L2792.30 2083.27 L2796.38 2083.40 L2800.59 2083.52 L2804.67 2083.52 L2808.75 2083.64 L2812.84 2083.77 L2817.05 2083.89 L2821.13 2084.02 L2825.21 2084.14 L2829.42 2084.26 L2833.50 2084.39 L2837.59 2084.51 L2841.67 2084.63 L2845.88 2084.76 L2849.96 2084.76 L2854.05 2084.88 L2858.25 2085.01 L2862.34 2085.13 L2866.42 2085.25 L2870.51 2085.38 L2874.71 2085.50 L2878.80 2085.50 L2882.88 2085.62 L2887.09 2085.75 L2891.17 2085.87 L2895.26 2086.00 L2899.34 2086.12 L2903.55 2086.12 L2907.63 2086.24 L2911.71 2086.37 L2915.92 2086.49 L2920.01 2086.61 L2924.09 2086.61 L2928.17 2086.74 L2932.38 2086.86 L2936.46 2086.99 L2940.55 2087.11 L2944.76 2087.11 L2948.84 2087.23 L2952.92 2087.36 L2957.01 2087.48 L2961.21 2087.48 L2965.30 2087.60 L2969.38 2087.73 L2973.59 2087.85 L2977.67 2087.85 L2981.76 2087.98 L2985.84 2088.10 L2990.05 2088.22 L2994.13 2088.22 L2998.22 2088.35 L3002.42 2088.47 L3006.51 2088.59 L3010.59 2088.59 L3014.67 2088.72 L3018.88 2088.84 L3022.97 2088.84 L3027.05 2088.97 L3031.26 2089.09 L3035.34 2089.21 L3039.42 2089.21 L3043.51 2089.34 L3047.72 2089.46 L3051.80 2089.46 L3055.88 2089.58 L3060.09 2089.71 L3064.17 2089.71 L3068.26 2089.83 L3072.34 2089.96 L3076.55 2089.96 L3080.63 2090.08 L3084.72 2090.20 L3088.80 2090.20 L3093.01 2090.33 L3097.09 2090.45 L3101.18 2090.45 L3105.38 2090.57 L3109.47 2090.70" stroke-linejoin="round" style="fill:none;stroke:#006000;stroke-width:8.64"/>
	<circle cx="1552.57" cy="1874.00" r="26.35" style="fill:#FF4500"/>
	<circle cx="1552.57" cy="1874.00" r="22.03" style="fill:none;stroke:#FF4500;stroke-width:8.64"/>
	<text x="1623.60" y="1833.04" style="font-family:'Helvetica';font-size:79.94px;fill:#FF4500">E-value: (1.89, 1.89)</text>
	<line x1="1122.66" y1="2307.64" x2="1122.66" y2="100.86" style="stroke:#000000;stroke-width:5.76"/>
	<line x1="1122.66" y1="2244.28" x2="1082.69" y2="2244.28" style="stroke:#000000;stroke-width:5.76"/>
	<text x="1032.58" y="2244.28" style="font-family:'Helvetica';font-size:99.99px;fill:#000000" transform="rotate(-90 1032.58,2244.28)" text-anchor="middle">1</text>
	<line x1="1122.66" y1="1828.22" x2="1082.69" y2="1828.22" style="stroke:#000000;stroke-width:5.76"/>
	<text x="1032.58" y="1828.22" style="font-family:'Helvetica';font-size:99.99px;fill:#000000" transform="rotate(-90 1032.58,1828.22)" text-anchor="middle">2</text>
	<line x1="1122.66" y1="1412.28" x2="1082.69" y2="1412.28" style="stroke:#000000;stroke-width:5.76"/>
	<text x="1032.58" y="1412.28" style="font-family:'Helvetica';font-size:99.99px;fill:#000000" transform="rotate(-90 1032.58,1412.28)" text-anchor="middle">3</text>
	<line x1="1122.66" y1="996.22" x2="1082.69" y2="996.22" style="stroke:#000000;stroke-width:5.76"/>
	<text x="1032.58" y="996.22" style="font-family:'Helvetica';font-size:99.99px;fill:#000000" transform="rotate(-90 1032.58,996.22)" text-anchor="middle">4</text>
	<line x1="1122.66" y1="580.16" x2="1082.69" y2="580.16" style="stroke:#000000;stroke-width:5.76"/>
	<text x="1032.58" y="580.16" style="font-family:'Helvetica';font-size:99.99px;fill:#000000" transform="rotate(-90 1032.58,580.16)" text-anchor="middle">5</text>
	<line x1="1122.66" y1="164.22" x2="1082.69" y2="164.22" style="stroke:#000000;stroke-width:5.76"/>
	<text x="1032.58" y="164.22" style="font-family:'Helvetica';font-size:99.99px;fill:#000000" transform="rotate(-90 1032.58,164.22)" text-anchor="middle">6</text>
	<text x="827.85" y="1204.25" style="font-family:'Helvetica';font-size:79.94px;fill:#000000" transform="rotate(-90 827.85,1204.25)" text-anchor="middle">Risk ratio for confounder-outcome relationship</text>
	<line x1="1122.66" y1="2307.64" x2="3308.83" y2="2307.64" style="stroke:#000000;stroke-width:5.76"/>
	<line x1="1186.02" y1="2307.64" x2="1186.02" y2="2347.61" style="stroke:#000000;stroke-width:5.76"/>
	<text x="1186.02" y="2437.59" style="font-family:'Helvetica';font-size:99.99px;fill:#000000" text-anchor="middle">1</text>
	<line x1="1597.86" y1="2307.64" x2="1597.86" y2="2347.61" style="stroke:#000000;stroke-width:5.76"/>
	<text x="1597.86" y="2437.59" style="font-family:'Helvetica';font-size:99.99px;fill:#000000" text-anchor="middle">2</text>
	<line x1="2009.82" y1="2307.64" x2="2009.82" y2="2347.61" style="stroke:#000000;stroke-width:5.76"/>
	<text x="2009.82" y="2437.59" style="font-family:'Helvetica';font-size:99.99px;fill:#000000" text-anchor="middle">3</text>
	<line x1="2421.66" y1="2307.64" x2="2421.66" y2="2347.61" style="stroke:#000000;stroke-width:5.76"/>
	<text x="2421.66" y="2437.59" style="font-family:'Helvetica';font-size:99.99px;fill:#000000" text-anchor="middle">4</text>
	<line x1="2833.50" y1="2307.64" x2="2833.50" y2="2347.61" style="stroke:#000000;stroke-width:5.76"/>
	<text x="2833.50" y="2437.59" style="font-family:'Helvetica';font-size:99.99px;fill:#000000" text-anchor="middle">5</text>
	<line x1="3245.47" y1="2307.64" x2="3245.47" y2="2347.61" style="stroke:#000000;stroke-width:5.76"/>
	<text x="3245.47" y="2437.59" style="font-family:'Helvetica';font-size:99.99px;fill:#000000" text-anchor="middle">6</text>
	<text x="2215.74" y="2634.31" style="font-family:'Helvetica';font-size:79.94px;fill:#000000" text-anchor="middle">Risk ratio for exposure-confounder relationship</text>
</svg>
