<?xml version="1.0" encoding="UTF-8" standalone="no"?>
<!-- This is a Stata 16.1 generated SVG file (http://www.stata.com) -->

<svg version="1.1" width="5.50in" height="4.00in" viewBox="0 0 3960 2880" xmlns="http://www.w3.org/2000/svg" xmlns:xlink="http://www.w3.org/1999/xlink">
	<desc>Stata Graph - Graph</desc>
	<rect x="0" y="0" width="3960" height="2880" style="fill:#FFFFFF;stroke:none"/>
	<rect x="0.00" y="0.00" width="3959.88" height="2880.00" style="fill:#FFFFFF"/>
	<rect x="2.88" y="2.88" width="3954.12" height="2874.24" style="fill:none;stroke:#FFFFFF;stroke-width:5.76"/>
	<rect x="1125.54" y="103.74" width="2180.41" height="2201.02" style="fill:none;stroke:#000000;stroke-width:5.76"/>
	<path d=" M1350.73 265.82 L1354.82 448.98 L1358.90 599.22 L1362.98 724.58 L1367.19 830.76 L1371.27 921.97 L1375.36 1001.05 L1379.57 1070.22 L1383.65 1131.48 L1387.73 1185.81 L1391.82 1234.57 L1396.02 1278.38 L1400.11 1318.10 L1404.19 1354.11 L1408.40 1387.16 L1412.48 1417.35 L1416.57 1445.20 L1420.65 1470.94 L1424.86 1494.70 L1428.94 1516.85 L1433.03 1537.39 L1437.23 1556.58 L1441.32 1574.52 L1445.40 1591.47 L1449.48 1607.32 L1453.69 1622.17 L1457.78 1636.27 L1461.86 1649.52 L1466.07 1662.14 L1470.15 1674.02 L1474.23 1685.28 L1478.32 1696.05 L1482.53 1706.32 L1486.61 1715.97 L1490.69 1725.25 L1494.90 1734.16 L1498.98 1742.58 L1503.07 1750.62 L1507.15 1758.42 L1511.36 1765.84 L1515.44 1773.02 L1519.53 1779.83 L1523.73 1786.39 L1527.82 1792.70 L1531.90 1798.76 L1535.98 1804.70 L1540.19 1810.27 L1544.28 1815.72 L1548.36 1821.04 L1552.57 1826.11 L1556.65 1830.94 L1560.73 1835.76 L1564.82 1840.34 L1569.03 1844.80 L1573.11 1849.01 L1577.19 1853.21 L1581.40 1857.30 L1585.48 1861.13 L1589.57 1864.97 L1593.65 1868.68 L1597.86 1872.15 L1601.94 1875.74 L1606.03 1879.08 L1610.23 1882.30 L1614.32 1885.51 L1618.40 1888.61 L1622.49 1891.70 L1626.69 1894.67 L1630.78 1897.52 L1634.86 1900.24 L1639.07 1902.96 L1643.15 1905.69 L1647.24 1908.28 L1651.32 1910.76 L1655.53 1913.23 L1659.61 1915.71 L1663.69 1918.06 L1667.90 1920.29 L1671.99 1922.52 L1676.07 1924.74 L1680.15 1926.85 L1684.36 1928.95 L1688.44 1931.06 L1692.53 1933.04 L1696.61 1935.02 L1700.82 1936.87 L1704.90 1938.85 L1708.99 1940.58 L1713.19 1942.44 L1717.28 1944.17 L1721.36 1945.91 L1725.45 1947.64 L1729.65 1949.25 L1733.74 1950.98 L1737.82 1952.59 L1742.03 1954.07 L1746.11 1955.68 L1750.20 1957.17 L1754.28 1958.65 L1758.49 1960.14 L1762.57 1961.50 L1766.65 1962.86 L1770.86 1964.35 L1774.95 1965.58 L1779.03 1966.94 L1783.11 1968.31 L1787.32 1969.54 L1791.40 1970.78 L1795.49 1972.02 L1799.70 1973.26 L1803.78 1974.49 L1807.86 1975.61 L1811.95 1976.84 L1816.15 1977.96 L1820.24 1979.07 L1824.32 1980.19 L1828.53 1981.18 L1832.61 1982.29 L1836.70 1983.40 L1840.78 1984.39 L1844.99 1985.38 L1849.07 1986.37 L1853.16 1987.36 L1857.36 1988.35 L1861.45 1989.34 L1865.53 1990.21 L1869.62 1991.20 L1873.82 1992.07 L1877.91 1993.06 L1881.99 1993.92 L1886.20 1994.79 L1890.28 1995.65 L1894.37 1996.52 L1898.45 1997.39 L1902.66 1998.13 L1906.74 1999.00 L1910.82 1999.74 L1915.03 2000.61 L1919.12 2001.35 L1923.20 2002.09 L1927.28 2002.83 L1931.49 2003.70 L1935.57 2004.44 L1939.66 2005.06 L1943.87 2005.80 L1947.95 2006.55 L1952.03 2007.29 L1956.12 2007.91 L1960.32 2008.65 L1964.41 2009.27 L1968.49 2010.01 L1972.70 2010.63 L1976.78 2011.25 L1980.87 2011.99 L1984.95 2012.61 L1989.16 2013.23 L1993.24 2013.85 L1997.33 2014.47 L2001.53 2015.08 L2005.62 2015.70 L2009.70 2016.20 L2013.78 2016.82 L2017.99 2017.44 L2022.08 2017.93 L2026.16 2018.55 L2030.24 2019.04 L2034.45 2019.66 L2038.53 2020.16 L2042.62 2020.78 L2046.83 2021.27 L2050.91 2021.77 L2054.99 2022.26 L2059.08 2022.88 L2063.28 2023.38 L2067.37 2023.87 L2071.45 2024.37 L2075.66 2024.86 L2079.74 2025.36 L2083.83 2025.85 L2087.91 2026.35 L2092.12 2026.72 L2096.20 2027.21 L2100.28 2027.71 L2104.49 2028.20 L2108.58 2028.57 L2112.66 2029.07 L2116.74 2029.56 L2120.95 2029.93 L2125.03 2030.43 L2129.12 2030.80 L2133.33 2031.30 L2137.41 2031.67 L2141.49 2032.04 L2145.58 2032.53 L2149.78 2032.90 L2153.87 2033.28 L2157.95 2033.77 L2162.16 2034.14 L2166.24 2034.51 L2170.33 2034.88 L2174.41 2035.26 L2178.62 2035.63 L2182.70 2036.00 L2186.79 2036.37 L2190.99 2036.74 L2195.08 2037.11 L2199.16 2037.48 L2203.24 2037.85 L2207.45 2038.23 L2211.54 2038.60 L2215.62 2038.97 L2219.83 2039.34 L2223.91 2039.71 L2227.99 2039.96 L2232.08 2040.33 L2236.29 2040.70 L2240.37 2040.95 L2244.45 2041.32 L2248.66 2041.69 L2252.74 2041.94 L2256.83 2042.31 L2260.91 2042.68 L2265.12 2042.93 L2269.20 2043.30 L2273.29 2043.55 L2277.49 2043.92 L2281.58 2044.17 L2285.66 2044.54 L2289.75 2044.79 L2293.95 2045.03 L2298.04 2045.40 L2302.12 2045.65 L2306.33 2046.02 L2310.41 2046.27 L2314.50 2046.52 L2318.58 2046.77 L2322.79 2047.14 L2326.87 2047.38 L2330.95 2047.63 L2335.16 2047.88 L2339.25 2048.25 L2343.33 2048.50 L2347.41 2048.75 L2351.62 2048.99 L2355.70 2049.24 L2359.79 2049.49 L2364.00 2049.74 L2368.08 2050.11 L2372.16 2050.35 L2376.25 2050.60 L2380.45 2050.85 L2384.54 2051.10 L2388.62 2051.34 L2392.71 2051.59 L2396.91 2051.84 L2401.00 2052.09 L2405.08 2052.33 L2409.29 2052.58 L2413.37 2052.71 L2417.46 2052.95 L2421.54 2053.20 L2425.75 2053.45 L2429.83 2053.70 L2433.91 2053.94 L2438.12 2054.19 L2442.21 2054.31 L2446.29 2054.56 L2450.37 2054.81 L2454.58 2055.06 L2458.66 2055.30 L2462.75 2055.43 L2466.96 2055.68 L2471.04 2055.92 L2475.12 2056.17 L2479.21 2056.29 L2483.41 2056.54 L2487.50 2056.79 L2491.58 2056.91 L2495.79 2057.16 L2499.87 2057.41 L2503.96 2057.53 L2508.04 2057.78 L2512.25 2057.90 L2516.33 2058.15 L2520.42 2058.40 L2524.62 2058.52 L2528.71 2058.77 L2532.79 2058.89 L2536.88 2059.14 L2541.08 2059.26 L2545.17 2059.51 L2549.25 2059.64 L2553.46 2059.88 L2557.54 2060.01 L2561.63 2060.25 L2565.71 2060.38 L2569.92 2060.63 L2574.00 2060.75 L2578.08 2061.00 L2582.29 2061.12 L2586.38 2061.37 L2590.46 2061.49 L2594.54 2061.62 L2598.75 2061.86 L2602.83 2061.99 L2606.92 2062.23 L2611.13 2062.36 L2615.21 2062.48 L2619.29 2062.73 L2623.38 2062.85 L2627.58 2062.98 L2631.67 2063.22 L2635.75 2063.35 L2639.96 2063.47 L2644.04 2063.72 L2648.13 2063.84 L2652.21 2063.97 L2656.42 2064.21 L2660.50 2064.34 L2664.59 2064.46 L2668.79 2064.59 L2672.88 2064.83 L2676.96 2064.96 L2681.04 2065.08 L2685.25 2065.20 L2689.34 2065.45 L2693.42 2065.58 L2697.63 2065.70 L2701.71 2065.82 L2705.79 2065.95 L2709.88 2066.19 L2714.09 2066.32 L2718.17 2066.44 L2722.25 2066.57 L2726.34 2066.69 L2730.54 2066.81 L2734.63 2067.06 L2738.71 2067.18 L2742.92 2067.31 L2747.00 2067.43 L2751.09 2067.56 L2755.17 2067.68 L2759.38 2067.80 L2763.46 2067.93 L2767.55 2068.05 L2771.75 2068.30 L2775.84 2068.42 L2779.92 2068.55 L2784.00 2068.67 L2788.21 2068.79 L2792.30 2068.92 L2796.38 2069.04 L2800.59 2069.16 L2804.67 2069.29 L2808.75 2069.41 L2812.84 2069.54 L2817.05 2069.66 L2821.13 2069.78 L2825.21 2069.91 L2829.42 2070.03 L2833.50 2070.15 L2837.59 2070.28 L2841.67 2070.40 L2845.88 2070.53 L2849.96 2070.65 L2854.05 2070.77 L2858.25 2070.90 L2862.34 2071.02 L2866.42 2071.14 L2870.51 2071.27 L2874.71 2071.39 L2878.80 2071.52 L2882.88 2071.64 L2887.09 2071.76 L2891.17 2071.89 L2895.26 2072.01 L2899.34 2072.01 L2903.55 2072.13 L2907.63 2072.26 L2911.71 2072.38 L2915.92 2072.51 L2920.01 2072.63 L2924.09 2072.75 L2928.17 2072.88 L2932.38 2073.00 L2936.46 2073.12 L2940.55 2073.12 L2944.76 2073.25 L2948.84 2073.37 L2952.92 2073.50 L2957.01 2073.62 L2961.21 2073.74 L2965.30 2073.87 L2969.38 2073.87 L2973.59 2073.99 L2977.67 2074.11 L2981.76 2074.24 L2985.84 2074.36 L2990.05 2074.49 L2994.13 2074.49 L2998.22 2074.61 L3002.42 2074.73 L3006.51 2074.86 L3010.59 2074.98 L3014.67 2074.98 L3018.88 2075.10 L3022.97 2075.23 L3027.05 2075.35 L3031.26 2075.48 L3035.34 2075.48 L3039.42 2075.60 L3043.51 2075.72 L3047.72 2075.85 L3051.80 2075.85 L3055.88 2075.97 L3060.09 2076.09 L3064.17 2076.22 L3068.26 2076.22 L3072.34 2076.34 L3076.55 2076.47 L3080.63 2076.59 L3084.72 2076.59 L3088.80 2076.71 L3093.01 2076.84 L3097.09 2076.96 L3101.18 2076.96 L3105.38 2077.08 L3109.47 2077.21 L3113.55 2077.21 L3117.63 2077.33 L3121.84 2077.46 L3125.93 2077.58 L3130.01 2077.58 L3134.22 2077.70 L3138.30 2077.83 L3142.38 2077.83 L3146.47 2077.95 L3150.68 2078.07 L3154.76 2078.07 L3158.84 2078.20 L3163.05 2078.32 L3167.13 2078.32 L3171.22 2078.45 L3175.30 2078.57 L3179.51 2078.57 L3183.59 2078.69" stroke-linejoin="round" style="fill:none;stroke:#006000;stroke-width:8.64"/>
	<path d=" M1198.27 1654.09 L1202.36 1911.87 L1206.56 2011.50 L1210.65 2064.46 L1214.73 2097.26 L1218.94 2119.66 L1223.02 2135.74 L1227.11 2148.00 L1231.19 2157.65 L1235.40 2165.45 L1239.48 2171.76 L1243.56 2177.08 L1247.77 2181.66 L1251.86 2185.49 L1255.94 2188.83 L1260.02 2191.80 L1264.23 2194.53 L1268.31 2196.75 L1272.40 2198.86 L1276.61 2200.84 L1280.69 2202.45 L1284.77 2204.06 L1288.86 2205.42 L1293.06 2206.78 L1297.15 2208.02 L1301.23 2209.13 L1305.44 2210.12 L1309.52 2211.11 L1313.61 2211.98 L1317.69 2212.84 L1321.90 2213.59 L1325.98 2214.33 L1330.07 2214.95 L1334.15 2215.57 L1338.36 2216.18 L1342.44 2216.80 L1346.52 2217.30 L1350.73 2217.92 L1354.82 2218.41 L1358.90 2218.78 L1362.98 2219.28 L1367.19 2219.65 L1371.27 2220.14 L1375.36 2220.52 L1379.57 2220.89 L1383.65 2221.26 L1387.73 2221.51 L1391.82 2221.88 L1396.02 2222.12 L1400.11 2222.50 L1404.19 2222.74 L1408.40 2222.99 L1412.48 2223.24 L1416.57 2223.49 L1420.65 2223.73 L1424.86 2223.98 L1428.94 2224.23 L1433.03 2224.48 L1437.23 2224.72 L1441.32 2224.85 L1445.40 2225.09 L1449.48 2225.34 L1453.69 2225.47 L1457.78 2225.59 L1461.86 2225.84 L1466.07 2225.96 L1470.15 2226.21 L1474.23 2226.33 L1478.32 2226.46 L1482.53 2226.58 L1486.61 2226.83 L1490.69 2226.95 L1494.90 2227.07 L1498.98 2227.20 L1503.07 2227.32 L1507.15 2227.45 L1511.36 2227.57 L1515.44 2227.69 L1519.53 2227.82 L1523.73 2227.94 L1527.82 2228.06 L1531.90 2228.19 L1535.98 2228.31 L1540.19 2228.31 L1544.28 2228.44 L1548.36 2228.56 L1552.57 2228.68 L1556.65 2228.81 L1560.73 2228.81 L1564.82 2228.93 L1569.03 2229.05 L1573.11 2229.18 L1577.19 2229.18 L1581.40 2229.30 L1585.48 2229.43 L1589.57 2229.43 L1593.65 2229.55 L1597.86 2229.67 L1601.94 2229.67 L1606.03 2229.80 L1610.23 2229.80 L1614.32 2229.92 L1618.40 2229.92 L1622.49 2230.04 L1626.69 2230.17 L1630.78 2230.17 L1634.86 2230.29 L1639.07 2230.29 L1643.15 2230.42 L1647.24 2230.42 L1651.32 2230.54 L1655.53 2230.54 L1659.61 2230.66 L1663.69 2230.66 L1667.90 2230.66 L1671.99 2230.79 L1676.07 2230.79 L1680.15 2230.91 L1684.36 2230.91 L1688.44 2231.03 L1692.53 2231.03 L1696.61 2231.03 L1700.82 2231.16 L1704.90 2231.16 L1708.99 2231.28 L1713.19 2231.28 L1717.28 2231.28 L1721.36 2231.41 L1725.45 2231.41 L1729.65 2231.41 L1733.74 2231.53 L1737.82 2231.53 L1742.03 2231.53 L1746.11 2231.65 L1750.20 2231.65 L1754.28 2231.65 L1758.49 2231.78 L1762.57 2231.78 L1766.65 2231.78 L1770.86 2231.90 L1774.95 2231.90 L1779.03 2231.90 L1783.11 2232.02 L1787.32 2232.02 L1791.40 2232.02 L1795.49 2232.02 L1799.70 2232.15 L1803.78 2232.15 L1807.86 2232.15 L1811.95 2232.15 L1816.15 2232.27 L1820.24 2232.27 L1824.32 2232.27 L1828.53 2232.27 L1832.61 2232.40 L1836.70 2232.40 L1840.78 2232.40 L1844.99 2232.40 L1849.07 2232.52 L1853.16 2232.52 L1857.36 2232.52 L1861.45 2232.52 L1865.53 2232.64 L1869.62 2232.64 L1873.82 2232.64 L1877.91 2232.64 L1881.99 2232.64 L1886.20 2232.77 L1890.28 2232.77 L1894.37 2232.77 L1898.45 2232.77 L1902.66 2232.77 L1906.74 2232.89 L1910.82 2232.89 L1915.03 2232.89 L1919.12 2232.89 L1923.20 2232.89 L1927.28 2233.01 L1931.49 2233.01 L1935.57 2233.01 L1939.66 2233.01 L1943.87 2233.01 L1947.95 2233.14 L1952.03 2233.14 L1956.12 2233.14 L1960.32 2233.14 L1964.41 2233.14 L1968.49 2233.14 L1972.70 2233.26 L1976.78 2233.26 L1980.87 2233.26 L1984.95 2233.26 L1989.16 2233.26 L1993.24 2233.26 L1997.33 2233.39 L2001.53 2233.39 L2005.62 2233.39 L2009.70 2233.39 L2013.78 2233.39 L2017.99 2233.39 L2022.08 2233.39 L2026.16 2233.51 L2030.24 2233.51 L2034.45 2233.51 L2038.53 2233.51 L2042.62 2233.51 L2046.83 2233.51 L2050.91 2233.51 L2054.99 2233.63 L2059.08 2233.63 L2063.28 2233.63 L2067.37 2233.63 L2071.45 2233.63 L2075.66 2233.63 L2079.74 2233.63 L2083.83 2233.76 L2087.91 2233.76 L2092.12 2233.76 L2096.20 2233.76 L2100.28 2233.76 L2104.49 2233.76 L2108.58 2233.76 L2112.66 2233.76 L2116.74 2233.76 L2120.95 2233.88 L2125.03 2233.88 L2129.12 2233.88 L2133.33 2233.88 L2137.41 2233.88 L2141.49 2233.88 L2145.58 2233.88 L2149.78 2233.88 L2153.87 2234.00 L2157.95 2234.00 L2162.16 2234.00 L2166.24 2234.00 L2170.33 2234.00 L2174.41 2234.00 L2178.62 2234.00 L2182.70 2234.00 L2186.79 2234.00 L2190.99 2234.00 L2195.08 2234.13 L2199.16 2234.13 L2203.24 2234.13 L2207.45 2234.13 L2211.54 2234.13 L2215.62 2234.13 L2219.83 2234.13 L2223.91 2234.13 L2227.99 2234.13 L2232.08 2234.13 L2236.29 2234.25 L2240.37 2234.25 L2244.45 2234.25 L2248.66 2234.25 L2252.74 2234.25 L2256.83 2234.25 L2260.91 2234.25 L2265.12 2234.25 L2269.20 2234.25 L2273.29 2234.25 L2277.49 2234.25 L2281.58 2234.38 L2285.66 2234.38 L2289.75 2234.38 L2293.95 2234.38 L2298.04 2234.38 L2302.12 2234.38 L2306.33 2234.38 L2310.41 2234.38 L2314.50 2234.38 L2318.58 2234.38 L2322.79 2234.38 L2326.87 2234.38 L2330.95 2234.38 L2335.16 2234.50 L2339.25 2234.50 L2343.33 2234.50 L2347.41 2234.50 L2351.62 2234.50 L2355.70 2234.50 L2359.79 2234.50 L2364.00 2234.50 L2368.08 2234.50 L2372.16 2234.50 L2376.25 2234.50 L2380.45 2234.50 L2384.54 2234.50 L2388.62 2234.62 L2392.71 2234.62 L2396.91 2234.62 L2401.00 2234.62 L2405.08 2234.62 L2409.29 2234.62 L2413.37 2234.62 L2417.46 2234.62 L2421.54 2234.62 L2425.75 2234.62 L2429.83 2234.62 L2433.91 2234.62 L2438.12 2234.62 L2442.21 2234.62 L2446.29 2234.62 L2450.37 2234.75 L2454.58 2234.75 L2458.66 2234.75 L2462.75 2234.75 L2466.96 2234.75 L2471.04 2234.75 L2475.12 2234.75 L2479.21 2234.75 L2483.41 2234.75 L2487.50 2234.75 L2491.58 2234.75 L2495.79 2234.75 L2499.87 2234.75 L2503.96 2234.75 L2508.04 2234.75 L2512.25 2234.75 L2516.33 2234.87 L2520.42 2234.87 L2524.62 2234.87 L2528.71 2234.87 L2532.79 2234.87 L2536.88 2234.87 L2541.08 2234.87 L2545.17 2234.87 L2549.25 2234.87 L2553.46 2234.87 L2557.54 2234.87 L2561.63 2234.87 L2565.71 2234.87 L2569.92 2234.87 L2574.00 2234.87 L2578.08 2234.87 L2582.29 2234.87 L2586.38 2234.87 L2590.46 2234.87 L2594.54 2234.99 L2598.75 2234.99 L2602.83 2234.99 L2606.92 2234.99 L2611.13 2234.99 L2615.21 2234.99 L2619.29 2234.99 L2623.38 2234.99 L2627.58 2234.99 L2631.67 2234.99 L2635.75 2234.99 L2639.96 2234.99 L2644.04 2234.99 L2648.13 2234.99 L2652.21 2234.99 L2656.42 2234.99 L2660.50 2234.99 L2664.59 2234.99 L2668.79 2234.99 L2672.88 2234.99 L2676.96 2235.12 L2681.04 2235.12 L2685.25 2235.12 L2689.34 2235.12 L2693.42 2235.12 L2697.63 2235.12 L2701.71 2235.12 L2705.79 2235.12 L2709.88 2235.12 L2714.09 2235.12 L2718.17 2235.12 L2722.25 2235.12 L2726.34 2235.12 L2730.54 2235.12 L2734.63 2235.12 L2738.71 2235.12 L2742.92 2235.12 L2747.00 2235.12 L2751.09 2235.12 L2755.17 2235.12 L2759.38 2235.12 L2763.46 2235.12 L2767.55 2235.12 L2771.75 2235.12 L2775.84 2235.24 L2779.92 2235.24 L2784.00 2235.24 L2788.21 2235.24 L2792.30 2235.24 L2796.38 2235.24 L2800.59 2235.24 L2804.67 2235.24 L2808.75 2235.24 L2812.84 2235.24 L2817.05 2235.24 L2821.13 2235.24 L2825.21 2235.24 L2829.42 2235.24 L2833.50 2235.24 L2837.59 2235.24 L2841.67 2235.24 L2845.88 2235.24 L2849.96 2235.24 L2854.05 2235.24 L2858.25 2235.24 L2862.34 2235.24 L2866.42 2235.24 L2870.51 2235.24 L2874.71 2235.24 L2878.80 2235.24 L2882.88 2235.37 L2887.09 2235.37 L2891.17 2235.37 L2895.26 2235.37 L2899.34 2235.37 L2903.55 2235.37 L2907.63 2235.37 L2911.71 2235.37 L2915.92 2235.37 L2920.01 2235.37 L2924.09 2235.37 L2928.17 2235.37 L2932.38 2235.37 L2936.46 2235.37 L2940.55 2235.37 L2944.76 2235.37 L2948.84 2235.37 L2952.92 2235.37 L2957.01 2235.37 L2961.21 2235.37 L2965.30 2235.37 L2969.38 2235.37 L2973.59 2235.37 L2977.67 2235.37 L2981.76 2235.37 L2985.84 2235.37 L2990.05 2235.37 L2994.13 2235.37 L2998.22 2235.37 L3002.42 2235.37 L3006.51 2235.49 L3010.59 2235.49 L3014.67 2235.49 L3018.88 2235.49 L3022.97 2235.49 L3027.05 2235.49 L3031.26 2235.49 L3035.34 2235.49 L3039.42 2235.49 L3043.51 2235.49 L3047.72 2235.49 L3051.80 2235.49 L3055.88 2235.49 L3060.09 2235.49 L3064.17 2235.49 L3068.26 2235.49 L3072.34 2235.49 L3076.55 2235.49 L3080.63 2235.49 L3084.72 2235.49 L3088.80 2235.49 L3093.01 2235.49 L3097.09 2235.49 L3101.18 2235.49 L3105.38 2235.49 L3109.47 2235.49 L3113.55 2235.49 L3117.63 2235.49 L3121.84 2235.49 L3125.93 2235.49 L3130.01 2235.49 L3134.22 2235.49 L3138.30 2235.49 L3142.38 2235.49 L3146.47 2235.49 L3150.68 2235.49 L3154.76 2235.61 L3158.84 2235.61 L3163.05 2235.61 L3167.13 2235.61 L3171.22 2235.61 L3175.30 2235.61 L3179.51 2235.61 L3183.59 2235.61" stroke-linejoin="round" style="fill:none;stroke:#FF4500;stroke-width:8.64"/>
	<circle cx="1247.77" cy="2181.90" r="26.35" style="fill:#1A476F"/>
	<circle cx="1247.77" cy="2181.90" r="22.03" style="fill:none;stroke:#1A476F;stroke-width:8.64"/>
	<text x="1318.80" y="2140.94" style="font-family:'Helvetica';font-size:79.94px;fill:#1A476f">E-value (CI): (1.15, 1.15)</text>
	<circle cx="1577.32" cy="1849.01" r="26.35" style="fill:#90353B"/>
	<circle cx="1577.32" cy="1849.01" r="22.03" style="fill:none;stroke:#90353B;stroke-width:8.64"/>
	<text x="1648.35" y="1808.04" style="font-family:'Helvetica';font-size:79.94px;fill:#90353b">E-value: (1.95, 1.95)</text>
	<line x1="1122.66" y1="2307.64" x2="1122.66" y2="100.86" style="stroke:#000000;stroke-width:5.76"/>
	<line x1="1122.66" y1="2244.28" x2="1082.69" y2="2244.28" style="stroke:#000000;stroke-width:5.76"/>
	<text x="1032.58" y="2244.28" style="font-family:'Helvetica';font-size:99.99px;fill:#000000" transform="rotate(-90 1032.58,2244.28)" text-anchor="middle">1</text>
	<line x1="1122.66" y1="1828.22" x2="1082.69" y2="1828.22" style="stroke:#000000;stroke-width:5.76"/>
	<text x="1032.58" y="1828.22" style="font-family:'Helvetica';font-size:99.99px;fill:#000000" transform="rotate(-90 1032.58,1828.22)" text-anchor="middle">2</text>
	<line x1="1122.66" y1="1412.28" x2="1082.69" y2="1412.28" style="stroke:#000000;stroke-width:5.76"/>
	<text x="1032.58" y="1412.28" style="font-family:'Helvetica';font-size:99.99px;fill:#000000" transform="rotate(-90 1032.58,1412.28)" text-anchor="middle">3</text>
	<line x1="1122.66" y1="996.22" x2="1082.69" y2="996.22" style="stroke:#000000;stroke-width:5.76"/>
	<text x="1032.58" y="996.22" style="font-family:'Helvetica';font-size:99.99px;fill:#000000" transform="rotate(-90 1032.58,996.22)" text-anchor="middle">4</text>
	<line x1="1122.66" y1="580.16" x2="1082.69" y2="580.16" style="stroke:#000000;stroke-width:5.76"/>
	<text x="1032.58" y="580.16" style="font-family:'Helvetica';font-size:99.99px;fill:#000000" transform="rotate(-90 1032.58,580.16)" text-anchor="middle">5</text>
	<line x1="1122.66" y1="164.22" x2="1082.69" y2="164.22" style="stroke:#000000;stroke-width:5.76"/>
	<text x="1032.58" y="164.22" style="font-family:'Helvetica';font-size:99.99px;fill:#000000" transform="rotate(-90 1032.58,164.22)" text-anchor="middle">6</text>
	<text x="827.85" y="1204.25" style="font-family:'Helvetica';font-size:79.94px;fill:#000000" transform="rotate(-90 827.85,1204.25)" text-anchor="middle">Risk ratio for confounder-outcome relationship</text>
	<line x1="1122.66" y1="2307.64" x2="3308.83" y2="2307.64" style="stroke:#000000;stroke-width:5.76"/>
	<line x1="1186.02" y1="2307.64" x2="1186.02" y2="2347.61" style="stroke:#000000;stroke-width:5.76"/>
	<text x="1186.02" y="2437.59" style="font-family:'Helvetica';font-size:99.99px;fill:#000000" text-anchor="middle">1</text>
	<line x1="1597.86" y1="2307.64" x2="1597.86" y2="2347.61" style="stroke:#000000;stroke-width:5.76"/>
	<text x="1597.86" y="2437.59" style="font-family:'Helvetica';font-size:99.99px;fill:#000000" text-anchor="middle">2</text>
	<line x1="2009.82" y1="2307.64" x2="2009.82" y2="2347.61" style="stroke:#000000;stroke-width:5.76"/>
	<text x="2009.82" y="2437.59" style="font-family:'Helvetica';font-size:99.99px;fill:#000000" text-anchor="middle">3</text>
	<line x1="2421.66" y1="2307.64" x2="2421.66" y2="2347.61" style="stroke:#000000;stroke-width:5.76"/>
	<text x="2421.66" y="2437.59" style="font-family:'Helvetica';font-size:99.99px;fill:#000000" text-anchor="middle">4</text>
	<line x1="2833.50" y1="2307.64" x2="2833.50" y2="2347.61" style="stroke:#000000;stroke-width:5.76"/>
	<text x="2833.50" y="2437.59" style="font-family:'Helvetica';font-size:99.99px;fill:#000000" text-anchor="middle">5</text>
	<line x1="3245.47" y1="2307.64" x2="3245.47" y2="2347.61" style="stroke:#000000;stroke-width:5.76"/>
	<text x="3245.47" y="2437.59" style="font-family:'Helvetica';font-size:99.99px;fill:#000000" text-anchor="middle">6</text>
	<text x="2215.74" y="2634.31" style="font-family:'Helvetica';font-size:79.94px;fill:#000000" text-anchor="middle">Risk ratio for exposure-confounder relationship</text>
</svg>
