<?xml version="1.0" encoding="UTF-8" standalone="no"?>
<!-- This is a Stata 16.1 generated SVG file (http://www.stata.com) -->

<svg version="1.1" width="11.02in" height="9.10in" viewBox="0 0 7932 6550" xmlns="http://www.w3.org/2000/svg" xmlns:xlink="http://www.w3.org/1999/xlink">
	<desc>Stata Graph - Graph</desc>
	<rect x="0" y="0" width="7932" height="6550" style="fill:#F0F0F0;stroke:none"/>
	<rect x="0.00" y="0.00" width="7931.75" height="6550.00" style="fill:#FFFFFF"/>
	<rect x="6.55" y="6.55" width="7918.65" height="6536.90" style="fill:none;stroke:#FFFFFF;stroke-width:13.10"/>
	<rect x="68.17" y="96.18" width="7863.59" height="5961.28" style="fill:#FFFFFF"/>
	<rect x="74.72" y="102.73" width="7850.49" height="5948.18" style="fill:none;stroke:#FFFFFF;stroke-width:13.10"/>
	<line x1="68.17" y1="1235.93" x2="7931.75" y2="1235.93" style="stroke:#C0C0C0;stroke-width:13.10"/>
	<text x="163.60" y="5598.58" style="font-family:'Helvetica';font-size:191.61px;fill:#000000">NOTE: Weights are from random effects analysis</text>
	<line x1="4392.59" y1="6057.46" x2="4392.59" y2="1235.93" style="stroke:#000000;stroke-width:13.10"/>
	<text x="163.60" y="3319.32" style="font-family:'Helvetica';font-size:191.61px;fill:#000000">.</text>
	<text x="163.60" y="5423.33" style="font-family:'Helvetica';font-size:191.61px;fill:#000000">.</text>
	<line x1="3876.02" y1="1849.44" x2="4380.94" y2="1849.44" style="stroke:#000000;stroke-width:19.65"/>
	<line x1="4203.71" y1="2200.19" x2="4712.10" y2="2200.19" style="stroke:#000000;stroke-width:19.65"/>
	<line x1="4150.42" y1="2550.94" x2="4664.26" y2="2550.94" style="stroke:#000000;stroke-width:19.65"/>
	<line x1="4152.15" y1="2901.44" x2="4666.74" y2="2901.44" style="stroke:#000000;stroke-width:19.65"/>
	<line x1="3919.40" y1="3953.45" x2="4203.46" y2="3953.45" style="stroke:#000000;stroke-width:19.65"/>
	<line x1="4273.36" y1="4304.20" x2="4559.66" y2="4304.20" style="stroke:#000000;stroke-width:19.65"/>
	<line x1="4280.06" y1="4654.95" x2="4569.58" y2="4654.95" style="stroke:#000000;stroke-width:19.65"/>
	<line x1="4284.52" y1="5005.46" x2="4574.29" y2="5005.46" style="stroke:#000000;stroke-width:19.65"/>
	<text x="163.60" y="1566.06" style="font-family:'Helvetica';font-weight:bold;font-size:191.61px;fill:#000000">COVID-19 mortality</text>
	<text x="163.60" y="1916.56" style="font-family:'Helvetica';font-size:191.61px;fill:#000000">Univariable</text>
	<text x="163.60" y="2267.32" style="font-family:'Helvetica';font-size:191.61px;fill:#000000">Age/Sex Adjusted</text>
	<text x="163.60" y="2618.07" style="font-family:'Helvetica';font-size:191.61px;fill:#000000">DAG-Informed Adjustment</text>
	<text x="163.60" y="2968.57" style="font-family:'Helvetica';font-size:191.61px;fill:#000000">Extended Adjustment</text>
	<text x="163.60" y="3670.07" style="font-family:'Helvetica';font-weight:bold;font-size:191.61px;fill:#000000">Non COVID-19 mortality</text>
	<text x="163.60" y="4020.58" style="font-family:'Helvetica';font-size:191.61px;fill:#000000">Univariable</text>
	<text x="163.60" y="4371.33" style="font-family:'Helvetica';font-size:191.61px;fill:#000000">Age/Sex Adjusted</text>
	<text x="163.60" y="4722.08" style="font-family:'Helvetica';font-size:191.61px;fill:#000000">DAG-Informed Adjustment</text>
	<text x="163.60" y="5072.58" style="font-family:'Helvetica';font-size:191.61px;fill:#000000">Extended Adjustment</text>
	<text x="163.60" y="864.81" style="font-family:'Helvetica';font-size:191.61px;fill:#000000">adjust</text>
	<text x="5864.23" y="1916.56" style="font-family:'Helvetica';font-size:191.61px;fill:#000000">0.77 (0.59, 0.99)</text>
	<text x="5864.23" y="2267.32" style="font-family:'Helvetica';font-size:191.61px;fill:#000000">1.07 (0.83, 1.38)</text>
	<text x="5864.23" y="2618.07" style="font-family:'Helvetica';font-size:191.61px;fill:#000000">1.02 (0.78, 1.31)</text>
	<text x="5864.23" y="2968.57" style="font-family:'Helvetica';font-size:191.61px;fill:#000000">1.02 (0.78, 1.32)</text>
	<text x="5864.23" y="4020.58" style="font-family:'Helvetica';font-size:191.61px;fill:#000000">0.72 (0.62, 0.83)</text>
	<text x="5864.23" y="4371.33" style="font-family:'Helvetica';font-size:191.61px;fill:#000000">1.02 (0.89, 1.18)</text>
	<text x="5864.23" y="4722.08" style="font-family:'Helvetica';font-size:191.61px;fill:#000000">1.03 (0.89, 1.20)</text>
	<text x="5864.23" y="5072.58" style="font-family:'Helvetica';font-size:191.61px;fill:#000000">1.04 (0.90, 1.20)</text>
	<text x="5864.23" y="864.81" style="font-family:'Helvetica';font-size:191.61px;fill:#000000">Ratio (95% CI)</text>
	<text x="5864.23" y="514.06" style="font-family:'Helvetica';font-size:191.61px;fill:#000000">Hazard</text>
	<text x="5864.23" y="1916.56" style="font-family:'Helvetica';font-size:191.61px;fill:#000000">0.77 (0.59, 0.99)</text>
	<text x="5864.23" y="2267.32" style="font-family:'Helvetica';font-size:191.61px;fill:#000000">1.07 (0.83, 1.38)</text>
	<text x="5864.23" y="2618.07" style="font-family:'Helvetica';font-size:191.61px;fill:#000000">1.02 (0.78, 1.31)</text>
	<text x="5864.23" y="2968.57" style="font-family:'Helvetica';font-size:191.61px;fill:#000000">1.02 (0.78, 1.32)</text>
	<text x="5864.23" y="4020.58" style="font-family:'Helvetica';font-size:191.61px;fill:#000000">0.72 (0.62, 0.83)</text>
	<text x="5864.23" y="4371.33" style="font-family:'Helvetica';font-size:191.61px;fill:#000000">1.02 (0.89, 1.18)</text>
	<text x="5864.23" y="4722.08" style="font-family:'Helvetica';font-size:191.61px;fill:#000000">1.03 (0.89, 1.20)</text>
	<text x="5864.23" y="5072.58" style="font-family:'Helvetica';font-size:191.61px;fill:#000000">1.04 (0.90, 1.20)</text>
	<text x="5864.23" y="864.81" style="font-family:'Helvetica';font-size:191.61px;fill:#000000">Ratio (95% CI)</text>
	<text x="5864.23" y="514.06" style="font-family:'Helvetica';font-size:191.61px;fill:#000000">Hazard</text>
	<polygon points="4090.17,1849.69 4128.36,1811.50 4166.54,1849.69 4128.36,1887.87" style="fill:#000000"/>
	<polygon points="4104.07,1849.69 4128.36,1825.39 4152.65,1849.69 4128.36,1873.98" style="fill:none;stroke:#000000;stroke-width:19.65"/>
	<polygon points="4419.60,2200.44 4457.78,2162.25 4495.97,2200.44 4457.78,2238.62" style="fill:#000000"/>
	<polygon points="4433.49,2200.44 4457.78,2176.15 4482.08,2200.44 4457.78,2224.73" style="fill:none;stroke:#000000;stroke-width:19.65"/>
	<polygon points="4369.03,2550.94 4407.22,2512.75 4445.40,2550.94 4407.22,2589.13" style="fill:#000000"/>
	<polygon points="4382.93,2550.94 4407.22,2526.65 4431.51,2550.94 4407.22,2575.23" style="fill:none;stroke:#000000;stroke-width:19.65"/>
	<polygon points="4371.01,2901.69 4409.20,2863.51 4447.39,2901.69 4409.20,2939.88" style="fill:#000000"/>
	<polygon points="4384.91,2901.69 4409.20,2877.40 4433.49,2901.69 4409.20,2925.98" style="fill:none;stroke:#000000;stroke-width:19.65"/>
	<polygon points="4023.25,3953.70 4061.43,3915.51 4099.62,3953.70 4061.43,3991.88" style="fill:#000000"/>
	<polygon points="4037.14,3953.70 4061.43,3929.41 4085.72,3953.70 4061.43,3977.99" style="fill:none;stroke:#000000;stroke-width:19.65"/>
	<polygon points="4378.20,4304.20 4416.39,4266.01 4454.57,4304.20 4416.39,4342.39" style="fill:#000000"/>
	<polygon points="4392.10,4304.20 4416.39,4279.91 4440.68,4304.20 4416.39,4328.49" style="fill:none;stroke:#000000;stroke-width:19.65"/>
	<polygon points="4386.63,4654.95 4424.82,4616.77 4463.00,4654.95 4424.82,4693.14" style="fill:#000000"/>
	<polygon points="4400.52,4654.95 4424.82,4630.66 4449.11,4654.95 4424.82,4679.24" style="fill:none;stroke:#000000;stroke-width:19.65"/>
	<polygon points="4391.09,5005.70 4429.28,4967.52 4467.46,5005.70 4429.28,5043.89" style="fill:#000000"/>
	<polygon points="4404.99,5005.70 4429.28,4981.41 4453.57,5005.70 4429.28,5029.99" style="fill:none;stroke:#000000;stroke-width:19.65"/>
	<line x1="68.17" y1="6057.46" x2="7931.75" y2="6057.46" style="stroke:#000000;stroke-width:13.10"/>
	<text x="3704.49" y="6237.08" style="font-family:'Helvetica';font-size:191.61px;fill:#000000" text-anchor="middle"> </text>
	<text x="5080.69" y="6237.08" style="font-family:'Helvetica';font-size:191.61px;fill:#000000" text-anchor="middle"> </text>
	<line x1="4392.59" y1="6057.46" x2="4392.59" y2="6148.43" style="stroke:#000000;stroke-width:13.10"/>
	<text x="4392.59" y="6328.05" style="font-family:'Helvetica';font-size:191.61px;fill:#000000" text-anchor="middle">1</text>
	<line x1="3016.39" y1="6057.46" x2="3016.39" y2="6148.43" style="stroke:#000000;stroke-width:13.10"/>
	<text x="3016.39" y="6328.05" style="font-family:'Helvetica';font-size:191.61px;fill:#000000" text-anchor="middle">.25</text>
	<line x1="3704.49" y1="6057.46" x2="3704.49" y2="6148.43" style="stroke:#000000;stroke-width:13.10"/>
	<text x="3704.49" y="6328.05" style="font-family:'Helvetica';font-size:191.61px;fill:#000000" text-anchor="middle">.5</text>
	<line x1="4392.59" y1="6057.46" x2="4392.59" y2="6148.43" style="stroke:#000000;stroke-width:13.10"/>
	<text x="4392.59" y="6328.05" style="font-family:'Helvetica';font-size:191.61px;fill:#000000" text-anchor="middle">1</text>
	<line x1="5080.69" y1="6057.46" x2="5080.69" y2="6148.43" style="stroke:#000000;stroke-width:13.10"/>
	<text x="5080.69" y="6328.05" style="font-family:'Helvetica';font-size:191.61px;fill:#000000" text-anchor="middle">2</text>
	<line x1="5768.79" y1="6057.46" x2="5768.79" y2="6148.43" style="stroke:#000000;stroke-width:13.10"/>
	<text x="5768.79" y="6328.05" style="font-family:'Helvetica';font-size:191.61px;fill:#000000" text-anchor="middle">4</text>
	<line x1="4392.59" y1="6057.46" x2="4392.59" y2="6148.43" style="stroke:#000000;stroke-width:13.10"/>
</svg>
