<?xml version="1.0" encoding="UTF-8" standalone="no"?>
<!-- This is a Stata 16.1 generated SVG file (http://www.stata.com) -->

<svg version="1.1" width="11.02in" height="9.10in" viewBox="0 0 7932 6550" xmlns="http://www.w3.org/2000/svg" xmlns:xlink="http://www.w3.org/1999/xlink">
	<desc>Stata Graph - Graph</desc>
	<rect x="0" y="0" width="7932" height="6550" style="fill:#F0F0F0;stroke:none"/>
	<rect x="0.00" y="0.00" width="7931.75" height="6550.00" style="fill:#FFFFFF"/>
	<rect x="6.55" y="6.55" width="7918.65" height="6536.90" style="fill:none;stroke:#FFFFFF;stroke-width:13.10"/>
	<rect x="68.17" y="96.18" width="7863.59" height="5961.28" style="fill:#FFFFFF"/>
	<rect x="74.72" y="102.73" width="7850.49" height="5948.18" style="fill:none;stroke:#FFFFFF;stroke-width:13.10"/>
	<line x1="68.17" y1="1235.93" x2="7931.75" y2="1235.93" style="stroke:#C0C0C0;stroke-width:13.10"/>
	<text x="163.60" y="5598.58" style="font-family:'Helvetica';font-size:191.61px;fill:#000000">NOTE: Weights are from random effects analysis</text>
	<line x1="4392.59" y1="6057.46" x2="4392.59" y2="1235.93" style="stroke:#000000;stroke-width:13.10"/>
	<text x="163.60" y="3319.32" style="font-family:'Helvetica';font-size:191.61px;fill:#000000">.</text>
	<text x="163.60" y="5423.33" style="font-family:'Helvetica';font-size:191.61px;fill:#000000">.</text>
	<line x1="3893.37" y1="1849.44" x2="4391.35" y2="1849.44" style="stroke:#000000;stroke-width:19.65"/>
	<line x1="4222.05" y1="2200.19" x2="4723.75" y2="2200.19" style="stroke:#000000;stroke-width:19.65"/>
	<line x1="4167.03" y1="2550.94" x2="4673.93" y2="2550.94" style="stroke:#000000;stroke-width:19.65"/>
	<line x1="4169.75" y1="2901.44" x2="4677.90" y2="2901.44" style="stroke:#000000;stroke-width:19.65"/>
	<line x1="3904.03" y1="3953.45" x2="4174.71" y2="3953.45" style="stroke:#000000;stroke-width:19.65"/>
	<line x1="4255.52" y1="4304.20" x2="4528.43" y2="4304.20" style="stroke:#000000;stroke-width:19.65"/>
	<line x1="4257.75" y1="4654.95" x2="4533.39" y2="4654.95" style="stroke:#000000;stroke-width:19.65"/>
	<line x1="4271.13" y1="5005.46" x2="4547.51" y2="5005.46" style="stroke:#000000;stroke-width:19.65"/>
	<text x="163.60" y="1566.06" style="font-family:'Helvetica';font-weight:bold;font-size:191.61px;fill:#000000">COVID-19 mortality</text>
	<text x="163.60" y="1916.56" style="font-family:'Helvetica';font-size:191.61px;fill:#000000">Univariable</text>
	<text x="163.60" y="2267.32" style="font-family:'Helvetica';font-size:191.61px;fill:#000000">Age/Sex Adjusted</text>
	<text x="163.60" y="2618.07" style="font-family:'Helvetica';font-size:191.61px;fill:#000000">DAG-Informed Adjustment</text>
	<text x="163.60" y="2968.57" style="font-family:'Helvetica';font-size:191.61px;fill:#000000">Extended Adjustment</text>
	<text x="163.60" y="3670.07" style="font-family:'Helvetica';font-weight:bold;font-size:191.61px;fill:#000000">Non COVID-19 mortality</text>
	<text x="163.60" y="4020.58" style="font-family:'Helvetica';font-size:191.61px;fill:#000000">Univariable</text>
	<text x="163.60" y="4371.33" style="font-family:'Helvetica';font-size:191.61px;fill:#000000">Age/Sex Adjusted</text>
	<text x="163.60" y="4722.08" style="font-family:'Helvetica';font-size:191.61px;fill:#000000">DAG-Informed Adjustment</text>
	<text x="163.60" y="5072.58" style="font-family:'Helvetica';font-size:191.61px;fill:#000000">Extended Adjustment</text>
	<text x="163.60" y="864.81" style="font-family:'Helvetica';font-size:191.61px;fill:#000000">adjust</text>
	<text x="5864.23" y="1916.56" style="font-family:'Helvetica';font-size:191.61px;fill:#000000">0.78 (0.60, 1.00)</text>
	<text x="5864.23" y="2267.32" style="font-family:'Helvetica';font-size:191.61px;fill:#000000">1.08 (0.84, 1.40)</text>
	<text x="5864.23" y="2618.07" style="font-family:'Helvetica';font-size:191.61px;fill:#000000">1.03 (0.80, 1.33)</text>
	<text x="5864.23" y="2968.57" style="font-family:'Helvetica';font-size:191.61px;fill:#000000">1.03 (0.80, 1.33)</text>
	<text x="5864.23" y="4020.58" style="font-family:'Helvetica';font-size:191.61px;fill:#000000">0.70 (0.61, 0.80)</text>
	<text x="5864.23" y="4371.33" style="font-family:'Helvetica';font-size:191.61px;fill:#000000">1.00 (0.87, 1.15)</text>
	<text x="5864.23" y="4722.08" style="font-family:'Helvetica';font-size:191.61px;fill:#000000">1.00 (0.87, 1.15)</text>
	<text x="5864.23" y="5072.58" style="font-family:'Helvetica';font-size:191.61px;fill:#000000">1.02 (0.88, 1.17)</text>
	<text x="5864.23" y="864.81" style="font-family:'Helvetica';font-size:191.61px;fill:#000000">Ratio (95% CI)</text>
	<text x="5864.23" y="514.06" style="font-family:'Helvetica';font-size:191.61px;fill:#000000">Hazard</text>
	<text x="5864.23" y="1916.56" style="font-family:'Helvetica';font-size:191.61px;fill:#000000">0.78 (0.60, 1.00)</text>
	<text x="5864.23" y="2267.32" style="font-family:'Helvetica';font-size:191.61px;fill:#000000">1.08 (0.84, 1.40)</text>
	<text x="5864.23" y="2618.07" style="font-family:'Helvetica';font-size:191.61px;fill:#000000">1.03 (0.80, 1.33)</text>
	<text x="5864.23" y="2968.57" style="font-family:'Helvetica';font-size:191.61px;fill:#000000">1.03 (0.80, 1.33)</text>
	<text x="5864.23" y="4020.58" style="font-family:'Helvetica';font-size:191.61px;fill:#000000">0.70 (0.61, 0.80)</text>
	<text x="5864.23" y="4371.33" style="font-family:'Helvetica';font-size:191.61px;fill:#000000">1.00 (0.87, 1.15)</text>
	<text x="5864.23" y="4722.08" style="font-family:'Helvetica';font-size:191.61px;fill:#000000">1.00 (0.87, 1.15)</text>
	<text x="5864.23" y="5072.58" style="font-family:'Helvetica';font-size:191.61px;fill:#000000">1.02 (0.88, 1.17)</text>
	<text x="5864.23" y="864.81" style="font-family:'Helvetica';font-size:191.61px;fill:#000000">Ratio (95% CI)</text>
	<text x="5864.23" y="514.06" style="font-family:'Helvetica';font-size:191.61px;fill:#000000">Hazard</text>
	<polygon points="4104.05,1849.69 4142.24,1811.50 4180.43,1849.69 4142.24,1887.87" style="fill:#000000"/>
	<polygon points="4117.95,1849.69 4142.24,1825.39 4166.53,1849.69 4142.24,1873.98" style="fill:none;stroke:#000000;stroke-width:19.65"/>
	<polygon points="4434.72,2200.44 4472.90,2162.25 4511.09,2200.44 4472.90,2238.62" style="fill:#000000"/>
	<polygon points="4448.61,2200.44 4472.90,2176.15 4497.20,2200.44 4472.90,2224.73" style="fill:none;stroke:#000000;stroke-width:19.65"/>
	<polygon points="4382.17,2550.94 4420.35,2512.75 4458.54,2550.94 4420.35,2589.13" style="fill:#000000"/>
	<polygon points="4396.06,2550.94 4420.35,2526.65 4444.65,2550.94 4420.35,2575.23" style="fill:none;stroke:#000000;stroke-width:19.65"/>
	<polygon points="4385.39,2901.69 4423.58,2863.51 4461.76,2901.69 4423.58,2939.88" style="fill:#000000"/>
	<polygon points="4399.29,2901.69 4423.58,2877.40 4447.87,2901.69 4423.58,2925.98" style="fill:none;stroke:#000000;stroke-width:19.65"/>
	<polygon points="4000.94,3953.70 4039.12,3915.51 4077.31,3953.70 4039.12,3991.88" style="fill:#000000"/>
	<polygon points="4014.83,3953.70 4039.12,3929.41 4063.41,3953.70 4039.12,3977.99" style="fill:none;stroke:#000000;stroke-width:19.65"/>
	<polygon points="4353.66,4304.20 4391.85,4266.01 4430.04,4304.20 4391.85,4342.39" style="fill:#000000"/>
	<polygon points="4367.56,4304.20 4391.85,4279.91 4416.14,4304.20 4391.85,4328.49" style="fill:none;stroke:#000000;stroke-width:19.65"/>
	<polygon points="4357.13,4654.95 4395.32,4616.77 4433.51,4654.95 4395.32,4693.14" style="fill:#000000"/>
	<polygon points="4371.03,4654.95 4395.32,4630.66 4419.61,4654.95 4395.32,4679.24" style="fill:none;stroke:#000000;stroke-width:19.65"/>
	<polygon points="4371.01,5005.70 4409.20,4967.52 4447.39,5005.70 4409.20,5043.89" style="fill:#000000"/>
	<polygon points="4384.91,5005.70 4409.20,4981.41 4433.49,5005.70 4409.20,5029.99" style="fill:none;stroke:#000000;stroke-width:19.65"/>
	<line x1="68.17" y1="6057.46" x2="7931.75" y2="6057.46" style="stroke:#000000;stroke-width:13.10"/>
	<text x="3704.49" y="6237.08" style="font-family:'Helvetica';font-size:191.61px;fill:#000000" text-anchor="middle"> </text>
	<text x="5080.69" y="6237.08" style="font-family:'Helvetica';font-size:191.61px;fill:#000000" text-anchor="middle"> </text>
	<line x1="4392.59" y1="6057.46" x2="4392.59" y2="6148.43" style="stroke:#000000;stroke-width:13.10"/>
	<text x="4392.59" y="6328.05" style="font-family:'Helvetica';font-size:191.61px;fill:#000000" text-anchor="middle">1</text>
	<line x1="3016.39" y1="6057.46" x2="3016.39" y2="6148.43" style="stroke:#000000;stroke-width:13.10"/>
	<text x="3016.39" y="6328.05" style="font-family:'Helvetica';font-size:191.61px;fill:#000000" text-anchor="middle">.25</text>
	<line x1="3704.49" y1="6057.46" x2="3704.49" y2="6148.43" style="stroke:#000000;stroke-width:13.10"/>
	<text x="3704.49" y="6328.05" style="font-family:'Helvetica';font-size:191.61px;fill:#000000" text-anchor="middle">.5</text>
	<line x1="4392.59" y1="6057.46" x2="4392.59" y2="6148.43" style="stroke:#000000;stroke-width:13.10"/>
	<text x="4392.59" y="6328.05" style="font-family:'Helvetica';font-size:191.61px;fill:#000000" text-anchor="middle">1</text>
	<line x1="5080.69" y1="6057.46" x2="5080.69" y2="6148.43" style="stroke:#000000;stroke-width:13.10"/>
	<text x="5080.69" y="6328.05" style="font-family:'Helvetica';font-size:191.61px;fill:#000000" text-anchor="middle">2</text>
	<line x1="5768.79" y1="6057.46" x2="5768.79" y2="6148.43" style="stroke:#000000;stroke-width:13.10"/>
	<text x="5768.79" y="6328.05" style="font-family:'Helvetica';font-size:191.61px;fill:#000000" text-anchor="middle">4</text>
	<line x1="4392.59" y1="6057.46" x2="4392.59" y2="6148.43" style="stroke:#000000;stroke-width:13.10"/>
</svg>
