<?xml version="1.0" encoding="UTF-8" standalone="no"?>
<!-- This is a Stata 16.1 generated SVG file (http://www.stata.com) -->

<svg version="1.1" width="5.50in" height="4.00in" viewBox="0 0 3960 2880" xmlns="http://www.w3.org/2000/svg" xmlns:xlink="http://www.w3.org/1999/xlink">
	<desc>Stata Graph - Graph</desc>
	<rect x="0" y="0" width="3960" height="2880" style="fill:#EAF2F3;stroke:none"/>
	<rect x="0.00" y="0.00" width="3959.88" height="2880.00" style="fill:#FFFFFF"/>
	<rect x="2.88" y="2.88" width="3954.12" height="2874.24" style="fill:none;stroke:#EAF2F3;stroke-width:5.76"/>
	<rect x="619.12" y="490.93" width="3221.71" height="1818.32" style="fill:#FFFFFF"/>
	<rect x="622.00" y="493.81" width="3215.95" height="1812.56" style="fill:none;stroke:#FFFFFF;stroke-width:5.76"/>
	<line x1="619.12" y1="2245.89" x2="3840.83" y2="2245.89" style="stroke:#EAF2F3;stroke-width:8.64"/>
	<line x1="619.12" y1="1907.54" x2="3840.83" y2="1907.54" style="stroke:#EAF2F3;stroke-width:8.64"/>
	<line x1="619.12" y1="1569.20" x2="3840.83" y2="1569.20" style="stroke:#EAF2F3;stroke-width:8.64"/>
	<line x1="619.12" y1="1230.86" x2="3840.83" y2="1230.86" style="stroke:#EAF2F3;stroke-width:8.64"/>
	<line x1="619.12" y1="892.51" x2="3840.83" y2="892.51" style="stroke:#EAF2F3;stroke-width:8.64"/>
	<line x1="619.12" y1="554.29" x2="3840.83" y2="554.29" style="stroke:#EAF2F3;stroke-width:8.64"/>
	<path d=" M682.48 2246.01 L682.48 2246.01 L682.48 2246.01 L701.79 2246.01 L701.79 2246.01 L721.09 2246.01 L721.09 2246.01 L740.52 2246.01 L740.52 2246.01 L759.83 2246.01 L759.83 2246.01 L779.13 2246.01 L779.13 2246.01 L798.56 2246.01 L798.56 2246.01 L817.86 2246.01 L817.86 2246.01 L837.17 2246.01 L837.17 2246.01 L856.60 2246.01 L856.60 2246.01 L875.90 2246.01 L875.90 2246.01 L895.21 2246.01 L895.21 2246.01 L914.64 2246.01 L914.64 2246.01 L933.94 2246.01 L933.94 2246.01 L953.25 2246.01 L953.25 2243.91 L972.55 2243.91 L972.55 2241.80 L991.98 2241.80 L991.98 2241.80 L1011.28 2241.80 L1011.28 2241.80 L1030.59 2241.80 L1030.59 2241.80 L1050.02 2241.80 L1050.02 2241.80 L1069.32 2241.80 L1069.32 2241.80 L1088.63 2241.80 L1088.63 2237.59 L1108.06 2237.59 L1108.06 2233.51 L1127.36 2233.51 L1127.36 2227.20 L1146.67 2227.20 L1146.67 2223.11 L1166.10 2223.11 L1166.10 2216.80 L1185.40 2216.80 L1185.40 2210.49 L1204.71 2210.49 L1204.71 2200.10 L1224.01 2200.10 L1224.01 2193.78 L1243.44 2193.78 L1243.44 2181.29 L1262.74 2181.29 L1262.74 2162.48 L1282.05 2162.48 L1282.05 2143.66 L1301.48 2143.66 L1301.48 2124.85 L1320.78 2124.85 L1320.78 2114.46 L1340.09 2114.46 L1340.09 2083.03 L1359.52 2083.03 L1359.52 2062.11 L1378.82 2062.11 L1378.82 2049.61 L1398.13 2049.61 L1398.13 2032.90 L1417.56 2032.90 L1417.56 2001.47 L1436.86 2001.47 L1436.86 1978.45 L1456.17 1978.45 L1456.17 1940.71 L1475.47 1940.71 L1475.47 1926.11 L1494.90 1926.11 L1494.90 1915.59 L1514.20 1915.59 L1514.20 1905.07 L1533.51 1905.07 L1533.51 1882.05 L1552.94 1882.05 L1552.94 1859.03 L1572.24 1859.03 L1572.24 1837.99 L1591.55 1837.99 L1591.55 1817.08 L1610.98 1817.08 L1610.98 1789.73 L1630.28 1789.73 L1630.28 1773.02 L1649.59 1773.02 L1649.59 1745.67 L1669.02 1745.67 L1669.02 1737.26 L1688.32 1737.26 L1688.32 1718.45 L1707.63 1718.45 L1707.63 1707.93 L1727.06 1707.93 L1727.06 1686.89 L1746.36 1686.89 L1746.36 1670.06 L1765.66 1670.06 L1765.66 1651.12 L1784.97 1651.12 L1784.97 1630.21 L1804.40 1630.21 L1804.40 1621.79 L1823.70 1621.79 L1823.70 1600.76 L1843.01 1600.76 L1843.01 1590.24 L1862.44 1590.24 L1862.44 1571.30 L1881.74 1571.30 L1881.74 1564.99 L1901.05 1564.99 L1901.05 1545.93 L1920.48 1545.93 L1920.48 1527.00 L1939.78 1527.00 L1939.78 1510.17 L1959.09 1510.17 L1959.09 1503.86 L1978.52 1503.86 L1978.52 1499.65 L1997.82 1499.65 L1997.82 1489.13 L2017.13 1489.13 L2017.13 1478.61 L2036.43 1478.61 L2036.43 1468.09 L2055.86 1468.09 L2055.86 1461.78 L2075.16 1461.78 L2075.16 1449.03 L2094.47 1449.03 L2094.47 1440.62 L2113.90 1440.62 L2113.90 1438.51 L2133.20 1438.51 L2133.20 1428.00 L2152.51 1428.00 L2152.51 1417.48 L2171.94 1417.48 L2171.94 1404.85 L2191.24 1404.85 L2191.24 1392.11 L2210.55 1392.11 L2210.55 1383.69 L2229.97 1383.69 L2229.97 1373.17 L2249.28 1373.17 L2249.28 1368.97 L2268.59 1368.97 L2268.59 1364.63 L2287.89 1364.63 L2287.89 1362.53 L2307.32 1362.53 L2307.32 1352.01 L2326.62 1352.01 L2326.62 1343.60 L2345.93 1343.60 L2345.93 1337.28 L2365.36 1337.28 L2365.36 1332.95 L2384.66 1332.95 L2384.66 1330.85 L2403.97 1330.85 L2403.97 1324.54 L2423.40 1324.54 L2423.40 1324.54 L2442.70 1324.54 L2442.70 1320.33 L2462.01 1320.33 L2462.01 1316.12 L2481.43 1316.12 L2481.43 1314.02 L2500.74 1314.02 L2500.74 1309.69 L2520.05 1309.69 L2520.05 1307.58 L2539.35 1307.58 L2539.35 1305.48 L2558.78 1305.48 L2558.78 1303.38 L2578.08 1303.38 L2578.08 1299.17 L2597.39 1299.17 L2597.39 1297.06 L2616.82 1297.06 L2616.82 1290.75 L2636.12 1290.75 L2636.12 1290.75 L2655.43 1290.75 L2655.43 1286.42 L2674.86 1286.42 L2674.86 1282.21 L2694.16 1282.21 L2694.16 1278.01 L2713.47 1278.01 L2713.47 1278.01 L2732.89 1278.01 L2732.89 1275.90 L2752.20 1275.90 L2752.20 1275.90 L2771.51 1275.90 L2771.51 1273.80 L2790.81 1273.80 L2790.81 1271.57 L2810.24 1271.57 L2810.24 1269.47 L2829.54 1269.47 L2829.54 1269.47 L2848.85 1269.47 L2848.85 1269.47 L2868.28 1269.47 L2868.28 1269.47" stroke-linejoin="round" style="fill:none;stroke:#1A476F;stroke-width:8.64"/>
	<path d=" M682.48 2246.01 L682.48 2246.01 L682.48 2246.01 L701.79 2246.01 L701.79 2246.01 L721.09 2246.01 L721.09 2246.01 L740.52 2246.01 L740.52 2246.01 L759.83 2246.01 L759.83 2246.01 L779.13 2246.01 L779.13 2246.01 L798.56 2246.01 L798.56 2246.01 L817.86 2246.01 L817.86 2246.01 L837.17 2246.01 L837.17 2246.01 L875.90 2246.01 L875.90 2246.01 L895.21 2246.01 L895.21 2246.01 L914.64 2246.01 L914.64 2246.01 L933.94 2246.01 L933.94 2246.01 L953.25 2246.01 L953.25 2246.01 L972.55 2246.01 L972.55 2246.01 L991.98 2246.01 L991.98 2246.01 L1011.28 2246.01 L1011.28 2246.01 L1050.02 2246.01 L1050.02 2234.87 L1069.32 2234.87 L1069.32 2234.87 L1088.63 2234.87 L1088.63 2234.87 L1127.36 2234.87 L1127.36 2234.87 L1146.67 2234.87 L1146.67 2212.60 L1166.10 2212.60 L1166.10 2212.60 L1185.40 2212.60 L1185.40 2201.58 L1204.71 2201.58 L1204.71 2179.31 L1224.01 2179.31 L1224.01 2179.31 L1243.44 2179.31 L1243.44 2157.15 L1262.74 2157.15 L1262.74 2157.15 L1282.05 2157.15 L1282.05 2146.02 L1301.48 2146.02 L1301.48 2134.88 L1320.78 2134.88 L1320.78 2134.88 L1340.09 2134.88 L1340.09 2134.88 L1359.52 2134.88 L1359.52 2134.88 L1378.82 2134.88 L1378.82 2112.73 L1398.13 2112.73 L1398.13 2101.59 L1417.56 2101.59 L1417.56 2090.45 L1436.86 2090.45 L1436.86 2057.04 L1456.17 2057.04 L1456.17 2012.61 L1475.47 2012.61 L1475.47 1990.46 L1494.90 1990.46 L1494.90 1957.04 L1514.20 1957.04 L1514.20 1957.04 L1533.51 1957.04 L1533.51 1945.91 L1552.94 1945.91 L1552.94 1923.63 L1572.24 1923.63 L1572.24 1912.62 L1591.55 1912.62 L1591.55 1879.20 L1610.98 1879.20 L1610.98 1868.06 L1630.28 1868.06 L1630.28 1856.93 L1649.59 1856.93 L1649.59 1845.79 L1669.02 1845.79 L1669.02 1845.79 L1688.32 1845.79 L1688.32 1823.51 L1707.63 1823.51 L1707.63 1801.24 L1727.06 1801.24 L1727.06 1801.24 L1746.36 1801.24 L1746.36 1779.09 L1784.97 1779.09 L1784.97 1756.81 L1804.40 1756.81 L1804.40 1756.81 L1823.70 1756.81 L1823.70 1712.26 L1843.01 1712.26 L1843.01 1712.26 L1862.44 1712.26 L1862.44 1701.12 L1881.74 1701.12 L1881.74 1689.98 L1901.05 1689.98 L1901.05 1689.98 L1920.48 1689.98 L1920.48 1689.98 L1939.78 1689.98 L1939.78 1678.84 L1959.09 1678.84 L1959.09 1667.71 L1978.52 1667.71 L1978.52 1667.71 L1997.82 1667.71 L1997.82 1656.57 L2017.13 1656.57 L2017.13 1656.57 L2036.43 1656.57 L2036.43 1645.43 L2075.16 1645.43 L2075.16 1645.43 L2113.90 1645.43 L2113.90 1645.43 L2133.20 1645.43 L2133.20 1634.29 L2152.51 1634.29 L2152.51 1634.29 L2171.94 1634.29 L2171.94 1623.16 L2191.24 1623.16 L2191.24 1612.02 L2210.55 1612.02 L2210.55 1612.02 L2229.97 1612.02 L2229.97 1600.88 L2249.28 1600.88 L2249.28 1578.48 L2268.59 1578.48 L2268.59 1567.34 L2287.89 1567.34 L2287.89 1567.34 L2307.32 1567.34 L2307.32 1533.93 L2326.62 1533.93 L2326.62 1533.93 L2345.93 1533.93 L2345.93 1522.79 L2384.66 1522.79 L2384.66 1522.79 L2403.97 1522.79 L2403.97 1522.79 L2462.01 1522.79 L2462.01 1511.65 L2481.43 1511.65 L2481.43 1511.65 L2500.74 1511.65 L2500.74 1511.65 L2520.05 1511.65 L2520.05 1511.65 L2539.35 1511.65 L2539.35 1511.65 L2558.78 1511.65 L2558.78 1511.65 L2578.08 1511.65 L2578.08 1511.65 L2597.39 1511.65 L2597.39 1511.65 L2616.82 1511.65 L2616.82 1511.65 L2674.86 1511.65 L2674.86 1511.65 L2713.47 1511.65 L2713.47 1511.65 L2732.89 1511.65 L2732.89 1511.65 L2752.20 1511.65 L2752.20 1511.65 L2790.81 1511.65 L2790.81 1511.65 L2810.24 1511.65 L2810.24 1511.65 L2848.85 1511.65 L2848.85 1500.52 L2868.28 1500.52 L2868.28 1500.52" stroke-linejoin="round" style="fill:none;stroke:#90353B;stroke-width:8.64"/>
	<line x1="619.12" y1="2309.25" x2="619.12" y2="490.93" style="stroke:#000000;stroke-width:5.76"/>
	<line x1="619.12" y1="2245.89" x2="579.15" y2="2245.89" style="stroke:#000000;stroke-width:5.76"/>
	<text x="559.23" y="2273.90" style="font-family:'Helvetica';font-size:79.94px;fill:#000000" text-anchor="end">0.000</text>
	<line x1="619.12" y1="1907.54" x2="579.15" y2="1907.54" style="stroke:#000000;stroke-width:5.76"/>
	<text x="559.23" y="1935.55" style="font-family:'Helvetica';font-size:79.94px;fill:#000000" text-anchor="end">0.001</text>
	<line x1="619.12" y1="1569.20" x2="579.15" y2="1569.20" style="stroke:#000000;stroke-width:5.76"/>
	<text x="559.23" y="1597.21" style="font-family:'Helvetica';font-size:79.94px;fill:#000000" text-anchor="end">0.002</text>
	<line x1="619.12" y1="1230.86" x2="579.15" y2="1230.86" style="stroke:#000000;stroke-width:5.76"/>
	<text x="559.23" y="1258.87" style="font-family:'Helvetica';font-size:79.94px;fill:#000000" text-anchor="end">0.003</text>
	<line x1="619.12" y1="892.51" x2="579.15" y2="892.51" style="stroke:#000000;stroke-width:5.76"/>
	<text x="559.23" y="920.52" style="font-family:'Helvetica';font-size:79.94px;fill:#000000" text-anchor="end">0.004</text>
	<line x1="619.12" y1="554.29" x2="579.15" y2="554.29" style="stroke:#000000;stroke-width:5.76"/>
	<text x="559.23" y="582.31" style="font-family:'Helvetica';font-size:79.94px;fill:#000000" text-anchor="end">0.005</text>
	<text x="682.48" y="2747.83" style="font-family:'Helvetica';font-size:60.02px;fill:#000000" text-anchor="middle">30501</text>
	<text x="1069.45" y="2747.83" style="font-family:'Helvetica';font-size:60.02px;fill:#000000" text-anchor="middle">30471</text>
	<text x="1456.29" y="2747.83" style="font-family:'Helvetica';font-size:60.02px;fill:#000000" text-anchor="middle">30418</text>
	<text x="1843.13" y="2747.83" style="font-family:'Helvetica';font-size:60.02px;fill:#000000" text-anchor="middle">30336</text>
	<text x="2229.97" y="2747.83" style="font-family:'Helvetica';font-size:60.02px;fill:#000000" text-anchor="middle">30296</text>
	<text x="2616.82" y="2747.83" style="font-family:'Helvetica';font-size:60.02px;fill:#000000" text-anchor="middle">30254</text>
	<text x="3003.66" y="2747.83" style="font-family:'Helvetica';font-size:60.02px;fill:#000000" text-anchor="middle">0</text>
	<text x="3390.63" y="2747.83" style="font-family:'Helvetica';font-size:60.02px;fill:#000000" text-anchor="middle">0</text>
	<text x="3777.47" y="2747.83" style="font-family:'Helvetica';font-size:60.02px;fill:#000000" text-anchor="middle">0</text>
	<text x="527.79" y="2747.83" style="font-family:'Helvetica';font-size:60.02px;fill:#000000" text-anchor="end">HCQ</text>
	<text x="682.48" y="2674.44" style="font-family:'Helvetica';font-size:60.02px;fill:#000000" text-anchor="middle">163735</text>
	<text x="1069.45" y="2674.44" style="font-family:'Helvetica';font-size:60.02px;fill:#000000" text-anchor="middle">162536</text>
	<text x="1456.29" y="2674.44" style="font-family:'Helvetica';font-size:60.02px;fill:#000000" text-anchor="middle">161404</text>
	<text x="1843.13" y="2674.44" style="font-family:'Helvetica';font-size:60.02px;fill:#000000" text-anchor="middle">160525</text>
	<text x="2229.97" y="2674.44" style="font-family:'Helvetica';font-size:60.02px;fill:#000000" text-anchor="middle">159860</text>
	<text x="2616.82" y="2674.44" style="font-family:'Helvetica';font-size:60.02px;fill:#000000" text-anchor="middle">159347</text>
	<text x="3003.66" y="2674.44" style="font-family:'Helvetica';font-size:60.02px;fill:#000000" text-anchor="middle">0</text>
	<text x="3390.63" y="2674.44" style="font-family:'Helvetica';font-size:60.02px;fill:#000000" text-anchor="middle">0</text>
	<text x="3777.47" y="2674.44" style="font-family:'Helvetica';font-size:60.02px;fill:#000000" text-anchor="middle">0</text>
	<text x="527.79" y="2674.44" style="font-family:'Helvetica';font-size:60.02px;fill:#000000" text-anchor="end">No HCQ</text>
	<text x="527.79" y="2601.18" style="font-family:'Helvetica';font-size:60.02px;fill:#000000" text-anchor="end">Number at risk</text>
	<line x1="619.12" y1="2309.25" x2="3840.83" y2="2309.25" style="stroke:#000000;stroke-width:5.76"/>
	<line x1="682.48" y1="2309.25" x2="682.48" y2="2349.22" style="stroke:#000000;stroke-width:5.76"/>
	<text x="682.48" y="2425.17" style="font-family:'Helvetica';font-size:79.94px;fill:#000000" text-anchor="middle">0</text>
	<line x1="1069.45" y1="2309.25" x2="1069.45" y2="2349.22" style="stroke:#000000;stroke-width:5.76"/>
	<text x="1069.45" y="2425.17" style="font-family:'Helvetica';font-size:79.94px;fill:#000000" text-anchor="middle">20</text>
	<line x1="1456.29" y1="2309.25" x2="1456.29" y2="2349.22" style="stroke:#000000;stroke-width:5.76"/>
	<text x="1456.29" y="2425.17" style="font-family:'Helvetica';font-size:79.94px;fill:#000000" text-anchor="middle">40</text>
	<line x1="1843.13" y1="2309.25" x2="1843.13" y2="2349.22" style="stroke:#000000;stroke-width:5.76"/>
	<text x="1843.13" y="2425.17" style="font-family:'Helvetica';font-size:79.94px;fill:#000000" text-anchor="middle">60</text>
	<line x1="2229.97" y1="2309.25" x2="2229.97" y2="2349.22" style="stroke:#000000;stroke-width:5.76"/>
	<text x="2229.97" y="2425.17" style="font-family:'Helvetica';font-size:79.94px;fill:#000000" text-anchor="middle">80</text>
	<line x1="2616.82" y1="2309.25" x2="2616.82" y2="2349.22" style="stroke:#000000;stroke-width:5.76"/>
	<text x="2616.82" y="2425.17" style="font-family:'Helvetica';font-size:79.94px;fill:#000000" text-anchor="middle">100</text>
	<line x1="3003.66" y1="2309.25" x2="3003.66" y2="2349.22" style="stroke:#000000;stroke-width:5.76"/>
	<text x="3003.66" y="2425.17" style="font-family:'Helvetica';font-size:79.94px;fill:#000000" text-anchor="middle">120</text>
	<line x1="3390.63" y1="2309.25" x2="3390.63" y2="2349.22" style="stroke:#000000;stroke-width:5.76"/>
	<text x="3390.63" y="2425.17" style="font-family:'Helvetica';font-size:79.94px;fill:#000000" text-anchor="middle">140</text>
	<line x1="3777.47" y1="2309.25" x2="3777.47" y2="2349.22" style="stroke:#000000;stroke-width:5.76"/>
	<text x="3777.47" y="2425.17" style="font-family:'Helvetica';font-size:79.94px;fill:#000000" text-anchor="middle">160</text>
	<text x="2229.97" y="2515.14" style="font-family:'Helvetica';font-size:79.94px;fill:#000000" text-anchor="middle">Days since 1 Mar 2020</text>
	<rect x="1493.41" y="269.91" width="1473.12" height="186.37" style="fill:#FFFFFF"/>
	<rect x="1496.29" y="272.79" width="1467.36" height="180.61" style="fill:none;stroke:#EAF2F3;stroke-width:5.76"/>
	<line x1="1536.60" y1="363.09" x2="1910.95" y2="363.09" style="stroke:#1A476F;stroke-width:8.64"/>
	<line x1="2349.02" y1="363.09" x2="2723.37" y2="363.09" style="stroke:#90353B;stroke-width:8.64"/>
	<text x="1970.97" y="384.13" style="font-family:'Helvetica';font-size:60.02px;fill:#000000">No HCQ</text>
	<text x="2783.39" y="384.13" style="font-family:'Helvetica';font-size:60.02px;fill:#000000">HCQ</text>
	<text x="1467.30" y="187.99" style="font-family:'Helvetica';font-size:99.99px;fill:#1E2D53">Time to COVID-19 Death in ONS</text>
</svg>
