<?xml version="1.0" encoding="UTF-8" standalone="no"?>
<!-- This is a Stata 16.1 generated SVG file (http://www.stata.com) -->

<svg version="1.1" width="5.50in" height="4.00in" viewBox="0 0 3960 2880" xmlns="http://www.w3.org/2000/svg" xmlns:xlink="http://www.w3.org/1999/xlink">
	<desc>Stata Graph - Graph</desc>
	<rect x="0" y="0" width="3960" height="2880" style="fill:#EAF2F3;stroke:none"/>
	<rect x="0.00" y="0.00" width="3959.88" height="2880.00" style="fill:#FFFFFF"/>
	<rect x="2.88" y="2.88" width="3954.12" height="2874.24" style="fill:none;stroke:#EAF2F3;stroke-width:5.76"/>
	<rect x="619.12" y="630.90" width="3221.71" height="1678.35" style="fill:#FFFFFF"/>
	<rect x="622.00" y="633.78" width="3215.95" height="1672.59" style="fill:none;stroke:#FFFFFF;stroke-width:5.76"/>
	<line x1="619.12" y1="2245.89" x2="3840.83" y2="2245.89" style="stroke:#EAF2F3;stroke-width:8.64"/>
	<line x1="619.12" y1="1935.51" x2="3840.83" y2="1935.51" style="stroke:#EAF2F3;stroke-width:8.64"/>
	<line x1="619.12" y1="1625.26" x2="3840.83" y2="1625.26" style="stroke:#EAF2F3;stroke-width:8.64"/>
	<line x1="619.12" y1="1314.88" x2="3840.83" y2="1314.88" style="stroke:#EAF2F3;stroke-width:8.64"/>
	<line x1="619.12" y1="1004.51" x2="3840.83" y2="1004.51" style="stroke:#EAF2F3;stroke-width:8.64"/>
	<line x1="619.12" y1="694.26" x2="3840.83" y2="694.26" style="stroke:#EAF2F3;stroke-width:8.64"/>
	<defs>
		<path id="path_KLFzkUIL" d="M953.37 2245.64 L953.37 2245.64 L972.67 2245.64 L972.67 2244.90 L991.98 2244.90 L991.98 2244.90 L1011.41 2244.90 L1011.41 2244.90 L1030.71 2244.90 L1030.71 2244.90 L1050.02 2244.90 L1050.02 2244.90 L1069.45 2244.90 L1069.45 2244.90 L1088.75 2244.90 L1088.75 2243.04 L1108.06 2243.04 L1108.06 2240.81 L1127.36 2240.81 L1127.36 2236.97 L1146.79 2236.97 L1146.79 2234.25 L1166.10 2234.25 L1166.10 2230.04 L1185.40 2230.04 L1185.40 2225.71 L1204.83 2225.71 L1204.83 2218.29 L1224.13 2218.29 L1224.13 2213.71 L1243.44 2213.71 L1243.44 2204.30 L1262.87 2204.30 L1262.87 2189.82 L1282.17 2189.82 L1282.17 2175.10 L1301.48 2175.10 L1301.48 2160.25 L1320.91 2160.25 L1320.91 2151.83 L1340.21 2151.83 L1340.21 2126.46 L1359.52 2126.46 L1359.52 2109.38 L1378.82 2109.38 L1378.82 2098.99 L1398.25 2098.99 L1398.25 2085.25 L1417.56 2085.25 L1417.56 2059.14 L1436.86 2059.14 L1436.86 2039.96 L1456.29 2039.96 L1456.29 2008.28 L1475.60 2008.28 L1475.60 1995.90 L1494.90 1995.90 L1494.90 1987.12 L1514.33 1987.12 L1514.33 1978.21 L1533.63 1978.21 L1533.63 1956.92 L1552.94 1956.92 L1552.94 1937.37 L1572.37 1937.37 L1572.37 1919.55 L1591.67 1919.55 L1591.67 1901.73 L1610.98 1901.73 L1610.98 1878.34 L1630.28 1878.34 L1630.28 1863.98 L1649.71 1863.98 L1649.71 1840.59 L1669.02 1840.59 L1669.02 1833.41 L1688.32 1833.41 L1688.32 1817.20 L1707.75 1817.20 L1707.75 1808.17 L1727.06 1808.17 L1727.06 1790.10 L1746.36 1790.10 L1746.36 1775.62 L1765.79 1775.62 L1765.79 1759.28 L1785.09 1759.28 L1785.09 1741.22 L1804.40 1741.22 L1804.40 1733.92 L1823.83 1733.92 L1823.83 1715.72 L1843.13 1715.72 L1843.13 1706.69 L1862.44 1706.69 L1862.44 1690.23 L1881.74 1690.23 L1881.74 1684.79 L1901.17 1684.79 L1901.17 1668.45 L1920.48 1668.45 L1920.48 1651.99 L1939.78 1651.99 L1939.78 1637.39 L1959.21 1637.39 L1959.21 1631.94 L1978.52 1631.94 L1978.52 1628.23 L1997.82 1628.23 L1997.82 1619.07 L2017.25 1619.07 L2017.25 1609.91 L2036.55 1609.91 L2036.55 1598.90 L2055.86 1598.90 L2055.86 1593.45 L2075.29 1593.45 L2075.29 1582.44 L2094.59 1582.44 L2094.59 1575.14 L2113.90 1575.14 L2113.90 1573.28 L2133.20 1573.28 L2133.20 1564.13 L2152.63 1564.13 L2152.63 1554.97 L2171.94 1554.97 L2171.94 1543.95 L2191.24 1543.95 L2191.24 1532.94 L2210.67 1532.94 L2210.67 1525.51 L2229.97 1525.51 L2229.97 1516.36 L2249.28 1516.36 L2249.28 1512.64 L2268.71 1512.64 L2268.71 1508.93 L2288.01 1508.93 L2288.01 1507.07 L2307.32 1507.07 L2307.32 1497.92 L2326.75 1497.92 L2326.75 1490.49 L2346.05 1490.49 L2346.05 1485.05 L2365.36 1485.05 L2365.36 1481.33 L2384.79 1481.33 L2384.79 1479.48 L2404.09 1479.48 L2404.09 1473.91 L2423.40 1473.91 L2423.40 1473.91 L2442.70 1473.91 L2442.70 1468.46 L2462.13 1468.46 L2462.13 1464.75 L2481.43 1464.75 L2481.43 1461.04 L2500.74 1461.04 L2500.74 1457.33 L2520.17 1457.33 L2520.17 1455.47 L2539.47 1455.47 L2539.47 1453.61 L2558.78 1453.61 L2558.78 1451.76 L2578.21 1451.76 L2578.21 1448.04 L2597.51 1448.04 L2597.51 1446.19 L2616.82 1446.19 L2616.82 1440.74 L2636.25 1440.74 L2636.25 1440.74 L2655.55 1440.74 L2655.55 1437.03 L2674.86 1437.03 L2674.86 1433.32 L2694.16 1433.32 L2694.16 1429.60 L2713.59 1429.60 L2713.59 1429.60 L2732.89 1429.60 L2732.89 1427.75 L2752.20 1427.75 L2752.20 1427.75 L2771.63 1427.75 L2771.63 1425.89 L2790.93 1425.89 L2790.93 1424.04 L2810.24 1424.04 L2810.24 1422.18 L2829.67 1422.18 L2829.67 1422.18 L2848.97 1422.18 L2848.97 1422.18 L2868.28 1422.18 L2868.28 1422.18 L2887.71 1422.18 L2887.71 1420.32 L2907.01 1420.32 L2907.01 1418.47 L2926.32 1418.47 L2926.32 1414.75 L2945.62 1414.75 L2945.62 1414.75 L2965.05 1414.75 L2965.05 1414.75 L2984.36 1414.75 L2984.36 1414.75 L3003.66 1414.75 L3003.66 1414.75 L3023.09 1414.75 L3023.09 1414.75 L3042.39 1414.75 L3042.39 1412.90 L3061.70 1412.90 L3061.70 1409.19 L3081.13 1409.19 L3081.13 1407.33 L3100.43 1407.33 L3100.43 1407.33 L3119.74 1407.33 L3119.74 1407.33 L3139.17 1407.33 L3139.17 1407.33 L3158.47 1407.33 L3158.47 1407.33 L3177.78 1407.33 L3177.78 1407.33 L3197.08 1407.33 L3197.08 1407.33 L3216.51 1407.33 L3216.51 1407.33 L3235.82 1407.33 L3235.82 1407.33 L3255.12 1407.33 L3255.12 1407.33 L3274.55 1407.33 L3274.55 1407.33 L3274.55 1242.74 L3274.55 1242.74 L3255.12 1242.74 L3255.12 1242.74 L3235.82 1242.74 L3235.82 1242.74 L3216.51 1242.74 L3216.51 1242.74 L3197.08 1242.74 L3197.08 1242.74 L3177.78 1242.74 L3177.78 1242.74 L3158.47 1242.74 L3158.47 1242.74 L3139.17 1242.74 L3139.17 1242.74 L3119.74 1242.74 L3119.74 1242.74 L3100.43 1242.74 L3100.43 1242.74 L3081.13 1242.74 L3081.13 1244.84 L3061.70 1244.84 L3061.70 1248.80 L3042.39 1248.80 L3042.39 1250.90 L3023.09 1250.90 L3023.09 1250.90 L3003.66 1250.90 L3003.66 1250.90 L2984.36 1250.90 L2984.36 1250.90 L2965.05 1250.90 L2965.05 1250.90 L2945.62 1250.90 L2945.62 1250.90 L2926.32 1250.90 L2926.32 1254.99 L2907.01 1254.99 L2907.01 1256.97 L2887.71 1256.97 L2887.71 1258.95 L2868.28 1258.95 L2868.28 1258.95 L2848.97 1258.95 L2848.97 1258.95 L2829.67 1258.95 L2829.67 1258.95 L2810.24 1258.95 L2810.24 1261.05 L2790.93 1261.05 L2790.93 1263.03 L2771.63 1263.03 L2771.63 1265.14 L2752.20 1265.14 L2752.20 1265.14 L2732.89 1265.14 L2732.89 1267.12 L2713.59 1267.12 L2713.59 1267.12 L2694.16 1267.12 L2694.16 1271.20 L2674.86 1271.20 L2674.86 1275.28 L2655.55 1275.28 L2655.55 1279.24 L2636.25 1279.24 L2636.25 1279.24 L2616.82 1279.24 L2616.82 1285.31 L2597.51 1285.31 L2597.51 1287.41 L2578.21 1287.41 L2578.21 1291.50 L2558.78 1291.50 L2558.78 1293.48 L2539.47 1293.48 L2539.47 1295.46 L2520.17 1295.46 L2520.17 1297.56 L2500.74 1297.56 L2500.74 1301.64 L2481.43 1301.64 L2481.43 1305.60 L2462.13 1305.60 L2462.13 1309.69 L2442.70 1309.69 L2442.70 1315.75 L2423.40 1315.75 L2423.40 1315.75 L2404.09 1315.75 L2404.09 1321.82 L2384.79 1321.82 L2384.79 1323.92 L2365.36 1323.92 L2365.36 1327.88 L2346.05 1327.88 L2346.05 1333.94 L2326.75 1333.94 L2326.75 1342.11 L2307.32 1342.11 L2307.32 1352.26 L2288.01 1352.26 L2288.01 1354.24 L2268.71 1354.24 L2268.71 1358.32 L2249.28 1358.32 L2249.28 1362.41 L2229.97 1362.41 L2229.97 1372.43 L2210.67 1372.43 L2210.67 1380.60 L2191.24 1380.60 L2191.24 1392.73 L2171.94 1392.73 L2171.94 1404.85 L2152.63 1404.85 L2152.63 1415.00 L2133.20 1415.00 L2133.20 1425.15 L2113.90 1425.15 L2113.90 1427.25 L2094.59 1427.25 L2094.59 1435.30 L2075.29 1435.30 L2075.29 1447.43 L2055.86 1447.43 L2055.86 1453.49 L2036.55 1453.49 L2036.55 1465.74 L2017.25 1465.74 L2017.25 1475.89 L1997.82 1475.89 L1997.82 1486.04 L1978.52 1486.04 L1978.52 1490.00 L1959.21 1490.00 L1959.21 1496.18 L1939.78 1496.18 L1939.78 1512.40 L1920.48 1512.40 L1920.48 1530.59 L1901.17 1530.59 L1901.17 1548.90 L1881.74 1548.90 L1881.74 1554.97 L1862.44 1554.97 L1862.44 1573.28 L1843.13 1573.28 L1843.13 1583.43 L1823.83 1583.43 L1823.83 1603.85 L1804.40 1603.85 L1804.40 1611.89 L1785.09 1611.89 L1785.09 1632.31 L1765.79 1632.31 L1765.79 1650.63 L1746.36 1650.63 L1746.36 1666.96 L1727.06 1666.96 L1727.06 1687.26 L1707.75 1687.26 L1707.75 1697.53 L1688.32 1697.53 L1688.32 1715.85 L1669.02 1715.85 L1669.02 1724.02 L1649.71 1724.02 L1649.71 1750.62 L1630.28 1750.62 L1630.28 1766.96 L1610.98 1766.96 L1610.98 1793.69 L1591.67 1793.69 L1591.67 1814.23 L1572.37 1814.23 L1572.37 1834.77 L1552.94 1834.77 L1552.94 1857.42 L1533.63 1857.42 L1533.63 1882.17 L1514.33 1882.17 L1514.33 1892.44 L1494.90 1892.44 L1494.90 1902.84 L1475.60 1902.84 L1475.60 1917.32 L1456.29 1917.32 L1456.29 1954.69 L1436.86 1954.69 L1436.86 1977.59 L1417.56 1977.59 L1417.56 2009.02 L1398.25 2009.02 L1398.25 2025.85 L1378.82 2025.85 L1378.82 2038.60 L1359.52 2038.60 L1359.52 2059.76 L1340.21 2059.76 L1340.21 2091.81 L1320.91 2091.81 L1320.91 2102.58 L1301.48 2102.58 L1301.48 2122.01 L1282.17 2122.01 L1282.17 2141.81 L1262.87 2141.81 L1262.87 2161.73 L1243.44 2161.73 L1243.44 2175.35 L1224.13 2175.35 L1224.13 2182.15 L1204.83 2182.15 L1204.83 2193.78 L1185.40 2193.78 L1185.40 2200.84 L1166.10 2200.84 L1166.10 2208.02 L1146.79 2208.02 L1146.79 2212.97 L1127.36 2212.97 L1127.36 2220.52 L1108.06 2220.52 L1108.06 2225.59 L1088.75 2225.59 L1088.75 2230.66 L1069.45 2230.66 L1069.45 2230.66 L1050.02 2230.66 L1050.02 2230.66 L1030.71 2230.66 L1030.71 2230.66 L1011.41 2230.66 L1011.41 2230.66 L991.98 2230.66 L991.98 2230.66 L972.67 2230.66 L972.67 2232.40 L953.37 2232.40 L953.37 2245.64 Z" stroke-linejoin="round"/>
	</defs>
	<defs>
		<clipPath id="clipPath_kCLFstqi">
			<use xlink:href="#path_KLFzkUIL"/>
		</clipPath>
	</defs>
	<use xlink:href="#path_KLFzkUIL" style="stroke:none;fill:#DDE3E9"/>
	<use xlink:href="#path_KLFzkUIL" style="fill:none;stroke:#DDE3E9;stroke-width:17.28" clip-path="url(#clipPath_kCLFstqi)"/>
	<path d=" M953.25 2245.64 L972.55 2245.64 L972.55 2245.02 L991.98 2245.02 L991.98 2245.02 L1011.28 2245.02 L1011.28 2245.02 L1030.59 2245.02 L1030.59 2245.02 L1050.02 2245.02 L1050.02 2245.02 L1069.32 2245.02 L1069.32 2245.02 L1088.63 2245.02 L1088.63 2243.04 L1108.06 2243.04 L1108.06 2240.81 L1127.36 2240.81 L1127.36 2236.97 L1146.67 2236.97 L1146.67 2234.38 L1166.10 2234.38 L1166.10 2230.17 L1185.40 2230.17 L1185.40 2225.84 L1204.71 2225.84 L1204.71 2218.29 L1224.01 2218.29 L1224.01 2213.71 L1243.44 2213.71 L1243.44 2204.30 L1262.74 2204.30 L1262.74 2189.95 L1282.05 2189.95 L1282.05 2175.22 L1301.48 2175.22 L1301.48 2160.25 L1320.78 2160.25 L1320.78 2151.96 L1340.09 2151.96 L1340.09 2126.46 L1359.52 2126.46 L1359.52 2109.38 L1378.82 2109.38 L1378.82 2099.11 L1398.13 2099.11 L1398.13 2085.25 L1417.56 2085.25 L1417.56 2059.26 L1436.86 2059.26 L1436.86 2039.96 L1456.17 2039.96 L1456.17 2008.40 L1475.47 2008.40 L1475.47 1996.03 L1494.90 1996.03 L1494.90 1987.12 L1514.20 1987.12 L1514.20 1978.33 L1533.51 1978.33 L1533.51 1957.04 L1552.94 1957.04 L1552.94 1937.49 L1572.24 1937.49 L1572.24 1919.67 L1591.55 1919.67 L1591.55 1901.73 L1610.98 1901.73 L1610.98 1878.46 L1630.28 1878.46 L1630.28 1864.10 L1649.59 1864.10 L1649.59 1840.72 L1669.02 1840.72 L1669.02 1833.54 L1688.32 1833.54 L1688.32 1817.33 L1707.63 1817.33 L1707.63 1808.29 L1727.06 1808.29 L1727.06 1790.22 L1746.36 1790.22 L1746.36 1775.74 L1765.66 1775.74 L1765.66 1759.41 L1784.97 1759.41 L1784.97 1741.22 L1804.40 1741.22 L1804.40 1734.04 L1823.70 1734.04 L1823.70 1715.85 L1843.01 1715.85 L1843.01 1706.69 L1862.44 1706.69 L1862.44 1690.35 L1881.74 1690.35 L1881.74 1684.91 L1901.05 1684.91 L1901.05 1668.45 L1920.48 1668.45 L1920.48 1651.99 L1939.78 1651.99 L1939.78 1637.39 L1959.09 1637.39 L1959.09 1631.94 L1978.52 1631.94 L1978.52 1628.23 L1997.82 1628.23 L1997.82 1619.20 L2017.13 1619.20 L2017.13 1610.04 L2036.43 1610.04 L2036.43 1599.02 L2055.86 1599.02 L2055.86 1593.45 L2075.16 1593.45 L2075.16 1582.56 L2094.47 1582.56 L2094.47 1575.14 L2113.90 1575.14 L2113.90 1573.41 L2133.20 1573.41 L2133.20 1564.13 L2152.51 1564.13 L2152.51 1554.97 L2171.94 1554.97 L2171.94 1543.95 L2191.24 1543.95 L2191.24 1532.94 L2210.55 1532.94 L2210.55 1525.64 L2229.97 1525.64 L2229.97 1516.36 L2249.28 1516.36 L2249.28 1512.77 L2268.59 1512.77 L2268.59 1509.05 L2287.89 1509.05 L2287.89 1507.20 L2307.32 1507.20 L2307.32 1497.92 L2326.62 1497.92 L2326.62 1490.62 L2345.93 1490.62 L2345.93 1485.05 L2365.36 1485.05 L2365.36 1481.33 L2384.66 1481.33 L2384.66 1479.60 L2403.97 1479.60 L2403.97 1474.03 L2423.40 1474.03 L2423.40 1474.03 L2442.70 1474.03 L2442.70 1468.46 L2462.01 1468.46 L2462.01 1464.75 L2481.43 1464.75 L2481.43 1461.04 L2500.74 1461.04 L2500.74 1457.45 L2520.05 1457.45 L2520.05 1455.59 L2539.35 1455.59 L2539.35 1453.74 L2558.78 1453.74 L2558.78 1451.88 L2578.08 1451.88 L2578.08 1448.17 L2597.39 1448.17 L2597.39 1446.31 L2616.82 1446.31 L2616.82 1440.74 L2636.12 1440.74 L2636.12 1440.74 L2655.43 1440.74 L2655.43 1437.03 L2674.86 1437.03 L2674.86 1433.32 L2694.16 1433.32 L2694.16 1429.60 L2713.47 1429.60 L2713.47 1429.60 L2732.89 1429.60 L2732.89 1427.75 L2752.20 1427.75 L2752.20 1427.75 L2771.51 1427.75 L2771.51 1426.02 L2790.81 1426.02 L2790.81 1424.16 L2810.24 1424.16 L2810.24 1422.30 L2829.54 1422.30 L2829.54 1422.30 L2848.85 1422.30 L2848.85 1422.30 L2868.28 1422.30 L2868.28 1422.30 L2887.58 1422.30 L2887.58 1420.45 L2906.89 1420.45 L2906.89 1418.59 L2926.32 1418.59 L2926.32 1414.88 L2945.62 1414.88 L2945.62 1414.88 L2964.93 1414.88 L2964.93 1414.88 L2984.36 1414.88 L2984.36 1414.88 L3003.66 1414.88 L3003.66 1414.88 L3022.97 1414.88 L3022.97 1414.88 L3042.39 1414.88 L3042.39 1413.02 L3061.70 1413.02 L3061.70 1409.31 L3081.00 1409.31 L3081.00 1407.45 L3100.31 1407.45 L3100.31 1407.45 L3119.74 1407.45 L3119.74 1407.45 L3139.04 1407.45 L3139.04 1407.45 L3158.35 1407.45 L3158.35 1407.45 L3177.78 1407.45 L3177.78 1407.45 L3197.08 1407.45 L3197.08 1407.45 L3216.39 1407.45 L3216.39 1407.45 L3235.82 1407.45 L3235.82 1407.45 L3255.12 1407.45 L3255.12 1407.45 L3274.43 1407.45 L3274.43 1407.45" stroke-linejoin="round" style="fill:none;stroke:#8DA3B7;stroke-width:8.64"/>
	<path d=" M953.25 2232.52 L972.55 2232.52 L972.55 2230.79 L991.98 2230.79 L991.98 2230.79 L1011.28 2230.79 L1011.28 2230.79 L1030.59 2230.79 L1030.59 2230.79 L1050.02 2230.79 L1050.02 2230.79 L1069.32 2230.79 L1069.32 2230.79 L1088.63 2230.79 L1088.63 2225.71 L1108.06 2225.71 L1108.06 2220.52 L1127.36 2220.52 L1127.36 2212.97 L1146.67 2212.97 L1146.67 2208.14 L1166.10 2208.14 L1166.10 2200.84 L1185.40 2200.84 L1185.40 2193.78 L1204.71 2193.78 L1204.71 2182.15 L1224.01 2182.15 L1224.01 2175.35 L1243.44 2175.35 L1243.44 2161.86 L1262.74 2161.86 L1262.74 2141.81 L1282.05 2141.81 L1282.05 2122.13 L1301.48 2122.13 L1301.48 2102.58 L1320.78 2102.58 L1320.78 2091.81 L1340.09 2091.81 L1340.09 2059.76 L1359.52 2059.76 L1359.52 2038.60 L1378.82 2038.60 L1378.82 2025.97 L1398.13 2025.97 L1398.13 2009.14 L1417.56 2009.14 L1417.56 1977.71 L1436.86 1977.71 L1436.86 1954.82 L1456.17 1954.82 L1456.17 1917.32 L1475.47 1917.32 L1475.47 1902.84 L1494.90 1902.84 L1494.90 1892.57 L1514.20 1892.57 L1514.20 1882.17 L1533.51 1882.17 L1533.51 1857.42 L1552.94 1857.42 L1552.94 1834.77 L1572.24 1834.77 L1572.24 1814.23 L1591.55 1814.23 L1591.55 1793.69 L1610.98 1793.69 L1610.98 1767.08 L1630.28 1767.08 L1630.28 1750.75 L1649.59 1750.75 L1649.59 1724.14 L1669.02 1724.14 L1669.02 1715.97 L1688.32 1715.97 L1688.32 1697.53 L1707.63 1697.53 L1707.63 1687.38 L1727.06 1687.38 L1727.06 1666.96 L1746.36 1666.96 L1746.36 1650.63 L1765.66 1650.63 L1765.66 1632.31 L1784.97 1632.31 L1784.97 1612.02 L1804.40 1612.02 L1804.40 1603.85 L1823.70 1603.85 L1823.70 1583.55 L1843.01 1583.55 L1843.01 1573.41 L1862.44 1573.41 L1862.44 1555.09 L1881.74 1555.09 L1881.74 1549.03 L1901.05 1549.03 L1901.05 1530.71 L1920.48 1530.71 L1920.48 1512.40 L1939.78 1512.40 L1939.78 1496.18 L1959.09 1496.18 L1959.09 1490.12 L1978.52 1490.12 L1978.52 1486.04 L1997.82 1486.04 L1997.82 1475.89 L2017.13 1475.89 L2017.13 1465.74 L2036.43 1465.74 L2036.43 1453.61 L2055.86 1453.61 L2055.86 1447.55 L2075.16 1447.55 L2075.16 1435.42 L2094.47 1435.42 L2094.47 1427.25 L2113.90 1427.25 L2113.90 1425.27 L2133.20 1425.27 L2133.20 1415.13 L2152.51 1415.13 L2152.51 1404.98 L2171.94 1404.98 L2171.94 1392.85 L2191.24 1392.85 L2191.24 1380.60 L2210.55 1380.60 L2210.55 1372.55 L2229.97 1372.55 L2229.97 1362.41 L2249.28 1362.41 L2249.28 1358.32 L2268.59 1358.32 L2268.59 1354.36 L2287.89 1354.36 L2287.89 1352.26 L2307.32 1352.26 L2307.32 1342.11 L2326.62 1342.11 L2326.62 1334.07 L2345.93 1334.07 L2345.93 1328.00 L2365.36 1328.00 L2365.36 1323.92 L2384.66 1323.92 L2384.66 1321.94 L2403.97 1321.94 L2403.97 1315.87 L2423.40 1315.87 L2423.40 1315.87 L2442.70 1315.87 L2442.70 1309.81 L2462.01 1309.81 L2462.01 1305.73 L2481.43 1305.73 L2481.43 1301.64 L2500.74 1301.64 L2500.74 1297.56 L2520.05 1297.56 L2520.05 1295.58 L2539.35 1295.58 L2539.35 1293.60 L2558.78 1293.60 L2558.78 1291.50 L2578.08 1291.50 L2578.08 1287.41 L2597.39 1287.41 L2597.39 1285.43 L2616.82 1285.43 L2616.82 1279.37 L2636.12 1279.37 L2636.12 1279.37 L2655.43 1279.37 L2655.43 1275.28 L2674.86 1275.28 L2674.86 1271.20 L2694.16 1271.20 L2694.16 1267.24 L2713.47 1267.24 L2713.47 1267.24 L2732.89 1267.24 L2732.89 1265.14 L2752.20 1265.14 L2752.20 1265.14 L2771.51 1265.14 L2771.51 1263.16 L2790.81 1263.16 L2790.81 1261.05 L2810.24 1261.05 L2810.24 1259.07 L2829.54 1259.07 L2829.54 1259.07 L2848.85 1259.07 L2848.85 1259.07 L2868.28 1259.07 L2868.28 1259.07 L2887.58 1259.07 L2887.58 1257.09 L2906.89 1257.09 L2906.89 1254.99 L2926.32 1254.99 L2926.32 1250.90 L2945.62 1250.90 L2945.62 1250.90 L2964.93 1250.90 L2964.93 1250.90 L2984.36 1250.90 L2984.36 1250.90 L3003.66 1250.90 L3003.66 1250.90 L3022.97 1250.90 L3022.97 1250.90 L3042.39 1250.90 L3042.39 1248.92 L3061.70 1248.92 L3061.70 1244.84 L3081.00 1244.84 L3081.00 1242.86 L3100.31 1242.86 L3100.31 1242.86 L3119.74 1242.86 L3119.74 1242.86 L3139.04 1242.86 L3139.04 1242.86 L3158.35 1242.86 L3158.35 1242.86 L3177.78 1242.86 L3177.78 1242.86 L3197.08 1242.86 L3197.08 1242.86 L3216.39 1242.86 L3216.39 1242.86 L3235.82 1242.86 L3235.82 1242.86 L3255.12 1242.86 L3255.12 1242.86 L3274.43 1242.86 L3274.43 1242.86" stroke-linejoin="round" style="fill:none;stroke:#8DA3B7;stroke-width:8.64"/>
	<defs>
		<path id="path_ggonEhTt" d="M1050.02 2244.52 L1050.02 2244.52 L1069.45 2244.52 L1069.45 2244.52 L1088.75 2244.52 L1088.75 2244.52 L1127.36 2244.52 L1127.36 2244.52 L1146.79 2244.52 L1146.79 2236.11 L1166.10 2236.11 L1166.10 2236.11 L1185.40 2236.11 L1185.40 2230.66 L1204.83 2230.66 L1204.83 2218.54 L1224.13 2218.54 L1224.13 2218.54 L1243.44 2218.54 L1243.44 2205.17 L1262.87 2205.17 L1262.87 2205.17 L1282.17 2205.17 L1282.17 2198.24 L1301.48 2198.24 L1301.48 2191.19 L1320.91 2191.19 L1320.91 2191.19 L1340.21 2191.19 L1340.21 2191.19 L1359.52 2191.19 L1359.52 2191.19 L1378.82 2191.19 L1378.82 2176.58 L1398.25 2176.58 L1398.25 2169.16 L1417.56 2169.16 L1417.56 2161.61 L1436.86 2161.61 L1436.86 2138.47 L1456.29 2138.47 L1456.29 2106.66 L1475.60 2106.66 L1475.60 2090.45 L1494.90 2090.45 L1494.90 2065.82 L1514.33 2065.82 L1514.33 2065.82 L1533.63 2065.82 L1533.63 2057.53 L1552.94 2057.53 L1552.94 2040.95 L1572.37 2040.95 L1572.37 2032.53 L1591.67 2032.53 L1591.67 2007.16 L1610.98 2007.16 L1610.98 1998.75 L1630.28 1998.75 L1630.28 1990.21 L1649.71 1990.21 L1649.71 1981.67 L1669.02 1981.67 L1669.02 1981.67 L1688.32 1981.67 L1688.32 1964.59 L1707.75 1964.59 L1707.75 1947.27 L1727.06 1947.27 L1727.06 1947.27 L1746.36 1947.27 L1746.36 1930.07 L1785.09 1930.07 L1785.09 1912.62 L1804.40 1912.62 L1804.40 1912.62 L1823.83 1912.62 L1823.83 1877.72 L1843.13 1877.72 L1843.13 1877.72 L1862.44 1877.72 L1862.44 1868.93 L1881.74 1868.93 L1881.74 1860.14 L1901.17 1860.14 L1901.17 1860.14 L1920.48 1860.14 L1920.48 1860.14 L1939.78 1860.14 L1939.78 1851.36 L1959.21 1851.36 L1959.21 1842.45 L1978.52 1842.45 L1978.52 1842.45 L1997.82 1842.45 L1997.82 1833.66 L2017.25 1833.66 L2017.25 1833.66 L2036.55 1833.66 L2036.55 1824.87 L2075.29 1824.87 L2075.29 1824.87 L2113.90 1824.87 L2113.90 1824.87 L2133.20 1824.87 L2133.20 1815.96 L2152.63 1815.96 L2152.63 1815.96 L2171.94 1815.96 L2171.94 1807.05 L2191.24 1807.05 L2191.24 1798.27 L2210.67 1798.27 L2210.67 1798.27 L2229.97 1798.27 L2229.97 1789.36 L2249.28 1789.36 L2249.28 1771.54 L2268.71 1771.54 L2268.71 1762.50 L2288.01 1762.50 L2288.01 1762.50 L2307.32 1762.50 L2307.32 1735.65 L2326.75 1735.65 L2326.75 1735.65 L2346.05 1735.65 L2346.05 1726.74 L2384.79 1726.74 L2384.79 1726.74 L2404.09 1726.74 L2404.09 1726.74 L2462.13 1726.74 L2462.13 1717.70 L2481.43 1717.70 L2481.43 1717.70 L2500.74 1717.70 L2500.74 1717.70 L2520.17 1717.70 L2520.17 1717.70 L2539.47 1717.70 L2539.47 1717.70 L2558.78 1717.70 L2558.78 1717.70 L2578.21 1717.70 L2578.21 1717.70 L2597.51 1717.70 L2597.51 1717.70 L2616.82 1717.70 L2616.82 1717.70 L2674.86 1717.70 L2674.86 1717.70 L2713.59 1717.70 L2713.59 1717.70 L2732.89 1717.70 L2732.89 1717.70 L2752.20 1717.70 L2752.20 1717.70 L2790.93 1717.70 L2790.93 1717.70 L2810.24 1717.70 L2810.24 1717.70 L2848.97 1717.70 L2848.97 1708.79 L2868.28 1708.79 L2868.28 1708.79 L2887.71 1708.79 L2887.71 1708.79 L2926.32 1708.79 L2926.32 1699.76 L2945.62 1699.76 L2945.62 1699.76 L2965.05 1699.76 L2965.05 1699.76 L2984.36 1699.76 L2984.36 1699.76 L3023.09 1699.76 L3023.09 1690.73 L3042.39 1690.73 L3042.39 1690.73 L3061.70 1690.73 L3061.70 1690.73 L3081.13 1690.73 L3081.13 1690.73 L3100.43 1690.73 L3100.43 1690.73 L3119.74 1690.73 L3119.74 1690.73 L3158.47 1690.73 L3158.47 1690.73 L3177.78 1690.73 L3177.78 1681.69 L3197.08 1681.69 L3197.08 1681.69 L3216.51 1681.69 L3216.51 1681.69 L3235.82 1681.69 L3235.82 1681.69 L3274.55 1681.69 L3274.55 1681.69 L3274.55 1344.96 L3274.55 1344.96 L3235.82 1344.96 L3235.82 1344.96 L3216.51 1344.96 L3216.51 1344.96 L3197.08 1344.96 L3197.08 1344.96 L3177.78 1344.96 L3177.78 1356.34 L3158.47 1356.34 L3158.47 1356.34 L3119.74 1356.34 L3119.74 1356.34 L3100.43 1356.34 L3100.43 1356.34 L3081.13 1356.34 L3081.13 1356.34 L3061.70 1356.34 L3061.70 1356.34 L3042.39 1356.34 L3042.39 1356.34 L3023.09 1356.34 L3023.09 1367.85 L2984.36 1367.85 L2984.36 1367.85 L2965.05 1367.85 L2965.05 1367.85 L2945.62 1367.85 L2945.62 1367.85 L2926.32 1367.85 L2926.32 1379.24 L2887.71 1379.24 L2887.71 1379.24 L2868.28 1379.24 L2868.28 1379.24 L2848.97 1379.24 L2848.97 1390.62 L2810.24 1390.62 L2810.24 1390.62 L2790.93 1390.62 L2790.93 1390.62 L2752.20 1390.62 L2752.20 1390.62 L2732.89 1390.62 L2732.89 1390.62 L2713.59 1390.62 L2713.59 1390.62 L2674.86 1390.62 L2674.86 1390.62 L2616.82 1390.62 L2616.82 1390.62 L2597.51 1390.62 L2597.51 1390.62 L2578.21 1390.62 L2578.21 1390.62 L2558.78 1390.62 L2558.78 1390.62 L2539.47 1390.62 L2539.47 1390.62 L2520.17 1390.62 L2520.17 1390.62 L2500.74 1390.62 L2500.74 1390.62 L2481.43 1390.62 L2481.43 1390.62 L2462.13 1390.62 L2462.13 1402.13 L2404.09 1402.13 L2404.09 1402.13 L2384.79 1402.13 L2384.79 1402.13 L2346.05 1402.13 L2346.05 1413.52 L2326.75 1413.52 L2326.75 1413.52 L2307.32 1413.52 L2307.32 1447.92 L2288.01 1447.92 L2288.01 1447.92 L2268.71 1447.92 L2268.71 1459.31 L2249.28 1459.31 L2249.28 1482.32 L2229.97 1482.32 L2229.97 1493.83 L2210.67 1493.83 L2210.67 1493.83 L2191.24 1493.83 L2191.24 1505.34 L2171.94 1505.34 L2171.94 1516.85 L2152.63 1516.85 L2152.63 1516.85 L2133.20 1516.85 L2133.20 1528.36 L2113.90 1528.36 L2113.90 1528.36 L2075.29 1528.36 L2075.29 1528.36 L2036.55 1528.36 L2036.55 1539.99 L2017.25 1539.99 L2017.25 1539.99 L1997.82 1539.99 L1997.82 1551.50 L1978.52 1551.50 L1978.52 1551.50 L1959.21 1551.50 L1959.21 1563.01 L1939.78 1563.01 L1939.78 1574.64 L1920.48 1574.64 L1920.48 1574.64 L1901.17 1574.64 L1901.17 1574.64 L1881.74 1574.64 L1881.74 1586.28 L1862.44 1586.28 L1862.44 1597.79 L1843.13 1597.79 L1843.13 1597.79 L1823.83 1597.79 L1823.83 1644.44 L1804.40 1644.44 L1804.40 1644.44 L1785.09 1644.44 L1785.09 1667.71 L1746.36 1667.71 L1746.36 1691.22 L1727.06 1691.22 L1727.06 1691.22 L1707.75 1691.22 L1707.75 1714.73 L1688.32 1714.73 L1688.32 1738.25 L1669.02 1738.25 L1669.02 1738.25 L1649.71 1738.25 L1649.71 1750.13 L1630.28 1750.13 L1630.28 1761.88 L1610.98 1761.88 L1610.98 1773.76 L1591.67 1773.76 L1591.67 1809.53 L1572.37 1809.53 L1572.37 1821.53 L1552.94 1821.53 L1552.94 1845.54 L1533.63 1845.54 L1533.63 1857.55 L1514.33 1857.55 L1514.33 1857.55 L1494.90 1857.55 L1494.90 1893.93 L1475.60 1893.93 L1475.60 1918.43 L1456.29 1918.43 L1456.29 1967.93 L1436.86 1967.93 L1436.86 2005.56 L1417.56 2005.56 L1417.56 2018.30 L1398.25 2018.30 L1398.25 2031.17 L1378.82 2031.17 L1378.82 2057.04 L1359.52 2057.04 L1359.52 2057.04 L1340.21 2057.04 L1340.21 2057.04 L1320.91 2057.04 L1320.91 2057.04 L1301.48 2057.04 L1301.48 2070.15 L1282.17 2070.15 L1282.17 2083.27 L1262.87 2083.27 L1262.87 2083.27 L1243.44 2083.27 L1243.44 2110.13 L1224.13 2110.13 L1224.13 2110.13 L1204.83 2110.13 L1204.83 2137.60 L1185.40 2137.60 L1185.40 2151.34 L1166.10 2151.34 L1166.10 2151.34 L1146.79 2151.34 L1146.79 2173.74 L1127.36 2173.74 L1127.36 2173.74 L1088.75 2173.74 L1088.75 2173.74 L1069.45 2173.74 L1069.45 2173.74 L1050.02 2173.74 L1050.02 2244.52 Z" stroke-linejoin="round"/>
	</defs>
	<defs>
		<clipPath id="clipPath_FVilkywD">
			<use xlink:href="#path_ggonEhTt"/>
		</clipPath>
	</defs>
	<use xlink:href="#path_ggonEhTt" style="stroke:none;fill:#EEE1E2"/>
	<use xlink:href="#path_ggonEhTt" style="fill:none;stroke:#EEE1E2;stroke-width:17.28" clip-path="url(#clipPath_FVilkywD)"/>
	<path d=" M1050.02 2244.52 L1069.32 2244.52 L1069.32 2244.52 L1088.63 2244.52 L1088.63 2244.52 L1127.36 2244.52 L1127.36 2244.52 L1146.67 2244.52 L1146.67 2236.11 L1166.10 2236.11 L1166.10 2236.11 L1185.40 2236.11 L1185.40 2230.66 L1204.71 2230.66 L1204.71 2218.54 L1224.01 2218.54 L1224.01 2218.54 L1243.44 2218.54 L1243.44 2205.29 L1262.74 2205.29 L1262.74 2205.29 L1282.05 2205.29 L1282.05 2198.36 L1301.48 2198.36 L1301.48 2191.31 L1320.78 2191.31 L1320.78 2191.31 L1340.09 2191.31 L1340.09 2191.31 L1359.52 2191.31 L1359.52 2191.31 L1378.82 2191.31 L1378.82 2176.71 L1398.13 2176.71 L1398.13 2169.16 L1417.56 2169.16 L1417.56 2161.61 L1436.86 2161.61 L1436.86 2138.47 L1456.17 2138.47 L1456.17 2106.66 L1475.47 2106.66 L1475.47 2090.45 L1494.90 2090.45 L1494.90 2065.95 L1514.20 2065.95 L1514.20 2065.95 L1533.51 2065.95 L1533.51 2057.66 L1552.94 2057.66 L1552.94 2040.95 L1572.24 2040.95 L1572.24 2032.53 L1591.55 2032.53 L1591.55 2007.29 L1610.98 2007.29 L1610.98 1998.75 L1630.28 1998.75 L1630.28 1990.21 L1649.59 1990.21 L1649.59 1981.67 L1669.02 1981.67 L1669.02 1981.67 L1688.32 1981.67 L1688.32 1964.59 L1707.63 1964.59 L1707.63 1947.39 L1727.06 1947.39 L1727.06 1947.39 L1746.36 1947.39 L1746.36 1930.07 L1784.97 1930.07 L1784.97 1912.74 L1804.40 1912.74 L1804.40 1912.74 L1823.70 1912.74 L1823.70 1877.72 L1843.01 1877.72 L1843.01 1877.72 L1862.44 1877.72 L1862.44 1868.93 L1881.74 1868.93 L1881.74 1860.14 L1901.05 1860.14 L1901.05 1860.14 L1920.48 1860.14 L1920.48 1860.14 L1939.78 1860.14 L1939.78 1851.36 L1959.09 1851.36 L1959.09 1842.57 L1978.52 1842.57 L1978.52 1842.57 L1997.82 1842.57 L1997.82 1833.78 L2017.13 1833.78 L2017.13 1833.78 L2036.43 1833.78 L2036.43 1824.87 L2075.16 1824.87 L2075.16 1824.87 L2113.90 1824.87 L2113.90 1824.87 L2133.20 1824.87 L2133.20 1815.96 L2152.51 1815.96 L2152.51 1815.96 L2171.94 1815.96 L2171.94 1807.18 L2191.24 1807.18 L2191.24 1798.27 L2210.55 1798.27 L2210.55 1798.27 L2229.97 1798.27 L2229.97 1789.36 L2249.28 1789.36 L2249.28 1771.54 L2268.59 1771.54 L2268.59 1762.63 L2287.89 1762.63 L2287.89 1762.63 L2307.32 1762.63 L2307.32 1735.77 L2326.62 1735.77 L2326.62 1735.77 L2345.93 1735.77 L2345.93 1726.74 L2384.66 1726.74 L2384.66 1726.74 L2403.97 1726.74 L2403.97 1726.74 L2462.01 1726.74 L2462.01 1717.83 L2481.43 1717.83 L2481.43 1717.83 L2500.74 1717.83 L2500.74 1717.83 L2520.05 1717.83 L2520.05 1717.83 L2539.35 1717.83 L2539.35 1717.83 L2558.78 1717.83 L2558.78 1717.83 L2578.08 1717.83 L2578.08 1717.83 L2597.39 1717.83 L2597.39 1717.83 L2616.82 1717.83 L2616.82 1717.83 L2674.86 1717.83 L2674.86 1717.83 L2713.47 1717.83 L2713.47 1717.83 L2732.89 1717.83 L2732.89 1717.83 L2752.20 1717.83 L2752.20 1717.83 L2790.81 1717.83 L2790.81 1717.83 L2810.24 1717.83 L2810.24 1717.83 L2848.85 1717.83 L2848.85 1708.79 L2868.28 1708.79 L2868.28 1708.79 L2887.58 1708.79 L2887.58 1708.79 L2926.32 1708.79 L2926.32 1699.76 L2945.62 1699.76 L2945.62 1699.76 L2964.93 1699.76 L2964.93 1699.76 L2984.36 1699.76 L2984.36 1699.76 L3022.97 1699.76 L3022.97 1690.73 L3042.39 1690.73 L3042.39 1690.73 L3061.70 1690.73 L3061.70 1690.73 L3081.00 1690.73 L3081.00 1690.73 L3100.31 1690.73 L3100.31 1690.73 L3119.74 1690.73 L3119.74 1690.73 L3158.35 1690.73 L3158.35 1690.73 L3177.78 1690.73 L3177.78 1681.69 L3197.08 1681.69 L3197.08 1681.69 L3216.39 1681.69 L3216.39 1681.69 L3235.82 1681.69 L3235.82 1681.69 L3274.43 1681.69 L3274.43 1681.69" stroke-linejoin="round" style="fill:none;stroke:#C89A9D;stroke-width:8.64"/>
	<path d=" M1050.02 2173.86 L1069.32 2173.86 L1069.32 2173.86 L1088.63 2173.86 L1088.63 2173.86 L1127.36 2173.86 L1127.36 2173.86 L1146.67 2173.86 L1146.67 2151.46 L1166.10 2151.46 L1166.10 2151.46 L1185.40 2151.46 L1185.40 2137.60 L1204.71 2137.60 L1204.71 2110.25 L1224.01 2110.25 L1224.01 2110.25 L1243.44 2110.25 L1243.44 2083.40 L1262.74 2083.40 L1262.74 2083.40 L1282.05 2083.40 L1282.05 2070.15 L1301.48 2070.15 L1301.48 2057.04 L1320.78 2057.04 L1320.78 2057.04 L1340.09 2057.04 L1340.09 2057.04 L1359.52 2057.04 L1359.52 2057.04 L1378.82 2057.04 L1378.82 2031.17 L1398.13 2031.17 L1398.13 2018.43 L1417.56 2018.43 L1417.56 2005.68 L1436.86 2005.68 L1436.86 1967.93 L1456.17 1967.93 L1456.17 1918.43 L1475.47 1918.43 L1475.47 1894.05 L1494.90 1894.05 L1494.90 1857.67 L1514.20 1857.67 L1514.20 1857.67 L1533.51 1857.67 L1533.51 1845.67 L1552.94 1845.67 L1552.94 1821.53 L1572.24 1821.53 L1572.24 1809.65 L1591.55 1809.65 L1591.55 1773.89 L1610.98 1773.89 L1610.98 1762.01 L1630.28 1762.01 L1630.28 1750.13 L1649.59 1750.13 L1649.59 1738.37 L1669.02 1738.37 L1669.02 1738.37 L1688.32 1738.37 L1688.32 1714.73 L1707.63 1714.73 L1707.63 1691.22 L1727.06 1691.22 L1727.06 1691.22 L1746.36 1691.22 L1746.36 1667.83 L1784.97 1667.83 L1784.97 1644.44 L1804.40 1644.44 L1804.40 1644.44 L1823.70 1644.44 L1823.70 1597.91 L1843.01 1597.91 L1843.01 1597.91 L1862.44 1597.91 L1862.44 1586.28 L1881.74 1586.28 L1881.74 1574.77 L1901.05 1574.77 L1901.05 1574.77 L1920.48 1574.77 L1920.48 1574.77 L1939.78 1574.77 L1939.78 1563.14 L1959.09 1563.14 L1959.09 1551.50 L1978.52 1551.50 L1978.52 1551.50 L1997.82 1551.50 L1997.82 1539.99 L2017.13 1539.99 L2017.13 1539.99 L2036.43 1539.99 L2036.43 1528.48 L2075.16 1528.48 L2075.16 1528.48 L2113.90 1528.48 L2113.90 1528.48 L2133.20 1528.48 L2133.20 1516.97 L2152.51 1516.97 L2152.51 1516.97 L2171.94 1516.97 L2171.94 1505.47 L2191.24 1505.47 L2191.24 1493.96 L2210.55 1493.96 L2210.55 1493.96 L2229.97 1493.96 L2229.97 1482.45 L2249.28 1482.45 L2249.28 1459.43 L2268.59 1459.43 L2268.59 1447.92 L2287.89 1447.92 L2287.89 1447.92 L2307.32 1447.92 L2307.32 1413.64 L2326.62 1413.64 L2326.62 1413.64 L2345.93 1413.64 L2345.93 1402.13 L2384.66 1402.13 L2384.66 1402.13 L2403.97 1402.13 L2403.97 1402.13 L2462.01 1402.13 L2462.01 1390.75 L2481.43 1390.75 L2481.43 1390.75 L2500.74 1390.75 L2500.74 1390.75 L2520.05 1390.75 L2520.05 1390.75 L2539.35 1390.75 L2539.35 1390.75 L2558.78 1390.75 L2558.78 1390.75 L2578.08 1390.75 L2578.08 1390.75 L2597.39 1390.75 L2597.39 1390.75 L2616.82 1390.75 L2616.82 1390.75 L2674.86 1390.75 L2674.86 1390.75 L2713.47 1390.75 L2713.47 1390.75 L2732.89 1390.75 L2732.89 1390.75 L2752.20 1390.75 L2752.20 1390.75 L2790.81 1390.75 L2790.81 1390.75 L2810.24 1390.75 L2810.24 1390.75 L2848.85 1390.75 L2848.85 1379.36 L2868.28 1379.36 L2868.28 1379.36 L2887.58 1379.36 L2887.58 1379.36 L2926.32 1379.36 L2926.32 1367.85 L2945.62 1367.85 L2945.62 1367.85 L2964.93 1367.85 L2964.93 1367.85 L2984.36 1367.85 L2984.36 1367.85 L3022.97 1367.85 L3022.97 1356.47 L3042.39 1356.47 L3042.39 1356.47 L3061.70 1356.47 L3061.70 1356.47 L3081.00 1356.47 L3081.00 1356.47 L3100.31 1356.47 L3100.31 1356.47 L3119.74 1356.47 L3119.74 1356.47 L3158.35 1356.47 L3158.35 1356.47 L3177.78 1356.47 L3177.78 1345.08 L3197.08 1345.08 L3197.08 1345.08 L3216.39 1345.08 L3216.39 1345.08 L3235.82 1345.08 L3235.82 1345.08 L3274.43 1345.08 L3274.43 1345.08" stroke-linejoin="round" style="fill:none;stroke:#C89A9D;stroke-width:8.64"/>
	<path d=" M682.48 2246.01 L682.48 2246.01 L682.48 2246.01 L692.13 2246.01 L692.13 2246.01 L701.79 2246.01 L701.79 2246.01 L721.09 2246.01 L721.09 2246.01 L740.52 2246.01 L740.52 2246.01 L759.83 2246.01 L759.83 2246.01 L779.13 2246.01 L779.13 2246.01 L798.56 2246.01 L798.56 2246.01 L817.86 2246.01 L817.86 2246.01 L837.17 2246.01 L837.17 2246.01 L856.60 2246.01 L856.60 2246.01 L875.90 2246.01 L875.90 2246.01 L895.21 2246.01 L895.21 2246.01 L914.64 2246.01 L914.64 2246.01 L933.94 2246.01 L933.94 2246.01 L953.25 2246.01 L953.25 2244.03 L972.55 2244.03 L972.55 2242.17 L991.98 2242.17 L991.98 2242.17 L1011.28 2242.17 L1011.28 2242.17 L1030.59 2242.17 L1030.59 2242.17 L1050.02 2242.17 L1050.02 2242.17 L1069.32 2242.17 L1069.32 2242.17 L1088.63 2242.17 L1088.63 2238.34 L1108.06 2238.34 L1108.06 2234.50 L1127.36 2234.50 L1127.36 2228.81 L1146.67 2228.81 L1146.67 2224.97 L1166.10 2224.97 L1166.10 2219.28 L1185.40 2219.28 L1185.40 2213.59 L1204.71 2213.59 L1204.71 2203.93 L1224.01 2203.93 L1224.01 2198.24 L1243.44 2198.24 L1243.44 2186.73 L1262.74 2186.73 L1262.74 2169.53 L1282.05 2169.53 L1282.05 2152.33 L1301.48 2152.33 L1301.48 2135.13 L1320.78 2135.13 L1320.78 2125.60 L1340.09 2125.60 L1340.09 2096.89 L1359.52 2096.89 L1359.52 2077.70 L1378.82 2077.70 L1378.82 2066.19 L1398.13 2066.19 L1398.13 2050.85 L1417.56 2050.85 L1417.56 2022.14 L1436.86 2022.14 L1436.86 2001.10 L1456.17 2001.10 L1456.17 1966.57 L1475.47 1966.57 L1475.47 1953.08 L1494.90 1953.08 L1494.90 1943.55 L1514.20 1943.55 L1514.20 1933.90 L1533.51 1933.90 L1533.51 1910.88 L1552.94 1910.88 L1552.94 1889.85 L1572.24 1889.85 L1572.24 1870.66 L1591.55 1870.66 L1591.55 1851.36 L1610.98 1851.36 L1610.98 1826.48 L1630.28 1826.48 L1630.28 1811.01 L1649.59 1811.01 L1649.59 1786.14 L1669.02 1786.14 L1669.02 1778.34 L1688.32 1778.34 L1688.32 1761.14 L1707.63 1761.14 L1707.63 1751.49 L1727.06 1751.49 L1727.06 1732.31 L1746.36 1732.31 L1746.36 1716.84 L1765.66 1716.84 L1765.66 1699.51 L1784.97 1699.51 L1784.97 1680.33 L1804.40 1680.33 L1804.40 1672.53 L1823.70 1672.53 L1823.70 1653.35 L1843.01 1653.35 L1843.01 1643.70 L1862.44 1643.70 L1862.44 1626.37 L1881.74 1626.37 L1881.74 1620.56 L1901.05 1620.56 L1901.05 1603.23 L1920.48 1603.23 L1920.48 1585.91 L1939.78 1585.91 L1939.78 1570.44 L1959.09 1570.44 L1959.09 1564.74 L1978.52 1564.74 L1978.52 1560.91 L1997.82 1560.91 L1997.82 1551.25 L2017.13 1551.25 L2017.13 1541.60 L2036.43 1541.60 L2036.43 1529.97 L2055.86 1529.97 L2055.86 1524.15 L2075.16 1524.15 L2075.16 1512.64 L2094.47 1512.64 L2094.47 1504.85 L2113.90 1504.85 L2113.90 1502.99 L2133.20 1502.99 L2133.20 1493.34 L2152.51 1493.34 L2152.51 1483.69 L2171.94 1483.69 L2171.94 1472.05 L2191.24 1472.05 L2191.24 1460.42 L2210.55 1460.42 L2210.55 1452.75 L2229.97 1452.75 L2229.97 1443.09 L2249.28 1443.09 L2249.28 1439.26 L2268.59 1439.26 L2268.59 1435.30 L2287.89 1435.30 L2287.89 1433.44 L2307.32 1433.44 L2307.32 1423.79 L2326.62 1423.79 L2326.62 1415.99 L2345.93 1415.99 L2345.93 1410.18 L2365.36 1410.18 L2365.36 1406.34 L2384.66 1406.34 L2384.66 1404.36 L2403.97 1404.36 L2403.97 1398.54 L2423.40 1398.54 L2423.40 1398.54 L2442.70 1398.54 L2442.70 1392.85 L2462.01 1392.85 L2462.01 1388.89 L2481.43 1388.89 L2481.43 1385.05 L2500.74 1385.05 L2500.74 1381.22 L2520.05 1381.22 L2520.05 1379.24 L2539.35 1379.24 L2539.35 1377.26 L2558.78 1377.26 L2558.78 1375.40 L2578.08 1375.40 L2578.08 1371.44 L2597.39 1371.44 L2597.39 1369.58 L2616.82 1369.58 L2616.82 1363.77 L2636.12 1363.77 L2636.12 1363.77 L2655.43 1363.77 L2655.43 1359.81 L2674.86 1359.81 L2674.86 1355.97 L2694.16 1355.97 L2694.16 1352.13 L2713.47 1352.13 L2713.47 1352.13 L2732.89 1352.13 L2732.89 1350.15 L2752.20 1350.15 L2752.20 1350.15 L2771.51 1350.15 L2771.51 1348.17 L2790.81 1348.17 L2790.81 1346.32 L2810.24 1346.32 L2810.24 1344.34 L2829.54 1344.34 L2829.54 1344.34 L2848.85 1344.34 L2848.85 1344.34 L2868.28 1344.34 L2868.28 1344.34 L2887.58 1344.34 L2887.58 1342.36 L2906.89 1342.36 L2906.89 1340.50 L2926.32 1340.50 L2926.32 1336.54 L2945.62 1336.54 L2945.62 1336.54 L2964.93 1336.54 L2964.93 1336.54 L2984.36 1336.54 L2984.36 1336.54 L3003.66 1336.54 L3003.66 1336.54 L3022.97 1336.54 L3022.97 1336.54 L3042.39 1336.54 L3042.39 1334.56 L3061.70 1334.56 L3061.70 1330.73 L3081.00 1330.73 L3081.00 1328.75 L3100.31 1328.75 L3100.31 1328.75 L3119.74 1328.75 L3119.74 1328.75 L3139.04 1328.75 L3139.04 1328.75 L3158.35 1328.75 L3158.35 1328.75 L3177.78 1328.75 L3177.78 1328.75 L3197.08 1328.75 L3197.08 1328.75 L3216.39 1328.75 L3216.39 1328.75 L3235.82 1328.75 L3235.82 1328.75 L3255.12 1328.75 L3255.12 1328.75 L3274.43 1328.75 L3274.43 1328.75" stroke-linejoin="round" style="fill:none;stroke:#1A476F;stroke-width:8.64"/>
	<path d=" M682.48 2246.01 L682.48 2246.01 L682.48 2246.01 L692.13 2246.01 L692.13 2246.01 L701.79 2246.01 L701.79 2246.01 L721.09 2246.01 L721.09 2246.01 L740.52 2246.01 L740.52 2246.01 L759.83 2246.01 L759.83 2246.01 L779.13 2246.01 L779.13 2246.01 L798.56 2246.01 L798.56 2246.01 L817.86 2246.01 L817.86 2246.01 L837.17 2246.01 L837.17 2246.01 L875.90 2246.01 L875.90 2246.01 L895.21 2246.01 L895.21 2246.01 L914.64 2246.01 L914.64 2246.01 L933.94 2246.01 L933.94 2246.01 L953.25 2246.01 L953.25 2246.01 L972.55 2246.01 L972.55 2246.01 L991.98 2246.01 L991.98 2246.01 L1011.28 2246.01 L1011.28 2246.01 L1050.02 2246.01 L1050.02 2235.74 L1069.32 2235.74 L1069.32 2235.74 L1088.63 2235.74 L1088.63 2235.74 L1127.36 2235.74 L1127.36 2235.74 L1146.67 2235.74 L1146.67 2215.44 L1166.10 2215.44 L1166.10 2215.44 L1185.40 2215.44 L1185.40 2205.29 L1204.71 2205.29 L1204.71 2185.00 L1224.01 2185.00 L1224.01 2185.00 L1243.44 2185.00 L1243.44 2164.58 L1262.74 2164.58 L1262.74 2164.58 L1282.05 2164.58 L1282.05 2154.43 L1301.48 2154.43 L1301.48 2144.28 L1320.78 2144.28 L1320.78 2144.28 L1340.09 2144.28 L1340.09 2144.28 L1359.52 2144.28 L1359.52 2144.28 L1378.82 2144.28 L1378.82 2123.99 L1398.13 2123.99 L1398.13 2113.84 L1417.56 2113.84 L1417.56 2103.57 L1436.86 2103.57 L1436.86 2073.12 L1456.17 2073.12 L1456.17 2032.41 L1475.47 2032.41 L1475.47 2012.11 L1494.90 2012.11 L1494.90 1981.55 L1514.20 1981.55 L1514.20 1981.55 L1533.51 1981.55 L1533.51 1971.40 L1552.94 1971.40 L1552.94 1950.98 L1572.24 1950.98 L1572.24 1940.83 L1591.55 1940.83 L1591.55 1910.26 L1610.98 1910.26 L1610.98 1900.12 L1630.28 1900.12 L1630.28 1889.85 L1649.59 1889.85 L1649.59 1879.70 L1669.02 1879.70 L1669.02 1879.70 L1688.32 1879.70 L1688.32 1859.40 L1707.63 1859.40 L1707.63 1838.98 L1727.06 1838.98 L1727.06 1838.98 L1746.36 1838.98 L1746.36 1818.56 L1784.97 1818.56 L1784.97 1798.27 L1804.40 1798.27 L1804.40 1798.27 L1823.70 1798.27 L1823.70 1757.43 L1843.01 1757.43 L1843.01 1757.43 L1862.44 1757.43 L1862.44 1747.28 L1881.74 1747.28 L1881.74 1737.13 L1901.05 1737.13 L1901.05 1737.13 L1920.48 1737.13 L1920.48 1737.13 L1939.78 1737.13 L1939.78 1726.86 L1959.09 1726.86 L1959.09 1716.71 L1978.52 1716.71 L1978.52 1716.71 L1997.82 1716.71 L1997.82 1706.44 L2017.13 1706.44 L2017.13 1706.44 L2036.43 1706.44 L2036.43 1696.29 L2075.16 1696.29 L2075.16 1696.29 L2113.90 1696.29 L2113.90 1696.29 L2133.20 1696.29 L2133.20 1686.15 L2152.51 1686.15 L2152.51 1686.15 L2171.94 1686.15 L2171.94 1675.87 L2191.24 1675.87 L2191.24 1665.73 L2210.55 1665.73 L2210.55 1665.73 L2229.97 1665.73 L2229.97 1655.46 L2249.28 1655.46 L2249.28 1635.04 L2268.59 1635.04 L2268.59 1624.89 L2287.89 1624.89 L2287.89 1624.89 L2307.32 1624.89 L2307.32 1594.32 L2326.62 1594.32 L2326.62 1594.32 L2345.93 1594.32 L2345.93 1584.05 L2384.66 1584.05 L2384.66 1584.05 L2403.97 1584.05 L2403.97 1584.05 L2462.01 1584.05 L2462.01 1573.90 L2481.43 1573.90 L2481.43 1573.90 L2500.74 1573.90 L2500.74 1573.90 L2520.05 1573.90 L2520.05 1573.90 L2539.35 1573.90 L2539.35 1573.90 L2558.78 1573.90 L2558.78 1573.90 L2578.08 1573.90 L2578.08 1573.90 L2597.39 1573.90 L2597.39 1573.90 L2616.82 1573.90 L2616.82 1573.90 L2674.86 1573.90 L2674.86 1573.90 L2713.47 1573.90 L2713.47 1573.90 L2732.89 1573.90 L2732.89 1573.90 L2752.20 1573.90 L2752.20 1573.90 L2790.81 1573.90 L2790.81 1573.90 L2810.24 1573.90 L2810.24 1573.90 L2848.85 1573.90 L2848.85 1563.63 L2868.28 1563.63 L2868.28 1563.63 L2887.58 1563.63 L2887.58 1563.63 L2926.32 1563.63 L2926.32 1553.48 L2945.62 1553.48 L2945.62 1553.48 L2964.93 1553.48 L2964.93 1553.48 L2984.36 1553.48 L2984.36 1553.48 L3022.97 1553.48 L3022.97 1543.21 L3042.39 1543.21 L3042.39 1543.21 L3061.70 1543.21 L3061.70 1543.21 L3081.00 1543.21 L3081.00 1543.21 L3100.31 1543.21 L3100.31 1543.21 L3119.74 1543.21 L3119.74 1543.21 L3158.35 1543.21 L3158.35 1543.21 L3177.78 1543.21 L3177.78 1532.94 L3197.08 1532.94 L3197.08 1532.94 L3216.39 1532.94 L3216.39 1532.94 L3235.82 1532.94 L3235.82 1532.94 L3274.43 1532.94 L3274.43 1532.94" stroke-linejoin="round" style="fill:none;stroke:#90353B;stroke-width:8.64"/>
	<line x1="619.12" y1="2309.25" x2="619.12" y2="630.90" style="stroke:#000000;stroke-width:5.76"/>
	<line x1="619.12" y1="2245.89" x2="579.15" y2="2245.89" style="stroke:#000000;stroke-width:5.76"/>
	<text x="559.23" y="2273.90" style="font-family:'Helvetica';font-size:79.94px;fill:#000000" text-anchor="end">0.000</text>
	<line x1="619.12" y1="1935.51" x2="579.15" y2="1935.51" style="stroke:#000000;stroke-width:5.76"/>
	<text x="559.23" y="1963.52" style="font-family:'Helvetica';font-size:79.94px;fill:#000000" text-anchor="end">0.001</text>
	<line x1="619.12" y1="1625.26" x2="579.15" y2="1625.26" style="stroke:#000000;stroke-width:5.76"/>
	<text x="559.23" y="1653.27" style="font-family:'Helvetica';font-size:79.94px;fill:#000000" text-anchor="end">0.002</text>
	<line x1="619.12" y1="1314.88" x2="579.15" y2="1314.88" style="stroke:#000000;stroke-width:5.76"/>
	<text x="559.23" y="1342.90" style="font-family:'Helvetica';font-size:79.94px;fill:#000000" text-anchor="end">0.003</text>
	<line x1="619.12" y1="1004.51" x2="579.15" y2="1004.51" style="stroke:#000000;stroke-width:5.76"/>
	<text x="559.23" y="1032.52" style="font-family:'Helvetica';font-size:79.94px;fill:#000000" text-anchor="end">0.004</text>
	<line x1="619.12" y1="694.26" x2="579.15" y2="694.26" style="stroke:#000000;stroke-width:5.76"/>
	<text x="559.23" y="722.27" style="font-family:'Helvetica';font-size:79.94px;fill:#000000" text-anchor="end">0.005</text>
	<line x1="619.12" y1="2309.25" x2="3840.83" y2="2309.25" style="stroke:#000000;stroke-width:5.76"/>
	<line x1="682.48" y1="2309.25" x2="682.48" y2="2349.22" style="stroke:#000000;stroke-width:5.76"/>
	<text x="682.48" y="2425.17" style="font-family:'Helvetica';font-size:79.94px;fill:#000000" text-anchor="middle">0</text>
	<line x1="1069.45" y1="2309.25" x2="1069.45" y2="2349.22" style="stroke:#000000;stroke-width:5.76"/>
	<text x="1069.45" y="2425.17" style="font-family:'Helvetica';font-size:79.94px;fill:#000000" text-anchor="middle">20</text>
	<line x1="1456.29" y1="2309.25" x2="1456.29" y2="2349.22" style="stroke:#000000;stroke-width:5.76"/>
	<text x="1456.29" y="2425.17" style="font-family:'Helvetica';font-size:79.94px;fill:#000000" text-anchor="middle">40</text>
	<line x1="1843.13" y1="2309.25" x2="1843.13" y2="2349.22" style="stroke:#000000;stroke-width:5.76"/>
	<text x="1843.13" y="2425.17" style="font-family:'Helvetica';font-size:79.94px;fill:#000000" text-anchor="middle">60</text>
	<line x1="2229.97" y1="2309.25" x2="2229.97" y2="2349.22" style="stroke:#000000;stroke-width:5.76"/>
	<text x="2229.97" y="2425.17" style="font-family:'Helvetica';font-size:79.94px;fill:#000000" text-anchor="middle">80</text>
	<line x1="2616.82" y1="2309.25" x2="2616.82" y2="2349.22" style="stroke:#000000;stroke-width:5.76"/>
	<text x="2616.82" y="2425.17" style="font-family:'Helvetica';font-size:79.94px;fill:#000000" text-anchor="middle">100</text>
	<line x1="3003.66" y1="2309.25" x2="3003.66" y2="2349.22" style="stroke:#000000;stroke-width:5.76"/>
	<text x="3003.66" y="2425.17" style="font-family:'Helvetica';font-size:79.94px;fill:#000000" text-anchor="middle">120</text>
	<line x1="3390.63" y1="2309.25" x2="3390.63" y2="2349.22" style="stroke:#000000;stroke-width:5.76"/>
	<text x="3390.63" y="2425.17" style="font-family:'Helvetica';font-size:79.94px;fill:#000000" text-anchor="middle">140</text>
	<line x1="3777.47" y1="2309.25" x2="3777.47" y2="2349.22" style="stroke:#000000;stroke-width:5.76"/>
	<text x="3777.47" y="2425.17" style="font-family:'Helvetica';font-size:79.94px;fill:#000000" text-anchor="middle">160</text>
	<text x="2229.97" y="2515.14" style="font-family:'Helvetica';font-size:79.94px;fill:#000000" text-anchor="middle">Days since 1 Mar 2020</text>
	<text x="682.48" y="2747.83" style="font-family:'Helvetica';font-size:60.02px;fill:#000000" text-anchor="middle">30569</text>
	<text x="1069.45" y="2747.83" style="font-family:'Helvetica';font-size:60.02px;fill:#000000" text-anchor="middle">30537</text>
	<text x="1456.29" y="2747.83" style="font-family:'Helvetica';font-size:60.02px;fill:#000000" text-anchor="middle">30484</text>
	<text x="1843.13" y="2747.83" style="font-family:'Helvetica';font-size:60.02px;fill:#000000" text-anchor="middle">30402</text>
	<text x="2229.97" y="2747.83" style="font-family:'Helvetica';font-size:60.02px;fill:#000000" text-anchor="middle">30362</text>
	<text x="2616.82" y="2747.83" style="font-family:'Helvetica';font-size:60.02px;fill:#000000" text-anchor="middle">30320</text>
	<text x="3003.66" y="2747.83" style="font-family:'Helvetica';font-size:60.02px;fill:#000000" text-anchor="middle">30286</text>
	<text x="3390.63" y="2747.83" style="font-family:'Helvetica';font-size:60.02px;fill:#000000" text-anchor="middle">0</text>
	<text x="3777.47" y="2747.83" style="font-family:'Helvetica';font-size:60.02px;fill:#000000" text-anchor="middle">0</text>
	<text x="527.79" y="2747.83" style="font-family:'Helvetica';font-size:60.02px;fill:#000000" text-anchor="end">HCQ</text>
	<text x="682.48" y="2674.44" style="font-family:'Helvetica';font-size:60.02px;fill:#000000" text-anchor="middle">164068</text>
	<text x="1069.45" y="2674.44" style="font-family:'Helvetica';font-size:60.02px;fill:#000000" text-anchor="middle">162853</text>
	<text x="1456.29" y="2674.44" style="font-family:'Helvetica';font-size:60.02px;fill:#000000" text-anchor="middle">161721</text>
	<text x="1843.13" y="2674.44" style="font-family:'Helvetica';font-size:60.02px;fill:#000000" text-anchor="middle">160837</text>
	<text x="2229.97" y="2674.44" style="font-family:'Helvetica';font-size:60.02px;fill:#000000" text-anchor="middle">160168</text>
	<text x="2616.82" y="2674.44" style="font-family:'Helvetica';font-size:60.02px;fill:#000000" text-anchor="middle">159649</text>
	<text x="3003.66" y="2674.44" style="font-family:'Helvetica';font-size:60.02px;fill:#000000" text-anchor="middle">159208</text>
	<text x="3390.63" y="2674.44" style="font-family:'Helvetica';font-size:60.02px;fill:#000000" text-anchor="middle">0</text>
	<text x="3777.47" y="2674.44" style="font-family:'Helvetica';font-size:60.02px;fill:#000000" text-anchor="middle">0</text>
	<text x="527.79" y="2674.44" style="font-family:'Helvetica';font-size:60.02px;fill:#000000" text-anchor="end">No HCQ</text>
	<text x="527.79" y="2601.18" style="font-family:'Helvetica';font-size:60.02px;fill:#000000" text-anchor="end">Number at risk</text>
	<rect x="1167.95" y="269.91" width="2124.05" height="326.46" style="fill:#FFFFFF"/>
	<rect x="1170.83" y="272.79" width="2118.29" height="320.70" style="fill:none;stroke:#EAF2F3;stroke-width:5.76"/>
	<rect x="1211.14" y="313.10" width="374.34" height="99.99" style="fill:#DDE3E9"/>
	<rect x="1215.46" y="317.42" width="365.70" height="91.35" style="fill:none;stroke:#DDE3E9;stroke-width:8.64"/>
	<rect x="2349.02" y="313.10" width="374.34" height="99.99" style="fill:#EEE1E2"/>
	<rect x="2353.34" y="317.42" width="365.70" height="91.35" style="fill:none;stroke:#EEE1E2;stroke-width:8.64"/>
	<line x1="1211.14" y1="503.06" x2="1585.48" y2="503.06" style="stroke:#1A476F;stroke-width:8.64"/>
	<line x1="2349.02" y1="503.06" x2="2723.37" y2="503.06" style="stroke:#90353B;stroke-width:8.64"/>
	<text x="1645.50" y="384.13" style="font-family:'Helvetica';font-size:60.02px;fill:#000000">No HCQ</text>
	<text x="2783.39" y="384.13" style="font-family:'Helvetica';font-size:60.02px;fill:#000000">95% CI</text>
	<text x="1645.50" y="524.10" style="font-family:'Helvetica';font-size:60.02px;fill:#000000">exposure = No HCQ</text>
	<text x="2783.39" y="524.10" style="font-family:'Helvetica';font-size:60.02px;fill:#000000">exposure = HCQ</text>
	<text x="1467.30" y="187.99" style="font-family:'Helvetica';font-size:99.99px;fill:#1E2D53">Time to COVID-19 Death in ONS</text>
</svg>
