<?xml version="1.0" encoding="UTF-8" standalone="no"?>
<!-- This is a Stata 16.1 generated SVG file (http://www.stata.com) -->

<svg version="1.1" width="5.50in" height="4.00in" viewBox="0 0 3960 2880" xmlns="http://www.w3.org/2000/svg" xmlns:xlink="http://www.w3.org/1999/xlink">
	<desc>Stata Graph - Graph</desc>
	<rect x="0" y="0" width="3960" height="2880" style="fill:#EAF2F3;stroke:none"/>
	<rect x="0.00" y="0.00" width="3959.88" height="2880.00" style="fill:#FFFFFF"/>
	<rect x="2.88" y="2.88" width="3954.12" height="2874.24" style="fill:none;stroke:#EAF2F3;stroke-width:5.76"/>
	<rect x="619.12" y="630.90" width="3221.71" height="1678.35" style="fill:#FFFFFF"/>
	<rect x="622.00" y="633.78" width="3215.95" height="1672.59" style="fill:none;stroke:#FFFFFF;stroke-width:5.76"/>
	<line x1="619.12" y1="2245.89" x2="3840.83" y2="2245.89" style="stroke:#EAF2F3;stroke-width:8.64"/>
	<line x1="619.12" y1="1935.51" x2="3840.83" y2="1935.51" style="stroke:#EAF2F3;stroke-width:8.64"/>
	<line x1="619.12" y1="1625.26" x2="3840.83" y2="1625.26" style="stroke:#EAF2F3;stroke-width:8.64"/>
	<line x1="619.12" y1="1314.88" x2="3840.83" y2="1314.88" style="stroke:#EAF2F3;stroke-width:8.64"/>
	<line x1="619.12" y1="1004.51" x2="3840.83" y2="1004.51" style="stroke:#EAF2F3;stroke-width:8.64"/>
	<line x1="619.12" y1="694.26" x2="3840.83" y2="694.26" style="stroke:#EAF2F3;stroke-width:8.64"/>
	<defs>
		<path id="path_TZipRrNC" d="M953.37 2245.64 L953.37 2245.64 L972.67 2245.64 L972.67 2244.90 L991.98 2244.90 L991.98 2244.90 L1011.41 2244.90 L1011.41 2244.90 L1030.71 2244.90 L1030.71 2244.90 L1050.02 2244.90 L1050.02 2244.90 L1069.45 2244.90 L1069.45 2244.90 L1088.75 2244.90 L1088.75 2243.04 L1108.06 2243.04 L1108.06 2240.81 L1127.36 2240.81 L1127.36 2236.97 L1146.79 2236.97 L1146.79 2234.25 L1166.10 2234.25 L1166.10 2230.04 L1185.40 2230.04 L1185.40 2225.71 L1204.83 2225.71 L1204.83 2218.16 L1224.13 2218.16 L1224.13 2213.59 L1243.44 2213.59 L1243.44 2204.18 L1262.87 2204.18 L1262.87 2189.70 L1282.17 2189.70 L1282.17 2174.97 L1301.48 2174.97 L1301.48 2160.00 L1320.91 2160.00 L1320.91 2151.71 L1340.21 2151.71 L1340.21 2126.22 L1359.52 2126.22 L1359.52 2109.14 L1378.82 2109.14 L1378.82 2098.74 L1398.25 2098.74 L1398.25 2084.88 L1417.56 2084.88 L1417.56 2058.77 L1436.86 2058.77 L1436.86 2039.59 L1456.29 2039.59 L1456.29 2007.78 L1475.60 2007.78 L1475.60 1995.41 L1494.90 1995.41 L1494.90 1986.62 L1514.33 1986.62 L1514.33 1977.71 L1533.63 1977.71 L1533.63 1958.16 L1552.94 1958.16 L1552.94 1938.60 L1572.37 1938.60 L1572.37 1920.66 L1591.67 1920.66 L1591.67 1902.84 L1610.98 1902.84 L1610.98 1879.45 L1630.28 1879.45 L1630.28 1865.09 L1649.71 1865.09 L1649.71 1841.71 L1669.02 1841.71 L1669.02 1834.40 L1688.32 1834.40 L1688.32 1818.19 L1707.75 1818.19 L1707.75 1809.16 L1727.06 1809.16 L1727.06 1790.97 L1746.36 1790.97 L1746.36 1776.49 L1765.79 1776.49 L1765.79 1760.15 L1785.09 1760.15 L1785.09 1741.96 L1804.40 1741.96 L1804.40 1734.78 L1823.83 1734.78 L1823.83 1716.59 L1843.13 1716.59 L1843.13 1707.43 L1862.44 1707.43 L1862.44 1690.97 L1881.74 1690.97 L1881.74 1685.53 L1901.17 1685.53 L1901.17 1669.07 L1920.48 1669.07 L1920.48 1652.61 L1939.78 1652.61 L1939.78 1638.01 L1959.21 1638.01 L1959.21 1632.56 L1978.52 1632.56 L1978.52 1628.85 L1997.82 1628.85 L1997.82 1619.69 L2017.25 1619.69 L2017.25 1610.53 L2036.55 1610.53 L2036.55 1599.52 L2055.86 1599.52 L2055.86 1593.95 L2075.29 1593.95 L2075.29 1582.94 L2094.59 1582.94 L2094.59 1575.63 L2113.90 1575.63 L2113.90 1573.78 L2133.20 1573.78 L2133.20 1564.62 L2152.63 1564.62 L2152.63 1555.46 L2171.94 1555.46 L2171.94 1544.32 L2191.24 1544.32 L2191.24 1533.31 L2210.67 1533.31 L2210.67 1525.89 L2229.97 1525.89 L2229.97 1516.73 L2249.28 1516.73 L2249.28 1513.01 L2268.71 1513.01 L2268.71 1509.30 L2288.01 1509.30 L2288.01 1507.57 L2307.32 1507.57 L2307.32 1498.29 L2326.75 1498.29 L2326.75 1490.86 L2346.05 1490.86 L2346.05 1485.42 L2365.36 1485.42 L2365.36 1481.71 L2384.79 1481.71 L2384.79 1479.85 L2404.09 1479.85 L2404.09 1474.28 L2423.40 1474.28 L2423.40 1474.28 L2442.70 1474.28 L2442.70 1470.57 L2462.13 1470.57 L2462.13 1466.85 L2481.43 1466.85 L2481.43 1465.00 L2500.74 1465.00 L2500.74 1461.29 L2520.17 1461.29 L2520.17 1459.43 L2539.47 1459.43 L2539.47 1457.57 L2558.78 1457.57 L2558.78 1455.72 L2578.21 1455.72 L2578.21 1452.13 L2597.51 1452.13 L2597.51 1450.27 L2616.82 1450.27 L2616.82 1444.70 L2636.25 1444.70 L2636.25 1444.70 L2655.55 1444.70 L2655.55 1440.99 L2674.86 1440.99 L2674.86 1437.28 L2694.16 1437.28 L2694.16 1433.56 L2713.59 1433.56 L2713.59 1433.56 L2732.89 1433.56 L2732.89 1431.71 L2752.20 1431.71 L2752.20 1431.71 L2771.63 1431.71 L2771.63 1429.85 L2790.93 1429.85 L2790.93 1428.00 L2810.24 1428.00 L2810.24 1426.14 L2829.67 1426.14 L2829.67 1426.14 L2848.97 1426.14 L2848.97 1426.14 L2868.28 1426.14 L2868.28 1426.14 L2887.71 1426.14 L2887.71 1424.28 L2907.01 1424.28 L2907.01 1422.43 L2926.32 1422.43 L2926.32 1418.71 L2945.62 1418.71 L2945.62 1418.71 L2965.05 1418.71 L2965.05 1418.71 L2984.36 1418.71 L2984.36 1418.71 L3003.66 1418.71 L3003.66 1418.71 L3003.66 1254.99 L3003.66 1254.99 L2984.36 1254.99 L2984.36 1254.99 L2965.05 1254.99 L2965.05 1254.99 L2945.62 1254.99 L2945.62 1254.99 L2926.32 1254.99 L2926.32 1259.07 L2907.01 1259.07 L2907.01 1261.05 L2887.71 1261.05 L2887.71 1263.16 L2868.28 1263.16 L2868.28 1263.16 L2848.97 1263.16 L2848.97 1263.16 L2829.67 1263.16 L2829.67 1263.16 L2810.24 1263.16 L2810.24 1265.14 L2790.93 1265.14 L2790.93 1267.24 L2771.63 1267.24 L2771.63 1269.22 L2752.20 1269.22 L2752.20 1269.22 L2732.89 1269.22 L2732.89 1271.32 L2713.59 1271.32 L2713.59 1271.32 L2694.16 1271.32 L2694.16 1275.28 L2674.86 1275.28 L2674.86 1279.37 L2655.55 1279.37 L2655.55 1283.45 L2636.25 1283.45 L2636.25 1283.45 L2616.82 1283.45 L2616.82 1289.52 L2597.51 1289.52 L2597.51 1291.62 L2578.21 1291.62 L2578.21 1295.70 L2558.78 1295.70 L2558.78 1297.68 L2539.47 1297.68 L2539.47 1299.66 L2520.17 1299.66 L2520.17 1301.77 L2500.74 1301.77 L2500.74 1305.85 L2481.43 1305.85 L2481.43 1307.83 L2462.13 1307.83 L2462.13 1311.91 L2442.70 1311.91 L2442.70 1316.00 L2423.40 1316.00 L2423.40 1316.00 L2404.09 1316.00 L2404.09 1322.06 L2384.79 1322.06 L2384.79 1324.04 L2365.36 1324.04 L2365.36 1328.13 L2346.05 1328.13 L2346.05 1334.19 L2326.75 1334.19 L2326.75 1342.36 L2307.32 1342.36 L2307.32 1352.51 L2288.01 1352.51 L2288.01 1354.49 L2268.71 1354.49 L2268.71 1358.57 L2249.28 1358.57 L2249.28 1362.65 L2229.97 1362.65 L2229.97 1372.80 L2210.67 1372.80 L2210.67 1380.97 L2191.24 1380.97 L2191.24 1393.10 L2171.94 1393.10 L2171.94 1405.23 L2152.63 1405.23 L2152.63 1415.37 L2133.20 1415.37 L2133.20 1425.52 L2113.90 1425.52 L2113.90 1427.62 L2094.59 1427.62 L2094.59 1435.79 L2075.29 1435.79 L2075.29 1447.92 L2055.86 1447.92 L2055.86 1453.98 L2036.55 1453.98 L2036.55 1466.24 L2017.25 1466.24 L2017.25 1476.38 L1997.82 1476.38 L1997.82 1486.53 L1978.52 1486.53 L1978.52 1490.62 L1959.21 1490.62 L1959.21 1496.68 L1939.78 1496.68 L1939.78 1513.01 L1920.48 1513.01 L1920.48 1531.21 L1901.17 1531.21 L1901.17 1549.52 L1881.74 1549.52 L1881.74 1555.71 L1862.44 1555.71 L1862.44 1574.03 L1843.13 1574.03 L1843.13 1584.17 L1823.83 1584.17 L1823.83 1604.59 L1804.40 1604.59 L1804.40 1612.76 L1785.09 1612.76 L1785.09 1633.06 L1765.79 1633.06 L1765.79 1651.50 L1746.36 1651.50 L1746.36 1667.83 L1727.06 1667.83 L1727.06 1688.25 L1707.75 1688.25 L1707.75 1698.52 L1688.32 1698.52 L1688.32 1716.84 L1669.02 1716.84 L1669.02 1725.13 L1649.71 1725.13 L1649.71 1751.74 L1630.28 1751.74 L1630.28 1768.07 L1610.98 1768.07 L1610.98 1794.80 L1591.67 1794.80 L1591.67 1815.35 L1572.37 1815.35 L1572.37 1836.01 L1552.94 1836.01 L1552.94 1858.66 L1533.63 1858.66 L1533.63 1881.43 L1514.33 1881.43 L1514.33 1891.83 L1494.90 1891.83 L1494.90 1902.10 L1475.60 1902.10 L1475.60 1916.70 L1456.29 1916.70 L1456.29 1954.07 L1436.86 1954.07 L1436.86 1977.09 L1417.56 1977.09 L1417.56 2008.65 L1398.25 2008.65 L1398.25 2025.48 L1378.82 2025.48 L1378.82 2038.10 L1359.52 2038.10 L1359.52 2059.39 L1340.21 2059.39 L1340.21 2091.44 L1320.91 2091.44 L1320.91 2102.33 L1301.48 2102.33 L1301.48 2121.76 L1282.17 2121.76 L1282.17 2141.56 L1262.87 2141.56 L1262.87 2161.61 L1243.44 2161.61 L1243.44 2175.10 L1224.13 2175.10 L1224.13 2182.03 L1204.83 2182.03 L1204.83 2193.66 L1185.40 2193.66 L1185.40 2200.72 L1166.10 2200.72 L1166.10 2208.02 L1146.79 2208.02 L1146.79 2212.84 L1127.36 2212.84 L1127.36 2220.39 L1108.06 2220.39 L1108.06 2225.59 L1088.75 2225.59 L1088.75 2230.66 L1069.45 2230.66 L1069.45 2230.66 L1050.02 2230.66 L1050.02 2230.66 L1030.71 2230.66 L1030.71 2230.66 L1011.41 2230.66 L1011.41 2230.66 L991.98 2230.66 L991.98 2230.66 L972.67 2230.66 L972.67 2232.40 L953.37 2232.40 L953.37 2245.64 Z" stroke-linejoin="round"/>
	</defs>
	<defs>
		<clipPath id="clipPath_NVrpBgTp">
			<use xlink:href="#path_TZipRrNC"/>
		</clipPath>
	</defs>
	<use xlink:href="#path_TZipRrNC" style="stroke:none;fill:#DDE3E9"/>
	<use xlink:href="#path_TZipRrNC" style="fill:none;stroke:#DDE3E9;stroke-width:17.28" clip-path="url(#clipPath_NVrpBgTp)"/>
	<path d=" M953.25 2245.64 L972.55 2245.64 L972.55 2245.02 L991.98 2245.02 L991.98 2245.02 L1011.28 2245.02 L1011.28 2245.02 L1030.59 2245.02 L1030.59 2245.02 L1050.02 2245.02 L1050.02 2245.02 L1069.32 2245.02 L1069.32 2245.02 L1088.63 2245.02 L1088.63 2243.04 L1108.06 2243.04 L1108.06 2240.81 L1127.36 2240.81 L1127.36 2236.97 L1146.67 2236.97 L1146.67 2234.38 L1166.10 2234.38 L1166.10 2230.17 L1185.40 2230.17 L1185.40 2225.71 L1204.71 2225.71 L1204.71 2218.29 L1224.01 2218.29 L1224.01 2213.71 L1243.44 2213.71 L1243.44 2204.30 L1262.74 2204.30 L1262.74 2189.82 L1282.05 2189.82 L1282.05 2175.10 L1301.48 2175.10 L1301.48 2160.12 L1320.78 2160.12 L1320.78 2151.71 L1340.09 2151.71 L1340.09 2126.34 L1359.52 2126.34 L1359.52 2109.14 L1378.82 2109.14 L1378.82 2098.87 L1398.13 2098.87 L1398.13 2085.01 L1417.56 2085.01 L1417.56 2058.89 L1436.86 2058.89 L1436.86 2039.59 L1456.17 2039.59 L1456.17 2007.91 L1475.47 2007.91 L1475.47 1995.53 L1494.90 1995.53 L1494.90 1986.62 L1514.20 1986.62 L1514.20 1977.83 L1533.51 1977.83 L1533.51 1958.28 L1552.94 1958.28 L1552.94 1938.60 L1572.24 1938.60 L1572.24 1920.78 L1591.55 1920.78 L1591.55 1902.84 L1610.98 1902.84 L1610.98 1879.57 L1630.28 1879.57 L1630.28 1865.09 L1649.59 1865.09 L1649.59 1841.71 L1669.02 1841.71 L1669.02 1834.53 L1688.32 1834.53 L1688.32 1818.19 L1707.63 1818.19 L1707.63 1809.16 L1727.06 1809.16 L1727.06 1791.09 L1746.36 1791.09 L1746.36 1776.61 L1765.66 1776.61 L1765.66 1760.28 L1784.97 1760.28 L1784.97 1742.08 L1804.40 1742.08 L1804.40 1734.78 L1823.70 1734.78 L1823.70 1716.59 L1843.01 1716.59 L1843.01 1707.43 L1862.44 1707.43 L1862.44 1691.10 L1881.74 1691.10 L1881.74 1685.53 L1901.05 1685.53 L1901.05 1669.19 L1920.48 1669.19 L1920.48 1652.73 L1939.78 1652.73 L1939.78 1638.01 L1959.09 1638.01 L1959.09 1632.56 L1978.52 1632.56 L1978.52 1628.85 L1997.82 1628.85 L1997.82 1619.69 L2017.13 1619.69 L2017.13 1610.53 L2036.43 1610.53 L2036.43 1599.52 L2055.86 1599.52 L2055.86 1594.07 L2075.16 1594.07 L2075.16 1583.06 L2094.47 1583.06 L2094.47 1575.63 L2113.90 1575.63 L2113.90 1573.90 L2133.20 1573.90 L2133.20 1564.62 L2152.51 1564.62 L2152.51 1555.46 L2171.94 1555.46 L2171.94 1544.45 L2191.24 1544.45 L2191.24 1533.43 L2210.55 1533.43 L2210.55 1526.01 L2229.97 1526.01 L2229.97 1516.85 L2249.28 1516.85 L2249.28 1513.14 L2268.59 1513.14 L2268.59 1509.43 L2287.89 1509.43 L2287.89 1507.57 L2307.32 1507.57 L2307.32 1498.29 L2326.62 1498.29 L2326.62 1490.99 L2345.93 1490.99 L2345.93 1485.42 L2365.36 1485.42 L2365.36 1481.71 L2384.66 1481.71 L2384.66 1479.85 L2403.97 1479.85 L2403.97 1474.28 L2423.40 1474.28 L2423.40 1474.28 L2442.70 1474.28 L2442.70 1470.69 L2462.01 1470.69 L2462.01 1466.98 L2481.43 1466.98 L2481.43 1465.12 L2500.74 1465.12 L2500.74 1461.41 L2520.05 1461.41 L2520.05 1459.55 L2539.35 1459.55 L2539.35 1457.70 L2558.78 1457.70 L2558.78 1455.84 L2578.08 1455.84 L2578.08 1452.13 L2597.39 1452.13 L2597.39 1450.27 L2616.82 1450.27 L2616.82 1444.70 L2636.12 1444.70 L2636.12 1444.70 L2655.43 1444.70 L2655.43 1440.99 L2674.86 1440.99 L2674.86 1437.28 L2694.16 1437.28 L2694.16 1433.56 L2713.47 1433.56 L2713.47 1433.56 L2732.89 1433.56 L2732.89 1431.71 L2752.20 1431.71 L2752.20 1431.71 L2771.51 1431.71 L2771.51 1429.85 L2790.81 1429.85 L2790.81 1428.00 L2810.24 1428.00 L2810.24 1426.14 L2829.54 1426.14 L2829.54 1426.14 L2848.85 1426.14 L2848.85 1426.14 L2868.28 1426.14 L2868.28 1426.14 L2887.58 1426.14 L2887.58 1424.28 L2906.89 1424.28 L2906.89 1422.43 L2926.32 1422.43 L2926.32 1418.71 L2945.62 1418.71 L2945.62 1418.71 L2964.93 1418.71 L2964.93 1418.71 L2984.36 1418.71 L2984.36 1418.71 L3003.66 1418.71 L3003.66 1418.71" stroke-linejoin="round" style="fill:none;stroke:#8DA3B7;stroke-width:8.64"/>
	<path d=" M953.25 2232.40 L972.55 2232.40 L972.55 2230.79 L991.98 2230.79 L991.98 2230.79 L1011.28 2230.79 L1011.28 2230.79 L1030.59 2230.79 L1030.59 2230.79 L1050.02 2230.79 L1050.02 2230.79 L1069.32 2230.79 L1069.32 2230.79 L1088.63 2230.79 L1088.63 2225.59 L1108.06 2225.59 L1108.06 2220.52 L1127.36 2220.52 L1127.36 2212.97 L1146.67 2212.97 L1146.67 2208.02 L1166.10 2208.02 L1166.10 2200.84 L1185.40 2200.84 L1185.40 2193.66 L1204.71 2193.66 L1204.71 2182.03 L1224.01 2182.03 L1224.01 2175.22 L1243.44 2175.22 L1243.44 2161.61 L1262.74 2161.61 L1262.74 2141.68 L1282.05 2141.68 L1282.05 2121.88 L1301.48 2121.88 L1301.48 2102.33 L1320.78 2102.33 L1320.78 2091.56 L1340.09 2091.56 L1340.09 2059.39 L1359.52 2059.39 L1359.52 2038.23 L1378.82 2038.23 L1378.82 2025.48 L1398.13 2025.48 L1398.13 2008.65 L1417.56 2008.65 L1417.56 1977.22 L1436.86 1977.22 L1436.86 1954.20 L1456.17 1954.20 L1456.17 1916.70 L1475.47 1916.70 L1475.47 1902.22 L1494.90 1902.22 L1494.90 1891.83 L1514.20 1891.83 L1514.20 1881.43 L1533.51 1881.43 L1533.51 1858.78 L1552.94 1858.78 L1552.94 1836.01 L1572.24 1836.01 L1572.24 1815.47 L1591.55 1815.47 L1591.55 1794.93 L1610.98 1794.93 L1610.98 1768.20 L1630.28 1768.20 L1630.28 1751.74 L1649.59 1751.74 L1649.59 1725.13 L1669.02 1725.13 L1669.02 1716.96 L1688.32 1716.96 L1688.32 1698.52 L1707.63 1698.52 L1707.63 1688.37 L1727.06 1688.37 L1727.06 1667.83 L1746.36 1667.83 L1746.36 1651.50 L1765.66 1651.50 L1765.66 1633.18 L1784.97 1633.18 L1784.97 1612.76 L1804.40 1612.76 L1804.40 1604.59 L1823.70 1604.59 L1823.70 1584.30 L1843.01 1584.30 L1843.01 1574.03 L1862.44 1574.03 L1862.44 1555.71 L1881.74 1555.71 L1881.74 1549.65 L1901.05 1549.65 L1901.05 1531.33 L1920.48 1531.33 L1920.48 1513.01 L1939.78 1513.01 L1939.78 1496.80 L1959.09 1496.80 L1959.09 1490.62 L1978.52 1490.62 L1978.52 1486.66 L1997.82 1486.66 L1997.82 1476.38 L2017.13 1476.38 L2017.13 1466.24 L2036.43 1466.24 L2036.43 1454.11 L2055.86 1454.11 L2055.86 1448.04 L2075.16 1448.04 L2075.16 1435.79 L2094.47 1435.79 L2094.47 1427.62 L2113.90 1427.62 L2113.90 1425.64 L2133.20 1425.64 L2133.20 1415.50 L2152.51 1415.50 L2152.51 1405.35 L2171.94 1405.35 L2171.94 1393.10 L2191.24 1393.10 L2191.24 1380.97 L2210.55 1380.97 L2210.55 1372.80 L2229.97 1372.80 L2229.97 1362.65 L2249.28 1362.65 L2249.28 1358.69 L2268.59 1358.69 L2268.59 1354.61 L2287.89 1354.61 L2287.89 1352.51 L2307.32 1352.51 L2307.32 1342.36 L2326.62 1342.36 L2326.62 1334.31 L2345.93 1334.31 L2345.93 1328.25 L2365.36 1328.25 L2365.36 1324.17 L2384.66 1324.17 L2384.66 1322.06 L2403.97 1322.06 L2403.97 1316.00 L2423.40 1316.00 L2423.40 1316.00 L2442.70 1316.00 L2442.70 1311.91 L2462.01 1311.91 L2462.01 1307.95 L2481.43 1307.95 L2481.43 1305.85 L2500.74 1305.85 L2500.74 1301.77 L2520.05 1301.77 L2520.05 1299.79 L2539.35 1299.79 L2539.35 1297.81 L2558.78 1297.81 L2558.78 1295.70 L2578.08 1295.70 L2578.08 1291.62 L2597.39 1291.62 L2597.39 1289.64 L2616.82 1289.64 L2616.82 1283.58 L2636.12 1283.58 L2636.12 1283.58 L2655.43 1283.58 L2655.43 1279.49 L2674.86 1279.49 L2674.86 1275.41 L2694.16 1275.41 L2694.16 1271.32 L2713.47 1271.32 L2713.47 1271.32 L2732.89 1271.32 L2732.89 1269.34 L2752.20 1269.34 L2752.20 1269.34 L2771.51 1269.34 L2771.51 1267.24 L2790.81 1267.24 L2790.81 1265.26 L2810.24 1265.26 L2810.24 1263.16 L2829.54 1263.16 L2829.54 1263.16 L2848.85 1263.16 L2848.85 1263.16 L2868.28 1263.16 L2868.28 1263.16 L2887.58 1263.16 L2887.58 1261.18 L2906.89 1261.18 L2906.89 1259.07 L2926.32 1259.07 L2926.32 1255.11 L2945.62 1255.11 L2945.62 1255.11 L2964.93 1255.11 L2964.93 1255.11 L2984.36 1255.11 L2984.36 1255.11 L3003.66 1255.11 L3003.66 1255.11" stroke-linejoin="round" style="fill:none;stroke:#8DA3B7;stroke-width:8.64"/>
	<defs>
		<path id="path_nPxBVolI" d="M1050.02 2244.40 L1050.02 2244.40 L1069.45 2244.40 L1069.45 2244.40 L1088.75 2244.40 L1088.75 2244.40 L1127.36 2244.40 L1127.36 2244.40 L1146.79 2244.40 L1146.79 2235.98 L1166.10 2235.98 L1166.10 2235.98 L1185.40 2235.98 L1185.40 2230.66 L1204.83 2230.66 L1204.83 2218.41 L1224.13 2218.41 L1224.13 2218.41 L1243.44 2218.41 L1243.44 2205.17 L1262.87 2205.17 L1262.87 2205.17 L1282.17 2205.17 L1282.17 2198.24 L1301.48 2198.24 L1301.48 2191.06 L1320.91 2191.06 L1320.91 2191.06 L1340.21 2191.06 L1340.21 2191.06 L1359.52 2191.06 L1359.52 2191.06 L1378.82 2191.06 L1378.82 2176.46 L1398.25 2176.46 L1398.25 2169.03 L1417.56 2169.03 L1417.56 2161.36 L1436.86 2161.36 L1436.86 2138.22 L1456.29 2138.22 L1456.29 2106.29 L1475.60 2106.29 L1475.60 2090.08 L1494.90 2090.08 L1494.90 2065.45 L1514.33 2065.45 L1514.33 2065.45 L1533.63 2065.45 L1533.63 2057.16 L1552.94 2057.16 L1552.94 2040.45 L1572.37 2040.45 L1572.37 2032.04 L1591.67 2032.04 L1591.67 2006.67 L1610.98 2006.67 L1610.98 1998.13 L1630.28 1998.13 L1630.28 1989.59 L1649.71 1989.59 L1649.71 1981.05 L1669.02 1981.05 L1669.02 1981.05 L1688.32 1981.05 L1688.32 1963.97 L1707.75 1963.97 L1707.75 1946.65 L1727.06 1946.65 L1727.06 1946.65 L1746.36 1946.65 L1746.36 1929.32 L1785.09 1929.32 L1785.09 1911.87 L1804.40 1911.87 L1804.40 1911.87 L1823.83 1911.87 L1823.83 1876.85 L1843.13 1876.85 L1843.13 1876.85 L1862.44 1876.85 L1862.44 1868.06 L1881.74 1868.06 L1881.74 1859.28 L1901.17 1859.28 L1901.17 1859.28 L1920.48 1859.28 L1920.48 1859.28 L1939.78 1859.28 L1939.78 1850.49 L1959.21 1850.49 L1959.21 1841.58 L1978.52 1841.58 L1978.52 1841.58 L1997.82 1841.58 L1997.82 1832.79 L2017.25 1832.79 L2017.25 1832.79 L2036.55 1832.79 L2036.55 1823.88 L2075.29 1823.88 L2075.29 1823.88 L2113.90 1823.88 L2113.90 1823.88 L2133.20 1823.88 L2133.20 1814.97 L2152.63 1814.97 L2152.63 1814.97 L2171.94 1814.97 L2171.94 1806.19 L2191.24 1806.19 L2191.24 1797.28 L2210.67 1797.28 L2210.67 1797.28 L2229.97 1797.28 L2229.97 1788.37 L2249.28 1788.37 L2249.28 1770.42 L2268.71 1770.42 L2268.71 1761.51 L2288.01 1761.51 L2288.01 1761.51 L2307.32 1761.51 L2307.32 1734.53 L2326.75 1734.53 L2326.75 1734.53 L2346.05 1734.53 L2346.05 1725.62 L2384.79 1725.62 L2384.79 1725.62 L2404.09 1725.62 L2404.09 1725.62 L2462.13 1725.62 L2462.13 1716.59 L2481.43 1716.59 L2481.43 1716.59 L2500.74 1716.59 L2500.74 1716.59 L2520.17 1716.59 L2520.17 1716.59 L2539.47 1716.59 L2539.47 1716.59 L2558.78 1716.59 L2558.78 1716.59 L2578.21 1716.59 L2578.21 1716.59 L2597.51 1716.59 L2597.51 1716.59 L2616.82 1716.59 L2616.82 1716.59 L2674.86 1716.59 L2674.86 1716.59 L2713.59 1716.59 L2713.59 1716.59 L2732.89 1716.59 L2732.89 1716.59 L2752.20 1716.59 L2752.20 1716.59 L2790.93 1716.59 L2790.93 1716.59 L2810.24 1716.59 L2810.24 1716.59 L2848.97 1716.59 L2848.97 1707.56 L2868.28 1707.56 L2868.28 1707.56 L2887.71 1707.56 L2887.71 1707.56 L2926.32 1707.56 L2926.32 1698.52 L2945.62 1698.52 L2945.62 1698.52 L2965.05 1698.52 L2965.05 1698.52 L2984.36 1698.52 L2984.36 1698.52 L3003.66 1698.52 L3003.66 1698.52 L3003.66 1365.87 L3003.66 1365.87 L2984.36 1365.87 L2984.36 1365.87 L2965.05 1365.87 L2965.05 1365.87 L2945.62 1365.87 L2945.62 1365.87 L2926.32 1365.87 L2926.32 1377.38 L2887.71 1377.38 L2887.71 1377.38 L2868.28 1377.38 L2868.28 1377.38 L2848.97 1377.38 L2848.97 1388.77 L2810.24 1388.77 L2810.24 1388.77 L2790.93 1388.77 L2790.93 1388.77 L2752.20 1388.77 L2752.20 1388.77 L2732.89 1388.77 L2732.89 1388.77 L2713.59 1388.77 L2713.59 1388.77 L2674.86 1388.77 L2674.86 1388.77 L2616.82 1388.77 L2616.82 1388.77 L2597.51 1388.77 L2597.51 1388.77 L2578.21 1388.77 L2578.21 1388.77 L2558.78 1388.77 L2558.78 1388.77 L2539.47 1388.77 L2539.47 1388.77 L2520.17 1388.77 L2520.17 1388.77 L2500.74 1388.77 L2500.74 1388.77 L2481.43 1388.77 L2481.43 1388.77 L2462.13 1388.77 L2462.13 1400.28 L2404.09 1400.28 L2404.09 1400.28 L2384.79 1400.28 L2384.79 1400.28 L2346.05 1400.28 L2346.05 1411.78 L2326.75 1411.78 L2326.75 1411.78 L2307.32 1411.78 L2307.32 1446.19 L2288.01 1446.19 L2288.01 1446.19 L2268.71 1446.19 L2268.71 1457.70 L2249.28 1457.70 L2249.28 1480.72 L2229.97 1480.72 L2229.97 1492.22 L2210.67 1492.22 L2210.67 1492.22 L2191.24 1492.22 L2191.24 1503.73 L2171.94 1503.73 L2171.94 1515.24 L2152.63 1515.24 L2152.63 1515.24 L2133.20 1515.24 L2133.20 1526.88 L2113.90 1526.88 L2113.90 1526.88 L2075.29 1526.88 L2075.29 1526.88 L2036.55 1526.88 L2036.55 1538.38 L2017.25 1538.38 L2017.25 1538.38 L1997.82 1538.38 L1997.82 1550.02 L1978.52 1550.02 L1978.52 1550.02 L1959.21 1550.02 L1959.21 1561.53 L1939.78 1561.53 L1939.78 1573.16 L1920.48 1573.16 L1920.48 1573.16 L1901.17 1573.16 L1901.17 1573.16 L1881.74 1573.16 L1881.74 1584.79 L1862.44 1584.79 L1862.44 1596.42 L1843.13 1596.42 L1843.13 1596.42 L1823.83 1596.42 L1823.83 1643.08 L1804.40 1643.08 L1804.40 1643.08 L1785.09 1643.08 L1785.09 1666.47 L1746.36 1666.47 L1746.36 1689.98 L1727.06 1689.98 L1727.06 1689.98 L1707.75 1689.98 L1707.75 1713.50 L1688.32 1713.50 L1688.32 1737.13 L1669.02 1737.13 L1669.02 1737.13 L1649.71 1737.13 L1649.71 1749.01 L1630.28 1749.01 L1630.28 1760.89 L1610.98 1760.89 L1610.98 1772.77 L1591.67 1772.77 L1591.67 1808.66 L1572.37 1808.66 L1572.37 1820.67 L1552.94 1820.67 L1552.94 1844.68 L1533.63 1844.68 L1533.63 1856.80 L1514.33 1856.80 L1514.33 1856.80 L1494.90 1856.80 L1494.90 1893.19 L1475.60 1893.19 L1475.60 1917.69 L1456.29 1917.69 L1456.29 1967.32 L1436.86 1967.32 L1436.86 2005.06 L1417.56 2005.06 L1417.56 2017.81 L1398.25 2017.81 L1398.25 2030.68 L1378.82 2030.68 L1378.82 2056.54 L1359.52 2056.54 L1359.52 2056.54 L1340.21 2056.54 L1340.21 2056.54 L1320.91 2056.54 L1320.91 2056.54 L1301.48 2056.54 L1301.48 2069.66 L1282.17 2069.66 L1282.17 2083.03 L1262.87 2083.03 L1262.87 2083.03 L1243.44 2083.03 L1243.44 2109.88 L1224.13 2109.88 L1224.13 2109.88 L1204.83 2109.88 L1204.83 2137.35 L1185.40 2137.35 L1185.40 2151.21 L1166.10 2151.21 L1166.10 2151.21 L1146.79 2151.21 L1146.79 2173.61 L1127.36 2173.61 L1127.36 2173.61 L1088.75 2173.61 L1088.75 2173.61 L1069.45 2173.61 L1069.45 2173.61 L1050.02 2173.61 L1050.02 2244.40 Z" stroke-linejoin="round"/>
	</defs>
	<defs>
		<clipPath id="clipPath_nJmkLqmO">
			<use xlink:href="#path_nPxBVolI"/>
		</clipPath>
	</defs>
	<use xlink:href="#path_nPxBVolI" style="stroke:none;fill:#EEE1E2"/>
	<use xlink:href="#path_nPxBVolI" style="fill:none;stroke:#EEE1E2;stroke-width:17.28" clip-path="url(#clipPath_nJmkLqmO)"/>
	<path d=" M1050.02 2244.52 L1069.32 2244.52 L1069.32 2244.52 L1088.63 2244.52 L1088.63 2244.52 L1127.36 2244.52 L1127.36 2244.52 L1146.67 2244.52 L1146.67 2236.11 L1166.10 2236.11 L1166.10 2236.11 L1185.40 2236.11 L1185.40 2230.66 L1204.71 2230.66 L1204.71 2218.54 L1224.01 2218.54 L1224.01 2218.54 L1243.44 2218.54 L1243.44 2205.17 L1262.74 2205.17 L1262.74 2205.17 L1282.05 2205.17 L1282.05 2198.24 L1301.48 2198.24 L1301.48 2191.19 L1320.78 2191.19 L1320.78 2191.19 L1340.09 2191.19 L1340.09 2191.19 L1359.52 2191.19 L1359.52 2191.19 L1378.82 2191.19 L1378.82 2176.46 L1398.13 2176.46 L1398.13 2169.03 L1417.56 2169.03 L1417.56 2161.49 L1436.86 2161.49 L1436.86 2138.22 L1456.17 2138.22 L1456.17 2106.41 L1475.47 2106.41 L1475.47 2090.20 L1494.90 2090.20 L1494.90 2065.45 L1514.20 2065.45 L1514.20 2065.45 L1533.51 2065.45 L1533.51 2057.16 L1552.94 2057.16 L1552.94 2040.45 L1572.24 2040.45 L1572.24 2032.16 L1591.55 2032.16 L1591.55 2006.79 L1610.98 2006.79 L1610.98 1998.25 L1630.28 1998.25 L1630.28 1989.71 L1649.59 1989.71 L1649.59 1981.18 L1669.02 1981.18 L1669.02 1981.18 L1688.32 1981.18 L1688.32 1963.97 L1707.63 1963.97 L1707.63 1946.77 L1727.06 1946.77 L1727.06 1946.77 L1746.36 1946.77 L1746.36 1929.45 L1784.97 1929.45 L1784.97 1912.00 L1804.40 1912.00 L1804.40 1912.00 L1823.70 1912.00 L1823.70 1876.97 L1843.01 1876.97 L1843.01 1876.97 L1862.44 1876.97 L1862.44 1868.19 L1881.74 1868.19 L1881.74 1859.40 L1901.05 1859.40 L1901.05 1859.40 L1920.48 1859.40 L1920.48 1859.40 L1939.78 1859.40 L1939.78 1850.49 L1959.09 1850.49 L1959.09 1841.71 L1978.52 1841.71 L1978.52 1841.71 L1997.82 1841.71 L1997.82 1832.79 L2017.13 1832.79 L2017.13 1832.79 L2036.43 1832.79 L2036.43 1824.01 L2075.16 1824.01 L2075.16 1824.01 L2113.90 1824.01 L2113.90 1824.01 L2133.20 1824.01 L2133.20 1815.10 L2152.51 1815.10 L2152.51 1815.10 L2171.94 1815.10 L2171.94 1806.19 L2191.24 1806.19 L2191.24 1797.28 L2210.55 1797.28 L2210.55 1797.28 L2229.97 1797.28 L2229.97 1788.37 L2249.28 1788.37 L2249.28 1770.55 L2268.59 1770.55 L2268.59 1761.51 L2287.89 1761.51 L2287.89 1761.51 L2307.32 1761.51 L2307.32 1734.66 L2326.62 1734.66 L2326.62 1734.66 L2345.93 1734.66 L2345.93 1725.62 L2384.66 1725.62 L2384.66 1725.62 L2403.97 1725.62 L2403.97 1725.62 L2462.01 1725.62 L2462.01 1716.71 L2481.43 1716.71 L2481.43 1716.71 L2500.74 1716.71 L2500.74 1716.71 L2520.05 1716.71 L2520.05 1716.71 L2539.35 1716.71 L2539.35 1716.71 L2558.78 1716.71 L2558.78 1716.71 L2578.08 1716.71 L2578.08 1716.71 L2597.39 1716.71 L2597.39 1716.71 L2616.82 1716.71 L2616.82 1716.71 L2674.86 1716.71 L2674.86 1716.71 L2713.47 1716.71 L2713.47 1716.71 L2732.89 1716.71 L2732.89 1716.71 L2752.20 1716.71 L2752.20 1716.71 L2790.81 1716.71 L2790.81 1716.71 L2810.24 1716.71 L2810.24 1716.71 L2848.85 1716.71 L2848.85 1707.68 L2868.28 1707.68 L2868.28 1707.68 L2887.58 1707.68 L2887.58 1707.68 L2926.32 1707.68 L2926.32 1698.65 L2945.62 1698.65 L2945.62 1698.65 L2964.93 1698.65 L2964.93 1698.65 L2984.36 1698.65 L2984.36 1698.65 L3003.66 1698.65 L3003.66 1698.65" stroke-linejoin="round" style="fill:none;stroke:#C89A9D;stroke-width:8.64"/>
	<path d=" M1050.02 2173.61 L1069.32 2173.61 L1069.32 2173.61 L1088.63 2173.61 L1088.63 2173.61 L1127.36 2173.61 L1127.36 2173.61 L1146.67 2173.61 L1146.67 2151.21 L1166.10 2151.21 L1166.10 2151.21 L1185.40 2151.21 L1185.40 2137.48 L1204.71 2137.48 L1204.71 2109.88 L1224.01 2109.88 L1224.01 2109.88 L1243.44 2109.88 L1243.44 2083.03 L1262.74 2083.03 L1262.74 2083.03 L1282.05 2083.03 L1282.05 2069.78 L1301.48 2069.78 L1301.48 2056.67 L1320.78 2056.67 L1320.78 2056.67 L1340.09 2056.67 L1340.09 2056.67 L1359.52 2056.67 L1359.52 2056.67 L1378.82 2056.67 L1378.82 2030.68 L1398.13 2030.68 L1398.13 2017.93 L1417.56 2017.93 L1417.56 2005.18 L1436.86 2005.18 L1436.86 1967.32 L1456.17 1967.32 L1456.17 1917.81 L1475.47 1917.81 L1475.47 1893.31 L1494.90 1893.31 L1494.90 1856.80 L1514.20 1856.80 L1514.20 1856.80 L1533.51 1856.80 L1533.51 1844.80 L1552.94 1844.80 L1552.94 1820.67 L1572.24 1820.67 L1572.24 1808.66 L1591.55 1808.66 L1591.55 1772.90 L1610.98 1772.90 L1610.98 1761.02 L1630.28 1761.02 L1630.28 1749.14 L1649.59 1749.14 L1649.59 1737.26 L1669.02 1737.26 L1669.02 1737.26 L1688.32 1737.26 L1688.32 1713.62 L1707.63 1713.62 L1707.63 1690.11 L1727.06 1690.11 L1727.06 1690.11 L1746.36 1690.11 L1746.36 1666.59 L1784.97 1666.59 L1784.97 1643.20 L1804.40 1643.20 L1804.40 1643.20 L1823.70 1643.20 L1823.70 1596.55 L1843.01 1596.55 L1843.01 1596.55 L1862.44 1596.55 L1862.44 1584.92 L1881.74 1584.92 L1881.74 1573.28 L1901.05 1573.28 L1901.05 1573.28 L1920.48 1573.28 L1920.48 1573.28 L1939.78 1573.28 L1939.78 1561.65 L1959.09 1561.65 L1959.09 1550.02 L1978.52 1550.02 L1978.52 1550.02 L1997.82 1550.02 L1997.82 1538.51 L2017.13 1538.51 L2017.13 1538.51 L2036.43 1538.51 L2036.43 1526.88 L2075.16 1526.88 L2075.16 1526.88 L2113.90 1526.88 L2113.90 1526.88 L2133.20 1526.88 L2133.20 1515.37 L2152.51 1515.37 L2152.51 1515.37 L2171.94 1515.37 L2171.94 1503.86 L2191.24 1503.86 L2191.24 1492.22 L2210.55 1492.22 L2210.55 1492.22 L2229.97 1492.22 L2229.97 1480.72 L2249.28 1480.72 L2249.28 1457.70 L2268.59 1457.70 L2268.59 1446.19 L2287.89 1446.19 L2287.89 1446.19 L2307.32 1446.19 L2307.32 1411.78 L2326.62 1411.78 L2326.62 1411.78 L2345.93 1411.78 L2345.93 1400.28 L2384.66 1400.28 L2384.66 1400.28 L2403.97 1400.28 L2403.97 1400.28 L2462.01 1400.28 L2462.01 1388.89 L2481.43 1388.89 L2481.43 1388.89 L2500.74 1388.89 L2500.74 1388.89 L2520.05 1388.89 L2520.05 1388.89 L2539.35 1388.89 L2539.35 1388.89 L2558.78 1388.89 L2558.78 1388.89 L2578.08 1388.89 L2578.08 1388.89 L2597.39 1388.89 L2597.39 1388.89 L2616.82 1388.89 L2616.82 1388.89 L2674.86 1388.89 L2674.86 1388.89 L2713.47 1388.89 L2713.47 1388.89 L2732.89 1388.89 L2732.89 1388.89 L2752.20 1388.89 L2752.20 1388.89 L2790.81 1388.89 L2790.81 1388.89 L2810.24 1388.89 L2810.24 1388.89 L2848.85 1388.89 L2848.85 1377.38 L2868.28 1377.38 L2868.28 1377.38 L2887.58 1377.38 L2887.58 1377.38 L2926.32 1377.38 L2926.32 1366.00 L2945.62 1366.00 L2945.62 1366.00 L2964.93 1366.00 L2964.93 1366.00 L2984.36 1366.00 L2984.36 1366.00 L3003.66 1366.00 L3003.66 1366.00" stroke-linejoin="round" style="fill:none;stroke:#C89A9D;stroke-width:8.64"/>
	<path d=" M682.48 2246.01 L682.48 2246.01 L682.48 2246.01 L701.79 2246.01 L701.79 2246.01 L721.09 2246.01 L721.09 2246.01 L740.52 2246.01 L740.52 2246.01 L759.83 2246.01 L759.83 2246.01 L779.13 2246.01 L779.13 2246.01 L798.56 2246.01 L798.56 2246.01 L817.86 2246.01 L817.86 2246.01 L837.17 2246.01 L837.17 2246.01 L856.60 2246.01 L856.60 2246.01 L875.90 2246.01 L875.90 2246.01 L895.21 2246.01 L895.21 2246.01 L914.64 2246.01 L914.64 2246.01 L933.94 2246.01 L933.94 2246.01 L953.25 2246.01 L953.25 2244.03 L972.55 2244.03 L972.55 2242.17 L991.98 2242.17 L991.98 2242.17 L1011.28 2242.17 L1011.28 2242.17 L1030.59 2242.17 L1030.59 2242.17 L1050.02 2242.17 L1050.02 2242.17 L1069.32 2242.17 L1069.32 2242.17 L1088.63 2242.17 L1088.63 2238.34 L1108.06 2238.34 L1108.06 2234.50 L1127.36 2234.50 L1127.36 2228.81 L1146.67 2228.81 L1146.67 2224.97 L1166.10 2224.97 L1166.10 2219.15 L1185.40 2219.15 L1185.40 2213.46 L1204.71 2213.46 L1204.71 2203.93 L1224.01 2203.93 L1224.01 2198.12 L1243.44 2198.12 L1243.44 2186.61 L1262.74 2186.61 L1262.74 2169.41 L1282.05 2169.41 L1282.05 2152.20 L1301.48 2152.20 L1301.48 2134.88 L1320.78 2134.88 L1320.78 2125.35 L1340.09 2125.35 L1340.09 2096.51 L1359.52 2096.51 L1359.52 2077.33 L1378.82 2077.33 L1378.82 2065.82 L1398.13 2065.82 L1398.13 2050.48 L1417.56 2050.48 L1417.56 2021.64 L1436.86 2021.64 L1436.86 2000.61 L1456.17 2000.61 L1456.17 1965.95 L1475.47 1965.95 L1475.47 1952.59 L1494.90 1952.59 L1494.90 1942.94 L1514.20 1942.94 L1514.20 1933.28 L1533.51 1933.28 L1533.51 1912.24 L1552.94 1912.24 L1552.94 1891.08 L1572.24 1891.08 L1572.24 1871.78 L1591.55 1871.78 L1591.55 1852.60 L1610.98 1852.60 L1610.98 1827.47 L1630.28 1827.47 L1630.28 1812.13 L1649.59 1812.13 L1649.59 1787.13 L1669.02 1787.13 L1669.02 1779.46 L1688.32 1779.46 L1688.32 1762.13 L1707.63 1762.13 L1707.63 1752.48 L1727.06 1752.48 L1727.06 1733.17 L1746.36 1733.17 L1746.36 1717.70 L1765.66 1717.70 L1765.66 1700.38 L1784.97 1700.38 L1784.97 1681.07 L1804.40 1681.07 L1804.40 1673.40 L1823.70 1673.40 L1823.70 1654.09 L1843.01 1654.09 L1843.01 1644.44 L1862.44 1644.44 L1862.44 1627.12 L1881.74 1627.12 L1881.74 1621.30 L1901.05 1621.30 L1901.05 1603.97 L1920.48 1603.97 L1920.48 1586.52 L1939.78 1586.52 L1939.78 1571.06 L1959.09 1571.06 L1959.09 1565.24 L1978.52 1565.24 L1978.52 1561.40 L1997.82 1561.40 L1997.82 1551.75 L2017.13 1551.75 L2017.13 1542.10 L2036.43 1542.10 L2036.43 1530.46 L2055.86 1530.46 L2055.86 1524.65 L2075.16 1524.65 L2075.16 1513.14 L2094.47 1513.14 L2094.47 1505.34 L2113.90 1505.34 L2113.90 1503.49 L2133.20 1503.49 L2133.20 1493.71 L2152.51 1493.71 L2152.51 1484.06 L2171.94 1484.06 L2171.94 1472.42 L2191.24 1472.42 L2191.24 1460.91 L2210.55 1460.91 L2210.55 1453.12 L2229.97 1453.12 L2229.97 1443.47 L2249.28 1443.47 L2249.28 1439.50 L2268.59 1439.50 L2268.59 1435.67 L2287.89 1435.67 L2287.89 1433.69 L2307.32 1433.69 L2307.32 1424.04 L2326.62 1424.04 L2326.62 1416.36 L2345.93 1416.36 L2345.93 1410.55 L2365.36 1410.55 L2365.36 1406.59 L2384.66 1406.59 L2384.66 1404.73 L2403.97 1404.73 L2403.97 1398.91 L2423.40 1398.91 L2423.40 1398.91 L2442.70 1398.91 L2442.70 1394.95 L2462.01 1394.95 L2462.01 1391.12 L2481.43 1391.12 L2481.43 1389.14 L2500.74 1389.14 L2500.74 1385.30 L2520.05 1385.30 L2520.05 1383.32 L2539.35 1383.32 L2539.35 1381.46 L2558.78 1381.46 L2558.78 1379.48 L2578.08 1379.48 L2578.08 1375.52 L2597.39 1375.52 L2597.39 1373.67 L2616.82 1373.67 L2616.82 1367.85 L2636.12 1367.85 L2636.12 1367.85 L2655.43 1367.85 L2655.43 1363.89 L2674.86 1363.89 L2674.86 1360.06 L2694.16 1360.06 L2694.16 1356.09 L2713.47 1356.09 L2713.47 1356.09 L2732.89 1356.09 L2732.89 1354.24 L2752.20 1354.24 L2752.20 1354.24 L2771.51 1354.24 L2771.51 1352.26 L2790.81 1352.26 L2790.81 1350.28 L2810.24 1350.28 L2810.24 1348.42 L2829.54 1348.42 L2829.54 1348.42 L2848.85 1348.42 L2848.85 1348.42 L2868.28 1348.42 L2868.28 1348.42 L2887.58 1348.42 L2887.58 1346.44 L2906.89 1346.44 L2906.89 1344.46 L2926.32 1344.46 L2926.32 1340.63 L2945.62 1340.63 L2945.62 1340.63 L2964.93 1340.63 L2964.93 1340.63 L2984.36 1340.63 L2984.36 1340.63 L3003.66 1340.63 L3003.66 1340.63" stroke-linejoin="round" style="fill:none;stroke:#1A476F;stroke-width:8.64"/>
	<path d=" M682.48 2246.01 L682.48 2246.01 L682.48 2246.01 L701.79 2246.01 L701.79 2246.01 L721.09 2246.01 L721.09 2246.01 L740.52 2246.01 L740.52 2246.01 L759.83 2246.01 L759.83 2246.01 L779.13 2246.01 L779.13 2246.01 L798.56 2246.01 L798.56 2246.01 L817.86 2246.01 L817.86 2246.01 L837.17 2246.01 L837.17 2246.01 L875.90 2246.01 L875.90 2246.01 L895.21 2246.01 L895.21 2246.01 L914.64 2246.01 L914.64 2246.01 L933.94 2246.01 L933.94 2246.01 L953.25 2246.01 L953.25 2246.01 L972.55 2246.01 L972.55 2246.01 L991.98 2246.01 L991.98 2246.01 L1011.28 2246.01 L1011.28 2246.01 L1050.02 2246.01 L1050.02 2235.74 L1069.32 2235.74 L1069.32 2235.74 L1088.63 2235.74 L1088.63 2235.74 L1127.36 2235.74 L1127.36 2235.74 L1146.67 2235.74 L1146.67 2215.44 L1166.10 2215.44 L1166.10 2215.44 L1185.40 2215.44 L1185.40 2205.17 L1204.71 2205.17 L1204.71 2184.87 L1224.01 2184.87 L1224.01 2184.87 L1243.44 2184.87 L1243.44 2164.46 L1262.74 2164.46 L1262.74 2164.46 L1282.05 2164.46 L1282.05 2154.31 L1301.48 2154.31 L1301.48 2144.04 L1320.78 2144.04 L1320.78 2144.04 L1340.09 2144.04 L1340.09 2144.04 L1359.52 2144.04 L1359.52 2144.04 L1378.82 2144.04 L1378.82 2123.74 L1398.13 2123.74 L1398.13 2113.47 L1417.56 2113.47 L1417.56 2103.32 L1436.86 2103.32 L1436.86 2072.75 L1456.17 2072.75 L1456.17 2031.91 L1475.47 2031.91 L1475.47 2011.50 L1494.90 2011.50 L1494.90 1980.93 L1514.20 1980.93 L1514.20 1980.93 L1533.51 1980.93 L1533.51 1970.78 L1552.94 1970.78 L1552.94 1950.36 L1572.24 1950.36 L1572.24 1940.09 L1591.55 1940.09 L1591.55 1909.52 L1610.98 1909.52 L1610.98 1899.37 L1630.28 1899.37 L1630.28 1889.10 L1649.59 1889.10 L1649.59 1878.95 L1669.02 1878.95 L1669.02 1878.95 L1688.32 1878.95 L1688.32 1858.54 L1707.63 1858.54 L1707.63 1838.12 L1727.06 1838.12 L1727.06 1838.12 L1746.36 1838.12 L1746.36 1817.70 L1784.97 1817.70 L1784.97 1797.28 L1804.40 1797.28 L1804.40 1797.28 L1823.70 1797.28 L1823.70 1756.44 L1843.01 1756.44 L1843.01 1756.44 L1862.44 1756.44 L1862.44 1746.17 L1881.74 1746.17 L1881.74 1736.02 L1901.05 1736.02 L1901.05 1736.02 L1920.48 1736.02 L1920.48 1736.02 L1939.78 1736.02 L1939.78 1725.75 L1959.09 1725.75 L1959.09 1715.48 L1978.52 1715.48 L1978.52 1715.48 L1997.82 1715.48 L1997.82 1705.33 L2017.13 1705.33 L2017.13 1705.33 L2036.43 1705.33 L2036.43 1695.06 L2075.16 1695.06 L2075.16 1695.06 L2113.90 1695.06 L2113.90 1695.06 L2133.20 1695.06 L2133.20 1684.91 L2152.51 1684.91 L2152.51 1684.91 L2171.94 1684.91 L2171.94 1674.64 L2191.24 1674.64 L2191.24 1664.49 L2210.55 1664.49 L2210.55 1664.49 L2229.97 1664.49 L2229.97 1654.22 L2249.28 1654.22 L2249.28 1633.80 L2268.59 1633.80 L2268.59 1623.53 L2287.89 1623.53 L2287.89 1623.53 L2307.32 1623.53 L2307.32 1592.84 L2326.62 1592.84 L2326.62 1592.84 L2345.93 1592.84 L2345.93 1582.69 L2384.66 1582.69 L2384.66 1582.69 L2403.97 1582.69 L2403.97 1582.69 L2462.01 1582.69 L2462.01 1572.42 L2481.43 1572.42 L2481.43 1572.42 L2500.74 1572.42 L2500.74 1572.42 L2520.05 1572.42 L2520.05 1572.42 L2539.35 1572.42 L2539.35 1572.42 L2558.78 1572.42 L2558.78 1572.42 L2578.08 1572.42 L2578.08 1572.42 L2597.39 1572.42 L2597.39 1572.42 L2616.82 1572.42 L2616.82 1572.42 L2674.86 1572.42 L2674.86 1572.42 L2713.47 1572.42 L2713.47 1572.42 L2732.89 1572.42 L2732.89 1572.42 L2752.20 1572.42 L2752.20 1572.42 L2790.81 1572.42 L2790.81 1572.42 L2810.24 1572.42 L2810.24 1572.42 L2848.85 1572.42 L2848.85 1562.15 L2868.28 1562.15 L2868.28 1562.15 L2887.58 1562.15 L2887.58 1562.15 L2926.32 1562.15 L2926.32 1551.87 L2945.62 1551.87 L2945.62 1551.87 L2964.93 1551.87 L2964.93 1551.87 L2984.36 1551.87 L2984.36 1551.87 L3003.66 1551.87 L3003.66 1551.87" stroke-linejoin="round" style="fill:none;stroke:#90353B;stroke-width:8.64"/>
	<line x1="619.12" y1="2309.25" x2="619.12" y2="630.90" style="stroke:#000000;stroke-width:5.76"/>
	<line x1="619.12" y1="2245.89" x2="579.15" y2="2245.89" style="stroke:#000000;stroke-width:5.76"/>
	<text x="559.23" y="2273.90" style="font-family:'Helvetica';font-size:79.94px;fill:#000000" text-anchor="end">0.000</text>
	<line x1="619.12" y1="1935.51" x2="579.15" y2="1935.51" style="stroke:#000000;stroke-width:5.76"/>
	<text x="559.23" y="1963.52" style="font-family:'Helvetica';font-size:79.94px;fill:#000000" text-anchor="end">0.001</text>
	<line x1="619.12" y1="1625.26" x2="579.15" y2="1625.26" style="stroke:#000000;stroke-width:5.76"/>
	<text x="559.23" y="1653.27" style="font-family:'Helvetica';font-size:79.94px;fill:#000000" text-anchor="end">0.002</text>
	<line x1="619.12" y1="1314.88" x2="579.15" y2="1314.88" style="stroke:#000000;stroke-width:5.76"/>
	<text x="559.23" y="1342.90" style="font-family:'Helvetica';font-size:79.94px;fill:#000000" text-anchor="end">0.003</text>
	<line x1="619.12" y1="1004.51" x2="579.15" y2="1004.51" style="stroke:#000000;stroke-width:5.76"/>
	<text x="559.23" y="1032.52" style="font-family:'Helvetica';font-size:79.94px;fill:#000000" text-anchor="end">0.004</text>
	<line x1="619.12" y1="694.26" x2="579.15" y2="694.26" style="stroke:#000000;stroke-width:5.76"/>
	<text x="559.23" y="722.27" style="font-family:'Helvetica';font-size:79.94px;fill:#000000" text-anchor="end">0.005</text>
	<line x1="619.12" y1="2309.25" x2="3840.83" y2="2309.25" style="stroke:#000000;stroke-width:5.76"/>
	<line x1="682.48" y1="2309.25" x2="682.48" y2="2349.22" style="stroke:#000000;stroke-width:5.76"/>
	<text x="682.48" y="2425.17" style="font-family:'Helvetica';font-size:79.94px;fill:#000000" text-anchor="middle">0</text>
	<line x1="1069.45" y1="2309.25" x2="1069.45" y2="2349.22" style="stroke:#000000;stroke-width:5.76"/>
	<text x="1069.45" y="2425.17" style="font-family:'Helvetica';font-size:79.94px;fill:#000000" text-anchor="middle">20</text>
	<line x1="1456.29" y1="2309.25" x2="1456.29" y2="2349.22" style="stroke:#000000;stroke-width:5.76"/>
	<text x="1456.29" y="2425.17" style="font-family:'Helvetica';font-size:79.94px;fill:#000000" text-anchor="middle">40</text>
	<line x1="1843.13" y1="2309.25" x2="1843.13" y2="2349.22" style="stroke:#000000;stroke-width:5.76"/>
	<text x="1843.13" y="2425.17" style="font-family:'Helvetica';font-size:79.94px;fill:#000000" text-anchor="middle">60</text>
	<line x1="2229.97" y1="2309.25" x2="2229.97" y2="2349.22" style="stroke:#000000;stroke-width:5.76"/>
	<text x="2229.97" y="2425.17" style="font-family:'Helvetica';font-size:79.94px;fill:#000000" text-anchor="middle">80</text>
	<line x1="2616.82" y1="2309.25" x2="2616.82" y2="2349.22" style="stroke:#000000;stroke-width:5.76"/>
	<text x="2616.82" y="2425.17" style="font-family:'Helvetica';font-size:79.94px;fill:#000000" text-anchor="middle">100</text>
	<line x1="3003.66" y1="2309.25" x2="3003.66" y2="2349.22" style="stroke:#000000;stroke-width:5.76"/>
	<text x="3003.66" y="2425.17" style="font-family:'Helvetica';font-size:79.94px;fill:#000000" text-anchor="middle">120</text>
	<line x1="3390.63" y1="2309.25" x2="3390.63" y2="2349.22" style="stroke:#000000;stroke-width:5.76"/>
	<text x="3390.63" y="2425.17" style="font-family:'Helvetica';font-size:79.94px;fill:#000000" text-anchor="middle">140</text>
	<line x1="3777.47" y1="2309.25" x2="3777.47" y2="2349.22" style="stroke:#000000;stroke-width:5.76"/>
	<text x="3777.47" y="2425.17" style="font-family:'Helvetica';font-size:79.94px;fill:#000000" text-anchor="middle">160</text>
	<text x="2229.97" y="2515.14" style="font-family:'Helvetica';font-size:79.94px;fill:#000000" text-anchor="middle">Days since 1 Mar 2020</text>
	<text x="682.48" y="2747.83" style="font-family:'Helvetica';font-size:60.02px;fill:#000000" text-anchor="middle">30501</text>
	<text x="1069.45" y="2747.83" style="font-family:'Helvetica';font-size:60.02px;fill:#000000" text-anchor="middle">30471</text>
	<text x="1456.29" y="2747.83" style="font-family:'Helvetica';font-size:60.02px;fill:#000000" text-anchor="middle">30418</text>
	<text x="1843.13" y="2747.83" style="font-family:'Helvetica';font-size:60.02px;fill:#000000" text-anchor="middle">30336</text>
	<text x="2229.97" y="2747.83" style="font-family:'Helvetica';font-size:60.02px;fill:#000000" text-anchor="middle">30296</text>
	<text x="2616.82" y="2747.83" style="font-family:'Helvetica';font-size:60.02px;fill:#000000" text-anchor="middle">30254</text>
	<text x="3003.66" y="2747.83" style="font-family:'Helvetica';font-size:60.02px;fill:#000000" text-anchor="middle">30220</text>
	<text x="3390.63" y="2747.83" style="font-family:'Helvetica';font-size:60.02px;fill:#000000" text-anchor="middle">0</text>
	<text x="3777.47" y="2747.83" style="font-family:'Helvetica';font-size:60.02px;fill:#000000" text-anchor="middle">0</text>
	<text x="527.79" y="2747.83" style="font-family:'Helvetica';font-size:60.02px;fill:#000000" text-anchor="end">HCQ</text>
	<text x="682.48" y="2674.44" style="font-family:'Helvetica';font-size:60.02px;fill:#000000" text-anchor="middle">163735</text>
	<text x="1069.45" y="2674.44" style="font-family:'Helvetica';font-size:60.02px;fill:#000000" text-anchor="middle">162536</text>
	<text x="1456.29" y="2674.44" style="font-family:'Helvetica';font-size:60.02px;fill:#000000" text-anchor="middle">161404</text>
	<text x="1843.13" y="2674.44" style="font-family:'Helvetica';font-size:60.02px;fill:#000000" text-anchor="middle">160524</text>
	<text x="2229.97" y="2674.44" style="font-family:'Helvetica';font-size:60.02px;fill:#000000" text-anchor="middle">159857</text>
	<text x="2616.82" y="2674.44" style="font-family:'Helvetica';font-size:60.02px;fill:#000000" text-anchor="middle">159344</text>
	<text x="3003.66" y="2674.44" style="font-family:'Helvetica';font-size:60.02px;fill:#000000" text-anchor="middle">158910</text>
	<text x="3390.63" y="2674.44" style="font-family:'Helvetica';font-size:60.02px;fill:#000000" text-anchor="middle">0</text>
	<text x="3777.47" y="2674.44" style="font-family:'Helvetica';font-size:60.02px;fill:#000000" text-anchor="middle">0</text>
	<text x="527.79" y="2674.44" style="font-family:'Helvetica';font-size:60.02px;fill:#000000" text-anchor="end">No HCQ</text>
	<text x="527.79" y="2601.18" style="font-family:'Helvetica';font-size:60.02px;fill:#000000" text-anchor="end">Number at risk</text>
	<rect x="1167.95" y="269.91" width="2124.05" height="326.46" style="fill:#FFFFFF"/>
	<rect x="1170.83" y="272.79" width="2118.29" height="320.70" style="fill:none;stroke:#EAF2F3;stroke-width:5.76"/>
	<rect x="1211.14" y="313.10" width="374.34" height="99.99" style="fill:#DDE3E9"/>
	<rect x="1215.46" y="317.42" width="365.70" height="91.35" style="fill:none;stroke:#DDE3E9;stroke-width:8.64"/>
	<rect x="2349.02" y="313.10" width="374.34" height="99.99" style="fill:#EEE1E2"/>
	<rect x="2353.34" y="317.42" width="365.70" height="91.35" style="fill:none;stroke:#EEE1E2;stroke-width:8.64"/>
	<line x1="1211.14" y1="503.06" x2="1585.48" y2="503.06" style="stroke:#1A476F;stroke-width:8.64"/>
	<line x1="2349.02" y1="503.06" x2="2723.37" y2="503.06" style="stroke:#90353B;stroke-width:8.64"/>
	<text x="1645.50" y="384.13" style="font-family:'Helvetica';font-size:60.02px;fill:#000000">No HCQ</text>
	<text x="2783.39" y="384.13" style="font-family:'Helvetica';font-size:60.02px;fill:#000000">95% CI</text>
	<text x="1645.50" y="524.10" style="font-family:'Helvetica';font-size:60.02px;fill:#000000">exposure = No HCQ</text>
	<text x="2783.39" y="524.10" style="font-family:'Helvetica';font-size:60.02px;fill:#000000">exposure = HCQ</text>
	<text x="1467.30" y="187.99" style="font-family:'Helvetica';font-size:99.99px;fill:#1E2D53">Time to COVID-19 Death in ONS</text>
</svg>
