<?xml version="1.0" encoding="UTF-8" standalone="no"?>
<!-- This is a Stata 16.1 generated SVG file (http://www.stata.com) -->

<svg version="1.1" width="5.50in" height="4.00in" viewBox="0 0 3960 2880" xmlns="http://www.w3.org/2000/svg" xmlns:xlink="http://www.w3.org/1999/xlink">
	<desc>Stata Graph - Graph</desc>
	<rect x="0" y="0" width="3960" height="2880" style="fill:#EAF2F3;stroke:none"/>
	<rect x="0.00" y="0.00" width="3959.88" height="2880.00" style="fill:#FFFFFF"/>
	<rect x="2.88" y="2.88" width="3954.12" height="2874.24" style="fill:none;stroke:#EAF2F3;stroke-width:5.76"/>
	<rect x="619.12" y="490.93" width="3221.71" height="1818.32" style="fill:#FFFFFF"/>
	<rect x="622.00" y="493.81" width="3215.95" height="1812.56" style="fill:none;stroke:#FFFFFF;stroke-width:5.76"/>
	<line x1="619.12" y1="2245.89" x2="3840.83" y2="2245.89" style="stroke:#EAF2F3;stroke-width:8.64"/>
	<line x1="619.12" y1="1823.02" x2="3840.83" y2="1823.02" style="stroke:#EAF2F3;stroke-width:8.64"/>
	<line x1="619.12" y1="1400.03" x2="3840.83" y2="1400.03" style="stroke:#EAF2F3;stroke-width:8.64"/>
	<line x1="619.12" y1="977.16" x2="3840.83" y2="977.16" style="stroke:#EAF2F3;stroke-width:8.64"/>
	<path d=" M682.48 2246.01 L682.48 2246.01 L682.48 2246.01 L701.79 2246.01 L701.79 2246.01 L721.09 2246.01 L721.09 2246.01 L740.52 2246.01 L740.52 2246.01 L759.83 2246.01 L759.83 2246.01 L779.13 2246.01 L779.13 2246.01 L798.56 2246.01 L798.56 2246.01 L817.86 2246.01 L817.86 2246.01 L837.17 2246.01 L837.17 2246.01 L856.60 2246.01 L856.60 2246.01 L875.90 2246.01 L875.90 2246.01 L895.21 2246.01 L895.21 2246.01 L914.64 2246.01 L914.64 2246.01 L933.94 2246.01 L933.94 2246.01 L953.25 2246.01 L953.25 2245.39 L972.55 2245.39 L972.55 2244.90 L991.98 2244.90 L991.98 2244.90 L1011.28 2244.90 L1011.28 2244.90 L1030.59 2244.90 L1030.59 2244.90 L1050.02 2244.90 L1050.02 2244.90 L1069.32 2244.90 L1069.32 2244.90 L1088.63 2244.90 L1088.63 2243.91 L1108.06 2243.91 L1108.06 2242.79 L1127.36 2242.79 L1127.36 2241.31 L1146.67 2241.31 L1146.67 2240.19 L1166.10 2240.19 L1166.10 2238.71 L1185.40 2238.71 L1185.40 2237.10 L1204.71 2237.10 L1204.71 2234.50 L1224.01 2234.50 L1224.01 2232.89 L1243.44 2232.89 L1243.44 2229.80 L1262.74 2229.80 L1262.74 2225.09 L1282.05 2225.09 L1282.05 2220.39 L1301.48 2220.39 L1301.48 2215.69 L1320.78 2215.69 L1320.78 2213.09 L1340.09 2213.09 L1340.09 2205.29 L1359.52 2205.29 L1359.52 2199.97 L1378.82 2199.97 L1378.82 2196.88 L1398.13 2196.88 L1398.13 2192.67 L1417.56 2192.67 L1417.56 2184.87 L1436.86 2184.87 L1436.86 2179.06 L1456.17 2179.06 L1456.17 2169.65 L1475.47 2169.65 L1475.47 2165.94 L1494.90 2165.94 L1494.90 2163.34 L1514.20 2163.34 L1514.20 2160.74 L1533.51 2160.74 L1533.51 2154.93 L1552.94 2154.93 L1552.94 2149.23 L1572.24 2149.23 L1572.24 2143.91 L1591.55 2143.91 L1591.55 2138.71 L1610.98 2138.71 L1610.98 2131.91 L1630.28 2131.91 L1630.28 2127.70 L1649.59 2127.70 L1649.59 2120.89 L1669.02 2120.89 L1669.02 2118.79 L1688.32 2118.79 L1688.32 2114.09 L1707.63 2114.09 L1707.63 2111.49 L1727.06 2111.49 L1727.06 2106.17 L1746.36 2106.17 L1746.36 2101.96 L1765.66 2101.96 L1765.66 2097.26 L1784.97 2097.26 L1784.97 2091.94 L1804.40 2091.94 L1804.40 2089.83 L1823.70 2089.83 L1823.70 2084.63 L1843.01 2084.63 L1843.01 2082.04 L1862.44 2082.04 L1862.44 2077.21 L1881.74 2077.21 L1881.74 2075.72 L1901.05 2075.72 L1901.05 2070.90 L1920.48 2070.90 L1920.48 2066.19 L1939.78 2066.19 L1939.78 2061.99 L1959.09 2061.99 L1959.09 2060.38 L1978.52 2060.38 L1978.52 2059.39 L1997.82 2059.39 L1997.82 2056.79 L2017.13 2056.79 L2017.13 2054.07 L2036.43 2054.07 L2036.43 2051.47 L2055.86 2051.47 L2055.86 2049.86 L2075.16 2049.86 L2075.16 2046.77 L2094.47 2046.77 L2094.47 2044.66 L2113.90 2044.66 L2113.90 2044.04 L2133.20 2044.04 L2133.20 2041.44 L2152.51 2041.44 L2152.51 2038.84 L2171.94 2038.84 L2171.94 2035.63 L2191.24 2035.63 L2191.24 2032.53 L2210.55 2032.53 L2210.55 2030.43 L2229.97 2030.43 L2229.97 2027.71 L2249.28 2027.71 L2249.28 2026.72 L2268.59 2026.72 L2268.59 2025.60 L2287.89 2025.60 L2287.89 2025.11 L2307.32 2025.11 L2307.32 2022.51 L2326.62 2022.51 L2326.62 2020.28 L2345.93 2020.28 L2345.93 2018.80 L2365.36 2018.80 L2365.36 2017.68 L2384.66 2017.68 L2384.66 2017.19 L2403.97 2017.19 L2403.97 2015.58 L2423.40 2015.58 L2423.40 2015.58 L2442.70 2015.58 L2442.70 2014.47 L2462.01 2014.47 L2462.01 2013.48 L2481.43 2013.48 L2481.43 2012.98 L2500.74 2012.98 L2500.74 2011.87 L2520.05 2011.87 L2520.05 2011.37 L2539.35 2011.37 L2539.35 2010.88 L2558.78 2010.88 L2558.78 2010.26 L2578.08 2010.26 L2578.08 2009.27 L2597.39 2009.27 L2597.39 2008.65 L2616.82 2008.65 L2616.82 2007.16 L2636.12 2007.16 L2636.12 2007.16 L2655.43 2007.16 L2655.43 2006.05 L2674.86 2006.05 L2674.86 2005.06 L2694.16 2005.06 L2694.16 2004.44 L2713.47 2004.44 L2713.47 2004.44 L2732.89 2004.44 L2732.89 2003.95" stroke-linejoin="round" style="fill:none;stroke:#1A476F;stroke-width:8.64"/>
	<path d=" M682.48 2246.01 L682.48 2246.01 L682.48 2246.01 L701.79 2246.01 L701.79 2246.01 L721.09 2246.01 L721.09 2246.01 L740.52 2246.01 L740.52 2246.01 L759.83 2246.01 L759.83 2246.01 L779.13 2246.01 L779.13 2246.01 L798.56 2246.01 L798.56 2246.01 L817.86 2246.01 L817.86 2246.01 L837.17 2246.01 L837.17 2246.01 L875.90 2246.01 L875.90 2246.01 L895.21 2246.01 L895.21 2246.01 L914.64 2246.01 L914.64 2246.01 L933.94 2246.01 L933.94 2246.01 L953.25 2246.01 L953.25 2246.01 L972.55 2246.01 L972.55 2246.01 L991.98 2246.01 L991.98 2246.01 L1050.02 2246.01 L1050.02 2243.16 L1069.32 2243.16 L1069.32 2243.16 L1088.63 2243.16 L1088.63 2243.16 L1127.36 2243.16 L1127.36 2243.16 L1146.67 2243.16 L1146.67 2237.59 L1166.10 2237.59 L1166.10 2237.59 L1185.40 2237.59 L1185.40 2234.87 L1204.71 2234.87 L1204.71 2229.30 L1224.01 2229.30 L1224.01 2229.30 L1243.44 2229.30 L1243.44 2223.73 L1262.74 2223.73 L1262.74 2223.73 L1282.05 2223.73 L1282.05 2221.01 L1301.48 2221.01 L1301.48 2218.16 L1320.78 2218.16 L1320.78 2218.16 L1340.09 2218.16 L1340.09 2218.16 L1359.52 2218.16 L1359.52 2218.16 L1378.82 2218.16 L1378.82 2212.60 L1398.13 2212.60 L1398.13 2209.87 L1417.56 2209.87 L1417.56 2207.03 L1436.86 2207.03 L1436.86 2198.73 L1456.17 2198.73 L1456.17 2187.60 L1475.47 2187.60 L1475.47 2182.03 L1494.90 2182.03 L1494.90 2173.74 L1514.20 2173.74 L1514.20 2173.74 L1533.51 2173.74 L1533.51 2170.89 L1552.94 2170.89 L1552.94 2165.45 L1572.24 2165.45 L1572.24 2162.60 L1591.55 2162.60 L1591.55 2154.31 L1610.98 2154.31 L1610.98 2151.46 L1630.28 2151.46 L1630.28 2148.74 L1649.59 2148.74 L1649.59 2145.89 L1669.02 2145.89 L1669.02 2145.89 L1688.32 2145.89 L1688.32 2140.32 L1707.63 2140.32 L1707.63 2134.75 L1727.06 2134.75 L1727.06 2134.75 L1746.36 2134.75 L1746.36 2129.19 L1784.97 2129.19 L1784.97 2123.62 L1804.40 2123.62 L1804.40 2123.62 L1823.70 2123.62 L1823.70 2112.48 L1843.01 2112.48 L1843.01 2112.48 L1862.44 2112.48 L1862.44 2109.76 L1881.74 2109.76 L1881.74 2106.91 L1901.05 2106.91 L1901.05 2106.91 L1920.48 2106.91 L1920.48 2106.91 L1939.78 2106.91 L1939.78 2104.19 L1959.09 2104.19 L1959.09 2101.34 L1978.52 2101.34 L1978.52 2101.34 L1997.82 2101.34 L1997.82 2098.62 L2017.13 2098.62 L2017.13 2098.62 L2036.43 2098.62 L2036.43 2095.77 L2075.16 2095.77 L2075.16 2095.77 L2113.90 2095.77 L2113.90 2095.77 L2133.20 2095.77 L2133.20 2093.05 L2152.51 2093.05 L2152.51 2093.05 L2171.94 2093.05 L2171.94 2090.20 L2191.24 2090.20 L2191.24 2087.48 L2210.55 2087.48 L2210.55 2087.48 L2229.97 2087.48 L2229.97 2084.63 L2249.28 2084.63 L2249.28 2079.06 L2268.59 2079.06 L2268.59 2076.34 L2287.89 2076.34 L2287.89 2076.34 L2307.32 2076.34 L2307.32 2067.93 L2326.62 2067.93 L2326.62 2067.93 L2345.93 2067.93 L2345.93 2065.20 L2384.66 2065.20 L2384.66 2065.20 L2403.97 2065.20 L2403.97 2065.20 L2462.01 2065.20 L2462.01 2062.36 L2481.43 2062.36 L2481.43 2062.36 L2500.74 2062.36 L2500.74 2062.36 L2520.05 2062.36 L2520.05 2062.36 L2539.35 2062.36 L2539.35 2062.36 L2558.78 2062.36 L2558.78 2062.36 L2578.08 2062.36 L2578.08 2062.36 L2597.39 2062.36 L2597.39 2062.36 L2616.82 2062.36 L2616.82 2062.36 L2674.86 2062.36 L2674.86 2062.36 L2713.47 2062.36 L2713.47 2062.36 L2732.89 2062.36 L2732.89 2062.36" stroke-linejoin="round" style="fill:none;stroke:#90353B;stroke-width:8.64"/>
	<line x1="619.12" y1="2309.25" x2="619.12" y2="490.93" style="stroke:#000000;stroke-width:5.76"/>
	<line x1="619.12" y1="2245.89" x2="579.15" y2="2245.89" style="stroke:#000000;stroke-width:5.76"/>
	<text x="559.23" y="2273.90" style="font-family:'Helvetica';font-size:79.94px;fill:#000000" text-anchor="end">0.000</text>
	<line x1="619.12" y1="1823.02" x2="579.15" y2="1823.02" style="stroke:#000000;stroke-width:5.76"/>
	<text x="559.23" y="1851.03" style="font-family:'Helvetica';font-size:79.94px;fill:#000000" text-anchor="end">0.005</text>
	<line x1="619.12" y1="1400.03" x2="579.15" y2="1400.03" style="stroke:#000000;stroke-width:5.76"/>
	<text x="559.23" y="1428.04" style="font-family:'Helvetica';font-size:79.94px;fill:#000000" text-anchor="end">0.010</text>
	<line x1="619.12" y1="977.16" x2="579.15" y2="977.16" style="stroke:#000000;stroke-width:5.76"/>
	<text x="559.23" y="1005.17" style="font-family:'Helvetica';font-size:79.94px;fill:#000000" text-anchor="end">0.015</text>
	<line x1="619.12" y1="554.29" x2="579.15" y2="554.29" style="stroke:#000000;stroke-width:5.76"/>
	<text x="559.23" y="582.31" style="font-family:'Helvetica';font-size:79.94px;fill:#000000" text-anchor="end">0.020</text>
	<text x="682.48" y="2747.83" style="font-family:'Helvetica';font-size:60.02px;fill:#000000" text-anchor="middle">30500</text>
	<text x="1069.45" y="2747.83" style="font-family:'Helvetica';font-size:60.02px;fill:#000000" text-anchor="middle">30471</text>
	<text x="1456.29" y="2747.83" style="font-family:'Helvetica';font-size:60.02px;fill:#000000" text-anchor="middle">30418</text>
	<text x="1843.13" y="2747.83" style="font-family:'Helvetica';font-size:60.02px;fill:#000000" text-anchor="middle">30336</text>
	<text x="2229.97" y="2747.83" style="font-family:'Helvetica';font-size:60.02px;fill:#000000" text-anchor="middle">30296</text>
	<text x="2616.82" y="2747.83" style="font-family:'Helvetica';font-size:60.02px;fill:#000000" text-anchor="middle">30255</text>
	<text x="3003.66" y="2747.83" style="font-family:'Helvetica';font-size:60.02px;fill:#000000" text-anchor="middle">0</text>
	<text x="3390.63" y="2747.83" style="font-family:'Helvetica';font-size:60.02px;fill:#000000" text-anchor="middle">0</text>
	<text x="3777.47" y="2747.83" style="font-family:'Helvetica';font-size:60.02px;fill:#000000" text-anchor="middle">0</text>
	<text x="527.79" y="2747.83" style="font-family:'Helvetica';font-size:60.02px;fill:#000000" text-anchor="end">HCQ</text>
	<text x="682.48" y="2674.44" style="font-family:'Helvetica';font-size:60.02px;fill:#000000" text-anchor="middle">163720</text>
	<text x="1069.45" y="2674.44" style="font-family:'Helvetica';font-size:60.02px;fill:#000000" text-anchor="middle">162522</text>
	<text x="1456.29" y="2674.44" style="font-family:'Helvetica';font-size:60.02px;fill:#000000" text-anchor="middle">161390</text>
	<text x="1843.13" y="2674.44" style="font-family:'Helvetica';font-size:60.02px;fill:#000000" text-anchor="middle">160511</text>
	<text x="2229.97" y="2674.44" style="font-family:'Helvetica';font-size:60.02px;fill:#000000" text-anchor="middle">159846</text>
	<text x="2616.82" y="2674.44" style="font-family:'Helvetica';font-size:60.02px;fill:#000000" text-anchor="middle">159333</text>
	<text x="3003.66" y="2674.44" style="font-family:'Helvetica';font-size:60.02px;fill:#000000" text-anchor="middle">0</text>
	<text x="3390.63" y="2674.44" style="font-family:'Helvetica';font-size:60.02px;fill:#000000" text-anchor="middle">0</text>
	<text x="3777.47" y="2674.44" style="font-family:'Helvetica';font-size:60.02px;fill:#000000" text-anchor="middle">0</text>
	<text x="527.79" y="2674.44" style="font-family:'Helvetica';font-size:60.02px;fill:#000000" text-anchor="end">No HCQ</text>
	<text x="527.79" y="2601.18" style="font-family:'Helvetica';font-size:60.02px;fill:#000000" text-anchor="end">Number at risk</text>
	<line x1="619.12" y1="2309.25" x2="3840.83" y2="2309.25" style="stroke:#000000;stroke-width:5.76"/>
	<line x1="682.48" y1="2309.25" x2="682.48" y2="2349.22" style="stroke:#000000;stroke-width:5.76"/>
	<text x="682.48" y="2425.17" style="font-family:'Helvetica';font-size:79.94px;fill:#000000" text-anchor="middle">0</text>
	<line x1="1069.45" y1="2309.25" x2="1069.45" y2="2349.22" style="stroke:#000000;stroke-width:5.76"/>
	<text x="1069.45" y="2425.17" style="font-family:'Helvetica';font-size:79.94px;fill:#000000" text-anchor="middle">20</text>
	<line x1="1456.29" y1="2309.25" x2="1456.29" y2="2349.22" style="stroke:#000000;stroke-width:5.76"/>
	<text x="1456.29" y="2425.17" style="font-family:'Helvetica';font-size:79.94px;fill:#000000" text-anchor="middle">40</text>
	<line x1="1843.13" y1="2309.25" x2="1843.13" y2="2349.22" style="stroke:#000000;stroke-width:5.76"/>
	<text x="1843.13" y="2425.17" style="font-family:'Helvetica';font-size:79.94px;fill:#000000" text-anchor="middle">60</text>
	<line x1="2229.97" y1="2309.25" x2="2229.97" y2="2349.22" style="stroke:#000000;stroke-width:5.76"/>
	<text x="2229.97" y="2425.17" style="font-family:'Helvetica';font-size:79.94px;fill:#000000" text-anchor="middle">80</text>
	<line x1="2616.82" y1="2309.25" x2="2616.82" y2="2349.22" style="stroke:#000000;stroke-width:5.76"/>
	<text x="2616.82" y="2425.17" style="font-family:'Helvetica';font-size:79.94px;fill:#000000" text-anchor="middle">100</text>
	<line x1="3003.66" y1="2309.25" x2="3003.66" y2="2349.22" style="stroke:#000000;stroke-width:5.76"/>
	<text x="3003.66" y="2425.17" style="font-family:'Helvetica';font-size:79.94px;fill:#000000" text-anchor="middle">120</text>
	<line x1="3390.63" y1="2309.25" x2="3390.63" y2="2349.22" style="stroke:#000000;stroke-width:5.76"/>
	<text x="3390.63" y="2425.17" style="font-family:'Helvetica';font-size:79.94px;fill:#000000" text-anchor="middle">140</text>
	<line x1="3777.47" y1="2309.25" x2="3777.47" y2="2349.22" style="stroke:#000000;stroke-width:5.76"/>
	<text x="3777.47" y="2425.17" style="font-family:'Helvetica';font-size:79.94px;fill:#000000" text-anchor="middle">160</text>
	<text x="2229.97" y="2515.14" style="font-family:'Helvetica';font-size:79.94px;fill:#000000" text-anchor="middle">Days since 1 Mar 2020</text>
	<rect x="1493.41" y="269.91" width="1473.12" height="186.37" style="fill:#FFFFFF"/>
	<rect x="1496.29" y="272.79" width="1467.36" height="180.61" style="fill:none;stroke:#EAF2F3;stroke-width:5.76"/>
	<line x1="1536.60" y1="363.09" x2="1910.95" y2="363.09" style="stroke:#1A476F;stroke-width:8.64"/>
	<line x1="2349.02" y1="363.09" x2="2723.37" y2="363.09" style="stroke:#90353B;stroke-width:8.64"/>
	<text x="1970.97" y="384.13" style="font-family:'Helvetica';font-size:60.02px;fill:#000000">No HCQ</text>
	<text x="2783.39" y="384.13" style="font-family:'Helvetica';font-size:60.02px;fill:#000000">HCQ</text>
	<text x="1467.30" y="187.99" style="font-family:'Helvetica';font-size:99.99px;fill:#1E2D53">Time to COVID-19 Death in ONS</text>
</svg>
