<?xml version="1.0" encoding="UTF-8" standalone="no"?>
<!-- This is a Stata 16.1 generated SVG file (http://www.stata.com) -->

<svg version="1.1" width="5.50in" height="4.00in" viewBox="0 0 3960 2880" xmlns="http://www.w3.org/2000/svg" xmlns:xlink="http://www.w3.org/1999/xlink">
	<desc>Stata Graph - Graph</desc>
	<rect x="0" y="0" width="3960" height="2880" style="fill:#EAF2F3;stroke:none"/>
	<rect x="0.00" y="0.00" width="3959.88" height="2880.00" style="fill:#EAF2F3"/>
	<rect x="2.88" y="2.88" width="3954.12" height="2874.24" style="fill:none;stroke:#EAF2F3;stroke-width:5.76"/>
	<rect x="387.34" y="100.86" width="3471.68" height="2428.42" style="fill:#FFFFFF"/>
	<rect x="390.22" y="103.74" width="3465.92" height="2422.66" style="fill:none;stroke:#FFFFFF;stroke-width:5.76"/>
	<line x1="387.34" y1="2529.28" x2="3859.02" y2="2529.28" style="stroke:#EAF2F3;stroke-width:5.76"/>
	<line x1="387.34" y1="1937.99" x2="3859.02" y2="1937.99" style="stroke:#EAF2F3;stroke-width:5.76"/>
	<line x1="387.34" y1="1346.69" x2="3859.02" y2="1346.69" style="stroke:#EAF2F3;stroke-width:5.76"/>
	<line x1="387.34" y1="755.39" x2="3859.02" y2="755.39" style="stroke:#EAF2F3;stroke-width:5.76"/>
	<line x1="387.34" y1="164.22" x2="3859.02" y2="164.22" style="stroke:#EAF2F3;stroke-width:5.76"/>
	<line x1="461.59" y1="2529.28" x2="461.59" y2="100.86" style="stroke:#EAF2F3;stroke-width:5.76"/>
	<line x1="1137.14" y1="2529.28" x2="1137.14" y2="100.86" style="stroke:#EAF2F3;stroke-width:5.76"/>
	<line x1="1790.91" y1="2529.28" x2="1790.91" y2="100.86" style="stroke:#EAF2F3;stroke-width:5.76"/>
	<line x1="2466.46" y1="2529.28" x2="2466.46" y2="100.86" style="stroke:#EAF2F3;stroke-width:5.76"/>
	<line x1="3120.23" y1="2529.28" x2="3120.23" y2="100.86" style="stroke:#EAF2F3;stroke-width:5.76"/>
	<rect x="461.59" y="1642.34" width="21.90" height="886.94" style="fill:#CAC27E"/>
	<rect x="465.91" y="1646.66" width="13.26" height="878.30" style="fill:none;stroke:#D7D29E;stroke-width:8.64"/>
	<rect x="483.49" y="1465.00" width="21.78" height="1064.28" style="fill:#CAC27E"/>
	<rect x="487.81" y="1469.32" width="13.14" height="1055.64" style="fill:none;stroke:#D7D29E;stroke-width:8.64"/>
	<rect x="505.27" y="1465.00" width="21.78" height="1064.28" style="fill:#CAC27E"/>
	<rect x="509.59" y="1469.32" width="13.14" height="1055.64" style="fill:none;stroke:#D7D29E;stroke-width:8.64"/>
	<rect x="527.05" y="1760.65" width="21.78" height="768.64" style="fill:#CAC27E"/>
	<rect x="531.37" y="1764.97" width="13.14" height="760.00" style="fill:none;stroke:#D7D29E;stroke-width:8.64"/>
	<rect x="548.83" y="1642.34" width="21.78" height="886.94" style="fill:#CAC27E"/>
	<rect x="553.15" y="1646.66" width="13.14" height="878.30" style="fill:none;stroke:#D7D29E;stroke-width:8.64"/>
	<rect x="570.61" y="1465.00" width="21.78" height="1064.28" style="fill:#CAC27E"/>
	<rect x="574.93" y="1469.32" width="13.14" height="1055.64" style="fill:none;stroke:#D7D29E;stroke-width:8.64"/>
	<rect x="592.39" y="1228.50" width="21.78" height="1300.78" style="fill:#CAC27E"/>
	<rect x="596.71" y="1232.82" width="13.14" height="1292.14" style="fill:none;stroke:#D7D29E;stroke-width:8.64"/>
	<rect x="614.17" y="1701.49" width="21.78" height="827.79" style="fill:#CAC27E"/>
	<rect x="618.49" y="1705.81" width="13.14" height="819.15" style="fill:none;stroke:#D7D29E;stroke-width:8.64"/>
	<rect x="635.95" y="1465.00" width="21.78" height="1064.28" style="fill:#CAC27E"/>
	<rect x="640.27" y="1469.32" width="13.14" height="1055.64" style="fill:none;stroke:#D7D29E;stroke-width:8.64"/>
	<rect x="657.73" y="1405.84" width="21.78" height="1123.44" style="fill:#CAC27E"/>
	<rect x="662.05" y="1410.16" width="13.14" height="1114.80" style="fill:none;stroke:#D7D29E;stroke-width:8.64"/>
	<rect x="679.51" y="1701.49" width="21.78" height="827.79" style="fill:#CAC27E"/>
	<rect x="683.83" y="1705.81" width="13.14" height="819.15" style="fill:none;stroke:#D7D29E;stroke-width:8.64"/>
	<rect x="701.29" y="1937.99" width="21.90" height="591.30" style="fill:#CAC27E"/>
	<rect x="705.61" y="1942.31" width="13.26" height="582.66" style="fill:none;stroke:#D7D29E;stroke-width:8.64"/>
	<rect x="723.20" y="1701.49" width="21.78" height="827.79" style="fill:#CAC27E"/>
	<rect x="727.51" y="1705.81" width="13.14" height="819.15" style="fill:none;stroke:#D7D29E;stroke-width:8.64"/>
	<rect x="744.98" y="1228.50" width="21.78" height="1300.78" style="fill:#CAC27E"/>
	<rect x="749.29" y="1232.82" width="13.14" height="1292.14" style="fill:none;stroke:#D7D29E;stroke-width:8.64"/>
	<rect x="766.75" y="1287.54" width="21.78" height="1241.75" style="fill:#CAC27E"/>
	<rect x="771.07" y="1291.86" width="13.14" height="1233.11" style="fill:none;stroke:#D7D29E;stroke-width:8.64"/>
	<rect x="788.53" y="1465.00" width="21.78" height="1064.28" style="fill:#CAC27E"/>
	<rect x="792.85" y="1469.32" width="13.14" height="1055.64" style="fill:none;stroke:#D7D29E;stroke-width:8.64"/>
	<rect x="810.32" y="1465.00" width="21.78" height="1064.28" style="fill:#CAC27E"/>
	<rect x="814.63" y="1469.32" width="13.14" height="1055.64" style="fill:none;stroke:#D7D29E;stroke-width:8.64"/>
	<rect x="832.10" y="1583.18" width="21.78" height="946.10" style="fill:#CAC27E"/>
	<rect x="836.41" y="1587.50" width="13.14" height="937.46" style="fill:none;stroke:#D7D29E;stroke-width:8.64"/>
	<rect x="853.88" y="1642.34" width="21.78" height="886.94" style="fill:#CAC27E"/>
	<rect x="858.19" y="1646.66" width="13.14" height="878.30" style="fill:none;stroke:#D7D29E;stroke-width:8.64"/>
	<rect x="875.65" y="1524.03" width="21.78" height="1005.25" style="fill:#CAC27E"/>
	<rect x="879.97" y="1528.35" width="13.14" height="996.61" style="fill:none;stroke:#D7D29E;stroke-width:8.64"/>
	<rect x="897.43" y="1878.83" width="21.78" height="650.45" style="fill:#CAC27E"/>
	<rect x="901.75" y="1883.15" width="13.14" height="641.81" style="fill:none;stroke:#D7D29E;stroke-width:8.64"/>
	<rect x="919.22" y="1701.49" width="21.78" height="827.79" style="fill:#CAC27E"/>
	<rect x="923.53" y="1705.81" width="13.14" height="819.15" style="fill:none;stroke:#D7D29E;stroke-width:8.64"/>
	<rect x="941.00" y="1524.03" width="21.90" height="1005.25" style="fill:#CAC27E"/>
	<rect x="945.31" y="1528.35" width="13.26" height="996.61" style="fill:none;stroke:#D7D29E;stroke-width:8.64"/>
	<rect x="962.90" y="1287.54" width="21.78" height="1241.75" style="fill:#CAC27E"/>
	<rect x="967.22" y="1291.86" width="13.14" height="1233.11" style="fill:none;stroke:#D7D29E;stroke-width:8.64"/>
	<rect x="984.68" y="1346.69" width="21.78" height="1182.59" style="fill:#CAC27E"/>
	<rect x="989.00" y="1351.01" width="13.14" height="1173.95" style="fill:none;stroke:#D7D29E;stroke-width:8.64"/>
	<rect x="1006.46" y="1405.84" width="21.78" height="1123.44" style="fill:#CAC27E"/>
	<rect x="1010.78" y="1410.16" width="13.14" height="1114.80" style="fill:none;stroke:#D7D29E;stroke-width:8.64"/>
	<rect x="1028.24" y="1169.35" width="21.78" height="1359.93" style="fill:#CAC27E"/>
	<rect x="1032.56" y="1173.67" width="13.14" height="1351.29" style="fill:none;stroke:#D7D29E;stroke-width:8.64"/>
	<rect x="1050.02" y="814.55" width="21.78" height="1714.73" style="fill:#CAC27E"/>
	<rect x="1054.34" y="818.87" width="13.14" height="1706.09" style="fill:none;stroke:#D7D29E;stroke-width:8.64"/>
	<rect x="1071.80" y="932.86" width="21.78" height="1596.42" style="fill:#CAC27E"/>
	<rect x="1076.12" y="937.18" width="13.14" height="1587.79" style="fill:none;stroke:#D7D29E;stroke-width:8.64"/>
	<rect x="1093.58" y="1110.20" width="21.78" height="1419.09" style="fill:#CAC27E"/>
	<rect x="1097.90" y="1114.52" width="13.14" height="1410.45" style="fill:none;stroke:#D7D29E;stroke-width:8.64"/>
	<rect x="1115.36" y="696.36" width="21.78" height="1832.92" style="fill:#CAC27E"/>
	<rect x="1119.68" y="700.68" width="13.14" height="1824.28" style="fill:none;stroke:#D7D29E;stroke-width:8.64"/>
	<rect x="1137.14" y="1346.69" width="21.78" height="1182.59" style="fill:#CAC27E"/>
	<rect x="1141.46" y="1351.01" width="13.14" height="1173.95" style="fill:none;stroke:#D7D29E;stroke-width:8.64"/>
	<rect x="1158.92" y="637.21" width="21.90" height="1892.07" style="fill:#CAC27E"/>
	<rect x="1163.24" y="641.53" width="13.26" height="1883.43" style="fill:none;stroke:#D7D29E;stroke-width:8.64"/>
	<rect x="1180.82" y="1405.84" width="21.78" height="1123.44" style="fill:#CAC27E"/>
	<rect x="1185.14" y="1410.16" width="13.14" height="1114.80" style="fill:none;stroke:#D7D29E;stroke-width:8.64"/>
	<rect x="1202.60" y="578.05" width="21.78" height="1951.23" style="fill:#CAC27E"/>
	<rect x="1206.92" y="582.37" width="13.14" height="1942.59" style="fill:none;stroke:#D7D29E;stroke-width:8.64"/>
	<rect x="1224.38" y="755.39" width="21.78" height="1773.89" style="fill:#CAC27E"/>
	<rect x="1228.70" y="759.71" width="13.14" height="1765.25" style="fill:none;stroke:#D7D29E;stroke-width:8.64"/>
	<rect x="1246.16" y="1169.35" width="21.78" height="1359.93" style="fill:#CAC27E"/>
	<rect x="1250.48" y="1173.67" width="13.14" height="1351.29" style="fill:none;stroke:#D7D29E;stroke-width:8.64"/>
	<rect x="1267.94" y="1228.50" width="21.78" height="1300.78" style="fill:#CAC27E"/>
	<rect x="1272.26" y="1232.82" width="13.14" height="1292.14" style="fill:none;stroke:#D7D29E;stroke-width:8.64"/>
	<rect x="1289.72" y="991.89" width="21.78" height="1537.39" style="fill:#CAC27E"/>
	<rect x="1294.04" y="996.21" width="13.14" height="1528.75" style="fill:none;stroke:#D7D29E;stroke-width:8.64"/>
	<rect x="1311.50" y="223.25" width="21.78" height="2306.03" style="fill:#CAC27E"/>
	<rect x="1315.82" y="227.57" width="13.14" height="2297.39" style="fill:none;stroke:#D7D29E;stroke-width:8.64"/>
	<rect x="1333.28" y="223.25" width="21.78" height="2306.03" style="fill:#CAC27E"/>
	<rect x="1337.60" y="227.57" width="13.14" height="2297.39" style="fill:none;stroke:#D7D29E;stroke-width:8.64"/>
	<rect x="1355.06" y="991.89" width="21.78" height="1537.39" style="fill:#CAC27E"/>
	<rect x="1359.38" y="996.21" width="13.14" height="1528.75" style="fill:none;stroke:#D7D29E;stroke-width:8.64"/>
	<rect x="1376.84" y="637.21" width="21.78" height="1892.07" style="fill:#CAC27E"/>
	<rect x="1381.16" y="641.53" width="13.14" height="1883.43" style="fill:none;stroke:#D7D29E;stroke-width:8.64"/>
	<rect x="1398.62" y="1169.35" width="21.90" height="1359.93" style="fill:#CAC27E"/>
	<rect x="1402.94" y="1173.67" width="13.26" height="1351.29" style="fill:none;stroke:#D7D29E;stroke-width:8.64"/>
	<rect x="1420.53" y="1169.35" width="21.78" height="1359.93" style="fill:#CAC27E"/>
	<rect x="1424.85" y="1173.67" width="13.14" height="1351.29" style="fill:none;stroke:#D7D29E;stroke-width:8.64"/>
	<rect x="1442.31" y="400.72" width="21.78" height="2128.57" style="fill:#CAC27E"/>
	<rect x="1446.63" y="405.03" width="13.14" height="2119.93" style="fill:none;stroke:#D7D29E;stroke-width:8.64"/>
	<rect x="1464.09" y="578.05" width="21.78" height="1951.23" style="fill:#CAC27E"/>
	<rect x="1468.41" y="582.37" width="13.14" height="1942.59" style="fill:none;stroke:#D7D29E;stroke-width:8.64"/>
	<rect x="1485.87" y="814.55" width="21.78" height="1714.73" style="fill:#CAC27E"/>
	<rect x="1490.19" y="818.87" width="13.14" height="1706.09" style="fill:none;stroke:#D7D29E;stroke-width:8.64"/>
	<rect x="1507.65" y="755.39" width="21.78" height="1773.89" style="fill:#CAC27E"/>
	<rect x="1511.97" y="759.71" width="13.14" height="1765.25" style="fill:none;stroke:#D7D29E;stroke-width:8.64"/>
	<rect x="1529.43" y="991.89" width="21.78" height="1537.39" style="fill:#CAC27E"/>
	<rect x="1533.75" y="996.21" width="13.14" height="1528.75" style="fill:none;stroke:#D7D29E;stroke-width:8.64"/>
	<rect x="1551.21" y="696.36" width="21.78" height="1832.92" style="fill:#CAC27E"/>
	<rect x="1555.53" y="700.68" width="13.14" height="1824.28" style="fill:none;stroke:#D7D29E;stroke-width:8.64"/>
	<rect x="1572.99" y="1346.69" width="21.78" height="1182.59" style="fill:#CAC27E"/>
	<rect x="1577.31" y="1351.01" width="13.14" height="1173.95" style="fill:none;stroke:#D7D29E;stroke-width:8.64"/>
	<rect x="1594.77" y="341.56" width="21.78" height="2187.72" style="fill:#CAC27E"/>
	<rect x="1599.09" y="345.88" width="13.14" height="2179.08" style="fill:none;stroke:#D7D29E;stroke-width:8.64"/>
	<rect x="1616.55" y="991.89" width="21.78" height="1537.39" style="fill:#CAC27E"/>
	<rect x="1620.87" y="996.21" width="13.14" height="1528.75" style="fill:none;stroke:#D7D29E;stroke-width:8.64"/>
	<rect x="1638.33" y="873.70" width="21.90" height="1655.58" style="fill:#CAC27E"/>
	<rect x="1642.65" y="878.02" width="13.26" height="1646.94" style="fill:none;stroke:#D7D29E;stroke-width:8.64"/>
	<rect x="1660.23" y="814.55" width="21.78" height="1714.73" style="fill:#CAC27E"/>
	<rect x="1664.55" y="818.87" width="13.14" height="1706.09" style="fill:none;stroke:#D7D29E;stroke-width:8.64"/>
	<rect x="1682.01" y="1465.00" width="21.78" height="1064.28" style="fill:#CAC27E"/>
	<rect x="1686.33" y="1469.32" width="13.14" height="1055.64" style="fill:none;stroke:#D7D29E;stroke-width:8.64"/>
	<rect x="1703.79" y="1051.04" width="21.78" height="1478.24" style="fill:#CAC27E"/>
	<rect x="1708.11" y="1055.36" width="13.14" height="1469.60" style="fill:none;stroke:#D7D29E;stroke-width:8.64"/>
	<rect x="1725.57" y="1583.18" width="21.78" height="946.10" style="fill:#CAC27E"/>
	<rect x="1729.89" y="1587.50" width="13.14" height="937.46" style="fill:none;stroke:#D7D29E;stroke-width:8.64"/>
	<rect x="1747.35" y="1287.54" width="21.78" height="1241.75" style="fill:#CAC27E"/>
	<rect x="1751.67" y="1291.86" width="13.14" height="1233.11" style="fill:none;stroke:#D7D29E;stroke-width:8.64"/>
	<rect x="1769.13" y="1405.84" width="21.78" height="1123.44" style="fill:#CAC27E"/>
	<rect x="1773.45" y="1410.16" width="13.14" height="1114.80" style="fill:none;stroke:#D7D29E;stroke-width:8.64"/>
	<rect x="1790.91" y="1287.54" width="21.78" height="1241.75" style="fill:#CAC27E"/>
	<rect x="1795.23" y="1291.86" width="13.14" height="1233.11" style="fill:none;stroke:#D7D29E;stroke-width:8.64"/>
	<rect x="1812.69" y="1524.03" width="21.78" height="1005.25" style="fill:#CAC27E"/>
	<rect x="1817.01" y="1528.35" width="13.14" height="996.61" style="fill:none;stroke:#D7D29E;stroke-width:8.64"/>
	<rect x="1834.47" y="991.89" width="21.78" height="1537.39" style="fill:#CAC27E"/>
	<rect x="1838.79" y="996.21" width="13.14" height="1528.75" style="fill:none;stroke:#D7D29E;stroke-width:8.64"/>
	<rect x="1856.25" y="991.89" width="21.78" height="1537.39" style="fill:#CAC27E"/>
	<rect x="1860.57" y="996.21" width="13.14" height="1528.75" style="fill:none;stroke:#D7D29E;stroke-width:8.64"/>
	<rect x="1878.03" y="873.70" width="21.90" height="1655.58" style="fill:#CAC27E"/>
	<rect x="1882.35" y="878.02" width="13.26" height="1646.94" style="fill:none;stroke:#D7D29E;stroke-width:8.64"/>
	<rect x="1899.93" y="1405.84" width="21.78" height="1123.44" style="fill:#CAC27E"/>
	<rect x="1904.25" y="1410.16" width="13.14" height="1114.80" style="fill:none;stroke:#D7D29E;stroke-width:8.64"/>
	<rect x="1921.71" y="1346.69" width="21.78" height="1182.59" style="fill:#CAC27E"/>
	<rect x="1926.03" y="1351.01" width="13.14" height="1173.95" style="fill:none;stroke:#D7D29E;stroke-width:8.64"/>
	<rect x="1943.49" y="1405.84" width="21.78" height="1123.44" style="fill:#CAC27E"/>
	<rect x="1947.81" y="1410.16" width="13.14" height="1114.80" style="fill:none;stroke:#D7D29E;stroke-width:8.64"/>
	<rect x="1965.27" y="1228.50" width="21.78" height="1300.78" style="fill:#CAC27E"/>
	<rect x="1969.59" y="1232.82" width="13.14" height="1292.14" style="fill:none;stroke:#D7D29E;stroke-width:8.64"/>
	<rect x="1987.05" y="1169.35" width="21.78" height="1359.93" style="fill:#CAC27E"/>
	<rect x="1991.37" y="1173.67" width="13.14" height="1351.29" style="fill:none;stroke:#D7D29E;stroke-width:8.64"/>
	<rect x="2008.83" y="1819.68" width="21.78" height="709.60" style="fill:#CAC27E"/>
	<rect x="2013.15" y="1824.00" width="13.14" height="700.96" style="fill:none;stroke:#D7D29E;stroke-width:8.64"/>
	<rect x="2030.61" y="1405.84" width="21.78" height="1123.44" style="fill:#CAC27E"/>
	<rect x="2034.93" y="1410.16" width="13.14" height="1114.80" style="fill:none;stroke:#D7D29E;stroke-width:8.64"/>
	<rect x="2052.39" y="1760.65" width="21.78" height="768.64" style="fill:#CAC27E"/>
	<rect x="2056.71" y="1764.97" width="13.14" height="760.00" style="fill:none;stroke:#D7D29E;stroke-width:8.64"/>
	<rect x="2074.17" y="1465.00" width="21.78" height="1064.28" style="fill:#CAC27E"/>
	<rect x="2078.49" y="1469.32" width="13.14" height="1055.64" style="fill:none;stroke:#D7D29E;stroke-width:8.64"/>
	<rect x="2095.95" y="1287.54" width="21.78" height="1241.75" style="fill:#CAC27E"/>
	<rect x="2100.27" y="1291.86" width="13.14" height="1233.11" style="fill:none;stroke:#D7D29E;stroke-width:8.64"/>
	<rect x="2117.73" y="1465.00" width="21.90" height="1064.28" style="fill:#CAC27E"/>
	<rect x="2122.05" y="1469.32" width="13.26" height="1055.64" style="fill:none;stroke:#D7D29E;stroke-width:8.64"/>
	<rect x="2139.64" y="1524.03" width="21.78" height="1005.25" style="fill:#CAC27E"/>
	<rect x="2143.96" y="1528.35" width="13.14" height="996.61" style="fill:none;stroke:#D7D29E;stroke-width:8.64"/>
	<rect x="2161.42" y="1228.50" width="21.78" height="1300.78" style="fill:#CAC27E"/>
	<rect x="2165.74" y="1232.82" width="13.14" height="1292.14" style="fill:none;stroke:#D7D29E;stroke-width:8.64"/>
	<rect x="2183.20" y="1405.84" width="21.78" height="1123.44" style="fill:#CAC27E"/>
	<rect x="2187.52" y="1410.16" width="13.14" height="1114.80" style="fill:none;stroke:#D7D29E;stroke-width:8.64"/>
	<rect x="2204.98" y="1405.84" width="21.78" height="1123.44" style="fill:#CAC27E"/>
	<rect x="2209.30" y="1410.16" width="13.14" height="1114.80" style="fill:none;stroke:#D7D29E;stroke-width:8.64"/>
	<rect x="2226.76" y="1287.54" width="21.78" height="1241.75" style="fill:#CAC27E"/>
	<rect x="2231.08" y="1291.86" width="13.14" height="1233.11" style="fill:none;stroke:#D7D29E;stroke-width:8.64"/>
	<rect x="2248.54" y="2056.29" width="21.78" height="472.99" style="fill:#CAC27E"/>
	<rect x="2252.86" y="2060.61" width="13.14" height="464.35" style="fill:none;stroke:#D7D29E;stroke-width:8.64"/>
	<rect x="2270.32" y="1819.68" width="21.78" height="709.60" style="fill:#CAC27E"/>
	<rect x="2274.64" y="1824.00" width="13.14" height="700.96" style="fill:none;stroke:#D7D29E;stroke-width:8.64"/>
	<rect x="2292.10" y="1287.54" width="21.78" height="1241.75" style="fill:#CAC27E"/>
	<rect x="2296.42" y="1291.86" width="13.14" height="1233.11" style="fill:none;stroke:#D7D29E;stroke-width:8.64"/>
	<rect x="2313.88" y="1287.54" width="21.78" height="1241.75" style="fill:#CAC27E"/>
	<rect x="2318.20" y="1291.86" width="13.14" height="1233.11" style="fill:none;stroke:#D7D29E;stroke-width:8.64"/>
	<rect x="2335.66" y="1524.03" width="21.78" height="1005.25" style="fill:#CAC27E"/>
	<rect x="2339.98" y="1528.35" width="13.14" height="996.61" style="fill:none;stroke:#D7D29E;stroke-width:8.64"/>
	<rect x="2357.44" y="1583.18" width="21.90" height="946.10" style="fill:#CAC27E"/>
	<rect x="2361.76" y="1587.50" width="13.26" height="937.46" style="fill:none;stroke:#D7D29E;stroke-width:8.64"/>
	<rect x="2379.34" y="1642.34" width="21.78" height="886.94" style="fill:#CAC27E"/>
	<rect x="2383.66" y="1646.66" width="13.14" height="878.30" style="fill:none;stroke:#D7D29E;stroke-width:8.64"/>
	<rect x="2401.12" y="1524.03" width="21.78" height="1005.25" style="fill:#CAC27E"/>
	<rect x="2405.44" y="1528.35" width="13.14" height="996.61" style="fill:none;stroke:#D7D29E;stroke-width:8.64"/>
	<rect x="2422.90" y="1819.68" width="21.78" height="709.60" style="fill:#CAC27E"/>
	<rect x="2427.22" y="1824.00" width="13.14" height="700.96" style="fill:none;stroke:#D7D29E;stroke-width:8.64"/>
	<rect x="2444.68" y="1878.83" width="21.78" height="650.45" style="fill:#CAC27E"/>
	<rect x="2449.00" y="1883.15" width="13.14" height="641.81" style="fill:none;stroke:#D7D29E;stroke-width:8.64"/>
	<rect x="2466.46" y="1997.14" width="21.78" height="532.14" style="fill:#CAC27E"/>
	<rect x="2470.78" y="2001.46" width="13.14" height="523.50" style="fill:none;stroke:#D7D29E;stroke-width:8.64"/>
	<rect x="2488.24" y="1760.65" width="21.78" height="768.64" style="fill:#CAC27E"/>
	<rect x="2492.56" y="1764.97" width="13.14" height="760.00" style="fill:none;stroke:#D7D29E;stroke-width:8.64"/>
	<rect x="2510.02" y="1287.54" width="21.78" height="1241.75" style="fill:#CAC27E"/>
	<rect x="2514.34" y="1291.86" width="13.14" height="1233.11" style="fill:none;stroke:#D7D29E;stroke-width:8.64"/>
	<rect x="2531.80" y="1701.49" width="21.78" height="827.79" style="fill:#CAC27E"/>
	<rect x="2536.12" y="1705.81" width="13.14" height="819.15" style="fill:none;stroke:#D7D29E;stroke-width:8.64"/>
	<rect x="2553.58" y="1524.03" width="21.78" height="1005.25" style="fill:#CAC27E"/>
	<rect x="2557.90" y="1528.35" width="13.14" height="996.61" style="fill:none;stroke:#D7D29E;stroke-width:8.64"/>
	<rect x="2575.36" y="1937.99" width="21.78" height="591.30" style="fill:#CAC27E"/>
	<rect x="2579.68" y="1942.31" width="13.14" height="582.66" style="fill:none;stroke:#D7D29E;stroke-width:8.64"/>
	<rect x="2597.14" y="1228.50" width="21.90" height="1300.78" style="fill:#CAC27E"/>
	<rect x="2601.46" y="1232.82" width="13.26" height="1292.14" style="fill:none;stroke:#D7D29E;stroke-width:8.64"/>
	<rect x="2619.05" y="1937.99" width="21.78" height="591.30" style="fill:#CAC27E"/>
	<rect x="2623.36" y="1942.31" width="13.14" height="582.66" style="fill:none;stroke:#D7D29E;stroke-width:8.64"/>
	<rect x="2640.82" y="1405.84" width="21.78" height="1123.44" style="fill:#CAC27E"/>
	<rect x="2645.14" y="1410.16" width="13.14" height="1114.80" style="fill:none;stroke:#D7D29E;stroke-width:8.64"/>
	<rect x="2662.61" y="1997.14" width="21.78" height="532.14" style="fill:#CAC27E"/>
	<rect x="2666.92" y="2001.46" width="13.14" height="523.50" style="fill:none;stroke:#D7D29E;stroke-width:8.64"/>
	<rect x="2684.39" y="1583.18" width="21.78" height="946.10" style="fill:#CAC27E"/>
	<rect x="2688.70" y="1587.50" width="13.14" height="937.46" style="fill:none;stroke:#D7D29E;stroke-width:8.64"/>
	<rect x="2706.16" y="1878.83" width="21.78" height="650.45" style="fill:#CAC27E"/>
	<rect x="2710.48" y="1883.15" width="13.14" height="641.81" style="fill:none;stroke:#D7D29E;stroke-width:8.64"/>
	<rect x="2727.95" y="1878.83" width="21.78" height="650.45" style="fill:#CAC27E"/>
	<rect x="2732.26" y="1883.15" width="13.14" height="641.81" style="fill:none;stroke:#D7D29E;stroke-width:8.64"/>
	<rect x="2749.72" y="1997.14" width="21.78" height="532.14" style="fill:#CAC27E"/>
	<rect x="2754.04" y="2001.46" width="13.14" height="523.50" style="fill:none;stroke:#D7D29E;stroke-width:8.64"/>
	<rect x="2771.51" y="1583.18" width="21.78" height="946.10" style="fill:#CAC27E"/>
	<rect x="2775.82" y="1587.50" width="13.14" height="937.46" style="fill:none;stroke:#D7D29E;stroke-width:8.64"/>
	<rect x="2793.28" y="1642.34" width="21.78" height="886.94" style="fill:#CAC27E"/>
	<rect x="2797.60" y="1646.66" width="13.14" height="878.30" style="fill:none;stroke:#D7D29E;stroke-width:8.64"/>
	<rect x="2815.07" y="1819.68" width="21.78" height="709.60" style="fill:#CAC27E"/>
	<rect x="2819.38" y="1824.00" width="13.14" height="700.96" style="fill:none;stroke:#D7D29E;stroke-width:8.64"/>
	<rect x="2836.84" y="1701.49" width="21.90" height="827.79" style="fill:#CAC27E"/>
	<rect x="2841.16" y="1705.81" width="13.26" height="819.15" style="fill:none;stroke:#D7D29E;stroke-width:8.64"/>
	<rect x="2858.75" y="1465.00" width="21.78" height="1064.28" style="fill:#CAC27E"/>
	<rect x="2863.07" y="1469.32" width="13.14" height="1055.64" style="fill:none;stroke:#D7D29E;stroke-width:8.64"/>
	<rect x="2880.53" y="1997.14" width="21.78" height="532.14" style="fill:#CAC27E"/>
	<rect x="2884.85" y="2001.46" width="13.14" height="523.50" style="fill:none;stroke:#D7D29E;stroke-width:8.64"/>
	<rect x="2902.31" y="1997.14" width="21.78" height="532.14" style="fill:#CAC27E"/>
	<rect x="2906.63" y="2001.46" width="13.14" height="523.50" style="fill:none;stroke:#D7D29E;stroke-width:8.64"/>
	<rect x="2924.09" y="1524.03" width="21.78" height="1005.25" style="fill:#CAC27E"/>
	<rect x="2928.41" y="1528.35" width="13.14" height="996.61" style="fill:none;stroke:#D7D29E;stroke-width:8.64"/>
	<rect x="2945.87" y="1701.49" width="21.78" height="827.79" style="fill:#CAC27E"/>
	<rect x="2950.19" y="1705.81" width="13.14" height="819.15" style="fill:none;stroke:#D7D29E;stroke-width:8.64"/>
	<rect x="2967.65" y="1819.68" width="21.78" height="709.60" style="fill:#CAC27E"/>
	<rect x="2971.97" y="1824.00" width="13.14" height="700.96" style="fill:none;stroke:#D7D29E;stroke-width:8.64"/>
	<rect x="2989.43" y="932.86" width="21.78" height="1596.42" style="fill:#CAC27E"/>
	<rect x="2993.75" y="937.18" width="13.14" height="1587.79" style="fill:none;stroke:#D7D29E;stroke-width:8.64"/>
	<rect x="3011.21" y="1701.49" width="21.78" height="827.79" style="fill:#CAC27E"/>
	<rect x="3015.53" y="1705.81" width="13.14" height="819.15" style="fill:none;stroke:#D7D29E;stroke-width:8.64"/>
	<rect x="3032.99" y="1701.49" width="21.78" height="827.79" style="fill:#CAC27E"/>
	<rect x="3037.31" y="1705.81" width="13.14" height="819.15" style="fill:none;stroke:#D7D29E;stroke-width:8.64"/>
	<rect x="3054.77" y="1760.65" width="21.78" height="768.64" style="fill:#CAC27E"/>
	<rect x="3059.09" y="1764.97" width="13.14" height="760.00" style="fill:none;stroke:#D7D29E;stroke-width:8.64"/>
	<rect x="3076.55" y="1642.34" width="21.90" height="886.94" style="fill:#CAC27E"/>
	<rect x="3080.87" y="1646.66" width="13.26" height="878.30" style="fill:none;stroke:#D7D29E;stroke-width:8.64"/>
	<rect x="3098.45" y="1878.83" width="21.78" height="650.45" style="fill:#CAC27E"/>
	<rect x="3102.77" y="1883.15" width="13.14" height="641.81" style="fill:none;stroke:#D7D29E;stroke-width:8.64"/>
	<rect x="3120.23" y="1642.34" width="21.78" height="886.94" style="fill:#CAC27E"/>
	<rect x="3124.55" y="1646.66" width="13.14" height="878.30" style="fill:none;stroke:#D7D29E;stroke-width:8.64"/>
	<rect x="3142.01" y="1287.54" width="21.78" height="1241.75" style="fill:#CAC27E"/>
	<rect x="3146.33" y="1291.86" width="13.14" height="1233.11" style="fill:none;stroke:#D7D29E;stroke-width:8.64"/>
	<rect x="3163.79" y="1937.99" width="21.78" height="591.30" style="fill:#CAC27E"/>
	<rect x="3168.11" y="1942.31" width="13.14" height="582.66" style="fill:none;stroke:#D7D29E;stroke-width:8.64"/>
	<rect x="3185.57" y="1819.68" width="21.78" height="709.60" style="fill:#CAC27E"/>
	<rect x="3189.89" y="1824.00" width="13.14" height="700.96" style="fill:none;stroke:#D7D29E;stroke-width:8.64"/>
	<rect x="3207.35" y="1701.49" width="21.78" height="827.79" style="fill:#CAC27E"/>
	<rect x="3211.67" y="1705.81" width="13.14" height="819.15" style="fill:none;stroke:#D7D29E;stroke-width:8.64"/>
	<rect x="3229.13" y="1878.83" width="21.78" height="650.45" style="fill:#CAC27E"/>
	<rect x="3233.45" y="1883.15" width="13.14" height="641.81" style="fill:none;stroke:#D7D29E;stroke-width:8.64"/>
	<rect x="3250.91" y="1701.49" width="21.78" height="827.79" style="fill:#CAC27E"/>
	<rect x="3255.23" y="1705.81" width="13.14" height="819.15" style="fill:none;stroke:#D7D29E;stroke-width:8.64"/>
	<rect x="3272.69" y="1819.68" width="21.78" height="709.60" style="fill:#CAC27E"/>
	<rect x="3277.01" y="1824.00" width="13.14" height="700.96" style="fill:none;stroke:#D7D29E;stroke-width:8.64"/>
	<rect x="3294.47" y="1642.34" width="21.78" height="886.94" style="fill:#CAC27E"/>
	<rect x="3298.79" y="1646.66" width="13.14" height="878.30" style="fill:none;stroke:#D7D29E;stroke-width:8.64"/>
	<rect x="3316.25" y="2056.29" width="21.90" height="472.99" style="fill:#CAC27E"/>
	<rect x="3320.57" y="2060.61" width="13.26" height="464.35" style="fill:none;stroke:#D7D29E;stroke-width:8.64"/>
	<rect x="3338.16" y="1583.18" width="21.78" height="946.10" style="fill:#CAC27E"/>
	<rect x="3342.48" y="1587.50" width="13.14" height="937.46" style="fill:none;stroke:#D7D29E;stroke-width:8.64"/>
	<rect x="3359.94" y="1819.68" width="21.78" height="709.60" style="fill:#CAC27E"/>
	<rect x="3364.26" y="1824.00" width="13.14" height="700.96" style="fill:none;stroke:#D7D29E;stroke-width:8.64"/>
	<rect x="3381.72" y="1524.03" width="21.78" height="1005.25" style="fill:#CAC27E"/>
	<rect x="3386.04" y="1528.35" width="13.14" height="996.61" style="fill:none;stroke:#D7D29E;stroke-width:8.64"/>
	<rect x="3403.50" y="2115.32" width="21.78" height="413.96" style="fill:#CAC27E"/>
	<rect x="3407.82" y="2119.64" width="13.14" height="405.32" style="fill:none;stroke:#D7D29E;stroke-width:8.64"/>
	<rect x="3425.28" y="1997.14" width="21.78" height="532.14" style="fill:#CAC27E"/>
	<rect x="3429.60" y="2001.46" width="13.14" height="523.50" style="fill:none;stroke:#D7D29E;stroke-width:8.64"/>
	<rect x="3447.06" y="2233.63" width="21.78" height="295.65" style="fill:#CAC27E"/>
	<rect x="3451.38" y="2237.95" width="13.14" height="287.01" style="fill:none;stroke:#D7D29E;stroke-width:8.64"/>
	<rect x="3468.84" y="2470.13" width="21.78" height="59.15" style="fill:#CAC27E"/>
	<rect x="3473.16" y="2474.45" width="13.14" height="50.51" style="fill:none;stroke:#D7D29E;stroke-width:8.64"/>
	<rect x="3490.62" y="2470.13" width="21.78" height="59.15" style="fill:#CAC27E"/>
	<rect x="3494.94" y="2474.45" width="13.14" height="50.51" style="fill:none;stroke:#D7D29E;stroke-width:8.64"/>
	<rect x="3512.40" y="2470.13" width="21.78" height="59.15" style="fill:#CAC27E"/>
	<rect x="3516.72" y="2474.45" width="13.14" height="50.51" style="fill:none;stroke:#D7D29E;stroke-width:8.64"/>
	<line x1="387.34" y1="2529.28" x2="387.34" y2="100.86" style="stroke:#000000;stroke-width:5.76"/>
	<line x1="387.34" y1="2529.28" x2="347.37" y2="2529.28" style="stroke:#000000;stroke-width:5.76"/>
	<text x="327.44" y="2557.29" style="font-family:'Helvetica';font-size:79.94px;fill:#000000" text-anchor="end">0</text>
	<line x1="387.34" y1="1937.99" x2="347.37" y2="1937.99" style="stroke:#000000;stroke-width:5.76"/>
	<text x="327.44" y="1966.00" style="font-family:'Helvetica';font-size:79.94px;fill:#000000" text-anchor="end">10</text>
	<line x1="387.34" y1="1346.69" x2="347.37" y2="1346.69" style="stroke:#000000;stroke-width:5.76"/>
	<text x="327.44" y="1374.70" style="font-family:'Helvetica';font-size:79.94px;fill:#000000" text-anchor="end">20</text>
	<line x1="387.34" y1="755.39" x2="347.37" y2="755.39" style="stroke:#000000;stroke-width:5.76"/>
	<text x="327.44" y="783.41" style="font-family:'Helvetica';font-size:79.94px;fill:#000000" text-anchor="end">30</text>
	<line x1="387.34" y1="164.22" x2="347.37" y2="164.22" style="stroke:#000000;stroke-width:5.76"/>
	<text x="327.44" y="192.23" style="font-family:'Helvetica';font-size:79.94px;fill:#000000" text-anchor="end">40</text>
	<text x="176.68" y="1315.01" style="font-family:'Helvetica';font-size:79.94px;fill:#000000" transform="rotate(-90 176.68,1315.01)" text-anchor="middle">Number of ONS deaths</text>
	<line x1="387.34" y1="2529.28" x2="3859.02" y2="2529.28" style="stroke:#000000;stroke-width:5.76"/>
	<line x1="461.59" y1="2529.28" x2="461.59" y2="2569.25" style="stroke:#000000;stroke-width:5.76"/>
	<text x="461.59" y="2645.20" style="font-family:'Helvetica';font-size:79.94px;fill:#000000" text-anchor="middle">01mar2020</text>
	<line x1="1137.14" y1="2529.28" x2="1137.14" y2="2569.25" style="stroke:#000000;stroke-width:5.76"/>
	<text x="1137.14" y="2645.20" style="font-family:'Helvetica';font-size:79.94px;fill:#000000" text-anchor="middle">01apr2020</text>
	<line x1="1790.91" y1="2529.28" x2="1790.91" y2="2569.25" style="stroke:#000000;stroke-width:5.76"/>
	<text x="1790.91" y="2645.20" style="font-family:'Helvetica';font-size:79.94px;fill:#000000" text-anchor="middle">01may2020</text>
	<line x1="2466.46" y1="2529.28" x2="2466.46" y2="2569.25" style="stroke:#000000;stroke-width:5.76"/>
	<text x="2466.46" y="2645.20" style="font-family:'Helvetica';font-size:79.94px;fill:#000000" text-anchor="middle">01jun2020</text>
	<line x1="3120.23" y1="2529.28" x2="3120.23" y2="2569.25" style="stroke:#000000;stroke-width:5.76"/>
	<text x="3120.23" y="2645.20" style="font-family:'Helvetica';font-size:79.94px;fill:#000000" text-anchor="middle">01jul2020</text>
	<line x1="3795.66" y1="2529.28" x2="3795.66" y2="2569.25" style="stroke:#000000;stroke-width:5.76"/>
	<text x="3795.66" y="2645.20" style="font-family:'Helvetica';font-size:79.94px;fill:#000000" text-anchor="middle">01aug2020</text>
	<text x="2123.18" y="2735.17" style="font-family:'Helvetica';font-size:79.94px;fill:#000000" text-anchor="middle">Date</text>
</svg>
