<?xml version="1.0" encoding="UTF-8" standalone="no"?>
<!-- This is a Stata 16.1 generated SVG file (http://www.stata.com) -->

<svg version="1.1" width="5.50in" height="4.00in" viewBox="0 0 3960 2880" xmlns="http://www.w3.org/2000/svg" xmlns:xlink="http://www.w3.org/1999/xlink">
	<desc>Stata Graph - Graph</desc>
	<rect x="0" y="0" width="3960" height="2880" style="fill:#EAF2F3;stroke:none"/>
	<rect x="0.00" y="0.00" width="3959.88" height="2880.00" style="fill:#FFFFFF"/>
	<rect x="2.88" y="2.88" width="3954.12" height="2874.24" style="fill:none;stroke:#EAF2F3;stroke-width:5.76"/>
	<rect x="430.77" y="245.40" width="3428.25" height="2263.83" style="fill:#FFFFFF"/>
	<rect x="433.65" y="248.28" width="3422.49" height="2258.07" style="fill:none;stroke:#FFFFFF;stroke-width:5.76"/>
	<line x1="430.77" y1="2445.87" x2="3859.02" y2="2445.87" style="stroke:#EAF2F3;stroke-width:8.64"/>
	<line x1="430.77" y1="2232.15" x2="3859.02" y2="2232.15" style="stroke:#EAF2F3;stroke-width:8.64"/>
	<line x1="430.77" y1="2018.43" x2="3859.02" y2="2018.43" style="stroke:#EAF2F3;stroke-width:8.64"/>
	<line x1="430.77" y1="1804.70" x2="3859.02" y2="1804.70" style="stroke:#EAF2F3;stroke-width:8.64"/>
	<line x1="430.77" y1="1590.98" x2="3859.02" y2="1590.98" style="stroke:#EAF2F3;stroke-width:8.64"/>
	<line x1="430.77" y1="1377.26" x2="3859.02" y2="1377.26" style="stroke:#EAF2F3;stroke-width:8.64"/>
	<line x1="430.77" y1="1163.53" x2="3859.02" y2="1163.53" style="stroke:#EAF2F3;stroke-width:8.64"/>
	<line x1="430.77" y1="949.81" x2="3859.02" y2="949.81" style="stroke:#EAF2F3;stroke-width:8.64"/>
	<line x1="430.77" y1="736.09" x2="3859.02" y2="736.09" style="stroke:#EAF2F3;stroke-width:8.64"/>
	<line x1="430.77" y1="522.49" x2="3859.02" y2="522.49" style="stroke:#EAF2F3;stroke-width:8.64"/>
	<line x1="430.77" y1="308.77" x2="3859.02" y2="308.77" style="stroke:#EAF2F3;stroke-width:8.64"/>
	<defs>
		<path id="path_OLIsbilE" d="M514.68 2440.30 L514.68 2440.30 L535.34 2432.01 L556.01 2422.48 L576.67 2412.09 L597.22 2401.07 L617.88 2389.81 L638.55 2378.18 L659.22 2366.42 L679.76 2354.29 L700.42 2342.17 L721.09 2329.91 L741.76 2317.41 L762.30 2304.92 L782.97 2292.17 L803.63 2279.42 L824.30 2266.55 L844.84 2253.56 L865.51 2240.56 L886.17 2227.45 L906.84 2214.20 L927.38 2200.96 L948.05 2187.60 L968.72 2174.23 L989.38 2160.74 L1009.92 2147.25 L1030.59 2133.64 L1051.26 2120.03 L1071.92 2106.41 L1092.46 2092.80 L1113.13 2079.06 L1133.80 2065.45 L1154.46 2051.72 L1175.01 2038.10 L1195.67 2024.61 L1216.34 2011.12 L1237.01 1997.63 L1257.55 1984.27 L1278.21 1970.90 L1298.88 1957.66 L1319.55 1944.42 L1340.09 1931.30 L1360.76 1918.31 L1381.42 1905.31 L1402.09 1892.44 L1422.63 1879.70 L1443.30 1867.07 L1463.96 1854.45 L1484.63 1841.95 L1505.17 1829.45 L1525.84 1817.08 L1546.50 1804.83 L1567.17 1792.70 L1587.71 1780.69 L1608.38 1768.69 L1629.05 1756.81 L1649.71 1745.05 L1670.25 1733.30 L1690.92 1721.66 L1711.59 1710.15 L1732.25 1698.77 L1752.80 1687.38 L1773.46 1676.12 L1794.13 1664.98 L1814.79 1653.85 L1835.34 1642.71 L1856.00 1631.82 L1876.67 1620.93 L1897.34 1610.04 L1917.88 1599.27 L1938.54 1588.50 L1959.21 1577.86 L1979.88 1567.22 L2000.42 1556.70 L2021.09 1546.18 L2041.75 1535.66 L2062.42 1525.27 L2082.96 1514.75 L2103.63 1504.35 L2124.29 1493.96 L2144.96 1483.69 L2165.50 1473.29 L2186.17 1463.02 L2206.83 1452.62 L2227.50 1442.35 L2248.04 1432.08 L2268.71 1421.81 L2289.38 1411.41 L2310.04 1401.14 L2330.58 1390.87 L2351.25 1380.60 L2371.92 1370.33 L2392.58 1360.06 L2413.13 1349.78 L2433.79 1339.51 L2454.46 1329.24 L2475.12 1318.97 L2495.67 1308.70 L2516.33 1298.43 L2537.00 1288.28 L2557.66 1278.01 L2578.21 1267.86 L2598.87 1257.71 L2619.54 1247.56 L2640.21 1237.41 L2660.75 1227.27 L2681.41 1217.12 L2702.08 1207.10 L2722.75 1197.07 L2743.29 1186.92 L2763.96 1176.90 L2784.62 1167.00 L2805.29 1156.97 L2825.83 1147.07 L2846.50 1137.17 L2867.16 1127.27 L2887.83 1117.37 L2908.37 1107.47 L2929.04 1097.70 L2949.70 1087.92 L2970.37 1078.14 L2970.37 918.62 L2949.70 929.52 L2929.04 940.41 L2908.37 951.30 L2887.83 962.19 L2867.16 973.08 L2846.50 983.97 L2825.83 994.86 L2805.29 1005.75 L2784.62 1016.64 L2763.96 1027.40 L2743.29 1038.29 L2722.75 1049.19 L2702.08 1060.08 L2681.41 1070.97 L2660.75 1081.86 L2640.21 1092.75 L2619.54 1103.64 L2598.87 1114.53 L2578.21 1125.42 L2557.66 1136.31 L2537.00 1147.20 L2516.33 1158.09 L2495.67 1168.98 L2475.12 1179.99 L2454.46 1190.88 L2433.79 1201.90 L2413.13 1212.79 L2392.58 1223.80 L2371.92 1234.82 L2351.25 1245.83 L2330.58 1256.84 L2310.04 1267.98 L2289.38 1279.00 L2268.71 1290.13 L2248.04 1301.27 L2227.50 1312.41 L2206.83 1323.55 L2186.17 1334.81 L2165.50 1345.95 L2144.96 1357.21 L2124.29 1368.47 L2103.63 1379.86 L2082.96 1391.24 L2062.42 1402.50 L2041.75 1414.01 L2021.09 1425.40 L2000.42 1436.91 L1979.88 1448.42 L1959.21 1459.92 L1938.54 1471.56 L1917.88 1483.19 L1897.34 1494.82 L1876.67 1506.58 L1856.00 1518.46 L1835.34 1530.22 L1814.79 1542.22 L1794.13 1554.10 L1773.46 1566.23 L1752.80 1578.36 L1732.25 1590.48 L1711.59 1602.86 L1690.92 1615.24 L1670.25 1627.73 L1649.71 1640.36 L1629.05 1653.10 L1608.38 1665.97 L1587.71 1678.97 L1567.17 1692.09 L1546.50 1705.45 L1525.84 1718.82 L1505.17 1732.43 L1484.63 1746.17 L1463.96 1760.03 L1443.30 1774.01 L1422.63 1788.12 L1402.09 1802.35 L1381.42 1816.71 L1360.76 1831.19 L1340.09 1845.67 L1319.55 1860.27 L1298.88 1874.99 L1278.21 1889.72 L1257.55 1904.57 L1237.01 1919.42 L1216.34 1934.40 L1195.67 1949.25 L1175.01 1964.35 L1154.46 1979.32 L1133.80 1994.29 L1113.13 2009.27 L1092.46 2024.37 L1071.92 2039.34 L1051.26 2054.44 L1030.59 2069.41 L1009.92 2084.39 L989.38 2099.48 L968.72 2114.46 L948.05 2129.43 L927.38 2144.53 L906.84 2159.50 L886.17 2174.60 L865.51 2189.58 L844.84 2204.55 L824.30 2219.53 L803.63 2234.50 L782.97 2249.47 L762.30 2264.32 L741.76 2279.17 L721.09 2293.90 L700.42 2308.50 L679.76 2323.11 L659.22 2337.46 L638.55 2351.69 L617.88 2365.68 L597.22 2379.42 L576.67 2393.03 L556.01 2406.27 L535.34 2419.26 L514.68 2432.26 L514.68 2440.30 Z" stroke-linejoin="round"/>
	</defs>
	<defs>
		<clipPath id="clipPath_VlmhJGAl">
			<use xlink:href="#path_OLIsbilE"/>
		</clipPath>
	</defs>
	<use xlink:href="#path_OLIsbilE" style="stroke:none;fill:#FF3333;fill-opacity:0.25"/>
	<use xlink:href="#path_OLIsbilE" style="fill:none;stroke:#FF0000;stroke-opacity:0.25;stroke-width:17.28" clip-path="url(#clipPath_VlmhJGAl)"/>
	<defs>
		<path id="path_jKosnvik" d="M514.68 2440.18 L514.68 2440.18 L535.34 2431.89 L556.01 2422.23 L576.67 2411.96 L597.22 2401.07 L617.88 2389.93 L638.55 2378.55 L659.22 2366.92 L679.76 2355.16 L700.42 2343.28 L721.09 2331.28 L741.76 2319.15 L762.30 2306.90 L782.97 2294.52 L803.63 2282.15 L824.30 2269.65 L844.84 2257.02 L865.51 2244.40 L886.17 2231.65 L906.84 2218.91 L927.38 2206.16 L948.05 2193.29 L968.72 2180.30 L989.38 2167.43 L1009.92 2154.43 L1030.59 2141.31 L1051.26 2128.32 L1071.92 2115.20 L1092.46 2102.21 L1113.13 2089.09 L1133.80 2075.97 L1154.46 2062.85 L1175.01 2049.86 L1195.67 2036.86 L1216.34 2023.87 L1237.01 2011.00 L1257.55 1998.13 L1278.21 1985.38 L1298.88 1972.64 L1319.55 1960.01 L1340.09 1947.51 L1360.76 1935.02 L1381.42 1922.52 L1402.09 1910.26 L1422.63 1898.01 L1443.30 1885.76 L1463.96 1873.76 L1484.63 1861.75 L1505.17 1849.87 L1525.84 1838.12 L1546.50 1826.36 L1567.17 1814.73 L1587.71 1803.22 L1608.38 1791.83 L1629.05 1780.57 L1649.71 1769.31 L1670.25 1758.17 L1690.92 1747.16 L1711.59 1736.27 L1732.25 1725.38 L1752.80 1714.61 L1773.46 1703.84 L1794.13 1693.20 L1814.79 1682.68 L1835.34 1672.16 L1856.00 1661.77 L1876.67 1651.37 L1897.34 1641.10 L1917.88 1630.83 L1938.54 1620.56 L1959.21 1610.41 L1979.88 1600.39 L2000.42 1590.24 L2021.09 1580.21 L2041.75 1570.19 L2062.42 1560.29 L2082.96 1550.26 L2103.63 1540.36 L2124.29 1530.59 L2144.96 1520.69 L2165.50 1510.79 L2186.17 1501.01 L2206.83 1491.23 L2227.50 1481.33 L2248.04 1471.56 L2268.71 1461.78 L2289.38 1452.00 L2310.04 1442.23 L2330.58 1432.45 L2351.25 1422.67 L2371.92 1412.90 L2392.58 1403.25 L2413.13 1393.47 L2433.79 1383.69 L2454.46 1374.04 L2475.12 1364.26 L2495.67 1354.61 L2516.33 1344.96 L2537.00 1335.18 L2557.66 1325.53 L2578.21 1315.87 L2598.87 1306.22 L2619.54 1296.57 L2640.21 1287.04 L2660.75 1277.39 L2681.41 1267.86 L2702.08 1258.21 L2722.75 1248.68 L2743.29 1239.15 L2763.96 1229.62 L2784.62 1220.09 L2805.29 1210.56 L2825.83 1201.16 L2846.50 1191.63 L2867.16 1182.22 L2887.83 1172.69 L2908.37 1163.29 L2929.04 1153.88 L2949.70 1144.48 L2970.37 1135.19 L2970.37 737.33 L2949.70 749.45 L2929.04 761.58 L2908.37 773.83 L2887.83 786.08 L2867.16 798.21 L2846.50 810.46 L2825.83 822.72 L2805.29 834.84 L2784.62 847.10 L2763.96 859.35 L2743.29 871.60 L2722.75 883.85 L2702.08 896.10 L2681.41 908.35 L2660.75 920.61 L2640.21 932.98 L2619.54 945.23 L2598.87 957.61 L2578.21 969.86 L2557.66 982.23 L2537.00 994.49 L2516.33 1006.86 L2495.67 1019.24 L2475.12 1031.61 L2454.46 1043.99 L2433.79 1056.36 L2413.13 1068.86 L2392.58 1081.24 L2371.92 1093.74 L2351.25 1106.11 L2330.58 1118.61 L2310.04 1131.11 L2289.38 1143.61 L2268.71 1156.23 L2248.04 1168.73 L2227.50 1181.35 L2206.83 1193.85 L2186.17 1206.48 L2165.50 1219.10 L2144.96 1231.85 L2124.29 1244.47 L2103.63 1257.22 L2082.96 1269.96 L2062.42 1282.83 L2041.75 1295.58 L2021.09 1308.45 L2000.42 1321.44 L1979.88 1334.31 L1959.21 1347.43 L1938.54 1360.43 L1917.88 1373.54 L1897.34 1386.66 L1876.67 1399.90 L1856.00 1413.27 L1835.34 1426.63 L1814.79 1440.00 L1794.13 1453.61 L1773.46 1467.23 L1752.80 1480.84 L1732.25 1494.70 L1711.59 1508.56 L1690.92 1522.54 L1670.25 1536.65 L1649.71 1550.88 L1629.05 1565.24 L1608.38 1579.72 L1587.71 1594.44 L1567.17 1609.17 L1546.50 1624.15 L1525.84 1639.24 L1505.17 1654.47 L1484.63 1669.93 L1463.96 1685.40 L1443.30 1701.12 L1422.63 1716.84 L1402.09 1732.80 L1381.42 1748.77 L1360.76 1764.98 L1340.09 1781.19 L1319.55 1797.52 L1298.88 1813.98 L1278.21 1830.57 L1257.55 1847.15 L1237.01 1863.73 L1216.34 1880.44 L1195.67 1897.15 L1175.01 1913.98 L1154.46 1930.81 L1133.80 1947.64 L1113.13 1964.47 L1092.46 1981.30 L1071.92 1998.13 L1051.26 2014.96 L1030.59 2031.79 L1009.92 2048.62 L989.38 2065.33 L968.72 2082.16 L948.05 2098.87 L927.38 2115.57 L906.84 2132.28 L886.17 2148.99 L865.51 2165.69 L844.84 2182.28 L824.30 2198.86 L803.63 2215.44 L782.97 2231.90 L762.30 2248.36 L741.76 2264.70 L721.09 2280.91 L700.42 2297.00 L679.76 2312.96 L659.22 2328.68 L638.55 2344.27 L617.88 2359.61 L597.22 2374.59 L576.67 2389.32 L556.01 2403.80 L535.34 2417.78 L514.68 2431.52 L514.68 2440.18 Z" stroke-linejoin="round"/>
	</defs>
	<defs>
		<clipPath id="clipPath_uCobrRSg">
			<use xlink:href="#path_jKosnvik"/>
		</clipPath>
	</defs>
	<use xlink:href="#path_jKosnvik" style="stroke:none;fill:#3333FF;fill-opacity:0.25"/>
	<use xlink:href="#path_jKosnvik" style="fill:none;stroke:#0000FF;stroke-opacity:0.25;stroke-width:17.28" clip-path="url(#clipPath_uCobrRSg)"/>
	<path d=" M494.01 2445.87 L514.68 2437.21 L535.34 2426.81 L555.88 2415.43 L576.55 2403.67 L597.22 2391.42 L617.88 2378.92 L638.43 2366.05 L659.09 2353.06 L679.76 2339.94 L700.42 2326.57 L720.97 2313.21 L741.63 2299.59 L762.30 2285.98 L782.97 2272.24 L803.51 2258.38 L824.17 2244.52 L844.84 2230.54 L865.51 2216.56 L886.05 2202.45 L906.72 2188.46 L927.38 2174.23 L948.05 2160.12 L968.59 2145.89 L989.26 2131.66 L1009.92 2117.43 L1030.59 2103.07 L1051.13 2088.84 L1071.80 2074.49 L1092.46 2060.13 L1113.13 2045.78 L1133.67 2031.42 L1154.34 2017.06 L1175.01 2002.83 L1195.67 1988.60 L1216.21 1974.37 L1236.88 1960.14 L1257.55 1946.03 L1278.21 1931.92 L1298.76 1917.94 L1319.42 1904.08 L1340.09 1890.22 L1360.76 1876.48 L1381.30 1862.74 L1401.96 1849.25 L1422.63 1835.76 L1443.30 1822.28 L1463.84 1809.03 L1484.51 1795.92 L1505.17 1782.80 L1525.84 1769.80 L1546.38 1756.93 L1567.05 1744.31 L1587.71 1731.69 L1608.38 1719.19 L1628.92 1706.81 L1649.59 1694.56 L1670.25 1682.43 L1690.92 1670.31 L1711.46 1658.43 L1732.13 1646.55 L1752.80 1634.79 L1773.46 1623.03 L1794.00 1611.40 L1814.67 1599.89 L1835.34 1588.38 L1856.00 1577.00 L1876.55 1565.61 L1897.21 1554.35 L1917.88 1543.21 L1938.54 1531.95 L1959.09 1520.81 L1979.75 1509.80 L2000.42 1498.78 L2021.09 1487.77 L2041.63 1476.75 L2062.29 1465.86 L2082.96 1454.97 L2103.63 1444.08 L2124.17 1433.32 L2144.84 1422.43 L2165.50 1411.66 L2186.17 1400.89 L2206.71 1390.13 L2227.38 1379.48 L2248.04 1368.72 L2268.71 1357.95 L2289.25 1347.31 L2309.92 1336.67 L2330.58 1325.90 L2351.25 1315.26 L2371.79 1304.61 L2392.46 1293.97 L2413.13 1283.33 L2433.79 1272.68 L2454.33 1262.17 L2475.00 1251.52 L2495.67 1240.88 L2516.33 1230.36 L2536.88 1219.84 L2557.54 1209.20 L2578.21 1198.68 L2598.87 1188.16 L2619.42 1177.64 L2640.08 1167.12 L2660.75 1156.60 L2681.41 1146.21 L2701.96 1135.69 L2722.62 1125.29 L2743.29 1114.77 L2763.96 1104.38 L2784.50 1093.86 L2805.16 1083.47 L2825.83 1073.07 L2846.50 1062.67 L2867.04 1052.28 L2887.71 1042.01 L2908.37 1031.61 L2929.04 1021.22 L2949.58 1010.95 L2970.25 1000.55" stroke-linejoin="round" style="fill:none;stroke:#FF0000;stroke-width:8.64"/>
	<path d=" M494.01 2445.87 L514.68 2436.96 L535.34 2426.07 L555.88 2414.44 L576.55 2402.19 L597.22 2389.44 L617.88 2376.45 L638.43 2363.20 L659.09 2349.71 L679.76 2336.10 L700.42 2322.37 L720.97 2308.38 L741.63 2294.40 L762.30 2280.17 L782.97 2265.93 L803.51 2251.70 L824.17 2237.35 L844.84 2222.87 L865.51 2208.39 L886.05 2193.78 L906.72 2179.18 L927.38 2164.58 L948.05 2149.85 L968.59 2135.13 L989.26 2120.40 L1009.92 2105.67 L1030.59 2090.82 L1051.13 2076.09 L1071.80 2061.24 L1092.46 2046.39 L1113.13 2031.54 L1133.67 2016.69 L1154.34 2001.84 L1175.01 1986.99 L1195.67 1972.27 L1216.21 1957.54 L1236.88 1942.81 L1257.55 1928.21 L1278.21 1913.61 L1298.76 1899.13 L1319.42 1884.77 L1340.09 1870.42 L1360.76 1856.18 L1381.30 1841.95 L1401.96 1827.97 L1422.63 1813.98 L1443.30 1800.12 L1463.84 1786.39 L1484.51 1772.65 L1505.17 1759.16 L1525.84 1745.80 L1546.38 1732.43 L1567.05 1719.31 L1587.71 1706.19 L1608.38 1693.32 L1628.92 1680.45 L1649.59 1667.83 L1670.25 1655.21 L1690.92 1642.71 L1711.46 1630.33 L1732.13 1618.08 L1752.80 1605.83 L1773.46 1593.70 L1794.00 1581.70 L1814.67 1569.82 L1835.34 1557.94 L1856.00 1546.06 L1876.55 1534.30 L1897.21 1522.67 L1917.88 1511.03 L1938.54 1499.53 L1959.09 1488.02 L1979.75 1476.51 L2000.42 1465.12 L2021.09 1453.74 L2041.63 1442.35 L2062.29 1430.97 L2082.96 1419.70 L2103.63 1408.57 L2124.17 1397.30 L2144.84 1386.04 L2165.50 1374.91 L2186.17 1363.77 L2206.71 1352.63 L2227.38 1341.49 L2248.04 1330.48 L2268.71 1319.34 L2289.25 1308.33 L2309.92 1297.19 L2330.58 1286.17 L2351.25 1275.16 L2371.79 1264.15 L2392.46 1253.13 L2413.13 1242.12 L2433.79 1231.10 L2454.33 1220.09 L2475.00 1209.20 L2495.67 1198.18 L2516.33 1187.29 L2536.88 1176.28 L2557.54 1165.39 L2578.21 1154.50 L2598.87 1143.61 L2619.42 1132.72 L2640.08 1121.83 L2660.75 1110.94 L2681.41 1100.05 L2701.96 1089.28 L2722.62 1078.39 L2743.29 1067.62 L2763.96 1056.86 L2784.50 1045.97 L2805.16 1035.20 L2825.83 1024.43 L2846.50 1013.67 L2867.04 1003.03 L2887.71 992.26 L2908.37 981.49 L2929.04 970.85 L2949.58 960.08 L2970.25 949.44" stroke-linejoin="round" style="fill:none;stroke:#0000FF;stroke-width:8.64"/>
	<line x1="430.77" y1="2509.23" x2="430.77" y2="245.40" style="stroke:#000000;stroke-width:5.76"/>
	<line x1="430.77" y1="2445.87" x2="390.80" y2="2445.87" style="stroke:#000000;stroke-width:5.76"/>
	<text x="370.75" y="2473.88" style="font-family:'Helvetica';font-size:79.94px;fill:#000000" text-anchor="end">0.0</text>
	<line x1="430.77" y1="2232.15" x2="390.80" y2="2232.15" style="stroke:#000000;stroke-width:5.76"/>
	<text x="370.75" y="2260.16" style="font-family:'Helvetica';font-size:79.94px;fill:#000000" text-anchor="end">0.1</text>
	<line x1="430.77" y1="2018.43" x2="390.80" y2="2018.43" style="stroke:#000000;stroke-width:5.76"/>
	<text x="370.75" y="2046.44" style="font-family:'Helvetica';font-size:79.94px;fill:#000000" text-anchor="end">0.2</text>
	<line x1="430.77" y1="1804.70" x2="390.80" y2="1804.70" style="stroke:#000000;stroke-width:5.76"/>
	<text x="370.75" y="1832.71" style="font-family:'Helvetica';font-size:79.94px;fill:#000000" text-anchor="end">0.3</text>
	<line x1="430.77" y1="1590.98" x2="390.80" y2="1590.98" style="stroke:#000000;stroke-width:5.76"/>
	<text x="370.75" y="1618.99" style="font-family:'Helvetica';font-size:79.94px;fill:#000000" text-anchor="end">0.4</text>
	<line x1="430.77" y1="1377.26" x2="390.80" y2="1377.26" style="stroke:#000000;stroke-width:5.76"/>
	<text x="370.75" y="1405.27" style="font-family:'Helvetica';font-size:79.94px;fill:#000000" text-anchor="end">0.5</text>
	<line x1="430.77" y1="1163.53" x2="390.80" y2="1163.53" style="stroke:#000000;stroke-width:5.76"/>
	<text x="370.75" y="1191.55" style="font-family:'Helvetica';font-size:79.94px;fill:#000000" text-anchor="end">0.6</text>
	<line x1="430.77" y1="949.81" x2="390.80" y2="949.81" style="stroke:#000000;stroke-width:5.76"/>
	<text x="370.75" y="977.82" style="font-family:'Helvetica';font-size:79.94px;fill:#000000" text-anchor="end">0.7</text>
	<line x1="430.77" y1="736.09" x2="390.80" y2="736.09" style="stroke:#000000;stroke-width:5.76"/>
	<text x="370.75" y="764.10" style="font-family:'Helvetica';font-size:79.94px;fill:#000000" text-anchor="end">0.8</text>
	<line x1="430.77" y1="522.49" x2="390.80" y2="522.49" style="stroke:#000000;stroke-width:5.76"/>
	<text x="370.75" y="550.50" style="font-family:'Helvetica';font-size:79.94px;fill:#000000" text-anchor="end">0.9</text>
	<line x1="430.77" y1="308.77" x2="390.80" y2="308.77" style="stroke:#000000;stroke-width:5.76"/>
	<text x="370.75" y="336.78" style="font-family:'Helvetica';font-size:79.94px;fill:#000000" text-anchor="end">1.0</text>
	<text x="190.71" y="1377.26" style="font-family:'Helvetica';font-size:99.99px;fill:#000000" transform="rotate(-90 190.71,1377.26)" text-anchor="middle">Cumulative mortality (%)</text>
	<line x1="430.77" y1="2509.23" x2="3859.02" y2="2509.23" style="stroke:#000000;stroke-width:5.76"/>
	<line x1="494.13" y1="2509.23" x2="494.13" y2="2549.21" style="stroke:#000000;stroke-width:5.76"/>
	<text x="494.13" y="2625.15" style="font-family:'Helvetica';font-size:79.94px;fill:#000000" text-anchor="middle">0</text>
	<line x1="906.84" y1="2509.23" x2="906.84" y2="2549.21" style="stroke:#000000;stroke-width:5.76"/>
	<text x="906.84" y="2625.15" style="font-family:'Helvetica';font-size:79.94px;fill:#000000" text-anchor="middle">20</text>
	<line x1="1319.55" y1="2509.23" x2="1319.55" y2="2549.21" style="stroke:#000000;stroke-width:5.76"/>
	<text x="1319.55" y="2625.15" style="font-family:'Helvetica';font-size:79.94px;fill:#000000" text-anchor="middle">40</text>
	<line x1="1732.25" y1="2509.23" x2="1732.25" y2="2549.21" style="stroke:#000000;stroke-width:5.76"/>
	<text x="1732.25" y="2625.15" style="font-family:'Helvetica';font-size:79.94px;fill:#000000" text-anchor="middle">60</text>
	<line x1="2144.96" y1="2509.23" x2="2144.96" y2="2549.21" style="stroke:#000000;stroke-width:5.76"/>
	<text x="2144.96" y="2625.15" style="font-family:'Helvetica';font-size:79.94px;fill:#000000" text-anchor="middle">80</text>
	<line x1="2557.66" y1="2509.23" x2="2557.66" y2="2549.21" style="stroke:#000000;stroke-width:5.76"/>
	<text x="2557.66" y="2625.15" style="font-family:'Helvetica';font-size:79.94px;fill:#000000" text-anchor="middle">100</text>
	<line x1="2970.37" y1="2509.23" x2="2970.37" y2="2549.21" style="stroke:#000000;stroke-width:5.76"/>
	<text x="2970.37" y="2625.15" style="font-family:'Helvetica';font-size:79.94px;fill:#000000" text-anchor="middle">120</text>
	<line x1="3383.08" y1="2509.23" x2="3383.08" y2="2549.21" style="stroke:#000000;stroke-width:5.76"/>
	<text x="3383.08" y="2625.15" style="font-family:'Helvetica';font-size:79.94px;fill:#000000" text-anchor="middle">140</text>
	<line x1="3795.78" y1="2509.23" x2="3795.78" y2="2549.21" style="stroke:#000000;stroke-width:5.76"/>
	<text x="3795.78" y="2625.15" style="font-family:'Helvetica';font-size:79.94px;fill:#000000" text-anchor="middle">160</text>
	<text x="2144.96" y="2729.16" style="font-family:'Helvetica';font-size:99.99px;fill:#000000" text-anchor="middle">Days since 1 Mar 2020</text>
	<rect x="465.30" y="279.93" width="917.48" height="326.34" style="fill:#FFFFFF"/>
	<rect x="468.18" y="282.81" width="911.72" height="320.58" style="fill:none;stroke:#EAF2F3;stroke-width:5.76"/>
	<rect x="508.49" y="323.12" width="374.34" height="99.99" style="fill:#FF3333;fill-opacity:0.25"/>
	<rect x="512.81" y="327.44" width="365.70" height="91.35" style="fill:none;stroke:#FF0000;stroke-opacity:0.25;stroke-width:8.64"/>
	<rect x="508.49" y="463.09" width="374.34" height="99.99" style="fill:#3333FF;fill-opacity:0.25"/>
	<rect x="512.81" y="467.41" width="365.70" height="91.35" style="fill:none;stroke:#0000FF;stroke-opacity:0.25;stroke-width:8.64"/>
	<text x="942.85" y="408.15" style="font-family:'Helvetica';font-size:99.99px;fill:#000000">No HCQ</text>
	<text x="942.85" y="548.11" style="font-family:'Helvetica';font-size:99.99px;fill:#000000">HCQ</text>
	<text x="1185.65" y="195.01" style="font-family:'Helvetica';font-size:110.01px;fill:#1E2D53">Time to Non COVID-19 Death in ONS</text>
</svg>
