<?xml version="1.0" encoding="UTF-8" standalone="no"?>
<!-- This is a Stata 16.1 generated SVG file (http://www.stata.com) -->

<svg version="1.1" width="5.50in" height="4.00in" viewBox="0 0 3960 2880" xmlns="http://www.w3.org/2000/svg" xmlns:xlink="http://www.w3.org/1999/xlink">
	<desc>Stata Graph - Graph</desc>
	<rect x="0" y="0" width="3960" height="2880" style="fill:#EAF2F3;stroke:none"/>
	<rect x="0.00" y="0.00" width="3959.88" height="2880.00" style="fill:#FFFFFF"/>
	<rect x="2.88" y="2.88" width="3954.12" height="2874.24" style="fill:none;stroke:#EAF2F3;stroke-width:5.76"/>
	<rect x="430.77" y="245.40" width="3428.25" height="2263.83" style="fill:#FFFFFF"/>
	<rect x="433.65" y="248.28" width="3422.49" height="2258.07" style="fill:none;stroke:#FFFFFF;stroke-width:5.76"/>
	<line x1="430.77" y1="2445.87" x2="3859.02" y2="2445.87" style="stroke:#EAF2F3;stroke-width:8.64"/>
	<line x1="430.77" y1="2232.15" x2="3859.02" y2="2232.15" style="stroke:#EAF2F3;stroke-width:8.64"/>
	<line x1="430.77" y1="2018.43" x2="3859.02" y2="2018.43" style="stroke:#EAF2F3;stroke-width:8.64"/>
	<line x1="430.77" y1="1804.70" x2="3859.02" y2="1804.70" style="stroke:#EAF2F3;stroke-width:8.64"/>
	<line x1="430.77" y1="1590.98" x2="3859.02" y2="1590.98" style="stroke:#EAF2F3;stroke-width:8.64"/>
	<line x1="430.77" y1="1377.26" x2="3859.02" y2="1377.26" style="stroke:#EAF2F3;stroke-width:8.64"/>
	<line x1="430.77" y1="1163.53" x2="3859.02" y2="1163.53" style="stroke:#EAF2F3;stroke-width:8.64"/>
	<line x1="430.77" y1="949.81" x2="3859.02" y2="949.81" style="stroke:#EAF2F3;stroke-width:8.64"/>
	<line x1="430.77" y1="736.09" x2="3859.02" y2="736.09" style="stroke:#EAF2F3;stroke-width:8.64"/>
	<line x1="430.77" y1="522.49" x2="3859.02" y2="522.49" style="stroke:#EAF2F3;stroke-width:8.64"/>
	<line x1="430.77" y1="308.77" x2="3859.02" y2="308.77" style="stroke:#EAF2F3;stroke-width:8.64"/>
	<defs>
		<path id="path_tBXbOXds" d="M514.68 2435.48 L514.68 2435.48 L535.34 2424.09 L556.01 2412.33 L576.67 2400.45 L597.22 2388.45 L617.88 2376.32 L638.55 2364.07 L659.22 2351.82 L679.76 2339.44 L700.42 2326.94 L721.09 2314.44 L741.76 2301.82 L762.30 2289.20 L782.97 2276.45 L803.63 2263.58 L824.30 2250.71 L844.84 2237.72 L865.51 2224.72 L886.17 2211.48 L906.84 2198.36 L927.38 2185.00 L948.05 2171.63 L968.72 2158.27 L989.38 2144.78 L1009.92 2131.17 L1030.59 2117.55 L1051.26 2103.94 L1071.92 2090.20 L1092.46 2076.47 L1113.13 2062.61 L1133.80 2048.75 L1154.46 2034.88 L1175.01 2021.02 L1195.67 2007.16 L1216.34 1993.30 L1237.01 1979.57 L1257.55 1965.83 L1278.21 1952.09 L1298.88 1938.48 L1319.55 1924.87 L1340.09 1911.38 L1360.76 1897.89 L1381.42 1884.52 L1402.09 1871.28 L1422.63 1858.16 L1443.30 1845.05 L1463.96 1832.05 L1484.63 1819.06 L1505.17 1806.31 L1525.84 1793.56 L1546.50 1780.94 L1567.17 1768.44 L1587.71 1756.07 L1608.38 1743.69 L1629.05 1731.56 L1649.71 1719.44 L1670.25 1707.43 L1690.92 1695.55 L1711.59 1683.80 L1732.25 1672.16 L1752.80 1660.65 L1773.46 1649.27 L1794.13 1637.88 L1814.79 1626.62 L1835.34 1615.48 L1856.00 1604.47 L1876.67 1593.45 L1897.34 1582.56 L1917.88 1571.80 L1938.54 1561.03 L1959.21 1550.26 L1979.88 1539.75 L2000.42 1529.10 L2021.09 1518.58 L2041.75 1508.06 L2062.42 1497.67 L2082.96 1487.27 L2103.63 1477.00 L2124.29 1466.61 L2144.96 1456.34 L2165.50 1446.06 L2186.17 1435.79 L2206.83 1425.52 L2227.50 1415.37 L2248.04 1405.10 L2268.71 1394.95 L2289.38 1384.68 L2310.04 1374.53 L2330.58 1364.26 L2351.25 1353.99 L2371.92 1343.72 L2392.58 1333.57 L2413.13 1323.18 L2433.79 1312.90 L2454.46 1302.63 L2475.12 1292.24 L2495.67 1281.84 L2516.33 1271.45 L2537.00 1260.93 L2557.66 1250.53 L2578.21 1240.01 L2598.87 1229.49 L2619.54 1218.85 L2640.21 1208.33 L2660.75 1197.81 L2681.41 1187.17 L2702.08 1176.53 L2722.75 1166.01 L2743.29 1155.37 L2763.96 1144.72 L2784.62 1134.08 L2805.29 1123.44 L2825.83 1112.79 L2846.50 1102.15 L2867.16 1091.51 L2887.83 1080.87 L2908.37 1070.22 L2929.04 1059.58 L2949.70 1048.94 L2970.37 1038.29 L2990.91 1027.65 L3011.58 1017.13 L3032.25 1006.49 L3052.91 995.97 L3073.45 985.33 L3094.12 974.81 L3114.79 964.29 L3135.45 953.77 L3156.00 943.25 L3176.66 932.86 L3197.33 922.34 L3217.99 911.94 L3238.54 901.55 L3259.20 891.15 L3259.20 720.74 L3238.54 732.25 L3217.99 743.76 L3197.33 755.27 L3176.66 766.78 L3156.00 778.29 L3135.45 789.80 L3114.79 801.31 L3094.12 812.82 L3073.45 824.32 L3052.91 835.71 L3032.25 847.22 L3011.58 858.60 L2990.91 870.11 L2970.37 881.50 L2949.70 892.88 L2929.04 904.27 L2908.37 915.65 L2887.83 927.04 L2867.16 938.43 L2846.50 949.81 L2825.83 961.20 L2805.29 972.58 L2784.62 983.84 L2763.96 995.23 L2743.29 1006.49 L2722.75 1017.75 L2702.08 1029.01 L2681.41 1040.28 L2660.75 1051.54 L2640.21 1062.80 L2619.54 1074.06 L2598.87 1085.32 L2578.21 1096.58 L2557.66 1107.72 L2537.00 1118.86 L2516.33 1130.12 L2495.67 1141.26 L2475.12 1152.40 L2454.46 1163.53 L2433.79 1174.67 L2413.13 1185.81 L2392.58 1196.82 L2371.92 1207.96 L2351.25 1219.10 L2330.58 1230.11 L2310.04 1241.25 L2289.38 1252.27 L2268.71 1263.40 L2248.04 1274.42 L2227.50 1285.56 L2206.83 1296.69 L2186.17 1307.71 L2165.50 1318.84 L2144.96 1329.98 L2124.29 1341.12 L2103.63 1352.26 L2082.96 1363.52 L2062.42 1374.78 L2041.75 1386.04 L2021.09 1397.30 L2000.42 1408.57 L1979.88 1419.95 L1959.21 1431.46 L1938.54 1442.97 L1917.88 1454.48 L1897.34 1466.11 L1876.67 1477.74 L1856.00 1489.50 L1835.34 1501.38 L1814.79 1513.26 L1794.13 1525.39 L1773.46 1537.52 L1752.80 1549.77 L1732.25 1562.27 L1711.59 1574.77 L1690.92 1587.51 L1670.25 1600.39 L1649.71 1613.38 L1629.05 1626.50 L1608.38 1639.86 L1587.71 1653.35 L1567.17 1667.09 L1546.50 1680.83 L1525.84 1694.69 L1505.17 1708.79 L1484.63 1723.03 L1463.96 1737.26 L1443.30 1751.74 L1422.63 1766.22 L1402.09 1780.94 L1381.42 1795.67 L1360.76 1810.40 L1340.09 1825.37 L1319.55 1840.34 L1298.88 1855.32 L1278.21 1870.42 L1257.55 1885.51 L1237.01 1900.61 L1216.34 1915.83 L1195.67 1931.06 L1175.01 1946.28 L1154.46 1961.38 L1133.80 1976.60 L1113.13 1991.82 L1092.46 2006.92 L1071.92 2022.01 L1051.26 2037.11 L1030.59 2052.21 L1009.92 2067.18 L989.38 2082.16 L968.72 2097.13 L948.05 2112.11 L927.38 2127.08 L906.84 2142.06 L886.17 2156.91 L865.51 2171.88 L844.84 2186.73 L824.30 2201.71 L803.63 2216.56 L782.97 2231.41 L762.30 2246.26 L741.76 2261.11 L721.09 2275.83 L700.42 2290.68 L679.76 2305.41 L659.22 2320.14 L638.55 2334.86 L617.88 2349.47 L597.22 2364.07 L576.67 2378.80 L556.01 2393.52 L535.34 2408.50 L514.68 2424.34 L514.68 2435.48 Z" stroke-linejoin="round"/>
	</defs>
	<defs>
		<clipPath id="clipPath_lFEERnWj">
			<use xlink:href="#path_tBXbOXds"/>
		</clipPath>
	</defs>
	<use xlink:href="#path_tBXbOXds" style="stroke:none;fill:#FF3333;fill-opacity:0.25"/>
	<use xlink:href="#path_tBXbOXds" style="fill:none;stroke:#FF0000;stroke-opacity:0.25;stroke-width:17.28" clip-path="url(#clipPath_lFEERnWj)"/>
	<defs>
		<path id="path_xwcdUNve" d="M514.68 2435.60 L514.68 2435.60 L535.34 2424.59 L556.01 2413.20 L576.67 2401.82 L597.22 2390.18 L617.88 2378.67 L638.55 2367.04 L659.22 2355.28 L679.76 2343.53 L700.42 2331.77 L721.09 2319.89 L741.76 2308.01 L762.30 2296.01 L782.97 2283.88 L803.63 2271.87 L824.30 2259.62 L844.84 2247.37 L865.51 2235.12 L886.17 2222.74 L906.84 2210.37 L927.38 2197.87 L948.05 2185.37 L968.72 2172.87 L989.38 2160.25 L1009.92 2147.50 L1030.59 2134.88 L1051.26 2122.13 L1071.92 2109.26 L1092.46 2096.51 L1113.13 2083.64 L1133.80 2070.77 L1154.46 2057.78 L1175.01 2044.91 L1195.67 2032.04 L1216.34 2019.17 L1237.01 2006.30 L1257.55 1993.55 L1278.21 1980.80 L1298.88 1968.06 L1319.55 1955.43 L1340.09 1942.81 L1360.76 1930.31 L1381.42 1917.81 L1402.09 1905.44 L1422.63 1893.19 L1443.30 1880.94 L1463.96 1868.93 L1484.63 1856.80 L1505.17 1844.92 L1525.84 1833.04 L1546.50 1821.29 L1567.17 1809.65 L1587.71 1798.14 L1608.38 1786.76 L1629.05 1775.37 L1649.71 1764.11 L1670.25 1753.10 L1690.92 1742.08 L1711.59 1731.19 L1732.25 1720.43 L1752.80 1709.78 L1773.46 1699.14 L1794.13 1688.75 L1814.79 1678.35 L1835.34 1668.08 L1856.00 1657.81 L1876.67 1647.66 L1897.34 1637.63 L1917.88 1627.61 L1938.54 1617.71 L1959.21 1607.81 L1979.88 1598.03 L2000.42 1588.26 L2021.09 1578.48 L2041.75 1568.83 L2062.42 1559.17 L2082.96 1549.52 L2103.63 1539.99 L2124.29 1530.46 L2144.96 1520.94 L2165.50 1511.41 L2186.17 1501.88 L2206.83 1492.35 L2227.50 1482.94 L2248.04 1473.41 L2268.71 1464.01 L2289.38 1454.60 L2310.04 1445.07 L2330.58 1435.67 L2351.25 1426.14 L2371.92 1416.61 L2392.58 1407.21 L2413.13 1397.68 L2433.79 1388.15 L2454.46 1378.62 L2475.12 1368.97 L2495.67 1359.44 L2516.33 1349.78 L2537.00 1340.13 L2557.66 1330.48 L2578.21 1320.83 L2598.87 1311.05 L2619.54 1301.40 L2640.21 1291.62 L2660.75 1281.97 L2681.41 1272.19 L2702.08 1262.41 L2722.75 1252.64 L2743.29 1242.86 L2763.96 1233.08 L2784.62 1223.18 L2805.29 1213.41 L2825.83 1203.63 L2846.50 1193.85 L2867.16 1183.95 L2887.83 1174.18 L2908.37 1164.40 L2929.04 1154.50 L2949.70 1144.72 L2970.37 1134.95 L2990.91 1125.17 L3011.58 1115.27 L3032.25 1105.49 L3052.91 1095.72 L3073.45 1085.94 L3094.12 1076.16 L3114.79 1066.39 L3135.45 1056.61 L3156.00 1046.83 L3176.66 1037.18 L3197.33 1027.40 L3217.99 1017.75 L3238.54 1007.98 L3259.20 998.32 L3259.20 582.26 L3238.54 594.64 L3217.99 607.14 L3197.33 619.51 L3176.66 632.01 L3156.00 644.51 L3135.45 656.89 L3114.79 669.38 L3094.12 681.76 L3073.45 694.26 L3052.91 706.76 L3032.25 719.13 L3011.58 731.63 L2990.91 744.01 L2970.37 756.51 L2949.70 768.88 L2929.04 781.38 L2908.37 793.76 L2887.83 806.13 L2867.16 818.63 L2846.50 831.01 L2825.83 843.38 L2805.29 855.76 L2784.62 868.13 L2763.96 880.51 L2743.29 892.88 L2722.75 905.14 L2702.08 917.51 L2681.41 929.89 L2660.75 942.14 L2640.21 954.39 L2619.54 966.64 L2598.87 979.02 L2578.21 991.14 L2557.66 1003.40 L2537.00 1015.65 L2516.33 1027.78 L2495.67 1040.03 L2475.12 1052.16 L2454.46 1064.28 L2433.79 1076.41 L2413.13 1088.42 L2392.58 1100.54 L2371.92 1112.55 L2351.25 1124.68 L2330.58 1136.68 L2310.04 1148.68 L2289.38 1160.81 L2268.71 1172.82 L2248.04 1184.82 L2227.50 1196.95 L2206.83 1208.95 L2186.17 1220.96 L2165.50 1233.08 L2144.96 1245.21 L2124.29 1257.34 L2103.63 1269.47 L2082.96 1281.60 L2062.42 1293.85 L2041.75 1306.10 L2021.09 1318.35 L2000.42 1330.73 L1979.88 1343.10 L1959.21 1355.48 L1938.54 1368.10 L1917.88 1380.60 L1897.34 1393.22 L1876.67 1405.97 L1856.00 1418.84 L1835.34 1431.71 L1814.79 1444.70 L1794.13 1457.82 L1773.46 1471.06 L1752.80 1484.43 L1732.25 1498.04 L1711.59 1511.65 L1690.92 1525.51 L1670.25 1539.37 L1649.71 1553.61 L1629.05 1567.84 L1608.38 1582.32 L1587.71 1596.92 L1567.17 1611.65 L1546.50 1626.62 L1525.84 1641.72 L1505.17 1656.82 L1484.63 1672.16 L1463.96 1687.63 L1443.30 1703.22 L1422.63 1718.94 L1402.09 1734.66 L1381.42 1750.62 L1360.76 1766.59 L1340.09 1782.67 L1319.55 1798.89 L1298.88 1815.10 L1278.21 1831.31 L1257.55 1847.65 L1237.01 1864.10 L1216.34 1880.44 L1195.67 1896.90 L1175.01 1913.36 L1154.46 1929.82 L1133.80 1946.28 L1113.13 1962.61 L1092.46 1978.95 L1071.92 1995.28 L1051.26 2011.62 L1030.59 2027.83 L1009.92 2044.04 L989.38 2060.25 L968.72 2076.34 L948.05 2092.55 L927.38 2108.52 L906.84 2124.61 L886.17 2140.57 L865.51 2156.53 L844.84 2172.50 L824.30 2188.46 L803.63 2204.30 L782.97 2220.14 L762.30 2235.98 L741.76 2251.70 L721.09 2267.54 L700.42 2283.14 L679.76 2298.85 L659.22 2314.44 L638.55 2330.04 L617.88 2345.51 L597.22 2360.98 L576.67 2376.32 L556.01 2391.79 L535.34 2407.51 L514.68 2423.84 L514.68 2435.60 Z" stroke-linejoin="round"/>
	</defs>
	<defs>
		<clipPath id="clipPath_RaCQqnOc">
			<use xlink:href="#path_xwcdUNve"/>
		</clipPath>
	</defs>
	<use xlink:href="#path_xwcdUNve" style="stroke:none;fill:#3333FF;fill-opacity:0.25"/>
	<use xlink:href="#path_xwcdUNve" style="fill:none;stroke:#0000FF;stroke-opacity:0.25;stroke-width:17.28" clip-path="url(#clipPath_RaCQqnOc)"/>
	<path d=" M494.01 2445.87 L514.68 2431.02 L535.34 2417.41 L555.88 2404.04 L576.55 2390.68 L597.22 2377.44 L617.88 2364.07 L638.43 2350.58 L659.09 2337.09 L679.76 2323.60 L700.42 2310.11 L720.97 2296.50 L741.63 2282.76 L762.30 2269.03 L782.97 2255.29 L803.51 2241.43 L824.17 2227.57 L844.84 2213.71 L865.51 2199.72 L886.05 2185.74 L906.72 2171.63 L927.38 2157.52 L948.05 2143.42 L968.59 2129.31 L989.26 2114.95 L1009.92 2100.72 L1030.59 2086.37 L1051.13 2072.01 L1071.80 2057.66 L1092.46 2043.18 L1113.13 2028.70 L1133.67 2014.22 L1154.34 1999.74 L1175.01 1985.14 L1195.67 1970.66 L1216.21 1956.18 L1236.88 1941.70 L1257.55 1927.22 L1278.21 1912.86 L1298.76 1898.51 L1319.42 1884.28 L1340.09 1870.04 L1360.76 1855.81 L1381.30 1841.83 L1401.96 1827.84 L1422.63 1813.86 L1443.30 1800.12 L1463.84 1786.39 L1484.51 1772.77 L1505.17 1759.28 L1525.84 1745.92 L1546.38 1732.68 L1567.05 1719.56 L1587.71 1706.57 L1608.38 1693.70 L1628.92 1680.95 L1649.59 1668.33 L1670.25 1655.83 L1690.92 1643.45 L1711.46 1631.20 L1732.13 1619.07 L1752.80 1607.07 L1773.46 1595.31 L1794.00 1583.55 L1814.67 1571.92 L1835.34 1560.29 L1856.00 1548.90 L1876.55 1537.52 L1897.21 1526.26 L1917.88 1514.99 L1938.54 1503.86 L1959.09 1492.84 L1979.75 1481.71 L2000.42 1470.81 L2021.09 1459.92 L2041.63 1449.03 L2062.29 1438.14 L2082.96 1427.38 L2103.63 1416.61 L2124.17 1405.84 L2144.84 1395.08 L2165.50 1384.43 L2186.17 1373.79 L2206.71 1363.03 L2227.38 1352.38 L2248.04 1341.74 L2268.71 1331.10 L2289.25 1320.45 L2309.92 1309.81 L2330.58 1299.17 L2351.25 1288.53 L2371.79 1277.88 L2392.46 1267.24 L2413.13 1256.60 L2433.79 1245.83 L2454.33 1235.06 L2475.00 1224.42 L2495.67 1213.65 L2516.33 1202.76 L2536.88 1192.00 L2557.54 1181.23 L2578.21 1170.34 L2598.87 1159.45 L2619.42 1148.56 L2640.08 1137.67 L2660.75 1126.78 L2681.41 1115.89 L2701.96 1104.87 L2722.62 1093.98 L2743.29 1082.97 L2763.96 1072.08 L2784.50 1061.07 L2805.16 1050.05 L2825.83 1039.04 L2846.50 1028.15 L2867.04 1017.13 L2887.71 1006.12 L2908.37 995.10 L2929.04 984.09 L2949.58 973.08 L2970.25 962.06 L2990.91 951.05 L3011.58 940.03 L3032.12 929.02 L3052.79 918.01 L3073.45 906.99 L3094.12 895.98 L3114.66 884.96 L3135.33 873.95 L3156.00 863.06 L3176.66 852.05 L3197.20 841.03 L3217.87 830.14 L3238.54 819.13 L3259.20 808.24" stroke-linejoin="round" style="fill:none;stroke:#FF0000;stroke-width:8.64"/>
	<line x1="494.01" y1="2445.87" x2="514.68" y2="2430.90" style="stroke:#0000FF;stroke-width:8.64"/>
	<line x1="514.68" y1="2430.90" x2="535.34" y2="2417.28" style="stroke:#0000FF;stroke-width:8.64"/>
	<line x1="535.34" y1="2417.28" x2="541.53" y2="2413.20" style="stroke:#0000FF;stroke-width:8.64"/>
	<line x1="565.66" y1="2397.61" x2="576.55" y2="2390.55" style="stroke:#0000FF;stroke-width:8.64"/>
	<line x1="576.55" y1="2390.55" x2="597.22" y2="2377.19" style="stroke:#0000FF;stroke-width:8.64"/>
	<line x1="597.22" y1="2377.19" x2="613.92" y2="2366.30" style="stroke:#0000FF;stroke-width:8.64"/>
	<line x1="638.05" y1="2350.58" x2="638.43" y2="2350.33" style="stroke:#0000FF;stroke-width:8.64"/>
	<line x1="638.43" y1="2350.33" x2="659.09" y2="2336.84" style="stroke:#0000FF;stroke-width:8.64"/>
	<line x1="659.09" y1="2336.84" x2="679.76" y2="2323.23" style="stroke:#0000FF;stroke-width:8.64"/>
	<line x1="679.76" y1="2323.23" x2="686.19" y2="2319.02" style="stroke:#0000FF;stroke-width:8.64"/>
	<line x1="710.20" y1="2303.06" x2="720.97" y2="2296.01" style="stroke:#0000FF;stroke-width:8.64"/>
	<line x1="720.97" y1="2296.01" x2="741.63" y2="2282.27" style="stroke:#0000FF;stroke-width:8.64"/>
	<line x1="741.63" y1="2282.27" x2="758.22" y2="2271.25" style="stroke:#0000FF;stroke-width:8.64"/>
	<line x1="782.22" y1="2255.29" x2="782.97" y2="2254.80" style="stroke:#0000FF;stroke-width:8.64"/>
	<line x1="782.97" y1="2254.80" x2="803.51" y2="2240.94" style="stroke:#0000FF;stroke-width:8.64"/>
	<line x1="803.51" y1="2240.94" x2="824.17" y2="2226.95" style="stroke:#0000FF;stroke-width:8.64"/>
	<line x1="824.17" y1="2226.95" x2="829.99" y2="2222.99" style="stroke:#0000FF;stroke-width:8.64"/>
	<line x1="853.88" y1="2206.90" x2="865.51" y2="2198.98" style="stroke:#0000FF;stroke-width:8.64"/>
	<line x1="865.51" y1="2198.98" x2="886.05" y2="2185.00" style="stroke:#0000FF;stroke-width:8.64"/>
	<line x1="886.05" y1="2185.00" x2="901.39" y2="2174.48" style="stroke:#0000FF;stroke-width:8.64"/>
	<line x1="925.28" y1="2158.27" x2="927.38" y2="2156.78" style="stroke:#0000FF;stroke-width:8.64"/>
	<line x1="927.38" y1="2156.78" x2="948.05" y2="2142.55" style="stroke:#0000FF;stroke-width:8.64"/>
	<line x1="948.05" y1="2142.55" x2="968.59" y2="2128.32" style="stroke:#0000FF;stroke-width:8.64"/>
	<line x1="968.59" y1="2128.32" x2="972.67" y2="2125.47" style="stroke:#0000FF;stroke-width:8.64"/>
	<line x1="996.43" y1="2109.14" x2="1009.92" y2="2099.73" style="stroke:#0000FF;stroke-width:8.64"/>
	<line x1="1009.92" y1="2099.73" x2="1030.59" y2="2085.38" style="stroke:#0000FF;stroke-width:8.64"/>
	<line x1="1030.59" y1="2085.38" x2="1043.71" y2="2076.22" style="stroke:#0000FF;stroke-width:8.64"/>
	<line x1="1067.22" y1="2059.76" x2="1071.80" y2="2056.54" style="stroke:#0000FF;stroke-width:8.64"/>
	<line x1="1071.80" y1="2056.54" x2="1092.46" y2="2042.06" style="stroke:#0000FF;stroke-width:8.64"/>
	<line x1="1092.46" y1="2042.06" x2="1113.13" y2="2027.58" style="stroke:#0000FF;stroke-width:8.64"/>
	<line x1="1113.13" y1="2027.58" x2="1114.37" y2="2026.72" style="stroke:#0000FF;stroke-width:8.64"/>
	<line x1="1137.88" y1="2010.01" x2="1154.34" y2="1998.38" style="stroke:#0000FF;stroke-width:8.64"/>
	<line x1="1154.34" y1="1998.38" x2="1175.01" y2="1983.90" style="stroke:#0000FF;stroke-width:8.64"/>
	<line x1="1175.01" y1="1983.90" x2="1184.91" y2="1976.97" style="stroke:#0000FF;stroke-width:8.64"/>
	<line x1="1208.42" y1="1960.26" x2="1216.21" y2="1954.69" style="stroke:#0000FF;stroke-width:8.64"/>
	<line x1="1216.21" y1="1954.69" x2="1236.88" y2="1940.21" style="stroke:#0000FF;stroke-width:8.64"/>
	<line x1="1236.88" y1="1940.21" x2="1255.44" y2="1927.22" style="stroke:#0000FF;stroke-width:8.64"/>
	<line x1="1279.08" y1="1910.76" x2="1298.76" y2="1896.90" style="stroke:#0000FF;stroke-width:8.64"/>
	<line x1="1298.76" y1="1896.90" x2="1319.42" y2="1882.54" style="stroke:#0000FF;stroke-width:8.64"/>
	<line x1="1319.42" y1="1882.54" x2="1326.35" y2="1877.84" style="stroke:#0000FF;stroke-width:8.64"/>
	<line x1="1350.11" y1="1861.51" x2="1360.76" y2="1854.20" style="stroke:#0000FF;stroke-width:8.64"/>
	<line x1="1360.76" y1="1854.20" x2="1381.30" y2="1840.10" style="stroke:#0000FF;stroke-width:8.64"/>
	<line x1="1381.30" y1="1840.10" x2="1397.63" y2="1828.96" style="stroke:#0000FF;stroke-width:8.64"/>
	<line x1="1421.52" y1="1812.87" x2="1422.63" y2="1812.13" style="stroke:#0000FF;stroke-width:8.64"/>
	<line x1="1422.63" y1="1812.13" x2="1443.30" y2="1798.27" style="stroke:#0000FF;stroke-width:8.64"/>
	<line x1="1443.30" y1="1798.27" x2="1463.84" y2="1784.53" style="stroke:#0000FF;stroke-width:8.64"/>
	<line x1="1463.84" y1="1784.53" x2="1469.28" y2="1780.94" style="stroke:#0000FF;stroke-width:8.64"/>
	<line x1="1493.41" y1="1764.98" x2="1505.17" y2="1757.30" style="stroke:#0000FF;stroke-width:8.64"/>
	<line x1="1505.17" y1="1757.30" x2="1525.84" y2="1743.94" style="stroke:#0000FF;stroke-width:8.64"/>
	<line x1="1525.84" y1="1743.94" x2="1541.68" y2="1733.67" style="stroke:#0000FF;stroke-width:8.64"/>
	<line x1="1565.93" y1="1718.20" x2="1567.05" y2="1717.46" style="stroke:#0000FF;stroke-width:8.64"/>
	<line x1="1567.05" y1="1717.46" x2="1587.71" y2="1704.34" style="stroke:#0000FF;stroke-width:8.64"/>
	<line x1="1587.71" y1="1704.34" x2="1608.38" y2="1691.47" style="stroke:#0000FF;stroke-width:8.64"/>
	<line x1="1608.38" y1="1691.47" x2="1614.69" y2="1687.51" style="stroke:#0000FF;stroke-width:8.64"/>
	<line x1="1639.19" y1="1672.41" x2="1649.59" y2="1665.97" style="stroke:#0000FF;stroke-width:8.64"/>
	<line x1="1649.59" y1="1665.97" x2="1670.25" y2="1653.48" style="stroke:#0000FF;stroke-width:8.64"/>
	<line x1="1670.25" y1="1653.48" x2="1688.44" y2="1642.59" style="stroke:#0000FF;stroke-width:8.64"/>
	<line x1="1713.19" y1="1627.86" x2="1732.13" y2="1616.72" style="stroke:#0000FF;stroke-width:8.64"/>
	<line x1="1732.13" y1="1616.72" x2="1752.80" y2="1604.72" style="stroke:#0000FF;stroke-width:8.64"/>
	<line x1="1752.80" y1="1604.72" x2="1762.94" y2="1598.90" style="stroke:#0000FF;stroke-width:8.64"/>
	<line x1="1788.06" y1="1584.54" x2="1794.00" y2="1581.08" style="stroke:#0000FF;stroke-width:8.64"/>
	<line x1="1794.00" y1="1581.08" x2="1814.67" y2="1569.32" style="stroke:#0000FF;stroke-width:8.64"/>
	<line x1="1814.67" y1="1569.32" x2="1835.34" y2="1557.81" style="stroke:#0000FF;stroke-width:8.64"/>
	<line x1="1835.34" y1="1557.81" x2="1838.18" y2="1556.20" style="stroke:#0000FF;stroke-width:8.64"/>
	<line x1="1863.43" y1="1542.22" x2="1876.55" y2="1534.92" style="stroke:#0000FF;stroke-width:8.64"/>
	<line x1="1876.55" y1="1534.92" x2="1897.21" y2="1523.53" style="stroke:#0000FF;stroke-width:8.64"/>
	<line x1="1897.21" y1="1523.53" x2="1913.79" y2="1514.50" style="stroke:#0000FF;stroke-width:8.64"/>
	<line x1="1939.29" y1="1500.76" x2="1959.09" y2="1490.00" style="stroke:#0000FF;stroke-width:8.64"/>
	<line x1="1959.09" y1="1490.00" x2="1979.75" y2="1478.98" style="stroke:#0000FF;stroke-width:8.64"/>
	<line x1="1979.75" y1="1478.98" x2="1990.02" y2="1473.54" style="stroke:#0000FF;stroke-width:8.64"/>
	<line x1="2015.39" y1="1459.92" x2="2021.09" y2="1456.95" style="stroke:#0000FF;stroke-width:8.64"/>
	<line x1="2021.09" y1="1456.95" x2="2041.63" y2="1446.06" style="stroke:#0000FF;stroke-width:8.64"/>
	<line x1="2041.63" y1="1446.06" x2="2062.29" y2="1435.17" style="stroke:#0000FF;stroke-width:8.64"/>
	<line x1="2062.29" y1="1435.17" x2="2066.38" y2="1433.07" style="stroke:#0000FF;stroke-width:8.64"/>
	<line x1="2091.87" y1="1419.70" x2="2103.63" y2="1413.64" style="stroke:#0000FF;stroke-width:8.64"/>
	<line x1="2103.63" y1="1413.64" x2="2124.17" y2="1402.87" style="stroke:#0000FF;stroke-width:8.64"/>
	<line x1="2124.17" y1="1402.87" x2="2142.98" y2="1393.10" style="stroke:#0000FF;stroke-width:8.64"/>
	<line x1="2168.59" y1="1379.73" x2="2186.17" y2="1370.70" style="stroke:#0000FF;stroke-width:8.64"/>
	<line x1="2186.17" y1="1370.70" x2="2206.71" y2="1359.93" style="stroke:#0000FF;stroke-width:8.64"/>
	<line x1="2206.71" y1="1359.93" x2="2219.58" y2="1353.25" style="stroke:#0000FF;stroke-width:8.64"/>
	<line x1="2245.20" y1="1340.01" x2="2248.04" y2="1338.52" style="stroke:#0000FF;stroke-width:8.64"/>
	<line x1="2248.04" y1="1338.52" x2="2268.71" y2="1327.88" style="stroke:#0000FF;stroke-width:8.64"/>
	<line x1="2268.71" y1="1327.88" x2="2289.25" y2="1317.24" style="stroke:#0000FF;stroke-width:8.64"/>
	<line x1="2289.25" y1="1317.24" x2="2296.30" y2="1313.65" style="stroke:#0000FF;stroke-width:8.64"/>
	<line x1="2321.92" y1="1300.41" x2="2330.58" y2="1295.95" style="stroke:#0000FF;stroke-width:8.64"/>
	<line x1="2330.58" y1="1295.95" x2="2351.25" y2="1285.18" style="stroke:#0000FF;stroke-width:8.64"/>
	<line x1="2351.25" y1="1285.18" x2="2371.79" y2="1274.54" style="stroke:#0000FF;stroke-width:8.64"/>
	<line x1="2371.79" y1="1274.54" x2="2373.03" y2="1273.92" style="stroke:#0000FF;stroke-width:8.64"/>
	<line x1="2398.65" y1="1260.56" x2="2413.13" y2="1253.13" style="stroke:#0000FF;stroke-width:8.64"/>
	<line x1="2413.13" y1="1253.13" x2="2433.79" y2="1242.37" style="stroke:#0000FF;stroke-width:8.64"/>
	<line x1="2433.79" y1="1242.37" x2="2449.76" y2="1234.07" style="stroke:#0000FF;stroke-width:8.64"/>
	<line x1="2475.25" y1="1220.71" x2="2495.67" y2="1210.07" style="stroke:#0000FF;stroke-width:8.64"/>
	<line x1="2495.67" y1="1210.07" x2="2516.33" y2="1199.17" style="stroke:#0000FF;stroke-width:8.64"/>
	<line x1="2516.33" y1="1199.17" x2="2526.23" y2="1193.98" style="stroke:#0000FF;stroke-width:8.64"/>
	<line x1="2551.72" y1="1180.61" x2="2557.54" y2="1177.52" style="stroke:#0000FF;stroke-width:8.64"/>
	<line x1="2557.54" y1="1177.52" x2="2578.21" y2="1166.63" style="stroke:#0000FF;stroke-width:8.64"/>
	<line x1="2578.21" y1="1166.63" x2="2598.87" y2="1155.74" style="stroke:#0000FF;stroke-width:8.64"/>
	<line x1="2598.87" y1="1155.74" x2="2602.71" y2="1153.76" style="stroke:#0000FF;stroke-width:8.64"/>
	<line x1="2628.20" y1="1140.14" x2="2640.08" y2="1133.83" style="stroke:#0000FF;stroke-width:8.64"/>
	<line x1="2640.08" y1="1133.83" x2="2660.75" y2="1122.94" style="stroke:#0000FF;stroke-width:8.64"/>
	<line x1="2660.75" y1="1122.94" x2="2679.06" y2="1113.29" style="stroke:#0000FF;stroke-width:8.64"/>
	<line x1="2704.56" y1="1099.68" x2="2722.62" y2="1090.02" style="stroke:#0000FF;stroke-width:8.64"/>
	<line x1="2722.62" y1="1090.02" x2="2743.29" y2="1079.01" style="stroke:#0000FF;stroke-width:8.64"/>
	<line x1="2743.29" y1="1079.01" x2="2755.29" y2="1072.57" style="stroke:#0000FF;stroke-width:8.64"/>
	<line x1="2780.79" y1="1059.09" x2="2784.50" y2="1057.11" style="stroke:#0000FF;stroke-width:8.64"/>
	<line x1="2784.50" y1="1057.11" x2="2805.16" y2="1046.09" style="stroke:#0000FF;stroke-width:8.64"/>
	<line x1="2805.16" y1="1046.09" x2="2825.83" y2="1034.95" style="stroke:#0000FF;stroke-width:8.64"/>
	<line x1="2825.83" y1="1034.95" x2="2831.52" y2="1031.86" style="stroke:#0000FF;stroke-width:8.64"/>
	<line x1="2857.02" y1="1018.37" x2="2867.04" y2="1012.93" style="stroke:#0000FF;stroke-width:8.64"/>
	<line x1="2867.04" y1="1012.93" x2="2887.71" y2="1001.91" style="stroke:#0000FF;stroke-width:8.64"/>
	<line x1="2887.71" y1="1001.91" x2="2907.75" y2="991.14" style="stroke:#0000FF;stroke-width:8.64"/>
	<line x1="2933.25" y1="977.66" x2="2949.58" y2="968.75" style="stroke:#0000FF;stroke-width:8.64"/>
	<line x1="2949.58" y1="968.75" x2="2970.25" y2="957.73" style="stroke:#0000FF;stroke-width:8.64"/>
	<line x1="2970.25" y1="957.73" x2="2983.98" y2="950.43" style="stroke:#0000FF;stroke-width:8.64"/>
	<line x1="3009.48" y1="936.82" x2="3011.58" y2="935.70" style="stroke:#0000FF;stroke-width:8.64"/>
	<line x1="3011.58" y1="935.70" x2="3032.12" y2="924.57" style="stroke:#0000FF;stroke-width:8.64"/>
	<line x1="3032.12" y1="924.57" x2="3052.79" y2="913.55" style="stroke:#0000FF;stroke-width:8.64"/>
	<line x1="3052.79" y1="913.55" x2="3060.21" y2="909.59" style="stroke:#0000FF;stroke-width:8.64"/>
	<line x1="3085.58" y1="895.98" x2="3094.12" y2="891.52" style="stroke:#0000FF;stroke-width:8.64"/>
	<line x1="3094.12" y1="891.52" x2="3114.66" y2="880.51" style="stroke:#0000FF;stroke-width:8.64"/>
	<line x1="3114.66" y1="880.51" x2="3135.33" y2="869.49" style="stroke:#0000FF;stroke-width:8.64"/>
	<line x1="3135.33" y1="869.49" x2="3136.44" y2="868.88" style="stroke:#0000FF;stroke-width:8.64"/>
	<line x1="3161.94" y1="855.39" x2="3176.66" y2="847.47" style="stroke:#0000FF;stroke-width:8.64"/>
	<line x1="3176.66" y1="847.47" x2="3197.20" y2="836.45" style="stroke:#0000FF;stroke-width:8.64"/>
	<line x1="3197.20" y1="836.45" x2="3212.67" y2="828.16" style="stroke:#0000FF;stroke-width:8.64"/>
	<line x1="3238.17" y1="814.55" x2="3238.54" y2="814.42" style="stroke:#0000FF;stroke-width:8.64"/>
	<line x1="3238.54" y1="814.42" x2="3259.20" y2="803.41" style="stroke:#0000FF;stroke-width:8.64"/>
	<path d="" stroke-linejoin="round" style="fill:none;stroke:#0000FF;stroke-width:8.64"/>
	<line x1="430.77" y1="2509.23" x2="430.77" y2="245.40" style="stroke:#000000;stroke-width:5.76"/>
	<line x1="430.77" y1="2445.87" x2="390.80" y2="2445.87" style="stroke:#000000;stroke-width:5.76"/>
	<text x="370.75" y="2473.88" style="font-family:'Helvetica';font-size:79.94px;fill:#000000" text-anchor="end">0.0</text>
	<line x1="430.77" y1="2232.15" x2="390.80" y2="2232.15" style="stroke:#000000;stroke-width:5.76"/>
	<text x="370.75" y="2260.16" style="font-family:'Helvetica';font-size:79.94px;fill:#000000" text-anchor="end">0.1</text>
	<line x1="430.77" y1="2018.43" x2="390.80" y2="2018.43" style="stroke:#000000;stroke-width:5.76"/>
	<text x="370.75" y="2046.44" style="font-family:'Helvetica';font-size:79.94px;fill:#000000" text-anchor="end">0.2</text>
	<line x1="430.77" y1="1804.70" x2="390.80" y2="1804.70" style="stroke:#000000;stroke-width:5.76"/>
	<text x="370.75" y="1832.71" style="font-family:'Helvetica';font-size:79.94px;fill:#000000" text-anchor="end">0.3</text>
	<line x1="430.77" y1="1590.98" x2="390.80" y2="1590.98" style="stroke:#000000;stroke-width:5.76"/>
	<text x="370.75" y="1618.99" style="font-family:'Helvetica';font-size:79.94px;fill:#000000" text-anchor="end">0.4</text>
	<line x1="430.77" y1="1377.26" x2="390.80" y2="1377.26" style="stroke:#000000;stroke-width:5.76"/>
	<text x="370.75" y="1405.27" style="font-family:'Helvetica';font-size:79.94px;fill:#000000" text-anchor="end">0.5</text>
	<line x1="430.77" y1="1163.53" x2="390.80" y2="1163.53" style="stroke:#000000;stroke-width:5.76"/>
	<text x="370.75" y="1191.55" style="font-family:'Helvetica';font-size:79.94px;fill:#000000" text-anchor="end">0.6</text>
	<line x1="430.77" y1="949.81" x2="390.80" y2="949.81" style="stroke:#000000;stroke-width:5.76"/>
	<text x="370.75" y="977.82" style="font-family:'Helvetica';font-size:79.94px;fill:#000000" text-anchor="end">0.7</text>
	<line x1="430.77" y1="736.09" x2="390.80" y2="736.09" style="stroke:#000000;stroke-width:5.76"/>
	<text x="370.75" y="764.10" style="font-family:'Helvetica';font-size:79.94px;fill:#000000" text-anchor="end">0.8</text>
	<line x1="430.77" y1="522.49" x2="390.80" y2="522.49" style="stroke:#000000;stroke-width:5.76"/>
	<text x="370.75" y="550.50" style="font-family:'Helvetica';font-size:79.94px;fill:#000000" text-anchor="end">0.9</text>
	<line x1="430.77" y1="308.77" x2="390.80" y2="308.77" style="stroke:#000000;stroke-width:5.76"/>
	<text x="370.75" y="336.78" style="font-family:'Helvetica';font-size:79.94px;fill:#000000" text-anchor="end">1.0</text>
	<text x="190.71" y="1377.26" style="font-family:'Helvetica';font-size:99.99px;fill:#000000" transform="rotate(-90 190.71,1377.26)" text-anchor="middle">Cumulative mortality (%)</text>
	<line x1="430.77" y1="2509.23" x2="3859.02" y2="2509.23" style="stroke:#000000;stroke-width:5.76"/>
	<line x1="494.13" y1="2509.23" x2="494.13" y2="2549.21" style="stroke:#000000;stroke-width:5.76"/>
	<text x="494.13" y="2625.15" style="font-family:'Helvetica';font-size:79.94px;fill:#000000" text-anchor="middle">0</text>
	<line x1="906.84" y1="2509.23" x2="906.84" y2="2549.21" style="stroke:#000000;stroke-width:5.76"/>
	<text x="906.84" y="2625.15" style="font-family:'Helvetica';font-size:79.94px;fill:#000000" text-anchor="middle">20</text>
	<line x1="1319.55" y1="2509.23" x2="1319.55" y2="2549.21" style="stroke:#000000;stroke-width:5.76"/>
	<text x="1319.55" y="2625.15" style="font-family:'Helvetica';font-size:79.94px;fill:#000000" text-anchor="middle">40</text>
	<line x1="1732.25" y1="2509.23" x2="1732.25" y2="2549.21" style="stroke:#000000;stroke-width:5.76"/>
	<text x="1732.25" y="2625.15" style="font-family:'Helvetica';font-size:79.94px;fill:#000000" text-anchor="middle">60</text>
	<line x1="2144.96" y1="2509.23" x2="2144.96" y2="2549.21" style="stroke:#000000;stroke-width:5.76"/>
	<text x="2144.96" y="2625.15" style="font-family:'Helvetica';font-size:79.94px;fill:#000000" text-anchor="middle">80</text>
	<line x1="2557.66" y1="2509.23" x2="2557.66" y2="2549.21" style="stroke:#000000;stroke-width:5.76"/>
	<text x="2557.66" y="2625.15" style="font-family:'Helvetica';font-size:79.94px;fill:#000000" text-anchor="middle">100</text>
	<line x1="2970.37" y1="2509.23" x2="2970.37" y2="2549.21" style="stroke:#000000;stroke-width:5.76"/>
	<text x="2970.37" y="2625.15" style="font-family:'Helvetica';font-size:79.94px;fill:#000000" text-anchor="middle">120</text>
	<line x1="3383.08" y1="2509.23" x2="3383.08" y2="2549.21" style="stroke:#000000;stroke-width:5.76"/>
	<text x="3383.08" y="2625.15" style="font-family:'Helvetica';font-size:79.94px;fill:#000000" text-anchor="middle">140</text>
	<line x1="3795.78" y1="2509.23" x2="3795.78" y2="2549.21" style="stroke:#000000;stroke-width:5.76"/>
	<text x="3795.78" y="2625.15" style="font-family:'Helvetica';font-size:79.94px;fill:#000000" text-anchor="middle">160</text>
	<text x="2144.96" y="2729.16" style="font-family:'Helvetica';font-size:99.99px;fill:#000000" text-anchor="middle">Days since 1 Mar 2020</text>
	<rect x="465.30" y="279.93" width="917.48" height="326.34" style="fill:#FFFFFF"/>
	<rect x="468.18" y="282.81" width="911.72" height="320.58" style="fill:none;stroke:#EAF2F3;stroke-width:5.76"/>
	<rect x="508.49" y="323.12" width="374.34" height="99.99" style="fill:#FF3333;fill-opacity:0.25"/>
	<rect x="512.81" y="327.44" width="365.70" height="91.35" style="fill:none;stroke:#FF0000;stroke-opacity:0.25;stroke-width:8.64"/>
	<rect x="508.49" y="463.09" width="374.34" height="99.99" style="fill:#3333FF;fill-opacity:0.25"/>
	<rect x="512.81" y="467.41" width="365.70" height="91.35" style="fill:none;stroke:#0000FF;stroke-opacity:0.25;stroke-width:8.64"/>
	<text x="942.85" y="408.15" style="font-family:'Helvetica';font-size:99.99px;fill:#000000">No HCQ</text>
	<text x="942.85" y="548.11" style="font-family:'Helvetica';font-size:99.99px;fill:#000000">HCQ</text>
	<text x="1185.65" y="195.01" style="font-family:'Helvetica';font-size:110.01px;fill:#1E2D53">Time to Non COVID-19 Death in ONS</text>
</svg>
