<?xml version="1.0" encoding="UTF-8" standalone="no"?>
<!-- This is a Stata 16.1 generated SVG file (http://www.stata.com) -->

<svg version="1.1" width="5.50in" height="4.00in" viewBox="0 0 3960 2880" xmlns="http://www.w3.org/2000/svg" xmlns:xlink="http://www.w3.org/1999/xlink">
	<desc>Stata Graph - Graph</desc>
	<rect x="0" y="0" width="3960" height="2880" style="fill:#EAF2F3;stroke:none"/>
	<rect x="0.00" y="0.00" width="3959.88" height="2880.00" style="fill:#FFFFFF"/>
	<rect x="2.88" y="2.88" width="3954.12" height="2874.24" style="fill:none;stroke:#EAF2F3;stroke-width:5.76"/>
	<rect x="430.77" y="235.38" width="3428.25" height="2293.90" style="fill:#FFFFFF"/>
	<rect x="433.65" y="238.26" width="3422.49" height="2288.14" style="fill:none;stroke:#FFFFFF;stroke-width:5.76"/>
	<line x1="430.77" y1="2465.92" x2="3859.02" y2="2465.92" style="stroke:#EAF2F3;stroke-width:8.64"/>
	<line x1="430.77" y1="2249.23" x2="3859.02" y2="2249.23" style="stroke:#EAF2F3;stroke-width:8.64"/>
	<line x1="430.77" y1="2032.41" x2="3859.02" y2="2032.41" style="stroke:#EAF2F3;stroke-width:8.64"/>
	<line x1="430.77" y1="1815.72" x2="3859.02" y2="1815.72" style="stroke:#EAF2F3;stroke-width:8.64"/>
	<line x1="430.77" y1="1599.02" x2="3859.02" y2="1599.02" style="stroke:#EAF2F3;stroke-width:8.64"/>
	<line x1="430.77" y1="1382.33" x2="3859.02" y2="1382.33" style="stroke:#EAF2F3;stroke-width:8.64"/>
	<line x1="430.77" y1="1165.64" x2="3859.02" y2="1165.64" style="stroke:#EAF2F3;stroke-width:8.64"/>
	<line x1="430.77" y1="948.82" x2="3859.02" y2="948.82" style="stroke:#EAF2F3;stroke-width:8.64"/>
	<line x1="430.77" y1="732.13" x2="3859.02" y2="732.13" style="stroke:#EAF2F3;stroke-width:8.64"/>
	<line x1="430.77" y1="515.43" x2="3859.02" y2="515.43" style="stroke:#EAF2F3;stroke-width:8.64"/>
	<line x1="430.77" y1="298.74" x2="3859.02" y2="298.74" style="stroke:#EAF2F3;stroke-width:8.64"/>
	<defs>
		<path id="path_WGGRDvZl" d="M514.68 2460.23 L514.68 2460.23 L535.34 2451.69 L556.01 2441.66 L576.67 2430.90 L597.22 2419.51 L617.88 2407.76 L638.55 2395.63 L659.22 2383.38 L679.76 2371.00 L700.42 2358.38 L721.09 2345.63 L741.76 2332.76 L762.30 2319.77 L782.97 2306.65 L803.63 2293.41 L824.30 2280.04 L844.84 2266.68 L865.51 2253.19 L886.17 2239.57 L906.84 2225.96 L927.38 2212.10 L948.05 2198.36 L968.72 2184.50 L989.38 2170.52 L1009.92 2156.53 L1030.59 2142.43 L1051.26 2128.32 L1071.92 2114.21 L1092.46 2100.10 L1113.13 2086.00 L1133.80 2071.89 L1154.46 2057.78 L1175.01 2043.67 L1195.67 2029.69 L1216.34 2015.70 L1237.01 2001.72 L1257.55 1987.98 L1278.21 1974.12 L1298.88 1960.51 L1319.55 1946.90 L1340.09 1933.28 L1360.76 1919.92 L1381.42 1906.55 L1402.09 1893.31 L1422.63 1880.07 L1443.30 1866.95 L1463.96 1853.96 L1484.63 1840.96 L1505.17 1828.22 L1525.84 1815.47 L1546.50 1802.72 L1567.17 1790.22 L1587.71 1777.72 L1608.38 1765.35 L1629.05 1753.10 L1649.71 1740.97 L1670.25 1728.84 L1690.92 1716.84 L1711.59 1704.96 L1732.25 1693.08 L1752.80 1681.44 L1773.46 1669.69 L1794.13 1658.18 L1814.79 1646.67 L1835.34 1635.28 L1856.00 1623.90 L1876.67 1612.64 L1897.34 1601.50 L1917.88 1590.36 L1938.54 1579.22 L1959.21 1568.21 L1979.88 1557.19 L2000.42 1546.30 L2021.09 1535.41 L2041.75 1524.65 L2062.42 1513.76 L2082.96 1502.99 L2103.63 1492.35 L2124.29 1481.58 L2144.96 1470.94 L2165.50 1460.30 L2186.17 1449.53 L2206.83 1438.89 L2227.50 1428.24 L2248.04 1417.72 L2268.71 1407.08 L2289.38 1396.44 L2310.04 1385.80 L2330.58 1375.28 L2351.25 1364.63 L2371.92 1353.99 L2392.58 1343.47 L2413.13 1332.83 L2433.79 1322.31 L2454.46 1311.79 L2475.12 1301.15 L2495.67 1290.63 L2516.33 1280.11 L2537.00 1269.71 L2557.66 1259.20 L2578.21 1248.68 L2598.87 1238.28 L2619.54 1227.89 L2640.21 1217.49 L2660.75 1207.10 L2681.41 1196.70 L2702.08 1186.30 L2722.75 1176.03 L2743.29 1165.76 L2763.96 1155.49 L2784.62 1145.22 L2805.29 1135.07 L2825.83 1124.92 L2846.50 1114.77 L2867.16 1104.63 L2887.83 1094.48 L2908.37 1084.46 L2929.04 1074.43 L2949.70 1064.41 L2970.37 1054.38 L2970.37 892.88 L2949.70 903.90 L2929.04 915.04 L2908.37 926.17 L2887.83 937.31 L2867.16 948.45 L2846.50 959.46 L2825.83 970.60 L2805.29 981.74 L2784.62 992.88 L2763.96 1004.02 L2743.29 1015.03 L2722.75 1026.17 L2702.08 1037.30 L2681.41 1048.44 L2660.75 1059.58 L2640.21 1070.72 L2619.54 1081.86 L2598.87 1092.99 L2578.21 1104.13 L2557.66 1115.27 L2537.00 1126.41 L2516.33 1137.67 L2495.67 1148.81 L2475.12 1160.07 L2454.46 1171.33 L2433.79 1182.47 L2413.13 1193.73 L2392.58 1205.12 L2371.92 1216.38 L2351.25 1227.64 L2330.58 1239.02 L2310.04 1250.41 L2289.38 1261.79 L2268.71 1273.18 L2248.04 1284.69 L2227.50 1296.07 L2206.83 1307.58 L2186.17 1319.09 L2165.50 1330.73 L2144.96 1342.23 L2124.29 1353.87 L2103.63 1365.62 L2082.96 1377.26 L2062.42 1389.01 L2041.75 1400.77 L2021.09 1412.53 L2000.42 1424.41 L1979.88 1436.16 L1959.21 1448.17 L1938.54 1460.05 L1917.88 1472.05 L1897.34 1484.18 L1876.67 1496.31 L1856.00 1508.44 L1835.34 1520.56 L1814.79 1532.94 L1794.13 1545.31 L1773.46 1557.69 L1752.80 1570.19 L1732.25 1582.81 L1711.59 1595.43 L1690.92 1608.18 L1670.25 1621.18 L1649.71 1634.17 L1629.05 1647.29 L1608.38 1660.53 L1587.71 1673.89 L1567.17 1687.51 L1546.50 1701.12 L1525.84 1714.98 L1505.17 1729.09 L1484.63 1743.20 L1463.96 1757.43 L1443.30 1771.91 L1422.63 1786.39 L1402.09 1800.99 L1381.42 1815.84 L1360.76 1830.69 L1340.09 1845.67 L1319.55 1860.76 L1298.88 1875.86 L1278.21 1891.08 L1257.55 1906.30 L1237.01 1921.65 L1216.34 1937.12 L1195.67 1952.46 L1175.01 1967.93 L1154.46 1983.40 L1133.80 1998.87 L1113.13 2014.47 L1092.46 2029.93 L1071.92 2045.40 L1051.26 2061.00 L1030.59 2076.47 L1009.92 2092.06 L989.38 2107.53 L968.72 2123.00 L948.05 2138.59 L927.38 2154.06 L906.84 2169.53 L886.17 2185.12 L865.51 2200.59 L844.84 2216.18 L824.30 2231.65 L803.63 2247.12 L782.97 2262.47 L762.30 2277.94 L741.76 2293.28 L721.09 2308.50 L700.42 2323.60 L679.76 2338.70 L659.22 2353.55 L638.55 2368.28 L617.88 2382.88 L597.22 2397.11 L576.67 2411.22 L556.01 2424.96 L535.34 2438.57 L514.68 2451.94 L514.68 2460.23 Z" stroke-linejoin="round"/>
	</defs>
	<defs>
		<clipPath id="clipPath_JusxRNQW">
			<use xlink:href="#path_WGGRDvZl"/>
		</clipPath>
	</defs>
	<use xlink:href="#path_WGGRDvZl" style="stroke:none;fill:#FF3333;fill-opacity:0.25"/>
	<use xlink:href="#path_WGGRDvZl" style="fill:none;stroke:#FF0000;stroke-opacity:0.25;stroke-width:17.28" clip-path="url(#clipPath_JusxRNQW)"/>
	<defs>
		<path id="path_TFqnOHol" d="M514.68 2460.23 L514.68 2460.23 L535.34 2451.69 L556.01 2441.91 L576.67 2431.27 L597.22 2420.25 L617.88 2408.87 L638.55 2397.24 L659.22 2385.36 L679.76 2373.35 L700.42 2361.22 L721.09 2348.97 L741.76 2336.60 L762.30 2324.10 L782.97 2311.60 L803.63 2298.98 L824.30 2286.23 L844.84 2273.48 L865.51 2260.61 L886.17 2247.62 L906.84 2234.62 L927.38 2221.63 L948.05 2208.51 L968.72 2195.39 L989.38 2182.15 L1009.92 2168.91 L1030.59 2155.67 L1051.26 2142.43 L1071.92 2129.06 L1092.46 2115.70 L1113.13 2102.45 L1133.80 2089.09 L1154.46 2075.85 L1175.01 2062.61 L1195.67 2049.36 L1216.34 2036.25 L1237.01 2023.13 L1257.55 2010.13 L1278.21 1997.14 L1298.88 1984.27 L1319.55 1971.40 L1340.09 1958.65 L1360.76 1945.91 L1381.42 1933.41 L1402.09 1920.78 L1422.63 1908.41 L1443.30 1896.03 L1463.96 1883.78 L1484.63 1871.65 L1505.17 1859.53 L1525.84 1847.65 L1546.50 1835.76 L1567.17 1823.88 L1587.71 1812.25 L1608.38 1800.62 L1629.05 1789.23 L1649.71 1777.72 L1670.25 1766.46 L1690.92 1755.32 L1711.59 1744.19 L1732.25 1733.17 L1752.80 1722.16 L1773.46 1711.27 L1794.13 1700.50 L1814.79 1689.74 L1835.34 1679.09 L1856.00 1668.45 L1876.67 1657.93 L1897.34 1647.54 L1917.88 1637.02 L1938.54 1626.74 L1959.21 1616.35 L1979.88 1606.08 L2000.42 1595.93 L2021.09 1585.66 L2041.75 1575.51 L2062.42 1565.36 L2082.96 1555.34 L2103.63 1545.31 L2124.29 1535.29 L2144.96 1525.27 L2165.50 1515.24 L2186.17 1505.22 L2206.83 1495.32 L2227.50 1485.42 L2248.04 1475.39 L2268.71 1465.49 L2289.38 1455.59 L2310.04 1445.69 L2330.58 1435.79 L2351.25 1425.89 L2371.92 1415.99 L2392.58 1406.22 L2413.13 1396.31 L2433.79 1386.41 L2454.46 1376.64 L2475.12 1366.86 L2495.67 1357.08 L2516.33 1347.18 L2537.00 1337.41 L2557.66 1327.76 L2578.21 1317.98 L2598.87 1308.20 L2619.54 1298.55 L2640.21 1288.77 L2660.75 1279.12 L2681.41 1269.47 L2702.08 1259.81 L2722.75 1250.16 L2743.29 1240.51 L2763.96 1230.98 L2784.62 1221.33 L2805.29 1211.80 L2825.83 1202.27 L2846.50 1192.74 L2867.16 1183.21 L2887.83 1173.68 L2908.37 1164.28 L2929.04 1154.75 L2949.70 1145.34 L2970.37 1135.94 L2970.37 732.25 L2949.70 744.38 L2929.04 756.63 L2908.37 768.88 L2887.83 781.26 L2867.16 793.51 L2846.50 805.76 L2825.83 818.01 L2805.29 830.39 L2784.62 842.64 L2763.96 855.02 L2743.29 867.27 L2722.75 879.64 L2702.08 892.02 L2681.41 904.39 L2660.75 916.77 L2640.21 929.14 L2619.54 941.52 L2598.87 954.02 L2578.21 966.39 L2557.66 978.89 L2537.00 991.27 L2516.33 1003.77 L2495.67 1016.27 L2475.12 1028.77 L2454.46 1041.27 L2433.79 1053.89 L2413.13 1066.39 L2392.58 1079.01 L2371.92 1091.63 L2351.25 1104.26 L2330.58 1116.88 L2310.04 1129.50 L2289.38 1142.12 L2268.71 1154.87 L2248.04 1167.62 L2227.50 1180.36 L2206.83 1193.11 L2186.17 1205.86 L2165.50 1218.73 L2144.96 1231.60 L2124.29 1244.47 L2103.63 1257.34 L2082.96 1270.33 L2062.42 1283.33 L2041.75 1296.32 L2021.09 1309.44 L2000.42 1322.56 L1979.88 1335.68 L1959.21 1348.92 L1938.54 1362.16 L1917.88 1375.52 L1897.34 1388.89 L1876.67 1402.38 L1856.00 1415.87 L1835.34 1429.48 L1814.79 1443.09 L1794.13 1456.83 L1773.46 1470.69 L1752.80 1484.55 L1732.25 1498.54 L1711.59 1512.64 L1690.92 1526.88 L1670.25 1541.23 L1649.71 1555.71 L1629.05 1570.31 L1608.38 1585.04 L1587.71 1599.89 L1567.17 1614.86 L1546.50 1630.09 L1525.84 1645.43 L1505.17 1660.90 L1484.63 1676.49 L1463.96 1692.21 L1443.30 1708.17 L1422.63 1724.14 L1402.09 1740.35 L1381.42 1756.56 L1360.76 1773.02 L1340.09 1789.48 L1319.55 1806.06 L1298.88 1822.77 L1278.21 1839.48 L1257.55 1856.31 L1237.01 1873.26 L1216.34 1890.22 L1195.67 1907.29 L1175.01 1924.37 L1154.46 1941.45 L1133.80 1958.53 L1113.13 1975.61 L1092.46 1992.81 L1071.92 2009.89 L1051.26 2027.09 L1030.59 2044.17 L1009.92 2061.24 L989.38 2078.32 L968.72 2095.40 L948.05 2112.35 L927.38 2129.43 L906.84 2146.39 L886.17 2163.47 L865.51 2180.42 L844.84 2197.25 L824.30 2214.20 L803.63 2231.03 L782.97 2247.74 L762.30 2264.45 L741.76 2281.16 L721.09 2297.61 L700.42 2314.07 L679.76 2330.29 L659.22 2346.37 L638.55 2362.34 L617.88 2377.93 L597.22 2393.28 L576.67 2408.37 L556.01 2422.98 L535.34 2437.33 L514.68 2451.44 L514.68 2460.23 Z" stroke-linejoin="round"/>
	</defs>
	<defs>
		<clipPath id="clipPath_lFBrIcDC">
			<use xlink:href="#path_TFqnOHol"/>
		</clipPath>
	</defs>
	<use xlink:href="#path_TFqnOHol" style="stroke:none;fill:#3333FF;fill-opacity:0.25"/>
	<use xlink:href="#path_TFqnOHol" style="fill:none;stroke:#0000FF;stroke-opacity:0.25;stroke-width:17.28" clip-path="url(#clipPath_lFBrIcDC)"/>
	<path d=" M494.01 2465.92 L514.68 2457.13 L535.34 2446.24 L555.88 2434.49 L576.55 2422.11 L597.22 2409.49 L617.88 2396.49 L638.43 2383.13 L659.09 2369.76 L679.76 2356.03 L700.42 2342.29 L720.97 2328.31 L741.63 2314.32 L762.30 2300.21 L782.97 2285.98 L803.51 2271.63 L824.17 2257.27 L844.84 2242.92 L865.51 2228.44 L886.05 2213.83 L906.72 2199.23 L927.38 2184.63 L948.05 2170.02 L968.59 2155.30 L989.26 2140.57 L1009.92 2125.84 L1030.59 2111.12 L1051.13 2096.27 L1071.80 2081.42 L1092.46 2066.57 L1113.13 2051.84 L1133.67 2036.99 L1154.34 2022.14 L1175.01 2007.41 L1195.67 1992.68 L1216.21 1977.96 L1236.88 1963.36 L1257.55 1948.75 L1278.21 1934.27 L1298.76 1919.92 L1319.42 1905.56 L1340.09 1891.21 L1360.76 1876.97 L1381.30 1862.99 L1401.96 1848.88 L1422.63 1835.02 L1443.30 1821.16 L1463.84 1807.55 L1484.51 1793.94 L1505.17 1780.45 L1525.84 1767.08 L1546.38 1753.84 L1567.05 1740.72 L1587.71 1727.73 L1608.38 1714.86 L1628.92 1702.11 L1649.59 1689.36 L1670.25 1676.86 L1690.92 1664.49 L1711.46 1652.11 L1732.13 1639.86 L1752.80 1627.73 L1773.46 1615.61 L1794.00 1603.60 L1814.67 1591.72 L1835.34 1579.84 L1856.00 1568.09 L1876.55 1556.33 L1897.21 1544.70 L1917.88 1533.19 L1938.54 1521.55 L1959.09 1510.17 L1979.75 1498.66 L2000.42 1487.27 L2021.09 1475.89 L2041.63 1464.63 L2062.29 1453.37 L2082.96 1442.10 L2103.63 1430.97 L2124.17 1419.70 L2144.84 1408.57 L2165.50 1397.55 L2186.17 1386.41 L2206.71 1375.28 L2227.38 1364.26 L2248.04 1353.25 L2268.71 1342.23 L2289.25 1331.22 L2309.92 1320.21 L2330.58 1309.19 L2351.25 1298.18 L2371.79 1287.29 L2392.46 1276.27 L2413.13 1265.38 L2433.79 1254.49 L2454.33 1243.60 L2475.00 1232.71 L2495.67 1221.82 L2516.33 1210.93 L2536.88 1200.17 L2557.54 1189.27 L2578.21 1178.51 L2598.87 1167.74 L2619.42 1156.97 L2640.08 1146.21 L2660.75 1135.44 L2681.41 1124.68 L2701.96 1113.91 L2722.62 1103.27 L2743.29 1092.50 L2763.96 1081.86 L2784.50 1071.21 L2805.16 1060.57 L2825.83 1049.93 L2846.50 1039.28 L2867.04 1028.64 L2887.71 1018.12 L2908.37 1007.48 L2929.04 996.96 L2949.58 986.44 L2970.25 975.80" stroke-linejoin="round" style="fill:none;stroke:#FF0000;stroke-width:8.64"/>
	<path d=" M494.01 2465.92 L514.68 2456.89 L535.34 2445.87 L555.88 2433.87 L576.55 2421.37 L597.22 2408.37 L617.88 2395.13 L638.43 2381.64 L659.09 2367.91 L679.76 2353.92 L700.42 2339.94 L720.97 2325.71 L741.63 2311.35 L762.30 2297.00 L782.97 2282.52 L803.51 2267.91 L824.17 2253.31 L844.84 2238.58 L865.51 2223.86 L886.05 2209.01 L906.72 2194.16 L927.38 2179.31 L948.05 2164.33 L968.59 2149.36 L989.26 2134.38 L1009.92 2119.28 L1030.59 2104.19 L1051.13 2089.21 L1071.80 2074.11 L1092.46 2058.89 L1113.13 2043.80 L1133.67 2028.70 L1154.34 2013.72 L1175.01 1998.62 L1195.67 1983.65 L1216.21 1968.68 L1236.88 1953.70 L1257.55 1938.85 L1278.21 1924.13 L1298.76 1909.40 L1319.42 1894.80 L1340.09 1880.19 L1360.76 1865.71 L1381.30 1851.36 L1401.96 1837.13 L1422.63 1822.89 L1443.30 1808.91 L1463.84 1794.93 L1484.51 1781.07 L1505.17 1767.33 L1525.84 1753.72 L1546.38 1740.23 L1567.05 1726.86 L1587.71 1713.62 L1608.38 1700.50 L1628.92 1687.38 L1649.59 1674.51 L1670.25 1661.77 L1690.92 1649.14 L1711.46 1636.52 L1732.13 1624.02 L1752.80 1611.65 L1773.46 1599.39 L1794.00 1587.14 L1814.67 1575.02 L1835.34 1562.89 L1856.00 1550.88 L1876.55 1539.00 L1897.21 1527.12 L1917.88 1515.24 L1938.54 1503.49 L1959.09 1491.85 L1979.75 1480.22 L2000.42 1468.59 L2021.09 1457.08 L2041.63 1445.45 L2062.29 1434.06 L2082.96 1422.55 L2103.63 1411.17 L2124.17 1399.78 L2144.84 1388.39 L2165.50 1377.13 L2186.17 1365.75 L2206.71 1354.49 L2227.38 1343.22 L2248.04 1331.96 L2268.71 1320.70 L2289.25 1309.56 L2309.92 1298.30 L2330.58 1287.16 L2351.25 1275.90 L2371.79 1264.76 L2392.46 1253.63 L2413.13 1242.49 L2433.79 1231.35 L2454.33 1220.21 L2475.00 1209.20 L2495.67 1198.06 L2516.33 1187.05 L2536.88 1176.03 L2557.54 1165.02 L2578.21 1154.00 L2598.87 1142.99 L2619.42 1131.98 L2640.08 1120.96 L2660.75 1110.07 L2681.41 1099.06 L2701.96 1088.17 L2722.62 1077.28 L2743.29 1066.39 L2763.96 1055.50 L2784.50 1044.61 L2805.16 1033.84 L2825.83 1022.95 L2846.50 1012.18 L2867.04 1001.29 L2887.71 990.53 L2908.37 979.76 L2929.04 968.99 L2949.58 958.23 L2970.25 947.46" stroke-linejoin="round" style="fill:none;stroke:#0000FF;stroke-width:8.64"/>
	<line x1="430.77" y1="2529.28" x2="430.77" y2="235.38" style="stroke:#000000;stroke-width:5.76"/>
	<line x1="430.77" y1="2465.92" x2="390.80" y2="2465.92" style="stroke:#000000;stroke-width:5.76"/>
	<text x="370.75" y="2493.93" style="font-family:'Helvetica';font-size:79.94px;fill:#000000" text-anchor="end">0.0</text>
	<line x1="430.77" y1="2249.23" x2="390.80" y2="2249.23" style="stroke:#000000;stroke-width:5.76"/>
	<text x="370.75" y="2277.24" style="font-family:'Helvetica';font-size:79.94px;fill:#000000" text-anchor="end">0.1</text>
	<line x1="430.77" y1="2032.41" x2="390.80" y2="2032.41" style="stroke:#000000;stroke-width:5.76"/>
	<text x="370.75" y="2060.42" style="font-family:'Helvetica';font-size:79.94px;fill:#000000" text-anchor="end">0.2</text>
	<line x1="430.77" y1="1815.72" x2="390.80" y2="1815.72" style="stroke:#000000;stroke-width:5.76"/>
	<text x="370.75" y="1843.73" style="font-family:'Helvetica';font-size:79.94px;fill:#000000" text-anchor="end">0.3</text>
	<line x1="430.77" y1="1599.02" x2="390.80" y2="1599.02" style="stroke:#000000;stroke-width:5.76"/>
	<text x="370.75" y="1627.04" style="font-family:'Helvetica';font-size:79.94px;fill:#000000" text-anchor="end">0.4</text>
	<line x1="430.77" y1="1382.33" x2="390.80" y2="1382.33" style="stroke:#000000;stroke-width:5.76"/>
	<text x="370.75" y="1410.34" style="font-family:'Helvetica';font-size:79.94px;fill:#000000" text-anchor="end">0.5</text>
	<line x1="430.77" y1="1165.64" x2="390.80" y2="1165.64" style="stroke:#000000;stroke-width:5.76"/>
	<text x="370.75" y="1193.65" style="font-family:'Helvetica';font-size:79.94px;fill:#000000" text-anchor="end">0.6</text>
	<line x1="430.77" y1="948.82" x2="390.80" y2="948.82" style="stroke:#000000;stroke-width:5.76"/>
	<text x="370.75" y="976.83" style="font-family:'Helvetica';font-size:79.94px;fill:#000000" text-anchor="end">0.7</text>
	<line x1="430.77" y1="732.13" x2="390.80" y2="732.13" style="stroke:#000000;stroke-width:5.76"/>
	<text x="370.75" y="760.14" style="font-family:'Helvetica';font-size:79.94px;fill:#000000" text-anchor="end">0.8</text>
	<line x1="430.77" y1="515.43" x2="390.80" y2="515.43" style="stroke:#000000;stroke-width:5.76"/>
	<text x="370.75" y="543.45" style="font-family:'Helvetica';font-size:79.94px;fill:#000000" text-anchor="end">0.9</text>
	<line x1="430.77" y1="298.74" x2="390.80" y2="298.74" style="stroke:#000000;stroke-width:5.76"/>
	<text x="370.75" y="326.75" style="font-family:'Helvetica';font-size:79.94px;fill:#000000" text-anchor="end">1.0</text>
	<text x="190.71" y="1382.33" style="font-family:'Helvetica';font-size:99.99px;fill:#000000" transform="rotate(-90 190.71,1382.33)" text-anchor="middle">Cumulative incidence (%)</text>
	<line x1="430.77" y1="2529.28" x2="3859.02" y2="2529.28" style="stroke:#000000;stroke-width:5.76"/>
	<line x1="494.13" y1="2529.28" x2="494.13" y2="2569.25" style="stroke:#000000;stroke-width:5.76"/>
	<text x="494.13" y="2645.20" style="font-family:'Helvetica';font-size:79.94px;fill:#000000" text-anchor="middle">0</text>
	<line x1="906.84" y1="2529.28" x2="906.84" y2="2569.25" style="stroke:#000000;stroke-width:5.76"/>
	<text x="906.84" y="2645.20" style="font-family:'Helvetica';font-size:79.94px;fill:#000000" text-anchor="middle">20</text>
	<line x1="1319.55" y1="2529.28" x2="1319.55" y2="2569.25" style="stroke:#000000;stroke-width:5.76"/>
	<text x="1319.55" y="2645.20" style="font-family:'Helvetica';font-size:79.94px;fill:#000000" text-anchor="middle">40</text>
	<line x1="1732.25" y1="2529.28" x2="1732.25" y2="2569.25" style="stroke:#000000;stroke-width:5.76"/>
	<text x="1732.25" y="2645.20" style="font-family:'Helvetica';font-size:79.94px;fill:#000000" text-anchor="middle">60</text>
	<line x1="2144.96" y1="2529.28" x2="2144.96" y2="2569.25" style="stroke:#000000;stroke-width:5.76"/>
	<text x="2144.96" y="2645.20" style="font-family:'Helvetica';font-size:79.94px;fill:#000000" text-anchor="middle">80</text>
	<line x1="2557.66" y1="2529.28" x2="2557.66" y2="2569.25" style="stroke:#000000;stroke-width:5.76"/>
	<text x="2557.66" y="2645.20" style="font-family:'Helvetica';font-size:79.94px;fill:#000000" text-anchor="middle">100</text>
	<line x1="2970.37" y1="2529.28" x2="2970.37" y2="2569.25" style="stroke:#000000;stroke-width:5.76"/>
	<text x="2970.37" y="2645.20" style="font-family:'Helvetica';font-size:79.94px;fill:#000000" text-anchor="middle">120</text>
	<line x1="3383.08" y1="2529.28" x2="3383.08" y2="2569.25" style="stroke:#000000;stroke-width:5.76"/>
	<text x="3383.08" y="2645.20" style="font-family:'Helvetica';font-size:79.94px;fill:#000000" text-anchor="middle">140</text>
	<line x1="3795.78" y1="2529.28" x2="3795.78" y2="2569.25" style="stroke:#000000;stroke-width:5.76"/>
	<text x="3795.78" y="2645.20" style="font-family:'Helvetica';font-size:79.94px;fill:#000000" text-anchor="middle">160</text>
	<text x="2144.96" y="2735.17" style="font-family:'Helvetica';font-size:79.94px;fill:#000000" text-anchor="middle">Days since 1 Mar 2020</text>
	<rect x="465.30" y="269.91" width="917.48" height="326.46" style="fill:#FFFFFF"/>
	<rect x="468.18" y="272.79" width="911.72" height="320.70" style="fill:none;stroke:#EAF2F3;stroke-width:5.76"/>
	<rect x="508.49" y="313.10" width="374.34" height="99.99" style="fill:#FF3333;fill-opacity:0.25"/>
	<rect x="512.81" y="317.42" width="365.70" height="91.35" style="fill:none;stroke:#FF0000;stroke-opacity:0.25;stroke-width:8.64"/>
	<rect x="508.49" y="453.06" width="374.34" height="99.99" style="fill:#3333FF;fill-opacity:0.25"/>
	<rect x="512.81" y="457.38" width="365.70" height="91.35" style="fill:none;stroke:#0000FF;stroke-opacity:0.25;stroke-width:8.64"/>
	<text x="942.85" y="398.12" style="font-family:'Helvetica';font-size:99.99px;fill:#000000">No HCQ</text>
	<text x="942.85" y="538.09" style="font-family:'Helvetica';font-size:99.99px;fill:#000000">HCQ</text>
	<text x="1272.89" y="187.99" style="font-family:'Helvetica';font-size:99.99px;fill:#1E2D53">Time to Non COVID-19 Death in ONS</text>
</svg>
