<?xml version="1.0" encoding="UTF-8" standalone="no"?>
<!-- This is a Stata 16.1 generated SVG file (http://www.stata.com) -->

<svg version="1.1" width="5.50in" height="4.00in" viewBox="0 0 3960 2880" xmlns="http://www.w3.org/2000/svg" xmlns:xlink="http://www.w3.org/1999/xlink">
	<desc>Stata Graph - Graph</desc>
	<rect x="0" y="0" width="3960" height="2880" style="fill:#EAF2F3;stroke:none"/>
	<rect x="0.00" y="0.00" width="3959.88" height="2880.00" style="fill:#FFFFFF"/>
	<rect x="2.88" y="2.88" width="3954.12" height="2874.24" style="fill:none;stroke:#EAF2F3;stroke-width:5.76"/>
	<rect x="619.12" y="490.93" width="3221.71" height="1818.32" style="fill:#FFFFFF"/>
	<rect x="622.00" y="493.81" width="3215.95" height="1812.56" style="fill:none;stroke:#FFFFFF;stroke-width:5.76"/>
	<line x1="619.12" y1="2245.89" x2="3840.83" y2="2245.89" style="stroke:#EAF2F3;stroke-width:8.64"/>
	<line x1="619.12" y1="2076.71" x2="3840.83" y2="2076.71" style="stroke:#EAF2F3;stroke-width:8.64"/>
	<line x1="619.12" y1="1907.54" x2="3840.83" y2="1907.54" style="stroke:#EAF2F3;stroke-width:8.64"/>
	<line x1="619.12" y1="1738.37" x2="3840.83" y2="1738.37" style="stroke:#EAF2F3;stroke-width:8.64"/>
	<line x1="619.12" y1="1569.20" x2="3840.83" y2="1569.20" style="stroke:#EAF2F3;stroke-width:8.64"/>
	<line x1="619.12" y1="1400.03" x2="3840.83" y2="1400.03" style="stroke:#EAF2F3;stroke-width:8.64"/>
	<line x1="619.12" y1="1230.86" x2="3840.83" y2="1230.86" style="stroke:#EAF2F3;stroke-width:8.64"/>
	<line x1="619.12" y1="1061.68" x2="3840.83" y2="1061.68" style="stroke:#EAF2F3;stroke-width:8.64"/>
	<line x1="619.12" y1="892.51" x2="3840.83" y2="892.51" style="stroke:#EAF2F3;stroke-width:8.64"/>
	<line x1="619.12" y1="723.47" x2="3840.83" y2="723.47" style="stroke:#EAF2F3;stroke-width:8.64"/>
	<line x1="619.12" y1="554.29" x2="3840.83" y2="554.29" style="stroke:#EAF2F3;stroke-width:8.64"/>
	<path d=" M682.48 2246.01 L682.48 2246.01 L682.48 2246.01 L701.79 2246.01 L701.79 2228.44 L721.09 2228.44 L721.09 2210.86 L740.52 2210.86 L740.52 2199.48 L759.83 2199.48 L759.83 2186.98 L779.13 2186.98 L779.13 2170.52 L798.56 2170.52 L798.56 2151.83 L817.86 2151.83 L817.86 2139.46 L837.17 2139.46 L837.17 2121.88 L856.60 2121.88 L856.60 2102.21 L875.90 2102.21 L875.90 2088.72 L895.21 2088.72 L895.21 2079.44 L914.64 2079.44 L914.64 2064.83 L933.94 2064.83 L933.94 2043.05 L953.25 2043.05 L953.25 2025.48 L972.55 2025.48 L972.55 2009.89 L991.98 2009.89 L991.98 1992.31 L1011.28 1992.31 L1011.28 1976.72 L1030.59 1976.72 L1030.59 1961.25 L1050.02 1961.25 L1050.02 1946.65 L1069.32 1946.65 L1069.32 1936.25 L1088.63 1936.25 L1088.63 1925.86 L1108.06 1925.86 L1108.06 1910.26 L1127.36 1910.26 L1127.36 1892.57 L1146.67 1892.57 L1146.67 1875.98 L1166.10 1875.98 L1166.10 1860.39 L1185.40 1860.39 L1185.40 1841.58 L1204.71 1841.58 L1204.71 1821.90 L1224.01 1821.90 L1224.01 1798.89 L1243.44 1798.89 L1243.44 1782.30 L1262.74 1782.30 L1262.74 1762.50 L1282.05 1762.50 L1282.05 1756.19 L1301.48 1756.19 L1301.48 1736.39 L1320.78 1736.39 L1320.78 1722.90 L1340.09 1722.90 L1340.09 1706.19 L1359.52 1706.19 L1359.52 1686.39 L1378.82 1686.39 L1378.82 1672.78 L1398.13 1672.78 L1398.13 1661.40 L1417.56 1661.40 L1417.56 1651.99 L1436.86 1651.99 L1436.86 1631.08 L1456.17 1631.08 L1456.17 1615.36 L1475.47 1615.36 L1475.47 1597.66 L1494.90 1597.66 L1494.90 1577.74 L1514.20 1577.74 L1514.20 1563.14 L1533.51 1563.14 L1533.51 1554.84 L1552.94 1554.84 L1552.94 1536.03 L1572.24 1536.03 L1572.24 1518.21 L1591.55 1518.21 L1591.55 1501.51 L1610.98 1501.51 L1610.98 1487.89 L1630.28 1487.89 L1630.28 1474.28 L1649.59 1474.28 L1649.59 1461.78 L1669.02 1461.78 L1669.02 1447.05 L1688.32 1447.05 L1688.32 1423.05 L1707.63 1423.05 L1707.63 1404.24 L1727.06 1404.24 L1727.06 1387.40 L1746.36 1387.40 L1746.36 1369.58 L1765.66 1369.58 L1765.66 1360.18 L1784.97 1360.18 L1784.97 1350.77 L1804.40 1350.77 L1804.40 1341.37 L1823.70 1341.37 L1823.70 1338.27 L1843.01 1338.27 L1843.01 1325.65 L1862.44 1325.65 L1862.44 1315.13 L1881.74 1315.13 L1881.74 1302.63 L1901.05 1302.63 L1901.05 1286.79 L1920.48 1286.79 L1920.48 1272.19 L1939.78 1272.19 L1939.78 1252.27 L1959.09 1252.27 L1959.09 1237.54 L1978.52 1237.54 L1978.52 1220.71 L1997.82 1220.71 L1997.82 1207.10 L2017.13 1207.10 L2017.13 1192.37 L2036.43 1192.37 L2036.43 1178.76 L2055.86 1178.76 L2055.86 1169.35 L2075.16 1169.35 L2075.16 1157.72 L2094.47 1157.72 L2094.47 1148.31 L2113.90 1148.31 L2113.90 1131.48 L2133.20 1131.48 L2133.20 1118.98 L2152.51 1118.98 L2152.51 1106.36 L2171.94 1106.36 L2171.94 1100.05 L2191.24 1100.05 L2191.24 1085.32 L2210.55 1085.32 L2210.55 1071.71 L2229.97 1071.71 L2229.97 1059.09 L2249.28 1059.09 L2249.28 1041.14 L2268.59 1041.14 L2268.59 1038.05 L2287.89 1038.05 L2287.89 1029.63 L2307.32 1029.63 L2307.32 1018.00 L2326.62 1018.00 L2326.62 1003.27 L2345.93 1003.27 L2345.93 991.76 L2365.36 991.76 L2365.36 977.04 L2384.66 977.04 L2384.66 965.53 L2403.97 965.53 L2403.97 953.89 L2423.40 953.89 L2423.40 942.39 L2442.70 942.39 L2442.70 933.97 L2462.01 933.97 L2462.01 928.65 L2481.43 928.65 L2481.43 919.24 L2500.74 919.24 L2500.74 900.19 L2520.05 900.19 L2520.05 889.67 L2539.35 889.67 L2539.35 877.04 L2558.78 877.04 L2558.78 869.74 L2578.08 869.74 L2578.08 852.91 L2597.39 852.91 L2597.39 845.49 L2616.82 845.49 L2616.82 829.77 L2636.12 829.77 L2636.12 821.35 L2655.43 821.35 L2655.43 806.50 L2674.86 806.50 L2674.86 798.09 L2694.16 798.09 L2694.16 789.67 L2713.47 789.67 L2713.47 781.26 L2732.89 781.26 L2732.89 769.75 L2752.20 769.75 L2752.20 758.12 L2771.51 758.12 L2771.51 747.60 L2790.81 747.60 L2790.81 737.08 L2810.24 737.08 L2810.24 723.34 L2829.54 723.34 L2829.54 713.81 L2848.85 713.81 L2848.85 708.61 L2868.28 708.61 L2868.28 696.98" stroke-linejoin="round" style="fill:none;stroke:#1A476F;stroke-width:8.64"/>
	<path d=" M682.48 2246.01 L682.48 2246.01 L682.48 2246.01 L701.79 2246.01 L701.79 2240.44 L721.09 2240.44 L721.09 2234.87 L740.52 2234.87 L740.52 2223.73 L759.83 2223.73 L759.83 2207.15 L779.13 2207.15 L779.13 2196.01 L798.56 2196.01 L798.56 2173.86 L817.86 2173.86 L817.86 2162.72 L837.17 2162.72 L837.17 2157.28 L875.90 2157.28 L875.90 2151.71 L895.21 2151.71 L895.21 2146.14 L914.64 2146.14 L914.64 2140.57 L933.94 2140.57 L933.94 2135.00 L953.25 2135.00 L953.25 2118.42 L972.55 2118.42 L972.55 2101.71 L991.98 2101.71 L991.98 2096.27 L1011.28 2096.27 L1011.28 2090.70 L1050.02 2090.70 L1050.02 2085.13 L1069.32 2085.13 L1069.32 2079.56 L1088.63 2079.56 L1088.63 2068.42 L1127.36 2068.42 L1127.36 2057.41 L1146.67 2057.41 L1146.67 2057.41 L1166.10 2057.41 L1166.10 2051.84 L1185.40 2051.84 L1185.40 2046.27 L1204.71 2046.27 L1204.71 2029.69 L1224.01 2029.69 L1224.01 2018.55 L1243.44 2018.55 L1243.44 2018.55 L1262.74 2018.55 L1262.74 2001.97 L1282.05 2001.97 L1282.05 1979.69 L1301.48 1979.69 L1301.48 1963.11 L1320.78 1963.11 L1320.78 1957.54 L1340.09 1957.54 L1340.09 1946.40 L1359.52 1946.40 L1359.52 1940.83 L1378.82 1940.83 L1378.82 1924.25 L1398.13 1924.25 L1398.13 1913.11 L1417.56 1913.11 L1417.56 1907.54 L1436.86 1907.54 L1436.86 1879.82 L1456.17 1879.82 L1456.17 1868.81 L1475.47 1868.81 L1475.47 1868.81 L1494.90 1868.81 L1494.90 1840.96 L1514.20 1840.96 L1514.20 1818.81 L1533.51 1818.81 L1533.51 1807.67 L1552.94 1807.67 L1552.94 1779.95 L1572.24 1779.95 L1572.24 1752.23 L1591.55 1752.23 L1591.55 1752.23 L1610.98 1752.23 L1610.98 1735.52 L1630.28 1735.52 L1630.28 1718.82 L1649.59 1718.82 L1649.59 1702.23 L1669.02 1702.23 L1669.02 1691.10 L1688.32 1691.10 L1688.32 1679.96 L1707.63 1679.96 L1707.63 1674.39 L1727.06 1674.39 L1727.06 1663.38 L1746.36 1663.38 L1746.36 1652.24 L1784.97 1652.24 L1784.97 1629.96 L1804.40 1629.96 L1804.40 1613.38 L1823.70 1613.38 L1823.70 1596.67 L1843.01 1596.67 L1843.01 1585.53 L1862.44 1585.53 L1862.44 1574.52 L1881.74 1574.52 L1881.74 1568.95 L1901.05 1568.95 L1901.05 1557.81 L1920.48 1557.81 L1920.48 1546.68 L1939.78 1546.68 L1939.78 1546.68 L1959.09 1546.68 L1959.09 1541.11 L1978.52 1541.11 L1978.52 1529.97 L1997.82 1529.97 L1997.82 1529.97 L2017.13 1529.97 L2017.13 1513.39 L2036.43 1513.39 L2036.43 1496.68 L2075.16 1496.68 L2075.16 1485.54 L2113.90 1485.54 L2113.90 1479.97 L2133.20 1479.97 L2133.20 1468.96 L2152.51 1468.96 L2152.51 1463.39 L2171.94 1463.39 L2171.94 1441.11 L2191.24 1441.11 L2191.24 1435.54 L2210.55 1435.54 L2210.55 1424.41 L2229.97 1424.41 L2229.97 1418.96 L2249.28 1418.96 L2249.28 1418.96 L2268.59 1418.96 L2268.59 1407.82 L2287.89 1407.82 L2287.89 1396.69 L2307.32 1396.69 L2307.32 1385.55 L2326.62 1385.55 L2326.62 1368.84 L2345.93 1368.84 L2345.93 1363.27 L2384.66 1363.27 L2384.66 1346.69 L2403.97 1346.69 L2403.97 1335.55 L2462.01 1335.55 L2462.01 1329.98 L2481.43 1329.98 L2481.43 1318.84 L2500.74 1318.84 L2500.74 1313.28 L2520.05 1313.28 L2520.05 1296.57 L2539.35 1296.57 L2539.35 1279.99 L2558.78 1279.99 L2558.78 1268.85 L2578.08 1268.85 L2578.08 1246.57 L2597.39 1246.57 L2597.39 1241.00 L2616.82 1241.00 L2616.82 1235.43 L2674.86 1235.43 L2674.86 1229.99 L2713.47 1229.99 L2713.47 1224.42 L2732.89 1224.42 L2732.89 1207.71 L2752.20 1207.71 L2752.20 1185.44 L2790.81 1185.44 L2790.81 1179.87 L2810.24 1179.87 L2810.24 1163.29 L2848.85 1163.29 L2848.85 1157.72 L2868.28 1157.72 L2868.28 1141.01" stroke-linejoin="round" style="fill:none;stroke:#90353B;stroke-width:8.64"/>
	<line x1="619.12" y1="2309.25" x2="619.12" y2="490.93" style="stroke:#000000;stroke-width:5.76"/>
	<line x1="619.12" y1="2245.89" x2="579.15" y2="2245.89" style="stroke:#000000;stroke-width:5.76"/>
	<text x="559.23" y="2273.90" style="font-family:'Helvetica';font-size:79.94px;fill:#000000" text-anchor="end">0.000</text>
	<line x1="619.12" y1="2076.71" x2="579.15" y2="2076.71" style="stroke:#000000;stroke-width:5.76"/>
	<text x="559.23" y="2104.73" style="font-family:'Helvetica';font-size:79.94px;fill:#000000" text-anchor="end">0.001</text>
	<line x1="619.12" y1="1907.54" x2="579.15" y2="1907.54" style="stroke:#000000;stroke-width:5.76"/>
	<text x="559.23" y="1935.55" style="font-family:'Helvetica';font-size:79.94px;fill:#000000" text-anchor="end">0.002</text>
	<line x1="619.12" y1="1738.37" x2="579.15" y2="1738.37" style="stroke:#000000;stroke-width:5.76"/>
	<text x="559.23" y="1766.38" style="font-family:'Helvetica';font-size:79.94px;fill:#000000" text-anchor="end">0.003</text>
	<line x1="619.12" y1="1569.20" x2="579.15" y2="1569.20" style="stroke:#000000;stroke-width:5.76"/>
	<text x="559.23" y="1597.21" style="font-family:'Helvetica';font-size:79.94px;fill:#000000" text-anchor="end">0.004</text>
	<line x1="619.12" y1="1400.03" x2="579.15" y2="1400.03" style="stroke:#000000;stroke-width:5.76"/>
	<text x="559.23" y="1428.04" style="font-family:'Helvetica';font-size:79.94px;fill:#000000" text-anchor="end">0.005</text>
	<line x1="619.12" y1="1230.86" x2="579.15" y2="1230.86" style="stroke:#000000;stroke-width:5.76"/>
	<text x="559.23" y="1258.87" style="font-family:'Helvetica';font-size:79.94px;fill:#000000" text-anchor="end">0.006</text>
	<line x1="619.12" y1="1061.68" x2="579.15" y2="1061.68" style="stroke:#000000;stroke-width:5.76"/>
	<text x="559.23" y="1089.70" style="font-family:'Helvetica';font-size:79.94px;fill:#000000" text-anchor="end">0.007</text>
	<line x1="619.12" y1="892.51" x2="579.15" y2="892.51" style="stroke:#000000;stroke-width:5.76"/>
	<text x="559.23" y="920.52" style="font-family:'Helvetica';font-size:79.94px;fill:#000000" text-anchor="end">0.008</text>
	<line x1="619.12" y1="723.47" x2="579.15" y2="723.47" style="stroke:#000000;stroke-width:5.76"/>
	<text x="559.23" y="751.48" style="font-family:'Helvetica';font-size:79.94px;fill:#000000" text-anchor="end">0.009</text>
	<line x1="619.12" y1="554.29" x2="579.15" y2="554.29" style="stroke:#000000;stroke-width:5.76"/>
	<text x="559.23" y="582.31" style="font-family:'Helvetica';font-size:79.94px;fill:#000000" text-anchor="end">0.010</text>
	<text x="682.48" y="2747.83" style="font-family:'Helvetica';font-size:60.02px;fill:#000000" text-anchor="middle">30501</text>
	<text x="1069.45" y="2747.83" style="font-family:'Helvetica';font-size:60.02px;fill:#000000" text-anchor="middle">30471</text>
	<text x="1456.29" y="2747.83" style="font-family:'Helvetica';font-size:60.02px;fill:#000000" text-anchor="middle">30418</text>
	<text x="1843.13" y="2747.83" style="font-family:'Helvetica';font-size:60.02px;fill:#000000" text-anchor="middle">30336</text>
	<text x="2229.97" y="2747.83" style="font-family:'Helvetica';font-size:60.02px;fill:#000000" text-anchor="middle">30296</text>
	<text x="2616.82" y="2747.83" style="font-family:'Helvetica';font-size:60.02px;fill:#000000" text-anchor="middle">30254</text>
	<text x="3003.66" y="2747.83" style="font-family:'Helvetica';font-size:60.02px;fill:#000000" text-anchor="middle">0</text>
	<text x="3390.63" y="2747.83" style="font-family:'Helvetica';font-size:60.02px;fill:#000000" text-anchor="middle">0</text>
	<text x="3777.47" y="2747.83" style="font-family:'Helvetica';font-size:60.02px;fill:#000000" text-anchor="middle">0</text>
	<text x="527.79" y="2747.83" style="font-family:'Helvetica';font-size:60.02px;fill:#000000" text-anchor="end">HCQ</text>
	<text x="682.48" y="2674.44" style="font-family:'Helvetica';font-size:60.02px;fill:#000000" text-anchor="middle">163735</text>
	<text x="1069.45" y="2674.44" style="font-family:'Helvetica';font-size:60.02px;fill:#000000" text-anchor="middle">162536</text>
	<text x="1456.29" y="2674.44" style="font-family:'Helvetica';font-size:60.02px;fill:#000000" text-anchor="middle">161404</text>
	<text x="1843.13" y="2674.44" style="font-family:'Helvetica';font-size:60.02px;fill:#000000" text-anchor="middle">160525</text>
	<text x="2229.97" y="2674.44" style="font-family:'Helvetica';font-size:60.02px;fill:#000000" text-anchor="middle">159860</text>
	<text x="2616.82" y="2674.44" style="font-family:'Helvetica';font-size:60.02px;fill:#000000" text-anchor="middle">159347</text>
	<text x="3003.66" y="2674.44" style="font-family:'Helvetica';font-size:60.02px;fill:#000000" text-anchor="middle">0</text>
	<text x="3390.63" y="2674.44" style="font-family:'Helvetica';font-size:60.02px;fill:#000000" text-anchor="middle">0</text>
	<text x="3777.47" y="2674.44" style="font-family:'Helvetica';font-size:60.02px;fill:#000000" text-anchor="middle">0</text>
	<text x="527.79" y="2674.44" style="font-family:'Helvetica';font-size:60.02px;fill:#000000" text-anchor="end">No HCQ</text>
	<text x="527.79" y="2601.18" style="font-family:'Helvetica';font-size:60.02px;fill:#000000" text-anchor="end">Number at risk</text>
	<line x1="619.12" y1="2309.25" x2="3840.83" y2="2309.25" style="stroke:#000000;stroke-width:5.76"/>
	<line x1="682.48" y1="2309.25" x2="682.48" y2="2349.22" style="stroke:#000000;stroke-width:5.76"/>
	<text x="682.48" y="2425.17" style="font-family:'Helvetica';font-size:79.94px;fill:#000000" text-anchor="middle">0</text>
	<line x1="1069.45" y1="2309.25" x2="1069.45" y2="2349.22" style="stroke:#000000;stroke-width:5.76"/>
	<text x="1069.45" y="2425.17" style="font-family:'Helvetica';font-size:79.94px;fill:#000000" text-anchor="middle">20</text>
	<line x1="1456.29" y1="2309.25" x2="1456.29" y2="2349.22" style="stroke:#000000;stroke-width:5.76"/>
	<text x="1456.29" y="2425.17" style="font-family:'Helvetica';font-size:79.94px;fill:#000000" text-anchor="middle">40</text>
	<line x1="1843.13" y1="2309.25" x2="1843.13" y2="2349.22" style="stroke:#000000;stroke-width:5.76"/>
	<text x="1843.13" y="2425.17" style="font-family:'Helvetica';font-size:79.94px;fill:#000000" text-anchor="middle">60</text>
	<line x1="2229.97" y1="2309.25" x2="2229.97" y2="2349.22" style="stroke:#000000;stroke-width:5.76"/>
	<text x="2229.97" y="2425.17" style="font-family:'Helvetica';font-size:79.94px;fill:#000000" text-anchor="middle">80</text>
	<line x1="2616.82" y1="2309.25" x2="2616.82" y2="2349.22" style="stroke:#000000;stroke-width:5.76"/>
	<text x="2616.82" y="2425.17" style="font-family:'Helvetica';font-size:79.94px;fill:#000000" text-anchor="middle">100</text>
	<line x1="3003.66" y1="2309.25" x2="3003.66" y2="2349.22" style="stroke:#000000;stroke-width:5.76"/>
	<text x="3003.66" y="2425.17" style="font-family:'Helvetica';font-size:79.94px;fill:#000000" text-anchor="middle">120</text>
	<line x1="3390.63" y1="2309.25" x2="3390.63" y2="2349.22" style="stroke:#000000;stroke-width:5.76"/>
	<text x="3390.63" y="2425.17" style="font-family:'Helvetica';font-size:79.94px;fill:#000000" text-anchor="middle">140</text>
	<line x1="3777.47" y1="2309.25" x2="3777.47" y2="2349.22" style="stroke:#000000;stroke-width:5.76"/>
	<text x="3777.47" y="2425.17" style="font-family:'Helvetica';font-size:79.94px;fill:#000000" text-anchor="middle">160</text>
	<text x="2229.97" y="2515.14" style="font-family:'Helvetica';font-size:79.94px;fill:#000000" text-anchor="middle">Days since 1 Mar 2020</text>
	<rect x="1493.41" y="269.91" width="1473.12" height="186.37" style="fill:#FFFFFF"/>
	<rect x="1496.29" y="272.79" width="1467.36" height="180.61" style="fill:none;stroke:#EAF2F3;stroke-width:5.76"/>
	<line x1="1536.60" y1="363.09" x2="1910.95" y2="363.09" style="stroke:#1A476F;stroke-width:8.64"/>
	<line x1="2349.02" y1="363.09" x2="2723.37" y2="363.09" style="stroke:#90353B;stroke-width:8.64"/>
	<text x="1970.97" y="384.13" style="font-family:'Helvetica';font-size:60.02px;fill:#000000">No HCQ</text>
	<text x="2783.39" y="384.13" style="font-family:'Helvetica';font-size:60.02px;fill:#000000">HCQ</text>
	<text x="1357.91" y="187.99" style="font-family:'Helvetica';font-size:99.99px;fill:#1E2D53">Time to Non COVID-19 Death in ONS</text>
</svg>
