<?xml version="1.0" encoding="UTF-8" standalone="no"?>
<!-- This is a Stata 16.1 generated SVG file (http://www.stata.com) -->

<svg version="1.1" width="5.50in" height="4.00in" viewBox="0 0 3960 2880" xmlns="http://www.w3.org/2000/svg" xmlns:xlink="http://www.w3.org/1999/xlink">
	<desc>Stata Graph - Graph</desc>
	<rect x="0" y="0" width="3960" height="2880" style="fill:#EAF2F3;stroke:none"/>
	<rect x="0.00" y="0.00" width="3959.88" height="2880.00" style="fill:#FFFFFF"/>
	<rect x="2.88" y="2.88" width="3954.12" height="2874.24" style="fill:none;stroke:#EAF2F3;stroke-width:5.76"/>
	<rect x="619.12" y="630.90" width="3221.71" height="1678.35" style="fill:#FFFFFF"/>
	<rect x="622.00" y="633.78" width="3215.95" height="1672.59" style="fill:none;stroke:#FFFFFF;stroke-width:5.76"/>
	<line x1="619.12" y1="2245.89" x2="3840.83" y2="2245.89" style="stroke:#EAF2F3;stroke-width:8.64"/>
	<line x1="619.12" y1="2094.16" x2="3840.83" y2="2094.16" style="stroke:#EAF2F3;stroke-width:8.64"/>
	<line x1="619.12" y1="1942.56" x2="3840.83" y2="1942.56" style="stroke:#EAF2F3;stroke-width:8.64"/>
	<line x1="619.12" y1="1790.84" x2="3840.83" y2="1790.84" style="stroke:#EAF2F3;stroke-width:8.64"/>
	<line x1="619.12" y1="1639.24" x2="3840.83" y2="1639.24" style="stroke:#EAF2F3;stroke-width:8.64"/>
	<line x1="619.12" y1="1487.52" x2="3840.83" y2="1487.52" style="stroke:#EAF2F3;stroke-width:8.64"/>
	<line x1="619.12" y1="1335.80" x2="3840.83" y2="1335.80" style="stroke:#EAF2F3;stroke-width:8.64"/>
	<line x1="619.12" y1="1184.20" x2="3840.83" y2="1184.20" style="stroke:#EAF2F3;stroke-width:8.64"/>
	<line x1="619.12" y1="1032.48" x2="3840.83" y2="1032.48" style="stroke:#EAF2F3;stroke-width:8.64"/>
	<line x1="619.12" y1="880.88" x2="3840.83" y2="880.88" style="stroke:#EAF2F3;stroke-width:8.64"/>
	<line x1="619.12" y1="729.16" x2="3840.83" y2="729.16" style="stroke:#EAF2F3;stroke-width:8.64"/>
	<defs>
		<path id="path_SKxblzgN" d="M701.91 2236.11 L701.91 2236.11 L721.22 2236.11 L721.22 2223.36 L740.52 2223.36 L740.52 2214.82 L759.95 2214.82 L759.95 2205.17 L779.25 2205.17 L779.25 2192.05 L798.56 2192.05 L798.56 2177.20 L817.86 2177.20 L817.86 2167.18 L837.29 2167.18 L837.29 2152.82 L856.60 2152.82 L856.60 2136.73 L875.90 2136.73 L875.90 2125.60 L895.33 2125.60 L895.33 2117.92 L914.64 2117.92 L914.64 2105.92 L933.94 2105.92 L933.94 2087.85 L953.37 2087.85 L953.37 2073.12 L972.67 2073.12 L972.67 2061.00 L991.98 2061.00 L991.98 2046.15 L1011.41 2046.15 L1011.41 2033.03 L1030.71 2033.03 L1030.71 2019.91 L1050.02 2019.91 L1050.02 2007.66 L1069.45 2007.66 L1069.45 1998.87 L1088.75 1998.87 L1088.75 1990.09 L1108.06 1990.09 L1108.06 1976.97 L1127.36 1976.97 L1127.36 1961.87 L1146.79 1961.87 L1146.79 1947.76 L1166.10 1947.76 L1166.10 1934.52 L1185.40 1934.52 L1185.40 1918.56 L1204.83 1918.56 L1204.83 1901.73 L1224.13 1901.73 L1224.13 1882.17 L1243.44 1882.17 L1243.44 1867.94 L1262.87 1867.94 L1262.87 1850.99 L1282.17 1850.99 L1282.17 1845.67 L1301.48 1845.67 L1301.48 1828.71 L1320.91 1828.71 L1320.91 1817.08 L1340.21 1817.08 L1340.21 1802.72 L1359.52 1802.72 L1359.52 1785.77 L1378.82 1785.77 L1378.82 1774.14 L1398.25 1774.14 L1398.25 1764.24 L1417.56 1764.24 L1417.56 1756.19 L1436.86 1756.19 L1436.86 1738.25 L1456.29 1738.25 L1456.29 1724.76 L1475.60 1724.76 L1475.60 1709.41 L1494.90 1709.41 L1494.90 1692.33 L1514.33 1692.33 L1514.33 1679.71 L1533.63 1679.71 L1533.63 1672.53 L1552.94 1672.53 L1552.94 1656.32 L1572.37 1656.32 L1572.37 1640.98 L1591.67 1640.98 L1591.67 1626.50 L1610.98 1626.50 L1610.98 1614.74 L1630.28 1614.74 L1630.28 1602.12 L1649.71 1602.12 L1649.71 1591.23 L1669.02 1591.23 L1669.02 1578.60 L1688.32 1578.60 L1688.32 1557.81 L1707.75 1557.81 L1707.75 1541.48 L1727.06 1541.48 L1727.06 1527.00 L1746.36 1527.00 L1746.36 1511.53 L1765.79 1511.53 L1765.79 1503.36 L1785.09 1503.36 L1785.09 1495.19 L1804.40 1495.19 L1804.40 1487.03 L1823.83 1487.03 L1823.83 1484.30 L1843.13 1484.30 L1843.13 1473.41 L1862.44 1473.41 L1862.44 1464.38 L1881.74 1464.38 L1881.74 1453.49 L1901.17 1453.49 L1901.17 1439.75 L1920.48 1439.75 L1920.48 1426.14 L1939.78 1426.14 L1939.78 1408.81 L1959.21 1408.81 L1959.21 1396.07 L1978.52 1396.07 L1978.52 1381.46 L1997.82 1381.46 L1997.82 1369.71 L2017.25 1369.71 L2017.25 1356.84 L2036.55 1356.84 L2036.55 1345.08 L2055.86 1345.08 L2055.86 1336.79 L2075.29 1336.79 L2075.29 1326.77 L2094.59 1326.77 L2094.59 1318.60 L2113.90 1318.60 L2113.90 1303.99 L2133.20 1303.99 L2133.20 1292.98 L2152.63 1292.98 L2152.63 1282.09 L2171.94 1282.09 L2171.94 1276.52 L2191.24 1276.52 L2191.24 1263.77 L2210.67 1263.77 L2210.67 1251.89 L2229.97 1251.89 L2229.97 1240.88 L2249.28 1240.88 L2249.28 1225.41 L2268.71 1225.41 L2268.71 1222.56 L2288.01 1222.56 L2288.01 1215.26 L2307.32 1215.26 L2307.32 1205.24 L2326.75 1205.24 L2326.75 1192.37 L2346.05 1192.37 L2346.05 1182.34 L2365.36 1182.34 L2365.36 1169.47 L2384.79 1169.47 L2384.79 1159.45 L2404.09 1159.45 L2404.09 1149.30 L2423.40 1149.30 L2423.40 1139.28 L2442.70 1139.28 L2442.70 1131.85 L2462.13 1131.85 L2462.13 1127.27 L2481.43 1127.27 L2481.43 1119.11 L2500.74 1119.11 L2500.74 1102.52 L2520.17 1102.52 L2520.17 1093.37 L2539.47 1093.37 L2539.47 1082.35 L2558.78 1082.35 L2558.78 1075.92 L2578.21 1075.92 L2578.21 1061.19 L2597.51 1061.19 L2597.51 1054.75 L2616.82 1054.75 L2616.82 1041.02 L2636.25 1041.02 L2636.25 1033.72 L2655.55 1033.72 L2655.55 1020.85 L2674.86 1020.85 L2674.86 1013.42 L2694.16 1013.42 L2694.16 1005.13 L2713.59 1005.13 L2713.59 997.83 L2732.89 997.83 L2732.89 986.81 L2752.20 986.81 L2752.20 976.67 L2771.63 976.67 L2771.63 966.52 L2790.93 966.52 L2790.93 955.50 L2810.24 955.50 L2810.24 942.63 L2829.67 942.63 L2829.67 934.34 L2848.97 934.34 L2848.97 928.77 L2868.28 928.77 L2868.28 916.89 L2887.71 916.89 L2887.71 906.74 L2907.01 906.74 L2907.01 897.46 L2926.32 897.46 L2926.32 877.29 L2945.62 877.29 L2945.62 867.14 L2965.05 867.14 L2965.05 859.72 L2984.36 859.72 L2984.36 850.56 L3003.66 850.56 L3003.66 839.42 L3003.66 694.26 L3003.66 705.89 L2984.36 705.89 L2984.36 715.54 L2965.05 715.54 L2965.05 723.34 L2945.62 723.34 L2945.62 733.98 L2926.32 733.98 L2926.32 755.27 L2907.01 755.27 L2907.01 764.92 L2887.71 764.92 L2887.71 775.57 L2868.28 775.57 L2868.28 788.19 L2848.97 788.19 L2848.97 794.00 L2829.67 794.00 L2829.67 802.67 L2810.24 802.67 L2810.24 816.28 L2790.93 816.28 L2790.93 827.91 L2771.63 827.91 L2771.63 838.56 L2752.20 838.56 L2752.20 849.20 L2732.89 849.20 L2732.89 860.83 L2713.59 860.83 L2713.59 868.50 L2694.16 868.50 L2694.16 877.29 L2674.86 877.29 L2674.86 885.09 L2655.55 885.09 L2655.55 898.58 L2636.25 898.58 L2636.25 906.37 L2616.82 906.37 L2616.82 920.85 L2597.51 920.85 L2597.51 927.66 L2578.21 927.66 L2578.21 943.13 L2558.78 943.13 L2558.78 949.93 L2539.47 949.93 L2539.47 961.57 L2520.17 961.57 L2520.17 971.22 L2500.74 971.22 L2500.74 988.67 L2481.43 988.67 L2481.43 997.46 L2462.13 997.46 L2462.13 1002.28 L2442.70 1002.28 L2442.70 1009.96 L2423.40 1009.96 L2423.40 1020.72 L2404.09 1020.72 L2404.09 1031.36 L2384.79 1031.36 L2384.79 1042.01 L2365.36 1042.01 L2365.36 1055.62 L2346.05 1055.62 L2346.05 1066.26 L2326.75 1066.26 L2326.75 1079.75 L2307.32 1079.75 L2307.32 1090.40 L2288.01 1090.40 L2288.01 1098.19 L2268.71 1098.19 L2268.71 1101.16 L2249.28 1101.16 L2249.28 1117.62 L2229.97 1117.62 L2229.97 1129.25 L2210.67 1129.25 L2210.67 1141.88 L2191.24 1141.88 L2191.24 1155.37 L2171.94 1155.37 L2171.94 1161.18 L2152.63 1161.18 L2152.63 1172.82 L2133.20 1172.82 L2133.20 1184.45 L2113.90 1184.45 L2113.90 1200.04 L2094.59 1200.04 L2094.59 1208.70 L2075.29 1208.70 L2075.29 1219.35 L2055.86 1219.35 L2055.86 1228.13 L2036.55 1228.13 L2036.55 1240.76 L2017.25 1240.76 L2017.25 1254.25 L1997.82 1254.25 L1997.82 1266.87 L1978.52 1266.87 L1978.52 1282.46 L1959.21 1282.46 L1959.21 1295.95 L1939.78 1295.95 L1939.78 1314.39 L1920.48 1314.39 L1920.48 1328.99 L1901.17 1328.99 L1901.17 1343.47 L1881.74 1343.47 L1881.74 1355.23 L1862.44 1355.23 L1862.44 1364.88 L1843.13 1364.88 L1843.13 1376.51 L1823.83 1376.51 L1823.83 1379.48 L1804.40 1379.48 L1804.40 1388.15 L1785.09 1388.15 L1785.09 1396.93 L1765.79 1396.93 L1765.79 1405.60 L1746.36 1405.60 L1746.36 1422.18 L1727.06 1422.18 L1727.06 1437.65 L1707.75 1437.65 L1707.75 1455.10 L1688.32 1455.10 L1688.32 1477.50 L1669.02 1477.50 L1669.02 1491.11 L1649.71 1491.11 L1649.71 1502.74 L1630.28 1502.74 L1630.28 1516.36 L1610.98 1516.36 L1610.98 1528.98 L1591.67 1528.98 L1591.67 1544.45 L1572.37 1544.45 L1572.37 1561.03 L1552.94 1561.03 L1552.94 1578.48 L1533.63 1578.48 L1533.63 1586.28 L1514.33 1586.28 L1514.33 1599.89 L1494.90 1599.89 L1494.90 1618.45 L1475.60 1618.45 L1475.60 1634.91 L1456.29 1634.91 L1456.29 1649.52 L1436.86 1649.52 L1436.86 1669.07 L1417.56 1669.07 L1417.56 1677.73 L1398.25 1677.73 L1398.25 1688.50 L1378.82 1688.50 L1378.82 1701.12 L1359.52 1701.12 L1359.52 1719.68 L1340.21 1719.68 L1340.21 1735.28 L1320.91 1735.28 L1320.91 1748.02 L1301.48 1748.02 L1301.48 1766.46 L1282.17 1766.46 L1282.17 1772.40 L1262.87 1772.40 L1262.87 1790.97 L1243.44 1790.97 L1243.44 1806.56 L1224.13 1806.56 L1224.13 1828.09 L1204.83 1828.09 L1204.83 1846.66 L1185.40 1846.66 L1185.40 1864.35 L1166.10 1864.35 L1166.10 1879.08 L1146.79 1879.08 L1146.79 1894.67 L1127.36 1894.67 L1127.36 1911.38 L1108.06 1911.38 L1108.06 1926.11 L1088.75 1926.11 L1088.75 1936.01 L1069.45 1936.01 L1069.45 1945.78 L1050.02 1945.78 L1050.02 1959.64 L1030.71 1959.64 L1030.71 1974.37 L1011.41 1974.37 L1011.41 1989.22 L991.98 1989.22 L991.98 2006.05 L972.67 2006.05 L972.67 2019.91 L953.37 2019.91 L953.37 2036.74 L933.94 2036.74 L933.94 2057.66 L914.64 2057.66 L914.64 2071.64 L895.33 2071.64 L895.33 2080.67 L875.90 2080.67 L875.90 2093.67 L856.60 2093.67 L856.60 2112.85 L837.29 2112.85 L837.29 2130.05 L817.86 2130.05 L817.86 2142.30 L798.56 2142.30 L798.56 2160.74 L779.25 2160.74 L779.25 2177.45 L759.95 2177.45 L759.95 2190.07 L740.52 2190.07 L740.52 2201.83 L721.22 2201.83 L721.22 2220.52 L701.91 2220.52 L701.91 2236.11 Z" stroke-linejoin="round"/>
	</defs>
	<defs>
		<clipPath id="clipPath_BxrEWqYT">
			<use xlink:href="#path_SKxblzgN"/>
		</clipPath>
	</defs>
	<use xlink:href="#path_SKxblzgN" style="stroke:none;fill:#DDE3E9"/>
	<use xlink:href="#path_SKxblzgN" style="fill:none;stroke:#DDE3E9;stroke-width:17.28" clip-path="url(#clipPath_BxrEWqYT)"/>
	<path d=" M701.79 2236.11 L721.09 2236.11 L721.09 2223.49 L740.52 2223.49 L740.52 2214.82 L759.83 2214.82 L759.83 2205.17 L779.13 2205.17 L779.13 2192.18 L798.56 2192.18 L798.56 2177.33 L817.86 2177.33 L817.86 2167.18 L837.17 2167.18 L837.17 2152.95 L856.60 2152.95 L856.60 2136.86 L875.90 2136.86 L875.90 2125.72 L895.21 2125.72 L895.21 2118.05 L914.64 2118.05 L914.64 2106.04 L933.94 2106.04 L933.94 2087.85 L953.25 2087.85 L953.25 2073.12 L972.55 2073.12 L972.55 2061.00 L991.98 2061.00 L991.98 2046.27 L1011.28 2046.27 L1011.28 2033.15 L1030.59 2033.15 L1030.59 2020.03 L1050.02 2020.03 L1050.02 2007.78 L1069.32 2007.78 L1069.32 1999.00 L1088.63 1999.00 L1088.63 1990.21 L1108.06 1990.21 L1108.06 1976.97 L1127.36 1976.97 L1127.36 1961.99 L1146.67 1961.99 L1146.67 1947.89 L1166.10 1947.89 L1166.10 1934.52 L1185.40 1934.52 L1185.40 1918.56 L1204.71 1918.56 L1204.71 1901.73 L1224.01 1901.73 L1224.01 1882.17 L1243.44 1882.17 L1243.44 1867.94 L1262.74 1867.94 L1262.74 1850.99 L1282.05 1850.99 L1282.05 1845.67 L1301.48 1845.67 L1301.48 1828.71 L1320.78 1828.71 L1320.78 1817.08 L1340.09 1817.08 L1340.09 1802.85 L1359.52 1802.85 L1359.52 1785.77 L1378.82 1785.77 L1378.82 1774.14 L1398.13 1774.14 L1398.13 1764.24 L1417.56 1764.24 L1417.56 1756.19 L1436.86 1756.19 L1436.86 1738.25 L1456.17 1738.25 L1456.17 1724.76 L1475.47 1724.76 L1475.47 1709.54 L1494.90 1709.54 L1494.90 1692.33 L1514.20 1692.33 L1514.20 1679.83 L1533.51 1679.83 L1533.51 1672.53 L1552.94 1672.53 L1552.94 1656.32 L1572.24 1656.32 L1572.24 1640.98 L1591.55 1640.98 L1591.55 1626.62 L1610.98 1626.62 L1610.98 1614.86 L1630.28 1614.86 L1630.28 1602.24 L1649.59 1602.24 L1649.59 1591.35 L1669.02 1591.35 L1669.02 1578.73 L1688.32 1578.73 L1688.32 1557.81 L1707.63 1557.81 L1707.63 1541.60 L1727.06 1541.60 L1727.06 1527.00 L1746.36 1527.00 L1746.36 1511.65 L1765.66 1511.65 L1765.66 1503.49 L1784.97 1503.49 L1784.97 1495.32 L1804.40 1495.32 L1804.40 1487.15 L1823.70 1487.15 L1823.70 1484.43 L1843.01 1484.43 L1843.01 1473.54 L1862.44 1473.54 L1862.44 1464.38 L1881.74 1464.38 L1881.74 1453.49 L1901.05 1453.49 L1901.05 1439.88 L1920.48 1439.88 L1920.48 1426.14 L1939.78 1426.14 L1939.78 1408.94 L1959.09 1408.94 L1959.09 1396.19 L1978.52 1396.19 L1978.52 1381.59 L1997.82 1381.59 L1997.82 1369.71 L2017.13 1369.71 L2017.13 1356.96 L2036.43 1356.96 L2036.43 1345.08 L2055.86 1345.08 L2055.86 1336.91 L2075.16 1336.91 L2075.16 1326.89 L2094.47 1326.89 L2094.47 1318.60 L2113.90 1318.60 L2113.90 1303.99 L2133.20 1303.99 L2133.20 1293.10 L2152.51 1293.10 L2152.51 1282.09 L2171.94 1282.09 L2171.94 1276.64 L2191.24 1276.64 L2191.24 1263.77 L2210.55 1263.77 L2210.55 1251.89 L2229.97 1251.89 L2229.97 1241.00 L2249.28 1241.00 L2249.28 1225.41 L2268.59 1225.41 L2268.59 1222.69 L2287.89 1222.69 L2287.89 1215.39 L2307.32 1215.39 L2307.32 1205.24 L2326.62 1205.24 L2326.62 1192.49 L2345.93 1192.49 L2345.93 1182.34 L2365.36 1182.34 L2365.36 1169.60 L2384.66 1169.60 L2384.66 1159.45 L2403.97 1159.45 L2403.97 1149.43 L2423.40 1149.43 L2423.40 1139.28 L2442.70 1139.28 L2442.70 1131.98 L2462.01 1131.98 L2462.01 1127.40 L2481.43 1127.40 L2481.43 1119.11 L2500.74 1119.11 L2500.74 1102.65 L2520.05 1102.65 L2520.05 1093.49 L2539.35 1093.49 L2539.35 1082.48 L2558.78 1082.48 L2558.78 1076.04 L2578.08 1076.04 L2578.08 1061.31 L2597.39 1061.31 L2597.39 1054.88 L2616.82 1054.88 L2616.82 1041.14 L2636.12 1041.14 L2636.12 1033.72 L2655.43 1033.72 L2655.43 1020.85 L2674.86 1020.85 L2674.86 1013.54 L2694.16 1013.54 L2694.16 1005.25 L2713.47 1005.25 L2713.47 997.83 L2732.89 997.83 L2732.89 986.81 L2752.20 986.81 L2752.20 976.79 L2771.51 976.79 L2771.51 966.64 L2790.81 966.64 L2790.81 955.63 L2810.24 955.63 L2810.24 942.63 L2829.54 942.63 L2829.54 934.47 L2848.85 934.47 L2848.85 928.90 L2868.28 928.90 L2868.28 916.89 L2887.58 916.89 L2887.58 906.74 L2906.89 906.74 L2906.89 897.59 L2926.32 897.59 L2926.32 877.29 L2945.62 877.29 L2945.62 867.14 L2964.93 867.14 L2964.93 859.84 L2984.36 859.84 L2984.36 850.56 L3003.66 850.56 L3003.66 839.55" stroke-linejoin="round" style="fill:none;stroke:#8DA3B7;stroke-width:8.64"/>
	<path d=" M701.79 2220.64 L721.09 2220.64 L721.09 2201.83 L740.52 2201.83 L740.52 2190.07 L759.83 2190.07 L759.83 2177.45 L779.13 2177.45 L779.13 2160.87 L798.56 2160.87 L798.56 2142.43 L817.86 2142.43 L817.86 2130.18 L837.17 2130.18 L837.17 2112.97 L856.60 2112.97 L856.60 2093.79 L875.90 2093.79 L875.90 2080.67 L895.21 2080.67 L895.21 2071.76 L914.64 2071.76 L914.64 2057.78 L933.94 2057.78 L933.94 2036.86 L953.25 2036.86 L953.25 2019.91 L972.55 2019.91 L972.55 2006.05 L991.98 2006.05 L991.98 1989.34 L1011.28 1989.34 L1011.28 1974.49 L1030.59 1974.49 L1030.59 1959.64 L1050.02 1959.64 L1050.02 1945.91 L1069.32 1945.91 L1069.32 1936.01 L1088.63 1936.01 L1088.63 1926.23 L1108.06 1926.23 L1108.06 1911.50 L1127.36 1911.50 L1127.36 1894.80 L1146.67 1894.80 L1146.67 1879.08 L1166.10 1879.08 L1166.10 1864.35 L1185.40 1864.35 L1185.40 1846.78 L1204.71 1846.78 L1204.71 1828.09 L1224.01 1828.09 L1224.01 1806.56 L1243.44 1806.56 L1243.44 1790.97 L1262.74 1790.97 L1262.74 1772.40 L1282.05 1772.40 L1282.05 1766.59 L1301.48 1766.59 L1301.48 1748.02 L1320.78 1748.02 L1320.78 1735.40 L1340.09 1735.40 L1340.09 1719.68 L1359.52 1719.68 L1359.52 1701.24 L1378.82 1701.24 L1378.82 1688.50 L1398.13 1688.50 L1398.13 1677.85 L1417.56 1677.85 L1417.56 1669.07 L1436.86 1669.07 L1436.86 1649.64 L1456.17 1649.64 L1456.17 1635.04 L1475.47 1635.04 L1475.47 1618.45 L1494.90 1618.45 L1494.90 1600.01 L1514.20 1600.01 L1514.20 1586.40 L1533.51 1586.40 L1533.51 1578.60 L1552.94 1578.60 L1552.94 1561.03 L1572.24 1561.03 L1572.24 1544.57 L1591.55 1544.57 L1591.55 1528.98 L1610.98 1528.98 L1610.98 1516.36 L1630.28 1516.36 L1630.28 1502.74 L1649.59 1502.74 L1649.59 1491.11 L1669.02 1491.11 L1669.02 1477.50 L1688.32 1477.50 L1688.32 1455.22 L1707.63 1455.22 L1707.63 1437.77 L1727.06 1437.77 L1727.06 1422.18 L1746.36 1422.18 L1746.36 1405.72 L1765.66 1405.72 L1765.66 1396.93 L1784.97 1396.93 L1784.97 1388.27 L1804.40 1388.27 L1804.40 1379.48 L1823.70 1379.48 L1823.70 1376.64 L1843.01 1376.64 L1843.01 1365.01 L1862.44 1365.01 L1862.44 1355.23 L1881.74 1355.23 L1881.74 1343.60 L1901.05 1343.60 L1901.05 1328.99 L1920.48 1328.99 L1920.48 1314.51 L1939.78 1314.51 L1939.78 1296.07 L1959.09 1296.07 L1959.09 1282.46 L1978.52 1282.46 L1978.52 1266.99 L1997.82 1266.99 L1997.82 1254.37 L2017.13 1254.37 L2017.13 1240.76 L2036.43 1240.76 L2036.43 1228.13 L2055.86 1228.13 L2055.86 1219.47 L2075.16 1219.47 L2075.16 1208.83 L2094.47 1208.83 L2094.47 1200.04 L2113.90 1200.04 L2113.90 1184.57 L2133.20 1184.57 L2133.20 1172.94 L2152.51 1172.94 L2152.51 1161.31 L2171.94 1161.31 L2171.94 1155.49 L2191.24 1155.49 L2191.24 1141.88 L2210.55 1141.88 L2210.55 1129.25 L2229.97 1129.25 L2229.97 1117.62 L2249.28 1117.62 L2249.28 1101.16 L2268.59 1101.16 L2268.59 1098.32 L2287.89 1098.32 L2287.89 1090.52 L2307.32 1090.52 L2307.32 1079.88 L2326.62 1079.88 L2326.62 1066.26 L2345.93 1066.26 L2345.93 1055.62 L2365.36 1055.62 L2365.36 1042.01 L2384.66 1042.01 L2384.66 1031.36 L2403.97 1031.36 L2403.97 1020.72 L2423.40 1020.72 L2423.40 1010.08 L2442.70 1010.08 L2442.70 1002.28 L2462.01 1002.28 L2462.01 997.46 L2481.43 997.46 L2481.43 988.79 L2500.74 988.79 L2500.74 971.34 L2520.05 971.34 L2520.05 961.57 L2539.35 961.57 L2539.35 950.06 L2558.78 950.06 L2558.78 943.25 L2578.08 943.25 L2578.08 927.66 L2597.39 927.66 L2597.39 920.98 L2616.82 920.98 L2616.82 906.37 L2636.12 906.37 L2636.12 898.70 L2655.43 898.70 L2655.43 885.09 L2674.86 885.09 L2674.86 877.29 L2694.16 877.29 L2694.16 868.63 L2713.47 868.63 L2713.47 860.83 L2732.89 860.83 L2732.89 849.20 L2752.20 849.20 L2752.20 838.56 L2771.51 838.56 L2771.51 827.91 L2790.81 827.91 L2790.81 816.28 L2810.24 816.28 L2810.24 802.79 L2829.54 802.79 L2829.54 794.00 L2848.85 794.00 L2848.85 788.19 L2868.28 788.19 L2868.28 775.69 L2887.58 775.69 L2887.58 765.05 L2906.89 765.05 L2906.89 755.27 L2926.32 755.27 L2926.32 733.98 L2945.62 733.98 L2945.62 723.34 L2964.93 723.34 L2964.93 715.54 L2984.36 715.54 L2984.36 705.89 L3003.66 705.89 L3003.66 694.26" stroke-linejoin="round" style="fill:none;stroke:#8DA3B7;stroke-width:8.64"/>
	<defs>
		<path id="path_tPXIxMVp" d="M701.91 2245.14 L701.91 2245.14 L721.22 2245.14 L721.22 2243.41 L740.52 2243.41 L740.52 2238.46 L759.95 2238.46 L759.95 2229.30 L779.25 2229.30 L779.25 2222.62 L798.56 2222.62 L798.56 2208.39 L817.86 2208.39 L817.86 2200.96 L837.29 2200.96 L837.29 2197.13 L875.90 2197.13 L875.90 2193.41 L895.33 2193.41 L895.33 2189.45 L914.64 2189.45 L914.64 2185.62 L933.94 2185.62 L933.94 2181.78 L953.37 2181.78 L953.37 2169.90 L972.67 2169.90 L972.67 2157.90 L991.98 2157.90 L991.98 2153.81 L1011.41 2153.81 L1011.41 2149.73 L1050.02 2149.73 L1050.02 2145.64 L1069.45 2145.64 L1069.45 2141.56 L1088.75 2141.56 L1088.75 2133.39 L1127.36 2133.39 L1127.36 2125.10 L1146.79 2125.10 L1146.79 2125.10 L1166.10 2125.10 L1166.10 2120.89 L1185.40 2120.89 L1185.40 2116.81 L1204.83 2116.81 L1204.83 2104.19 L1224.13 2104.19 L1224.13 2095.77 L1243.44 2095.77 L1243.44 2095.77 L1262.87 2095.77 L1262.87 2083.15 L1282.17 2083.15 L1282.17 2066.07 L1301.48 2066.07 L1301.48 2053.20 L1320.91 2053.20 L1320.91 2048.87 L1340.21 2048.87 L1340.21 2040.21 L1359.52 2040.21 L1359.52 2035.87 L1378.82 2035.87 L1378.82 2022.88 L1398.25 2022.88 L1398.25 2014.22 L1417.56 2014.22 L1417.56 2009.89 L1436.86 2009.89 L1436.86 1987.98 L1456.29 1987.98 L1456.29 1979.32 L1475.60 1979.32 L1475.60 1979.32 L1494.90 1979.32 L1494.90 1957.29 L1514.33 1957.29 L1514.33 1939.59 L1533.63 1939.59 L1533.63 1930.68 L1552.94 1930.68 L1552.94 1908.53 L1572.37 1908.53 L1572.37 1886.26 L1591.67 1886.26 L1591.67 1886.26 L1610.98 1886.26 L1610.98 1872.89 L1630.28 1872.89 L1630.28 1859.40 L1649.71 1859.40 L1649.71 1845.91 L1669.02 1845.91 L1669.02 1837.00 L1688.32 1837.00 L1688.32 1827.97 L1707.75 1827.97 L1707.75 1823.51 L1727.06 1823.51 L1727.06 1814.48 L1746.36 1814.48 L1746.36 1805.45 L1785.09 1805.45 L1785.09 1787.38 L1804.40 1787.38 L1804.40 1773.89 L1823.83 1773.89 L1823.83 1760.28 L1843.13 1760.28 L1843.13 1751.24 L1862.44 1751.24 L1862.44 1742.08 L1881.74 1742.08 L1881.74 1737.63 L1901.17 1737.63 L1901.17 1728.47 L1920.48 1728.47 L1920.48 1719.44 L1939.78 1719.44 L1939.78 1719.44 L1959.21 1719.44 L1959.21 1714.86 L1978.52 1714.86 L1978.52 1705.70 L1997.82 1705.70 L1997.82 1705.70 L2017.25 1705.70 L2017.25 1692.09 L2036.55 1692.09 L2036.55 1678.35 L2075.29 1678.35 L2075.29 1669.32 L2113.90 1669.32 L2113.90 1664.74 L2133.20 1664.74 L2133.20 1655.58 L2152.63 1655.58 L2152.63 1651.00 L2171.94 1651.00 L2171.94 1632.68 L2191.24 1632.68 L2191.24 1628.11 L2210.67 1628.11 L2210.67 1618.95 L2229.97 1618.95 L2229.97 1614.37 L2249.28 1614.37 L2249.28 1614.37 L2268.71 1614.37 L2268.71 1605.21 L2288.01 1605.21 L2288.01 1596.05 L2307.32 1596.05 L2307.32 1586.77 L2326.75 1586.77 L2326.75 1573.04 L2346.05 1573.04 L2346.05 1568.46 L2384.79 1568.46 L2384.79 1554.60 L2404.09 1554.60 L2404.09 1545.44 L2462.13 1545.44 L2462.13 1540.86 L2481.43 1540.86 L2481.43 1531.58 L2500.74 1531.58 L2500.74 1527.00 L2520.17 1527.00 L2520.17 1513.14 L2539.47 1513.14 L2539.47 1499.40 L2558.78 1499.40 L2558.78 1490.12 L2578.21 1490.12 L2578.21 1471.68 L2597.51 1471.68 L2597.51 1466.98 L2616.82 1466.98 L2616.82 1462.40 L2674.86 1462.40 L2674.86 1457.82 L2713.59 1457.82 L2713.59 1453.12 L2732.89 1453.12 L2732.89 1439.26 L2752.20 1439.26 L2752.20 1420.69 L2790.93 1420.69 L2790.93 1416.12 L2810.24 1416.12 L2810.24 1402.26 L2848.97 1402.26 L2848.97 1397.55 L2868.28 1397.55 L2868.28 1378.99 L2887.71 1378.99 L2887.71 1369.71 L2926.32 1369.71 L2926.32 1360.43 L2945.62 1360.43 L2945.62 1351.14 L2965.05 1351.14 L2965.05 1327.88 L2984.36 1327.88 L2984.36 1318.60 L3003.66 1318.60 L3003.66 1318.60 L3003.66 1034.09 L3003.66 1034.09 L2984.36 1034.09 L2984.36 1044.73 L2965.05 1044.73 L2965.05 1071.21 L2945.62 1071.21 L2945.62 1081.86 L2926.32 1081.86 L2926.32 1092.50 L2887.71 1092.50 L2887.71 1103.14 L2868.28 1103.14 L2868.28 1124.43 L2848.97 1124.43 L2848.97 1129.75 L2810.24 1129.75 L2810.24 1145.84 L2790.93 1145.84 L2790.93 1151.16 L2752.20 1151.16 L2752.20 1172.44 L2732.89 1172.44 L2732.89 1188.41 L2713.59 1188.41 L2713.59 1193.73 L2674.86 1193.73 L2674.86 1199.17 L2616.82 1199.17 L2616.82 1204.50 L2597.51 1204.50 L2597.51 1209.82 L2578.21 1209.82 L2578.21 1231.23 L2558.78 1231.23 L2558.78 1241.87 L2539.47 1241.87 L2539.47 1257.96 L2520.17 1257.96 L2520.17 1273.92 L2500.74 1273.92 L2500.74 1279.37 L2481.43 1279.37 L2481.43 1290.01 L2462.13 1290.01 L2462.13 1295.33 L2404.09 1295.33 L2404.09 1306.10 L2384.79 1306.10 L2384.79 1322.19 L2346.05 1322.19 L2346.05 1327.51 L2326.75 1327.51 L2326.75 1343.72 L2307.32 1343.72 L2307.32 1354.36 L2288.01 1354.36 L2288.01 1365.13 L2268.71 1365.13 L2268.71 1375.90 L2249.28 1375.90 L2249.28 1375.90 L2229.97 1375.90 L2229.97 1381.22 L2210.67 1381.22 L2210.67 1391.98 L2191.24 1391.98 L2191.24 1397.43 L2171.94 1397.43 L2171.94 1418.96 L2152.63 1418.96 L2152.63 1424.28 L2133.20 1424.28 L2133.20 1435.05 L2113.90 1435.05 L2113.90 1440.50 L2075.29 1440.50 L2075.29 1451.26 L2036.55 1451.26 L2036.55 1467.47 L2017.25 1467.47 L2017.25 1483.69 L1997.82 1483.69 L1997.82 1483.69 L1978.52 1483.69 L1978.52 1494.45 L1959.21 1494.45 L1959.21 1499.90 L1939.78 1499.90 L1939.78 1499.90 L1920.48 1499.90 L1920.48 1510.66 L1901.17 1510.66 L1901.17 1521.55 L1881.74 1521.55 L1881.74 1527.00 L1862.44 1527.00 L1862.44 1537.77 L1843.13 1537.77 L1843.13 1548.66 L1823.83 1548.66 L1823.83 1564.87 L1804.40 1564.87 L1804.40 1581.20 L1785.09 1581.20 L1785.09 1602.98 L1746.36 1602.98 L1746.36 1613.87 L1727.06 1613.87 L1727.06 1624.76 L1707.75 1624.76 L1707.75 1630.21 L1688.32 1630.21 L1688.32 1641.10 L1669.02 1641.10 L1669.02 1652.11 L1649.71 1652.11 L1649.71 1668.45 L1630.28 1668.45 L1630.28 1684.91 L1610.98 1684.91 L1610.98 1701.37 L1591.67 1701.37 L1591.67 1701.37 L1572.37 1701.37 L1572.37 1728.84 L1552.94 1728.84 L1552.94 1756.31 L1533.63 1756.31 L1533.63 1767.33 L1514.33 1767.33 L1514.33 1789.48 L1494.90 1789.48 L1494.90 1817.20 L1475.60 1817.20 L1475.60 1817.20 L1456.29 1817.20 L1456.29 1828.34 L1436.86 1828.34 L1436.86 1856.18 L1417.56 1856.18 L1417.56 1861.88 L1398.25 1861.88 L1398.25 1873.01 L1378.82 1873.01 L1378.82 1889.85 L1359.52 1889.85 L1359.52 1895.54 L1340.21 1895.54 L1340.21 1906.80 L1320.91 1906.80 L1320.91 1912.37 L1301.48 1912.37 L1301.48 1929.32 L1282.17 1929.32 L1282.17 1952.09 L1262.87 1952.09 L1262.87 1969.17 L1243.44 1969.17 L1243.44 1969.17 L1224.13 1969.17 L1224.13 1980.56 L1204.83 1980.56 L1204.83 1997.88 L1185.40 1997.88 L1185.40 2003.58 L1166.10 2003.58 L1166.10 2009.39 L1146.79 2009.39 L1146.79 2009.39 L1127.36 2009.39 L1127.36 2021.02 L1088.75 2021.02 L1088.75 2032.66 L1069.45 2032.66 L1069.45 2038.47 L1050.02 2038.47 L1050.02 2044.29 L1011.41 2044.29 L1011.41 2050.23 L991.98 2050.23 L991.98 2056.17 L972.67 2056.17 L972.67 2073.87 L953.37 2073.87 L953.37 2091.81 L933.94 2091.81 L933.94 2097.88 L914.64 2097.88 L914.64 2103.94 L895.33 2103.94 L895.33 2110.00 L875.90 2110.00 L875.90 2116.07 L837.29 2116.07 L837.29 2122.26 L817.86 2122.26 L817.86 2134.63 L798.56 2134.63 L798.56 2159.88 L779.25 2159.88 L779.25 2172.87 L759.95 2172.87 L759.95 2192.92 L740.52 2192.92 L740.52 2206.16 L721.22 2206.16 L721.22 2210.62 L701.91 2210.62 L701.91 2245.14 Z" stroke-linejoin="round"/>
	</defs>
	<defs>
		<clipPath id="clipPath_MJbBrsdj">
			<use xlink:href="#path_tPXIxMVp"/>
		</clipPath>
	</defs>
	<use xlink:href="#path_tPXIxMVp" style="stroke:none;fill:#EEE1E2"/>
	<use xlink:href="#path_tPXIxMVp" style="fill:none;stroke:#EEE1E2;stroke-width:17.28" clip-path="url(#clipPath_MJbBrsdj)"/>
	<path d=" M701.79 2245.27 L721.09 2245.27 L721.09 2243.41 L740.52 2243.41 L740.52 2238.46 L759.83 2238.46 L759.83 2229.43 L779.13 2229.43 L779.13 2222.62 L798.56 2222.62 L798.56 2208.39 L817.86 2208.39 L817.86 2200.96 L837.17 2200.96 L837.17 2197.25 L875.90 2197.25 L875.90 2193.41 L895.21 2193.41 L895.21 2189.58 L914.64 2189.58 L914.64 2185.74 L933.94 2185.74 L933.94 2181.78 L953.25 2181.78 L953.25 2170.02 L972.55 2170.02 L972.55 2157.90 L991.98 2157.90 L991.98 2153.94 L1011.28 2153.94 L1011.28 2149.85 L1050.02 2149.85 L1050.02 2145.77 L1069.32 2145.77 L1069.32 2141.68 L1088.63 2141.68 L1088.63 2133.39 L1127.36 2133.39 L1127.36 2125.23 L1146.67 2125.23 L1146.67 2125.23 L1166.10 2125.23 L1166.10 2121.02 L1185.40 2121.02 L1185.40 2116.81 L1204.71 2116.81 L1204.71 2104.31 L1224.01 2104.31 L1224.01 2095.90 L1243.44 2095.90 L1243.44 2095.90 L1262.74 2095.90 L1262.74 2083.15 L1282.05 2083.15 L1282.05 2066.07 L1301.48 2066.07 L1301.48 2053.20 L1320.78 2053.20 L1320.78 2048.87 L1340.09 2048.87 L1340.09 2040.33 L1359.52 2040.33 L1359.52 2036.00 L1378.82 2036.00 L1378.82 2023.00 L1398.13 2023.00 L1398.13 2014.34 L1417.56 2014.34 L1417.56 2009.89 L1436.86 2009.89 L1436.86 1988.11 L1456.17 1988.11 L1456.17 1979.32 L1475.47 1979.32 L1475.47 1979.32 L1494.90 1979.32 L1494.90 1957.29 L1514.20 1957.29 L1514.20 1939.72 L1533.51 1939.72 L1533.51 1930.81 L1552.94 1930.81 L1552.94 1908.66 L1572.24 1908.66 L1572.24 1886.38 L1591.55 1886.38 L1591.55 1886.38 L1610.98 1886.38 L1610.98 1872.89 L1630.28 1872.89 L1630.28 1859.53 L1649.59 1859.53 L1649.59 1846.04 L1669.02 1846.04 L1669.02 1837.00 L1688.32 1837.00 L1688.32 1828.09 L1707.63 1828.09 L1707.63 1823.51 L1727.06 1823.51 L1727.06 1814.60 L1746.36 1814.60 L1746.36 1805.57 L1784.97 1805.57 L1784.97 1787.50 L1804.40 1787.50 L1804.40 1773.89 L1823.70 1773.89 L1823.70 1760.28 L1843.01 1760.28 L1843.01 1751.24 L1862.44 1751.24 L1862.44 1742.21 L1881.74 1742.21 L1881.74 1737.63 L1901.05 1737.63 L1901.05 1728.59 L1920.48 1728.59 L1920.48 1719.44 L1939.78 1719.44 L1939.78 1719.44 L1959.09 1719.44 L1959.09 1714.86 L1978.52 1714.86 L1978.52 1705.82 L1997.82 1705.82 L1997.82 1705.82 L2017.13 1705.82 L2017.13 1692.09 L2036.43 1692.09 L2036.43 1678.47 L2075.16 1678.47 L2075.16 1669.32 L2113.90 1669.32 L2113.90 1664.74 L2133.20 1664.74 L2133.20 1655.58 L2152.51 1655.58 L2152.51 1651.00 L2171.94 1651.00 L2171.94 1632.81 L2191.24 1632.81 L2191.24 1628.23 L2210.55 1628.23 L2210.55 1618.95 L2229.97 1618.95 L2229.97 1614.37 L2249.28 1614.37 L2249.28 1614.37 L2268.59 1614.37 L2268.59 1605.21 L2287.89 1605.21 L2287.89 1596.05 L2307.32 1596.05 L2307.32 1586.90 L2326.62 1586.90 L2326.62 1573.16 L2345.93 1573.16 L2345.93 1568.46 L2384.66 1568.46 L2384.66 1554.72 L2403.97 1554.72 L2403.97 1545.56 L2462.01 1545.56 L2462.01 1540.86 L2481.43 1540.86 L2481.43 1531.70 L2500.74 1531.70 L2500.74 1527.12 L2520.05 1527.12 L2520.05 1513.26 L2539.35 1513.26 L2539.35 1499.40 L2558.78 1499.40 L2558.78 1490.12 L2578.08 1490.12 L2578.08 1471.68 L2597.39 1471.68 L2597.39 1467.10 L2616.82 1467.10 L2616.82 1462.40 L2674.86 1462.40 L2674.86 1457.82 L2713.47 1457.82 L2713.47 1453.24 L2732.89 1453.24 L2732.89 1439.38 L2752.20 1439.38 L2752.20 1420.82 L2790.81 1420.82 L2790.81 1416.12 L2810.24 1416.12 L2810.24 1402.26 L2848.85 1402.26 L2848.85 1397.68 L2868.28 1397.68 L2868.28 1379.11 L2887.58 1379.11 L2887.58 1369.83 L2926.32 1369.83 L2926.32 1360.55 L2945.62 1360.55 L2945.62 1351.27 L2964.93 1351.27 L2964.93 1328.00 L2984.36 1328.00 L2984.36 1318.72 L3003.66 1318.72 L3003.66 1318.72" stroke-linejoin="round" style="fill:none;stroke:#C89A9D;stroke-width:8.64"/>
	<path d=" M701.79 2210.62 L721.09 2210.62 L721.09 2206.16 L740.52 2206.16 L740.52 2193.04 L759.83 2193.04 L759.83 2172.99 L779.13 2172.99 L779.13 2160.00 L798.56 2160.00 L798.56 2134.63 L817.86 2134.63 L817.86 2122.26 L837.17 2122.26 L837.17 2116.19 L875.90 2116.19 L875.90 2110.00 L895.21 2110.00 L895.21 2103.94 L914.64 2103.94 L914.64 2097.88 L933.94 2097.88 L933.94 2091.94 L953.25 2091.94 L953.25 2073.99 L972.55 2073.99 L972.55 2056.17 L991.98 2056.17 L991.98 2050.23 L1011.28 2050.23 L1011.28 2044.41 L1050.02 2044.41 L1050.02 2038.60 L1069.32 2038.60 L1069.32 2032.66 L1088.63 2032.66 L1088.63 2021.02 L1127.36 2021.02 L1127.36 2009.52 L1146.67 2009.52 L1146.67 2009.52 L1166.10 2009.52 L1166.10 2003.70 L1185.40 2003.70 L1185.40 1997.88 L1204.71 1997.88 L1204.71 1980.68 L1224.01 1980.68 L1224.01 1969.17 L1243.44 1969.17 L1243.44 1969.17 L1262.74 1969.17 L1262.74 1952.09 L1282.05 1952.09 L1282.05 1929.45 L1301.48 1929.45 L1301.48 1912.49 L1320.78 1912.49 L1320.78 1906.80 L1340.09 1906.80 L1340.09 1895.54 L1359.52 1895.54 L1359.52 1889.97 L1378.82 1889.97 L1378.82 1873.14 L1398.13 1873.14 L1398.13 1861.88 L1417.56 1861.88 L1417.56 1856.31 L1436.86 1856.31 L1436.86 1828.46 L1456.17 1828.46 L1456.17 1817.33 L1475.47 1817.33 L1475.47 1817.33 L1494.90 1817.33 L1494.90 1789.60 L1514.20 1789.60 L1514.20 1767.45 L1533.51 1767.45 L1533.51 1756.44 L1552.94 1756.44 L1552.94 1728.84 L1572.24 1728.84 L1572.24 1701.37 L1591.55 1701.37 L1591.55 1701.37 L1610.98 1701.37 L1610.98 1684.91 L1630.28 1684.91 L1630.28 1668.57 L1649.59 1668.57 L1649.59 1652.11 L1669.02 1652.11 L1669.02 1641.22 L1688.32 1641.22 L1688.32 1630.33 L1707.63 1630.33 L1707.63 1624.89 L1727.06 1624.89 L1727.06 1613.87 L1746.36 1613.87 L1746.36 1602.98 L1784.97 1602.98 L1784.97 1581.33 L1804.40 1581.33 L1804.40 1564.99 L1823.70 1564.99 L1823.70 1548.66 L1843.01 1548.66 L1843.01 1537.89 L1862.44 1537.89 L1862.44 1527.00 L1881.74 1527.00 L1881.74 1521.55 L1901.05 1521.55 L1901.05 1510.79 L1920.48 1510.79 L1920.48 1499.90 L1939.78 1499.90 L1939.78 1499.90 L1959.09 1499.90 L1959.09 1494.58 L1978.52 1494.58 L1978.52 1483.69 L1997.82 1483.69 L1997.82 1483.69 L2017.13 1483.69 L2017.13 1467.47 L2036.43 1467.47 L2036.43 1451.39 L2075.16 1451.39 L2075.16 1440.50 L2113.90 1440.50 L2113.90 1435.17 L2133.20 1435.17 L2133.20 1424.41 L2152.51 1424.41 L2152.51 1418.96 L2171.94 1418.96 L2171.94 1397.43 L2191.24 1397.43 L2191.24 1392.11 L2210.55 1392.11 L2210.55 1381.34 L2229.97 1381.34 L2229.97 1375.90 L2249.28 1375.90 L2249.28 1375.90 L2268.59 1375.90 L2268.59 1365.25 L2287.89 1365.25 L2287.89 1354.49 L2307.32 1354.49 L2307.32 1343.72 L2326.62 1343.72 L2326.62 1327.63 L2345.93 1327.63 L2345.93 1322.31 L2384.66 1322.31 L2384.66 1306.22 L2403.97 1306.22 L2403.97 1295.46 L2462.01 1295.46 L2462.01 1290.13 L2481.43 1290.13 L2481.43 1279.37 L2500.74 1279.37 L2500.74 1274.05 L2520.05 1274.05 L2520.05 1257.96 L2539.35 1257.96 L2539.35 1241.87 L2558.78 1241.87 L2558.78 1231.23 L2578.08 1231.23 L2578.08 1209.82 L2597.39 1209.82 L2597.39 1204.50 L2616.82 1204.50 L2616.82 1199.17 L2674.86 1199.17 L2674.86 1193.85 L2713.47 1193.85 L2713.47 1188.53 L2732.89 1188.53 L2732.89 1172.44 L2752.20 1172.44 L2752.20 1151.16 L2790.81 1151.16 L2790.81 1145.84 L2810.24 1145.84 L2810.24 1129.87 L2848.85 1129.87 L2848.85 1124.55 L2868.28 1124.55 L2868.28 1103.27 L2887.58 1103.27 L2887.58 1092.62 L2926.32 1092.62 L2926.32 1081.98 L2945.62 1081.98 L2945.62 1071.34 L2964.93 1071.34 L2964.93 1044.73 L2984.36 1044.73 L2984.36 1034.09 L3003.66 1034.09 L3003.66 1034.09" stroke-linejoin="round" style="fill:none;stroke:#C89A9D;stroke-width:8.64"/>
	<path d=" M682.48 2246.01 L682.48 2246.01 L682.48 2246.01 L701.79 2246.01 L701.79 2230.17 L721.09 2230.17 L721.09 2214.45 L740.52 2214.45 L740.52 2204.30 L759.83 2204.30 L759.83 2193.17 L779.13 2193.17 L779.13 2178.32 L798.56 2178.32 L798.56 2161.61 L817.86 2161.61 L817.86 2150.47 L837.17 2150.47 L837.17 2134.75 L856.60 2134.75 L856.60 2117.06 L875.90 2117.06 L875.90 2105.05 L895.21 2105.05 L895.21 2096.64 L914.64 2096.64 L914.64 2083.64 L933.94 2083.64 L933.94 2064.09 L953.25 2064.09 L953.25 2048.37 L972.55 2048.37 L972.55 2035.38 L991.98 2035.38 L991.98 2019.54 L1011.28 2019.54 L1011.28 2005.56 L1030.59 2005.56 L1030.59 1991.57 L1050.02 1991.57 L1050.02 1978.58 L1069.32 1978.58 L1069.32 1969.30 L1088.63 1969.30 L1088.63 1960.01 L1108.06 1960.01 L1108.06 1946.03 L1127.36 1946.03 L1127.36 1930.19 L1146.67 1930.19 L1146.67 1915.21 L1166.10 1915.21 L1166.10 1901.23 L1185.40 1901.23 L1185.40 1884.40 L1204.71 1884.40 L1204.71 1866.70 L1224.01 1866.70 L1224.01 1846.16 L1243.44 1846.16 L1243.44 1831.31 L1262.74 1831.31 L1262.74 1813.49 L1282.05 1813.49 L1282.05 1807.92 L1301.48 1807.92 L1301.48 1790.10 L1320.78 1790.10 L1320.78 1777.97 L1340.09 1777.97 L1340.09 1763.00 L1359.52 1763.00 L1359.52 1745.30 L1378.82 1745.30 L1378.82 1733.17 L1398.13 1733.17 L1398.13 1722.90 L1417.56 1722.90 L1417.56 1714.49 L1436.86 1714.49 L1436.86 1695.68 L1456.17 1695.68 L1456.17 1681.69 L1475.47 1681.69 L1475.47 1665.73 L1494.90 1665.73 L1494.90 1647.91 L1514.20 1647.91 L1514.20 1634.91 L1533.51 1634.91 L1533.51 1627.36 L1552.94 1627.36 L1552.94 1610.53 L1572.24 1610.53 L1572.24 1594.57 L1591.55 1594.57 L1591.55 1579.59 L1610.98 1579.59 L1610.98 1567.34 L1630.28 1567.34 L1630.28 1554.22 L1649.59 1554.22 L1649.59 1542.96 L1669.02 1542.96 L1669.02 1529.85 L1688.32 1529.85 L1688.32 1508.31 L1707.63 1508.31 L1707.63 1491.36 L1727.06 1491.36 L1727.06 1476.38 L1746.36 1476.38 L1746.36 1460.42 L1765.66 1460.42 L1765.66 1452.00 L1784.97 1452.00 L1784.97 1443.59 L1804.40 1443.59 L1804.40 1435.05 L1823.70 1435.05 L1823.70 1432.33 L1843.01 1432.33 L1843.01 1420.94 L1862.44 1420.94 L1862.44 1411.66 L1881.74 1411.66 L1881.74 1400.28 L1901.05 1400.28 L1901.05 1386.17 L1920.48 1386.17 L1920.48 1372.06 L1939.78 1372.06 L1939.78 1354.24 L1959.09 1354.24 L1959.09 1341.12 L1978.52 1341.12 L1978.52 1326.02 L1997.82 1326.02 L1997.82 1313.77 L2017.13 1313.77 L2017.13 1300.65 L2036.43 1300.65 L2036.43 1288.40 L2055.86 1288.40 L2055.86 1279.99 L2075.16 1279.99 L2075.16 1269.59 L2094.47 1269.59 L2094.47 1261.18 L2113.90 1261.18 L2113.90 1246.08 L2133.20 1246.08 L2133.20 1234.82 L2152.51 1234.82 L2152.51 1223.43 L2171.94 1223.43 L2171.94 1217.86 L2191.24 1217.86 L2191.24 1204.62 L2210.55 1204.62 L2210.55 1192.37 L2229.97 1192.37 L2229.97 1181.11 L2249.28 1181.11 L2249.28 1165.02 L2268.59 1165.02 L2268.59 1162.30 L2287.89 1162.30 L2287.89 1154.75 L2307.32 1154.75 L2307.32 1144.35 L2326.62 1144.35 L2326.62 1131.11 L2345.93 1131.11 L2345.93 1120.84 L2365.36 1120.84 L2365.36 1107.60 L2384.66 1107.60 L2384.66 1097.20 L2403.97 1097.20 L2403.97 1086.81 L2423.40 1086.81 L2423.40 1076.41 L2442.70 1076.41 L2442.70 1068.86 L2462.01 1068.86 L2462.01 1064.16 L2481.43 1064.16 L2481.43 1055.74 L2500.74 1055.74 L2500.74 1038.79 L2520.05 1038.79 L2520.05 1029.26 L2539.35 1029.26 L2539.35 1018.00 L2558.78 1018.00 L2558.78 1011.44 L2578.08 1011.44 L2578.08 996.34 L2597.39 996.34 L2597.39 989.66 L2616.82 989.66 L2616.82 975.55 L2636.12 975.55 L2636.12 968.00 L2655.43 968.00 L2655.43 954.76 L2674.86 954.76 L2674.86 947.21 L2694.16 947.21 L2694.16 938.67 L2713.47 938.67 L2713.47 931.12 L2732.89 931.12 L2732.89 919.86 L2752.20 919.86 L2752.20 909.47 L2771.51 909.47 L2771.51 899.07 L2790.81 899.07 L2790.81 887.69 L2810.24 887.69 L2810.24 874.44 L2829.54 874.44 L2829.54 866.03 L2848.85 866.03 L2848.85 860.34 L2868.28 860.34 L2868.28 848.09 L2887.58 848.09 L2887.58 837.69 L2906.89 837.69 L2906.89 828.16 L2926.32 828.16 L2926.32 807.37 L2945.62 807.37 L2945.62 796.97 L2964.93 796.97 L2964.93 789.43 L2984.36 789.43 L2984.36 780.02 L3003.66 780.02 L3003.66 768.64" stroke-linejoin="round" style="fill:none;stroke:#1A476F;stroke-width:8.64"/>
	<path d=" M682.48 2246.01 L682.48 2246.01 L682.48 2246.01 L701.79 2246.01 L701.79 2240.94 L721.09 2240.94 L721.09 2235.98 L740.52 2235.98 L740.52 2226.08 L759.83 2226.08 L759.83 2211.11 L779.13 2211.11 L779.13 2201.21 L798.56 2201.21 L798.56 2181.29 L817.86 2181.29 L817.86 2171.39 L837.17 2171.39 L837.17 2166.44 L875.90 2166.44 L875.90 2161.49 L895.21 2161.49 L895.21 2156.53 L914.64 2156.53 L914.64 2151.46 L933.94 2151.46 L933.94 2146.51 L953.25 2146.51 L953.25 2131.66 L972.55 2131.66 L972.55 2116.69 L991.98 2116.69 L991.98 2111.74 L1011.28 2111.74 L1011.28 2106.79 L1050.02 2106.79 L1050.02 2101.84 L1069.32 2101.84 L1069.32 2096.89 L1088.63 2096.89 L1088.63 2086.86 L1127.36 2086.86 L1127.36 2076.96 L1146.67 2076.96 L1146.67 2076.96 L1166.10 2076.96 L1166.10 2072.01 L1185.40 2072.01 L1185.40 2067.06 L1204.71 2067.06 L1204.71 2052.09 L1224.01 2052.09 L1224.01 2042.19 L1243.44 2042.19 L1243.44 2042.19 L1262.74 2042.19 L1262.74 2027.21 L1282.05 2027.21 L1282.05 2007.29 L1301.48 2007.29 L1301.48 1992.44 L1320.78 1992.44 L1320.78 1987.49 L1340.09 1987.49 L1340.09 1977.46 L1359.52 1977.46 L1359.52 1972.51 L1378.82 1972.51 L1378.82 1957.66 L1398.13 1957.66 L1398.13 1947.64 L1417.56 1947.64 L1417.56 1942.69 L1436.86 1942.69 L1436.86 1917.81 L1456.17 1917.81 L1456.17 1907.91 L1475.47 1907.91 L1475.47 1907.91 L1494.90 1907.91 L1494.90 1883.04 L1514.20 1883.04 L1514.20 1863.11 L1533.51 1863.11 L1533.51 1853.21 L1552.94 1853.21 L1552.94 1828.34 L1572.24 1828.34 L1572.24 1803.34 L1591.55 1803.34 L1591.55 1803.34 L1610.98 1803.34 L1610.98 1788.49 L1630.28 1788.49 L1630.28 1773.52 L1649.59 1773.52 L1649.59 1758.67 L1669.02 1758.67 L1669.02 1748.64 L1688.32 1748.64 L1688.32 1738.74 L1707.63 1738.74 L1707.63 1733.67 L1727.06 1733.67 L1727.06 1723.77 L1746.36 1723.77 L1746.36 1713.87 L1784.97 1713.87 L1784.97 1693.94 L1804.40 1693.94 L1804.40 1678.97 L1823.70 1678.97 L1823.70 1663.99 L1843.01 1663.99 L1843.01 1654.09 L1862.44 1654.09 L1862.44 1644.07 L1881.74 1644.07 L1881.74 1639.12 L1901.05 1639.12 L1901.05 1629.22 L1920.48 1629.22 L1920.48 1619.20 L1939.78 1619.20 L1939.78 1619.20 L1959.09 1619.20 L1959.09 1614.25 L1978.52 1614.25 L1978.52 1604.35 L1997.82 1604.35 L1997.82 1604.35 L2017.13 1604.35 L2017.13 1589.37 L2036.43 1589.37 L2036.43 1574.40 L2075.16 1574.40 L2075.16 1564.50 L2113.90 1564.50 L2113.90 1559.42 L2133.20 1559.42 L2133.20 1549.52 L2152.51 1549.52 L2152.51 1544.57 L2171.94 1544.57 L2171.94 1524.65 L2191.24 1524.65 L2191.24 1519.57 L2210.55 1519.57 L2210.55 1509.67 L2229.97 1509.67 L2229.97 1504.72 L2249.28 1504.72 L2249.28 1504.72 L2268.59 1504.72 L2268.59 1494.70 L2287.89 1494.70 L2287.89 1484.80 L2307.32 1484.80 L2307.32 1474.77 L2326.62 1474.77 L2326.62 1459.92 L2345.93 1459.92 L2345.93 1454.85 L2384.66 1454.85 L2384.66 1440.00 L2403.97 1440.00 L2403.97 1429.98 L2462.01 1429.98 L2462.01 1425.03 L2481.43 1425.03 L2481.43 1415.00 L2500.74 1415.00 L2500.74 1410.05 L2520.05 1410.05 L2520.05 1395.08 L2539.35 1395.08 L2539.35 1380.10 L2558.78 1380.10 L2558.78 1370.20 L2578.08 1370.20 L2578.08 1350.28 L2597.39 1350.28 L2597.39 1345.33 L2616.82 1345.33 L2616.82 1340.25 L2674.86 1340.25 L2674.86 1335.30 L2713.47 1335.30 L2713.47 1330.35 L2732.89 1330.35 L2732.89 1315.38 L2752.20 1315.38 L2752.20 1295.46 L2790.81 1295.46 L2790.81 1290.51 L2810.24 1290.51 L2810.24 1275.53 L2848.85 1275.53 L2848.85 1270.58 L2868.28 1270.58 L2868.28 1250.66 L2887.58 1250.66 L2887.58 1240.63 L2926.32 1240.63 L2926.32 1230.73 L2945.62 1230.73 L2945.62 1220.71 L2964.93 1220.71 L2964.93 1195.83 L2984.36 1195.83 L2984.36 1185.81 L3003.66 1185.81 L3003.66 1185.81" stroke-linejoin="round" style="fill:none;stroke:#90353B;stroke-width:8.64"/>
	<line x1="619.12" y1="2309.25" x2="619.12" y2="630.90" style="stroke:#000000;stroke-width:5.76"/>
	<line x1="619.12" y1="2245.89" x2="579.15" y2="2245.89" style="stroke:#000000;stroke-width:5.76"/>
	<text x="559.23" y="2273.90" style="font-family:'Helvetica';font-size:79.94px;fill:#000000" text-anchor="end">0.000</text>
	<line x1="619.12" y1="2094.16" x2="579.15" y2="2094.16" style="stroke:#000000;stroke-width:5.76"/>
	<text x="559.23" y="2122.17" style="font-family:'Helvetica';font-size:79.94px;fill:#000000" text-anchor="end">0.001</text>
	<line x1="619.12" y1="1942.56" x2="579.15" y2="1942.56" style="stroke:#000000;stroke-width:5.76"/>
	<text x="559.23" y="1970.58" style="font-family:'Helvetica';font-size:79.94px;fill:#000000" text-anchor="end">0.002</text>
	<line x1="619.12" y1="1790.84" x2="579.15" y2="1790.84" style="stroke:#000000;stroke-width:5.76"/>
	<text x="559.23" y="1818.85" style="font-family:'Helvetica';font-size:79.94px;fill:#000000" text-anchor="end">0.003</text>
	<line x1="619.12" y1="1639.24" x2="579.15" y2="1639.24" style="stroke:#000000;stroke-width:5.76"/>
	<text x="559.23" y="1667.26" style="font-family:'Helvetica';font-size:79.94px;fill:#000000" text-anchor="end">0.004</text>
	<line x1="619.12" y1="1487.52" x2="579.15" y2="1487.52" style="stroke:#000000;stroke-width:5.76"/>
	<text x="559.23" y="1515.53" style="font-family:'Helvetica';font-size:79.94px;fill:#000000" text-anchor="end">0.005</text>
	<line x1="619.12" y1="1335.80" x2="579.15" y2="1335.80" style="stroke:#000000;stroke-width:5.76"/>
	<text x="559.23" y="1363.81" style="font-family:'Helvetica';font-size:79.94px;fill:#000000" text-anchor="end">0.006</text>
	<line x1="619.12" y1="1184.20" x2="579.15" y2="1184.20" style="stroke:#000000;stroke-width:5.76"/>
	<text x="559.23" y="1212.21" style="font-family:'Helvetica';font-size:79.94px;fill:#000000" text-anchor="end">0.007</text>
	<line x1="619.12" y1="1032.48" x2="579.15" y2="1032.48" style="stroke:#000000;stroke-width:5.76"/>
	<text x="559.23" y="1060.49" style="font-family:'Helvetica';font-size:79.94px;fill:#000000" text-anchor="end">0.008</text>
	<line x1="619.12" y1="880.88" x2="579.15" y2="880.88" style="stroke:#000000;stroke-width:5.76"/>
	<text x="559.23" y="908.89" style="font-family:'Helvetica';font-size:79.94px;fill:#000000" text-anchor="end">0.009</text>
	<line x1="619.12" y1="729.16" x2="579.15" y2="729.16" style="stroke:#000000;stroke-width:5.76"/>
	<text x="559.23" y="757.17" style="font-family:'Helvetica';font-size:79.94px;fill:#000000" text-anchor="end">0.010</text>
	<line x1="619.12" y1="2309.25" x2="3840.83" y2="2309.25" style="stroke:#000000;stroke-width:5.76"/>
	<line x1="682.48" y1="2309.25" x2="682.48" y2="2349.22" style="stroke:#000000;stroke-width:5.76"/>
	<text x="682.48" y="2425.17" style="font-family:'Helvetica';font-size:79.94px;fill:#000000" text-anchor="middle">0</text>
	<line x1="1069.45" y1="2309.25" x2="1069.45" y2="2349.22" style="stroke:#000000;stroke-width:5.76"/>
	<text x="1069.45" y="2425.17" style="font-family:'Helvetica';font-size:79.94px;fill:#000000" text-anchor="middle">20</text>
	<line x1="1456.29" y1="2309.25" x2="1456.29" y2="2349.22" style="stroke:#000000;stroke-width:5.76"/>
	<text x="1456.29" y="2425.17" style="font-family:'Helvetica';font-size:79.94px;fill:#000000" text-anchor="middle">40</text>
	<line x1="1843.13" y1="2309.25" x2="1843.13" y2="2349.22" style="stroke:#000000;stroke-width:5.76"/>
	<text x="1843.13" y="2425.17" style="font-family:'Helvetica';font-size:79.94px;fill:#000000" text-anchor="middle">60</text>
	<line x1="2229.97" y1="2309.25" x2="2229.97" y2="2349.22" style="stroke:#000000;stroke-width:5.76"/>
	<text x="2229.97" y="2425.17" style="font-family:'Helvetica';font-size:79.94px;fill:#000000" text-anchor="middle">80</text>
	<line x1="2616.82" y1="2309.25" x2="2616.82" y2="2349.22" style="stroke:#000000;stroke-width:5.76"/>
	<text x="2616.82" y="2425.17" style="font-family:'Helvetica';font-size:79.94px;fill:#000000" text-anchor="middle">100</text>
	<line x1="3003.66" y1="2309.25" x2="3003.66" y2="2349.22" style="stroke:#000000;stroke-width:5.76"/>
	<text x="3003.66" y="2425.17" style="font-family:'Helvetica';font-size:79.94px;fill:#000000" text-anchor="middle">120</text>
	<line x1="3390.63" y1="2309.25" x2="3390.63" y2="2349.22" style="stroke:#000000;stroke-width:5.76"/>
	<text x="3390.63" y="2425.17" style="font-family:'Helvetica';font-size:79.94px;fill:#000000" text-anchor="middle">140</text>
	<line x1="3777.47" y1="2309.25" x2="3777.47" y2="2349.22" style="stroke:#000000;stroke-width:5.76"/>
	<text x="3777.47" y="2425.17" style="font-family:'Helvetica';font-size:79.94px;fill:#000000" text-anchor="middle">160</text>
	<text x="2229.97" y="2515.14" style="font-family:'Helvetica';font-size:79.94px;fill:#000000" text-anchor="middle">Days since 1 Mar 2020</text>
	<text x="682.48" y="2747.83" style="font-family:'Helvetica';font-size:60.02px;fill:#000000" text-anchor="middle">30512</text>
	<text x="1069.45" y="2747.83" style="font-family:'Helvetica';font-size:60.02px;fill:#000000" text-anchor="middle">30482</text>
	<text x="1456.29" y="2747.83" style="font-family:'Helvetica';font-size:60.02px;fill:#000000" text-anchor="middle">30429</text>
	<text x="1843.13" y="2747.83" style="font-family:'Helvetica';font-size:60.02px;fill:#000000" text-anchor="middle">30347</text>
	<text x="2229.97" y="2747.83" style="font-family:'Helvetica';font-size:60.02px;fill:#000000" text-anchor="middle">30307</text>
	<text x="2616.82" y="2747.83" style="font-family:'Helvetica';font-size:60.02px;fill:#000000" text-anchor="middle">30265</text>
	<text x="3003.66" y="2747.83" style="font-family:'Helvetica';font-size:60.02px;fill:#000000" text-anchor="middle">30231</text>
	<text x="3390.63" y="2747.83" style="font-family:'Helvetica';font-size:60.02px;fill:#000000" text-anchor="middle">0</text>
	<text x="3777.47" y="2747.83" style="font-family:'Helvetica';font-size:60.02px;fill:#000000" text-anchor="middle">0</text>
	<text x="527.79" y="2747.83" style="font-family:'Helvetica';font-size:60.02px;fill:#000000" text-anchor="end">HCQ</text>
	<text x="682.48" y="2674.44" style="font-family:'Helvetica';font-size:60.02px;fill:#000000" text-anchor="middle">163774</text>
	<text x="1069.45" y="2674.44" style="font-family:'Helvetica';font-size:60.02px;fill:#000000" text-anchor="middle">162576</text>
	<text x="1456.29" y="2674.44" style="font-family:'Helvetica';font-size:60.02px;fill:#000000" text-anchor="middle">161444</text>
	<text x="1843.13" y="2674.44" style="font-family:'Helvetica';font-size:60.02px;fill:#000000" text-anchor="middle">160564</text>
	<text x="2229.97" y="2674.44" style="font-family:'Helvetica';font-size:60.02px;fill:#000000" text-anchor="middle">159897</text>
	<text x="2616.82" y="2674.44" style="font-family:'Helvetica';font-size:60.02px;fill:#000000" text-anchor="middle">159384</text>
	<text x="3003.66" y="2674.44" style="font-family:'Helvetica';font-size:60.02px;fill:#000000" text-anchor="middle">158949</text>
	<text x="3390.63" y="2674.44" style="font-family:'Helvetica';font-size:60.02px;fill:#000000" text-anchor="middle">0</text>
	<text x="3777.47" y="2674.44" style="font-family:'Helvetica';font-size:60.02px;fill:#000000" text-anchor="middle">0</text>
	<text x="527.79" y="2674.44" style="font-family:'Helvetica';font-size:60.02px;fill:#000000" text-anchor="end">No HCQ</text>
	<text x="527.79" y="2601.18" style="font-family:'Helvetica';font-size:60.02px;fill:#000000" text-anchor="end">Number at risk</text>
	<rect x="1167.95" y="269.91" width="2124.05" height="326.46" style="fill:#FFFFFF"/>
	<rect x="1170.83" y="272.79" width="2118.29" height="320.70" style="fill:none;stroke:#EAF2F3;stroke-width:5.76"/>
	<rect x="1211.14" y="313.10" width="374.34" height="99.99" style="fill:#DDE3E9"/>
	<rect x="1215.46" y="317.42" width="365.70" height="91.35" style="fill:none;stroke:#DDE3E9;stroke-width:8.64"/>
	<rect x="2349.02" y="313.10" width="374.34" height="99.99" style="fill:#EEE1E2"/>
	<rect x="2353.34" y="317.42" width="365.70" height="91.35" style="fill:none;stroke:#EEE1E2;stroke-width:8.64"/>
	<line x1="1211.14" y1="503.06" x2="1585.48" y2="503.06" style="stroke:#1A476F;stroke-width:8.64"/>
	<line x1="2349.02" y1="503.06" x2="2723.37" y2="503.06" style="stroke:#90353B;stroke-width:8.64"/>
	<text x="1645.50" y="384.13" style="font-family:'Helvetica';font-size:60.02px;fill:#000000">No HCQ</text>
	<text x="2783.39" y="384.13" style="font-family:'Helvetica';font-size:60.02px;fill:#000000">95% CI</text>
	<text x="1645.50" y="524.10" style="font-family:'Helvetica';font-size:60.02px;fill:#000000">exposure = No HCQ</text>
	<text x="2783.39" y="524.10" style="font-family:'Helvetica';font-size:60.02px;fill:#000000">exposure = HCQ</text>
	<text x="1357.91" y="187.99" style="font-family:'Helvetica';font-size:99.99px;fill:#1E2D53">Time to Non COVID-19 Death in ONS</text>
</svg>
