<?xml version="1.0" encoding="UTF-8" standalone="no"?>
<!-- This is a Stata 16.1 generated SVG file (http://www.stata.com) -->

<svg version="1.1" width="5.50in" height="4.00in" viewBox="0 0 3960 2880" xmlns="http://www.w3.org/2000/svg" xmlns:xlink="http://www.w3.org/1999/xlink">
	<desc>Stata Graph - Graph</desc>
	<rect x="0" y="0" width="3960" height="2880" style="fill:#EAF2F3;stroke:none"/>
	<rect x="0.00" y="0.00" width="3959.88" height="2880.00" style="fill:#FFFFFF"/>
	<rect x="2.88" y="2.88" width="3954.12" height="2874.24" style="fill:none;stroke:#EAF2F3;stroke-width:5.76"/>
	<rect x="619.12" y="630.90" width="3221.71" height="1678.35" style="fill:#FFFFFF"/>
	<rect x="622.00" y="633.78" width="3215.95" height="1672.59" style="fill:none;stroke:#FFFFFF;stroke-width:5.76"/>
	<line x1="619.12" y1="2245.89" x2="3840.83" y2="2245.89" style="stroke:#EAF2F3;stroke-width:8.64"/>
	<line x1="619.12" y1="2110.25" x2="3840.83" y2="2110.25" style="stroke:#EAF2F3;stroke-width:8.64"/>
	<line x1="619.12" y1="1974.62" x2="3840.83" y2="1974.62" style="stroke:#EAF2F3;stroke-width:8.64"/>
	<line x1="619.12" y1="1838.98" x2="3840.83" y2="1838.98" style="stroke:#EAF2F3;stroke-width:8.64"/>
	<line x1="619.12" y1="1703.35" x2="3840.83" y2="1703.35" style="stroke:#EAF2F3;stroke-width:8.64"/>
	<line x1="619.12" y1="1567.71" x2="3840.83" y2="1567.71" style="stroke:#EAF2F3;stroke-width:8.64"/>
	<line x1="619.12" y1="1432.08" x2="3840.83" y2="1432.08" style="stroke:#EAF2F3;stroke-width:8.64"/>
	<line x1="619.12" y1="1296.45" x2="3840.83" y2="1296.45" style="stroke:#EAF2F3;stroke-width:8.64"/>
	<line x1="619.12" y1="1160.81" x2="3840.83" y2="1160.81" style="stroke:#EAF2F3;stroke-width:8.64"/>
	<line x1="619.12" y1="1025.18" x2="3840.83" y2="1025.18" style="stroke:#EAF2F3;stroke-width:8.64"/>
	<line x1="619.12" y1="889.42" x2="3840.83" y2="889.42" style="stroke:#EAF2F3;stroke-width:8.64"/>
	<defs>
		<path id="path_BIsBbfHN" d="M692.13 2239.70 L692.13 2239.70 L701.91 2239.70 L701.91 2228.56 L721.22 2228.56 L721.22 2216.68 L740.52 2216.68 L740.52 2208.76 L759.95 2208.76 L759.95 2200.10 L779.25 2200.10 L779.25 2188.34 L798.56 2188.34 L798.56 2174.85 L817.86 2174.85 L817.86 2165.82 L837.29 2165.82 L837.29 2153.07 L856.60 2153.07 L856.60 2138.59 L875.90 2138.59 L875.90 2128.69 L895.33 2128.69 L895.33 2121.76 L914.64 2121.76 L914.64 2110.99 L933.94 2110.99 L933.94 2094.78 L953.37 2094.78 L953.37 2081.54 L972.67 2081.54 L972.67 2069.91 L991.98 2069.91 L991.98 2056.67 L1011.41 2056.67 L1011.41 2045.03 L1030.71 2045.03 L1030.71 2033.28 L1050.02 2033.28 L1050.02 2022.26 L1069.45 2022.26 L1069.45 2014.47 L1088.75 2014.47 L1088.75 2006.67 L1108.06 2006.67 L1108.06 1994.79 L1127.36 1994.79 L1127.36 1981.42 L1146.79 1981.42 L1146.79 1968.80 L1166.10 1968.80 L1166.10 1956.92 L1185.40 1956.92 L1185.40 1942.69 L1204.83 1942.69 L1204.83 1927.59 L1224.13 1927.59 L1224.13 1910.14 L1243.44 1910.14 L1243.44 1897.39 L1262.87 1897.39 L1262.87 1882.30 L1282.17 1882.30 L1282.17 1877.47 L1301.48 1877.47 L1301.48 1862.37 L1320.91 1862.37 L1320.91 1851.98 L1340.21 1851.98 L1340.21 1839.23 L1359.52 1839.23 L1359.52 1824.01 L1378.82 1824.01 L1378.82 1812.75 L1398.25 1812.75 L1398.25 1803.96 L1417.56 1803.96 L1417.56 1796.78 L1436.86 1796.78 L1436.86 1780.69 L1456.29 1780.69 L1456.29 1768.69 L1475.60 1768.69 L1475.60 1755.08 L1494.90 1755.08 L1494.90 1739.73 L1514.33 1739.73 L1514.33 1728.47 L1533.63 1728.47 L1533.63 1722.04 L1552.94 1722.04 L1552.94 1707.56 L1572.37 1707.56 L1572.37 1693.94 L1591.67 1693.94 L1591.67 1680.95 L1610.98 1680.95 L1610.98 1670.55 L1630.28 1670.55 L1630.28 1659.17 L1649.71 1659.17 L1649.71 1648.77 L1669.02 1648.77 L1669.02 1637.39 L1688.32 1637.39 L1688.32 1617.96 L1707.75 1617.96 L1707.75 1603.48 L1727.06 1603.48 L1727.06 1590.48 L1746.36 1590.48 L1746.36 1576.75 L1765.79 1576.75 L1765.79 1569.45 L1785.09 1569.45 L1785.09 1562.15 L1804.40 1562.15 L1804.40 1554.84 L1823.83 1554.84 L1823.83 1552.37 L1843.13 1552.37 L1843.13 1542.72 L1862.44 1542.72 L1862.44 1534.55 L1881.74 1534.55 L1881.74 1524.77 L1901.17 1524.77 L1901.17 1512.64 L1920.48 1512.64 L1920.48 1500.39 L1939.78 1500.39 L1939.78 1485.05 L1959.21 1485.05 L1959.21 1473.66 L1978.52 1473.66 L1978.52 1460.54 L1997.82 1460.54 L1997.82 1450.02 L2017.25 1450.02 L2017.25 1438.64 L2036.55 1438.64 L2036.55 1428.00 L2055.86 1428.00 L2055.86 1420.69 L2075.29 1420.69 L2075.29 1411.78 L2094.59 1411.78 L2094.59 1404.36 L2113.90 1404.36 L2113.90 1391.36 L2133.20 1391.36 L2133.20 1380.72 L2152.63 1380.72 L2152.63 1370.95 L2171.94 1370.95 L2171.94 1366.12 L2191.24 1366.12 L2191.24 1354.61 L2210.67 1354.61 L2210.67 1344.09 L2229.97 1344.09 L2229.97 1334.19 L2249.28 1334.19 L2249.28 1320.33 L2268.71 1320.33 L2268.71 1317.85 L2288.01 1317.85 L2288.01 1311.30 L2307.32 1311.30 L2307.32 1302.39 L2326.75 1302.39 L2326.75 1290.88 L2346.05 1290.88 L2346.05 1281.10 L2365.36 1281.10 L2365.36 1269.59 L2384.79 1269.59 L2384.79 1260.68 L2404.09 1260.68 L2404.09 1250.78 L2423.40 1250.78 L2423.40 1241.87 L2442.70 1241.87 L2442.70 1235.31 L2462.13 1235.31 L2462.13 1231.23 L2481.43 1231.23 L2481.43 1223.80 L2500.74 1223.80 L2500.74 1209.08 L2520.17 1209.08 L2520.17 1200.91 L2539.47 1200.91 L2539.47 1190.26 L2558.78 1190.26 L2558.78 1184.45 L2578.21 1184.45 L2578.21 1171.33 L2597.51 1171.33 L2597.51 1164.77 L2616.82 1164.77 L2616.82 1152.52 L2636.25 1152.52 L2636.25 1145.09 L2655.55 1145.09 L2655.55 1133.59 L2674.86 1133.59 L2674.86 1127.03 L2694.16 1127.03 L2694.16 1119.60 L2713.59 1119.60 L2713.59 1113.04 L2732.89 1113.04 L2732.89 1103.27 L2752.20 1103.27 L2752.20 1094.23 L2771.63 1094.23 L2771.63 1085.20 L2790.93 1085.20 L2790.93 1075.30 L2810.24 1075.30 L2810.24 1063.79 L2829.67 1063.79 L2829.67 1056.36 L2848.97 1056.36 L2848.97 1050.67 L2868.28 1050.67 L2868.28 1039.90 L2887.71 1039.90 L2887.71 1030.87 L2907.01 1030.87 L2907.01 1021.84 L2926.32 1021.84 L2926.32 1003.77 L2945.62 1003.77 L2945.62 993.87 L2965.05 993.87 L2965.05 986.44 L2984.36 986.44 L2984.36 977.41 L3003.66 977.41 L3003.66 965.03 L3023.09 965.03 L3023.09 957.73 L3042.39 957.73 L3042.39 947.83 L3061.70 947.83 L3061.70 933.85 L3081.13 933.85 L3081.13 928.03 L3100.43 928.03 L3100.43 919.00 L3119.74 919.00 L3119.74 909.10 L3139.17 909.10 L3139.17 900.06 L3158.47 900.06 L3158.47 889.30 L3177.78 889.30 L3177.78 880.26 L3197.08 880.26 L3197.08 868.75 L3216.51 868.75 L3216.51 863.80 L3235.82 863.80 L3235.82 852.17 L3255.12 852.17 L3255.12 842.27 L3274.55 842.27 L3274.55 831.63 L3274.55 694.26 L3274.55 705.52 L3255.12 705.52 L3255.12 715.79 L3235.82 715.79 L3235.82 727.92 L3216.51 727.92 L3216.51 733.12 L3197.08 733.12 L3197.08 745.25 L3177.78 745.25 L3177.78 754.65 L3158.47 754.65 L3158.47 765.91 L3139.17 765.91 L3139.17 775.44 L3119.74 775.44 L3119.74 785.84 L3100.43 785.84 L3100.43 795.37 L3081.13 795.37 L3081.13 801.31 L3061.70 801.31 L3061.70 816.03 L3042.39 816.03 L3042.39 826.43 L3023.09 826.43 L3023.09 834.22 L3003.66 834.22 L3003.66 847.22 L2984.36 847.22 L2984.36 856.62 L2965.05 856.62 L2965.05 864.42 L2945.62 864.42 L2945.62 874.82 L2926.32 874.82 L2926.32 893.87 L2907.01 893.87 L2907.01 903.40 L2887.71 903.40 L2887.71 912.81 L2868.28 912.81 L2868.28 924.07 L2848.97 924.07 L2848.97 930.13 L2829.67 930.13 L2829.67 937.93 L2810.24 937.93 L2810.24 950.06 L2790.93 950.06 L2790.93 960.45 L2771.63 960.45 L2771.63 969.86 L2752.20 969.86 L2752.20 979.39 L2732.89 979.39 L2732.89 989.78 L2713.59 989.78 L2713.59 996.71 L2694.16 996.71 L2694.16 1004.51 L2674.86 1004.51 L2674.86 1011.44 L2655.55 1011.44 L2655.55 1023.57 L2636.25 1023.57 L2636.25 1031.24 L2616.82 1031.24 L2616.82 1044.24 L2597.51 1044.24 L2597.51 1051.17 L2578.21 1051.17 L2578.21 1065.03 L2558.78 1065.03 L2558.78 1071.09 L2539.47 1071.09 L2539.47 1082.35 L2520.17 1082.35 L2520.17 1091.01 L2500.74 1091.01 L2500.74 1106.48 L2481.43 1106.48 L2481.43 1114.28 L2462.13 1114.28 L2462.13 1118.61 L2442.70 1118.61 L2442.70 1125.54 L2423.40 1125.54 L2423.40 1135.07 L2404.09 1135.07 L2404.09 1145.47 L2384.79 1145.47 L2384.79 1154.99 L2365.36 1154.99 L2365.36 1167.12 L2346.05 1167.12 L2346.05 1177.39 L2326.75 1177.39 L2326.75 1189.52 L2307.32 1189.52 L2307.32 1199.05 L2288.01 1199.05 L2288.01 1205.98 L2268.71 1205.98 L2268.71 1208.58 L2249.28 1208.58 L2249.28 1223.31 L2229.97 1223.31 L2229.97 1233.70 L2210.67 1233.70 L2210.67 1244.96 L2191.24 1244.96 L2191.24 1257.09 L2171.94 1257.09 L2171.94 1262.17 L2152.63 1262.17 L2152.63 1272.56 L2133.20 1272.56 L2133.20 1283.82 L2113.90 1283.82 L2113.90 1297.68 L2094.59 1297.68 L2094.59 1305.48 L2075.29 1305.48 L2075.29 1315.01 L2055.86 1315.01 L2055.86 1322.81 L2036.55 1322.81 L2036.55 1334.07 L2017.25 1334.07 L2017.25 1346.19 L1997.82 1346.19 L1997.82 1357.46 L1978.52 1357.46 L1978.52 1371.32 L1959.21 1371.32 L1959.21 1383.32 L1939.78 1383.32 L1939.78 1399.78 L1920.48 1399.78 L1920.48 1412.77 L1901.17 1412.77 L1901.17 1425.77 L1881.74 1425.77 L1881.74 1436.16 L1862.44 1436.16 L1862.44 1444.83 L1843.13 1444.83 L1843.13 1455.22 L1823.83 1455.22 L1823.83 1457.82 L1804.40 1457.82 L1804.40 1465.62 L1785.09 1465.62 L1785.09 1473.41 L1765.79 1473.41 L1765.79 1481.21 L1746.36 1481.21 L1746.36 1495.94 L1727.06 1495.94 L1727.06 1509.80 L1707.75 1509.80 L1707.75 1525.39 L1688.32 1525.39 L1688.32 1546.18 L1669.02 1546.18 L1669.02 1558.31 L1649.71 1558.31 L1649.71 1569.57 L1630.28 1569.57 L1630.28 1581.70 L1610.98 1581.70 L1610.98 1592.96 L1591.67 1592.96 L1591.67 1606.94 L1572.37 1606.94 L1572.37 1621.67 L1552.94 1621.67 L1552.94 1637.26 L1533.63 1637.26 L1533.63 1644.19 L1514.33 1644.19 L1514.33 1656.32 L1494.90 1656.32 L1494.90 1672.78 L1475.60 1672.78 L1475.60 1687.63 L1456.29 1687.63 L1456.29 1700.63 L1436.86 1700.63 L1436.86 1717.95 L1417.56 1717.95 L1417.56 1725.87 L1398.25 1725.87 L1398.25 1735.40 L1378.82 1735.40 L1378.82 1747.53 L1359.52 1747.53 L1359.52 1764.11 L1340.21 1764.11 L1340.21 1777.97 L1320.91 1777.97 L1320.91 1789.36 L1301.48 1789.36 L1301.48 1805.82 L1282.17 1805.82 L1282.17 1811.14 L1262.87 1811.14 L1262.87 1827.60 L1243.44 1827.60 L1243.44 1841.58 L1224.13 1841.58 L1224.13 1860.76 L1204.83 1860.76 L1204.83 1877.35 L1185.40 1877.35 L1185.40 1893.06 L1166.10 1893.06 L1166.10 1906.18 L1146.79 1906.18 L1146.79 1920.17 L1127.36 1920.17 L1127.36 1935.14 L1108.06 1935.14 L1108.06 1948.26 L1088.75 1948.26 L1088.75 1957.04 L1069.45 1957.04 L1069.45 1965.83 L1050.02 1965.83 L1050.02 1978.08 L1030.71 1978.08 L1030.71 1991.32 L1011.41 1991.32 L1011.41 2004.44 L991.98 2004.44 L991.98 2019.42 L972.67 2019.42 L972.67 2032.66 L953.37 2032.66 L953.37 2047.76 L933.94 2047.76 L933.94 2066.32 L914.64 2066.32 L914.64 2078.82 L895.33 2078.82 L895.33 2086.86 L875.90 2086.86 L875.90 2098.37 L856.60 2098.37 L856.60 2115.45 L837.29 2115.45 L837.29 2130.79 L817.86 2130.79 L817.86 2141.56 L798.56 2141.56 L798.56 2158.02 L779.25 2158.02 L779.25 2172.75 L759.95 2172.75 L759.95 2183.88 L740.52 2183.88 L740.52 2194.16 L721.22 2194.16 L721.22 2210.37 L701.91 2210.37 L701.91 2227.45 L692.13 2227.45 L692.13 2239.70 Z" stroke-linejoin="round"/>
	</defs>
	<defs>
		<clipPath id="clipPath_LIrsHhlY">
			<use xlink:href="#path_BIsBbfHN"/>
		</clipPath>
	</defs>
	<use xlink:href="#path_BIsBbfHN" style="stroke:none;fill:#DDE3E9"/>
	<use xlink:href="#path_BIsBbfHN" style="fill:none;stroke:#DDE3E9;stroke-width:17.28" clip-path="url(#clipPath_LIrsHhlY)"/>
	<path d=" M692.13 2239.70 L701.79 2239.70 L701.79 2228.56 L721.09 2228.56 L721.09 2216.80 L740.52 2216.80 L740.52 2208.88 L759.83 2208.88 L759.83 2200.10 L779.13 2200.10 L779.13 2188.34 L798.56 2188.34 L798.56 2174.97 L817.86 2174.97 L817.86 2165.94 L837.17 2165.94 L837.17 2153.07 L856.60 2153.07 L856.60 2138.59 L875.90 2138.59 L875.90 2128.69 L895.21 2128.69 L895.21 2121.76 L914.64 2121.76 L914.64 2110.99 L933.94 2110.99 L933.94 2094.78 L953.25 2094.78 L953.25 2081.66 L972.55 2081.66 L972.55 2070.03 L991.98 2070.03 L991.98 2056.79 L1011.28 2056.79 L1011.28 2045.03 L1030.59 2045.03 L1030.59 2033.40 L1050.02 2033.40 L1050.02 2022.39 L1069.32 2022.39 L1069.32 2014.59 L1088.63 2014.59 L1088.63 2006.67 L1108.06 2006.67 L1108.06 1994.91 L1127.36 1994.91 L1127.36 1981.42 L1146.67 1981.42 L1146.67 1968.80 L1166.10 1968.80 L1166.10 1956.92 L1185.40 1956.92 L1185.40 1942.69 L1204.71 1942.69 L1204.71 1927.71 L1224.01 1927.71 L1224.01 1910.14 L1243.44 1910.14 L1243.44 1897.52 L1262.74 1897.52 L1262.74 1882.30 L1282.05 1882.30 L1282.05 1877.59 L1301.48 1877.59 L1301.48 1862.37 L1320.78 1862.37 L1320.78 1852.10 L1340.09 1852.10 L1340.09 1839.23 L1359.52 1839.23 L1359.52 1824.01 L1378.82 1824.01 L1378.82 1812.87 L1398.13 1812.87 L1398.13 1804.08 L1417.56 1804.08 L1417.56 1796.91 L1436.86 1796.91 L1436.86 1780.82 L1456.17 1780.82 L1456.17 1768.81 L1475.47 1768.81 L1475.47 1755.08 L1494.90 1755.08 L1494.90 1739.86 L1514.20 1739.86 L1514.20 1728.59 L1533.51 1728.59 L1533.51 1722.16 L1552.94 1722.16 L1552.94 1707.68 L1572.24 1707.68 L1572.24 1693.94 L1591.55 1693.94 L1591.55 1681.07 L1610.98 1681.07 L1610.98 1670.55 L1630.28 1670.55 L1630.28 1659.29 L1649.59 1659.29 L1649.59 1648.77 L1669.02 1648.77 L1669.02 1637.51 L1688.32 1637.51 L1688.32 1618.08 L1707.63 1618.08 L1707.63 1603.48 L1727.06 1603.48 L1727.06 1590.61 L1746.36 1590.61 L1746.36 1576.75 L1765.66 1576.75 L1765.66 1569.45 L1784.97 1569.45 L1784.97 1562.15 L1804.40 1562.15 L1804.40 1554.97 L1823.70 1554.97 L1823.70 1552.49 L1843.01 1552.49 L1843.01 1542.72 L1862.44 1542.72 L1862.44 1534.67 L1881.74 1534.67 L1881.74 1524.90 L1901.05 1524.90 L1901.05 1512.64 L1920.48 1512.64 L1920.48 1500.52 L1939.78 1500.52 L1939.78 1485.05 L1959.09 1485.05 L1959.09 1473.66 L1978.52 1473.66 L1978.52 1460.67 L1997.82 1460.67 L1997.82 1450.02 L2017.13 1450.02 L2017.13 1438.64 L2036.43 1438.64 L2036.43 1428.12 L2055.86 1428.12 L2055.86 1420.82 L2075.16 1420.82 L2075.16 1411.78 L2094.47 1411.78 L2094.47 1404.48 L2113.90 1404.48 L2113.90 1391.36 L2133.20 1391.36 L2133.20 1380.85 L2152.51 1380.85 L2152.51 1371.07 L2171.94 1371.07 L2171.94 1366.12 L2191.24 1366.12 L2191.24 1354.73 L2210.55 1354.73 L2210.55 1344.09 L2229.97 1344.09 L2229.97 1334.31 L2249.28 1334.31 L2249.28 1320.45 L2268.59 1320.45 L2268.59 1317.98 L2287.89 1317.98 L2287.89 1311.42 L2307.32 1311.42 L2307.32 1302.39 L2326.62 1302.39 L2326.62 1291.00 L2345.93 1291.00 L2345.93 1281.22 L2365.36 1281.22 L2365.36 1269.71 L2384.66 1269.71 L2384.66 1260.68 L2403.97 1260.68 L2403.97 1250.90 L2423.40 1250.90 L2423.40 1241.87 L2442.70 1241.87 L2442.70 1235.31 L2462.01 1235.31 L2462.01 1231.23 L2481.43 1231.23 L2481.43 1223.93 L2500.74 1223.93 L2500.74 1209.08 L2520.05 1209.08 L2520.05 1200.91 L2539.35 1200.91 L2539.35 1190.26 L2558.78 1190.26 L2558.78 1184.57 L2578.08 1184.57 L2578.08 1171.45 L2597.39 1171.45 L2597.39 1164.90 L2616.82 1164.90 L2616.82 1152.52 L2636.12 1152.52 L2636.12 1145.22 L2655.43 1145.22 L2655.43 1133.71 L2674.86 1133.71 L2674.86 1127.15 L2694.16 1127.15 L2694.16 1119.72 L2713.47 1119.72 L2713.47 1113.17 L2732.89 1113.17 L2732.89 1103.27 L2752.20 1103.27 L2752.20 1094.23 L2771.51 1094.23 L2771.51 1085.20 L2790.81 1085.20 L2790.81 1075.42 L2810.24 1075.42 L2810.24 1063.91 L2829.54 1063.91 L2829.54 1056.49 L2848.85 1056.49 L2848.85 1050.67 L2868.28 1050.67 L2868.28 1040.03 L2887.58 1040.03 L2887.58 1030.99 L2906.89 1030.99 L2906.89 1021.96 L2926.32 1021.96 L2926.32 1003.89 L2945.62 1003.89 L2945.62 993.99 L2964.93 993.99 L2964.93 986.57 L2984.36 986.57 L2984.36 977.53 L3003.66 977.53 L3003.66 965.16 L3022.97 965.16 L3022.97 957.73 L3042.39 957.73 L3042.39 947.83 L3061.70 947.83 L3061.70 933.85 L3081.00 933.85 L3081.00 928.15 L3100.31 928.15 L3100.31 919.00 L3119.74 919.00 L3119.74 909.10 L3139.04 909.10 L3139.04 900.06 L3158.35 900.06 L3158.35 889.42 L3177.78 889.42 L3177.78 880.26 L3197.08 880.26 L3197.08 868.75 L3216.39 868.75 L3216.39 863.80 L3235.82 863.80 L3235.82 852.29 L3255.12 852.29 L3255.12 842.39 L3274.43 842.39 L3274.43 831.63" stroke-linejoin="round" style="fill:none;stroke:#8DA3B7;stroke-width:8.64"/>
	<path d=" M692.13 2227.45 L701.79 2227.45 L701.79 2210.49 L721.09 2210.49 L721.09 2194.28 L740.52 2194.28 L740.52 2183.88 L759.83 2183.88 L759.83 2172.75 L779.13 2172.75 L779.13 2158.02 L798.56 2158.02 L798.56 2141.68 L817.86 2141.68 L817.86 2130.79 L837.17 2130.79 L837.17 2115.45 L856.60 2115.45 L856.60 2098.49 L875.90 2098.49 L875.90 2086.86 L895.21 2086.86 L895.21 2078.82 L914.64 2078.82 L914.64 2066.44 L933.94 2066.44 L933.94 2047.76 L953.25 2047.76 L953.25 2032.78 L972.55 2032.78 L972.55 2019.54 L991.98 2019.54 L991.98 2004.57 L1011.28 2004.57 L1011.28 1991.32 L1030.59 1991.32 L1030.59 1978.21 L1050.02 1978.21 L1050.02 1965.83 L1069.32 1965.83 L1069.32 1957.04 L1088.63 1957.04 L1088.63 1948.26 L1108.06 1948.26 L1108.06 1935.14 L1127.36 1935.14 L1127.36 1920.29 L1146.67 1920.29 L1146.67 1906.30 L1166.10 1906.30 L1166.10 1893.19 L1185.40 1893.19 L1185.40 1877.47 L1204.71 1877.47 L1204.71 1860.89 L1224.01 1860.89 L1224.01 1841.58 L1243.44 1841.58 L1243.44 1827.72 L1262.74 1827.72 L1262.74 1811.14 L1282.05 1811.14 L1282.05 1805.94 L1301.48 1805.94 L1301.48 1789.36 L1320.78 1789.36 L1320.78 1778.10 L1340.09 1778.10 L1340.09 1764.11 L1359.52 1764.11 L1359.52 1747.65 L1378.82 1747.65 L1378.82 1735.40 L1398.13 1735.40 L1398.13 1725.87 L1417.56 1725.87 L1417.56 1718.07 L1436.86 1718.07 L1436.86 1700.63 L1456.17 1700.63 L1456.17 1687.63 L1475.47 1687.63 L1475.47 1672.90 L1494.90 1672.90 L1494.90 1656.45 L1514.20 1656.45 L1514.20 1644.19 L1533.51 1644.19 L1533.51 1637.26 L1552.94 1637.26 L1552.94 1621.67 L1572.24 1621.67 L1572.24 1606.94 L1591.55 1606.94 L1591.55 1593.08 L1610.98 1593.08 L1610.98 1581.82 L1630.28 1581.82 L1630.28 1569.69 L1649.59 1569.69 L1649.59 1558.43 L1669.02 1558.43 L1669.02 1546.30 L1688.32 1546.30 L1688.32 1525.51 L1707.63 1525.51 L1707.63 1509.92 L1727.06 1509.92 L1727.06 1496.06 L1746.36 1496.06 L1746.36 1481.33 L1765.66 1481.33 L1765.66 1473.54 L1784.97 1473.54 L1784.97 1465.74 L1804.40 1465.74 L1804.40 1457.94 L1823.70 1457.94 L1823.70 1455.35 L1843.01 1455.35 L1843.01 1444.95 L1862.44 1444.95 L1862.44 1436.29 L1881.74 1436.29 L1881.74 1425.89 L1901.05 1425.89 L1901.05 1412.90 L1920.48 1412.90 L1920.48 1399.90 L1939.78 1399.90 L1939.78 1383.44 L1959.09 1383.44 L1959.09 1371.32 L1978.52 1371.32 L1978.52 1357.46 L1997.82 1357.46 L1997.82 1346.19 L2017.13 1346.19 L2017.13 1334.07 L2036.43 1334.07 L2036.43 1322.81 L2055.86 1322.81 L2055.86 1315.01 L2075.16 1315.01 L2075.16 1305.60 L2094.47 1305.60 L2094.47 1297.81 L2113.90 1297.81 L2113.90 1283.95 L2133.20 1283.95 L2133.20 1272.68 L2152.51 1272.68 L2152.51 1262.29 L2171.94 1262.29 L2171.94 1257.09 L2191.24 1257.09 L2191.24 1244.96 L2210.55 1244.96 L2210.55 1233.70 L2229.97 1233.70 L2229.97 1223.31 L2249.28 1223.31 L2249.28 1208.70 L2268.59 1208.70 L2268.59 1206.11 L2287.89 1206.11 L2287.89 1199.17 L2307.32 1199.17 L2307.32 1189.65 L2326.62 1189.65 L2326.62 1177.52 L2345.93 1177.52 L2345.93 1167.12 L2365.36 1167.12 L2365.36 1154.99 L2384.66 1154.99 L2384.66 1145.47 L2403.97 1145.47 L2403.97 1135.07 L2423.40 1135.07 L2423.40 1125.67 L2442.70 1125.67 L2442.70 1118.73 L2462.01 1118.73 L2462.01 1114.40 L2481.43 1114.40 L2481.43 1106.61 L2500.74 1106.61 L2500.74 1091.01 L2520.05 1091.01 L2520.05 1082.35 L2539.35 1082.35 L2539.35 1071.09 L2558.78 1071.09 L2558.78 1065.03 L2578.08 1065.03 L2578.08 1051.29 L2597.39 1051.29 L2597.39 1044.36 L2616.82 1044.36 L2616.82 1031.36 L2636.12 1031.36 L2636.12 1023.57 L2655.43 1023.57 L2655.43 1011.44 L2674.86 1011.44 L2674.86 1004.51 L2694.16 1004.51 L2694.16 996.71 L2713.47 996.71 L2713.47 989.91 L2732.89 989.91 L2732.89 979.51 L2752.20 979.51 L2752.20 969.98 L2771.51 969.98 L2771.51 960.45 L2790.81 960.45 L2790.81 950.06 L2810.24 950.06 L2810.24 937.93 L2829.54 937.93 L2829.54 930.26 L2848.85 930.26 L2848.85 924.19 L2868.28 924.19 L2868.28 912.93 L2887.58 912.93 L2887.58 903.40 L2906.89 903.40 L2906.89 893.87 L2926.32 893.87 L2926.32 874.94 L2945.62 874.94 L2945.62 864.54 L2964.93 864.54 L2964.93 856.75 L2984.36 856.75 L2984.36 847.22 L3003.66 847.22 L3003.66 834.22 L3022.97 834.22 L3022.97 826.43 L3042.39 826.43 L3042.39 816.16 L3061.70 816.16 L3061.70 801.43 L3081.00 801.43 L3081.00 795.37 L3100.31 795.37 L3100.31 785.84 L3119.74 785.84 L3119.74 775.57 L3139.04 775.57 L3139.04 766.04 L3158.35 766.04 L3158.35 754.77 L3177.78 754.77 L3177.78 745.25 L3197.08 745.25 L3197.08 733.12 L3216.39 733.12 L3216.39 728.04 L3235.82 728.04 L3235.82 715.92 L3255.12 715.92 L3255.12 705.52 L3274.43 705.52 L3274.43 694.26" stroke-linejoin="round" style="fill:none;stroke:#8DA3B7;stroke-width:8.64"/>
	<defs>
		<path id="path_JTKEOUbi" d="M692.13 2243.66 L692.13 2243.66 L701.91 2243.66 L701.91 2241.55 L721.22 2241.55 L721.22 2239.20 L740.52 2239.20 L740.52 2233.88 L759.95 2233.88 L759.95 2225.09 L779.25 2225.09 L779.25 2218.91 L798.56 2218.91 L798.56 2205.79 L817.86 2205.79 L817.86 2198.98 L837.29 2198.98 L837.29 2195.52 L875.90 2195.52 L875.90 2192.05 L895.33 2192.05 L895.33 2188.59 L914.64 2188.59 L914.64 2185.12 L933.94 2185.12 L933.94 2181.66 L953.37 2181.66 L953.37 2170.89 L972.67 2170.89 L972.67 2160.12 L991.98 2160.12 L991.98 2156.41 L1011.41 2156.41 L1011.41 2152.82 L1050.02 2152.82 L1050.02 2149.11 L1069.45 2149.11 L1069.45 2145.52 L1088.75 2145.52 L1088.75 2138.10 L1127.36 2138.10 L1127.36 2130.67 L1146.79 2130.67 L1146.79 2130.67 L1166.10 2130.67 L1166.10 2126.96 L1185.40 2126.96 L1185.40 2123.12 L1204.83 2123.12 L1204.83 2111.86 L1224.13 2111.86 L1224.13 2104.31 L1243.44 2104.31 L1243.44 2104.31 L1262.87 2104.31 L1262.87 2092.93 L1282.17 2092.93 L1282.17 2077.70 L1301.48 2077.70 L1301.48 2066.19 L1320.91 2066.19 L1320.91 2062.36 L1340.21 2062.36 L1340.21 2054.56 L1359.52 2054.56 L1359.52 2050.73 L1378.82 2050.73 L1378.82 2039.09 L1398.25 2039.09 L1398.25 2031.30 L1417.56 2031.30 L1417.56 2027.46 L1436.86 2027.46 L1436.86 2007.91 L1456.29 2007.91 L1456.29 2000.11 L1475.60 2000.11 L1475.60 2000.11 L1494.90 2000.11 L1494.90 1980.43 L1514.33 1980.43 L1514.33 1964.59 L1533.63 1964.59 L1533.63 1956.67 L1552.94 1956.67 L1552.94 1936.87 L1572.37 1936.87 L1572.37 1916.95 L1591.67 1916.95 L1591.67 1916.95 L1610.98 1916.95 L1610.98 1904.94 L1630.28 1904.94 L1630.28 1892.94 L1649.71 1892.94 L1649.71 1880.94 L1669.02 1880.94 L1669.02 1872.89 L1688.32 1872.89 L1688.32 1864.85 L1707.75 1864.85 L1707.75 1860.76 L1727.06 1860.76 L1727.06 1852.72 L1746.36 1852.72 L1746.36 1844.68 L1785.09 1844.68 L1785.09 1828.59 L1804.40 1828.59 L1804.40 1816.46 L1823.83 1816.46 L1823.83 1804.33 L1843.13 1804.33 L1843.13 1796.16 L1862.44 1796.16 L1862.44 1788.12 L1881.74 1788.12 L1881.74 1784.04 L1901.17 1784.04 L1901.17 1775.99 L1920.48 1775.99 L1920.48 1767.82 L1939.78 1767.82 L1939.78 1767.82 L1959.21 1767.82 L1959.21 1763.74 L1978.52 1763.74 L1978.52 1755.57 L1997.82 1755.57 L1997.82 1755.57 L2017.25 1755.57 L2017.25 1743.44 L2036.55 1743.44 L2036.55 1731.19 L2075.29 1731.19 L2075.29 1723.03 L2113.90 1723.03 L2113.90 1718.94 L2133.20 1718.94 L2133.20 1710.77 L2152.63 1710.77 L2152.63 1706.69 L2171.94 1706.69 L2171.94 1690.35 L2191.24 1690.35 L2191.24 1686.27 L2210.67 1686.27 L2210.67 1678.10 L2229.97 1678.10 L2229.97 1674.02 L2249.28 1674.02 L2249.28 1674.02 L2268.71 1674.02 L2268.71 1665.85 L2288.01 1665.85 L2288.01 1657.56 L2307.32 1657.56 L2307.32 1649.39 L2326.75 1649.39 L2326.75 1637.14 L2346.05 1637.14 L2346.05 1632.93 L2384.79 1632.93 L2384.79 1620.68 L2404.09 1620.68 L2404.09 1612.39 L2462.13 1612.39 L2462.13 1608.31 L2481.43 1608.31 L2481.43 1600.14 L2500.74 1600.14 L2500.74 1595.93 L2520.17 1595.93 L2520.17 1583.68 L2539.47 1583.68 L2539.47 1571.30 L2558.78 1571.30 L2558.78 1563.01 L2578.21 1563.01 L2578.21 1546.55 L2597.51 1546.55 L2597.51 1542.34 L2616.82 1542.34 L2616.82 1538.26 L2674.86 1538.26 L2674.86 1534.18 L2713.59 1534.18 L2713.59 1529.97 L2732.89 1529.97 L2732.89 1517.59 L2752.20 1517.59 L2752.20 1501.13 L2790.93 1501.13 L2790.93 1496.93 L2810.24 1496.93 L2810.24 1484.55 L2848.97 1484.55 L2848.97 1480.34 L2868.28 1480.34 L2868.28 1463.76 L2887.71 1463.76 L2887.71 1455.47 L2926.32 1455.47 L2926.32 1447.18 L2945.62 1447.18 L2945.62 1438.89 L2965.05 1438.89 L2965.05 1418.22 L2984.36 1418.22 L2984.36 1409.93 L3023.09 1409.93 L3023.09 1405.72 L3042.39 1405.72 L3042.39 1397.43 L3061.70 1397.43 L3061.70 1389.14 L3081.13 1389.14 L3081.13 1380.85 L3100.43 1380.85 L3100.43 1376.64 L3119.74 1376.64 L3119.74 1368.35 L3158.47 1368.35 L3158.47 1364.14 L3177.78 1364.14 L3177.78 1364.14 L3197.08 1364.14 L3197.08 1359.93 L3216.51 1359.93 L3216.51 1351.64 L3235.82 1351.64 L3235.82 1343.35 L3274.55 1343.35 L3274.55 1330.85 L3274.55 1064.78 L3274.55 1078.89 L3235.82 1078.89 L3235.82 1088.42 L3216.51 1088.42 L3216.51 1097.82 L3197.08 1097.82 L3197.08 1102.65 L3177.78 1102.65 L3177.78 1102.65 L3158.47 1102.65 L3158.47 1107.35 L3119.74 1107.35 L3119.74 1116.75 L3100.43 1116.75 L3100.43 1121.58 L3081.13 1121.58 L3081.13 1130.99 L3061.70 1130.99 L3061.70 1140.52 L3042.39 1140.52 L3042.39 1149.92 L3023.09 1149.92 L3023.09 1154.75 L2984.36 1154.75 L2984.36 1164.15 L2965.05 1164.15 L2965.05 1187.91 L2945.62 1187.91 L2945.62 1197.44 L2926.32 1197.44 L2926.32 1206.85 L2887.71 1206.85 L2887.71 1216.38 L2868.28 1216.38 L2868.28 1235.43 L2848.97 1235.43 L2848.97 1240.14 L2810.24 1240.14 L2810.24 1254.37 L2790.93 1254.37 L2790.93 1259.20 L2752.20 1259.20 L2752.20 1278.13 L2732.89 1278.13 L2732.89 1292.49 L2713.59 1292.49 L2713.59 1297.19 L2674.86 1297.19 L2674.86 1302.01 L2616.82 1302.01 L2616.82 1306.72 L2597.51 1306.72 L2597.51 1311.54 L2578.21 1311.54 L2578.21 1330.60 L2558.78 1330.60 L2558.78 1340.13 L2539.47 1340.13 L2539.47 1354.49 L2520.17 1354.49 L2520.17 1368.72 L2500.74 1368.72 L2500.74 1373.54 L2481.43 1373.54 L2481.43 1383.07 L2462.13 1383.07 L2462.13 1387.90 L2404.09 1387.90 L2404.09 1397.43 L2384.79 1397.43 L2384.79 1411.78 L2346.05 1411.78 L2346.05 1416.61 L2326.75 1416.61 L2326.75 1430.97 L2307.32 1430.97 L2307.32 1440.50 L2288.01 1440.50 L2288.01 1450.15 L2268.71 1450.15 L2268.71 1459.68 L2249.28 1459.68 L2249.28 1459.68 L2229.97 1459.68 L2229.97 1464.50 L2210.67 1464.50 L2210.67 1474.16 L2191.24 1474.16 L2191.24 1478.86 L2171.94 1478.86 L2171.94 1498.16 L2152.63 1498.16 L2152.63 1502.99 L2133.20 1502.99 L2133.20 1512.52 L2113.90 1512.52 L2113.90 1517.35 L2075.29 1517.35 L2075.29 1527.00 L2036.55 1527.00 L2036.55 1541.48 L2017.25 1541.48 L2017.25 1555.83 L1997.82 1555.83 L1997.82 1555.83 L1978.52 1555.83 L1978.52 1565.49 L1959.21 1565.49 L1959.21 1570.31 L1939.78 1570.31 L1939.78 1570.31 L1920.48 1570.31 L1920.48 1579.97 L1901.17 1579.97 L1901.17 1589.62 L1881.74 1589.62 L1881.74 1594.44 L1862.44 1594.44 L1862.44 1604.22 L1843.13 1604.22 L1843.13 1613.87 L1823.83 1613.87 L1823.83 1628.35 L1804.40 1628.35 L1804.40 1642.83 L1785.09 1642.83 L1785.09 1662.26 L1746.36 1662.26 L1746.36 1672.04 L1727.06 1672.04 L1727.06 1681.69 L1707.75 1681.69 L1707.75 1686.64 L1688.32 1686.64 L1688.32 1696.29 L1669.02 1696.29 L1669.02 1706.07 L1649.71 1706.07 L1649.71 1720.67 L1630.28 1720.67 L1630.28 1735.40 L1610.98 1735.40 L1610.98 1750.00 L1591.67 1750.00 L1591.67 1750.00 L1572.37 1750.00 L1572.37 1774.51 L1552.94 1774.51 L1552.94 1799.01 L1533.63 1799.01 L1533.63 1808.91 L1514.33 1808.91 L1514.33 1828.59 L1494.90 1828.59 L1494.90 1853.34 L1475.60 1853.34 L1475.60 1853.34 L1456.29 1853.34 L1456.29 1863.24 L1436.86 1863.24 L1436.86 1888.11 L1417.56 1888.11 L1417.56 1893.06 L1398.25 1893.06 L1398.25 1903.09 L1378.82 1903.09 L1378.82 1918.06 L1359.52 1918.06 L1359.52 1923.01 L1340.21 1923.01 L1340.21 1933.16 L1320.91 1933.16 L1320.91 1938.11 L1301.48 1938.11 L1301.48 1953.21 L1282.17 1953.21 L1282.17 1973.50 L1262.87 1973.50 L1262.87 1988.72 L1243.44 1988.72 L1243.44 1988.72 L1224.13 1988.72 L1224.13 1998.87 L1204.83 1998.87 L1204.83 2014.22 L1185.40 2014.22 L1185.40 2019.29 L1166.10 2019.29 L1166.10 2024.49 L1146.79 2024.49 L1146.79 2024.49 L1127.36 2024.49 L1127.36 2034.76 L1088.75 2034.76 L1088.75 2045.16 L1069.45 2045.16 L1069.45 2050.35 L1050.02 2050.35 L1050.02 2055.55 L1011.41 2055.55 L1011.41 2060.75 L991.98 2060.75 L991.98 2065.95 L972.67 2065.95 L972.67 2081.79 L953.37 2081.79 L953.37 2097.63 L933.94 2097.63 L933.94 2102.95 L914.64 2102.95 L914.64 2108.39 L895.33 2108.39 L895.33 2113.72 L875.90 2113.72 L875.90 2119.16 L837.29 2119.16 L837.29 2124.61 L817.86 2124.61 L817.86 2135.50 L798.56 2135.50 L798.56 2157.77 L779.25 2157.77 L779.25 2169.16 L759.95 2169.16 L759.95 2186.61 L740.52 2186.61 L740.52 2198.61 L721.22 2198.61 L721.22 2204.68 L701.91 2204.68 L701.91 2210.37 L692.13 2210.37 L692.13 2243.66 Z" stroke-linejoin="round"/>
	</defs>
	<defs>
		<clipPath id="clipPath_fDdpCTdp">
			<use xlink:href="#path_JTKEOUbi"/>
		</clipPath>
	</defs>
	<use xlink:href="#path_JTKEOUbi" style="stroke:none;fill:#EEE1E2"/>
	<use xlink:href="#path_JTKEOUbi" style="fill:none;stroke:#EEE1E2;stroke-width:17.28" clip-path="url(#clipPath_fDdpCTdp)"/>
	<path d=" M692.13 2243.78 L701.79 2243.78 L701.79 2241.68 L721.09 2241.68 L721.09 2239.33 L740.52 2239.33 L740.52 2234.00 L759.83 2234.00 L759.83 2225.22 L779.13 2225.22 L779.13 2218.91 L798.56 2218.91 L798.56 2205.79 L817.86 2205.79 L817.86 2199.11 L837.17 2199.11 L837.17 2195.64 L875.90 2195.64 L875.90 2192.18 L895.21 2192.18 L895.21 2188.71 L914.64 2188.71 L914.64 2185.25 L933.94 2185.25 L933.94 2181.66 L953.25 2181.66 L953.25 2171.01 L972.55 2171.01 L972.55 2160.12 L991.98 2160.12 L991.98 2156.53 L1011.28 2156.53 L1011.28 2152.82 L1050.02 2152.82 L1050.02 2149.23 L1069.32 2149.23 L1069.32 2145.52 L1088.63 2145.52 L1088.63 2138.10 L1127.36 2138.10 L1127.36 2130.67 L1146.67 2130.67 L1146.67 2130.67 L1166.10 2130.67 L1166.10 2126.96 L1185.40 2126.96 L1185.40 2123.25 L1204.71 2123.25 L1204.71 2111.98 L1224.01 2111.98 L1224.01 2104.43 L1243.44 2104.43 L1243.44 2104.43 L1262.74 2104.43 L1262.74 2093.05 L1282.05 2093.05 L1282.05 2077.70 L1301.48 2077.70 L1301.48 2066.19 L1320.78 2066.19 L1320.78 2062.36 L1340.09 2062.36 L1340.09 2054.69 L1359.52 2054.69 L1359.52 2050.85 L1378.82 2050.85 L1378.82 2039.22 L1398.13 2039.22 L1398.13 2031.42 L1417.56 2031.42 L1417.56 2027.46 L1436.86 2027.46 L1436.86 2007.91 L1456.17 2007.91 L1456.17 2000.11 L1475.47 2000.11 L1475.47 2000.11 L1494.90 2000.11 L1494.90 1980.43 L1514.20 1980.43 L1514.20 1964.59 L1533.51 1964.59 L1533.51 1956.67 L1552.94 1956.67 L1552.94 1936.87 L1572.24 1936.87 L1572.24 1916.95 L1591.55 1916.95 L1591.55 1916.95 L1610.98 1916.95 L1610.98 1904.94 L1630.28 1904.94 L1630.28 1892.94 L1649.59 1892.94 L1649.59 1880.94 L1669.02 1880.94 L1669.02 1872.89 L1688.32 1872.89 L1688.32 1864.85 L1707.63 1864.85 L1707.63 1860.89 L1727.06 1860.89 L1727.06 1852.84 L1746.36 1852.84 L1746.36 1844.80 L1784.97 1844.80 L1784.97 1828.59 L1804.40 1828.59 L1804.40 1816.46 L1823.70 1816.46 L1823.70 1804.33 L1843.01 1804.33 L1843.01 1796.29 L1862.44 1796.29 L1862.44 1788.12 L1881.74 1788.12 L1881.74 1784.16 L1901.05 1784.16 L1901.05 1775.99 L1920.48 1775.99 L1920.48 1767.82 L1939.78 1767.82 L1939.78 1767.82 L1959.09 1767.82 L1959.09 1763.86 L1978.52 1763.86 L1978.52 1755.70 L1997.82 1755.70 L1997.82 1755.70 L2017.13 1755.70 L2017.13 1743.44 L2036.43 1743.44 L2036.43 1731.19 L2075.16 1731.19 L2075.16 1723.15 L2113.90 1723.15 L2113.90 1719.06 L2133.20 1719.06 L2133.20 1710.90 L2152.51 1710.90 L2152.51 1706.81 L2171.94 1706.81 L2171.94 1690.48 L2191.24 1690.48 L2191.24 1686.27 L2210.55 1686.27 L2210.55 1678.10 L2229.97 1678.10 L2229.97 1674.02 L2249.28 1674.02 L2249.28 1674.02 L2268.59 1674.02 L2268.59 1665.85 L2287.89 1665.85 L2287.89 1657.68 L2307.32 1657.68 L2307.32 1649.52 L2326.62 1649.52 L2326.62 1637.14 L2345.93 1637.14 L2345.93 1633.06 L2384.66 1633.06 L2384.66 1620.68 L2403.97 1620.68 L2403.97 1612.51 L2462.01 1612.51 L2462.01 1608.43 L2481.43 1608.43 L2481.43 1600.14 L2500.74 1600.14 L2500.74 1596.05 L2520.05 1596.05 L2520.05 1583.68 L2539.35 1583.68 L2539.35 1571.30 L2558.78 1571.30 L2558.78 1563.14 L2578.08 1563.14 L2578.08 1546.55 L2597.39 1546.55 L2597.39 1542.47 L2616.82 1542.47 L2616.82 1538.38 L2674.86 1538.38 L2674.86 1534.18 L2713.47 1534.18 L2713.47 1530.09 L2732.89 1530.09 L2732.89 1517.72 L2752.20 1517.72 L2752.20 1501.13 L2790.81 1501.13 L2790.81 1497.05 L2810.24 1497.05 L2810.24 1484.55 L2848.85 1484.55 L2848.85 1480.47 L2868.28 1480.47 L2868.28 1463.88 L2887.58 1463.88 L2887.58 1455.59 L2926.32 1455.59 L2926.32 1447.30 L2945.62 1447.30 L2945.62 1439.01 L2964.93 1439.01 L2964.93 1418.22 L2984.36 1418.22 L2984.36 1409.93 L3022.97 1409.93 L3022.97 1405.84 L3042.39 1405.84 L3042.39 1397.43 L3061.70 1397.43 L3061.70 1389.14 L3081.00 1389.14 L3081.00 1380.85 L3100.31 1380.85 L3100.31 1376.64 L3119.74 1376.64 L3119.74 1368.35 L3158.35 1368.35 L3158.35 1364.26 L3177.78 1364.26 L3177.78 1364.26 L3197.08 1364.26 L3197.08 1360.06 L3216.39 1360.06 L3216.39 1351.76 L3235.82 1351.76 L3235.82 1343.35 L3274.43 1343.35 L3274.43 1330.85" stroke-linejoin="round" style="fill:none;stroke:#C89A9D;stroke-width:8.64"/>
	<path d=" M692.13 2210.49 L701.79 2210.49 L701.79 2204.68 L721.09 2204.68 L721.09 2198.61 L740.52 2198.61 L740.52 2186.73 L759.83 2186.73 L759.83 2169.16 L779.13 2169.16 L779.13 2157.77 L798.56 2157.77 L798.56 2135.62 L817.86 2135.62 L817.86 2124.61 L837.17 2124.61 L837.17 2119.16 L875.90 2119.16 L875.90 2113.84 L895.21 2113.84 L895.21 2108.39 L914.64 2108.39 L914.64 2103.07 L933.94 2103.07 L933.94 2097.75 L953.25 2097.75 L953.25 2081.79 L972.55 2081.79 L972.55 2066.07 L991.98 2066.07 L991.98 2060.87 L1011.28 2060.87 L1011.28 2055.55 L1050.02 2055.55 L1050.02 2050.35 L1069.32 2050.35 L1069.32 2045.16 L1088.63 2045.16 L1088.63 2034.88 L1127.36 2034.88 L1127.36 2024.61 L1146.67 2024.61 L1146.67 2024.61 L1166.10 2024.61 L1166.10 2019.42 L1185.40 2019.42 L1185.40 2014.22 L1204.71 2014.22 L1204.71 1998.87 L1224.01 1998.87 L1224.01 1988.72 L1243.44 1988.72 L1243.44 1988.72 L1262.74 1988.72 L1262.74 1973.50 L1282.05 1973.50 L1282.05 1953.33 L1301.48 1953.33 L1301.48 1938.23 L1320.78 1938.23 L1320.78 1933.16 L1340.09 1933.16 L1340.09 1923.14 L1359.52 1923.14 L1359.52 1918.18 L1378.82 1918.18 L1378.82 1903.09 L1398.13 1903.09 L1398.13 1893.19 L1417.56 1893.19 L1417.56 1888.11 L1436.86 1888.11 L1436.86 1863.36 L1456.17 1863.36 L1456.17 1853.46 L1475.47 1853.46 L1475.47 1853.46 L1494.90 1853.46 L1494.90 1828.71 L1514.20 1828.71 L1514.20 1808.91 L1533.51 1808.91 L1533.51 1799.13 L1552.94 1799.13 L1552.94 1774.63 L1572.24 1774.63 L1572.24 1750.13 L1591.55 1750.13 L1591.55 1750.13 L1610.98 1750.13 L1610.98 1735.40 L1630.28 1735.40 L1630.28 1720.80 L1649.59 1720.80 L1649.59 1706.19 L1669.02 1706.19 L1669.02 1696.42 L1688.32 1696.42 L1688.32 1686.64 L1707.63 1686.64 L1707.63 1681.82 L1727.06 1681.82 L1727.06 1672.04 L1746.36 1672.04 L1746.36 1662.39 L1784.97 1662.39 L1784.97 1642.96 L1804.40 1642.96 L1804.40 1628.48 L1823.70 1628.48 L1823.70 1613.87 L1843.01 1613.87 L1843.01 1604.22 L1862.44 1604.22 L1862.44 1594.57 L1881.74 1594.57 L1881.74 1589.74 L1901.05 1589.74 L1901.05 1580.09 L1920.48 1580.09 L1920.48 1570.44 L1939.78 1570.44 L1939.78 1570.44 L1959.09 1570.44 L1959.09 1565.61 L1978.52 1565.61 L1978.52 1555.96 L1997.82 1555.96 L1997.82 1555.96 L2017.13 1555.96 L2017.13 1541.48 L2036.43 1541.48 L2036.43 1527.00 L2075.16 1527.00 L2075.16 1517.47 L2113.90 1517.47 L2113.90 1512.64 L2133.20 1512.64 L2133.20 1502.99 L2152.51 1502.99 L2152.51 1498.16 L2171.94 1498.16 L2171.94 1478.98 L2191.24 1478.98 L2191.24 1474.16 L2210.55 1474.16 L2210.55 1464.63 L2229.97 1464.63 L2229.97 1459.80 L2249.28 1459.80 L2249.28 1459.80 L2268.59 1459.80 L2268.59 1450.15 L2287.89 1450.15 L2287.89 1440.62 L2307.32 1440.62 L2307.32 1430.97 L2326.62 1430.97 L2326.62 1416.61 L2345.93 1416.61 L2345.93 1411.91 L2384.66 1411.91 L2384.66 1397.55 L2403.97 1397.55 L2403.97 1387.90 L2462.01 1387.90 L2462.01 1383.20 L2481.43 1383.20 L2481.43 1373.67 L2500.74 1373.67 L2500.74 1368.84 L2520.05 1368.84 L2520.05 1354.49 L2539.35 1354.49 L2539.35 1340.25 L2558.78 1340.25 L2558.78 1330.60 L2578.08 1330.60 L2578.08 1311.54 L2597.39 1311.54 L2597.39 1306.84 L2616.82 1306.84 L2616.82 1302.01 L2674.86 1302.01 L2674.86 1297.31 L2713.47 1297.31 L2713.47 1292.49 L2732.89 1292.49 L2732.89 1278.25 L2752.20 1278.25 L2752.20 1259.20 L2790.81 1259.20 L2790.81 1254.49 L2810.24 1254.49 L2810.24 1240.14 L2848.85 1240.14 L2848.85 1235.43 L2868.28 1235.43 L2868.28 1216.38 L2887.58 1216.38 L2887.58 1206.97 L2926.32 1206.97 L2926.32 1197.44 L2945.62 1197.44 L2945.62 1187.91 L2964.93 1187.91 L2964.93 1164.28 L2984.36 1164.28 L2984.36 1154.75 L3022.97 1154.75 L3022.97 1150.04 L3042.39 1150.04 L3042.39 1140.52 L3061.70 1140.52 L3061.70 1131.11 L3081.00 1131.11 L3081.00 1121.58 L3100.31 1121.58 L3100.31 1116.88 L3119.74 1116.88 L3119.74 1107.35 L3158.35 1107.35 L3158.35 1102.65 L3177.78 1102.65 L3177.78 1102.65 L3197.08 1102.65 L3197.08 1097.94 L3216.39 1097.94 L3216.39 1088.42 L3235.82 1088.42 L3235.82 1079.01 L3274.43 1079.01 L3274.43 1064.78" stroke-linejoin="round" style="fill:none;stroke:#C89A9D;stroke-width:8.64"/>
	<path d=" M682.48 2246.01 L682.48 2246.01 L682.48 2246.01 L692.13 2246.01 L692.13 2235.24 L701.79 2235.24 L701.79 2221.13 L721.09 2221.13 L721.09 2207.15 L740.52 2207.15 L740.52 2197.99 L759.83 2197.99 L759.83 2188.09 L779.13 2188.09 L779.13 2174.85 L798.56 2174.85 L798.56 2159.88 L817.86 2159.88 L817.86 2149.98 L837.17 2149.98 L837.17 2135.87 L856.60 2135.87 L856.60 2120.15 L875.90 2120.15 L875.90 2109.38 L895.21 2109.38 L895.21 2101.96 L914.64 2101.96 L914.64 2090.33 L933.94 2090.33 L933.94 2072.88 L953.25 2072.88 L953.25 2058.77 L972.55 2058.77 L972.55 2046.39 L991.98 2046.39 L991.98 2032.29 L1011.28 2032.29 L1011.28 2019.79 L1030.59 2019.79 L1030.59 2007.29 L1050.02 2007.29 L1050.02 1995.65 L1069.32 1995.65 L1069.32 1987.36 L1088.63 1987.36 L1088.63 1979.07 L1108.06 1979.07 L1108.06 1966.57 L1127.36 1966.57 L1127.36 1952.46 L1146.67 1952.46 L1146.67 1939.10 L1166.10 1939.10 L1166.10 1926.60 L1185.40 1926.60 L1185.40 1911.63 L1204.71 1911.63 L1204.71 1895.79 L1224.01 1895.79 L1224.01 1877.47 L1243.44 1877.47 L1243.44 1864.23 L1262.74 1864.23 L1262.74 1848.39 L1282.05 1848.39 L1282.05 1843.31 L1301.48 1843.31 L1301.48 1827.47 L1320.78 1827.47 L1320.78 1816.58 L1340.09 1816.58 L1340.09 1803.34 L1359.52 1803.34 L1359.52 1787.38 L1378.82 1787.38 L1378.82 1775.74 L1398.13 1775.74 L1398.13 1766.59 L1417.56 1766.59 L1417.56 1759.04 L1436.86 1759.04 L1436.86 1742.33 L1456.17 1742.33 L1456.17 1729.83 L1475.47 1729.83 L1475.47 1715.60 L1494.90 1715.60 L1494.90 1699.76 L1514.20 1699.76 L1514.20 1688.00 L1533.51 1688.00 L1533.51 1681.32 L1552.94 1681.32 L1552.94 1666.22 L1572.24 1666.22 L1572.24 1651.99 L1591.55 1651.99 L1591.55 1638.62 L1610.98 1638.62 L1610.98 1627.73 L1630.28 1627.73 L1630.28 1616.10 L1649.59 1616.10 L1649.59 1605.21 L1669.02 1605.21 L1669.02 1593.45 L1688.32 1593.45 L1688.32 1573.41 L1707.63 1573.41 L1707.63 1558.31 L1727.06 1558.31 L1727.06 1544.82 L1746.36 1544.82 L1746.36 1530.59 L1765.66 1530.59 L1765.66 1523.04 L1784.97 1523.04 L1784.97 1515.49 L1804.40 1515.49 L1804.40 1507.94 L1823.70 1507.94 L1823.70 1505.47 L1843.01 1505.47 L1843.01 1495.44 L1862.44 1495.44 L1862.44 1487.03 L1881.74 1487.03 L1881.74 1477.00 L1901.05 1477.00 L1901.05 1464.38 L1920.48 1464.38 L1920.48 1451.76 L1939.78 1451.76 L1939.78 1435.79 L1959.09 1435.79 L1959.09 1424.04 L1978.52 1424.04 L1978.52 1410.67 L1997.82 1410.67 L1997.82 1399.78 L2017.13 1399.78 L2017.13 1388.02 L2036.43 1388.02 L2036.43 1377.01 L2055.86 1377.01 L2055.86 1369.46 L2075.16 1369.46 L2075.16 1360.30 L2094.47 1360.30 L2094.47 1352.75 L2113.90 1352.75 L2113.90 1339.26 L2133.20 1339.26 L2133.20 1328.37 L2152.51 1328.37 L2152.51 1318.23 L2171.94 1318.23 L2171.94 1313.15 L2191.24 1313.15 L2191.24 1301.40 L2210.55 1301.40 L2210.55 1290.51 L2229.97 1290.51 L2229.97 1280.36 L2249.28 1280.36 L2249.28 1266.13 L2268.59 1266.13 L2268.59 1263.65 L2287.89 1263.65 L2287.89 1256.84 L2307.32 1256.84 L2307.32 1247.56 L2326.62 1247.56 L2326.62 1235.81 L2345.93 1235.81 L2345.93 1225.78 L2365.36 1225.78 L2365.36 1213.90 L2384.66 1213.90 L2384.66 1204.74 L2403.97 1204.74 L2403.97 1194.60 L2423.40 1194.60 L2423.40 1185.31 L2442.70 1185.31 L2442.70 1178.63 L2462.01 1178.63 L2462.01 1174.42 L2481.43 1174.42 L2481.43 1166.75 L2500.74 1166.75 L2500.74 1151.65 L2520.05 1151.65 L2520.05 1143.24 L2539.35 1143.24 L2539.35 1132.22 L2558.78 1132.22 L2558.78 1126.41 L2578.08 1126.41 L2578.08 1112.92 L2597.39 1112.92 L2597.39 1106.11 L2616.82 1106.11 L2616.82 1093.49 L2636.12 1093.49 L2636.12 1085.94 L2655.43 1085.94 L2655.43 1074.18 L2674.86 1074.18 L2674.86 1067.38 L2694.16 1067.38 L2694.16 1059.83 L2713.47 1059.83 L2713.47 1053.15 L2732.89 1053.15 L2732.89 1043.00 L2752.20 1043.00 L2752.20 1033.72 L2771.51 1033.72 L2771.51 1024.43 L2790.81 1024.43 L2790.81 1014.29 L2810.24 1014.29 L2810.24 1002.53 L2829.54 1002.53 L2829.54 994.86 L2848.85 994.86 L2848.85 989.04 L2868.28 989.04 L2868.28 978.03 L2887.58 978.03 L2887.58 968.75 L2906.89 968.75 L2906.89 959.46 L2926.32 959.46 L2926.32 940.90 L2945.62 940.90 L2945.62 930.88 L2964.93 930.88 L2964.93 923.20 L2984.36 923.20 L2984.36 913.92 L3003.66 913.92 L3003.66 901.30 L3022.97 901.30 L3022.97 893.75 L3042.39 893.75 L3042.39 883.60 L3061.70 883.60 L3061.70 869.25 L3081.00 869.25 L3081.00 863.31 L3100.31 863.31 L3100.31 854.03 L3119.74 854.03 L3119.74 843.88 L3139.04 843.88 L3139.04 834.60 L3158.35 834.60 L3158.35 823.71 L3177.78 823.71 L3177.78 814.42 L3197.08 814.42 L3197.08 802.54 L3216.39 802.54 L3216.39 797.47 L3235.82 797.47 L3235.82 785.71 L3255.12 785.71 L3255.12 775.57 L3274.43 775.57 L3274.43 764.55" stroke-linejoin="round" style="fill:none;stroke:#1A476F;stroke-width:8.64"/>
	<path d=" M682.48 2246.01 L682.48 2246.01 L682.48 2246.01 L692.13 2246.01 L692.13 2237.10 L701.79 2237.10 L701.79 2232.64 L721.09 2232.64 L721.09 2228.19 L740.52 2228.19 L740.52 2219.28 L759.83 2219.28 L759.83 2206.04 L779.13 2206.04 L779.13 2197.13 L798.56 2197.13 L798.56 2179.43 L817.86 2179.43 L817.86 2170.52 L837.17 2170.52 L837.17 2166.06 L875.90 2166.06 L875.90 2161.61 L895.21 2161.61 L895.21 2157.15 L914.64 2157.15 L914.64 2152.82 L933.94 2152.82 L933.94 2148.37 L953.25 2148.37 L953.25 2135.00 L972.55 2135.00 L972.55 2121.76 L991.98 2121.76 L991.98 2117.30 L1011.28 2117.30 L1011.28 2112.85 L1050.02 2112.85 L1050.02 2108.39 L1069.32 2108.39 L1069.32 2103.94 L1088.63 2103.94 L1088.63 2095.03 L1127.36 2095.03 L1127.36 2086.24 L1146.67 2086.24 L1146.67 2086.24 L1166.10 2086.24 L1166.10 2081.79 L1185.40 2081.79 L1185.40 2077.33 L1204.71 2077.33 L1204.71 2063.97 L1224.01 2063.97 L1224.01 2055.18 L1243.44 2055.18 L1243.44 2055.18 L1262.74 2055.18 L1262.74 2041.82 L1282.05 2041.82 L1282.05 2024.12 L1301.48 2024.12 L1301.48 2010.75 L1320.78 2010.75 L1320.78 2006.30 L1340.09 2006.30 L1340.09 1997.39 L1359.52 1997.39 L1359.52 1993.06 L1378.82 1993.06 L1378.82 1979.69 L1398.13 1979.69 L1398.13 1970.78 L1417.56 1970.78 L1417.56 1966.33 L1436.86 1966.33 L1436.86 1944.17 L1456.17 1944.17 L1456.17 1935.26 L1475.47 1935.26 L1475.47 1935.26 L1494.90 1935.26 L1494.90 1913.11 L1514.20 1913.11 L1514.20 1895.29 L1533.51 1895.29 L1533.51 1886.50 L1552.94 1886.50 L1552.94 1864.23 L1572.24 1864.23 L1572.24 1842.08 L1591.55 1842.08 L1591.55 1842.08 L1610.98 1842.08 L1610.98 1828.71 L1630.28 1828.71 L1630.28 1815.35 L1649.59 1815.35 L1649.59 1802.10 L1669.02 1802.10 L1669.02 1793.19 L1688.32 1793.19 L1688.32 1784.28 L1707.63 1784.28 L1707.63 1779.83 L1727.06 1779.83 L1727.06 1770.92 L1746.36 1770.92 L1746.36 1762.13 L1784.97 1762.13 L1784.97 1744.31 L1804.40 1744.31 L1804.40 1730.95 L1823.70 1730.95 L1823.70 1717.58 L1843.01 1717.58 L1843.01 1708.79 L1862.44 1708.79 L1862.44 1699.88 L1881.74 1699.88 L1881.74 1695.43 L1901.05 1695.43 L1901.05 1686.52 L1920.48 1686.52 L1920.48 1677.61 L1939.78 1677.61 L1939.78 1677.61 L1959.09 1677.61 L1959.09 1673.15 L1978.52 1673.15 L1978.52 1664.37 L1997.82 1664.37 L1997.82 1664.37 L2017.13 1664.37 L2017.13 1651.00 L2036.43 1651.00 L2036.43 1637.63 L2075.16 1637.63 L2075.16 1628.72 L2113.90 1628.72 L2113.90 1624.27 L2133.20 1624.27 L2133.20 1615.36 L2152.51 1615.36 L2152.51 1610.90 L2171.94 1610.90 L2171.94 1593.21 L2191.24 1593.21 L2191.24 1588.75 L2210.55 1588.75 L2210.55 1579.84 L2229.97 1579.84 L2229.97 1575.39 L2249.28 1575.39 L2249.28 1575.39 L2268.59 1575.39 L2268.59 1566.48 L2287.89 1566.48 L2287.89 1557.57 L2307.32 1557.57 L2307.32 1548.78 L2326.62 1548.78 L2326.62 1535.41 L2345.93 1535.41 L2345.93 1530.96 L2384.66 1530.96 L2384.66 1517.59 L2403.97 1517.59 L2403.97 1508.68 L2462.01 1508.68 L2462.01 1504.23 L2481.43 1504.23 L2481.43 1495.32 L2500.74 1495.32 L2500.74 1490.86 L2520.05 1490.86 L2520.05 1477.62 L2539.35 1477.62 L2539.35 1464.26 L2558.78 1464.26 L2558.78 1455.35 L2578.08 1455.35 L2578.08 1437.52 L2597.39 1437.52 L2597.39 1433.07 L2616.82 1433.07 L2616.82 1428.61 L2674.86 1428.61 L2674.86 1424.16 L2713.47 1424.16 L2713.47 1419.83 L2732.89 1419.83 L2732.89 1406.46 L2752.20 1406.46 L2752.20 1388.64 L2790.81 1388.64 L2790.81 1384.19 L2810.24 1384.19 L2810.24 1370.82 L2848.85 1370.82 L2848.85 1366.37 L2868.28 1366.37 L2868.28 1348.67 L2887.58 1348.67 L2887.58 1339.76 L2926.32 1339.76 L2926.32 1330.85 L2945.62 1330.85 L2945.62 1321.94 L2964.93 1321.94 L2964.93 1299.66 L2984.36 1299.66 L2984.36 1290.75 L3022.97 1290.75 L3022.97 1286.30 L3042.39 1286.30 L3042.39 1277.51 L3061.70 1277.51 L3061.70 1268.60 L3081.00 1268.60 L3081.00 1259.69 L3100.31 1259.69 L3100.31 1255.24 L3119.74 1255.24 L3119.74 1246.33 L3158.35 1246.33 L3158.35 1241.87 L3177.78 1241.87 L3177.78 1241.87 L3197.08 1241.87 L3197.08 1237.41 L3216.39 1237.41 L3216.39 1228.50 L3235.82 1228.50 L3235.82 1219.59 L3274.43 1219.59 L3274.43 1206.35" stroke-linejoin="round" style="fill:none;stroke:#90353B;stroke-width:8.64"/>
	<line x1="619.12" y1="2309.25" x2="619.12" y2="630.90" style="stroke:#000000;stroke-width:5.76"/>
	<line x1="619.12" y1="2245.89" x2="579.15" y2="2245.89" style="stroke:#000000;stroke-width:5.76"/>
	<text x="559.23" y="2273.90" style="font-family:'Helvetica';font-size:79.94px;fill:#000000" text-anchor="end">0.000</text>
	<line x1="619.12" y1="2110.25" x2="579.15" y2="2110.25" style="stroke:#000000;stroke-width:5.76"/>
	<text x="559.23" y="2138.26" style="font-family:'Helvetica';font-size:79.94px;fill:#000000" text-anchor="end">0.001</text>
	<line x1="619.12" y1="1974.62" x2="579.15" y2="1974.62" style="stroke:#000000;stroke-width:5.76"/>
	<text x="559.23" y="2002.63" style="font-family:'Helvetica';font-size:79.94px;fill:#000000" text-anchor="end">0.002</text>
	<line x1="619.12" y1="1838.98" x2="579.15" y2="1838.98" style="stroke:#000000;stroke-width:5.76"/>
	<text x="559.23" y="1866.99" style="font-family:'Helvetica';font-size:79.94px;fill:#000000" text-anchor="end">0.003</text>
	<line x1="619.12" y1="1703.35" x2="579.15" y2="1703.35" style="stroke:#000000;stroke-width:5.76"/>
	<text x="559.23" y="1731.36" style="font-family:'Helvetica';font-size:79.94px;fill:#000000" text-anchor="end">0.004</text>
	<line x1="619.12" y1="1567.71" x2="579.15" y2="1567.71" style="stroke:#000000;stroke-width:5.76"/>
	<text x="559.23" y="1595.73" style="font-family:'Helvetica';font-size:79.94px;fill:#000000" text-anchor="end">0.005</text>
	<line x1="619.12" y1="1432.08" x2="579.15" y2="1432.08" style="stroke:#000000;stroke-width:5.76"/>
	<text x="559.23" y="1460.09" style="font-family:'Helvetica';font-size:79.94px;fill:#000000" text-anchor="end">0.006</text>
	<line x1="619.12" y1="1296.45" x2="579.15" y2="1296.45" style="stroke:#000000;stroke-width:5.76"/>
	<text x="559.23" y="1324.46" style="font-family:'Helvetica';font-size:79.94px;fill:#000000" text-anchor="end">0.007</text>
	<line x1="619.12" y1="1160.81" x2="579.15" y2="1160.81" style="stroke:#000000;stroke-width:5.76"/>
	<text x="559.23" y="1188.82" style="font-family:'Helvetica';font-size:79.94px;fill:#000000" text-anchor="end">0.008</text>
	<line x1="619.12" y1="1025.18" x2="579.15" y2="1025.18" style="stroke:#000000;stroke-width:5.76"/>
	<text x="559.23" y="1053.19" style="font-family:'Helvetica';font-size:79.94px;fill:#000000" text-anchor="end">0.009</text>
	<line x1="619.12" y1="889.42" x2="579.15" y2="889.42" style="stroke:#000000;stroke-width:5.76"/>
	<text x="559.23" y="917.43" style="font-family:'Helvetica';font-size:79.94px;fill:#000000" text-anchor="end">0.010</text>
	<line x1="619.12" y1="2309.25" x2="3840.83" y2="2309.25" style="stroke:#000000;stroke-width:5.76"/>
	<line x1="682.48" y1="2309.25" x2="682.48" y2="2349.22" style="stroke:#000000;stroke-width:5.76"/>
	<text x="682.48" y="2425.17" style="font-family:'Helvetica';font-size:79.94px;fill:#000000" text-anchor="middle">0</text>
	<line x1="1069.45" y1="2309.25" x2="1069.45" y2="2349.22" style="stroke:#000000;stroke-width:5.76"/>
	<text x="1069.45" y="2425.17" style="font-family:'Helvetica';font-size:79.94px;fill:#000000" text-anchor="middle">20</text>
	<line x1="1456.29" y1="2309.25" x2="1456.29" y2="2349.22" style="stroke:#000000;stroke-width:5.76"/>
	<text x="1456.29" y="2425.17" style="font-family:'Helvetica';font-size:79.94px;fill:#000000" text-anchor="middle">40</text>
	<line x1="1843.13" y1="2309.25" x2="1843.13" y2="2349.22" style="stroke:#000000;stroke-width:5.76"/>
	<text x="1843.13" y="2425.17" style="font-family:'Helvetica';font-size:79.94px;fill:#000000" text-anchor="middle">60</text>
	<line x1="2229.97" y1="2309.25" x2="2229.97" y2="2349.22" style="stroke:#000000;stroke-width:5.76"/>
	<text x="2229.97" y="2425.17" style="font-family:'Helvetica';font-size:79.94px;fill:#000000" text-anchor="middle">80</text>
	<line x1="2616.82" y1="2309.25" x2="2616.82" y2="2349.22" style="stroke:#000000;stroke-width:5.76"/>
	<text x="2616.82" y="2425.17" style="font-family:'Helvetica';font-size:79.94px;fill:#000000" text-anchor="middle">100</text>
	<line x1="3003.66" y1="2309.25" x2="3003.66" y2="2349.22" style="stroke:#000000;stroke-width:5.76"/>
	<text x="3003.66" y="2425.17" style="font-family:'Helvetica';font-size:79.94px;fill:#000000" text-anchor="middle">120</text>
	<line x1="3390.63" y1="2309.25" x2="3390.63" y2="2349.22" style="stroke:#000000;stroke-width:5.76"/>
	<text x="3390.63" y="2425.17" style="font-family:'Helvetica';font-size:79.94px;fill:#000000" text-anchor="middle">140</text>
	<line x1="3777.47" y1="2309.25" x2="3777.47" y2="2349.22" style="stroke:#000000;stroke-width:5.76"/>
	<text x="3777.47" y="2425.17" style="font-family:'Helvetica';font-size:79.94px;fill:#000000" text-anchor="middle">160</text>
	<text x="2229.97" y="2515.14" style="font-family:'Helvetica';font-size:79.94px;fill:#000000" text-anchor="middle">Days since 1 Mar 2020</text>
	<text x="682.48" y="2747.83" style="font-family:'Helvetica';font-size:60.02px;fill:#000000" text-anchor="middle">30569</text>
	<text x="1069.45" y="2747.83" style="font-family:'Helvetica';font-size:60.02px;fill:#000000" text-anchor="middle">30537</text>
	<text x="1456.29" y="2747.83" style="font-family:'Helvetica';font-size:60.02px;fill:#000000" text-anchor="middle">30484</text>
	<text x="1843.13" y="2747.83" style="font-family:'Helvetica';font-size:60.02px;fill:#000000" text-anchor="middle">30402</text>
	<text x="2229.97" y="2747.83" style="font-family:'Helvetica';font-size:60.02px;fill:#000000" text-anchor="middle">30362</text>
	<text x="2616.82" y="2747.83" style="font-family:'Helvetica';font-size:60.02px;fill:#000000" text-anchor="middle">30320</text>
	<text x="3003.66" y="2747.83" style="font-family:'Helvetica';font-size:60.02px;fill:#000000" text-anchor="middle">30286</text>
	<text x="3390.63" y="2747.83" style="font-family:'Helvetica';font-size:60.02px;fill:#000000" text-anchor="middle">0</text>
	<text x="3777.47" y="2747.83" style="font-family:'Helvetica';font-size:60.02px;fill:#000000" text-anchor="middle">0</text>
	<text x="527.79" y="2747.83" style="font-family:'Helvetica';font-size:60.02px;fill:#000000" text-anchor="end">HCQ</text>
	<text x="682.48" y="2674.44" style="font-family:'Helvetica';font-size:60.02px;fill:#000000" text-anchor="middle">164068</text>
	<text x="1069.45" y="2674.44" style="font-family:'Helvetica';font-size:60.02px;fill:#000000" text-anchor="middle">162853</text>
	<text x="1456.29" y="2674.44" style="font-family:'Helvetica';font-size:60.02px;fill:#000000" text-anchor="middle">161721</text>
	<text x="1843.13" y="2674.44" style="font-family:'Helvetica';font-size:60.02px;fill:#000000" text-anchor="middle">160837</text>
	<text x="2229.97" y="2674.44" style="font-family:'Helvetica';font-size:60.02px;fill:#000000" text-anchor="middle">160168</text>
	<text x="2616.82" y="2674.44" style="font-family:'Helvetica';font-size:60.02px;fill:#000000" text-anchor="middle">159649</text>
	<text x="3003.66" y="2674.44" style="font-family:'Helvetica';font-size:60.02px;fill:#000000" text-anchor="middle">159208</text>
	<text x="3390.63" y="2674.44" style="font-family:'Helvetica';font-size:60.02px;fill:#000000" text-anchor="middle">0</text>
	<text x="3777.47" y="2674.44" style="font-family:'Helvetica';font-size:60.02px;fill:#000000" text-anchor="middle">0</text>
	<text x="527.79" y="2674.44" style="font-family:'Helvetica';font-size:60.02px;fill:#000000" text-anchor="end">No HCQ</text>
	<text x="527.79" y="2601.18" style="font-family:'Helvetica';font-size:60.02px;fill:#000000" text-anchor="end">Number at risk</text>
	<rect x="1167.95" y="269.91" width="2124.05" height="326.46" style="fill:#FFFFFF"/>
	<rect x="1170.83" y="272.79" width="2118.29" height="320.70" style="fill:none;stroke:#EAF2F3;stroke-width:5.76"/>
	<rect x="1211.14" y="313.10" width="374.34" height="99.99" style="fill:#DDE3E9"/>
	<rect x="1215.46" y="317.42" width="365.70" height="91.35" style="fill:none;stroke:#DDE3E9;stroke-width:8.64"/>
	<rect x="2349.02" y="313.10" width="374.34" height="99.99" style="fill:#EEE1E2"/>
	<rect x="2353.34" y="317.42" width="365.70" height="91.35" style="fill:none;stroke:#EEE1E2;stroke-width:8.64"/>
	<line x1="1211.14" y1="503.06" x2="1585.48" y2="503.06" style="stroke:#1A476F;stroke-width:8.64"/>
	<line x1="2349.02" y1="503.06" x2="2723.37" y2="503.06" style="stroke:#90353B;stroke-width:8.64"/>
	<text x="1645.50" y="384.13" style="font-family:'Helvetica';font-size:60.02px;fill:#000000">No HCQ</text>
	<text x="2783.39" y="384.13" style="font-family:'Helvetica';font-size:60.02px;fill:#000000">95% CI</text>
	<text x="1645.50" y="524.10" style="font-family:'Helvetica';font-size:60.02px;fill:#000000">exposure = No HCQ</text>
	<text x="2783.39" y="524.10" style="font-family:'Helvetica';font-size:60.02px;fill:#000000">exposure = HCQ</text>
	<text x="1357.91" y="187.99" style="font-family:'Helvetica';font-size:99.99px;fill:#1E2D53">Time to Non COVID-19 Death in ONS</text>
</svg>
