<?xml version="1.0" encoding="UTF-8" standalone="no"?>
<!-- This is a Stata 16.1 generated SVG file (http://www.stata.com) -->

<svg version="1.1" width="5.50in" height="4.00in" viewBox="0 0 3960 2880" xmlns="http://www.w3.org/2000/svg" xmlns:xlink="http://www.w3.org/1999/xlink">
	<desc>Stata Graph - Graph</desc>
	<rect x="0" y="0" width="3960" height="2880" style="fill:#EAF2F3;stroke:none"/>
	<rect x="0.00" y="0.00" width="3959.88" height="2880.00" style="fill:#FFFFFF"/>
	<rect x="2.88" y="2.88" width="3954.12" height="2874.24" style="fill:none;stroke:#EAF2F3;stroke-width:5.76"/>
	<rect x="619.12" y="630.90" width="3221.71" height="1678.35" style="fill:#FFFFFF"/>
	<rect x="622.00" y="633.78" width="3215.95" height="1672.59" style="fill:none;stroke:#FFFFFF;stroke-width:5.76"/>
	<line x1="619.12" y1="2245.89" x2="3840.83" y2="2245.89" style="stroke:#EAF2F3;stroke-width:8.64"/>
	<line x1="619.12" y1="2094.41" x2="3840.83" y2="2094.41" style="stroke:#EAF2F3;stroke-width:8.64"/>
	<line x1="619.12" y1="1942.81" x2="3840.83" y2="1942.81" style="stroke:#EAF2F3;stroke-width:8.64"/>
	<line x1="619.12" y1="1791.21" x2="3840.83" y2="1791.21" style="stroke:#EAF2F3;stroke-width:8.64"/>
	<line x1="619.12" y1="1639.74" x2="3840.83" y2="1639.74" style="stroke:#EAF2F3;stroke-width:8.64"/>
	<line x1="619.12" y1="1488.14" x2="3840.83" y2="1488.14" style="stroke:#EAF2F3;stroke-width:8.64"/>
	<line x1="619.12" y1="1336.67" x2="3840.83" y2="1336.67" style="stroke:#EAF2F3;stroke-width:8.64"/>
	<line x1="619.12" y1="1185.07" x2="3840.83" y2="1185.07" style="stroke:#EAF2F3;stroke-width:8.64"/>
	<line x1="619.12" y1="1033.59" x2="3840.83" y2="1033.59" style="stroke:#EAF2F3;stroke-width:8.64"/>
	<line x1="619.12" y1="881.99" x2="3840.83" y2="881.99" style="stroke:#EAF2F3;stroke-width:8.64"/>
	<line x1="619.12" y1="730.52" x2="3840.83" y2="730.52" style="stroke:#EAF2F3;stroke-width:8.64"/>
	<defs>
		<path id="path_stwjlkho" d="M701.91 2236.11 L701.91 2236.11 L721.22 2236.11 L721.22 2223.36 L740.52 2223.36 L740.52 2214.82 L759.95 2214.82 L759.95 2205.17 L779.25 2205.17 L779.25 2192.18 L798.56 2192.18 L798.56 2177.20 L817.86 2177.20 L817.86 2167.18 L837.29 2167.18 L837.29 2152.95 L856.60 2152.95 L856.60 2136.86 L875.90 2136.86 L875.90 2125.72 L895.33 2125.72 L895.33 2118.05 L914.64 2118.05 L914.64 2106.04 L933.94 2106.04 L933.94 2087.85 L953.37 2087.85 L953.37 2073.25 L972.67 2073.25 L972.67 2060.25 L991.98 2060.25 L991.98 2045.40 L1011.41 2045.40 L1011.41 2032.29 L1030.71 2032.29 L1030.71 2019.17 L1050.02 2019.17 L1050.02 2006.92 L1069.45 2006.92 L1069.45 1998.13 L1088.75 1998.13 L1088.75 1989.34 L1108.06 1989.34 L1108.06 1976.23 L1127.36 1976.23 L1127.36 1961.25 L1146.79 1961.25 L1146.79 1947.02 L1166.10 1947.02 L1166.10 1933.78 L1185.40 1933.78 L1185.40 1917.81 L1204.83 1917.81 L1204.83 1900.98 L1224.13 1900.98 L1224.13 1881.43 L1243.44 1881.43 L1243.44 1867.20 L1262.87 1867.20 L1262.87 1850.37 L1282.17 1850.37 L1282.17 1844.92 L1301.48 1844.92 L1301.48 1828.09 L1320.91 1828.09 L1320.91 1816.46 L1340.21 1816.46 L1340.21 1802.10 L1359.52 1802.10 L1359.52 1785.15 L1378.82 1785.15 L1378.82 1773.52 L1398.25 1773.52 L1398.25 1763.62 L1417.56 1763.62 L1417.56 1755.57 L1436.86 1755.57 L1436.86 1737.63 L1456.29 1737.63 L1456.29 1724.14 L1475.60 1724.14 L1475.60 1708.92 L1494.90 1708.92 L1494.90 1691.84 L1514.33 1691.84 L1514.33 1679.22 L1533.63 1679.22 L1533.63 1672.04 L1552.94 1672.04 L1552.94 1655.70 L1572.37 1655.70 L1572.37 1640.48 L1591.67 1640.48 L1591.67 1626.00 L1610.98 1626.00 L1610.98 1614.25 L1630.28 1614.25 L1630.28 1601.62 L1649.71 1601.62 L1649.71 1590.73 L1669.02 1590.73 L1669.02 1578.11 L1688.32 1578.11 L1688.32 1557.32 L1707.75 1557.32 L1707.75 1540.98 L1727.06 1540.98 L1727.06 1526.50 L1746.36 1526.50 L1746.36 1511.16 L1765.79 1511.16 L1765.79 1502.99 L1785.09 1502.99 L1785.09 1494.82 L1804.40 1494.82 L1804.40 1486.66 L1823.83 1486.66 L1823.83 1483.93 L1843.13 1483.93 L1843.13 1473.04 L1862.44 1473.04 L1862.44 1463.88 L1881.74 1463.88 L1881.74 1452.99 L1901.17 1452.99 L1901.17 1439.38 L1920.48 1439.38 L1920.48 1425.77 L1939.78 1425.77 L1939.78 1408.44 L1959.21 1408.44 L1959.21 1395.70 L1978.52 1395.70 L1978.52 1381.09 L1997.82 1381.09 L1997.82 1369.34 L2017.25 1369.34 L2017.25 1356.59 L2036.55 1356.59 L2036.55 1344.71 L2055.86 1344.71 L2055.86 1336.54 L2075.29 1336.54 L2075.29 1326.52 L2094.59 1326.52 L2094.59 1318.23 L2113.90 1318.23 L2113.90 1303.62 L2133.20 1303.62 L2133.20 1292.73 L2152.63 1292.73 L2152.63 1281.72 L2171.94 1281.72 L2171.94 1276.27 L2191.24 1276.27 L2191.24 1263.53 L2210.67 1263.53 L2210.67 1251.65 L2229.97 1251.65 L2229.97 1240.63 L2249.28 1240.63 L2249.28 1225.04 L2268.71 1225.04 L2268.71 1222.32 L2288.01 1222.32 L2288.01 1215.02 L2307.32 1215.02 L2307.32 1204.99 L2326.75 1204.99 L2326.75 1192.12 L2346.05 1192.12 L2346.05 1182.10 L2365.36 1182.10 L2365.36 1169.23 L2384.79 1169.23 L2384.79 1159.20 L2404.09 1159.20 L2404.09 1149.05 L2423.40 1149.05 L2423.40 1139.03 L2442.70 1139.03 L2442.70 1131.73 L2462.13 1131.73 L2462.13 1127.15 L2481.43 1127.15 L2481.43 1118.86 L2500.74 1118.86 L2500.74 1102.40 L2520.17 1102.40 L2520.17 1093.12 L2539.47 1093.12 L2539.47 1082.23 L2558.78 1082.23 L2558.78 1075.79 L2578.21 1075.79 L2578.21 1061.07 L2597.51 1061.07 L2597.51 1054.63 L2616.82 1054.63 L2616.82 1040.89 L2636.25 1040.89 L2636.25 1033.47 L2655.55 1033.47 L2655.55 1020.60 L2674.86 1020.60 L2674.86 1013.30 L2694.16 1013.30 L2694.16 1005.01 L2713.59 1005.01 L2713.59 997.70 L2732.89 997.70 L2732.89 986.69 L2752.20 986.69 L2752.20 976.54 L2771.63 976.54 L2771.63 966.39 L2790.93 966.39 L2790.93 955.38 L2810.24 955.38 L2810.24 942.51 L2829.67 942.51 L2829.67 934.22 L2848.97 934.22 L2848.97 928.77 L2868.28 928.77 L2868.28 916.77 L2887.71 916.77 L2887.71 906.62 L2907.01 906.62 L2907.01 897.46 L2926.32 897.46 L2926.32 877.17 L2945.62 877.17 L2945.62 867.02 L2965.05 867.02 L2965.05 859.72 L2984.36 859.72 L2984.36 850.44 L3003.66 850.44 L3003.66 839.42 L3003.66 694.26 L3003.66 705.89 L2984.36 705.89 L2984.36 715.54 L2965.05 715.54 L2965.05 723.22 L2945.62 723.22 L2945.62 733.86 L2926.32 733.86 L2926.32 755.15 L2907.01 755.15 L2907.01 764.92 L2887.71 764.92 L2887.71 775.57 L2868.28 775.57 L2868.28 788.06 L2848.97 788.06 L2848.97 793.88 L2829.67 793.88 L2829.67 802.67 L2810.24 802.67 L2810.24 816.16 L2790.93 816.16 L2790.93 827.79 L2771.63 827.79 L2771.63 838.43 L2752.20 838.43 L2752.20 849.08 L2732.89 849.08 L2732.89 860.71 L2713.59 860.71 L2713.59 868.50 L2694.16 868.50 L2694.16 877.17 L2674.86 877.17 L2674.86 884.96 L2655.55 884.96 L2655.55 898.45 L2636.25 898.45 L2636.25 906.25 L2616.82 906.25 L2616.82 920.73 L2597.51 920.73 L2597.51 927.54 L2578.21 927.54 L2578.21 943.00 L2558.78 943.00 L2558.78 949.81 L2539.47 949.81 L2539.47 961.44 L2520.17 961.44 L2520.17 971.10 L2500.74 971.10 L2500.74 988.55 L2481.43 988.55 L2481.43 997.21 L2462.13 997.21 L2462.13 1002.04 L2442.70 1002.04 L2442.70 1009.83 L2423.40 1009.83 L2423.40 1020.47 L2404.09 1020.47 L2404.09 1031.12 L2384.79 1031.12 L2384.79 1041.76 L2365.36 1041.76 L2365.36 1055.37 L2346.05 1055.37 L2346.05 1066.02 L2326.75 1066.02 L2326.75 1079.50 L2307.32 1079.50 L2307.32 1090.15 L2288.01 1090.15 L2288.01 1097.94 L2268.71 1097.94 L2268.71 1100.91 L2249.28 1100.91 L2249.28 1117.37 L2229.97 1117.37 L2229.97 1129.01 L2210.67 1129.01 L2210.67 1141.51 L2191.24 1141.51 L2191.24 1155.12 L2171.94 1155.12 L2171.94 1160.94 L2152.63 1160.94 L2152.63 1172.57 L2133.20 1172.57 L2133.20 1184.20 L2113.90 1184.20 L2113.90 1199.67 L2094.59 1199.67 L2094.59 1208.33 L2075.29 1208.33 L2075.29 1219.10 L2055.86 1219.10 L2055.86 1227.76 L2036.55 1227.76 L2036.55 1240.39 L2017.25 1240.39 L2017.25 1253.87 L1997.82 1253.87 L1997.82 1266.50 L1978.52 1266.50 L1978.52 1282.09 L1959.21 1282.09 L1959.21 1295.58 L1939.78 1295.58 L1939.78 1314.02 L1920.48 1314.02 L1920.48 1328.62 L1901.17 1328.62 L1901.17 1343.10 L1881.74 1343.10 L1881.74 1354.73 L1862.44 1354.73 L1862.44 1364.51 L1843.13 1364.51 L1843.13 1376.14 L1823.83 1376.14 L1823.83 1378.99 L1804.40 1378.99 L1804.40 1387.78 L1785.09 1387.78 L1785.09 1396.44 L1765.79 1396.44 L1765.79 1405.23 L1746.36 1405.23 L1746.36 1421.68 L1727.06 1421.68 L1727.06 1437.15 L1707.75 1437.15 L1707.75 1454.73 L1688.32 1454.73 L1688.32 1477.00 L1669.02 1477.00 L1669.02 1490.62 L1649.71 1490.62 L1649.71 1502.25 L1630.28 1502.25 L1630.28 1515.86 L1610.98 1515.86 L1610.98 1528.48 L1591.67 1528.48 L1591.67 1543.95 L1572.37 1543.95 L1572.37 1560.54 L1552.94 1560.54 L1552.94 1577.99 L1533.63 1577.99 L1533.63 1585.78 L1514.33 1585.78 L1514.33 1599.39 L1494.90 1599.39 L1494.90 1617.83 L1475.60 1617.83 L1475.60 1634.29 L1456.29 1634.29 L1456.29 1648.90 L1436.86 1648.90 L1436.86 1668.45 L1417.56 1668.45 L1417.56 1677.11 L1398.25 1677.11 L1398.25 1687.88 L1378.82 1687.88 L1378.82 1700.50 L1359.52 1700.50 L1359.52 1719.06 L1340.21 1719.06 L1340.21 1734.66 L1320.91 1734.66 L1320.91 1747.28 L1301.48 1747.28 L1301.48 1765.84 L1282.17 1765.84 L1282.17 1771.66 L1262.87 1771.66 L1262.87 1790.22 L1243.44 1790.22 L1243.44 1805.82 L1224.13 1805.82 L1224.13 1827.35 L1204.83 1827.35 L1204.83 1845.91 L1185.40 1845.91 L1185.40 1863.61 L1166.10 1863.61 L1166.10 1878.21 L1146.79 1878.21 L1146.79 1893.93 L1127.36 1893.93 L1127.36 1910.64 L1108.06 1910.64 L1108.06 1925.36 L1088.75 1925.36 L1088.75 1935.26 L1069.45 1935.26 L1069.45 1945.04 L1050.02 1945.04 L1050.02 1958.78 L1030.71 1958.78 L1030.71 1973.63 L1011.41 1973.63 L1011.41 1988.35 L991.98 1988.35 L991.98 2005.18 L972.67 2005.18 L972.67 2020.03 L953.37 2020.03 L953.37 2036.86 L933.94 2036.86 L933.94 2057.78 L914.64 2057.78 L914.64 2071.76 L895.33 2071.76 L895.33 2080.80 L875.90 2080.80 L875.90 2093.79 L856.60 2093.79 L856.60 2112.97 L837.29 2112.97 L837.29 2130.18 L817.86 2130.18 L817.86 2142.43 L798.56 2142.43 L798.56 2160.87 L779.25 2160.87 L779.25 2177.45 L759.95 2177.45 L759.95 2190.07 L740.52 2190.07 L740.52 2201.83 L721.22 2201.83 L721.22 2220.64 L701.91 2220.64 L701.91 2236.11 Z" stroke-linejoin="round"/>
	</defs>
	<defs>
		<clipPath id="clipPath_ZwDJlLrW">
			<use xlink:href="#path_stwjlkho"/>
		</clipPath>
	</defs>
	<use xlink:href="#path_stwjlkho" style="stroke:none;fill:#DDE3E9"/>
	<use xlink:href="#path_stwjlkho" style="fill:none;stroke:#DDE3E9;stroke-width:17.28" clip-path="url(#clipPath_ZwDJlLrW)"/>
	<path d=" M701.79 2236.23 L721.09 2236.23 L721.09 2223.49 L740.52 2223.49 L740.52 2214.82 L759.83 2214.82 L759.83 2205.29 L779.13 2205.29 L779.13 2192.18 L798.56 2192.18 L798.56 2177.33 L817.86 2177.33 L817.86 2167.30 L837.17 2167.30 L837.17 2152.95 L856.60 2152.95 L856.60 2136.86 L875.90 2136.86 L875.90 2125.84 L895.21 2125.84 L895.21 2118.05 L914.64 2118.05 L914.64 2106.04 L933.94 2106.04 L933.94 2087.98 L953.25 2087.98 L953.25 2073.25 L972.55 2073.25 L972.55 2060.25 L991.98 2060.25 L991.98 2045.53 L1011.28 2045.53 L1011.28 2032.41 L1030.59 2032.41 L1030.59 2019.29 L1050.02 2019.29 L1050.02 2007.04 L1069.32 2007.04 L1069.32 1998.25 L1088.63 1998.25 L1088.63 1989.47 L1108.06 1989.47 L1108.06 1976.23 L1127.36 1976.23 L1127.36 1961.25 L1146.67 1961.25 L1146.67 1947.14 L1166.10 1947.14 L1166.10 1933.90 L1185.40 1933.90 L1185.40 1917.94 L1204.71 1917.94 L1204.71 1901.11 L1224.01 1901.11 L1224.01 1881.55 L1243.44 1881.55 L1243.44 1867.32 L1262.74 1867.32 L1262.74 1850.37 L1282.05 1850.37 L1282.05 1845.05 L1301.48 1845.05 L1301.48 1828.09 L1320.78 1828.09 L1320.78 1816.46 L1340.09 1816.46 L1340.09 1802.23 L1359.52 1802.23 L1359.52 1785.15 L1378.82 1785.15 L1378.82 1773.52 L1398.13 1773.52 L1398.13 1763.74 L1417.56 1763.74 L1417.56 1755.57 L1436.86 1755.57 L1436.86 1737.63 L1456.17 1737.63 L1456.17 1724.26 L1475.47 1724.26 L1475.47 1708.92 L1494.90 1708.92 L1494.90 1691.84 L1514.20 1691.84 L1514.20 1679.22 L1533.51 1679.22 L1533.51 1672.04 L1552.94 1672.04 L1552.94 1655.83 L1572.24 1655.83 L1572.24 1640.48 L1591.55 1640.48 L1591.55 1626.13 L1610.98 1626.13 L1610.98 1614.37 L1630.28 1614.37 L1630.28 1601.62 L1649.59 1601.62 L1649.59 1590.86 L1669.02 1590.86 L1669.02 1578.23 L1688.32 1578.23 L1688.32 1557.32 L1707.63 1557.32 L1707.63 1541.11 L1727.06 1541.11 L1727.06 1526.63 L1746.36 1526.63 L1746.36 1511.16 L1765.66 1511.16 L1765.66 1502.99 L1784.97 1502.99 L1784.97 1494.82 L1804.40 1494.82 L1804.40 1486.66 L1823.70 1486.66 L1823.70 1483.93 L1843.01 1483.93 L1843.01 1473.04 L1862.44 1473.04 L1862.44 1464.01 L1881.74 1464.01 L1881.74 1453.12 L1901.05 1453.12 L1901.05 1439.50 L1920.48 1439.50 L1920.48 1425.77 L1939.78 1425.77 L1939.78 1408.57 L1959.09 1408.57 L1959.09 1395.82 L1978.52 1395.82 L1978.52 1381.22 L1997.82 1381.22 L1997.82 1369.34 L2017.13 1369.34 L2017.13 1356.59 L2036.43 1356.59 L2036.43 1344.71 L2055.86 1344.71 L2055.86 1336.54 L2075.16 1336.54 L2075.16 1326.52 L2094.47 1326.52 L2094.47 1318.35 L2113.90 1318.35 L2113.90 1303.75 L2133.20 1303.75 L2133.20 1292.73 L2152.51 1292.73 L2152.51 1281.84 L2171.94 1281.84 L2171.94 1276.27 L2191.24 1276.27 L2191.24 1263.53 L2210.55 1263.53 L2210.55 1251.65 L2229.97 1251.65 L2229.97 1240.63 L2249.28 1240.63 L2249.28 1225.16 L2268.59 1225.16 L2268.59 1222.44 L2287.89 1222.44 L2287.89 1215.02 L2307.32 1215.02 L2307.32 1204.99 L2326.62 1204.99 L2326.62 1192.24 L2345.93 1192.24 L2345.93 1182.10 L2365.36 1182.10 L2365.36 1169.35 L2384.66 1169.35 L2384.66 1159.20 L2403.97 1159.20 L2403.97 1149.18 L2423.40 1149.18 L2423.40 1139.03 L2442.70 1139.03 L2442.70 1131.73 L2462.01 1131.73 L2462.01 1127.15 L2481.43 1127.15 L2481.43 1118.86 L2500.74 1118.86 L2500.74 1102.40 L2520.05 1102.40 L2520.05 1093.24 L2539.35 1093.24 L2539.35 1082.23 L2558.78 1082.23 L2558.78 1075.79 L2578.08 1075.79 L2578.08 1061.07 L2597.39 1061.07 L2597.39 1054.75 L2616.82 1054.75 L2616.82 1040.89 L2636.12 1040.89 L2636.12 1033.59 L2655.43 1033.59 L2655.43 1020.72 L2674.86 1020.72 L2674.86 1013.42 L2694.16 1013.42 L2694.16 1005.13 L2713.47 1005.13 L2713.47 997.70 L2732.89 997.70 L2732.89 986.69 L2752.20 986.69 L2752.20 976.67 L2771.51 976.67 L2771.51 966.52 L2790.81 966.52 L2790.81 955.50 L2810.24 955.50 L2810.24 942.63 L2829.54 942.63 L2829.54 934.34 L2848.85 934.34 L2848.85 928.77 L2868.28 928.77 L2868.28 916.77 L2887.58 916.77 L2887.58 906.74 L2906.89 906.74 L2906.89 897.46 L2926.32 897.46 L2926.32 877.29 L2945.62 877.29 L2945.62 867.14 L2964.93 867.14 L2964.93 859.72 L2984.36 859.72 L2984.36 850.56 L3003.66 850.56 L3003.66 839.42" stroke-linejoin="round" style="fill:none;stroke:#8DA3B7;stroke-width:8.64"/>
	<path d=" M701.79 2220.64 L721.09 2220.64 L721.09 2201.95 L740.52 2201.95 L740.52 2190.20 L759.83 2190.20 L759.83 2177.57 L779.13 2177.57 L779.13 2160.87 L798.56 2160.87 L798.56 2142.43 L817.86 2142.43 L817.86 2130.18 L837.17 2130.18 L837.17 2112.97 L856.60 2112.97 L856.60 2093.92 L875.90 2093.92 L875.90 2080.80 L895.21 2080.80 L895.21 2071.76 L914.64 2071.76 L914.64 2057.90 L933.94 2057.90 L933.94 2036.99 L953.25 2036.99 L953.25 2020.03 L972.55 2020.03 L972.55 2005.31 L991.98 2005.31 L991.98 1988.48 L1011.28 1988.48 L1011.28 1973.63 L1030.59 1973.63 L1030.59 1958.90 L1050.02 1958.90 L1050.02 1945.16 L1069.32 1945.16 L1069.32 1935.26 L1088.63 1935.26 L1088.63 1925.49 L1108.06 1925.49 L1108.06 1910.76 L1127.36 1910.76 L1127.36 1894.05 L1146.67 1894.05 L1146.67 1878.34 L1166.10 1878.34 L1166.10 1863.61 L1185.40 1863.61 L1185.40 1846.04 L1204.71 1846.04 L1204.71 1827.47 L1224.01 1827.47 L1224.01 1805.94 L1243.44 1805.94 L1243.44 1790.35 L1262.74 1790.35 L1262.74 1771.78 L1282.05 1771.78 L1282.05 1765.84 L1301.48 1765.84 L1301.48 1747.40 L1320.78 1747.40 L1320.78 1734.66 L1340.09 1734.66 L1340.09 1719.06 L1359.52 1719.06 L1359.52 1700.63 L1378.82 1700.63 L1378.82 1687.88 L1398.13 1687.88 L1398.13 1677.24 L1417.56 1677.24 L1417.56 1668.45 L1436.86 1668.45 L1436.86 1649.02 L1456.17 1649.02 L1456.17 1634.42 L1475.47 1634.42 L1475.47 1617.83 L1494.90 1617.83 L1494.90 1599.39 L1514.20 1599.39 L1514.20 1585.78 L1533.51 1585.78 L1533.51 1577.99 L1552.94 1577.99 L1552.94 1560.54 L1572.24 1560.54 L1572.24 1544.08 L1591.55 1544.08 L1591.55 1528.48 L1610.98 1528.48 L1610.98 1515.86 L1630.28 1515.86 L1630.28 1502.25 L1649.59 1502.25 L1649.59 1490.62 L1669.02 1490.62 L1669.02 1477.00 L1688.32 1477.00 L1688.32 1454.73 L1707.63 1454.73 L1707.63 1437.28 L1727.06 1437.28 L1727.06 1421.68 L1746.36 1421.68 L1746.36 1405.23 L1765.66 1405.23 L1765.66 1396.56 L1784.97 1396.56 L1784.97 1387.78 L1804.40 1387.78 L1804.40 1379.11 L1823.70 1379.11 L1823.70 1376.14 L1843.01 1376.14 L1843.01 1364.51 L1862.44 1364.51 L1862.44 1354.86 L1881.74 1354.86 L1881.74 1343.22 L1901.05 1343.22 L1901.05 1328.62 L1920.48 1328.62 L1920.48 1314.14 L1939.78 1314.14 L1939.78 1295.70 L1959.09 1295.70 L1959.09 1282.09 L1978.52 1282.09 L1978.52 1266.62 L1997.82 1266.62 L1997.82 1254.00 L2017.13 1254.00 L2017.13 1240.39 L2036.43 1240.39 L2036.43 1227.89 L2055.86 1227.89 L2055.86 1219.10 L2075.16 1219.10 L2075.16 1208.46 L2094.47 1208.46 L2094.47 1199.67 L2113.90 1199.67 L2113.90 1184.20 L2133.20 1184.20 L2133.20 1172.57 L2152.51 1172.57 L2152.51 1160.94 L2171.94 1160.94 L2171.94 1155.12 L2191.24 1155.12 L2191.24 1141.63 L2210.55 1141.63 L2210.55 1129.01 L2229.97 1129.01 L2229.97 1117.37 L2249.28 1117.37 L2249.28 1100.91 L2268.59 1100.91 L2268.59 1098.07 L2287.89 1098.07 L2287.89 1090.27 L2307.32 1090.27 L2307.32 1079.63 L2326.62 1079.63 L2326.62 1066.02 L2345.93 1066.02 L2345.93 1055.37 L2365.36 1055.37 L2365.36 1041.88 L2384.66 1041.88 L2384.66 1031.24 L2403.97 1031.24 L2403.97 1020.47 L2423.40 1020.47 L2423.40 1009.83 L2442.70 1009.83 L2442.70 1002.16 L2462.01 1002.16 L2462.01 997.33 L2481.43 997.33 L2481.43 988.55 L2500.74 988.55 L2500.74 971.10 L2520.05 971.10 L2520.05 961.44 L2539.35 961.44 L2539.35 949.81 L2558.78 949.81 L2558.78 943.00 L2578.08 943.00 L2578.08 927.54 L2597.39 927.54 L2597.39 920.85 L2616.82 920.85 L2616.82 906.25 L2636.12 906.25 L2636.12 898.58 L2655.43 898.58 L2655.43 884.96 L2674.86 884.96 L2674.86 877.17 L2694.16 877.17 L2694.16 868.50 L2713.47 868.50 L2713.47 860.71 L2732.89 860.71 L2732.89 849.20 L2752.20 849.20 L2752.20 838.56 L2771.51 838.56 L2771.51 827.91 L2790.81 827.91 L2790.81 816.28 L2810.24 816.28 L2810.24 802.67 L2829.54 802.67 L2829.54 794.00 L2848.85 794.00 L2848.85 788.19 L2868.28 788.19 L2868.28 775.57 L2887.58 775.57 L2887.58 764.92 L2906.89 764.92 L2906.89 755.27 L2926.32 755.27 L2926.32 733.98 L2945.62 733.98 L2945.62 723.34 L2964.93 723.34 L2964.93 715.54 L2984.36 715.54 L2984.36 705.89 L3003.66 705.89 L3003.66 694.26" stroke-linejoin="round" style="fill:none;stroke:#8DA3B7;stroke-width:8.64"/>
	<defs>
		<path id="path_HVPQyoUK" d="M701.91 2245.14 L701.91 2245.14 L721.22 2245.14 L721.22 2243.41 L740.52 2243.41 L740.52 2238.46 L759.95 2238.46 L759.95 2229.30 L779.25 2229.30 L779.25 2222.62 L798.56 2222.62 L798.56 2208.39 L817.86 2208.39 L817.86 2200.96 L837.29 2200.96 L837.29 2197.13 L875.90 2197.13 L875.90 2193.41 L895.33 2193.41 L895.33 2189.58 L914.64 2189.58 L914.64 2185.62 L933.94 2185.62 L933.94 2181.78 L953.37 2181.78 L953.37 2169.90 L972.67 2169.90 L972.67 2157.90 L991.98 2157.90 L991.98 2153.94 L1011.41 2153.94 L1011.41 2149.85 L1050.02 2149.85 L1050.02 2145.77 L1069.45 2145.77 L1069.45 2141.68 L1088.75 2141.68 L1088.75 2133.39 L1127.36 2133.39 L1127.36 2125.23 L1146.79 2125.23 L1146.79 2125.23 L1166.10 2125.23 L1166.10 2121.02 L1185.40 2121.02 L1185.40 2116.81 L1204.83 2116.81 L1204.83 2104.31 L1224.13 2104.31 L1224.13 2095.90 L1243.44 2095.90 L1243.44 2095.90 L1262.87 2095.90 L1262.87 2083.15 L1282.17 2083.15 L1282.17 2066.07 L1301.48 2066.07 L1301.48 2053.32 L1320.91 2053.32 L1320.91 2048.99 L1340.21 2048.99 L1340.21 2040.33 L1359.52 2040.33 L1359.52 2036.00 L1378.82 2036.00 L1378.82 2023.00 L1398.25 2023.00 L1398.25 2014.34 L1417.56 2014.34 L1417.56 2010.01 L1436.86 2010.01 L1436.86 1988.23 L1456.29 1988.23 L1456.29 1979.44 L1475.60 1979.44 L1475.60 1979.44 L1494.90 1979.44 L1494.90 1957.41 L1514.33 1957.41 L1514.33 1939.72 L1533.63 1939.72 L1533.63 1930.93 L1552.94 1930.93 L1552.94 1908.66 L1572.37 1908.66 L1572.37 1886.38 L1591.67 1886.38 L1591.67 1886.38 L1610.98 1886.38 L1610.98 1873.01 L1630.28 1873.01 L1630.28 1859.65 L1649.71 1859.65 L1649.71 1846.16 L1669.02 1846.16 L1669.02 1837.25 L1688.32 1837.25 L1688.32 1828.22 L1707.75 1828.22 L1707.75 1823.76 L1727.06 1823.76 L1727.06 1814.73 L1746.36 1814.73 L1746.36 1805.69 L1785.09 1805.69 L1785.09 1787.62 L1804.40 1787.62 L1804.40 1774.14 L1823.83 1774.14 L1823.83 1760.52 L1843.13 1760.52 L1843.13 1751.49 L1862.44 1751.49 L1862.44 1742.33 L1881.74 1742.33 L1881.74 1737.88 L1901.17 1737.88 L1901.17 1728.72 L1920.48 1728.72 L1920.48 1719.68 L1939.78 1719.68 L1939.78 1719.68 L1959.21 1719.68 L1959.21 1715.10 L1978.52 1715.10 L1978.52 1706.07 L1997.82 1706.07 L1997.82 1706.07 L2017.25 1706.07 L2017.25 1692.33 L2036.55 1692.33 L2036.55 1678.72 L2075.29 1678.72 L2075.29 1669.56 L2113.90 1669.56 L2113.90 1664.98 L2133.20 1664.98 L2133.20 1655.83 L2152.63 1655.83 L2152.63 1651.25 L2171.94 1651.25 L2171.94 1632.93 L2191.24 1632.93 L2191.24 1628.35 L2210.67 1628.35 L2210.67 1619.20 L2229.97 1619.20 L2229.97 1614.62 L2249.28 1614.62 L2249.28 1614.62 L2268.71 1614.62 L2268.71 1605.46 L2288.01 1605.46 L2288.01 1596.30 L2307.32 1596.30 L2307.32 1587.14 L2326.75 1587.14 L2326.75 1573.41 L2346.05 1573.41 L2346.05 1568.83 L2384.79 1568.83 L2384.79 1554.97 L2404.09 1554.97 L2404.09 1545.81 L2462.13 1545.81 L2462.13 1541.23 L2481.43 1541.23 L2481.43 1531.95 L2500.74 1531.95 L2500.74 1527.37 L2520.17 1527.37 L2520.17 1513.51 L2539.47 1513.51 L2539.47 1499.77 L2558.78 1499.77 L2558.78 1490.49 L2578.21 1490.49 L2578.21 1472.05 L2597.51 1472.05 L2597.51 1467.35 L2616.82 1467.35 L2616.82 1462.77 L2674.86 1462.77 L2674.86 1458.19 L2713.59 1458.19 L2713.59 1453.49 L2732.89 1453.49 L2732.89 1439.63 L2752.20 1439.63 L2752.20 1421.19 L2790.93 1421.19 L2790.93 1416.49 L2810.24 1416.49 L2810.24 1402.63 L2848.97 1402.63 L2848.97 1397.92 L2868.28 1397.92 L2868.28 1379.48 L2887.71 1379.48 L2887.71 1370.20 L2926.32 1370.20 L2926.32 1360.92 L2945.62 1360.92 L2945.62 1351.64 L2965.05 1351.64 L2965.05 1328.37 L2984.36 1328.37 L2984.36 1319.09 L3003.66 1319.09 L3003.66 1319.09 L3003.66 1034.71 L3003.66 1034.71 L2984.36 1034.71 L2984.36 1045.23 L2965.05 1045.23 L2965.05 1071.83 L2945.62 1071.83 L2945.62 1082.48 L2926.32 1082.48 L2926.32 1093.12 L2887.71 1093.12 L2887.71 1103.76 L2868.28 1103.76 L2868.28 1125.05 L2848.97 1125.05 L2848.97 1130.37 L2810.24 1130.37 L2810.24 1146.33 L2790.93 1146.33 L2790.93 1151.65 L2752.20 1151.65 L2752.20 1172.94 L2732.89 1172.94 L2732.89 1188.90 L2713.59 1188.90 L2713.59 1194.35 L2674.86 1194.35 L2674.86 1199.67 L2616.82 1199.67 L2616.82 1204.99 L2597.51 1204.99 L2597.51 1210.31 L2578.21 1210.31 L2578.21 1231.72 L2558.78 1231.72 L2558.78 1242.37 L2539.47 1242.37 L2539.47 1258.45 L2520.17 1258.45 L2520.17 1274.42 L2500.74 1274.42 L2500.74 1279.74 L2481.43 1279.74 L2481.43 1290.51 L2462.13 1290.51 L2462.13 1295.83 L2404.09 1295.83 L2404.09 1306.59 L2384.79 1306.59 L2384.79 1322.68 L2346.05 1322.68 L2346.05 1328.00 L2326.75 1328.00 L2326.75 1344.09 L2307.32 1344.09 L2307.32 1354.86 L2288.01 1354.86 L2288.01 1365.62 L2268.71 1365.62 L2268.71 1376.27 L2249.28 1376.27 L2249.28 1376.27 L2229.97 1376.27 L2229.97 1381.71 L2210.67 1381.71 L2210.67 1392.48 L2191.24 1392.48 L2191.24 1397.80 L2171.94 1397.80 L2171.94 1419.33 L2152.63 1419.33 L2152.63 1424.78 L2133.20 1424.78 L2133.20 1435.54 L2113.90 1435.54 L2113.90 1440.87 L2075.29 1440.87 L2075.29 1451.63 L2036.55 1451.63 L2036.55 1467.84 L2017.25 1467.84 L2017.25 1484.06 L1997.82 1484.06 L1997.82 1484.06 L1978.52 1484.06 L1978.52 1494.82 L1959.21 1494.82 L1959.21 1500.27 L1939.78 1500.27 L1939.78 1500.27 L1920.48 1500.27 L1920.48 1511.03 L1901.17 1511.03 L1901.17 1521.93 L1881.74 1521.93 L1881.74 1527.37 L1862.44 1527.37 L1862.44 1538.14 L1843.13 1538.14 L1843.13 1549.03 L1823.83 1549.03 L1823.83 1565.24 L1804.40 1565.24 L1804.40 1581.57 L1785.09 1581.57 L1785.09 1603.36 L1746.36 1603.36 L1746.36 1614.12 L1727.06 1614.12 L1727.06 1625.14 L1707.75 1625.14 L1707.75 1630.58 L1688.32 1630.58 L1688.32 1641.47 L1669.02 1641.47 L1669.02 1652.36 L1649.71 1652.36 L1649.71 1668.70 L1630.28 1668.70 L1630.28 1685.16 L1610.98 1685.16 L1610.98 1701.62 L1591.67 1701.62 L1591.67 1701.62 L1572.37 1701.62 L1572.37 1729.09 L1552.94 1729.09 L1552.94 1756.56 L1533.63 1756.56 L1533.63 1767.58 L1514.33 1767.58 L1514.33 1789.73 L1494.90 1789.73 L1494.90 1817.45 L1475.60 1817.45 L1475.60 1817.45 L1456.29 1817.45 L1456.29 1828.59 L1436.86 1828.59 L1436.86 1856.43 L1417.56 1856.43 L1417.56 1862.00 L1398.25 1862.00 L1398.25 1873.26 L1378.82 1873.26 L1378.82 1889.97 L1359.52 1889.97 L1359.52 1895.66 L1340.21 1895.66 L1340.21 1906.92 L1320.91 1906.92 L1320.91 1912.49 L1301.48 1912.49 L1301.48 1929.45 L1282.17 1929.45 L1282.17 1952.22 L1262.87 1952.22 L1262.87 1969.30 L1243.44 1969.30 L1243.44 1969.30 L1224.13 1969.30 L1224.13 1980.68 L1204.83 1980.68 L1204.83 1998.01 L1185.40 1998.01 L1185.40 2003.70 L1166.10 2003.70 L1166.10 2009.52 L1146.79 2009.52 L1146.79 2009.52 L1127.36 2009.52 L1127.36 2021.15 L1088.75 2021.15 L1088.75 2032.78 L1069.45 2032.78 L1069.45 2038.60 L1050.02 2038.60 L1050.02 2044.41 L1011.41 2044.41 L1011.41 2050.35 L991.98 2050.35 L991.98 2056.17 L972.67 2056.17 L972.67 2073.99 L953.37 2073.99 L953.37 2091.94 L933.94 2091.94 L933.94 2097.88 L914.64 2097.88 L914.64 2103.94 L895.33 2103.94 L895.33 2110.00 L875.90 2110.00 L875.90 2116.19 L837.29 2116.19 L837.29 2122.26 L817.86 2122.26 L817.86 2134.63 L798.56 2134.63 L798.56 2160.00 L779.25 2160.00 L779.25 2172.99 L759.95 2172.99 L759.95 2192.92 L740.52 2192.92 L740.52 2206.16 L721.22 2206.16 L721.22 2210.62 L701.91 2210.62 L701.91 2245.14 Z" stroke-linejoin="round"/>
	</defs>
	<defs>
		<clipPath id="clipPath_qySteYJg">
			<use xlink:href="#path_HVPQyoUK"/>
		</clipPath>
	</defs>
	<use xlink:href="#path_HVPQyoUK" style="stroke:none;fill:#EEE1E2"/>
	<use xlink:href="#path_HVPQyoUK" style="fill:none;stroke:#EEE1E2;stroke-width:17.28" clip-path="url(#clipPath_qySteYJg)"/>
	<path d=" M701.79 2245.27 L721.09 2245.27 L721.09 2243.41 L740.52 2243.41 L740.52 2238.46 L759.83 2238.46 L759.83 2229.43 L779.13 2229.43 L779.13 2222.74 L798.56 2222.74 L798.56 2208.39 L817.86 2208.39 L817.86 2200.96 L837.17 2200.96 L837.17 2197.25 L875.90 2197.25 L875.90 2193.41 L895.21 2193.41 L895.21 2189.58 L914.64 2189.58 L914.64 2185.74 L933.94 2185.74 L933.94 2181.78 L953.25 2181.78 L953.25 2170.02 L972.55 2170.02 L972.55 2158.02 L991.98 2158.02 L991.98 2153.94 L1011.28 2153.94 L1011.28 2149.85 L1050.02 2149.85 L1050.02 2145.77 L1069.32 2145.77 L1069.32 2141.68 L1088.63 2141.68 L1088.63 2133.52 L1127.36 2133.52 L1127.36 2125.23 L1146.67 2125.23 L1146.67 2125.23 L1166.10 2125.23 L1166.10 2121.02 L1185.40 2121.02 L1185.40 2116.93 L1204.71 2116.93 L1204.71 2104.31 L1224.01 2104.31 L1224.01 2095.90 L1243.44 2095.90 L1243.44 2095.90 L1262.74 2095.90 L1262.74 2083.27 L1282.05 2083.27 L1282.05 2066.19 L1301.48 2066.19 L1301.48 2053.32 L1320.78 2053.32 L1320.78 2048.99 L1340.09 2048.99 L1340.09 2040.45 L1359.52 2040.45 L1359.52 2036.12 L1378.82 2036.12 L1378.82 2023.13 L1398.13 2023.13 L1398.13 2014.47 L1417.56 2014.47 L1417.56 2010.01 L1436.86 2010.01 L1436.86 1988.23 L1456.17 1988.23 L1456.17 1979.44 L1475.47 1979.44 L1475.47 1979.44 L1494.90 1979.44 L1494.90 1957.54 L1514.20 1957.54 L1514.20 1939.84 L1533.51 1939.84 L1533.51 1930.93 L1552.94 1930.93 L1552.94 1908.78 L1572.24 1908.78 L1572.24 1886.50 L1591.55 1886.50 L1591.55 1886.50 L1610.98 1886.50 L1610.98 1873.14 L1630.28 1873.14 L1630.28 1859.65 L1649.59 1859.65 L1649.59 1846.28 L1669.02 1846.28 L1669.02 1837.25 L1688.32 1837.25 L1688.32 1828.22 L1707.63 1828.22 L1707.63 1823.76 L1727.06 1823.76 L1727.06 1814.73 L1746.36 1814.73 L1746.36 1805.69 L1784.97 1805.69 L1784.97 1787.75 L1804.40 1787.75 L1804.40 1774.14 L1823.70 1774.14 L1823.70 1760.52 L1843.01 1760.52 L1843.01 1751.49 L1862.44 1751.49 L1862.44 1742.45 L1881.74 1742.45 L1881.74 1737.88 L1901.05 1737.88 L1901.05 1728.84 L1920.48 1728.84 L1920.48 1719.68 L1939.78 1719.68 L1939.78 1719.68 L1959.09 1719.68 L1959.09 1715.23 L1978.52 1715.23 L1978.52 1706.07 L1997.82 1706.07 L1997.82 1706.07 L2017.13 1706.07 L2017.13 1692.46 L2036.43 1692.46 L2036.43 1678.72 L2075.16 1678.72 L2075.16 1669.56 L2113.90 1669.56 L2113.90 1665.11 L2133.20 1665.11 L2133.20 1655.95 L2152.51 1655.95 L2152.51 1651.37 L2171.94 1651.37 L2171.94 1633.06 L2191.24 1633.06 L2191.24 1628.48 L2210.55 1628.48 L2210.55 1619.32 L2229.97 1619.32 L2229.97 1614.74 L2249.28 1614.74 L2249.28 1614.74 L2268.59 1614.74 L2268.59 1605.58 L2287.89 1605.58 L2287.89 1596.42 L2307.32 1596.42 L2307.32 1587.27 L2326.62 1587.27 L2326.62 1573.41 L2345.93 1573.41 L2345.93 1568.83 L2384.66 1568.83 L2384.66 1555.09 L2403.97 1555.09 L2403.97 1545.81 L2462.01 1545.81 L2462.01 1541.23 L2481.43 1541.23 L2481.43 1532.07 L2500.74 1532.07 L2500.74 1527.49 L2520.05 1527.49 L2520.05 1513.63 L2539.35 1513.63 L2539.35 1499.77 L2558.78 1499.77 L2558.78 1490.49 L2578.08 1490.49 L2578.08 1472.05 L2597.39 1472.05 L2597.39 1467.47 L2616.82 1467.47 L2616.82 1462.89 L2674.86 1462.89 L2674.86 1458.19 L2713.47 1458.19 L2713.47 1453.61 L2732.89 1453.61 L2732.89 1439.75 L2752.20 1439.75 L2752.20 1421.19 L2790.81 1421.19 L2790.81 1416.61 L2810.24 1416.61 L2810.24 1402.63 L2848.85 1402.63 L2848.85 1398.05 L2868.28 1398.05 L2868.28 1379.48 L2887.58 1379.48 L2887.58 1370.20 L2926.32 1370.20 L2926.32 1360.92 L2945.62 1360.92 L2945.62 1351.64 L2964.93 1351.64 L2964.93 1328.37 L2984.36 1328.37 L2984.36 1319.09 L3003.66 1319.09 L3003.66 1319.09" stroke-linejoin="round" style="fill:none;stroke:#C89A9D;stroke-width:8.64"/>
	<path d=" M701.79 2210.74 L721.09 2210.74 L721.09 2206.28 L740.52 2206.28 L740.52 2193.04 L759.83 2193.04 L759.83 2172.99 L779.13 2172.99 L779.13 2160.00 L798.56 2160.00 L798.56 2134.75 L817.86 2134.75 L817.86 2122.38 L837.17 2122.38 L837.17 2116.19 L875.90 2116.19 L875.90 2110.13 L895.21 2110.13 L895.21 2104.06 L914.64 2104.06 L914.64 2098.00 L933.94 2098.00 L933.94 2091.94 L953.25 2091.94 L953.25 2073.99 L972.55 2073.99 L972.55 2056.29 L991.98 2056.29 L991.98 2050.35 L1011.28 2050.35 L1011.28 2044.54 L1050.02 2044.54 L1050.02 2038.60 L1069.32 2038.60 L1069.32 2032.78 L1088.63 2032.78 L1088.63 2021.15 L1127.36 2021.15 L1127.36 2009.64 L1146.67 2009.64 L1146.67 2009.64 L1166.10 2009.64 L1166.10 2003.82 L1185.40 2003.82 L1185.40 1998.01 L1204.71 1998.01 L1204.71 1980.80 L1224.01 1980.80 L1224.01 1969.42 L1243.44 1969.42 L1243.44 1969.42 L1262.74 1969.42 L1262.74 1952.22 L1282.05 1952.22 L1282.05 1929.57 L1301.48 1929.57 L1301.48 1912.62 L1320.78 1912.62 L1320.78 1906.92 L1340.09 1906.92 L1340.09 1895.66 L1359.52 1895.66 L1359.52 1890.09 L1378.82 1890.09 L1378.82 1873.26 L1398.13 1873.26 L1398.13 1862.12 L1417.56 1862.12 L1417.56 1856.43 L1436.86 1856.43 L1436.86 1828.59 L1456.17 1828.59 L1456.17 1817.57 L1475.47 1817.57 L1475.47 1817.57 L1494.90 1817.57 L1494.90 1789.73 L1514.20 1789.73 L1514.20 1767.70 L1533.51 1767.70 L1533.51 1756.69 L1552.94 1756.69 L1552.94 1729.09 L1572.24 1729.09 L1572.24 1701.62 L1591.55 1701.62 L1591.55 1701.62 L1610.98 1701.62 L1610.98 1685.28 L1630.28 1685.28 L1630.28 1668.82 L1649.59 1668.82 L1649.59 1652.36 L1669.02 1652.36 L1669.02 1641.47 L1688.32 1641.47 L1688.32 1630.58 L1707.63 1630.58 L1707.63 1625.14 L1727.06 1625.14 L1727.06 1614.25 L1746.36 1614.25 L1746.36 1603.36 L1784.97 1603.36 L1784.97 1581.57 L1804.40 1581.57 L1804.40 1565.36 L1823.70 1565.36 L1823.70 1549.03 L1843.01 1549.03 L1843.01 1538.26 L1862.44 1538.26 L1862.44 1527.37 L1881.74 1527.37 L1881.74 1521.93 L1901.05 1521.93 L1901.05 1511.16 L1920.48 1511.16 L1920.48 1500.27 L1939.78 1500.27 L1939.78 1500.27 L1959.09 1500.27 L1959.09 1494.95 L1978.52 1494.95 L1978.52 1484.06 L1997.82 1484.06 L1997.82 1484.06 L2017.13 1484.06 L2017.13 1467.97 L2036.43 1467.97 L2036.43 1451.76 L2075.16 1451.76 L2075.16 1440.99 L2113.90 1440.99 L2113.90 1435.54 L2133.20 1435.54 L2133.20 1424.78 L2152.51 1424.78 L2152.51 1419.46 L2171.94 1419.46 L2171.94 1397.92 L2191.24 1397.92 L2191.24 1392.48 L2210.55 1392.48 L2210.55 1381.71 L2229.97 1381.71 L2229.97 1376.39 L2249.28 1376.39 L2249.28 1376.39 L2268.59 1376.39 L2268.59 1365.62 L2287.89 1365.62 L2287.89 1354.86 L2307.32 1354.86 L2307.32 1344.21 L2326.62 1344.21 L2326.62 1328.13 L2345.93 1328.13 L2345.93 1322.68 L2384.66 1322.68 L2384.66 1306.59 L2403.97 1306.59 L2403.97 1295.95 L2462.01 1295.95 L2462.01 1290.51 L2481.43 1290.51 L2481.43 1279.86 L2500.74 1279.86 L2500.74 1274.54 L2520.05 1274.54 L2520.05 1258.45 L2539.35 1258.45 L2539.35 1242.37 L2558.78 1242.37 L2558.78 1231.72 L2578.08 1231.72 L2578.08 1210.31 L2597.39 1210.31 L2597.39 1204.99 L2616.82 1204.99 L2616.82 1199.67 L2674.86 1199.67 L2674.86 1194.35 L2713.47 1194.35 L2713.47 1189.03 L2732.89 1189.03 L2732.89 1173.06 L2752.20 1173.06 L2752.20 1151.65 L2790.81 1151.65 L2790.81 1146.33 L2810.24 1146.33 L2810.24 1130.37 L2848.85 1130.37 L2848.85 1125.05 L2868.28 1125.05 L2868.28 1103.76 L2887.58 1103.76 L2887.58 1093.12 L2926.32 1093.12 L2926.32 1082.48 L2945.62 1082.48 L2945.62 1071.83 L2964.93 1071.83 L2964.93 1045.35 L2984.36 1045.35 L2984.36 1034.71 L3003.66 1034.71 L3003.66 1034.71" stroke-linejoin="round" style="fill:none;stroke:#C89A9D;stroke-width:8.64"/>
	<path d=" M682.48 2246.01 L682.48 2246.01 L682.48 2246.01 L701.79 2246.01 L701.79 2230.17 L721.09 2230.17 L721.09 2214.45 L740.52 2214.45 L740.52 2204.30 L759.83 2204.30 L759.83 2193.17 L779.13 2193.17 L779.13 2178.32 L798.56 2178.32 L798.56 2161.61 L817.86 2161.61 L817.86 2150.47 L837.17 2150.47 L837.17 2134.75 L856.60 2134.75 L856.60 2117.18 L875.90 2117.18 L875.90 2105.05 L895.21 2105.05 L895.21 2096.76 L914.64 2096.76 L914.64 2083.77 L933.94 2083.77 L933.94 2064.21 L953.25 2064.21 L953.25 2048.50 L972.55 2048.50 L972.55 2034.51 L991.98 2034.51 L991.98 2018.80 L1011.28 2018.80 L1011.28 2004.81 L1030.59 2004.81 L1030.59 1990.83 L1050.02 1990.83 L1050.02 1977.83 L1069.32 1977.83 L1069.32 1968.55 L1088.63 1968.55 L1088.63 1959.27 L1108.06 1959.27 L1108.06 1945.29 L1127.36 1945.29 L1127.36 1929.45 L1146.67 1929.45 L1146.67 1914.47 L1166.10 1914.47 L1166.10 1900.49 L1185.40 1900.49 L1185.40 1883.78 L1204.71 1883.78 L1204.71 1866.08 L1224.01 1866.08 L1224.01 1845.54 L1243.44 1845.54 L1243.44 1830.57 L1262.74 1830.57 L1262.74 1812.87 L1282.05 1812.87 L1282.05 1807.30 L1301.48 1807.30 L1301.48 1789.48 L1320.78 1789.48 L1320.78 1777.35 L1340.09 1777.35 L1340.09 1762.38 L1359.52 1762.38 L1359.52 1744.68 L1378.82 1744.68 L1378.82 1732.55 L1398.13 1732.55 L1398.13 1722.28 L1417.56 1722.28 L1417.56 1713.87 L1436.86 1713.87 L1436.86 1695.18 L1456.17 1695.18 L1456.17 1681.07 L1475.47 1681.07 L1475.47 1665.23 L1494.90 1665.23 L1494.90 1647.41 L1514.20 1647.41 L1514.20 1634.29 L1533.51 1634.29 L1533.51 1626.87 L1552.94 1626.87 L1552.94 1609.91 L1572.24 1609.91 L1572.24 1594.07 L1591.55 1594.07 L1591.55 1579.10 L1610.98 1579.10 L1610.98 1566.85 L1630.28 1566.85 L1630.28 1553.73 L1649.59 1553.73 L1649.59 1542.47 L1669.02 1542.47 L1669.02 1529.35 L1688.32 1529.35 L1688.32 1507.82 L1707.63 1507.82 L1707.63 1490.99 L1727.06 1490.99 L1727.06 1475.89 L1746.36 1475.89 L1746.36 1460.05 L1765.66 1460.05 L1765.66 1451.51 L1784.97 1451.51 L1784.97 1443.09 L1804.40 1443.09 L1804.40 1434.68 L1823.70 1434.68 L1823.70 1431.83 L1843.01 1431.83 L1843.01 1420.57 L1862.44 1420.57 L1862.44 1411.17 L1881.74 1411.17 L1881.74 1399.90 L1901.05 1399.90 L1901.05 1385.80 L1920.48 1385.80 L1920.48 1371.69 L1939.78 1371.69 L1939.78 1353.87 L1959.09 1353.87 L1959.09 1340.75 L1978.52 1340.75 L1978.52 1325.65 L1997.82 1325.65 L1997.82 1313.40 L2017.13 1313.40 L2017.13 1300.28 L2036.43 1300.28 L2036.43 1288.03 L2055.86 1288.03 L2055.86 1279.61 L2075.16 1279.61 L2075.16 1269.22 L2094.47 1269.22 L2094.47 1260.80 L2113.90 1260.80 L2113.90 1245.71 L2133.20 1245.71 L2133.20 1234.44 L2152.51 1234.44 L2152.51 1223.18 L2171.94 1223.18 L2171.94 1217.49 L2191.24 1217.49 L2191.24 1204.37 L2210.55 1204.37 L2210.55 1192.12 L2229.97 1192.12 L2229.97 1180.86 L2249.28 1180.86 L2249.28 1164.77 L2268.59 1164.77 L2268.59 1161.93 L2287.89 1161.93 L2287.89 1154.50 L2307.32 1154.50 L2307.32 1144.10 L2326.62 1144.10 L2326.62 1130.86 L2345.93 1130.86 L2345.93 1120.59 L2365.36 1120.59 L2365.36 1107.35 L2384.66 1107.35 L2384.66 1096.95 L2403.97 1096.95 L2403.97 1086.68 L2423.40 1086.68 L2423.40 1076.29 L2442.70 1076.29 L2442.70 1068.74 L2462.01 1068.74 L2462.01 1064.04 L2481.43 1064.04 L2481.43 1055.50 L2500.74 1055.50 L2500.74 1038.54 L2520.05 1038.54 L2520.05 1029.14 L2539.35 1029.14 L2539.35 1017.75 L2558.78 1017.75 L2558.78 1011.19 L2578.08 1011.19 L2578.08 996.09 L2597.39 996.09 L2597.39 989.54 L2616.82 989.54 L2616.82 975.43 L2636.12 975.43 L2636.12 967.88 L2655.43 967.88 L2655.43 954.64 L2674.86 954.64 L2674.86 947.09 L2694.16 947.09 L2694.16 938.55 L2713.47 938.55 L2713.47 931.00 L2732.89 931.00 L2732.89 919.74 L2752.20 919.74 L2752.20 909.34 L2771.51 909.34 L2771.51 898.95 L2790.81 898.95 L2790.81 887.56 L2810.24 887.56 L2810.24 874.44 L2829.54 874.44 L2829.54 865.91 L2848.85 865.91 L2848.85 860.21 L2868.28 860.21 L2868.28 847.96 L2887.58 847.96 L2887.58 837.57 L2906.89 837.57 L2906.89 828.16 L2926.32 828.16 L2926.32 807.37 L2945.62 807.37 L2945.62 796.97 L2964.93 796.97 L2964.93 789.43 L2984.36 789.43 L2984.36 780.02 L3003.66 780.02 L3003.66 768.64" stroke-linejoin="round" style="fill:none;stroke:#1A476F;stroke-width:8.64"/>
	<path d=" M682.48 2246.01 L682.48 2246.01 L682.48 2246.01 L701.79 2246.01 L701.79 2240.94 L721.09 2240.94 L721.09 2235.98 L740.52 2235.98 L740.52 2226.08 L759.83 2226.08 L759.83 2211.23 L779.13 2211.23 L779.13 2201.21 L798.56 2201.21 L798.56 2181.41 L817.86 2181.41 L817.86 2171.39 L837.17 2171.39 L837.17 2166.44 L875.90 2166.44 L875.90 2161.49 L895.21 2161.49 L895.21 2156.53 L914.64 2156.53 L914.64 2151.58 L933.94 2151.58 L933.94 2146.63 L953.25 2146.63 L953.25 2131.66 L972.55 2131.66 L972.55 2116.81 L991.98 2116.81 L991.98 2111.86 L1011.28 2111.86 L1011.28 2106.79 L1050.02 2106.79 L1050.02 2101.84 L1069.32 2101.84 L1069.32 2096.89 L1088.63 2096.89 L1088.63 2086.99 L1127.36 2086.99 L1127.36 2077.08 L1146.67 2077.08 L1146.67 2077.08 L1166.10 2077.08 L1166.10 2072.01 L1185.40 2072.01 L1185.40 2067.06 L1204.71 2067.06 L1204.71 2052.21 L1224.01 2052.21 L1224.01 2042.19 L1243.44 2042.19 L1243.44 2042.19 L1262.74 2042.19 L1262.74 2027.34 L1282.05 2027.34 L1282.05 2007.41 L1301.48 2007.41 L1301.48 1992.56 L1320.78 1992.56 L1320.78 1987.61 L1340.09 1987.61 L1340.09 1977.59 L1359.52 1977.59 L1359.52 1972.64 L1378.82 1972.64 L1378.82 1957.79 L1398.13 1957.79 L1398.13 1947.76 L1417.56 1947.76 L1417.56 1942.81 L1436.86 1942.81 L1436.86 1917.94 L1456.17 1917.94 L1456.17 1908.04 L1475.47 1908.04 L1475.47 1908.04 L1494.90 1908.04 L1494.90 1883.16 L1514.20 1883.16 L1514.20 1863.24 L1533.51 1863.24 L1533.51 1853.34 L1552.94 1853.34 L1552.94 1828.46 L1572.24 1828.46 L1572.24 1803.59 L1591.55 1803.59 L1591.55 1803.59 L1610.98 1803.59 L1610.98 1788.74 L1630.28 1788.74 L1630.28 1773.76 L1649.59 1773.76 L1649.59 1758.91 L1669.02 1758.91 L1669.02 1748.89 L1688.32 1748.89 L1688.32 1738.99 L1707.63 1738.99 L1707.63 1734.04 L1727.06 1734.04 L1727.06 1724.02 L1746.36 1724.02 L1746.36 1714.11 L1784.97 1714.11 L1784.97 1694.19 L1804.40 1694.19 L1804.40 1679.22 L1823.70 1679.22 L1823.70 1664.37 L1843.01 1664.37 L1843.01 1654.34 L1862.44 1654.34 L1862.44 1644.44 L1881.74 1644.44 L1881.74 1639.49 L1901.05 1639.49 L1901.05 1629.47 L1920.48 1629.47 L1920.48 1619.57 L1939.78 1619.57 L1939.78 1619.57 L1959.09 1619.57 L1959.09 1614.62 L1978.52 1614.62 L1978.52 1604.59 L1997.82 1604.59 L1997.82 1604.59 L2017.13 1604.59 L2017.13 1589.62 L2036.43 1589.62 L2036.43 1574.77 L2075.16 1574.77 L2075.16 1564.74 L2113.90 1564.74 L2113.90 1559.79 L2133.20 1559.79 L2133.20 1549.89 L2152.51 1549.89 L2152.51 1544.82 L2171.94 1544.82 L2171.94 1525.02 L2191.24 1525.02 L2191.24 1519.94 L2210.55 1519.94 L2210.55 1510.04 L2229.97 1510.04 L2229.97 1505.09 L2249.28 1505.09 L2249.28 1505.09 L2268.59 1505.09 L2268.59 1495.07 L2287.89 1495.07 L2287.89 1485.17 L2307.32 1485.17 L2307.32 1475.15 L2326.62 1475.15 L2326.62 1460.30 L2345.93 1460.30 L2345.93 1455.22 L2384.66 1455.22 L2384.66 1440.37 L2403.97 1440.37 L2403.97 1430.35 L2462.01 1430.35 L2462.01 1425.40 L2481.43 1425.40 L2481.43 1415.50 L2500.74 1415.50 L2500.74 1410.42 L2520.05 1410.42 L2520.05 1395.57 L2539.35 1395.57 L2539.35 1380.60 L2558.78 1380.60 L2558.78 1370.57 L2578.08 1370.57 L2578.08 1350.65 L2597.39 1350.65 L2597.39 1345.70 L2616.82 1345.70 L2616.82 1340.75 L2674.86 1340.75 L2674.86 1335.80 L2713.47 1335.80 L2713.47 1330.85 L2732.89 1330.85 L2732.89 1315.87 L2752.20 1315.87 L2752.20 1295.95 L2790.81 1295.95 L2790.81 1291.00 L2810.24 1291.00 L2810.24 1276.03 L2848.85 1276.03 L2848.85 1271.08 L2868.28 1271.08 L2868.28 1251.15 L2887.58 1251.15 L2887.58 1241.13 L2926.32 1241.13 L2926.32 1231.23 L2945.62 1231.23 L2945.62 1221.20 L2964.93 1221.20 L2964.93 1196.33 L2984.36 1196.33 L2984.36 1186.43 L3003.66 1186.43 L3003.66 1186.43" stroke-linejoin="round" style="fill:none;stroke:#90353B;stroke-width:8.64"/>
	<line x1="619.12" y1="2309.25" x2="619.12" y2="630.90" style="stroke:#000000;stroke-width:5.76"/>
	<line x1="619.12" y1="2245.89" x2="579.15" y2="2245.89" style="stroke:#000000;stroke-width:5.76"/>
	<text x="559.23" y="2273.90" style="font-family:'Helvetica';font-size:79.94px;fill:#000000" text-anchor="end">0.000</text>
	<line x1="619.12" y1="2094.41" x2="579.15" y2="2094.41" style="stroke:#000000;stroke-width:5.76"/>
	<text x="559.23" y="2122.42" style="font-family:'Helvetica';font-size:79.94px;fill:#000000" text-anchor="end">0.001</text>
	<line x1="619.12" y1="1942.81" x2="579.15" y2="1942.81" style="stroke:#000000;stroke-width:5.76"/>
	<text x="559.23" y="1970.82" style="font-family:'Helvetica';font-size:79.94px;fill:#000000" text-anchor="end">0.002</text>
	<line x1="619.12" y1="1791.21" x2="579.15" y2="1791.21" style="stroke:#000000;stroke-width:5.76"/>
	<text x="559.23" y="1819.23" style="font-family:'Helvetica';font-size:79.94px;fill:#000000" text-anchor="end">0.003</text>
	<line x1="619.12" y1="1639.74" x2="579.15" y2="1639.74" style="stroke:#000000;stroke-width:5.76"/>
	<text x="559.23" y="1667.75" style="font-family:'Helvetica';font-size:79.94px;fill:#000000" text-anchor="end">0.004</text>
	<line x1="619.12" y1="1488.14" x2="579.15" y2="1488.14" style="stroke:#000000;stroke-width:5.76"/>
	<text x="559.23" y="1516.15" style="font-family:'Helvetica';font-size:79.94px;fill:#000000" text-anchor="end">0.005</text>
	<line x1="619.12" y1="1336.67" x2="579.15" y2="1336.67" style="stroke:#000000;stroke-width:5.76"/>
	<text x="559.23" y="1364.68" style="font-family:'Helvetica';font-size:79.94px;fill:#000000" text-anchor="end">0.006</text>
	<line x1="619.12" y1="1185.07" x2="579.15" y2="1185.07" style="stroke:#000000;stroke-width:5.76"/>
	<text x="559.23" y="1213.08" style="font-family:'Helvetica';font-size:79.94px;fill:#000000" text-anchor="end">0.007</text>
	<line x1="619.12" y1="1033.59" x2="579.15" y2="1033.59" style="stroke:#000000;stroke-width:5.76"/>
	<text x="559.23" y="1061.60" style="font-family:'Helvetica';font-size:79.94px;fill:#000000" text-anchor="end">0.008</text>
	<line x1="619.12" y1="881.99" x2="579.15" y2="881.99" style="stroke:#000000;stroke-width:5.76"/>
	<text x="559.23" y="910.01" style="font-family:'Helvetica';font-size:79.94px;fill:#000000" text-anchor="end">0.009</text>
	<line x1="619.12" y1="730.52" x2="579.15" y2="730.52" style="stroke:#000000;stroke-width:5.76"/>
	<text x="559.23" y="758.53" style="font-family:'Helvetica';font-size:79.94px;fill:#000000" text-anchor="end">0.010</text>
	<line x1="619.12" y1="2309.25" x2="3840.83" y2="2309.25" style="stroke:#000000;stroke-width:5.76"/>
	<line x1="682.48" y1="2309.25" x2="682.48" y2="2349.22" style="stroke:#000000;stroke-width:5.76"/>
	<text x="682.48" y="2425.17" style="font-family:'Helvetica';font-size:79.94px;fill:#000000" text-anchor="middle">0</text>
	<line x1="1069.45" y1="2309.25" x2="1069.45" y2="2349.22" style="stroke:#000000;stroke-width:5.76"/>
	<text x="1069.45" y="2425.17" style="font-family:'Helvetica';font-size:79.94px;fill:#000000" text-anchor="middle">20</text>
	<line x1="1456.29" y1="2309.25" x2="1456.29" y2="2349.22" style="stroke:#000000;stroke-width:5.76"/>
	<text x="1456.29" y="2425.17" style="font-family:'Helvetica';font-size:79.94px;fill:#000000" text-anchor="middle">40</text>
	<line x1="1843.13" y1="2309.25" x2="1843.13" y2="2349.22" style="stroke:#000000;stroke-width:5.76"/>
	<text x="1843.13" y="2425.17" style="font-family:'Helvetica';font-size:79.94px;fill:#000000" text-anchor="middle">60</text>
	<line x1="2229.97" y1="2309.25" x2="2229.97" y2="2349.22" style="stroke:#000000;stroke-width:5.76"/>
	<text x="2229.97" y="2425.17" style="font-family:'Helvetica';font-size:79.94px;fill:#000000" text-anchor="middle">80</text>
	<line x1="2616.82" y1="2309.25" x2="2616.82" y2="2349.22" style="stroke:#000000;stroke-width:5.76"/>
	<text x="2616.82" y="2425.17" style="font-family:'Helvetica';font-size:79.94px;fill:#000000" text-anchor="middle">100</text>
	<line x1="3003.66" y1="2309.25" x2="3003.66" y2="2349.22" style="stroke:#000000;stroke-width:5.76"/>
	<text x="3003.66" y="2425.17" style="font-family:'Helvetica';font-size:79.94px;fill:#000000" text-anchor="middle">120</text>
	<line x1="3390.63" y1="2309.25" x2="3390.63" y2="2349.22" style="stroke:#000000;stroke-width:5.76"/>
	<text x="3390.63" y="2425.17" style="font-family:'Helvetica';font-size:79.94px;fill:#000000" text-anchor="middle">140</text>
	<line x1="3777.47" y1="2309.25" x2="3777.47" y2="2349.22" style="stroke:#000000;stroke-width:5.76"/>
	<text x="3777.47" y="2425.17" style="font-family:'Helvetica';font-size:79.94px;fill:#000000" text-anchor="middle">160</text>
	<text x="2229.97" y="2515.14" style="font-family:'Helvetica';font-size:79.94px;fill:#000000" text-anchor="middle">Days since 1 Mar 2020</text>
	<text x="682.48" y="2747.83" style="font-family:'Helvetica';font-size:60.02px;fill:#000000" text-anchor="middle">30501</text>
	<text x="1069.45" y="2747.83" style="font-family:'Helvetica';font-size:60.02px;fill:#000000" text-anchor="middle">30471</text>
	<text x="1456.29" y="2747.83" style="font-family:'Helvetica';font-size:60.02px;fill:#000000" text-anchor="middle">30418</text>
	<text x="1843.13" y="2747.83" style="font-family:'Helvetica';font-size:60.02px;fill:#000000" text-anchor="middle">30336</text>
	<text x="2229.97" y="2747.83" style="font-family:'Helvetica';font-size:60.02px;fill:#000000" text-anchor="middle">30296</text>
	<text x="2616.82" y="2747.83" style="font-family:'Helvetica';font-size:60.02px;fill:#000000" text-anchor="middle">30254</text>
	<text x="3003.66" y="2747.83" style="font-family:'Helvetica';font-size:60.02px;fill:#000000" text-anchor="middle">30220</text>
	<text x="3390.63" y="2747.83" style="font-family:'Helvetica';font-size:60.02px;fill:#000000" text-anchor="middle">0</text>
	<text x="3777.47" y="2747.83" style="font-family:'Helvetica';font-size:60.02px;fill:#000000" text-anchor="middle">0</text>
	<text x="527.79" y="2747.83" style="font-family:'Helvetica';font-size:60.02px;fill:#000000" text-anchor="end">HCQ</text>
	<text x="682.48" y="2674.44" style="font-family:'Helvetica';font-size:60.02px;fill:#000000" text-anchor="middle">163735</text>
	<text x="1069.45" y="2674.44" style="font-family:'Helvetica';font-size:60.02px;fill:#000000" text-anchor="middle">162536</text>
	<text x="1456.29" y="2674.44" style="font-family:'Helvetica';font-size:60.02px;fill:#000000" text-anchor="middle">161404</text>
	<text x="1843.13" y="2674.44" style="font-family:'Helvetica';font-size:60.02px;fill:#000000" text-anchor="middle">160524</text>
	<text x="2229.97" y="2674.44" style="font-family:'Helvetica';font-size:60.02px;fill:#000000" text-anchor="middle">159857</text>
	<text x="2616.82" y="2674.44" style="font-family:'Helvetica';font-size:60.02px;fill:#000000" text-anchor="middle">159344</text>
	<text x="3003.66" y="2674.44" style="font-family:'Helvetica';font-size:60.02px;fill:#000000" text-anchor="middle">158910</text>
	<text x="3390.63" y="2674.44" style="font-family:'Helvetica';font-size:60.02px;fill:#000000" text-anchor="middle">0</text>
	<text x="3777.47" y="2674.44" style="font-family:'Helvetica';font-size:60.02px;fill:#000000" text-anchor="middle">0</text>
	<text x="527.79" y="2674.44" style="font-family:'Helvetica';font-size:60.02px;fill:#000000" text-anchor="end">No HCQ</text>
	<text x="527.79" y="2601.18" style="font-family:'Helvetica';font-size:60.02px;fill:#000000" text-anchor="end">Number at risk</text>
	<rect x="1167.95" y="269.91" width="2124.05" height="326.46" style="fill:#FFFFFF"/>
	<rect x="1170.83" y="272.79" width="2118.29" height="320.70" style="fill:none;stroke:#EAF2F3;stroke-width:5.76"/>
	<rect x="1211.14" y="313.10" width="374.34" height="99.99" style="fill:#DDE3E9"/>
	<rect x="1215.46" y="317.42" width="365.70" height="91.35" style="fill:none;stroke:#DDE3E9;stroke-width:8.64"/>
	<rect x="2349.02" y="313.10" width="374.34" height="99.99" style="fill:#EEE1E2"/>
	<rect x="2353.34" y="317.42" width="365.70" height="91.35" style="fill:none;stroke:#EEE1E2;stroke-width:8.64"/>
	<line x1="1211.14" y1="503.06" x2="1585.48" y2="503.06" style="stroke:#1A476F;stroke-width:8.64"/>
	<line x1="2349.02" y1="503.06" x2="2723.37" y2="503.06" style="stroke:#90353B;stroke-width:8.64"/>
	<text x="1645.50" y="384.13" style="font-family:'Helvetica';font-size:60.02px;fill:#000000">No HCQ</text>
	<text x="2783.39" y="384.13" style="font-family:'Helvetica';font-size:60.02px;fill:#000000">95% CI</text>
	<text x="1645.50" y="524.10" style="font-family:'Helvetica';font-size:60.02px;fill:#000000">exposure = No HCQ</text>
	<text x="2783.39" y="524.10" style="font-family:'Helvetica';font-size:60.02px;fill:#000000">exposure = HCQ</text>
	<text x="1357.91" y="187.99" style="font-family:'Helvetica';font-size:99.99px;fill:#1E2D53">Time to Non COVID-19 Death in ONS</text>
</svg>
