<?xml version="1.0" encoding="UTF-8" standalone="no"?>
<!-- This is a Stata 16.1 generated SVG file (http://www.stata.com) -->

<svg version="1.1" width="5.50in" height="4.00in" viewBox="0 0 3960 2880" xmlns="http://www.w3.org/2000/svg" xmlns:xlink="http://www.w3.org/1999/xlink">
	<desc>Stata Graph - Graph</desc>
	<rect x="0" y="0" width="3960" height="2880" style="fill:#EAF2F3;stroke:none"/>
	<rect x="0.00" y="0.00" width="3959.88" height="2880.00" style="fill:#EAF2F3"/>
	<rect x="2.88" y="2.88" width="3954.12" height="2874.24" style="fill:none;stroke:#EAF2F3;stroke-width:5.76"/>
	<rect x="387.34" y="100.86" width="3471.68" height="2428.42" style="fill:#FFFFFF"/>
	<rect x="390.22" y="103.74" width="3465.92" height="2422.66" style="fill:none;stroke:#FFFFFF;stroke-width:5.76"/>
	<line x1="387.34" y1="2529.28" x2="3859.02" y2="2529.28" style="stroke:#EAF2F3;stroke-width:5.76"/>
	<line x1="387.34" y1="1937.99" x2="3859.02" y2="1937.99" style="stroke:#EAF2F3;stroke-width:5.76"/>
	<line x1="387.34" y1="1346.69" x2="3859.02" y2="1346.69" style="stroke:#EAF2F3;stroke-width:5.76"/>
	<line x1="387.34" y1="755.39" x2="3859.02" y2="755.39" style="stroke:#EAF2F3;stroke-width:5.76"/>
	<line x1="387.34" y1="164.22" x2="3859.02" y2="164.22" style="stroke:#EAF2F3;stroke-width:5.76"/>
	<line x1="1128.48" y1="2529.28" x2="1128.48" y2="100.86" style="stroke:#EAF2F3;stroke-width:5.76"/>
	<line x1="1784.35" y1="2529.28" x2="1784.35" y2="100.86" style="stroke:#EAF2F3;stroke-width:5.76"/>
	<line x1="2462.13" y1="2529.28" x2="2462.13" y2="100.86" style="stroke:#EAF2F3;stroke-width:5.76"/>
	<line x1="3118.01" y1="2529.28" x2="3118.01" y2="100.86" style="stroke:#EAF2F3;stroke-width:5.76"/>
	<rect x="483.49" y="2470.13" width="21.90" height="59.15" style="fill:#CAC27E"/>
	<rect x="487.81" y="2474.45" width="13.26" height="50.51" style="fill:none;stroke:#D7D29E;stroke-width:8.64"/>
	<rect x="549.08" y="2470.13" width="21.90" height="59.15" style="fill:#CAC27E"/>
	<rect x="553.40" y="2474.45" width="13.26" height="50.51" style="fill:none;stroke:#D7D29E;stroke-width:8.64"/>
	<rect x="658.47" y="2470.13" width="21.78" height="59.15" style="fill:#CAC27E"/>
	<rect x="662.79" y="2474.45" width="13.14" height="50.51" style="fill:none;stroke:#D7D29E;stroke-width:8.64"/>
	<rect x="680.25" y="2410.97" width="21.90" height="118.31" style="fill:#CAC27E"/>
	<rect x="684.57" y="2415.29" width="13.26" height="109.67" style="fill:none;stroke:#D7D29E;stroke-width:8.64"/>
	<rect x="702.16" y="2292.79" width="21.90" height="236.49" style="fill:#CAC27E"/>
	<rect x="706.48" y="2297.11" width="13.26" height="227.85" style="fill:none;stroke:#D7D29E;stroke-width:8.64"/>
	<rect x="724.06" y="2410.97" width="21.78" height="118.31" style="fill:#CAC27E"/>
	<rect x="728.38" y="2415.29" width="13.14" height="109.67" style="fill:none;stroke:#D7D29E;stroke-width:8.64"/>
	<rect x="745.84" y="2410.97" width="21.90" height="118.31" style="fill:#CAC27E"/>
	<rect x="750.16" y="2415.29" width="13.26" height="109.67" style="fill:none;stroke:#D7D29E;stroke-width:8.64"/>
	<rect x="767.75" y="2233.63" width="21.90" height="295.65" style="fill:#CAC27E"/>
	<rect x="772.06" y="2237.95" width="13.26" height="287.01" style="fill:none;stroke:#D7D29E;stroke-width:8.64"/>
	<rect x="789.65" y="2470.13" width="21.78" height="59.15" style="fill:#CAC27E"/>
	<rect x="793.97" y="2474.45" width="13.14" height="50.51" style="fill:none;stroke:#D7D29E;stroke-width:8.64"/>
	<rect x="811.43" y="2174.48" width="21.90" height="354.80" style="fill:#CAC27E"/>
	<rect x="815.75" y="2178.80" width="13.26" height="346.16" style="fill:none;stroke:#D7D29E;stroke-width:8.64"/>
	<rect x="833.33" y="2174.48" width="21.90" height="354.80" style="fill:#CAC27E"/>
	<rect x="837.65" y="2178.80" width="13.26" height="346.16" style="fill:none;stroke:#D7D29E;stroke-width:8.64"/>
	<rect x="855.24" y="2115.32" width="21.78" height="413.96" style="fill:#CAC27E"/>
	<rect x="859.56" y="2119.64" width="13.14" height="405.32" style="fill:none;stroke:#D7D29E;stroke-width:8.64"/>
	<rect x="877.02" y="1997.14" width="21.90" height="532.14" style="fill:#CAC27E"/>
	<rect x="881.34" y="2001.46" width="13.26" height="523.50" style="fill:none;stroke:#D7D29E;stroke-width:8.64"/>
	<rect x="898.92" y="2056.29" width="21.90" height="472.99" style="fill:#CAC27E"/>
	<rect x="903.24" y="2060.61" width="13.26" height="464.35" style="fill:none;stroke:#D7D29E;stroke-width:8.64"/>
	<rect x="920.82" y="1524.03" width="21.78" height="1005.25" style="fill:#CAC27E"/>
	<rect x="925.14" y="1528.35" width="13.14" height="996.61" style="fill:none;stroke:#D7D29E;stroke-width:8.64"/>
	<rect x="942.60" y="1583.18" width="21.90" height="946.10" style="fill:#CAC27E"/>
	<rect x="946.92" y="1587.50" width="13.26" height="937.46" style="fill:none;stroke:#D7D29E;stroke-width:8.64"/>
	<rect x="964.51" y="1465.00" width="21.90" height="1064.28" style="fill:#CAC27E"/>
	<rect x="968.83" y="1469.32" width="13.26" height="1055.64" style="fill:none;stroke:#D7D29E;stroke-width:8.64"/>
	<rect x="986.41" y="873.70" width="21.78" height="1655.58" style="fill:#CAC27E"/>
	<rect x="990.73" y="878.02" width="13.14" height="1646.94" style="fill:none;stroke:#D7D29E;stroke-width:8.64"/>
	<rect x="1008.19" y="1465.00" width="21.90" height="1064.28" style="fill:#CAC27E"/>
	<rect x="1012.51" y="1469.32" width="13.26" height="1055.64" style="fill:none;stroke:#D7D29E;stroke-width:8.64"/>
	<rect x="1030.10" y="1346.69" width="21.90" height="1182.59" style="fill:#CAC27E"/>
	<rect x="1034.41" y="1351.01" width="13.26" height="1173.95" style="fill:none;stroke:#D7D29E;stroke-width:8.64"/>
	<rect x="1052.00" y="1110.20" width="21.78" height="1419.09" style="fill:#CAC27E"/>
	<rect x="1056.32" y="1114.52" width="13.14" height="1410.45" style="fill:none;stroke:#D7D29E;stroke-width:8.64"/>
	<rect x="1073.78" y="991.89" width="21.90" height="1537.39" style="fill:#CAC27E"/>
	<rect x="1078.10" y="996.21" width="13.26" height="1528.75" style="fill:none;stroke:#D7D29E;stroke-width:8.64"/>
	<rect x="1095.68" y="873.70" width="21.90" height="1655.58" style="fill:#CAC27E"/>
	<rect x="1100.00" y="878.02" width="13.26" height="1646.94" style="fill:none;stroke:#D7D29E;stroke-width:8.64"/>
	<rect x="1117.59" y="459.75" width="21.78" height="2069.54" style="fill:#CAC27E"/>
	<rect x="1121.91" y="464.07" width="13.14" height="2060.90" style="fill:none;stroke:#D7D29E;stroke-width:8.64"/>
	<rect x="1139.37" y="873.70" width="21.90" height="1655.58" style="fill:#CAC27E"/>
	<rect x="1143.69" y="878.02" width="13.26" height="1646.94" style="fill:none;stroke:#D7D29E;stroke-width:8.64"/>
	<rect x="1161.27" y="755.39" width="21.90" height="1773.89" style="fill:#CAC27E"/>
	<rect x="1165.59" y="759.71" width="13.26" height="1765.25" style="fill:none;stroke:#D7D29E;stroke-width:8.64"/>
	<rect x="1183.17" y="1287.54" width="21.78" height="1241.75" style="fill:#CAC27E"/>
	<rect x="1187.49" y="1291.86" width="13.14" height="1233.11" style="fill:none;stroke:#D7D29E;stroke-width:8.64"/>
	<rect x="1204.95" y="1524.03" width="21.90" height="1005.25" style="fill:#CAC27E"/>
	<rect x="1209.27" y="1528.35" width="13.26" height="996.61" style="fill:none;stroke:#D7D29E;stroke-width:8.64"/>
	<rect x="1226.86" y="223.25" width="21.90" height="2306.03" style="fill:#CAC27E"/>
	<rect x="1231.18" y="227.57" width="13.26" height="2297.39" style="fill:none;stroke:#D7D29E;stroke-width:8.64"/>
	<rect x="1248.76" y="1465.00" width="21.78" height="1064.28" style="fill:#CAC27E"/>
	<rect x="1253.08" y="1469.32" width="13.14" height="1055.64" style="fill:none;stroke:#D7D29E;stroke-width:8.64"/>
	<rect x="1270.54" y="1228.50" width="21.90" height="1300.78" style="fill:#CAC27E"/>
	<rect x="1274.86" y="1232.82" width="13.26" height="1292.14" style="fill:none;stroke:#D7D29E;stroke-width:8.64"/>
	<rect x="1292.44" y="873.70" width="21.90" height="1655.58" style="fill:#CAC27E"/>
	<rect x="1296.76" y="878.02" width="13.26" height="1646.94" style="fill:none;stroke:#D7D29E;stroke-width:8.64"/>
	<rect x="1314.35" y="932.86" width="21.78" height="1596.42" style="fill:#CAC27E"/>
	<rect x="1318.67" y="937.18" width="13.14" height="1587.79" style="fill:none;stroke:#D7D29E;stroke-width:8.64"/>
	<rect x="1336.13" y="1760.65" width="21.90" height="768.64" style="fill:#CAC27E"/>
	<rect x="1340.45" y="1764.97" width="13.26" height="760.00" style="fill:none;stroke:#D7D29E;stroke-width:8.64"/>
	<rect x="1358.03" y="1760.65" width="21.90" height="768.64" style="fill:#CAC27E"/>
	<rect x="1362.35" y="1764.97" width="13.26" height="760.00" style="fill:none;stroke:#D7D29E;stroke-width:8.64"/>
	<rect x="1379.94" y="1583.18" width="21.78" height="946.10" style="fill:#CAC27E"/>
	<rect x="1384.26" y="1587.50" width="13.14" height="937.46" style="fill:none;stroke:#D7D29E;stroke-width:8.64"/>
	<rect x="1401.72" y="1287.54" width="21.90" height="1241.75" style="fill:#CAC27E"/>
	<rect x="1406.04" y="1291.86" width="13.26" height="1233.11" style="fill:none;stroke:#D7D29E;stroke-width:8.64"/>
	<rect x="1423.62" y="991.89" width="21.90" height="1537.39" style="fill:#CAC27E"/>
	<rect x="1427.94" y="996.21" width="13.26" height="1528.75" style="fill:none;stroke:#D7D29E;stroke-width:8.64"/>
	<rect x="1445.52" y="991.89" width="21.78" height="1537.39" style="fill:#CAC27E"/>
	<rect x="1449.84" y="996.21" width="13.14" height="1528.75" style="fill:none;stroke:#D7D29E;stroke-width:8.64"/>
	<rect x="1467.30" y="1287.54" width="21.90" height="1241.75" style="fill:#CAC27E"/>
	<rect x="1471.62" y="1291.86" width="13.26" height="1233.11" style="fill:none;stroke:#D7D29E;stroke-width:8.64"/>
	<rect x="1489.21" y="873.70" width="21.90" height="1655.58" style="fill:#CAC27E"/>
	<rect x="1493.53" y="878.02" width="13.26" height="1646.94" style="fill:none;stroke:#D7D29E;stroke-width:8.64"/>
	<rect x="1511.11" y="1583.18" width="21.78" height="946.10" style="fill:#CAC27E"/>
	<rect x="1515.43" y="1587.50" width="13.14" height="937.46" style="fill:none;stroke:#D7D29E;stroke-width:8.64"/>
	<rect x="1532.89" y="1524.03" width="21.90" height="1005.25" style="fill:#CAC27E"/>
	<rect x="1537.21" y="1528.35" width="13.26" height="996.61" style="fill:none;stroke:#D7D29E;stroke-width:8.64"/>
	<rect x="1554.80" y="1051.04" width="21.90" height="1478.24" style="fill:#CAC27E"/>
	<rect x="1559.11" y="1055.36" width="13.26" height="1469.60" style="fill:none;stroke:#D7D29E;stroke-width:8.64"/>
	<rect x="1576.70" y="1287.54" width="21.78" height="1241.75" style="fill:#CAC27E"/>
	<rect x="1581.02" y="1291.86" width="13.14" height="1233.11" style="fill:none;stroke:#D7D29E;stroke-width:8.64"/>
	<rect x="1598.48" y="1110.20" width="21.90" height="1419.09" style="fill:#CAC27E"/>
	<rect x="1602.80" y="1114.52" width="13.26" height="1410.45" style="fill:none;stroke:#D7D29E;stroke-width:8.64"/>
	<rect x="1620.38" y="1110.20" width="21.90" height="1419.09" style="fill:#CAC27E"/>
	<rect x="1624.70" y="1114.52" width="13.26" height="1410.45" style="fill:none;stroke:#D7D29E;stroke-width:8.64"/>
	<rect x="1642.29" y="1701.49" width="21.78" height="827.79" style="fill:#CAC27E"/>
	<rect x="1646.61" y="1705.81" width="13.14" height="819.15" style="fill:none;stroke:#D7D29E;stroke-width:8.64"/>
	<rect x="1664.07" y="1701.49" width="21.90" height="827.79" style="fill:#CAC27E"/>
	<rect x="1668.39" y="1705.81" width="13.26" height="819.15" style="fill:none;stroke:#D7D29E;stroke-width:8.64"/>
	<rect x="1685.97" y="1642.34" width="21.90" height="886.94" style="fill:#CAC27E"/>
	<rect x="1690.29" y="1646.66" width="13.26" height="878.30" style="fill:none;stroke:#D7D29E;stroke-width:8.64"/>
	<rect x="1707.87" y="1346.69" width="21.78" height="1182.59" style="fill:#CAC27E"/>
	<rect x="1712.19" y="1351.01" width="13.14" height="1173.95" style="fill:none;stroke:#D7D29E;stroke-width:8.64"/>
	<rect x="1729.65" y="1346.69" width="21.90" height="1182.59" style="fill:#CAC27E"/>
	<rect x="1733.97" y="1351.01" width="13.26" height="1173.95" style="fill:none;stroke:#D7D29E;stroke-width:8.64"/>
	<rect x="1751.56" y="1701.49" width="21.90" height="827.79" style="fill:#CAC27E"/>
	<rect x="1755.88" y="1705.81" width="13.26" height="819.15" style="fill:none;stroke:#D7D29E;stroke-width:8.64"/>
	<rect x="1773.46" y="932.86" width="21.78" height="1596.42" style="fill:#CAC27E"/>
	<rect x="1777.78" y="937.18" width="13.14" height="1587.79" style="fill:none;stroke:#D7D29E;stroke-width:8.64"/>
	<rect x="1795.24" y="1701.49" width="21.90" height="827.79" style="fill:#CAC27E"/>
	<rect x="1799.56" y="1705.81" width="13.26" height="819.15" style="fill:none;stroke:#D7D29E;stroke-width:8.64"/>
	<rect x="1817.14" y="1937.99" width="21.90" height="591.30" style="fill:#CAC27E"/>
	<rect x="1821.46" y="1942.31" width="13.26" height="582.66" style="fill:none;stroke:#D7D29E;stroke-width:8.64"/>
	<rect x="1839.05" y="1819.68" width="21.78" height="709.60" style="fill:#CAC27E"/>
	<rect x="1843.37" y="1824.00" width="13.14" height="700.96" style="fill:none;stroke:#D7D29E;stroke-width:8.64"/>
	<rect x="1860.83" y="1583.18" width="21.90" height="946.10" style="fill:#CAC27E"/>
	<rect x="1865.15" y="1587.50" width="13.26" height="937.46" style="fill:none;stroke:#D7D29E;stroke-width:8.64"/>
	<rect x="1882.73" y="1760.65" width="21.90" height="768.64" style="fill:#CAC27E"/>
	<rect x="1887.05" y="1764.97" width="13.26" height="760.00" style="fill:none;stroke:#D7D29E;stroke-width:8.64"/>
	<rect x="1904.64" y="1701.49" width="21.78" height="827.79" style="fill:#CAC27E"/>
	<rect x="1908.96" y="1705.81" width="13.14" height="819.15" style="fill:none;stroke:#D7D29E;stroke-width:8.64"/>
	<rect x="1926.42" y="1997.14" width="21.90" height="532.14" style="fill:#CAC27E"/>
	<rect x="1930.74" y="2001.46" width="13.26" height="523.50" style="fill:none;stroke:#D7D29E;stroke-width:8.64"/>
	<rect x="1948.32" y="1878.83" width="21.90" height="650.45" style="fill:#CAC27E"/>
	<rect x="1952.64" y="1883.15" width="13.26" height="641.81" style="fill:none;stroke:#D7D29E;stroke-width:8.64"/>
	<rect x="1970.22" y="2233.63" width="21.78" height="295.65" style="fill:#CAC27E"/>
	<rect x="1974.54" y="2237.95" width="13.14" height="287.01" style="fill:none;stroke:#D7D29E;stroke-width:8.64"/>
	<rect x="1992.00" y="1701.49" width="21.90" height="827.79" style="fill:#CAC27E"/>
	<rect x="1996.32" y="1705.81" width="13.26" height="819.15" style="fill:none;stroke:#D7D29E;stroke-width:8.64"/>
	<rect x="2013.91" y="1997.14" width="21.90" height="532.14" style="fill:#CAC27E"/>
	<rect x="2018.23" y="2001.46" width="13.26" height="523.50" style="fill:none;stroke:#D7D29E;stroke-width:8.64"/>
	<rect x="2035.81" y="1701.49" width="21.78" height="827.79" style="fill:#CAC27E"/>
	<rect x="2040.13" y="1705.81" width="13.14" height="819.15" style="fill:none;stroke:#D7D29E;stroke-width:8.64"/>
	<rect x="2057.59" y="1819.68" width="21.90" height="709.60" style="fill:#CAC27E"/>
	<rect x="2061.91" y="1824.00" width="13.26" height="700.96" style="fill:none;stroke:#D7D29E;stroke-width:8.64"/>
	<rect x="2079.49" y="1878.83" width="21.90" height="650.45" style="fill:#CAC27E"/>
	<rect x="2083.81" y="1883.15" width="13.26" height="641.81" style="fill:none;stroke:#D7D29E;stroke-width:8.64"/>
	<rect x="2101.40" y="2292.79" width="21.78" height="236.49" style="fill:#CAC27E"/>
	<rect x="2105.72" y="2297.11" width="13.14" height="227.85" style="fill:none;stroke:#D7D29E;stroke-width:8.64"/>
	<rect x="2123.18" y="2174.48" width="21.90" height="354.80" style="fill:#CAC27E"/>
	<rect x="2127.50" y="2178.80" width="13.26" height="346.16" style="fill:none;stroke:#D7D29E;stroke-width:8.64"/>
	<rect x="2145.08" y="1819.68" width="21.90" height="709.60" style="fill:#CAC27E"/>
	<rect x="2149.40" y="1824.00" width="13.26" height="700.96" style="fill:none;stroke:#D7D29E;stroke-width:8.64"/>
	<rect x="2166.99" y="1465.00" width="21.78" height="1064.28" style="fill:#CAC27E"/>
	<rect x="2171.31" y="1469.32" width="13.14" height="1055.64" style="fill:none;stroke:#D7D29E;stroke-width:8.64"/>
	<rect x="2188.77" y="1937.99" width="21.90" height="591.30" style="fill:#CAC27E"/>
	<rect x="2193.09" y="1942.31" width="13.26" height="582.66" style="fill:none;stroke:#D7D29E;stroke-width:8.64"/>
	<rect x="2210.67" y="1937.99" width="21.90" height="591.30" style="fill:#CAC27E"/>
	<rect x="2214.99" y="1942.31" width="13.26" height="582.66" style="fill:none;stroke:#D7D29E;stroke-width:8.64"/>
	<rect x="2232.57" y="2056.29" width="21.78" height="472.99" style="fill:#CAC27E"/>
	<rect x="2236.89" y="2060.61" width="13.14" height="464.35" style="fill:none;stroke:#D7D29E;stroke-width:8.64"/>
	<rect x="2254.35" y="2351.82" width="21.90" height="177.46" style="fill:#CAC27E"/>
	<rect x="2258.67" y="2356.14" width="13.26" height="168.82" style="fill:none;stroke:#D7D29E;stroke-width:8.64"/>
	<rect x="2276.26" y="2410.97" width="21.90" height="118.31" style="fill:#CAC27E"/>
	<rect x="2280.58" y="2415.29" width="13.26" height="109.67" style="fill:none;stroke:#D7D29E;stroke-width:8.64"/>
	<rect x="2298.16" y="2351.82" width="21.78" height="177.46" style="fill:#CAC27E"/>
	<rect x="2302.48" y="2356.14" width="13.14" height="168.82" style="fill:none;stroke:#D7D29E;stroke-width:8.64"/>
	<rect x="2319.94" y="1937.99" width="21.90" height="591.30" style="fill:#CAC27E"/>
	<rect x="2324.26" y="1942.31" width="13.26" height="582.66" style="fill:none;stroke:#D7D29E;stroke-width:8.64"/>
	<rect x="2341.84" y="2233.63" width="21.90" height="295.65" style="fill:#CAC27E"/>
	<rect x="2346.16" y="2237.95" width="13.26" height="287.01" style="fill:none;stroke:#D7D29E;stroke-width:8.64"/>
	<rect x="2363.75" y="2174.48" width="21.78" height="354.80" style="fill:#CAC27E"/>
	<rect x="2368.07" y="2178.80" width="13.14" height="346.16" style="fill:none;stroke:#D7D29E;stroke-width:8.64"/>
	<rect x="2385.53" y="2292.79" width="21.90" height="236.49" style="fill:#CAC27E"/>
	<rect x="2389.85" y="2297.11" width="13.26" height="227.85" style="fill:none;stroke:#D7D29E;stroke-width:8.64"/>
	<rect x="2407.43" y="2233.63" width="21.90" height="295.65" style="fill:#CAC27E"/>
	<rect x="2411.75" y="2237.95" width="13.26" height="287.01" style="fill:none;stroke:#D7D29E;stroke-width:8.64"/>
	<rect x="2429.34" y="2056.29" width="21.78" height="472.99" style="fill:#CAC27E"/>
	<rect x="2433.66" y="2060.61" width="13.14" height="464.35" style="fill:none;stroke:#D7D29E;stroke-width:8.64"/>
	<rect x="2451.12" y="2174.48" width="21.90" height="354.80" style="fill:#CAC27E"/>
	<rect x="2455.44" y="2178.80" width="13.26" height="346.16" style="fill:none;stroke:#D7D29E;stroke-width:8.64"/>
	<rect x="2473.02" y="2233.63" width="21.90" height="295.65" style="fill:#CAC27E"/>
	<rect x="2477.34" y="2237.95" width="13.26" height="287.01" style="fill:none;stroke:#D7D29E;stroke-width:8.64"/>
	<rect x="2494.92" y="2056.29" width="21.78" height="472.99" style="fill:#CAC27E"/>
	<rect x="2499.24" y="2060.61" width="13.14" height="464.35" style="fill:none;stroke:#D7D29E;stroke-width:8.64"/>
	<rect x="2516.70" y="2174.48" width="21.90" height="354.80" style="fill:#CAC27E"/>
	<rect x="2521.02" y="2178.80" width="13.26" height="346.16" style="fill:none;stroke:#D7D29E;stroke-width:8.64"/>
	<rect x="2538.61" y="2351.82" width="21.90" height="177.46" style="fill:#CAC27E"/>
	<rect x="2542.93" y="2356.14" width="13.26" height="168.82" style="fill:none;stroke:#D7D29E;stroke-width:8.64"/>
	<rect x="2560.51" y="2292.79" width="21.78" height="236.49" style="fill:#CAC27E"/>
	<rect x="2564.83" y="2297.11" width="13.14" height="227.85" style="fill:none;stroke:#D7D29E;stroke-width:8.64"/>
	<rect x="2582.29" y="2292.79" width="21.90" height="236.49" style="fill:#CAC27E"/>
	<rect x="2586.61" y="2297.11" width="13.26" height="227.85" style="fill:none;stroke:#D7D29E;stroke-width:8.64"/>
	<rect x="2604.20" y="2233.63" width="21.90" height="295.65" style="fill:#CAC27E"/>
	<rect x="2608.51" y="2237.95" width="13.26" height="287.01" style="fill:none;stroke:#D7D29E;stroke-width:8.64"/>
	<rect x="2647.88" y="2233.63" width="21.90" height="295.65" style="fill:#CAC27E"/>
	<rect x="2652.20" y="2237.95" width="13.26" height="287.01" style="fill:none;stroke:#D7D29E;stroke-width:8.64"/>
	<rect x="2669.78" y="2174.48" width="21.90" height="354.80" style="fill:#CAC27E"/>
	<rect x="2674.10" y="2178.80" width="13.26" height="346.16" style="fill:none;stroke:#D7D29E;stroke-width:8.64"/>
	<rect x="2691.69" y="2174.48" width="21.78" height="354.80" style="fill:#CAC27E"/>
	<rect x="2696.01" y="2178.80" width="13.14" height="346.16" style="fill:none;stroke:#D7D29E;stroke-width:8.64"/>
	<rect x="2713.47" y="2174.48" width="21.90" height="354.80" style="fill:#CAC27E"/>
	<rect x="2717.79" y="2178.80" width="13.26" height="346.16" style="fill:none;stroke:#D7D29E;stroke-width:8.64"/>
	<rect x="2735.37" y="2351.82" width="21.90" height="177.46" style="fill:#CAC27E"/>
	<rect x="2739.69" y="2356.14" width="13.26" height="168.82" style="fill:none;stroke:#D7D29E;stroke-width:8.64"/>
	<rect x="2757.27" y="2351.82" width="21.78" height="177.46" style="fill:#CAC27E"/>
	<rect x="2761.59" y="2356.14" width="13.14" height="168.82" style="fill:none;stroke:#D7D29E;stroke-width:8.64"/>
	<rect x="2779.05" y="1878.83" width="21.90" height="650.45" style="fill:#CAC27E"/>
	<rect x="2783.37" y="1883.15" width="13.26" height="641.81" style="fill:none;stroke:#D7D29E;stroke-width:8.64"/>
	<rect x="2800.96" y="2351.82" width="21.90" height="177.46" style="fill:#CAC27E"/>
	<rect x="2805.28" y="2356.14" width="13.26" height="168.82" style="fill:none;stroke:#D7D29E;stroke-width:8.64"/>
	<rect x="2822.86" y="2470.13" width="21.78" height="59.15" style="fill:#CAC27E"/>
	<rect x="2827.18" y="2474.45" width="13.14" height="50.51" style="fill:none;stroke:#D7D29E;stroke-width:8.64"/>
	<rect x="2844.64" y="2115.32" width="21.90" height="413.96" style="fill:#CAC27E"/>
	<rect x="2848.96" y="2119.64" width="13.26" height="405.32" style="fill:none;stroke:#D7D29E;stroke-width:8.64"/>
	<rect x="2866.55" y="2292.79" width="21.90" height="236.49" style="fill:#CAC27E"/>
	<rect x="2870.86" y="2297.11" width="13.26" height="227.85" style="fill:none;stroke:#D7D29E;stroke-width:8.64"/>
	<rect x="2888.45" y="2410.97" width="21.78" height="118.31" style="fill:#CAC27E"/>
	<rect x="2892.77" y="2415.29" width="13.14" height="109.67" style="fill:none;stroke:#D7D29E;stroke-width:8.64"/>
	<rect x="2910.23" y="2351.82" width="21.90" height="177.46" style="fill:#CAC27E"/>
	<rect x="2914.55" y="2356.14" width="13.26" height="168.82" style="fill:none;stroke:#D7D29E;stroke-width:8.64"/>
	<rect x="2932.13" y="2174.48" width="21.90" height="354.80" style="fill:#CAC27E"/>
	<rect x="2936.45" y="2178.80" width="13.26" height="346.16" style="fill:none;stroke:#D7D29E;stroke-width:8.64"/>
	<rect x="2954.04" y="2410.97" width="21.78" height="118.31" style="fill:#CAC27E"/>
	<rect x="2958.36" y="2415.29" width="13.14" height="109.67" style="fill:none;stroke:#D7D29E;stroke-width:8.64"/>
	<rect x="2975.82" y="2410.97" width="21.90" height="118.31" style="fill:#CAC27E"/>
	<rect x="2980.14" y="2415.29" width="13.26" height="109.67" style="fill:none;stroke:#D7D29E;stroke-width:8.64"/>
	<rect x="2997.72" y="2410.97" width="21.90" height="118.31" style="fill:#CAC27E"/>
	<rect x="3002.04" y="2415.29" width="13.26" height="109.67" style="fill:none;stroke:#D7D29E;stroke-width:8.64"/>
	<rect x="3019.62" y="2470.13" width="21.78" height="59.15" style="fill:#CAC27E"/>
	<rect x="3023.94" y="2474.45" width="13.14" height="50.51" style="fill:none;stroke:#D7D29E;stroke-width:8.64"/>
	<rect x="3041.40" y="2292.79" width="21.90" height="236.49" style="fill:#CAC27E"/>
	<rect x="3045.72" y="2297.11" width="13.26" height="227.85" style="fill:none;stroke:#D7D29E;stroke-width:8.64"/>
	<rect x="3063.31" y="2410.97" width="21.90" height="118.31" style="fill:#CAC27E"/>
	<rect x="3067.63" y="2415.29" width="13.26" height="109.67" style="fill:none;stroke:#D7D29E;stroke-width:8.64"/>
	<rect x="3085.21" y="2470.13" width="21.78" height="59.15" style="fill:#CAC27E"/>
	<rect x="3089.53" y="2474.45" width="13.14" height="50.51" style="fill:none;stroke:#D7D29E;stroke-width:8.64"/>
	<rect x="3106.99" y="2410.97" width="21.90" height="118.31" style="fill:#CAC27E"/>
	<rect x="3111.31" y="2415.29" width="13.26" height="109.67" style="fill:none;stroke:#D7D29E;stroke-width:8.64"/>
	<rect x="3128.89" y="2410.97" width="21.90" height="118.31" style="fill:#CAC27E"/>
	<rect x="3133.21" y="2415.29" width="13.26" height="109.67" style="fill:none;stroke:#D7D29E;stroke-width:8.64"/>
	<rect x="3150.80" y="2470.13" width="21.78" height="59.15" style="fill:#CAC27E"/>
	<rect x="3155.12" y="2474.45" width="13.14" height="50.51" style="fill:none;stroke:#D7D29E;stroke-width:8.64"/>
	<rect x="3172.58" y="2410.97" width="21.90" height="118.31" style="fill:#CAC27E"/>
	<rect x="3176.90" y="2415.29" width="13.26" height="109.67" style="fill:none;stroke:#D7D29E;stroke-width:8.64"/>
	<rect x="3194.48" y="2470.13" width="21.90" height="59.15" style="fill:#CAC27E"/>
	<rect x="3198.80" y="2474.45" width="13.26" height="50.51" style="fill:none;stroke:#D7D29E;stroke-width:8.64"/>
	<rect x="3260.07" y="2351.82" width="21.90" height="177.46" style="fill:#CAC27E"/>
	<rect x="3264.39" y="2356.14" width="13.26" height="168.82" style="fill:none;stroke:#D7D29E;stroke-width:8.64"/>
	<rect x="3281.97" y="2470.13" width="21.78" height="59.15" style="fill:#CAC27E"/>
	<rect x="3286.29" y="2474.45" width="13.14" height="50.51" style="fill:none;stroke:#D7D29E;stroke-width:8.64"/>
	<rect x="3303.75" y="2351.82" width="21.90" height="177.46" style="fill:#CAC27E"/>
	<rect x="3308.07" y="2356.14" width="13.26" height="168.82" style="fill:none;stroke:#D7D29E;stroke-width:8.64"/>
	<rect x="3325.66" y="2470.13" width="21.90" height="59.15" style="fill:#CAC27E"/>
	<rect x="3329.98" y="2474.45" width="13.26" height="50.51" style="fill:none;stroke:#D7D29E;stroke-width:8.64"/>
	<rect x="3347.56" y="2470.13" width="21.78" height="59.15" style="fill:#CAC27E"/>
	<rect x="3351.88" y="2474.45" width="13.14" height="50.51" style="fill:none;stroke:#D7D29E;stroke-width:8.64"/>
	<rect x="3391.24" y="2410.97" width="21.90" height="118.31" style="fill:#CAC27E"/>
	<rect x="3395.56" y="2415.29" width="13.26" height="109.67" style="fill:none;stroke:#D7D29E;stroke-width:8.64"/>
	<rect x="3413.15" y="2470.13" width="21.78" height="59.15" style="fill:#CAC27E"/>
	<rect x="3417.47" y="2474.45" width="13.14" height="50.51" style="fill:none;stroke:#D7D29E;stroke-width:8.64"/>
	<rect x="3434.93" y="2410.97" width="21.90" height="118.31" style="fill:#CAC27E"/>
	<rect x="3439.25" y="2415.29" width="13.26" height="109.67" style="fill:none;stroke:#D7D29E;stroke-width:8.64"/>
	<rect x="3456.83" y="2410.97" width="21.90" height="118.31" style="fill:#CAC27E"/>
	<rect x="3461.15" y="2415.29" width="13.26" height="109.67" style="fill:none;stroke:#D7D29E;stroke-width:8.64"/>
	<rect x="3478.74" y="2470.13" width="21.78" height="59.15" style="fill:#CAC27E"/>
	<rect x="3483.06" y="2474.45" width="13.14" height="50.51" style="fill:none;stroke:#D7D29E;stroke-width:8.64"/>
	<rect x="3500.52" y="2410.97" width="21.90" height="118.31" style="fill:#CAC27E"/>
	<rect x="3504.84" y="2415.29" width="13.26" height="109.67" style="fill:none;stroke:#D7D29E;stroke-width:8.64"/>
	<rect x="3544.32" y="2410.97" width="21.78" height="118.31" style="fill:#CAC27E"/>
	<rect x="3548.64" y="2415.29" width="13.14" height="109.67" style="fill:none;stroke:#D7D29E;stroke-width:8.64"/>
	<rect x="3588.01" y="2410.97" width="21.90" height="118.31" style="fill:#CAC27E"/>
	<rect x="3592.33" y="2415.29" width="13.26" height="109.67" style="fill:none;stroke:#D7D29E;stroke-width:8.64"/>
	<rect x="3609.91" y="2470.13" width="21.78" height="59.15" style="fill:#CAC27E"/>
	<rect x="3614.23" y="2474.45" width="13.14" height="50.51" style="fill:none;stroke:#D7D29E;stroke-width:8.64"/>
	<rect x="3631.69" y="2470.13" width="21.90" height="59.15" style="fill:#CAC27E"/>
	<rect x="3636.01" y="2474.45" width="13.26" height="50.51" style="fill:none;stroke:#D7D29E;stroke-width:8.64"/>
	<rect x="3653.59" y="2470.13" width="21.90" height="59.15" style="fill:#CAC27E"/>
	<rect x="3657.91" y="2474.45" width="13.26" height="50.51" style="fill:none;stroke:#D7D29E;stroke-width:8.64"/>
	<rect x="3675.50" y="2470.13" width="21.78" height="59.15" style="fill:#CAC27E"/>
	<rect x="3679.82" y="2474.45" width="13.14" height="50.51" style="fill:none;stroke:#D7D29E;stroke-width:8.64"/>
	<rect x="3697.28" y="2470.13" width="21.90" height="59.15" style="fill:#CAC27E"/>
	<rect x="3701.60" y="2474.45" width="13.26" height="50.51" style="fill:none;stroke:#D7D29E;stroke-width:8.64"/>
	<rect x="3719.18" y="2292.79" width="21.90" height="236.49" style="fill:#CAC27E"/>
	<rect x="3723.50" y="2297.11" width="13.26" height="227.85" style="fill:none;stroke:#D7D29E;stroke-width:8.64"/>
	<line x1="387.34" y1="2529.28" x2="387.34" y2="100.86" style="stroke:#000000;stroke-width:5.76"/>
	<line x1="387.34" y1="2529.28" x2="347.37" y2="2529.28" style="stroke:#000000;stroke-width:5.76"/>
	<text x="327.44" y="2557.29" style="font-family:'Helvetica';font-size:79.94px;fill:#000000" text-anchor="end">0</text>
	<line x1="387.34" y1="1937.99" x2="347.37" y2="1937.99" style="stroke:#000000;stroke-width:5.76"/>
	<text x="327.44" y="1966.00" style="font-family:'Helvetica';font-size:79.94px;fill:#000000" text-anchor="end">10</text>
	<line x1="387.34" y1="1346.69" x2="347.37" y2="1346.69" style="stroke:#000000;stroke-width:5.76"/>
	<text x="327.44" y="1374.70" style="font-family:'Helvetica';font-size:79.94px;fill:#000000" text-anchor="end">20</text>
	<line x1="387.34" y1="755.39" x2="347.37" y2="755.39" style="stroke:#000000;stroke-width:5.76"/>
	<text x="327.44" y="783.41" style="font-family:'Helvetica';font-size:79.94px;fill:#000000" text-anchor="end">30</text>
	<line x1="387.34" y1="164.22" x2="347.37" y2="164.22" style="stroke:#000000;stroke-width:5.76"/>
	<text x="327.44" y="192.23" style="font-family:'Helvetica';font-size:79.94px;fill:#000000" text-anchor="end">40</text>
	<text x="176.68" y="1315.01" style="font-family:'Helvetica';font-size:79.94px;fill:#000000" transform="rotate(-90 176.68,1315.01)" text-anchor="middle">Number of SGSS positives tests</text>
	<line x1="387.34" y1="2529.28" x2="3859.02" y2="2529.28" style="stroke:#000000;stroke-width:5.76"/>
	<line x1="450.70" y1="2529.28" x2="450.70" y2="2569.25" style="stroke:#000000;stroke-width:5.76"/>
	<text x="450.70" y="2645.20" style="font-family:'Helvetica';font-size:79.94px;fill:#000000" text-anchor="middle">01mar2020</text>
	<line x1="1128.48" y1="2529.28" x2="1128.48" y2="2569.25" style="stroke:#000000;stroke-width:5.76"/>
	<text x="1128.48" y="2645.20" style="font-family:'Helvetica';font-size:79.94px;fill:#000000" text-anchor="middle">01apr2020</text>
	<line x1="1784.35" y1="2529.28" x2="1784.35" y2="2569.25" style="stroke:#000000;stroke-width:5.76"/>
	<text x="1784.35" y="2645.20" style="font-family:'Helvetica';font-size:79.94px;fill:#000000" text-anchor="middle">01may2020</text>
	<line x1="2462.13" y1="2529.28" x2="2462.13" y2="2569.25" style="stroke:#000000;stroke-width:5.76"/>
	<text x="2462.13" y="2645.20" style="font-family:'Helvetica';font-size:79.94px;fill:#000000" text-anchor="middle">01jun2020</text>
	<line x1="3118.01" y1="2529.28" x2="3118.01" y2="2569.25" style="stroke:#000000;stroke-width:5.76"/>
	<text x="3118.01" y="2645.20" style="font-family:'Helvetica';font-size:79.94px;fill:#000000" text-anchor="middle">01jul2020</text>
	<line x1="3795.66" y1="2529.28" x2="3795.66" y2="2569.25" style="stroke:#000000;stroke-width:5.76"/>
	<text x="3795.66" y="2645.20" style="font-family:'Helvetica';font-size:79.94px;fill:#000000" text-anchor="middle">01aug2020</text>
	<text x="2123.18" y="2735.17" style="font-family:'Helvetica';font-size:79.94px;fill:#000000" text-anchor="middle">Date</text>
</svg>
