<?xml version="1.0" encoding="UTF-8" standalone="no"?>
<!-- This is a Stata 16.1 generated SVG file (http://www.stata.com) -->

<svg version="1.1" width="5.50in" height="4.00in" viewBox="0 0 3960 2880" xmlns="http://www.w3.org/2000/svg" xmlns:xlink="http://www.w3.org/1999/xlink">
	<desc>Stata Graph - Graph</desc>
	<rect x="0" y="0" width="3960" height="2880" style="fill:#EAF2F3;stroke:none"/>
	<rect x="0.00" y="0.00" width="3959.88" height="2880.00" style="fill:#EAF2F3"/>
	<rect x="2.88" y="2.88" width="3954.12" height="2874.24" style="fill:none;stroke:#EAF2F3;stroke-width:5.76"/>
	<rect x="387.34" y="100.86" width="3471.68" height="2428.42" style="fill:#FFFFFF"/>
	<rect x="390.22" y="103.74" width="3465.92" height="2422.66" style="fill:none;stroke:#FFFFFF;stroke-width:5.76"/>
	<line x1="387.34" y1="2529.28" x2="3859.02" y2="2529.28" style="stroke:#EAF2F3;stroke-width:5.76"/>
	<line x1="387.34" y1="1740.85" x2="3859.02" y2="1740.85" style="stroke:#EAF2F3;stroke-width:5.76"/>
	<line x1="387.34" y1="952.53" x2="3859.02" y2="952.53" style="stroke:#EAF2F3;stroke-width:5.76"/>
	<line x1="387.34" y1="164.22" x2="3859.02" y2="164.22" style="stroke:#EAF2F3;stroke-width:5.76"/>
	<line x1="475.20" y1="2529.28" x2="475.20" y2="100.86" style="stroke:#EAF2F3;stroke-width:5.76"/>
	<line x1="1234.90" y1="2529.28" x2="1234.90" y2="100.86" style="stroke:#EAF2F3;stroke-width:5.76"/>
	<line x1="1970.10" y1="2529.28" x2="1970.10" y2="100.86" style="stroke:#EAF2F3;stroke-width:5.76"/>
	<line x1="2729.80" y1="2529.28" x2="2729.80" y2="100.86" style="stroke:#EAF2F3;stroke-width:5.76"/>
	<line x1="3464.88" y1="2529.28" x2="3464.88" y2="100.86" style="stroke:#EAF2F3;stroke-width:5.76"/>
	<rect x="462.95" y="2371.62" width="24.50" height="157.66" style="fill:#CAC27E"/>
	<rect x="467.27" y="2375.94" width="15.86" height="149.02" style="fill:none;stroke:#D7D29E;stroke-width:8.64"/>
	<rect x="659.09" y="2489.80" width="24.50" height="39.48" style="fill:#CAC27E"/>
	<rect x="663.41" y="2494.12" width="15.86" height="30.84" style="fill:none;stroke:#D7D29E;stroke-width:8.64"/>
	<rect x="708.10" y="2489.80" width="24.50" height="39.48" style="fill:#CAC27E"/>
	<rect x="712.42" y="2494.12" width="15.86" height="30.84" style="fill:none;stroke:#D7D29E;stroke-width:8.64"/>
	<rect x="757.10" y="2450.45" width="24.50" height="78.83" style="fill:#CAC27E"/>
	<rect x="761.42" y="2454.77" width="15.86" height="70.19" style="fill:none;stroke:#D7D29E;stroke-width:8.64"/>
	<rect x="830.61" y="2371.62" width="24.50" height="157.66" style="fill:#CAC27E"/>
	<rect x="834.93" y="2375.94" width="15.86" height="149.02" style="fill:none;stroke:#D7D29E;stroke-width:8.64"/>
	<rect x="855.11" y="2371.62" width="24.50" height="157.66" style="fill:#CAC27E"/>
	<rect x="859.43" y="2375.94" width="15.86" height="149.02" style="fill:none;stroke:#D7D29E;stroke-width:8.64"/>
	<rect x="879.62" y="2450.45" width="24.50" height="78.83" style="fill:#CAC27E"/>
	<rect x="883.93" y="2454.77" width="15.86" height="70.19" style="fill:none;stroke:#D7D29E;stroke-width:8.64"/>
	<rect x="904.12" y="2371.62" width="24.50" height="157.66" style="fill:#CAC27E"/>
	<rect x="908.44" y="2375.94" width="15.86" height="149.02" style="fill:none;stroke:#D7D29E;stroke-width:8.64"/>
	<rect x="928.62" y="2332.14" width="24.50" height="197.14" style="fill:#CAC27E"/>
	<rect x="932.94" y="2336.46" width="15.86" height="188.50" style="fill:none;stroke:#D7D29E;stroke-width:8.64"/>
	<rect x="953.12" y="2450.45" width="24.50" height="78.83" style="fill:#CAC27E"/>
	<rect x="957.44" y="2454.77" width="15.86" height="70.19" style="fill:none;stroke:#D7D29E;stroke-width:8.64"/>
	<rect x="977.63" y="2371.62" width="24.50" height="157.66" style="fill:#CAC27E"/>
	<rect x="981.94" y="2375.94" width="15.86" height="149.02" style="fill:none;stroke:#D7D29E;stroke-width:8.64"/>
	<rect x="1002.13" y="2213.96" width="24.50" height="315.32" style="fill:#CAC27E"/>
	<rect x="1006.45" y="2218.28" width="15.86" height="306.69" style="fill:none;stroke:#D7D29E;stroke-width:8.64"/>
	<rect x="1026.63" y="2135.13" width="24.50" height="394.16" style="fill:#CAC27E"/>
	<rect x="1030.95" y="2139.45" width="15.86" height="385.52" style="fill:none;stroke:#D7D29E;stroke-width:8.64"/>
	<rect x="1051.13" y="2135.13" width="24.50" height="394.16" style="fill:#CAC27E"/>
	<rect x="1055.45" y="2139.45" width="15.86" height="385.52" style="fill:none;stroke:#D7D29E;stroke-width:8.64"/>
	<rect x="1075.63" y="2135.13" width="24.50" height="394.16" style="fill:#CAC27E"/>
	<rect x="1079.95" y="2139.45" width="15.86" height="385.52" style="fill:none;stroke:#D7D29E;stroke-width:8.64"/>
	<rect x="1100.14" y="2213.96" width="24.50" height="315.32" style="fill:#CAC27E"/>
	<rect x="1104.46" y="2218.28" width="15.86" height="306.69" style="fill:none;stroke:#D7D29E;stroke-width:8.64"/>
	<rect x="1124.64" y="2174.48" width="24.50" height="354.80" style="fill:#CAC27E"/>
	<rect x="1128.96" y="2178.80" width="15.86" height="346.16" style="fill:none;stroke:#D7D29E;stroke-width:8.64"/>
	<rect x="1149.14" y="2174.48" width="24.50" height="354.80" style="fill:#CAC27E"/>
	<rect x="1153.46" y="2178.80" width="15.86" height="346.16" style="fill:none;stroke:#D7D29E;stroke-width:8.64"/>
	<rect x="1173.64" y="1780.32" width="24.50" height="748.96" style="fill:#CAC27E"/>
	<rect x="1177.96" y="1784.64" width="15.86" height="740.32" style="fill:none;stroke:#D7D29E;stroke-width:8.64"/>
	<rect x="1198.15" y="1780.32" width="24.50" height="748.96" style="fill:#CAC27E"/>
	<rect x="1202.47" y="1784.64" width="15.86" height="740.32" style="fill:none;stroke:#D7D29E;stroke-width:8.64"/>
	<rect x="1222.65" y="1110.20" width="24.50" height="1419.09" style="fill:#CAC27E"/>
	<rect x="1226.97" y="1114.52" width="15.86" height="1410.45" style="fill:none;stroke:#D7D29E;stroke-width:8.64"/>
	<rect x="1247.15" y="1622.66" width="24.50" height="906.62" style="fill:#CAC27E"/>
	<rect x="1251.47" y="1626.98" width="15.86" height="897.98" style="fill:none;stroke:#D7D29E;stroke-width:8.64"/>
	<rect x="1271.65" y="1267.86" width="24.50" height="1261.42" style="fill:#CAC27E"/>
	<rect x="1275.97" y="1272.18" width="15.86" height="1252.78" style="fill:none;stroke:#D7D29E;stroke-width:8.64"/>
	<rect x="1296.16" y="2174.48" width="24.50" height="354.80" style="fill:#CAC27E"/>
	<rect x="1300.48" y="2178.80" width="15.86" height="346.16" style="fill:none;stroke:#D7D29E;stroke-width:8.64"/>
	<rect x="1320.66" y="2135.13" width="24.50" height="394.16" style="fill:#CAC27E"/>
	<rect x="1324.98" y="2139.45" width="15.86" height="385.52" style="fill:none;stroke:#D7D29E;stroke-width:8.64"/>
	<rect x="1345.16" y="1465.00" width="24.50" height="1064.28" style="fill:#CAC27E"/>
	<rect x="1349.48" y="1469.32" width="15.86" height="1055.64" style="fill:none;stroke:#D7D29E;stroke-width:8.64"/>
	<rect x="1369.66" y="1937.99" width="24.50" height="591.30" style="fill:#CAC27E"/>
	<rect x="1373.98" y="1942.31" width="15.86" height="582.66" style="fill:none;stroke:#D7D29E;stroke-width:8.64"/>
	<rect x="1394.17" y="1701.49" width="24.50" height="827.79" style="fill:#CAC27E"/>
	<rect x="1398.49" y="1705.81" width="15.86" height="819.15" style="fill:none;stroke:#D7D29E;stroke-width:8.64"/>
	<rect x="1418.67" y="1622.66" width="24.50" height="906.62" style="fill:#CAC27E"/>
	<rect x="1422.99" y="1626.98" width="15.86" height="897.98" style="fill:none;stroke:#D7D29E;stroke-width:8.64"/>
	<rect x="1443.17" y="1898.51" width="24.50" height="630.77" style="fill:#CAC27E"/>
	<rect x="1447.49" y="1902.83" width="15.86" height="622.13" style="fill:none;stroke:#D7D29E;stroke-width:8.64"/>
	<rect x="1467.67" y="2253.31" width="24.50" height="275.97" style="fill:#CAC27E"/>
	<rect x="1471.99" y="2257.63" width="15.86" height="267.33" style="fill:none;stroke:#D7D29E;stroke-width:8.64"/>
	<rect x="1492.18" y="2135.13" width="24.50" height="394.16" style="fill:#CAC27E"/>
	<rect x="1496.50" y="2139.45" width="15.86" height="385.52" style="fill:none;stroke:#D7D29E;stroke-width:8.64"/>
	<rect x="1516.68" y="1898.51" width="24.50" height="630.77" style="fill:#CAC27E"/>
	<rect x="1521.00" y="1902.83" width="15.86" height="622.13" style="fill:none;stroke:#D7D29E;stroke-width:8.64"/>
	<rect x="1541.18" y="321.88" width="24.50" height="2207.40" style="fill:#CAC27E"/>
	<rect x="1545.50" y="326.20" width="15.86" height="2198.76" style="fill:none;stroke:#D7D29E;stroke-width:8.64"/>
	<rect x="1565.68" y="1149.67" width="24.50" height="1379.61" style="fill:#CAC27E"/>
	<rect x="1570.00" y="1153.99" width="15.86" height="1370.97" style="fill:none;stroke:#D7D29E;stroke-width:8.64"/>
	<rect x="1590.19" y="1819.68" width="24.63" height="709.60" style="fill:#CAC27E"/>
	<rect x="1594.51" y="1824.00" width="15.99" height="700.96" style="fill:none;stroke:#D7D29E;stroke-width:8.64"/>
	<rect x="1614.81" y="282.41" width="24.50" height="2246.88" style="fill:#CAC27E"/>
	<rect x="1619.13" y="286.73" width="15.86" height="2238.24" style="fill:none;stroke:#D7D29E;stroke-width:8.64"/>
	<rect x="1639.32" y="2292.79" width="24.50" height="236.49" style="fill:#CAC27E"/>
	<rect x="1643.64" y="2297.11" width="15.86" height="227.85" style="fill:none;stroke:#D7D29E;stroke-width:8.64"/>
	<rect x="1663.82" y="2135.13" width="24.50" height="394.16" style="fill:#CAC27E"/>
	<rect x="1668.14" y="2139.45" width="15.86" height="385.52" style="fill:none;stroke:#D7D29E;stroke-width:8.64"/>
	<rect x="1688.32" y="952.53" width="24.50" height="1576.75" style="fill:#CAC27E"/>
	<rect x="1692.64" y="956.85" width="15.86" height="1568.11" style="fill:none;stroke:#D7D29E;stroke-width:8.64"/>
	<rect x="1712.82" y="1622.66" width="24.50" height="906.62" style="fill:#CAC27E"/>
	<rect x="1717.14" y="1626.98" width="15.86" height="897.98" style="fill:none;stroke:#D7D29E;stroke-width:8.64"/>
	<rect x="1737.33" y="2174.48" width="24.50" height="354.80" style="fill:#CAC27E"/>
	<rect x="1741.65" y="2178.80" width="15.86" height="346.16" style="fill:none;stroke:#D7D29E;stroke-width:8.64"/>
	<rect x="1761.83" y="1465.00" width="24.50" height="1064.28" style="fill:#CAC27E"/>
	<rect x="1766.15" y="1469.32" width="15.86" height="1055.64" style="fill:none;stroke:#D7D29E;stroke-width:8.64"/>
	<rect x="1786.33" y="2016.82" width="24.50" height="512.46" style="fill:#CAC27E"/>
	<rect x="1790.65" y="2021.14" width="15.86" height="503.83" style="fill:none;stroke:#D7D29E;stroke-width:8.64"/>
	<rect x="1810.83" y="2174.48" width="24.50" height="354.80" style="fill:#CAC27E"/>
	<rect x="1815.15" y="2178.80" width="15.86" height="346.16" style="fill:none;stroke:#D7D29E;stroke-width:8.64"/>
	<rect x="1835.34" y="2371.62" width="24.50" height="157.66" style="fill:#CAC27E"/>
	<rect x="1839.66" y="2375.94" width="15.86" height="149.02" style="fill:none;stroke:#D7D29E;stroke-width:8.64"/>
	<rect x="1859.84" y="991.89" width="24.50" height="1537.39" style="fill:#CAC27E"/>
	<rect x="1864.16" y="996.21" width="15.86" height="1528.75" style="fill:none;stroke:#D7D29E;stroke-width:8.64"/>
	<rect x="1884.34" y="597.73" width="24.50" height="1931.55" style="fill:#CAC27E"/>
	<rect x="1888.66" y="602.05" width="15.86" height="1922.91" style="fill:none;stroke:#D7D29E;stroke-width:8.64"/>
	<rect x="1908.84" y="1819.68" width="24.50" height="709.60" style="fill:#CAC27E"/>
	<rect x="1913.16" y="1824.00" width="15.86" height="700.96" style="fill:none;stroke:#D7D29E;stroke-width:8.64"/>
	<rect x="1933.35" y="1465.00" width="24.50" height="1064.28" style="fill:#CAC27E"/>
	<rect x="1937.67" y="1469.32" width="15.86" height="1055.64" style="fill:none;stroke:#D7D29E;stroke-width:8.64"/>
	<rect x="1957.85" y="1543.83" width="24.50" height="985.45" style="fill:#CAC27E"/>
	<rect x="1962.17" y="1548.15" width="15.86" height="976.81" style="fill:none;stroke:#D7D29E;stroke-width:8.64"/>
	<rect x="1982.35" y="2332.14" width="24.50" height="197.14" style="fill:#CAC27E"/>
	<rect x="1986.67" y="2336.46" width="15.86" height="188.50" style="fill:none;stroke:#D7D29E;stroke-width:8.64"/>
	<rect x="2006.85" y="2410.97" width="24.50" height="118.31" style="fill:#CAC27E"/>
	<rect x="2011.17" y="2415.29" width="15.86" height="109.67" style="fill:none;stroke:#D7D29E;stroke-width:8.64"/>
	<rect x="2031.36" y="1780.32" width="24.50" height="748.96" style="fill:#CAC27E"/>
	<rect x="2035.68" y="1784.64" width="15.86" height="740.32" style="fill:none;stroke:#D7D29E;stroke-width:8.64"/>
	<rect x="2055.86" y="1583.18" width="24.50" height="946.10" style="fill:#CAC27E"/>
	<rect x="2060.18" y="1587.50" width="15.86" height="937.46" style="fill:none;stroke:#D7D29E;stroke-width:8.64"/>
	<rect x="2080.36" y="1937.99" width="24.50" height="591.30" style="fill:#CAC27E"/>
	<rect x="2084.68" y="1942.31" width="15.86" height="582.66" style="fill:none;stroke:#D7D29E;stroke-width:8.64"/>
	<rect x="2104.86" y="1662.01" width="24.50" height="867.27" style="fill:#CAC27E"/>
	<rect x="2109.18" y="1666.33" width="15.86" height="858.63" style="fill:none;stroke:#D7D29E;stroke-width:8.64"/>
	<rect x="2129.37" y="2056.29" width="24.50" height="472.99" style="fill:#CAC27E"/>
	<rect x="2133.69" y="2060.61" width="15.86" height="464.35" style="fill:none;stroke:#D7D29E;stroke-width:8.64"/>
	<rect x="2153.87" y="2332.14" width="24.50" height="197.14" style="fill:#CAC27E"/>
	<rect x="2158.19" y="2336.46" width="15.86" height="188.50" style="fill:none;stroke:#D7D29E;stroke-width:8.64"/>
	<rect x="2178.37" y="2450.45" width="24.50" height="78.83" style="fill:#CAC27E"/>
	<rect x="2182.69" y="2454.77" width="15.86" height="70.19" style="fill:none;stroke:#D7D29E;stroke-width:8.64"/>
	<rect x="2202.87" y="1819.68" width="24.50" height="709.60" style="fill:#CAC27E"/>
	<rect x="2207.19" y="1824.00" width="15.86" height="700.96" style="fill:none;stroke:#D7D29E;stroke-width:8.64"/>
	<rect x="2227.38" y="1898.51" width="24.50" height="630.77" style="fill:#CAC27E"/>
	<rect x="2231.70" y="1902.83" width="15.86" height="622.13" style="fill:none;stroke:#D7D29E;stroke-width:8.64"/>
	<rect x="2251.88" y="2095.65" width="24.50" height="433.63" style="fill:#CAC27E"/>
	<rect x="2256.20" y="2099.97" width="15.86" height="424.99" style="fill:none;stroke:#D7D29E;stroke-width:8.64"/>
	<rect x="2276.38" y="1543.83" width="24.50" height="985.45" style="fill:#CAC27E"/>
	<rect x="2280.70" y="1548.15" width="15.86" height="976.81" style="fill:none;stroke:#D7D29E;stroke-width:8.64"/>
	<rect x="2300.88" y="2135.13" width="24.50" height="394.16" style="fill:#CAC27E"/>
	<rect x="2305.20" y="2139.45" width="15.86" height="385.52" style="fill:none;stroke:#D7D29E;stroke-width:8.64"/>
	<rect x="2325.39" y="2410.97" width="24.50" height="118.31" style="fill:#CAC27E"/>
	<rect x="2329.71" y="2415.29" width="15.86" height="109.67" style="fill:none;stroke:#D7D29E;stroke-width:8.64"/>
	<rect x="2349.89" y="2371.62" width="24.50" height="157.66" style="fill:#CAC27E"/>
	<rect x="2354.21" y="2375.94" width="15.86" height="149.02" style="fill:none;stroke:#D7D29E;stroke-width:8.64"/>
	<rect x="2374.39" y="1346.69" width="24.50" height="1182.59" style="fill:#CAC27E"/>
	<rect x="2378.71" y="1351.01" width="15.86" height="1173.95" style="fill:none;stroke:#D7D29E;stroke-width:8.64"/>
	<rect x="2398.89" y="1662.01" width="24.50" height="867.27" style="fill:#CAC27E"/>
	<rect x="2403.21" y="1666.33" width="15.86" height="858.63" style="fill:none;stroke:#D7D29E;stroke-width:8.64"/>
	<rect x="2423.40" y="1859.15" width="24.50" height="670.13" style="fill:#CAC27E"/>
	<rect x="2427.72" y="1863.47" width="15.86" height="661.49" style="fill:none;stroke:#D7D29E;stroke-width:8.64"/>
	<rect x="2447.90" y="2135.13" width="24.50" height="394.16" style="fill:#CAC27E"/>
	<rect x="2452.22" y="2139.45" width="15.86" height="385.52" style="fill:none;stroke:#D7D29E;stroke-width:8.64"/>
	<rect x="2472.40" y="2174.48" width="24.50" height="354.80" style="fill:#CAC27E"/>
	<rect x="2476.72" y="2178.80" width="15.86" height="346.16" style="fill:none;stroke:#D7D29E;stroke-width:8.64"/>
	<rect x="2496.90" y="2450.45" width="24.50" height="78.83" style="fill:#CAC27E"/>
	<rect x="2501.22" y="2454.77" width="15.86" height="70.19" style="fill:none;stroke:#D7D29E;stroke-width:8.64"/>
	<rect x="2521.41" y="2450.45" width="24.50" height="78.83" style="fill:#CAC27E"/>
	<rect x="2525.73" y="2454.77" width="15.86" height="70.19" style="fill:none;stroke:#D7D29E;stroke-width:8.64"/>
	<rect x="2570.41" y="1977.34" width="24.50" height="551.94" style="fill:#CAC27E"/>
	<rect x="2574.73" y="1981.66" width="15.86" height="543.30" style="fill:none;stroke:#D7D29E;stroke-width:8.64"/>
	<rect x="2594.91" y="2332.14" width="24.50" height="197.14" style="fill:#CAC27E"/>
	<rect x="2599.23" y="2336.46" width="15.86" height="188.50" style="fill:none;stroke:#D7D29E;stroke-width:8.64"/>
	<rect x="2619.42" y="2371.62" width="24.50" height="157.66" style="fill:#CAC27E"/>
	<rect x="2623.74" y="2375.94" width="15.86" height="149.02" style="fill:none;stroke:#D7D29E;stroke-width:8.64"/>
	<rect x="2643.92" y="2253.31" width="24.50" height="275.97" style="fill:#CAC27E"/>
	<rect x="2648.24" y="2257.63" width="15.86" height="267.33" style="fill:none;stroke:#D7D29E;stroke-width:8.64"/>
	<rect x="2668.42" y="2410.97" width="24.50" height="118.31" style="fill:#CAC27E"/>
	<rect x="2672.74" y="2415.29" width="15.86" height="109.67" style="fill:none;stroke:#D7D29E;stroke-width:8.64"/>
	<rect x="2692.92" y="2450.45" width="24.63" height="78.83" style="fill:#CAC27E"/>
	<rect x="2697.24" y="2454.77" width="15.99" height="70.19" style="fill:none;stroke:#D7D29E;stroke-width:8.64"/>
	<rect x="2717.55" y="2292.79" width="24.50" height="236.49" style="fill:#CAC27E"/>
	<rect x="2721.87" y="2297.11" width="15.86" height="227.85" style="fill:none;stroke:#D7D29E;stroke-width:8.64"/>
	<rect x="2742.05" y="2174.48" width="24.50" height="354.80" style="fill:#CAC27E"/>
	<rect x="2746.37" y="2178.80" width="15.86" height="346.16" style="fill:none;stroke:#D7D29E;stroke-width:8.64"/>
	<rect x="2766.55" y="2332.14" width="24.50" height="197.14" style="fill:#CAC27E"/>
	<rect x="2770.87" y="2336.46" width="15.86" height="188.50" style="fill:none;stroke:#D7D29E;stroke-width:8.64"/>
	<rect x="2791.06" y="2135.13" width="24.50" height="394.16" style="fill:#CAC27E"/>
	<rect x="2795.38" y="2139.45" width="15.86" height="385.52" style="fill:none;stroke:#D7D29E;stroke-width:8.64"/>
	<rect x="2815.56" y="2410.97" width="24.50" height="118.31" style="fill:#CAC27E"/>
	<rect x="2819.88" y="2415.29" width="15.86" height="109.67" style="fill:none;stroke:#D7D29E;stroke-width:8.64"/>
	<rect x="2840.06" y="2371.62" width="24.50" height="157.66" style="fill:#CAC27E"/>
	<rect x="2844.38" y="2375.94" width="15.86" height="149.02" style="fill:none;stroke:#D7D29E;stroke-width:8.64"/>
	<rect x="2864.57" y="2450.45" width="24.50" height="78.83" style="fill:#CAC27E"/>
	<rect x="2868.88" y="2454.77" width="15.86" height="70.19" style="fill:none;stroke:#D7D29E;stroke-width:8.64"/>
	<rect x="2889.07" y="2292.79" width="24.50" height="236.49" style="fill:#CAC27E"/>
	<rect x="2893.39" y="2297.11" width="15.86" height="227.85" style="fill:none;stroke:#D7D29E;stroke-width:8.64"/>
	<rect x="2913.57" y="2056.29" width="24.50" height="472.99" style="fill:#CAC27E"/>
	<rect x="2917.89" y="2060.61" width="15.86" height="464.35" style="fill:none;stroke:#D7D29E;stroke-width:8.64"/>
	<rect x="2938.07" y="2174.48" width="24.50" height="354.80" style="fill:#CAC27E"/>
	<rect x="2942.39" y="2178.80" width="15.86" height="346.16" style="fill:none;stroke:#D7D29E;stroke-width:8.64"/>
	<rect x="2962.57" y="2174.48" width="24.50" height="354.80" style="fill:#CAC27E"/>
	<rect x="2966.89" y="2178.80" width="15.86" height="346.16" style="fill:none;stroke:#D7D29E;stroke-width:8.64"/>
	<rect x="2987.08" y="2292.79" width="24.50" height="236.49" style="fill:#CAC27E"/>
	<rect x="2991.40" y="2297.11" width="15.86" height="227.85" style="fill:none;stroke:#D7D29E;stroke-width:8.64"/>
	<rect x="3011.58" y="2371.62" width="24.50" height="157.66" style="fill:#CAC27E"/>
	<rect x="3015.90" y="2375.94" width="15.86" height="149.02" style="fill:none;stroke:#D7D29E;stroke-width:8.64"/>
	<rect x="3036.08" y="2332.14" width="24.50" height="197.14" style="fill:#CAC27E"/>
	<rect x="3040.40" y="2336.46" width="15.86" height="188.50" style="fill:none;stroke:#D7D29E;stroke-width:8.64"/>
	<rect x="3060.59" y="2292.79" width="24.50" height="236.49" style="fill:#CAC27E"/>
	<rect x="3064.90" y="2297.11" width="15.86" height="227.85" style="fill:none;stroke:#D7D29E;stroke-width:8.64"/>
	<rect x="3085.09" y="2332.14" width="24.50" height="197.14" style="fill:#CAC27E"/>
	<rect x="3089.41" y="2336.46" width="15.86" height="188.50" style="fill:none;stroke:#D7D29E;stroke-width:8.64"/>
	<rect x="3109.59" y="2450.45" width="24.50" height="78.83" style="fill:#CAC27E"/>
	<rect x="3113.91" y="2454.77" width="15.86" height="70.19" style="fill:none;stroke:#D7D29E;stroke-width:8.64"/>
	<rect x="3134.09" y="2332.14" width="24.50" height="197.14" style="fill:#CAC27E"/>
	<rect x="3138.41" y="2336.46" width="15.86" height="188.50" style="fill:none;stroke:#D7D29E;stroke-width:8.64"/>
	<rect x="3158.59" y="2292.79" width="24.50" height="236.49" style="fill:#CAC27E"/>
	<rect x="3162.91" y="2297.11" width="15.86" height="227.85" style="fill:none;stroke:#D7D29E;stroke-width:8.64"/>
	<rect x="3183.10" y="2410.97" width="24.50" height="118.31" style="fill:#CAC27E"/>
	<rect x="3187.42" y="2415.29" width="15.86" height="109.67" style="fill:none;stroke:#D7D29E;stroke-width:8.64"/>
	<rect x="3207.60" y="2410.97" width="24.50" height="118.31" style="fill:#CAC27E"/>
	<rect x="3211.92" y="2415.29" width="15.86" height="109.67" style="fill:none;stroke:#D7D29E;stroke-width:8.64"/>
	<rect x="3232.10" y="2332.14" width="24.50" height="197.14" style="fill:#CAC27E"/>
	<rect x="3236.42" y="2336.46" width="15.86" height="188.50" style="fill:none;stroke:#D7D29E;stroke-width:8.64"/>
	<rect x="3256.61" y="2332.14" width="24.50" height="197.14" style="fill:#CAC27E"/>
	<rect x="3260.92" y="2336.46" width="15.86" height="188.50" style="fill:none;stroke:#D7D29E;stroke-width:8.64"/>
	<rect x="3281.11" y="2292.79" width="24.50" height="236.49" style="fill:#CAC27E"/>
	<rect x="3285.43" y="2297.11" width="15.86" height="227.85" style="fill:none;stroke:#D7D29E;stroke-width:8.64"/>
	<rect x="3305.61" y="2410.97" width="24.50" height="118.31" style="fill:#CAC27E"/>
	<rect x="3309.93" y="2415.29" width="15.86" height="109.67" style="fill:none;stroke:#D7D29E;stroke-width:8.64"/>
	<rect x="3330.11" y="2489.80" width="24.50" height="39.48" style="fill:#CAC27E"/>
	<rect x="3334.43" y="2494.12" width="15.86" height="30.84" style="fill:none;stroke:#D7D29E;stroke-width:8.64"/>
	<rect x="3354.61" y="2450.45" width="24.50" height="78.83" style="fill:#CAC27E"/>
	<rect x="3358.93" y="2454.77" width="15.86" height="70.19" style="fill:none;stroke:#D7D29E;stroke-width:8.64"/>
	<rect x="3379.12" y="2450.45" width="24.50" height="78.83" style="fill:#CAC27E"/>
	<rect x="3383.44" y="2454.77" width="15.86" height="70.19" style="fill:none;stroke:#D7D29E;stroke-width:8.64"/>
	<rect x="3403.62" y="2450.45" width="24.50" height="78.83" style="fill:#CAC27E"/>
	<rect x="3407.94" y="2454.77" width="15.86" height="70.19" style="fill:none;stroke:#D7D29E;stroke-width:8.64"/>
	<rect x="3428.12" y="2253.31" width="24.50" height="275.97" style="fill:#CAC27E"/>
	<rect x="3432.44" y="2257.63" width="15.86" height="267.33" style="fill:none;stroke:#D7D29E;stroke-width:8.64"/>
	<rect x="3452.63" y="2410.97" width="24.50" height="118.31" style="fill:#CAC27E"/>
	<rect x="3456.94" y="2415.29" width="15.86" height="109.67" style="fill:none;stroke:#D7D29E;stroke-width:8.64"/>
	<rect x="3477.13" y="2371.62" width="24.50" height="157.66" style="fill:#CAC27E"/>
	<rect x="3481.45" y="2375.94" width="15.86" height="149.02" style="fill:none;stroke:#D7D29E;stroke-width:8.64"/>
	<rect x="3501.63" y="2213.96" width="24.50" height="315.32" style="fill:#CAC27E"/>
	<rect x="3505.95" y="2218.28" width="15.86" height="306.69" style="fill:none;stroke:#D7D29E;stroke-width:8.64"/>
	<rect x="3550.64" y="2450.45" width="24.50" height="78.83" style="fill:#CAC27E"/>
	<rect x="3554.95" y="2454.77" width="15.86" height="70.19" style="fill:none;stroke:#D7D29E;stroke-width:8.64"/>
	<rect x="3575.14" y="2410.97" width="24.50" height="118.31" style="fill:#CAC27E"/>
	<rect x="3579.46" y="2415.29" width="15.86" height="109.67" style="fill:none;stroke:#D7D29E;stroke-width:8.64"/>
	<rect x="3624.14" y="2410.97" width="24.50" height="118.31" style="fill:#CAC27E"/>
	<rect x="3628.46" y="2415.29" width="15.86" height="109.67" style="fill:none;stroke:#D7D29E;stroke-width:8.64"/>
	<rect x="3648.64" y="2489.80" width="24.50" height="39.48" style="fill:#CAC27E"/>
	<rect x="3652.96" y="2494.12" width="15.86" height="30.84" style="fill:none;stroke:#D7D29E;stroke-width:8.64"/>
	<rect x="3673.15" y="2410.97" width="24.50" height="118.31" style="fill:#CAC27E"/>
	<rect x="3677.47" y="2415.29" width="15.86" height="109.67" style="fill:none;stroke:#D7D29E;stroke-width:8.64"/>
	<rect x="3697.65" y="2450.45" width="24.50" height="78.83" style="fill:#CAC27E"/>
	<rect x="3701.97" y="2454.77" width="15.86" height="70.19" style="fill:none;stroke:#D7D29E;stroke-width:8.64"/>
	<rect x="3722.15" y="2489.80" width="24.50" height="39.48" style="fill:#CAC27E"/>
	<rect x="3726.47" y="2494.12" width="15.86" height="30.84" style="fill:none;stroke:#D7D29E;stroke-width:8.64"/>
	<rect x="3771.16" y="2332.14" width="24.50" height="197.14" style="fill:#CAC27E"/>
	<rect x="3775.48" y="2336.46" width="15.86" height="188.50" style="fill:none;stroke:#D7D29E;stroke-width:8.64"/>
	<line x1="387.34" y1="2529.28" x2="387.34" y2="100.86" style="stroke:#000000;stroke-width:5.76"/>
	<line x1="387.34" y1="2529.28" x2="347.37" y2="2529.28" style="stroke:#000000;stroke-width:5.76"/>
	<text x="327.44" y="2557.29" style="font-family:'Helvetica';font-size:79.94px;fill:#000000" text-anchor="end">0</text>
	<line x1="387.34" y1="1740.85" x2="347.37" y2="1740.85" style="stroke:#000000;stroke-width:5.76"/>
	<text x="327.44" y="1768.86" style="font-family:'Helvetica';font-size:79.94px;fill:#000000" text-anchor="end">20</text>
	<line x1="387.34" y1="952.53" x2="347.37" y2="952.53" style="stroke:#000000;stroke-width:5.76"/>
	<text x="327.44" y="980.55" style="font-family:'Helvetica';font-size:79.94px;fill:#000000" text-anchor="end">40</text>
	<line x1="387.34" y1="164.22" x2="347.37" y2="164.22" style="stroke:#000000;stroke-width:5.76"/>
	<text x="327.44" y="192.23" style="font-family:'Helvetica';font-size:79.94px;fill:#000000" text-anchor="end">60</text>
	<text x="176.68" y="1315.01" style="font-family:'Helvetica';font-size:79.94px;fill:#000000" transform="rotate(-90 176.68,1315.01)" text-anchor="middle">Number of primary care positives tests</text>
	<line x1="387.34" y1="2529.28" x2="3859.02" y2="2529.28" style="stroke:#000000;stroke-width:5.76"/>
	<line x1="475.20" y1="2529.28" x2="475.20" y2="2569.25" style="stroke:#000000;stroke-width:5.76"/>
	<text x="475.20" y="2645.20" style="font-family:'Helvetica';font-size:79.94px;fill:#000000" text-anchor="middle">01mar2020</text>
	<line x1="1234.90" y1="2529.28" x2="1234.90" y2="2569.25" style="stroke:#000000;stroke-width:5.76"/>
	<text x="1234.90" y="2645.20" style="font-family:'Helvetica';font-size:79.94px;fill:#000000" text-anchor="middle">01apr2020</text>
	<line x1="1970.10" y1="2529.28" x2="1970.10" y2="2569.25" style="stroke:#000000;stroke-width:5.76"/>
	<text x="1970.10" y="2645.20" style="font-family:'Helvetica';font-size:79.94px;fill:#000000" text-anchor="middle">01may2020</text>
	<line x1="2729.80" y1="2529.28" x2="2729.80" y2="2569.25" style="stroke:#000000;stroke-width:5.76"/>
	<text x="2729.80" y="2645.20" style="font-family:'Helvetica';font-size:79.94px;fill:#000000" text-anchor="middle">01jun2020</text>
	<line x1="3464.88" y1="2529.28" x2="3464.88" y2="2569.25" style="stroke:#000000;stroke-width:5.76"/>
	<text x="3464.88" y="2645.20" style="font-family:'Helvetica';font-size:79.94px;fill:#000000" text-anchor="middle">01jul2020</text>
	<text x="2123.18" y="2735.17" style="font-family:'Helvetica';font-size:79.94px;fill:#000000" text-anchor="middle">Date</text>
</svg>
