<?xml version="1.0" encoding="UTF-8" standalone="no"?>
<!-- This is a Stata 16.1 generated SVG file (http://www.stata.com) -->

<svg version="1.1" width="5.50in" height="4.00in" viewBox="0 0 3960 2880" xmlns="http://www.w3.org/2000/svg" xmlns:xlink="http://www.w3.org/1999/xlink">
	<desc>Stata Graph - Graph</desc>
	<rect x="0" y="0" width="3960" height="2880" style="fill:#EAF2F3;stroke:none"/>
	<rect x="0.00" y="0.00" width="3959.88" height="2880.00" style="fill:#EAF2F3"/>
	<rect x="2.88" y="2.88" width="3954.12" height="2874.24" style="fill:none;stroke:#EAF2F3;stroke-width:5.76"/>
	<rect x="387.34" y="100.86" width="3471.68" height="2428.42" style="fill:#FFFFFF"/>
	<rect x="390.22" y="103.74" width="3465.92" height="2422.66" style="fill:none;stroke:#FFFFFF;stroke-width:5.76"/>
	<line x1="387.34" y1="2529.28" x2="3859.02" y2="2529.28" style="stroke:#EAF2F3;stroke-width:5.76"/>
	<line x1="387.34" y1="1740.85" x2="3859.02" y2="1740.85" style="stroke:#EAF2F3;stroke-width:5.76"/>
	<line x1="387.34" y1="952.53" x2="3859.02" y2="952.53" style="stroke:#EAF2F3;stroke-width:5.76"/>
	<line x1="387.34" y1="164.22" x2="3859.02" y2="164.22" style="stroke:#EAF2F3;stroke-width:5.76"/>
	<line x1="461.59" y1="2529.28" x2="461.59" y2="100.86" style="stroke:#EAF2F3;stroke-width:5.76"/>
	<line x1="1137.14" y1="2529.28" x2="1137.14" y2="100.86" style="stroke:#EAF2F3;stroke-width:5.76"/>
	<line x1="1790.91" y1="2529.28" x2="1790.91" y2="100.86" style="stroke:#EAF2F3;stroke-width:5.76"/>
	<line x1="2466.46" y1="2529.28" x2="2466.46" y2="100.86" style="stroke:#EAF2F3;stroke-width:5.76"/>
	<line x1="3120.23" y1="2529.28" x2="3120.23" y2="100.86" style="stroke:#EAF2F3;stroke-width:5.76"/>
	<rect x="461.59" y="2332.14" width="21.90" height="197.14" style="fill:#CAC27E"/>
	<rect x="465.91" y="2336.46" width="13.26" height="188.50" style="fill:none;stroke:#D7D29E;stroke-width:8.64"/>
	<rect x="635.95" y="2489.80" width="21.78" height="39.48" style="fill:#CAC27E"/>
	<rect x="640.27" y="2494.12" width="13.14" height="30.84" style="fill:none;stroke:#D7D29E;stroke-width:8.64"/>
	<rect x="679.51" y="2489.80" width="21.78" height="39.48" style="fill:#CAC27E"/>
	<rect x="683.83" y="2494.12" width="13.14" height="30.84" style="fill:none;stroke:#D7D29E;stroke-width:8.64"/>
	<rect x="723.20" y="2450.45" width="21.78" height="78.83" style="fill:#CAC27E"/>
	<rect x="727.51" y="2454.77" width="13.14" height="70.19" style="fill:none;stroke:#D7D29E;stroke-width:8.64"/>
	<rect x="788.53" y="2371.62" width="21.78" height="157.66" style="fill:#CAC27E"/>
	<rect x="792.85" y="2375.94" width="13.14" height="149.02" style="fill:none;stroke:#D7D29E;stroke-width:8.64"/>
	<rect x="810.32" y="2371.62" width="21.78" height="157.66" style="fill:#CAC27E"/>
	<rect x="814.63" y="2375.94" width="13.14" height="149.02" style="fill:none;stroke:#D7D29E;stroke-width:8.64"/>
	<rect x="832.10" y="2450.45" width="21.78" height="78.83" style="fill:#CAC27E"/>
	<rect x="836.41" y="2454.77" width="13.14" height="70.19" style="fill:none;stroke:#D7D29E;stroke-width:8.64"/>
	<rect x="853.88" y="2332.14" width="21.78" height="197.14" style="fill:#CAC27E"/>
	<rect x="858.19" y="2336.46" width="13.14" height="188.50" style="fill:none;stroke:#D7D29E;stroke-width:8.64"/>
	<rect x="875.65" y="2332.14" width="21.78" height="197.14" style="fill:#CAC27E"/>
	<rect x="879.97" y="2336.46" width="13.14" height="188.50" style="fill:none;stroke:#D7D29E;stroke-width:8.64"/>
	<rect x="897.43" y="2450.45" width="21.78" height="78.83" style="fill:#CAC27E"/>
	<rect x="901.75" y="2454.77" width="13.14" height="70.19" style="fill:none;stroke:#D7D29E;stroke-width:8.64"/>
	<rect x="919.22" y="2371.62" width="21.78" height="157.66" style="fill:#CAC27E"/>
	<rect x="923.53" y="2375.94" width="13.14" height="149.02" style="fill:none;stroke:#D7D29E;stroke-width:8.64"/>
	<rect x="941.00" y="2213.96" width="21.90" height="315.32" style="fill:#CAC27E"/>
	<rect x="945.31" y="2218.28" width="13.26" height="306.69" style="fill:none;stroke:#D7D29E;stroke-width:8.64"/>
	<rect x="962.90" y="2135.13" width="21.78" height="394.16" style="fill:#CAC27E"/>
	<rect x="967.22" y="2139.45" width="13.14" height="385.52" style="fill:none;stroke:#D7D29E;stroke-width:8.64"/>
	<rect x="984.68" y="2135.13" width="21.78" height="394.16" style="fill:#CAC27E"/>
	<rect x="989.00" y="2139.45" width="13.14" height="385.52" style="fill:none;stroke:#D7D29E;stroke-width:8.64"/>
	<rect x="1006.46" y="2135.13" width="21.78" height="394.16" style="fill:#CAC27E"/>
	<rect x="1010.78" y="2139.45" width="13.14" height="385.52" style="fill:none;stroke:#D7D29E;stroke-width:8.64"/>
	<rect x="1028.24" y="2253.31" width="21.78" height="275.97" style="fill:#CAC27E"/>
	<rect x="1032.56" y="2257.63" width="13.14" height="267.33" style="fill:none;stroke:#D7D29E;stroke-width:8.64"/>
	<rect x="1050.02" y="2292.79" width="21.78" height="236.49" style="fill:#CAC27E"/>
	<rect x="1054.34" y="2297.11" width="13.14" height="227.85" style="fill:none;stroke:#D7D29E;stroke-width:8.64"/>
	<rect x="1071.80" y="2174.48" width="21.78" height="354.80" style="fill:#CAC27E"/>
	<rect x="1076.12" y="2178.80" width="13.14" height="346.16" style="fill:none;stroke:#D7D29E;stroke-width:8.64"/>
	<rect x="1093.58" y="1780.32" width="21.78" height="748.96" style="fill:#CAC27E"/>
	<rect x="1097.90" y="1784.64" width="13.14" height="740.32" style="fill:none;stroke:#D7D29E;stroke-width:8.64"/>
	<rect x="1115.36" y="1780.32" width="21.78" height="748.96" style="fill:#CAC27E"/>
	<rect x="1119.68" y="1784.64" width="13.14" height="740.32" style="fill:none;stroke:#D7D29E;stroke-width:8.64"/>
	<rect x="1137.14" y="1228.50" width="21.78" height="1300.78" style="fill:#CAC27E"/>
	<rect x="1141.46" y="1232.82" width="13.14" height="1292.14" style="fill:none;stroke:#D7D29E;stroke-width:8.64"/>
	<rect x="1158.92" y="1622.66" width="21.90" height="906.62" style="fill:#CAC27E"/>
	<rect x="1163.24" y="1626.98" width="13.26" height="897.98" style="fill:none;stroke:#D7D29E;stroke-width:8.64"/>
	<rect x="1180.82" y="1267.86" width="21.78" height="1261.42" style="fill:#CAC27E"/>
	<rect x="1185.14" y="1272.18" width="13.14" height="1252.78" style="fill:none;stroke:#D7D29E;stroke-width:8.64"/>
	<rect x="1202.60" y="2253.31" width="21.78" height="275.97" style="fill:#CAC27E"/>
	<rect x="1206.92" y="2257.63" width="13.14" height="267.33" style="fill:none;stroke:#D7D29E;stroke-width:8.64"/>
	<rect x="1224.38" y="2174.48" width="21.78" height="354.80" style="fill:#CAC27E"/>
	<rect x="1228.70" y="2178.80" width="13.14" height="346.16" style="fill:none;stroke:#D7D29E;stroke-width:8.64"/>
	<rect x="1246.16" y="1465.00" width="21.78" height="1064.28" style="fill:#CAC27E"/>
	<rect x="1250.48" y="1469.32" width="13.14" height="1055.64" style="fill:none;stroke:#D7D29E;stroke-width:8.64"/>
	<rect x="1267.94" y="2016.82" width="21.78" height="512.46" style="fill:#CAC27E"/>
	<rect x="1272.26" y="2021.14" width="13.14" height="503.83" style="fill:none;stroke:#D7D29E;stroke-width:8.64"/>
	<rect x="1289.72" y="1701.49" width="21.78" height="827.79" style="fill:#CAC27E"/>
	<rect x="1294.04" y="1705.81" width="13.14" height="819.15" style="fill:none;stroke:#D7D29E;stroke-width:8.64"/>
	<rect x="1311.50" y="1780.32" width="21.78" height="748.96" style="fill:#CAC27E"/>
	<rect x="1315.82" y="1784.64" width="13.14" height="740.32" style="fill:none;stroke:#D7D29E;stroke-width:8.64"/>
	<rect x="1333.28" y="1977.34" width="21.78" height="551.94" style="fill:#CAC27E"/>
	<rect x="1337.60" y="1981.66" width="13.14" height="543.30" style="fill:none;stroke:#D7D29E;stroke-width:8.64"/>
	<rect x="1355.06" y="2253.31" width="21.78" height="275.97" style="fill:#CAC27E"/>
	<rect x="1359.38" y="2257.63" width="13.14" height="267.33" style="fill:none;stroke:#D7D29E;stroke-width:8.64"/>
	<rect x="1376.84" y="2174.48" width="21.78" height="354.80" style="fill:#CAC27E"/>
	<rect x="1381.16" y="2178.80" width="13.14" height="346.16" style="fill:none;stroke:#D7D29E;stroke-width:8.64"/>
	<rect x="1398.62" y="1937.99" width="21.90" height="591.30" style="fill:#CAC27E"/>
	<rect x="1402.94" y="1942.31" width="13.26" height="582.66" style="fill:none;stroke:#D7D29E;stroke-width:8.64"/>
	<rect x="1420.53" y="321.88" width="21.78" height="2207.40" style="fill:#CAC27E"/>
	<rect x="1424.85" y="326.20" width="13.14" height="2198.76" style="fill:none;stroke:#D7D29E;stroke-width:8.64"/>
	<rect x="1442.31" y="1189.03" width="21.78" height="1340.25" style="fill:#CAC27E"/>
	<rect x="1446.63" y="1193.35" width="13.14" height="1331.61" style="fill:none;stroke:#D7D29E;stroke-width:8.64"/>
	<rect x="1464.09" y="1859.15" width="21.78" height="670.13" style="fill:#CAC27E"/>
	<rect x="1468.41" y="1863.47" width="13.14" height="661.49" style="fill:none;stroke:#D7D29E;stroke-width:8.64"/>
	<rect x="1485.87" y="282.41" width="21.78" height="2246.88" style="fill:#CAC27E"/>
	<rect x="1490.19" y="286.73" width="13.14" height="2238.24" style="fill:none;stroke:#D7D29E;stroke-width:8.64"/>
	<rect x="1507.65" y="2292.79" width="21.78" height="236.49" style="fill:#CAC27E"/>
	<rect x="1511.97" y="2297.11" width="13.14" height="227.85" style="fill:none;stroke:#D7D29E;stroke-width:8.64"/>
	<rect x="1529.43" y="2174.48" width="21.78" height="354.80" style="fill:#CAC27E"/>
	<rect x="1533.75" y="2178.80" width="13.14" height="346.16" style="fill:none;stroke:#D7D29E;stroke-width:8.64"/>
	<rect x="1551.21" y="913.06" width="21.78" height="1616.23" style="fill:#CAC27E"/>
	<rect x="1555.53" y="917.38" width="13.14" height="1607.59" style="fill:none;stroke:#D7D29E;stroke-width:8.64"/>
	<rect x="1572.99" y="1662.01" width="21.78" height="867.27" style="fill:#CAC27E"/>
	<rect x="1577.31" y="1666.33" width="13.14" height="858.63" style="fill:none;stroke:#D7D29E;stroke-width:8.64"/>
	<rect x="1594.77" y="2174.48" width="21.78" height="354.80" style="fill:#CAC27E"/>
	<rect x="1599.09" y="2178.80" width="13.14" height="346.16" style="fill:none;stroke:#D7D29E;stroke-width:8.64"/>
	<rect x="1616.55" y="1662.01" width="21.78" height="867.27" style="fill:#CAC27E"/>
	<rect x="1620.87" y="1666.33" width="13.14" height="858.63" style="fill:none;stroke:#D7D29E;stroke-width:8.64"/>
	<rect x="1638.33" y="2016.82" width="21.90" height="512.46" style="fill:#CAC27E"/>
	<rect x="1642.65" y="2021.14" width="13.26" height="503.83" style="fill:none;stroke:#D7D29E;stroke-width:8.64"/>
	<rect x="1660.23" y="2174.48" width="21.78" height="354.80" style="fill:#CAC27E"/>
	<rect x="1664.55" y="2178.80" width="13.14" height="346.16" style="fill:none;stroke:#D7D29E;stroke-width:8.64"/>
	<rect x="1682.01" y="2332.14" width="21.78" height="197.14" style="fill:#CAC27E"/>
	<rect x="1686.33" y="2336.46" width="13.14" height="188.50" style="fill:none;stroke:#D7D29E;stroke-width:8.64"/>
	<rect x="1703.79" y="1031.36" width="21.78" height="1497.92" style="fill:#CAC27E"/>
	<rect x="1708.11" y="1035.68" width="13.14" height="1489.28" style="fill:none;stroke:#D7D29E;stroke-width:8.64"/>
	<rect x="1725.57" y="479.55" width="21.78" height="2049.74" style="fill:#CAC27E"/>
	<rect x="1729.89" y="483.87" width="13.14" height="2041.10" style="fill:none;stroke:#D7D29E;stroke-width:8.64"/>
	<rect x="1747.35" y="1780.32" width="21.78" height="748.96" style="fill:#CAC27E"/>
	<rect x="1751.67" y="1784.64" width="13.14" height="740.32" style="fill:none;stroke:#D7D29E;stroke-width:8.64"/>
	<rect x="1769.13" y="1425.52" width="21.78" height="1103.76" style="fill:#CAC27E"/>
	<rect x="1773.45" y="1429.84" width="13.14" height="1095.12" style="fill:none;stroke:#D7D29E;stroke-width:8.64"/>
	<rect x="1790.91" y="1622.66" width="21.78" height="906.62" style="fill:#CAC27E"/>
	<rect x="1795.23" y="1626.98" width="13.14" height="897.98" style="fill:none;stroke:#D7D29E;stroke-width:8.64"/>
	<rect x="1812.69" y="2292.79" width="21.78" height="236.49" style="fill:#CAC27E"/>
	<rect x="1817.01" y="2297.11" width="13.14" height="227.85" style="fill:none;stroke:#D7D29E;stroke-width:8.64"/>
	<rect x="1834.47" y="2410.97" width="21.78" height="118.31" style="fill:#CAC27E"/>
	<rect x="1838.79" y="2415.29" width="13.14" height="109.67" style="fill:none;stroke:#D7D29E;stroke-width:8.64"/>
	<rect x="1856.25" y="1819.68" width="21.78" height="709.60" style="fill:#CAC27E"/>
	<rect x="1860.57" y="1824.00" width="13.14" height="700.96" style="fill:none;stroke:#D7D29E;stroke-width:8.64"/>
	<rect x="1878.03" y="1543.83" width="21.90" height="985.45" style="fill:#CAC27E"/>
	<rect x="1882.35" y="1548.15" width="13.26" height="976.81" style="fill:none;stroke:#D7D29E;stroke-width:8.64"/>
	<rect x="1899.93" y="1898.51" width="21.78" height="630.77" style="fill:#CAC27E"/>
	<rect x="1904.25" y="1902.83" width="13.14" height="622.13" style="fill:none;stroke:#D7D29E;stroke-width:8.64"/>
	<rect x="1921.71" y="1701.49" width="21.78" height="827.79" style="fill:#CAC27E"/>
	<rect x="1926.03" y="1705.81" width="13.14" height="819.15" style="fill:none;stroke:#D7D29E;stroke-width:8.64"/>
	<rect x="1943.49" y="2056.29" width="21.78" height="472.99" style="fill:#CAC27E"/>
	<rect x="1947.81" y="2060.61" width="13.14" height="464.35" style="fill:none;stroke:#D7D29E;stroke-width:8.64"/>
	<rect x="1965.27" y="2332.14" width="21.78" height="197.14" style="fill:#CAC27E"/>
	<rect x="1969.59" y="2336.46" width="13.14" height="188.50" style="fill:none;stroke:#D7D29E;stroke-width:8.64"/>
	<rect x="1987.05" y="2371.62" width="21.78" height="157.66" style="fill:#CAC27E"/>
	<rect x="1991.37" y="2375.94" width="13.14" height="149.02" style="fill:none;stroke:#D7D29E;stroke-width:8.64"/>
	<rect x="2008.83" y="1780.32" width="21.78" height="748.96" style="fill:#CAC27E"/>
	<rect x="2013.15" y="1784.64" width="13.14" height="740.32" style="fill:none;stroke:#D7D29E;stroke-width:8.64"/>
	<rect x="2030.61" y="1859.15" width="21.78" height="670.13" style="fill:#CAC27E"/>
	<rect x="2034.93" y="1863.47" width="13.14" height="661.49" style="fill:none;stroke:#D7D29E;stroke-width:8.64"/>
	<rect x="2052.39" y="2056.29" width="21.78" height="472.99" style="fill:#CAC27E"/>
	<rect x="2056.71" y="2060.61" width="13.14" height="464.35" style="fill:none;stroke:#D7D29E;stroke-width:8.64"/>
	<rect x="2074.17" y="1583.18" width="21.78" height="946.10" style="fill:#CAC27E"/>
	<rect x="2078.49" y="1587.50" width="13.14" height="937.46" style="fill:none;stroke:#D7D29E;stroke-width:8.64"/>
	<rect x="2095.95" y="2135.13" width="21.78" height="394.16" style="fill:#CAC27E"/>
	<rect x="2100.27" y="2139.45" width="13.14" height="385.52" style="fill:none;stroke:#D7D29E;stroke-width:8.64"/>
	<rect x="2117.73" y="2410.97" width="21.90" height="118.31" style="fill:#CAC27E"/>
	<rect x="2122.05" y="2415.29" width="13.26" height="109.67" style="fill:none;stroke:#D7D29E;stroke-width:8.64"/>
	<rect x="2139.64" y="2332.14" width="21.78" height="197.14" style="fill:#CAC27E"/>
	<rect x="2143.96" y="2336.46" width="13.14" height="188.50" style="fill:none;stroke:#D7D29E;stroke-width:8.64"/>
	<rect x="2161.42" y="1386.17" width="21.78" height="1143.11" style="fill:#CAC27E"/>
	<rect x="2165.74" y="1390.49" width="13.14" height="1134.47" style="fill:none;stroke:#D7D29E;stroke-width:8.64"/>
	<rect x="2183.20" y="1622.66" width="21.78" height="906.62" style="fill:#CAC27E"/>
	<rect x="2187.52" y="1626.98" width="13.14" height="897.98" style="fill:none;stroke:#D7D29E;stroke-width:8.64"/>
	<rect x="2204.98" y="1859.15" width="21.78" height="670.13" style="fill:#CAC27E"/>
	<rect x="2209.30" y="1863.47" width="13.14" height="661.49" style="fill:none;stroke:#D7D29E;stroke-width:8.64"/>
	<rect x="2226.76" y="2095.65" width="21.78" height="433.63" style="fill:#CAC27E"/>
	<rect x="2231.08" y="2099.97" width="13.14" height="424.99" style="fill:none;stroke:#D7D29E;stroke-width:8.64"/>
	<rect x="2248.54" y="2174.48" width="21.78" height="354.80" style="fill:#CAC27E"/>
	<rect x="2252.86" y="2178.80" width="13.14" height="346.16" style="fill:none;stroke:#D7D29E;stroke-width:8.64"/>
	<rect x="2270.32" y="2450.45" width="21.78" height="78.83" style="fill:#CAC27E"/>
	<rect x="2274.64" y="2454.77" width="13.14" height="70.19" style="fill:none;stroke:#D7D29E;stroke-width:8.64"/>
	<rect x="2292.10" y="2450.45" width="21.78" height="78.83" style="fill:#CAC27E"/>
	<rect x="2296.42" y="2454.77" width="13.14" height="70.19" style="fill:none;stroke:#D7D29E;stroke-width:8.64"/>
	<rect x="2313.88" y="2489.80" width="21.78" height="39.48" style="fill:#CAC27E"/>
	<rect x="2318.20" y="2494.12" width="13.14" height="30.84" style="fill:none;stroke:#D7D29E;stroke-width:8.64"/>
	<rect x="2335.66" y="1898.51" width="21.78" height="630.77" style="fill:#CAC27E"/>
	<rect x="2339.98" y="1902.83" width="13.14" height="622.13" style="fill:none;stroke:#D7D29E;stroke-width:8.64"/>
	<rect x="2357.44" y="2332.14" width="21.90" height="197.14" style="fill:#CAC27E"/>
	<rect x="2361.76" y="2336.46" width="13.26" height="188.50" style="fill:none;stroke:#D7D29E;stroke-width:8.64"/>
	<rect x="2379.34" y="2332.14" width="21.78" height="197.14" style="fill:#CAC27E"/>
	<rect x="2383.66" y="2336.46" width="13.14" height="188.50" style="fill:none;stroke:#D7D29E;stroke-width:8.64"/>
	<rect x="2401.12" y="2135.13" width="21.78" height="394.16" style="fill:#CAC27E"/>
	<rect x="2405.44" y="2139.45" width="13.14" height="385.52" style="fill:none;stroke:#D7D29E;stroke-width:8.64"/>
	<rect x="2422.90" y="2371.62" width="21.78" height="157.66" style="fill:#CAC27E"/>
	<rect x="2427.22" y="2375.94" width="13.14" height="149.02" style="fill:none;stroke:#D7D29E;stroke-width:8.64"/>
	<rect x="2444.68" y="2292.79" width="21.78" height="236.49" style="fill:#CAC27E"/>
	<rect x="2449.00" y="2297.11" width="13.14" height="227.85" style="fill:none;stroke:#D7D29E;stroke-width:8.64"/>
	<rect x="2466.46" y="2292.79" width="21.78" height="236.49" style="fill:#CAC27E"/>
	<rect x="2470.78" y="2297.11" width="13.14" height="227.85" style="fill:none;stroke:#D7D29E;stroke-width:8.64"/>
	<rect x="2488.24" y="2135.13" width="21.78" height="394.16" style="fill:#CAC27E"/>
	<rect x="2492.56" y="2139.45" width="13.14" height="385.52" style="fill:none;stroke:#D7D29E;stroke-width:8.64"/>
	<rect x="2510.02" y="2213.96" width="21.78" height="315.32" style="fill:#CAC27E"/>
	<rect x="2514.34" y="2218.28" width="13.14" height="306.69" style="fill:none;stroke:#D7D29E;stroke-width:8.64"/>
	<rect x="2531.80" y="2095.65" width="21.78" height="433.63" style="fill:#CAC27E"/>
	<rect x="2536.12" y="2099.97" width="13.14" height="424.99" style="fill:none;stroke:#D7D29E;stroke-width:8.64"/>
	<rect x="2553.58" y="2410.97" width="21.78" height="118.31" style="fill:#CAC27E"/>
	<rect x="2557.90" y="2415.29" width="13.14" height="109.67" style="fill:none;stroke:#D7D29E;stroke-width:8.64"/>
	<rect x="2575.36" y="2332.14" width="21.78" height="197.14" style="fill:#CAC27E"/>
	<rect x="2579.68" y="2336.46" width="13.14" height="188.50" style="fill:none;stroke:#D7D29E;stroke-width:8.64"/>
	<rect x="2597.14" y="2371.62" width="21.90" height="157.66" style="fill:#CAC27E"/>
	<rect x="2601.46" y="2375.94" width="13.26" height="149.02" style="fill:none;stroke:#D7D29E;stroke-width:8.64"/>
	<rect x="2619.05" y="2292.79" width="21.78" height="236.49" style="fill:#CAC27E"/>
	<rect x="2623.36" y="2297.11" width="13.14" height="227.85" style="fill:none;stroke:#D7D29E;stroke-width:8.64"/>
	<rect x="2640.82" y="2174.48" width="21.78" height="354.80" style="fill:#CAC27E"/>
	<rect x="2645.14" y="2178.80" width="13.14" height="346.16" style="fill:none;stroke:#D7D29E;stroke-width:8.64"/>
	<rect x="2662.61" y="2016.82" width="21.78" height="512.46" style="fill:#CAC27E"/>
	<rect x="2666.92" y="2021.14" width="13.14" height="503.83" style="fill:none;stroke:#D7D29E;stroke-width:8.64"/>
	<rect x="2684.39" y="2174.48" width="21.78" height="354.80" style="fill:#CAC27E"/>
	<rect x="2688.70" y="2178.80" width="13.14" height="346.16" style="fill:none;stroke:#D7D29E;stroke-width:8.64"/>
	<rect x="2706.16" y="2332.14" width="21.78" height="197.14" style="fill:#CAC27E"/>
	<rect x="2710.48" y="2336.46" width="13.14" height="188.50" style="fill:none;stroke:#D7D29E;stroke-width:8.64"/>
	<rect x="2727.95" y="2371.62" width="21.78" height="157.66" style="fill:#CAC27E"/>
	<rect x="2732.26" y="2375.94" width="13.14" height="149.02" style="fill:none;stroke:#D7D29E;stroke-width:8.64"/>
	<rect x="2749.72" y="2332.14" width="21.78" height="197.14" style="fill:#CAC27E"/>
	<rect x="2754.04" y="2336.46" width="13.14" height="188.50" style="fill:none;stroke:#D7D29E;stroke-width:8.64"/>
	<rect x="2771.51" y="2253.31" width="21.78" height="275.97" style="fill:#CAC27E"/>
	<rect x="2775.82" y="2257.63" width="13.14" height="267.33" style="fill:none;stroke:#D7D29E;stroke-width:8.64"/>
	<rect x="2793.28" y="2332.14" width="21.78" height="197.14" style="fill:#CAC27E"/>
	<rect x="2797.60" y="2336.46" width="13.14" height="188.50" style="fill:none;stroke:#D7D29E;stroke-width:8.64"/>
	<rect x="2815.07" y="2450.45" width="21.78" height="78.83" style="fill:#CAC27E"/>
	<rect x="2819.38" y="2454.77" width="13.14" height="70.19" style="fill:none;stroke:#D7D29E;stroke-width:8.64"/>
	<rect x="2836.84" y="2292.79" width="21.90" height="236.49" style="fill:#CAC27E"/>
	<rect x="2841.16" y="2297.11" width="13.26" height="227.85" style="fill:none;stroke:#D7D29E;stroke-width:8.64"/>
	<rect x="2858.75" y="2253.31" width="21.78" height="275.97" style="fill:#CAC27E"/>
	<rect x="2863.07" y="2257.63" width="13.14" height="267.33" style="fill:none;stroke:#D7D29E;stroke-width:8.64"/>
	<rect x="2880.53" y="2410.97" width="21.78" height="118.31" style="fill:#CAC27E"/>
	<rect x="2884.85" y="2415.29" width="13.14" height="109.67" style="fill:none;stroke:#D7D29E;stroke-width:8.64"/>
	<rect x="2902.31" y="2410.97" width="21.78" height="118.31" style="fill:#CAC27E"/>
	<rect x="2906.63" y="2415.29" width="13.14" height="109.67" style="fill:none;stroke:#D7D29E;stroke-width:8.64"/>
	<rect x="2924.09" y="2292.79" width="21.78" height="236.49" style="fill:#CAC27E"/>
	<rect x="2928.41" y="2297.11" width="13.14" height="227.85" style="fill:none;stroke:#D7D29E;stroke-width:8.64"/>
	<rect x="2945.87" y="2332.14" width="21.78" height="197.14" style="fill:#CAC27E"/>
	<rect x="2950.19" y="2336.46" width="13.14" height="188.50" style="fill:none;stroke:#D7D29E;stroke-width:8.64"/>
	<rect x="2967.65" y="2332.14" width="21.78" height="197.14" style="fill:#CAC27E"/>
	<rect x="2971.97" y="2336.46" width="13.14" height="188.50" style="fill:none;stroke:#D7D29E;stroke-width:8.64"/>
	<rect x="2989.43" y="2410.97" width="21.78" height="118.31" style="fill:#CAC27E"/>
	<rect x="2993.75" y="2415.29" width="13.14" height="109.67" style="fill:none;stroke:#D7D29E;stroke-width:8.64"/>
	<rect x="3011.21" y="2489.80" width="21.78" height="39.48" style="fill:#CAC27E"/>
	<rect x="3015.53" y="2494.12" width="13.14" height="30.84" style="fill:none;stroke:#D7D29E;stroke-width:8.64"/>
	<rect x="3032.99" y="2450.45" width="21.78" height="78.83" style="fill:#CAC27E"/>
	<rect x="3037.31" y="2454.77" width="13.14" height="70.19" style="fill:none;stroke:#D7D29E;stroke-width:8.64"/>
	<rect x="3054.77" y="2450.45" width="21.78" height="78.83" style="fill:#CAC27E"/>
	<rect x="3059.09" y="2454.77" width="13.14" height="70.19" style="fill:none;stroke:#D7D29E;stroke-width:8.64"/>
	<rect x="3076.55" y="2450.45" width="21.90" height="78.83" style="fill:#CAC27E"/>
	<rect x="3080.87" y="2454.77" width="13.26" height="70.19" style="fill:none;stroke:#D7D29E;stroke-width:8.64"/>
	<rect x="3098.45" y="2292.79" width="21.78" height="236.49" style="fill:#CAC27E"/>
	<rect x="3102.77" y="2297.11" width="13.14" height="227.85" style="fill:none;stroke:#D7D29E;stroke-width:8.64"/>
	<rect x="3120.23" y="2410.97" width="21.78" height="118.31" style="fill:#CAC27E"/>
	<rect x="3124.55" y="2415.29" width="13.14" height="109.67" style="fill:none;stroke:#D7D29E;stroke-width:8.64"/>
	<rect x="3142.01" y="2371.62" width="21.78" height="157.66" style="fill:#CAC27E"/>
	<rect x="3146.33" y="2375.94" width="13.14" height="149.02" style="fill:none;stroke:#D7D29E;stroke-width:8.64"/>
	<rect x="3163.79" y="2253.31" width="21.78" height="275.97" style="fill:#CAC27E"/>
	<rect x="3168.11" y="2257.63" width="13.14" height="267.33" style="fill:none;stroke:#D7D29E;stroke-width:8.64"/>
	<rect x="3207.35" y="2450.45" width="21.78" height="78.83" style="fill:#CAC27E"/>
	<rect x="3211.67" y="2454.77" width="13.14" height="70.19" style="fill:none;stroke:#D7D29E;stroke-width:8.64"/>
	<rect x="3229.13" y="2410.97" width="21.78" height="118.31" style="fill:#CAC27E"/>
	<rect x="3233.45" y="2415.29" width="13.14" height="109.67" style="fill:none;stroke:#D7D29E;stroke-width:8.64"/>
	<rect x="3272.69" y="2371.62" width="21.78" height="157.66" style="fill:#CAC27E"/>
	<rect x="3277.01" y="2375.94" width="13.14" height="149.02" style="fill:none;stroke:#D7D29E;stroke-width:8.64"/>
	<rect x="3294.47" y="2489.80" width="21.78" height="39.48" style="fill:#CAC27E"/>
	<rect x="3298.79" y="2494.12" width="13.14" height="30.84" style="fill:none;stroke:#D7D29E;stroke-width:8.64"/>
	<rect x="3316.25" y="2410.97" width="21.90" height="118.31" style="fill:#CAC27E"/>
	<rect x="3320.57" y="2415.29" width="13.26" height="109.67" style="fill:none;stroke:#D7D29E;stroke-width:8.64"/>
	<rect x="3338.16" y="2450.45" width="21.78" height="78.83" style="fill:#CAC27E"/>
	<rect x="3342.48" y="2454.77" width="13.14" height="70.19" style="fill:none;stroke:#D7D29E;stroke-width:8.64"/>
	<rect x="3359.94" y="2489.80" width="21.78" height="39.48" style="fill:#CAC27E"/>
	<rect x="3364.26" y="2494.12" width="13.14" height="30.84" style="fill:none;stroke:#D7D29E;stroke-width:8.64"/>
	<rect x="3403.50" y="2292.79" width="21.78" height="236.49" style="fill:#CAC27E"/>
	<rect x="3407.82" y="2297.11" width="13.14" height="227.85" style="fill:none;stroke:#D7D29E;stroke-width:8.64"/>
	<rect x="3425.28" y="2489.80" width="21.78" height="39.48" style="fill:#CAC27E"/>
	<rect x="3429.60" y="2494.12" width="13.14" height="30.84" style="fill:none;stroke:#D7D29E;stroke-width:8.64"/>
	<rect x="3447.06" y="2450.45" width="21.78" height="78.83" style="fill:#CAC27E"/>
	<rect x="3451.38" y="2454.77" width="13.14" height="70.19" style="fill:none;stroke:#D7D29E;stroke-width:8.64"/>
	<rect x="3468.84" y="2410.97" width="21.78" height="118.31" style="fill:#CAC27E"/>
	<rect x="3473.16" y="2415.29" width="13.14" height="109.67" style="fill:none;stroke:#D7D29E;stroke-width:8.64"/>
	<rect x="3490.62" y="2489.80" width="21.78" height="39.48" style="fill:#CAC27E"/>
	<rect x="3494.94" y="2494.12" width="13.14" height="30.84" style="fill:none;stroke:#D7D29E;stroke-width:8.64"/>
	<rect x="3512.40" y="2450.45" width="21.78" height="78.83" style="fill:#CAC27E"/>
	<rect x="3516.72" y="2454.77" width="13.14" height="70.19" style="fill:none;stroke:#D7D29E;stroke-width:8.64"/>
	<rect x="3534.18" y="2450.45" width="21.78" height="78.83" style="fill:#CAC27E"/>
	<rect x="3538.50" y="2454.77" width="13.14" height="70.19" style="fill:none;stroke:#D7D29E;stroke-width:8.64"/>
	<rect x="3555.96" y="2450.45" width="21.90" height="78.83" style="fill:#CAC27E"/>
	<rect x="3560.28" y="2454.77" width="13.26" height="70.19" style="fill:none;stroke:#D7D29E;stroke-width:8.64"/>
	<rect x="3577.86" y="2489.80" width="21.78" height="39.48" style="fill:#CAC27E"/>
	<rect x="3582.18" y="2494.12" width="13.14" height="30.84" style="fill:none;stroke:#D7D29E;stroke-width:8.64"/>
	<rect x="3599.64" y="2410.97" width="21.78" height="118.31" style="fill:#CAC27E"/>
	<rect x="3603.96" y="2415.29" width="13.14" height="109.67" style="fill:none;stroke:#D7D29E;stroke-width:8.64"/>
	<rect x="3621.42" y="2410.97" width="21.78" height="118.31" style="fill:#CAC27E"/>
	<rect x="3625.74" y="2415.29" width="13.14" height="109.67" style="fill:none;stroke:#D7D29E;stroke-width:8.64"/>
	<rect x="3643.20" y="2450.45" width="21.78" height="78.83" style="fill:#CAC27E"/>
	<rect x="3647.52" y="2454.77" width="13.14" height="70.19" style="fill:none;stroke:#D7D29E;stroke-width:8.64"/>
	<rect x="3686.76" y="2450.45" width="21.78" height="78.83" style="fill:#CAC27E"/>
	<rect x="3691.08" y="2454.77" width="13.14" height="70.19" style="fill:none;stroke:#D7D29E;stroke-width:8.64"/>
	<rect x="3708.54" y="2410.97" width="21.78" height="118.31" style="fill:#CAC27E"/>
	<rect x="3712.86" y="2415.29" width="13.14" height="109.67" style="fill:none;stroke:#D7D29E;stroke-width:8.64"/>
	<line x1="387.34" y1="2529.28" x2="387.34" y2="100.86" style="stroke:#000000;stroke-width:5.76"/>
	<line x1="387.34" y1="2529.28" x2="347.37" y2="2529.28" style="stroke:#000000;stroke-width:5.76"/>
	<text x="327.44" y="2557.29" style="font-family:'Helvetica';font-size:79.94px;fill:#000000" text-anchor="end">0</text>
	<line x1="387.34" y1="1740.85" x2="347.37" y2="1740.85" style="stroke:#000000;stroke-width:5.76"/>
	<text x="327.44" y="1768.86" style="font-family:'Helvetica';font-size:79.94px;fill:#000000" text-anchor="end">20</text>
	<line x1="387.34" y1="952.53" x2="347.37" y2="952.53" style="stroke:#000000;stroke-width:5.76"/>
	<text x="327.44" y="980.55" style="font-family:'Helvetica';font-size:79.94px;fill:#000000" text-anchor="end">40</text>
	<line x1="387.34" y1="164.22" x2="347.37" y2="164.22" style="stroke:#000000;stroke-width:5.76"/>
	<text x="327.44" y="192.23" style="font-family:'Helvetica';font-size:79.94px;fill:#000000" text-anchor="end">60</text>
	<text x="176.68" y="1315.01" style="font-family:'Helvetica';font-size:79.94px;fill:#000000" transform="rotate(-90 176.68,1315.01)" text-anchor="middle">Number of primary care positives tests</text>
	<line x1="387.34" y1="2529.28" x2="3859.02" y2="2529.28" style="stroke:#000000;stroke-width:5.76"/>
	<line x1="461.59" y1="2529.28" x2="461.59" y2="2569.25" style="stroke:#000000;stroke-width:5.76"/>
	<text x="461.59" y="2645.20" style="font-family:'Helvetica';font-size:79.94px;fill:#000000" text-anchor="middle">01mar2020</text>
	<line x1="1137.14" y1="2529.28" x2="1137.14" y2="2569.25" style="stroke:#000000;stroke-width:5.76"/>
	<text x="1137.14" y="2645.20" style="font-family:'Helvetica';font-size:79.94px;fill:#000000" text-anchor="middle">01apr2020</text>
	<line x1="1790.91" y1="2529.28" x2="1790.91" y2="2569.25" style="stroke:#000000;stroke-width:5.76"/>
	<text x="1790.91" y="2645.20" style="font-family:'Helvetica';font-size:79.94px;fill:#000000" text-anchor="middle">01may2020</text>
	<line x1="2466.46" y1="2529.28" x2="2466.46" y2="2569.25" style="stroke:#000000;stroke-width:5.76"/>
	<text x="2466.46" y="2645.20" style="font-family:'Helvetica';font-size:79.94px;fill:#000000" text-anchor="middle">01jun2020</text>
	<line x1="3120.23" y1="2529.28" x2="3120.23" y2="2569.25" style="stroke:#000000;stroke-width:5.76"/>
	<text x="3120.23" y="2645.20" style="font-family:'Helvetica';font-size:79.94px;fill:#000000" text-anchor="middle">01jul2020</text>
	<line x1="3795.66" y1="2529.28" x2="3795.66" y2="2569.25" style="stroke:#000000;stroke-width:5.76"/>
	<text x="3795.66" y="2645.20" style="font-family:'Helvetica';font-size:79.94px;fill:#000000" text-anchor="middle">01aug2020</text>
	<text x="2123.18" y="2735.17" style="font-family:'Helvetica';font-size:79.94px;fill:#000000" text-anchor="middle">Date</text>
</svg>
