<?xml version="1.0" encoding="UTF-8" standalone="no"?>
<!-- This is a Stata 16.1 generated SVG file (http://www.stata.com) -->

<svg version="1.1" width="5.50in" height="4.00in" viewBox="0 0 3960 2880" xmlns="http://www.w3.org/2000/svg" xmlns:xlink="http://www.w3.org/1999/xlink">
	<desc>Stata Graph - Graph</desc>
	<rect x="0" y="0" width="3960" height="2880" style="fill:#EAF2F3;stroke:none"/>
	<rect x="0.00" y="0.00" width="3959.88" height="2880.00" style="fill:#EAF2F3"/>
	<rect x="2.88" y="2.88" width="3954.12" height="2874.24" style="fill:none;stroke:#EAF2F3;stroke-width:5.76"/>
	<rect x="387.34" y="100.86" width="3471.68" height="2428.42" style="fill:#FFFFFF"/>
	<rect x="390.22" y="103.74" width="3465.92" height="2422.66" style="fill:none;stroke:#FFFFFF;stroke-width:5.76"/>
	<line x1="387.34" y1="2529.28" x2="3859.02" y2="2529.28" style="stroke:#EAF2F3;stroke-width:5.76"/>
	<line x1="387.34" y1="1740.85" x2="3859.02" y2="1740.85" style="stroke:#EAF2F3;stroke-width:5.76"/>
	<line x1="387.34" y1="952.53" x2="3859.02" y2="952.53" style="stroke:#EAF2F3;stroke-width:5.76"/>
	<line x1="387.34" y1="164.22" x2="3859.02" y2="164.22" style="stroke:#EAF2F3;stroke-width:5.76"/>
	<line x1="1476.46" y1="2529.28" x2="1476.46" y2="100.86" style="stroke:#EAF2F3;stroke-width:5.76"/>
	<line x1="2503.71" y1="2529.28" x2="2503.71" y2="100.86" style="stroke:#EAF2F3;stroke-width:5.76"/>
	<line x1="3529.47" y1="2529.28" x2="3529.47" y2="100.86" style="stroke:#EAF2F3;stroke-width:5.76"/>
	<rect x="502.05" y="2489.80" width="1.36" height="39.48" style="fill:#CAC27E"/>
	<rect x="499.10" y="2494.12" width="7.28" height="30.84" style="fill:none;stroke:#D7D29E;stroke-width:8.64"/>
	<rect x="597.59" y="2489.80" width="1.36" height="39.48" style="fill:#CAC27E"/>
	<rect x="594.63" y="2494.12" width="7.28" height="30.84" style="fill:none;stroke:#D7D29E;stroke-width:8.64"/>
	<rect x="1945.10" y="2489.80" width="1.49" height="39.48" style="fill:#CAC27E"/>
	<rect x="1942.27" y="2494.12" width="7.15" height="30.84" style="fill:none;stroke:#D7D29E;stroke-width:8.64"/>
	<rect x="2504.33" y="2489.80" width="1.48" height="39.48" style="fill:#CAC27E"/>
	<rect x="2501.49" y="2494.12" width="7.15" height="30.84" style="fill:none;stroke:#D7D29E;stroke-width:8.64"/>
	<rect x="2649.12" y="2489.80" width="1.36" height="39.48" style="fill:#CAC27E"/>
	<rect x="2646.16" y="2494.12" width="7.28" height="30.84" style="fill:none;stroke:#D7D29E;stroke-width:8.64"/>
	<rect x="3244.85" y="2489.80" width="1.48" height="39.48" style="fill:#CAC27E"/>
	<rect x="3242.01" y="2494.12" width="7.15" height="30.84" style="fill:none;stroke:#D7D29E;stroke-width:8.64"/>
	<rect x="3613.01" y="2371.62" width="1.48" height="157.66" style="fill:#CAC27E"/>
	<rect x="3610.17" y="2375.94" width="7.15" height="149.02" style="fill:none;stroke:#D7D29E;stroke-width:8.64"/>
	<rect x="3624.27" y="2489.80" width="1.48" height="39.48" style="fill:#CAC27E"/>
	<rect x="3621.43" y="2494.12" width="7.15" height="30.84" style="fill:none;stroke:#D7D29E;stroke-width:8.64"/>
	<rect x="3627.11" y="2489.80" width="1.36" height="39.48" style="fill:#CAC27E"/>
	<rect x="3624.15" y="2494.12" width="7.28" height="30.84" style="fill:none;stroke:#D7D29E;stroke-width:8.64"/>
	<rect x="3629.96" y="2450.45" width="1.36" height="78.83" style="fill:#CAC27E"/>
	<rect x="3627.00" y="2454.77" width="7.28" height="70.19" style="fill:none;stroke:#D7D29E;stroke-width:8.64"/>
	<rect x="3634.17" y="2371.62" width="1.36" height="157.66" style="fill:#CAC27E"/>
	<rect x="3631.21" y="2375.94" width="7.28" height="149.02" style="fill:none;stroke:#D7D29E;stroke-width:8.64"/>
	<rect x="3635.53" y="2371.62" width="1.36" height="157.66" style="fill:#CAC27E"/>
	<rect x="3632.57" y="2375.94" width="7.28" height="149.02" style="fill:none;stroke:#D7D29E;stroke-width:8.64"/>
	<rect x="3636.89" y="2450.45" width="1.49" height="78.83" style="fill:#CAC27E"/>
	<rect x="3634.05" y="2454.77" width="7.15" height="70.19" style="fill:none;stroke:#D7D29E;stroke-width:8.64"/>
	<rect x="3638.37" y="2371.62" width="1.36" height="157.66" style="fill:#CAC27E"/>
	<rect x="3635.42" y="2375.94" width="7.28" height="149.02" style="fill:none;stroke:#D7D29E;stroke-width:8.64"/>
	<rect x="3639.74" y="2332.14" width="1.36" height="197.14" style="fill:#CAC27E"/>
	<rect x="3636.78" y="2336.46" width="7.28" height="188.50" style="fill:none;stroke:#D7D29E;stroke-width:8.64"/>
	<rect x="3641.10" y="2450.45" width="1.49" height="78.83" style="fill:#CAC27E"/>
	<rect x="3638.26" y="2454.77" width="7.15" height="70.19" style="fill:none;stroke:#D7D29E;stroke-width:8.64"/>
	<rect x="3642.58" y="2371.62" width="1.36" height="157.66" style="fill:#CAC27E"/>
	<rect x="3639.62" y="2375.94" width="7.28" height="149.02" style="fill:none;stroke:#D7D29E;stroke-width:8.64"/>
	<rect x="3643.94" y="2213.96" width="1.48" height="315.32" style="fill:#CAC27E"/>
	<rect x="3641.11" y="2218.28" width="7.15" height="306.69" style="fill:none;stroke:#D7D29E;stroke-width:8.64"/>
	<rect x="3645.43" y="2135.13" width="1.36" height="394.16" style="fill:#CAC27E"/>
	<rect x="3642.47" y="2139.45" width="7.28" height="385.52" style="fill:none;stroke:#D7D29E;stroke-width:8.64"/>
	<rect x="3646.79" y="2135.13" width="1.36" height="394.16" style="fill:#CAC27E"/>
	<rect x="3643.83" y="2139.45" width="7.28" height="385.52" style="fill:none;stroke:#D7D29E;stroke-width:8.64"/>
	<rect x="3648.15" y="2135.13" width="1.49" height="394.16" style="fill:#CAC27E"/>
	<rect x="3645.32" y="2139.45" width="7.15" height="385.52" style="fill:none;stroke:#D7D29E;stroke-width:8.64"/>
	<rect x="3649.64" y="2213.96" width="1.36" height="315.32" style="fill:#CAC27E"/>
	<rect x="3646.68" y="2218.28" width="7.28" height="306.69" style="fill:none;stroke:#D7D29E;stroke-width:8.64"/>
	<rect x="3651.00" y="2174.48" width="1.36" height="354.80" style="fill:#CAC27E"/>
	<rect x="3648.04" y="2178.80" width="7.28" height="346.16" style="fill:none;stroke:#D7D29E;stroke-width:8.64"/>
	<rect x="3652.36" y="2174.48" width="1.49" height="354.80" style="fill:#CAC27E"/>
	<rect x="3649.52" y="2178.80" width="7.15" height="346.16" style="fill:none;stroke:#D7D29E;stroke-width:8.64"/>
	<rect x="3653.84" y="1780.32" width="1.36" height="748.96" style="fill:#CAC27E"/>
	<rect x="3650.88" y="1784.64" width="7.28" height="740.32" style="fill:none;stroke:#D7D29E;stroke-width:8.64"/>
	<rect x="3655.20" y="1780.32" width="1.36" height="748.96" style="fill:#CAC27E"/>
	<rect x="3652.25" y="1784.64" width="7.28" height="740.32" style="fill:none;stroke:#D7D29E;stroke-width:8.64"/>
	<rect x="3656.57" y="1110.20" width="1.49" height="1419.09" style="fill:#CAC27E"/>
	<rect x="3653.73" y="1114.52" width="7.15" height="1410.45" style="fill:none;stroke:#D7D29E;stroke-width:8.64"/>
	<rect x="3658.05" y="1622.66" width="1.36" height="906.62" style="fill:#CAC27E"/>
	<rect x="3655.09" y="1626.98" width="7.28" height="897.98" style="fill:none;stroke:#D7D29E;stroke-width:8.64"/>
	<rect x="3659.41" y="1267.86" width="1.36" height="1261.42" style="fill:#CAC27E"/>
	<rect x="3656.45" y="1272.18" width="7.28" height="1252.78" style="fill:none;stroke:#D7D29E;stroke-width:8.64"/>
	<rect x="3660.77" y="2174.48" width="1.49" height="354.80" style="fill:#CAC27E"/>
	<rect x="3657.94" y="2178.80" width="7.15" height="346.16" style="fill:none;stroke:#D7D29E;stroke-width:8.64"/>
	<rect x="3662.26" y="2135.13" width="1.36" height="394.16" style="fill:#CAC27E"/>
	<rect x="3659.30" y="2139.45" width="7.28" height="385.52" style="fill:none;stroke:#D7D29E;stroke-width:8.64"/>
	<rect x="3663.62" y="1465.00" width="1.36" height="1064.28" style="fill:#CAC27E"/>
	<rect x="3660.66" y="1469.32" width="7.28" height="1055.64" style="fill:none;stroke:#D7D29E;stroke-width:8.64"/>
	<rect x="3664.98" y="1937.99" width="1.49" height="591.30" style="fill:#CAC27E"/>
	<rect x="3662.15" y="1942.31" width="7.15" height="582.66" style="fill:none;stroke:#D7D29E;stroke-width:8.64"/>
	<rect x="3666.47" y="1701.49" width="1.36" height="827.79" style="fill:#CAC27E"/>
	<rect x="3663.51" y="1705.81" width="7.28" height="819.15" style="fill:none;stroke:#D7D29E;stroke-width:8.64"/>
	<rect x="3667.83" y="1622.66" width="1.49" height="906.62" style="fill:#CAC27E"/>
	<rect x="3664.99" y="1626.98" width="7.15" height="897.98" style="fill:none;stroke:#D7D29E;stroke-width:8.64"/>
	<rect x="3669.31" y="1898.51" width="1.36" height="630.77" style="fill:#CAC27E"/>
	<rect x="3666.35" y="1902.83" width="7.28" height="622.13" style="fill:none;stroke:#D7D29E;stroke-width:8.64"/>
	<rect x="3670.67" y="2253.31" width="1.36" height="275.97" style="fill:#CAC27E"/>
	<rect x="3667.71" y="2257.63" width="7.28" height="267.33" style="fill:none;stroke:#D7D29E;stroke-width:8.64"/>
	<rect x="3672.03" y="2135.13" width="1.49" height="394.16" style="fill:#CAC27E"/>
	<rect x="3669.20" y="2139.45" width="7.15" height="385.52" style="fill:none;stroke:#D7D29E;stroke-width:8.64"/>
	<rect x="3673.52" y="1898.51" width="1.36" height="630.77" style="fill:#CAC27E"/>
	<rect x="3670.56" y="1902.83" width="7.28" height="622.13" style="fill:none;stroke:#D7D29E;stroke-width:8.64"/>
	<rect x="3674.88" y="321.88" width="1.36" height="2207.40" style="fill:#CAC27E"/>
	<rect x="3671.92" y="326.20" width="7.28" height="2198.76" style="fill:none;stroke:#D7D29E;stroke-width:8.64"/>
	<rect x="3676.24" y="1149.67" width="1.49" height="1379.61" style="fill:#CAC27E"/>
	<rect x="3673.41" y="1153.99" width="7.15" height="1370.97" style="fill:none;stroke:#D7D29E;stroke-width:8.64"/>
	<rect x="3677.73" y="1819.68" width="1.36" height="709.60" style="fill:#CAC27E"/>
	<rect x="3674.77" y="1824.00" width="7.28" height="700.96" style="fill:none;stroke:#D7D29E;stroke-width:8.64"/>
	<rect x="3679.09" y="282.41" width="1.36" height="2246.88" style="fill:#CAC27E"/>
	<rect x="3676.13" y="286.73" width="7.28" height="2238.24" style="fill:none;stroke:#D7D29E;stroke-width:8.64"/>
	<rect x="3680.45" y="2292.79" width="1.49" height="236.49" style="fill:#CAC27E"/>
	<rect x="3677.61" y="2297.11" width="7.15" height="227.85" style="fill:none;stroke:#D7D29E;stroke-width:8.64"/>
	<rect x="3681.93" y="2135.13" width="1.36" height="394.16" style="fill:#CAC27E"/>
	<rect x="3678.98" y="2139.45" width="7.28" height="385.52" style="fill:none;stroke:#D7D29E;stroke-width:8.64"/>
	<rect x="3683.30" y="952.53" width="1.36" height="1576.75" style="fill:#CAC27E"/>
	<rect x="3680.34" y="956.85" width="7.28" height="1568.11" style="fill:none;stroke:#D7D29E;stroke-width:8.64"/>
	<rect x="3684.66" y="1622.66" width="1.49" height="906.62" style="fill:#CAC27E"/>
	<rect x="3681.82" y="1626.98" width="7.15" height="897.98" style="fill:none;stroke:#D7D29E;stroke-width:8.64"/>
	<rect x="3686.14" y="2174.48" width="1.36" height="354.80" style="fill:#CAC27E"/>
	<rect x="3683.18" y="2178.80" width="7.28" height="346.16" style="fill:none;stroke:#D7D29E;stroke-width:8.64"/>
	<rect x="3687.50" y="1465.00" width="1.49" height="1064.28" style="fill:#CAC27E"/>
	<rect x="3684.67" y="1469.32" width="7.15" height="1055.64" style="fill:none;stroke:#D7D29E;stroke-width:8.64"/>
	<rect x="3688.99" y="2016.82" width="1.36" height="512.46" style="fill:#CAC27E"/>
	<rect x="3686.03" y="2021.14" width="7.28" height="503.83" style="fill:none;stroke:#D7D29E;stroke-width:8.64"/>
	<rect x="3690.35" y="2174.48" width="1.36" height="354.80" style="fill:#CAC27E"/>
	<rect x="3687.39" y="2178.80" width="7.28" height="346.16" style="fill:none;stroke:#D7D29E;stroke-width:8.64"/>
	<rect x="3691.71" y="2371.62" width="1.49" height="157.66" style="fill:#CAC27E"/>
	<rect x="3688.88" y="2375.94" width="7.15" height="149.02" style="fill:none;stroke:#D7D29E;stroke-width:8.64"/>
	<rect x="3693.20" y="991.89" width="1.36" height="1537.39" style="fill:#CAC27E"/>
	<rect x="3690.24" y="996.21" width="7.28" height="1528.75" style="fill:none;stroke:#D7D29E;stroke-width:8.64"/>
	<rect x="3694.56" y="597.73" width="1.36" height="1931.55" style="fill:#CAC27E"/>
	<rect x="3691.60" y="602.05" width="7.28" height="1922.91" style="fill:none;stroke:#D7D29E;stroke-width:8.64"/>
	<rect x="3695.92" y="1819.68" width="1.49" height="709.60" style="fill:#CAC27E"/>
	<rect x="3693.08" y="1824.00" width="7.15" height="700.96" style="fill:none;stroke:#D7D29E;stroke-width:8.64"/>
	<rect x="3697.40" y="1504.35" width="1.36" height="1024.93" style="fill:#CAC27E"/>
	<rect x="3694.44" y="1508.67" width="7.28" height="1016.29" style="fill:none;stroke:#D7D29E;stroke-width:8.64"/>
	<rect x="3698.76" y="1583.18" width="1.36" height="946.10" style="fill:#CAC27E"/>
	<rect x="3695.81" y="1587.50" width="7.28" height="937.46" style="fill:none;stroke:#D7D29E;stroke-width:8.64"/>
	<rect x="3700.13" y="2292.79" width="1.49" height="236.49" style="fill:#CAC27E"/>
	<rect x="3697.29" y="2297.11" width="7.15" height="227.85" style="fill:none;stroke:#D7D29E;stroke-width:8.64"/>
	<rect x="3701.61" y="2410.97" width="1.36" height="118.31" style="fill:#CAC27E"/>
	<rect x="3698.65" y="2415.29" width="7.28" height="109.67" style="fill:none;stroke:#D7D29E;stroke-width:8.64"/>
	<rect x="3702.97" y="1780.32" width="1.36" height="748.96" style="fill:#CAC27E"/>
	<rect x="3700.01" y="1784.64" width="7.28" height="740.32" style="fill:none;stroke:#D7D29E;stroke-width:8.64"/>
	<rect x="3704.33" y="1583.18" width="1.49" height="946.10" style="fill:#CAC27E"/>
	<rect x="3701.50" y="1587.50" width="7.15" height="937.46" style="fill:none;stroke:#D7D29E;stroke-width:8.64"/>
	<rect x="3705.82" y="1977.34" width="1.36" height="551.94" style="fill:#CAC27E"/>
	<rect x="3702.86" y="1981.66" width="7.28" height="543.30" style="fill:none;stroke:#D7D29E;stroke-width:8.64"/>
	<rect x="3707.18" y="1662.01" width="1.36" height="867.27" style="fill:#CAC27E"/>
	<rect x="3704.22" y="1666.33" width="7.28" height="858.63" style="fill:none;stroke:#D7D29E;stroke-width:8.64"/>
	<rect x="3708.54" y="2056.29" width="1.49" height="472.99" style="fill:#CAC27E"/>
	<rect x="3705.71" y="2060.61" width="7.15" height="464.35" style="fill:none;stroke:#D7D29E;stroke-width:8.64"/>
	<rect x="3710.03" y="2332.14" width="1.36" height="197.14" style="fill:#CAC27E"/>
	<rect x="3707.07" y="2336.46" width="7.28" height="188.50" style="fill:none;stroke:#D7D29E;stroke-width:8.64"/>
	<rect x="3711.39" y="2450.45" width="1.49" height="78.83" style="fill:#CAC27E"/>
	<rect x="3708.55" y="2454.77" width="7.15" height="70.19" style="fill:none;stroke:#D7D29E;stroke-width:8.64"/>
	<rect x="3712.87" y="1819.68" width="1.36" height="709.60" style="fill:#CAC27E"/>
	<rect x="3709.91" y="1824.00" width="7.28" height="700.96" style="fill:none;stroke:#D7D29E;stroke-width:8.64"/>
	<rect x="3714.23" y="1898.51" width="1.36" height="630.77" style="fill:#CAC27E"/>
	<rect x="3711.27" y="1902.83" width="7.28" height="622.13" style="fill:none;stroke:#D7D29E;stroke-width:8.64"/>
	<rect x="3715.59" y="2095.65" width="1.49" height="433.63" style="fill:#CAC27E"/>
	<rect x="3712.76" y="2099.97" width="7.15" height="424.99" style="fill:none;stroke:#D7D29E;stroke-width:8.64"/>
	<rect x="3717.08" y="1543.83" width="1.36" height="985.45" style="fill:#CAC27E"/>
	<rect x="3714.12" y="1548.15" width="7.28" height="976.81" style="fill:none;stroke:#D7D29E;stroke-width:8.64"/>
	<rect x="3718.44" y="2135.13" width="1.36" height="394.16" style="fill:#CAC27E"/>
	<rect x="3715.48" y="2139.45" width="7.28" height="385.52" style="fill:none;stroke:#D7D29E;stroke-width:8.64"/>
	<rect x="3719.80" y="2410.97" width="1.49" height="118.31" style="fill:#CAC27E"/>
	<rect x="3716.97" y="2415.29" width="7.15" height="109.67" style="fill:none;stroke:#D7D29E;stroke-width:8.64"/>
	<rect x="3721.29" y="2371.62" width="1.36" height="157.66" style="fill:#CAC27E"/>
	<rect x="3718.33" y="2375.94" width="7.28" height="149.02" style="fill:none;stroke:#D7D29E;stroke-width:8.64"/>
	<rect x="3722.65" y="1346.69" width="1.36" height="1182.59" style="fill:#CAC27E"/>
	<rect x="3719.69" y="1351.01" width="7.28" height="1173.95" style="fill:none;stroke:#D7D29E;stroke-width:8.64"/>
	<rect x="3724.01" y="1662.01" width="1.49" height="867.27" style="fill:#CAC27E"/>
	<rect x="3721.17" y="1666.33" width="7.15" height="858.63" style="fill:none;stroke:#D7D29E;stroke-width:8.64"/>
	<rect x="3725.49" y="1859.15" width="1.36" height="670.13" style="fill:#CAC27E"/>
	<rect x="3722.54" y="1863.47" width="7.28" height="661.49" style="fill:none;stroke:#D7D29E;stroke-width:8.64"/>
	<rect x="3726.86" y="2135.13" width="1.36" height="394.16" style="fill:#CAC27E"/>
	<rect x="3723.90" y="2139.45" width="7.28" height="385.52" style="fill:none;stroke:#D7D29E;stroke-width:8.64"/>
	<rect x="3728.22" y="2174.48" width="1.49" height="354.80" style="fill:#CAC27E"/>
	<rect x="3725.38" y="2178.80" width="7.15" height="346.16" style="fill:none;stroke:#D7D29E;stroke-width:8.64"/>
	<rect x="3729.70" y="2450.45" width="1.36" height="78.83" style="fill:#CAC27E"/>
	<rect x="3726.74" y="2454.77" width="7.28" height="70.19" style="fill:none;stroke:#D7D29E;stroke-width:8.64"/>
	<rect x="3731.06" y="2450.45" width="1.49" height="78.83" style="fill:#CAC27E"/>
	<rect x="3728.23" y="2454.77" width="7.15" height="70.19" style="fill:none;stroke:#D7D29E;stroke-width:8.64"/>
	<rect x="3733.91" y="1977.34" width="1.36" height="551.94" style="fill:#CAC27E"/>
	<rect x="3730.95" y="1981.66" width="7.28" height="543.30" style="fill:none;stroke:#D7D29E;stroke-width:8.64"/>
	<rect x="3735.27" y="2332.14" width="1.49" height="197.14" style="fill:#CAC27E"/>
	<rect x="3732.44" y="2336.46" width="7.15" height="188.50" style="fill:none;stroke:#D7D29E;stroke-width:8.64"/>
	<rect x="3736.76" y="2371.62" width="1.36" height="157.66" style="fill:#CAC27E"/>
	<rect x="3733.80" y="2375.94" width="7.28" height="149.02" style="fill:none;stroke:#D7D29E;stroke-width:8.64"/>
	<rect x="3738.12" y="2253.31" width="1.36" height="275.97" style="fill:#CAC27E"/>
	<rect x="3735.16" y="2257.63" width="7.28" height="267.33" style="fill:none;stroke:#D7D29E;stroke-width:8.64"/>
	<rect x="3739.48" y="2410.97" width="1.49" height="118.31" style="fill:#CAC27E"/>
	<rect x="3736.64" y="2415.29" width="7.15" height="109.67" style="fill:none;stroke:#D7D29E;stroke-width:8.64"/>
	<rect x="3740.96" y="2450.45" width="1.36" height="78.83" style="fill:#CAC27E"/>
	<rect x="3738.00" y="2454.77" width="7.28" height="70.19" style="fill:none;stroke:#D7D29E;stroke-width:8.64"/>
	<rect x="3742.32" y="2292.79" width="1.36" height="236.49" style="fill:#CAC27E"/>
	<rect x="3739.37" y="2297.11" width="7.28" height="227.85" style="fill:none;stroke:#D7D29E;stroke-width:8.64"/>
	<rect x="3743.68" y="2174.48" width="1.49" height="354.80" style="fill:#CAC27E"/>
	<rect x="3740.85" y="2178.80" width="7.15" height="346.16" style="fill:none;stroke:#D7D29E;stroke-width:8.64"/>
	<rect x="3745.17" y="2332.14" width="1.36" height="197.14" style="fill:#CAC27E"/>
	<rect x="3742.21" y="2336.46" width="7.28" height="188.50" style="fill:none;stroke:#D7D29E;stroke-width:8.64"/>
	<rect x="3746.53" y="2135.13" width="1.36" height="394.16" style="fill:#CAC27E"/>
	<rect x="3743.57" y="2139.45" width="7.28" height="385.52" style="fill:none;stroke:#D7D29E;stroke-width:8.64"/>
	<rect x="3747.89" y="2410.97" width="1.49" height="118.31" style="fill:#CAC27E"/>
	<rect x="3745.06" y="2415.29" width="7.15" height="109.67" style="fill:none;stroke:#D7D29E;stroke-width:8.64"/>
	<rect x="3749.38" y="2371.62" width="1.36" height="157.66" style="fill:#CAC27E"/>
	<rect x="3746.42" y="2375.94" width="7.28" height="149.02" style="fill:none;stroke:#D7D29E;stroke-width:8.64"/>
	<rect x="3750.74" y="2450.45" width="1.36" height="78.83" style="fill:#CAC27E"/>
	<rect x="3747.78" y="2454.77" width="7.28" height="70.19" style="fill:none;stroke:#D7D29E;stroke-width:8.64"/>
	<rect x="3752.10" y="2292.79" width="1.49" height="236.49" style="fill:#CAC27E"/>
	<rect x="3749.27" y="2297.11" width="7.15" height="227.85" style="fill:none;stroke:#D7D29E;stroke-width:8.64"/>
	<rect x="3753.59" y="2056.29" width="1.36" height="472.99" style="fill:#CAC27E"/>
	<rect x="3750.63" y="2060.61" width="7.28" height="464.35" style="fill:none;stroke:#D7D29E;stroke-width:8.64"/>
	<rect x="3754.95" y="2174.48" width="1.49" height="354.80" style="fill:#CAC27E"/>
	<rect x="3752.11" y="2178.80" width="7.15" height="346.16" style="fill:none;stroke:#D7D29E;stroke-width:8.64"/>
	<rect x="3756.43" y="2174.48" width="1.36" height="354.80" style="fill:#CAC27E"/>
	<rect x="3753.47" y="2178.80" width="7.28" height="346.16" style="fill:none;stroke:#D7D29E;stroke-width:8.64"/>
	<rect x="3757.79" y="2292.79" width="1.36" height="236.49" style="fill:#CAC27E"/>
	<rect x="3754.83" y="2297.11" width="7.28" height="227.85" style="fill:none;stroke:#D7D29E;stroke-width:8.64"/>
	<rect x="3759.15" y="2371.62" width="1.49" height="157.66" style="fill:#CAC27E"/>
	<rect x="3756.32" y="2375.94" width="7.15" height="149.02" style="fill:none;stroke:#D7D29E;stroke-width:8.64"/>
	<rect x="3760.64" y="2332.14" width="1.36" height="197.14" style="fill:#CAC27E"/>
	<rect x="3757.68" y="2336.46" width="7.28" height="188.50" style="fill:none;stroke:#D7D29E;stroke-width:8.64"/>
	<rect x="3762.00" y="2292.79" width="1.36" height="236.49" style="fill:#CAC27E"/>
	<rect x="3759.04" y="2297.11" width="7.28" height="227.85" style="fill:none;stroke:#D7D29E;stroke-width:8.64"/>
	<rect x="3763.36" y="2332.14" width="1.49" height="197.14" style="fill:#CAC27E"/>
	<rect x="3760.53" y="2336.46" width="7.15" height="188.50" style="fill:none;stroke:#D7D29E;stroke-width:8.64"/>
	<rect x="3764.85" y="2450.45" width="1.36" height="78.83" style="fill:#CAC27E"/>
	<rect x="3761.89" y="2454.77" width="7.28" height="70.19" style="fill:none;stroke:#D7D29E;stroke-width:8.64"/>
	<rect x="3766.21" y="2332.14" width="1.36" height="197.14" style="fill:#CAC27E"/>
	<rect x="3763.25" y="2336.46" width="7.28" height="188.50" style="fill:none;stroke:#D7D29E;stroke-width:8.64"/>
	<rect x="3767.57" y="2292.79" width="1.49" height="236.49" style="fill:#CAC27E"/>
	<rect x="3764.73" y="2297.11" width="7.15" height="227.85" style="fill:none;stroke:#D7D29E;stroke-width:8.64"/>
	<rect x="3769.05" y="2410.97" width="1.36" height="118.31" style="fill:#CAC27E"/>
	<rect x="3766.10" y="2415.29" width="7.28" height="109.67" style="fill:none;stroke:#D7D29E;stroke-width:8.64"/>
	<rect x="3770.41" y="2410.97" width="1.36" height="118.31" style="fill:#CAC27E"/>
	<rect x="3767.46" y="2415.29" width="7.28" height="109.67" style="fill:none;stroke:#D7D29E;stroke-width:8.64"/>
	<rect x="3771.78" y="2332.14" width="1.49" height="197.14" style="fill:#CAC27E"/>
	<rect x="3768.94" y="2336.46" width="7.15" height="188.50" style="fill:none;stroke:#D7D29E;stroke-width:8.64"/>
	<rect x="3773.26" y="2332.14" width="1.36" height="197.14" style="fill:#CAC27E"/>
	<rect x="3770.30" y="2336.46" width="7.28" height="188.50" style="fill:none;stroke:#D7D29E;stroke-width:8.64"/>
	<rect x="3774.62" y="2292.79" width="1.49" height="236.49" style="fill:#CAC27E"/>
	<rect x="3771.79" y="2297.11" width="7.15" height="227.85" style="fill:none;stroke:#D7D29E;stroke-width:8.64"/>
	<rect x="3776.11" y="2410.97" width="1.36" height="118.31" style="fill:#CAC27E"/>
	<rect x="3773.15" y="2415.29" width="7.28" height="109.67" style="fill:none;stroke:#D7D29E;stroke-width:8.64"/>
	<rect x="3777.47" y="2489.80" width="1.36" height="39.48" style="fill:#CAC27E"/>
	<rect x="3774.51" y="2494.12" width="7.28" height="30.84" style="fill:none;stroke:#D7D29E;stroke-width:8.64"/>
	<rect x="3778.83" y="2450.45" width="1.49" height="78.83" style="fill:#CAC27E"/>
	<rect x="3776.00" y="2454.77" width="7.15" height="70.19" style="fill:none;stroke:#D7D29E;stroke-width:8.64"/>
	<rect x="3780.32" y="2489.80" width="1.36" height="39.48" style="fill:#CAC27E"/>
	<rect x="3777.36" y="2494.12" width="7.28" height="30.84" style="fill:none;stroke:#D7D29E;stroke-width:8.64"/>
	<rect x="3781.68" y="2450.45" width="1.36" height="78.83" style="fill:#CAC27E"/>
	<rect x="3778.72" y="2454.77" width="7.28" height="70.19" style="fill:none;stroke:#D7D29E;stroke-width:8.64"/>
	<rect x="3783.04" y="2253.31" width="1.49" height="275.97" style="fill:#CAC27E"/>
	<rect x="3780.20" y="2257.63" width="7.15" height="267.33" style="fill:none;stroke:#D7D29E;stroke-width:8.64"/>
	<rect x="3784.52" y="2410.97" width="1.36" height="118.31" style="fill:#CAC27E"/>
	<rect x="3781.56" y="2415.29" width="7.28" height="109.67" style="fill:none;stroke:#D7D29E;stroke-width:8.64"/>
	<rect x="3785.88" y="2410.97" width="1.36" height="118.31" style="fill:#CAC27E"/>
	<rect x="3782.93" y="2415.29" width="7.28" height="109.67" style="fill:none;stroke:#D7D29E;stroke-width:8.64"/>
	<rect x="3787.24" y="2213.96" width="1.49" height="315.32" style="fill:#CAC27E"/>
	<rect x="3784.41" y="2218.28" width="7.15" height="306.69" style="fill:none;stroke:#D7D29E;stroke-width:8.64"/>
	<rect x="3790.09" y="2450.45" width="1.36" height="78.83" style="fill:#CAC27E"/>
	<rect x="3787.13" y="2454.77" width="7.28" height="70.19" style="fill:none;stroke:#D7D29E;stroke-width:8.64"/>
	<rect x="3791.45" y="2410.97" width="1.49" height="118.31" style="fill:#CAC27E"/>
	<rect x="3788.62" y="2415.29" width="7.15" height="109.67" style="fill:none;stroke:#D7D29E;stroke-width:8.64"/>
	<rect x="3794.30" y="2489.80" width="1.36" height="39.48" style="fill:#CAC27E"/>
	<rect x="3791.34" y="2494.12" width="7.28" height="30.84" style="fill:none;stroke:#D7D29E;stroke-width:8.64"/>
	<line x1="387.34" y1="2529.28" x2="387.34" y2="100.86" style="stroke:#000000;stroke-width:5.76"/>
	<line x1="387.34" y1="2529.28" x2="347.37" y2="2529.28" style="stroke:#000000;stroke-width:5.76"/>
	<text x="327.44" y="2557.29" style="font-family:'Helvetica';font-size:79.94px;fill:#000000" text-anchor="end">0</text>
	<line x1="387.34" y1="1740.85" x2="347.37" y2="1740.85" style="stroke:#000000;stroke-width:5.76"/>
	<text x="327.44" y="1768.86" style="font-family:'Helvetica';font-size:79.94px;fill:#000000" text-anchor="end">20</text>
	<line x1="387.34" y1="952.53" x2="347.37" y2="952.53" style="stroke:#000000;stroke-width:5.76"/>
	<text x="327.44" y="980.55" style="font-family:'Helvetica';font-size:79.94px;fill:#000000" text-anchor="end">40</text>
	<line x1="387.34" y1="164.22" x2="347.37" y2="164.22" style="stroke:#000000;stroke-width:5.76"/>
	<text x="327.44" y="192.23" style="font-family:'Helvetica';font-size:79.94px;fill:#000000" text-anchor="end">60</text>
	<text x="176.68" y="1315.01" style="font-family:'Helvetica';font-size:79.94px;fill:#000000" transform="rotate(-90 176.68,1315.01)" text-anchor="middle">Number of primary care positives tests</text>
	<line x1="387.34" y1="2529.28" x2="3859.02" y2="2529.28" style="stroke:#000000;stroke-width:5.76"/>
	<line x1="450.70" y1="2529.28" x2="450.70" y2="2569.25" style="stroke:#000000;stroke-width:5.76"/>
	<text x="450.70" y="2645.20" style="font-family:'Helvetica';font-size:79.94px;fill:#000000" text-anchor="middle">01jan2014</text>
	<line x1="1476.46" y1="2529.28" x2="1476.46" y2="2569.25" style="stroke:#000000;stroke-width:5.76"/>
	<text x="1476.46" y="2645.20" style="font-family:'Helvetica';font-size:79.94px;fill:#000000" text-anchor="middle">01jan2016</text>
	<line x1="2503.71" y1="2529.28" x2="2503.71" y2="2569.25" style="stroke:#000000;stroke-width:5.76"/>
	<text x="2503.71" y="2645.20" style="font-family:'Helvetica';font-size:79.94px;fill:#000000" text-anchor="middle">01jan2018</text>
	<line x1="3529.47" y1="2529.28" x2="3529.47" y2="2569.25" style="stroke:#000000;stroke-width:5.76"/>
	<text x="3529.47" y="2645.20" style="font-family:'Helvetica';font-size:79.94px;fill:#000000" text-anchor="middle">01jan2020</text>
	<text x="2123.18" y="2735.17" style="font-family:'Helvetica';font-size:79.94px;fill:#000000" text-anchor="middle">Date</text>
</svg>
