<?xml version="1.0" encoding="UTF-8" standalone="no"?>
<!-- This is a Stata 16.1 generated SVG file (http://www.stata.com) -->

<svg version="1.1" width="5.50in" height="4.00in" viewBox="0 0 3960 2880" xmlns="http://www.w3.org/2000/svg" xmlns:xlink="http://www.w3.org/1999/xlink">
	<desc>Stata Graph - Graph</desc>
	<rect x="0" y="0" width="3960" height="2880" style="fill:#EAF2F3;stroke:none"/>
	<rect x="0.00" y="0.00" width="3959.88" height="2880.00" style="fill:#FFFFFF"/>
	<rect x="2.88" y="2.88" width="3954.12" height="2874.24" style="fill:none;stroke:#EAF2F3;stroke-width:5.76"/>
	<rect x="430.77" y="245.40" width="3428.25" height="2263.83" style="fill:#FFFFFF"/>
	<rect x="433.65" y="248.28" width="3422.49" height="2258.07" style="fill:none;stroke:#FFFFFF;stroke-width:5.76"/>
	<line x1="430.77" y1="2445.87" x2="3859.02" y2="2445.87" style="stroke:#EAF2F3;stroke-width:8.64"/>
	<line x1="430.77" y1="2232.15" x2="3859.02" y2="2232.15" style="stroke:#EAF2F3;stroke-width:8.64"/>
	<line x1="430.77" y1="2018.43" x2="3859.02" y2="2018.43" style="stroke:#EAF2F3;stroke-width:8.64"/>
	<line x1="430.77" y1="1804.70" x2="3859.02" y2="1804.70" style="stroke:#EAF2F3;stroke-width:8.64"/>
	<line x1="430.77" y1="1590.98" x2="3859.02" y2="1590.98" style="stroke:#EAF2F3;stroke-width:8.64"/>
	<line x1="430.77" y1="1377.26" x2="3859.02" y2="1377.26" style="stroke:#EAF2F3;stroke-width:8.64"/>
	<line x1="430.77" y1="1163.53" x2="3859.02" y2="1163.53" style="stroke:#EAF2F3;stroke-width:8.64"/>
	<line x1="430.77" y1="949.81" x2="3859.02" y2="949.81" style="stroke:#EAF2F3;stroke-width:8.64"/>
	<line x1="430.77" y1="736.09" x2="3859.02" y2="736.09" style="stroke:#EAF2F3;stroke-width:8.64"/>
	<line x1="430.77" y1="522.49" x2="3859.02" y2="522.49" style="stroke:#EAF2F3;stroke-width:8.64"/>
	<line x1="430.77" y1="308.77" x2="3859.02" y2="308.77" style="stroke:#EAF2F3;stroke-width:8.64"/>
	<defs>
		<path id="path_LnaUZfem" d="M514.68 2445.87 L514.68 2445.87 L535.34 2445.87 L556.01 2445.87 L576.67 2445.87 L597.22 2445.87 L617.88 2445.75 L638.55 2445.62 L659.22 2445.38 L679.76 2444.76 L700.42 2443.89 L721.09 2442.65 L741.76 2440.67 L762.30 2438.07 L782.97 2434.73 L803.63 2430.40 L824.30 2425.20 L844.84 2418.77 L865.51 2411.34 L886.17 2402.68 L906.84 2392.90 L927.38 2381.89 L948.05 2369.76 L968.72 2356.52 L989.38 2342.29 L1009.92 2326.94 L1030.59 2310.61 L1051.26 2293.41 L1071.92 2275.34 L1092.46 2256.28 L1113.13 2236.60 L1133.80 2216.06 L1154.46 2194.77 L1175.01 2172.99 L1195.67 2150.47 L1216.34 2127.45 L1237.01 2104.06 L1257.55 2080.30 L1278.21 2056.29 L1298.88 2032.16 L1319.55 2008.03 L1340.09 1983.90 L1360.76 1959.89 L1381.42 1936.13 L1402.09 1912.62 L1422.63 1889.47 L1443.30 1866.70 L1463.96 1844.43 L1484.63 1822.52 L1505.17 1801.11 L1525.84 1780.32 L1546.50 1760.03 L1567.17 1740.23 L1587.71 1721.05 L1608.38 1702.23 L1629.05 1684.04 L1649.71 1666.35 L1670.25 1649.14 L1690.92 1632.44 L1711.59 1616.35 L1732.25 1600.63 L1752.80 1585.41 L1773.46 1570.68 L1794.13 1556.45 L1814.79 1542.59 L1835.34 1529.35 L1856.00 1516.36 L1876.67 1503.86 L1897.34 1491.73 L1917.88 1480.10 L1938.54 1468.71 L1959.21 1457.82 L1979.88 1447.18 L2000.42 1436.91 L2021.09 1427.01 L2041.75 1417.48 L2062.42 1408.07 L2082.96 1399.16 L2103.63 1390.37 L2124.29 1381.96 L2144.96 1373.79 L2165.50 1366.00 L2186.17 1358.32 L2206.83 1350.90 L2227.50 1343.72 L2248.04 1336.79 L2268.71 1330.11 L2289.38 1323.67 L2310.04 1317.36 L2330.58 1311.30 L2351.25 1305.36 L2371.92 1299.66 L2392.58 1294.22 L2413.13 1288.77 L2433.79 1283.70 L2454.46 1278.62 L2475.12 1273.80 L2495.67 1269.10 L2516.33 1264.52 L2537.00 1260.06 L2557.66 1255.73 L2578.21 1251.52 L2598.87 1247.56 L2619.54 1243.60 L2640.21 1239.77 L2660.75 1236.05 L2681.41 1232.59 L2702.08 1229.00 L2722.75 1225.66 L2743.29 1222.44 L2763.96 1219.22 L2784.62 1216.13 L2805.29 1213.04 L2825.83 1210.19 L2846.50 1207.34 L2867.16 1204.50 L2887.83 1201.90 L2908.37 1199.17 L2929.04 1196.70 L2949.70 1194.10 L2970.37 1191.75 L2990.91 1189.40 L3011.58 1187.05 L3032.25 1184.82 L3052.91 1182.59 L3073.45 1180.49 L3094.12 1178.38 L3114.79 1176.28 L3135.45 1174.30 L3156.00 1172.32 L3176.66 1170.46 L3197.33 1168.48 L3217.99 1166.63 L3238.54 1164.90 L3259.20 1163.04 L3279.87 1161.31 L3300.54 1159.70 L3321.08 1157.96 L3341.74 1156.36 L3362.41 1154.75 L3383.08 1153.14 L3403.62 1151.53 L3424.29 1150.04 L3444.95 1148.44 L3465.62 1146.95 L3486.16 1145.47 L3506.83 1143.98 L3527.49 1142.62 L3548.16 1141.13 L3568.70 1139.77 L3589.37 1138.41 L3610.03 1136.93 L3630.70 1135.57 L3651.24 1134.20 L3671.91 1132.84 L3692.58 1131.61 L3713.24 1130.24 L3733.78 1128.88 L3733.78 946.84 L3713.24 948.33 L3692.58 949.81 L3671.91 951.42 L3651.24 952.90 L3630.70 954.39 L3610.03 956.00 L3589.37 957.48 L3568.70 959.09 L3548.16 960.70 L3527.49 962.31 L3506.83 963.92 L3486.16 965.53 L3465.62 967.14 L3444.95 968.87 L3424.29 970.48 L3403.62 972.21 L3383.08 973.94 L3362.41 975.68 L3341.74 977.53 L3321.08 979.39 L3300.54 981.12 L3279.87 983.10 L3259.20 984.96 L3238.54 986.94 L3217.99 988.92 L3197.33 990.90 L3176.66 993.00 L3156.00 995.10 L3135.45 997.21 L3114.79 999.44 L3094.12 1001.66 L3073.45 1003.89 L3052.91 1006.24 L3032.25 1008.72 L3011.58 1011.19 L2990.91 1013.67 L2970.37 1016.27 L2949.70 1018.87 L2929.04 1021.59 L2908.37 1024.43 L2887.83 1027.28 L2867.16 1030.25 L2846.50 1033.22 L2825.83 1036.44 L2805.29 1039.66 L2784.62 1042.87 L2763.96 1046.34 L2743.29 1049.80 L2722.75 1053.39 L2702.08 1057.11 L2681.41 1060.94 L2660.75 1064.90 L2640.21 1068.99 L2619.54 1073.19 L2598.87 1077.52 L2578.21 1081.98 L2557.66 1086.56 L2537.00 1091.26 L2516.33 1096.21 L2495.67 1101.29 L2475.12 1106.48 L2454.46 1111.93 L2433.79 1117.50 L2413.13 1123.19 L2392.58 1129.13 L2371.92 1135.32 L2351.25 1141.63 L2330.58 1148.19 L2310.04 1154.99 L2289.38 1161.93 L2268.71 1169.23 L2248.04 1176.65 L2227.50 1184.32 L2206.83 1192.24 L2186.17 1200.54 L2165.50 1208.95 L2144.96 1217.74 L2124.29 1226.77 L2103.63 1236.18 L2082.96 1245.83 L2062.42 1255.73 L2041.75 1266.00 L2021.09 1276.64 L2000.42 1287.54 L1979.88 1298.92 L1959.21 1310.55 L1938.54 1322.56 L1917.88 1334.93 L1897.34 1347.68 L1876.67 1360.80 L1856.00 1374.41 L1835.34 1388.52 L1814.79 1403.00 L1794.13 1417.97 L1773.46 1433.44 L1752.80 1449.41 L1732.25 1465.99 L1711.59 1483.07 L1690.92 1500.76 L1670.25 1519.08 L1649.71 1537.89 L1629.05 1557.44 L1608.38 1577.61 L1587.71 1598.40 L1567.17 1619.81 L1546.50 1641.97 L1525.84 1664.74 L1505.17 1688.13 L1484.63 1712.26 L1463.96 1736.76 L1443.30 1761.88 L1422.63 1787.50 L1402.09 1813.37 L1381.42 1839.48 L1360.76 1865.96 L1340.09 1892.44 L1319.55 1919.17 L1298.88 1945.78 L1278.21 1972.51 L1257.55 1999.12 L1237.01 2025.60 L1216.34 2051.96 L1195.67 2077.95 L1175.01 2103.69 L1154.46 2128.94 L1133.80 2153.69 L1113.13 2177.82 L1092.46 2201.33 L1071.92 2223.98 L1051.26 2245.64 L1030.59 2266.43 L1009.92 2285.98 L989.38 2304.54 L968.72 2321.75 L948.05 2337.71 L927.38 2352.44 L906.84 2365.93 L886.17 2378.18 L865.51 2389.07 L844.84 2398.84 L824.30 2407.51 L803.63 2414.93 L782.97 2421.37 L762.30 2426.94 L741.76 2431.39 L721.09 2435.10 L700.42 2438.07 L679.76 2440.43 L659.22 2442.16 L638.55 2443.40 L617.88 2444.26 L597.22 2444.88 L576.67 2445.38 L556.01 2445.62 L535.34 2445.75 L514.68 2445.87 L514.68 2445.87 Z" stroke-linejoin="round"/>
	</defs>
	<defs>
		<clipPath id="clipPath_FXmnxMbM">
			<use xlink:href="#path_LnaUZfem"/>
		</clipPath>
	</defs>
	<use xlink:href="#path_LnaUZfem" style="stroke:none;fill:#FF3333;fill-opacity:0.25"/>
	<use xlink:href="#path_LnaUZfem" style="fill:none;stroke:#FF0000;stroke-opacity:0.25;stroke-width:17.28" clip-path="url(#clipPath_FXmnxMbM)"/>
	<defs>
		<path id="path_OhrvBYTQ" d="M514.68 2445.87 L514.68 2445.87 L535.34 2445.87 L556.01 2445.87 L576.67 2445.87 L597.22 2445.87 L617.88 2445.75 L638.55 2445.62 L659.22 2445.38 L679.76 2444.88 L700.42 2444.14 L721.09 2442.90 L741.76 2441.29 L762.30 2438.94 L782.97 2435.97 L803.63 2432.26 L824.30 2427.56 L844.84 2422.11 L865.51 2415.55 L886.17 2408.13 L906.84 2399.59 L927.38 2390.18 L948.05 2379.79 L968.72 2368.53 L989.38 2356.40 L1009.92 2343.28 L1030.59 2329.42 L1051.26 2314.82 L1071.92 2299.35 L1092.46 2283.26 L1113.13 2266.55 L1133.80 2249.23 L1154.46 2231.28 L1175.01 2212.84 L1195.67 2193.91 L1216.34 2174.73 L1237.01 2155.05 L1257.55 2135.25 L1278.21 2115.20 L1298.88 2095.15 L1319.55 2074.98 L1340.09 2054.81 L1360.76 2034.88 L1381.42 2015.08 L1402.09 1995.53 L1422.63 1976.23 L1443.30 1957.17 L1463.96 1938.48 L1484.63 1920.29 L1505.17 1902.47 L1525.84 1885.02 L1546.50 1868.06 L1567.17 1851.61 L1587.71 1835.64 L1608.38 1820.05 L1629.05 1804.83 L1649.71 1790.10 L1670.25 1775.87 L1690.92 1762.01 L1711.59 1748.64 L1732.25 1735.65 L1752.80 1723.15 L1773.46 1710.90 L1794.13 1699.14 L1814.79 1687.76 L1835.34 1676.62 L1856.00 1665.97 L1876.67 1655.58 L1897.34 1645.68 L1917.88 1635.90 L1938.54 1626.62 L1959.21 1617.46 L1979.88 1608.68 L2000.42 1600.14 L2021.09 1591.97 L2041.75 1583.93 L2062.42 1576.25 L2082.96 1568.83 L2103.63 1561.53 L2124.29 1554.47 L2144.96 1547.79 L2165.50 1541.23 L2186.17 1534.80 L2206.83 1528.73 L2227.50 1522.79 L2248.04 1516.97 L2268.71 1511.41 L2289.38 1505.96 L2310.04 1500.76 L2330.58 1495.69 L2351.25 1490.86 L2371.92 1486.04 L2392.58 1481.46 L2413.13 1477.00 L2433.79 1472.67 L2454.46 1468.59 L2475.12 1464.50 L2495.67 1460.54 L2516.33 1456.83 L2537.00 1453.12 L2557.66 1449.53 L2578.21 1446.06 L2598.87 1442.72 L2619.54 1439.50 L2640.21 1436.29 L2660.75 1433.19 L2681.41 1430.22 L2702.08 1427.38 L2722.75 1424.53 L2743.29 1421.81 L2763.96 1419.21 L2784.62 1416.61 L2805.29 1414.14 L2825.83 1411.66 L2846.50 1409.31 L2867.16 1407.08 L2887.83 1404.85 L2908.37 1402.63 L2929.04 1400.52 L2949.70 1398.42 L2970.37 1396.44 L2990.91 1394.46 L3011.58 1392.60 L3032.25 1390.75 L3052.91 1388.89 L3073.45 1387.16 L3094.12 1385.42 L3114.79 1383.69 L3135.45 1381.96 L3156.00 1380.35 L3176.66 1378.74 L3197.33 1377.26 L3217.99 1375.77 L3238.54 1374.16 L3259.20 1372.80 L3279.87 1371.32 L3300.54 1369.83 L3321.08 1368.47 L3341.74 1367.11 L3362.41 1365.75 L3383.08 1364.51 L3403.62 1363.15 L3424.29 1361.91 L3444.95 1360.67 L3465.62 1359.31 L3486.16 1358.07 L3506.83 1356.96 L3527.49 1355.72 L3548.16 1354.49 L3568.70 1353.37 L3589.37 1352.13 L3610.03 1351.02 L3630.70 1349.91 L3651.24 1348.79 L3671.91 1347.68 L3692.58 1346.57 L3713.24 1345.45 L3733.78 1344.34 L3733.78 973.57 L3713.24 975.06 L3692.58 976.54 L3671.91 978.03 L3651.24 979.51 L3630.70 981.00 L3610.03 982.61 L3589.37 984.09 L3568.70 985.70 L3548.16 987.18 L3527.49 988.79 L3506.83 990.40 L3486.16 992.01 L3465.62 993.62 L3444.95 995.23 L3424.29 996.96 L3403.62 998.69 L3383.08 1000.30 L3362.41 1002.16 L3341.74 1003.89 L3321.08 1005.62 L3300.54 1007.48 L3279.87 1009.34 L3259.20 1011.19 L3238.54 1013.17 L3217.99 1015.15 L3197.33 1017.13 L3176.66 1019.24 L3156.00 1021.22 L3135.45 1023.44 L3114.79 1025.55 L3094.12 1027.78 L3073.45 1030.13 L3052.91 1032.48 L3032.25 1034.83 L3011.58 1037.30 L2990.91 1039.78 L2970.37 1042.38 L2949.70 1044.98 L2929.04 1047.70 L2908.37 1050.42 L2887.83 1053.27 L2867.16 1056.24 L2846.50 1059.21 L2825.83 1062.30 L2805.29 1065.52 L2784.62 1068.74 L2763.96 1072.20 L2743.29 1075.67 L2722.75 1079.26 L2702.08 1082.85 L2681.41 1086.68 L2660.75 1090.64 L2640.21 1094.60 L2619.54 1098.81 L2598.87 1103.02 L2578.21 1107.47 L2557.66 1112.05 L2537.00 1116.75 L2516.33 1121.58 L2495.67 1126.66 L2475.12 1131.73 L2454.46 1137.17 L2433.79 1142.62 L2413.13 1148.31 L2392.58 1154.25 L2371.92 1160.32 L2351.25 1166.50 L2330.58 1173.06 L2310.04 1179.75 L2289.38 1186.55 L2268.71 1193.73 L2248.04 1201.16 L2227.50 1208.70 L2206.83 1216.62 L2186.17 1224.67 L2165.50 1233.08 L2144.96 1241.75 L2124.29 1250.78 L2103.63 1259.94 L2082.96 1269.47 L2062.42 1279.37 L2041.75 1289.52 L2021.09 1300.03 L2000.42 1310.92 L1979.88 1322.06 L1959.21 1333.57 L1938.54 1345.45 L1917.88 1357.83 L1897.34 1370.45 L1876.67 1383.57 L1856.00 1397.06 L1835.34 1411.04 L1814.79 1425.40 L1794.13 1440.37 L1773.46 1455.72 L1752.80 1471.68 L1732.25 1488.14 L1711.59 1505.09 L1690.92 1522.67 L1670.25 1540.74 L1649.71 1559.42 L1629.05 1578.73 L1608.38 1598.65 L1587.71 1619.20 L1567.17 1640.36 L1546.50 1662.26 L1525.84 1684.66 L1505.17 1707.68 L1484.63 1731.44 L1463.96 1755.57 L1443.30 1780.32 L1422.63 1805.45 L1402.09 1830.94 L1381.42 1856.80 L1360.76 1882.79 L1340.09 1909.03 L1319.55 1935.39 L1298.88 1961.75 L1278.21 1988.11 L1257.55 2014.34 L1237.01 2040.33 L1216.34 2066.19 L1195.67 2091.69 L1175.01 2116.81 L1154.46 2141.44 L1133.80 2165.57 L1113.13 2189.08 L1092.46 2211.85 L1071.92 2233.76 L1051.26 2254.80 L1030.59 2274.72 L1009.92 2293.78 L989.38 2311.60 L968.72 2328.18 L948.05 2343.65 L927.38 2357.76 L906.84 2370.63 L886.17 2382.39 L865.51 2392.78 L844.84 2402.06 L824.30 2410.11 L803.63 2417.16 L782.97 2423.22 L762.30 2428.30 L741.76 2432.51 L721.09 2435.97 L700.42 2438.69 L679.76 2440.92 L659.22 2442.53 L638.55 2443.64 L617.88 2444.51 L597.22 2445.01 L576.67 2445.38 L556.01 2445.62 L535.34 2445.75 L514.68 2445.87 L514.68 2445.87 Z" stroke-linejoin="round"/>
	</defs>
	<defs>
		<clipPath id="clipPath_eQfIGuBA">
			<use xlink:href="#path_OhrvBYTQ"/>
		</clipPath>
	</defs>
	<use xlink:href="#path_OhrvBYTQ" style="stroke:none;fill:#3333FF;fill-opacity:0.25"/>
	<use xlink:href="#path_OhrvBYTQ" style="fill:none;stroke:#0000FF;stroke-opacity:0.25;stroke-width:17.28" clip-path="url(#clipPath_eQfIGuBA)"/>
	<path d=" M494.01 2445.87 L514.68 2445.87 L535.34 2445.87 L555.88 2445.87 L576.55 2445.87 L597.22 2445.75 L617.88 2445.62 L638.43 2445.13 L659.09 2444.51 L679.76 2443.52 L700.42 2442.04 L720.97 2440.06 L741.63 2437.33 L762.30 2433.87 L782.97 2429.41 L803.51 2424.09 L824.17 2417.78 L844.84 2410.23 L865.51 2401.69 L886.05 2391.79 L906.72 2380.90 L927.38 2368.65 L948.05 2355.28 L968.59 2340.68 L989.26 2324.96 L1009.92 2308.01 L1030.59 2290.19 L1051.13 2271.25 L1071.80 2251.33 L1092.46 2230.66 L1113.13 2209.13 L1133.67 2186.85 L1154.34 2163.84 L1175.01 2140.32 L1195.67 2116.31 L1216.21 2091.81 L1236.88 2066.94 L1257.55 2041.82 L1278.21 2016.57 L1298.76 1991.08 L1319.42 1965.71 L1340.09 1940.34 L1360.76 1915.09 L1381.30 1889.97 L1401.96 1865.22 L1422.63 1840.72 L1443.30 1816.58 L1463.84 1792.82 L1484.51 1769.68 L1505.17 1747.03 L1525.84 1724.88 L1546.38 1703.35 L1567.05 1682.43 L1587.71 1662.14 L1608.38 1642.34 L1628.92 1623.28 L1649.59 1604.59 L1670.25 1586.65 L1690.92 1569.20 L1711.46 1552.24 L1732.13 1535.91 L1752.80 1519.94 L1773.46 1504.60 L1794.00 1489.75 L1814.67 1475.39 L1835.34 1461.41 L1856.00 1447.92 L1876.55 1434.93 L1897.21 1422.30 L1917.88 1410.05 L1938.54 1398.29 L1959.09 1386.79 L1979.75 1375.65 L2000.42 1364.88 L2021.09 1354.49 L2041.63 1344.34 L2062.29 1334.56 L2082.96 1325.16 L2103.63 1316.00 L2124.17 1307.09 L2144.84 1298.55 L2165.50 1290.26 L2186.17 1282.09 L2206.71 1274.29 L2227.38 1266.74 L2248.04 1259.44 L2268.71 1252.39 L2289.25 1245.58 L2309.92 1238.90 L2330.58 1232.59 L2351.25 1226.28 L2371.79 1220.34 L2392.46 1214.52 L2413.13 1208.83 L2433.79 1203.38 L2454.33 1198.06 L2475.00 1192.99 L2495.67 1188.04 L2516.33 1183.21 L2536.88 1178.51 L2557.54 1174.05 L2578.21 1169.60 L2598.87 1165.39 L2619.42 1161.31 L2640.08 1157.22 L2660.75 1153.39 L2681.41 1149.67 L2701.96 1145.96 L2722.62 1142.50 L2743.29 1139.03 L2763.96 1135.69 L2784.50 1132.47 L2805.16 1129.25 L2825.83 1126.16 L2846.50 1123.19 L2867.04 1120.34 L2887.71 1117.50 L2908.37 1114.77 L2929.04 1112.05 L2949.58 1109.45 L2970.25 1106.98 L2990.91 1104.50 L3011.58 1102.03 L3032.12 1099.68 L3052.79 1097.33 L3073.45 1095.10 L3094.12 1092.99 L3114.66 1090.77 L3135.33 1088.66 L3156.00 1086.68 L3176.66 1084.58 L3197.20 1082.72 L3217.87 1080.74 L3238.54 1078.89 L3259.20 1077.03 L3279.75 1075.17 L3300.41 1073.32 L3321.08 1071.58 L3341.74 1069.85 L3362.29 1068.24 L3382.95 1066.51 L3403.62 1064.90 L3424.29 1063.29 L3444.83 1061.68 L3465.49 1060.08 L3486.16 1058.47 L3506.83 1056.98 L3527.37 1055.37 L3548.04 1053.89 L3568.70 1052.40 L3589.37 1050.92 L3609.91 1049.43 L3630.58 1048.07 L3651.24 1046.59 L3671.91 1045.10 L3692.45 1043.74 L3713.12 1042.26 L3733.78 1040.89" stroke-linejoin="round" style="fill:none;stroke:#FF0000;stroke-width:8.64"/>
	<line x1="494.01" y1="2445.87" x2="514.68" y2="2445.87" style="stroke:#0000FF;stroke-width:8.64"/>
	<line x1="514.68" y1="2445.87" x2="535.34" y2="2445.87" style="stroke:#0000FF;stroke-width:8.64"/>
	<line x1="535.34" y1="2445.87" x2="551.55" y2="2445.87" style="stroke:#0000FF;stroke-width:8.64"/>
	<line x1="580.39" y1="2445.87" x2="597.22" y2="2445.75" style="stroke:#0000FF;stroke-width:8.64"/>
	<line x1="597.22" y1="2445.75" x2="617.88" y2="2445.62" style="stroke:#0000FF;stroke-width:8.64"/>
	<line x1="617.88" y1="2445.62" x2="637.93" y2="2445.25" style="stroke:#0000FF;stroke-width:8.64"/>
	<line x1="666.76" y1="2444.39" x2="679.76" y2="2443.77" style="stroke:#0000FF;stroke-width:8.64"/>
	<line x1="679.76" y1="2443.77" x2="700.42" y2="2442.41" style="stroke:#0000FF;stroke-width:8.64"/>
	<line x1="700.42" y1="2442.41" x2="720.97" y2="2440.55" style="stroke:#0000FF;stroke-width:8.64"/>
	<line x1="720.97" y1="2440.55" x2="724.31" y2="2440.18" style="stroke:#0000FF;stroke-width:8.64"/>
	<line x1="752.77" y1="2436.47" x2="762.30" y2="2434.98" style="stroke:#0000FF;stroke-width:8.64"/>
	<line x1="762.30" y1="2434.98" x2="782.97" y2="2431.02" style="stroke:#0000FF;stroke-width:8.64"/>
	<line x1="782.97" y1="2431.02" x2="803.51" y2="2426.19" style="stroke:#0000FF;stroke-width:8.64"/>
	<line x1="803.51" y1="2426.19" x2="809.08" y2="2424.59" style="stroke:#0000FF;stroke-width:8.64"/>
	<line x1="836.67" y1="2416.29" x2="844.84" y2="2413.57" style="stroke:#0000FF;stroke-width:8.64"/>
	<line x1="844.84" y1="2413.57" x2="865.51" y2="2405.78" style="stroke:#0000FF;stroke-width:8.64"/>
	<line x1="865.51" y1="2405.78" x2="886.05" y2="2396.99" style="stroke:#0000FF;stroke-width:8.64"/>
	<line x1="886.05" y1="2396.99" x2="890.26" y2="2395.01" style="stroke:#0000FF;stroke-width:8.64"/>
	<line x1="916.00" y1="2382.01" x2="927.38" y2="2375.95" style="stroke:#0000FF;stroke-width:8.64"/>
	<line x1="927.38" y1="2375.95" x2="948.05" y2="2363.70" style="stroke:#0000FF;stroke-width:8.64"/>
	<line x1="948.05" y1="2363.70" x2="965.50" y2="2352.56" style="stroke:#0000FF;stroke-width:8.64"/>
	<line x1="989.26" y1="2336.35" x2="989.26" y2="2336.23" style="stroke:#0000FF;stroke-width:8.64"/>
	<line x1="989.26" y1="2336.23" x2="1009.92" y2="2321.00" style="stroke:#0000FF;stroke-width:8.64"/>
	<line x1="1009.92" y1="2321.00" x2="1030.59" y2="2304.79" style="stroke:#0000FF;stroke-width:8.64"/>
	<line x1="1030.59" y1="2304.79" x2="1034.92" y2="2301.20" style="stroke:#0000FF;stroke-width:8.64"/>
	<line x1="1056.95" y1="2282.64" x2="1071.80" y2="2269.65" style="stroke:#0000FF;stroke-width:8.64"/>
	<line x1="1071.80" y1="2269.65" x2="1092.46" y2="2250.84" style="stroke:#0000FF;stroke-width:8.64"/>
	<line x1="1092.46" y1="2250.84" x2="1099.64" y2="2244.03" style="stroke:#0000FF;stroke-width:8.64"/>
	<line x1="1120.56" y1="2224.10" x2="1133.67" y2="2211.11" style="stroke:#0000FF;stroke-width:8.64"/>
	<line x1="1133.67" y1="2211.11" x2="1154.34" y2="2190.32" style="stroke:#0000FF;stroke-width:8.64"/>
	<line x1="1154.34" y1="2190.32" x2="1161.15" y2="2183.39" style="stroke:#0000FF;stroke-width:8.64"/>
	<line x1="1181.07" y1="2162.60" x2="1195.67" y2="2147.25" style="stroke:#0000FF;stroke-width:8.64"/>
	<line x1="1195.67" y1="2147.25" x2="1216.21" y2="2124.98" style="stroke:#0000FF;stroke-width:8.64"/>
	<line x1="1216.21" y1="2124.98" x2="1220.30" y2="2120.52" style="stroke:#0000FF;stroke-width:8.64"/>
	<line x1="1239.85" y1="2099.36" x2="1257.55" y2="2079.81" style="stroke:#0000FF;stroke-width:8.64"/>
	<line x1="1257.55" y1="2079.81" x2="1278.21" y2="2056.91" style="stroke:#0000FF;stroke-width:8.64"/>
	<line x1="1278.21" y1="2056.91" x2="1278.46" y2="2056.67" style="stroke:#0000FF;stroke-width:8.64"/>
	<line x1="1297.64" y1="2035.13" x2="1298.76" y2="2033.77" style="stroke:#0000FF;stroke-width:8.64"/>
	<line x1="1298.76" y1="2033.77" x2="1319.42" y2="2010.75" style="stroke:#0000FF;stroke-width:8.64"/>
	<line x1="1319.42" y1="2010.75" x2="1336.01" y2="1992.31" style="stroke:#0000FF;stroke-width:8.64"/>
	<line x1="1355.31" y1="1970.90" x2="1360.76" y2="1964.84" style="stroke:#0000FF;stroke-width:8.64"/>
	<line x1="1360.76" y1="1964.84" x2="1381.30" y2="1942.19" style="stroke:#0000FF;stroke-width:8.64"/>
	<line x1="1381.30" y1="1942.19" x2="1394.04" y2="1928.33" style="stroke:#0000FF;stroke-width:8.64"/>
	<line x1="1413.60" y1="1907.17" x2="1422.63" y2="1897.52" style="stroke:#0000FF;stroke-width:8.64"/>
	<line x1="1422.63" y1="1897.52" x2="1443.30" y2="1875.61" style="stroke:#0000FF;stroke-width:8.64"/>
	<line x1="1443.30" y1="1875.61" x2="1453.20" y2="1865.34" style="stroke:#0000FF;stroke-width:8.64"/>
	<line x1="1473.24" y1="1844.55" x2="1484.51" y2="1833.17" style="stroke:#0000FF;stroke-width:8.64"/>
	<line x1="1484.51" y1="1833.17" x2="1505.17" y2="1812.62" style="stroke:#0000FF;stroke-width:8.64"/>
	<line x1="1505.17" y1="1812.62" x2="1514.08" y2="1803.96" style="stroke:#0000FF;stroke-width:8.64"/>
	<line x1="1534.87" y1="1783.91" x2="1546.38" y2="1773.02" style="stroke:#0000FF;stroke-width:8.64"/>
	<line x1="1546.38" y1="1773.02" x2="1567.05" y2="1754.09" style="stroke:#0000FF;stroke-width:8.64"/>
	<line x1="1567.05" y1="1754.09" x2="1577.32" y2="1744.93" style="stroke:#0000FF;stroke-width:8.64"/>
	<line x1="1598.97" y1="1725.87" x2="1608.38" y2="1717.70" style="stroke:#0000FF;stroke-width:8.64"/>
	<line x1="1608.38" y1="1717.70" x2="1628.92" y2="1700.38" style="stroke:#0000FF;stroke-width:8.64"/>
	<line x1="1628.92" y1="1700.38" x2="1643.03" y2="1688.87" style="stroke:#0000FF;stroke-width:8.64"/>
	<line x1="1665.55" y1="1670.92" x2="1670.25" y2="1667.21" style="stroke:#0000FF;stroke-width:8.64"/>
	<line x1="1670.25" y1="1667.21" x2="1690.92" y2="1651.37" style="stroke:#0000FF;stroke-width:8.64"/>
	<line x1="1690.92" y1="1651.37" x2="1711.34" y2="1636.15" style="stroke:#0000FF;stroke-width:8.64"/>
	<line x1="1734.73" y1="1619.32" x2="1752.80" y2="1606.82" style="stroke:#0000FF;stroke-width:8.64"/>
	<line x1="1752.80" y1="1606.82" x2="1773.46" y2="1592.84" style="stroke:#0000FF;stroke-width:8.64"/>
	<line x1="1773.46" y1="1592.84" x2="1782.37" y2="1587.02" style="stroke:#0000FF;stroke-width:8.64"/>
	<line x1="1806.63" y1="1571.43" x2="1814.67" y2="1566.35" style="stroke:#0000FF;stroke-width:8.64"/>
	<line x1="1814.67" y1="1566.35" x2="1835.34" y2="1553.73" style="stroke:#0000FF;stroke-width:8.64"/>
	<line x1="1835.34" y1="1553.73" x2="1855.88" y2="1541.60" style="stroke:#0000FF;stroke-width:8.64"/>
	<line x1="1880.88" y1="1527.37" x2="1897.21" y2="1518.21" style="stroke:#0000FF;stroke-width:8.64"/>
	<line x1="1897.21" y1="1518.21" x2="1917.88" y2="1507.20" style="stroke:#0000FF;stroke-width:8.64"/>
	<line x1="1917.88" y1="1507.20" x2="1931.61" y2="1500.02" style="stroke:#0000FF;stroke-width:8.64"/>
	<line x1="1957.23" y1="1486.90" x2="1959.09" y2="1486.04" style="stroke:#0000FF;stroke-width:8.64"/>
	<line x1="1959.09" y1="1486.04" x2="1979.75" y2="1476.01" style="stroke:#0000FF;stroke-width:8.64"/>
	<line x1="1979.75" y1="1476.01" x2="2000.42" y2="1466.24" style="stroke:#0000FF;stroke-width:8.64"/>
	<line x1="2000.42" y1="1466.24" x2="2009.20" y2="1462.28" style="stroke:#0000FF;stroke-width:8.64"/>
	<line x1="2035.44" y1="1450.40" x2="2041.63" y2="1447.67" style="stroke:#0000FF;stroke-width:8.64"/>
	<line x1="2041.63" y1="1447.67" x2="2062.29" y2="1438.76" style="stroke:#0000FF;stroke-width:8.64"/>
	<line x1="2062.29" y1="1438.76" x2="2082.96" y2="1430.22" style="stroke:#0000FF;stroke-width:8.64"/>
	<line x1="2082.96" y1="1430.22" x2="2088.53" y2="1428.00" style="stroke:#0000FF;stroke-width:8.64"/>
	<line x1="2115.26" y1="1417.23" x2="2124.17" y2="1413.76" style="stroke:#0000FF;stroke-width:8.64"/>
	<line x1="2124.17" y1="1413.76" x2="2144.84" y2="1405.97" style="stroke:#0000FF;stroke-width:8.64"/>
	<line x1="2144.84" y1="1405.97" x2="2165.50" y2="1398.42" style="stroke:#0000FF;stroke-width:8.64"/>
	<line x1="2165.50" y1="1398.42" x2="2169.21" y2="1397.06" style="stroke:#0000FF;stroke-width:8.64"/>
	<line x1="2196.44" y1="1387.53" x2="2206.71" y2="1384.06" style="stroke:#0000FF;stroke-width:8.64"/>
	<line x1="2206.71" y1="1384.06" x2="2227.38" y2="1377.26" style="stroke:#0000FF;stroke-width:8.64"/>
	<line x1="2227.38" y1="1377.26" x2="2248.04" y2="1370.70" style="stroke:#0000FF;stroke-width:8.64"/>
	<line x1="2248.04" y1="1370.70" x2="2251.14" y2="1369.71" style="stroke:#0000FF;stroke-width:8.64"/>
	<line x1="2278.73" y1="1361.29" x2="2289.25" y2="1358.07" style="stroke:#0000FF;stroke-width:8.64"/>
	<line x1="2289.25" y1="1358.07" x2="2309.92" y2="1352.01" style="stroke:#0000FF;stroke-width:8.64"/>
	<line x1="2309.92" y1="1352.01" x2="2330.58" y2="1346.19" style="stroke:#0000FF;stroke-width:8.64"/>
	<line x1="2330.58" y1="1346.19" x2="2334.05" y2="1345.33" style="stroke:#0000FF;stroke-width:8.64"/>
	<line x1="2361.89" y1="1337.78" x2="2371.79" y2="1335.06" style="stroke:#0000FF;stroke-width:8.64"/>
	<line x1="2371.79" y1="1335.06" x2="2392.46" y2="1329.86" style="stroke:#0000FF;stroke-width:8.64"/>
	<line x1="2392.46" y1="1329.86" x2="2413.13" y2="1324.66" style="stroke:#0000FF;stroke-width:8.64"/>
	<line x1="2413.13" y1="1324.66" x2="2417.70" y2="1323.55" style="stroke:#0000FF;stroke-width:8.64"/>
	<line x1="2445.80" y1="1316.99" x2="2454.33" y2="1315.01" style="stroke:#0000FF;stroke-width:8.64"/>
	<line x1="2454.33" y1="1315.01" x2="2475.00" y2="1310.31" style="stroke:#0000FF;stroke-width:8.64"/>
	<line x1="2475.00" y1="1310.31" x2="2495.67" y2="1305.85" style="stroke:#0000FF;stroke-width:8.64"/>
	<line x1="2495.67" y1="1305.85" x2="2501.98" y2="1304.49" style="stroke:#0000FF;stroke-width:8.64"/>
	<line x1="2530.19" y1="1298.55" x2="2536.88" y2="1297.19" style="stroke:#0000FF;stroke-width:8.64"/>
	<line x1="2536.88" y1="1297.19" x2="2557.54" y2="1293.10" style="stroke:#0000FF;stroke-width:8.64"/>
	<line x1="2557.54" y1="1293.10" x2="2578.21" y2="1289.14" style="stroke:#0000FF;stroke-width:8.64"/>
	<line x1="2578.21" y1="1289.14" x2="2586.62" y2="1287.54" style="stroke:#0000FF;stroke-width:8.64"/>
	<line x1="2615.09" y1="1282.34" x2="2619.42" y2="1281.60" style="stroke:#0000FF;stroke-width:8.64"/>
	<line x1="2619.42" y1="1281.60" x2="2640.08" y2="1278.01" style="stroke:#0000FF;stroke-width:8.64"/>
	<line x1="2640.08" y1="1278.01" x2="2660.75" y2="1274.42" style="stroke:#0000FF;stroke-width:8.64"/>
	<line x1="2660.75" y1="1274.42" x2="2671.89" y2="1272.56" style="stroke:#0000FF;stroke-width:8.64"/>
	<line x1="2700.35" y1="1267.98" x2="2701.96" y2="1267.73" style="stroke:#0000FF;stroke-width:8.64"/>
	<line x1="2701.96" y1="1267.73" x2="2722.62" y2="1264.52" style="stroke:#0000FF;stroke-width:8.64"/>
	<line x1="2722.62" y1="1264.52" x2="2743.29" y2="1261.42" style="stroke:#0000FF;stroke-width:8.64"/>
	<line x1="2743.29" y1="1261.42" x2="2757.15" y2="1259.32" style="stroke:#0000FF;stroke-width:8.64"/>
	<line x1="2785.74" y1="1255.24" x2="2805.16" y2="1252.51" style="stroke:#0000FF;stroke-width:8.64"/>
	<line x1="2805.16" y1="1252.51" x2="2825.83" y2="1249.79" style="stroke:#0000FF;stroke-width:8.64"/>
	<line x1="2825.83" y1="1249.79" x2="2842.91" y2="1247.56" style="stroke:#0000FF;stroke-width:8.64"/>
	<line x1="2871.37" y1="1243.97" x2="2887.71" y2="1241.87" style="stroke:#0000FF;stroke-width:8.64"/>
	<line x1="2887.71" y1="1241.87" x2="2908.37" y2="1239.39" style="stroke:#0000FF;stroke-width:8.64"/>
	<line x1="2908.37" y1="1239.39" x2="2928.54" y2="1236.92" style="stroke:#0000FF;stroke-width:8.64"/>
	<line x1="2957.25" y1="1233.70" x2="2970.25" y2="1232.34" style="stroke:#0000FF;stroke-width:8.64"/>
	<line x1="2970.25" y1="1232.34" x2="2990.91" y2="1230.11" style="stroke:#0000FF;stroke-width:8.64"/>
	<line x1="2990.91" y1="1230.11" x2="3011.58" y2="1227.89" style="stroke:#0000FF;stroke-width:8.64"/>
	<line x1="3011.58" y1="1227.89" x2="3014.43" y2="1227.64" style="stroke:#0000FF;stroke-width:8.64"/>
	<line x1="3043.14" y1="1224.67" x2="3052.79" y2="1223.68" style="stroke:#0000FF;stroke-width:8.64"/>
	<line x1="3052.79" y1="1223.68" x2="3073.45" y2="1221.57" style="stroke:#0000FF;stroke-width:8.64"/>
	<line x1="3073.45" y1="1221.57" x2="3094.12" y2="1219.59" style="stroke:#0000FF;stroke-width:8.64"/>
	<line x1="3094.12" y1="1219.59" x2="3100.31" y2="1218.98" style="stroke:#0000FF;stroke-width:8.64"/>
	<line x1="3129.02" y1="1216.38" x2="3135.33" y2="1215.76" style="stroke:#0000FF;stroke-width:8.64"/>
	<line x1="3135.33" y1="1215.76" x2="3156.00" y2="1213.90" style="stroke:#0000FF;stroke-width:8.64"/>
	<line x1="3156.00" y1="1213.90" x2="3176.66" y2="1212.05" style="stroke:#0000FF;stroke-width:8.64"/>
	<line x1="3176.66" y1="1212.05" x2="3186.44" y2="1211.18" style="stroke:#0000FF;stroke-width:8.64"/>
	<line x1="3215.15" y1="1208.83" x2="3217.87" y2="1208.58" style="stroke:#0000FF;stroke-width:8.64"/>
	<line x1="3217.87" y1="1208.58" x2="3238.54" y2="1206.85" style="stroke:#0000FF;stroke-width:8.64"/>
	<line x1="3238.54" y1="1206.85" x2="3259.20" y2="1205.12" style="stroke:#0000FF;stroke-width:8.64"/>
	<line x1="3259.20" y1="1205.12" x2="3272.57" y2="1204.13" style="stroke:#0000FF;stroke-width:8.64"/>
	<line x1="3301.28" y1="1201.77" x2="3321.08" y2="1200.29" style="stroke:#0000FF;stroke-width:8.64"/>
	<line x1="3321.08" y1="1200.29" x2="3341.74" y2="1198.68" style="stroke:#0000FF;stroke-width:8.64"/>
	<line x1="3341.74" y1="1198.68" x2="3358.70" y2="1197.44" style="stroke:#0000FF;stroke-width:8.64"/>
	<line x1="3387.41" y1="1195.46" x2="3403.62" y2="1194.22" style="stroke:#0000FF;stroke-width:8.64"/>
	<line x1="3403.62" y1="1194.22" x2="3424.29" y2="1192.74" style="stroke:#0000FF;stroke-width:8.64"/>
	<line x1="3424.29" y1="1192.74" x2="3444.83" y2="1191.25" style="stroke:#0000FF;stroke-width:8.64"/>
	<line x1="3473.54" y1="1189.15" x2="3486.16" y2="1188.41" style="stroke:#0000FF;stroke-width:8.64"/>
	<line x1="3486.16" y1="1188.41" x2="3506.83" y2="1186.92" style="stroke:#0000FF;stroke-width:8.64"/>
	<line x1="3506.83" y1="1186.92" x2="3527.37" y2="1185.56" style="stroke:#0000FF;stroke-width:8.64"/>
	<line x1="3527.37" y1="1185.56" x2="3531.08" y2="1185.31" style="stroke:#0000FF;stroke-width:8.64"/>
	<line x1="3559.79" y1="1183.46" x2="3568.70" y2="1182.84" style="stroke:#0000FF;stroke-width:8.64"/>
	<line x1="3568.70" y1="1182.84" x2="3589.37" y2="1181.48" style="stroke:#0000FF;stroke-width:8.64"/>
	<line x1="3589.37" y1="1181.48" x2="3609.91" y2="1180.24" style="stroke:#0000FF;stroke-width:8.64"/>
	<line x1="3609.91" y1="1180.24" x2="3617.21" y2="1179.75" style="stroke:#0000FF;stroke-width:8.64"/>
	<line x1="3645.92" y1="1177.89" x2="3651.24" y2="1177.52" style="stroke:#0000FF;stroke-width:8.64"/>
	<line x1="3651.24" y1="1177.52" x2="3671.91" y2="1176.28" style="stroke:#0000FF;stroke-width:8.64"/>
	<line x1="3671.91" y1="1176.28" x2="3692.45" y2="1175.04" style="stroke:#0000FF;stroke-width:8.64"/>
	<line x1="3692.45" y1="1175.04" x2="3703.22" y2="1174.30" style="stroke:#0000FF;stroke-width:8.64"/>
	<line x1="3732.05" y1="1172.57" x2="3733.78" y2="1172.44" style="stroke:#0000FF;stroke-width:8.64"/>
	<path d="" stroke-linejoin="round" style="fill:none;stroke:#0000FF;stroke-width:8.64"/>
	<line x1="430.77" y1="2509.23" x2="430.77" y2="245.40" style="stroke:#000000;stroke-width:5.76"/>
	<line x1="430.77" y1="2445.87" x2="390.80" y2="2445.87" style="stroke:#000000;stroke-width:5.76"/>
	<text x="370.75" y="2473.88" style="font-family:'Helvetica';font-size:79.94px;fill:#000000" text-anchor="end">0.0</text>
	<line x1="430.77" y1="2232.15" x2="390.80" y2="2232.15" style="stroke:#000000;stroke-width:5.76"/>
	<text x="370.75" y="2260.16" style="font-family:'Helvetica';font-size:79.94px;fill:#000000" text-anchor="end">0.1</text>
	<line x1="430.77" y1="2018.43" x2="390.80" y2="2018.43" style="stroke:#000000;stroke-width:5.76"/>
	<text x="370.75" y="2046.44" style="font-family:'Helvetica';font-size:79.94px;fill:#000000" text-anchor="end">0.2</text>
	<line x1="430.77" y1="1804.70" x2="390.80" y2="1804.70" style="stroke:#000000;stroke-width:5.76"/>
	<text x="370.75" y="1832.71" style="font-family:'Helvetica';font-size:79.94px;fill:#000000" text-anchor="end">0.3</text>
	<line x1="430.77" y1="1590.98" x2="390.80" y2="1590.98" style="stroke:#000000;stroke-width:5.76"/>
	<text x="370.75" y="1618.99" style="font-family:'Helvetica';font-size:79.94px;fill:#000000" text-anchor="end">0.4</text>
	<line x1="430.77" y1="1377.26" x2="390.80" y2="1377.26" style="stroke:#000000;stroke-width:5.76"/>
	<text x="370.75" y="1405.27" style="font-family:'Helvetica';font-size:79.94px;fill:#000000" text-anchor="end">0.5</text>
	<line x1="430.77" y1="1163.53" x2="390.80" y2="1163.53" style="stroke:#000000;stroke-width:5.76"/>
	<text x="370.75" y="1191.55" style="font-family:'Helvetica';font-size:79.94px;fill:#000000" text-anchor="end">0.6</text>
	<line x1="430.77" y1="949.81" x2="390.80" y2="949.81" style="stroke:#000000;stroke-width:5.76"/>
	<text x="370.75" y="977.82" style="font-family:'Helvetica';font-size:79.94px;fill:#000000" text-anchor="end">0.7</text>
	<line x1="430.77" y1="736.09" x2="390.80" y2="736.09" style="stroke:#000000;stroke-width:5.76"/>
	<text x="370.75" y="764.10" style="font-family:'Helvetica';font-size:79.94px;fill:#000000" text-anchor="end">0.8</text>
	<line x1="430.77" y1="522.49" x2="390.80" y2="522.49" style="stroke:#000000;stroke-width:5.76"/>
	<text x="370.75" y="550.50" style="font-family:'Helvetica';font-size:79.94px;fill:#000000" text-anchor="end">0.9</text>
	<line x1="430.77" y1="308.77" x2="390.80" y2="308.77" style="stroke:#000000;stroke-width:5.76"/>
	<text x="370.75" y="336.78" style="font-family:'Helvetica';font-size:79.94px;fill:#000000" text-anchor="end">1.0</text>
	<text x="190.71" y="1377.26" style="font-family:'Helvetica';font-size:99.99px;fill:#000000" transform="rotate(-90 190.71,1377.26)" text-anchor="middle">Cumulative mortality (%)</text>
	<line x1="430.77" y1="2509.23" x2="3859.02" y2="2509.23" style="stroke:#000000;stroke-width:5.76"/>
	<line x1="494.13" y1="2509.23" x2="494.13" y2="2549.21" style="stroke:#000000;stroke-width:5.76"/>
	<text x="494.13" y="2625.15" style="font-family:'Helvetica';font-size:79.94px;fill:#000000" text-anchor="middle">0</text>
	<line x1="906.84" y1="2509.23" x2="906.84" y2="2549.21" style="stroke:#000000;stroke-width:5.76"/>
	<text x="906.84" y="2625.15" style="font-family:'Helvetica';font-size:79.94px;fill:#000000" text-anchor="middle">20</text>
	<line x1="1319.55" y1="2509.23" x2="1319.55" y2="2549.21" style="stroke:#000000;stroke-width:5.76"/>
	<text x="1319.55" y="2625.15" style="font-family:'Helvetica';font-size:79.94px;fill:#000000" text-anchor="middle">40</text>
	<line x1="1732.25" y1="2509.23" x2="1732.25" y2="2549.21" style="stroke:#000000;stroke-width:5.76"/>
	<text x="1732.25" y="2625.15" style="font-family:'Helvetica';font-size:79.94px;fill:#000000" text-anchor="middle">60</text>
	<line x1="2144.96" y1="2509.23" x2="2144.96" y2="2549.21" style="stroke:#000000;stroke-width:5.76"/>
	<text x="2144.96" y="2625.15" style="font-family:'Helvetica';font-size:79.94px;fill:#000000" text-anchor="middle">80</text>
	<line x1="2557.66" y1="2509.23" x2="2557.66" y2="2549.21" style="stroke:#000000;stroke-width:5.76"/>
	<text x="2557.66" y="2625.15" style="font-family:'Helvetica';font-size:79.94px;fill:#000000" text-anchor="middle">100</text>
	<line x1="2970.37" y1="2509.23" x2="2970.37" y2="2549.21" style="stroke:#000000;stroke-width:5.76"/>
	<text x="2970.37" y="2625.15" style="font-family:'Helvetica';font-size:79.94px;fill:#000000" text-anchor="middle">120</text>
	<line x1="3383.08" y1="2509.23" x2="3383.08" y2="2549.21" style="stroke:#000000;stroke-width:5.76"/>
	<text x="3383.08" y="2625.15" style="font-family:'Helvetica';font-size:79.94px;fill:#000000" text-anchor="middle">140</text>
	<line x1="3795.78" y1="2509.23" x2="3795.78" y2="2549.21" style="stroke:#000000;stroke-width:5.76"/>
	<text x="3795.78" y="2625.15" style="font-family:'Helvetica';font-size:79.94px;fill:#000000" text-anchor="middle">160</text>
	<text x="2144.96" y="2729.16" style="font-family:'Helvetica';font-size:99.99px;fill:#000000" text-anchor="middle">Days since 1 Mar 2020</text>
	<rect x="465.30" y="279.93" width="917.48" height="326.34" style="fill:#FFFFFF"/>
	<rect x="468.18" y="282.81" width="911.72" height="320.58" style="fill:none;stroke:#EAF2F3;stroke-width:5.76"/>
	<rect x="508.49" y="323.12" width="374.34" height="99.99" style="fill:#FF3333;fill-opacity:0.25"/>
	<rect x="512.81" y="327.44" width="365.70" height="91.35" style="fill:none;stroke:#FF0000;stroke-opacity:0.25;stroke-width:8.64"/>
	<rect x="508.49" y="463.09" width="374.34" height="99.99" style="fill:#3333FF;fill-opacity:0.25"/>
	<rect x="512.81" y="467.41" width="365.70" height="91.35" style="fill:none;stroke:#0000FF;stroke-opacity:0.25;stroke-width:8.64"/>
	<text x="942.85" y="408.15" style="font-family:'Helvetica';font-size:99.99px;fill:#000000">No HCQ</text>
	<text x="942.85" y="548.11" style="font-family:'Helvetica';font-size:99.99px;fill:#000000">HCQ</text>
	<text x="1180.82" y="195.01" style="font-family:'Helvetica';font-size:110.01px;fill:#1E2D53">Time to SGSS positive COVID-19 test</text>
</svg>
