<?xml version="1.0" encoding="UTF-8" standalone="no"?>
<!-- This is a Stata 16.1 generated SVG file (http://www.stata.com) -->

<svg version="1.1" width="5.50in" height="4.00in" viewBox="0 0 3960 2880" xmlns="http://www.w3.org/2000/svg" xmlns:xlink="http://www.w3.org/1999/xlink">
	<desc>Stata Graph - Graph</desc>
	<rect x="0" y="0" width="3960" height="2880" style="fill:#EAF2F3;stroke:none"/>
	<rect x="0.00" y="0.00" width="3959.88" height="2880.00" style="fill:#FFFFFF"/>
	<rect x="2.88" y="2.88" width="3954.12" height="2874.24" style="fill:none;stroke:#EAF2F3;stroke-width:5.76"/>
	<rect x="430.77" y="235.38" width="3428.25" height="2293.90" style="fill:#FFFFFF"/>
	<rect x="433.65" y="238.26" width="3422.49" height="2288.14" style="fill:none;stroke:#FFFFFF;stroke-width:5.76"/>
	<line x1="430.77" y1="2465.92" x2="3859.02" y2="2465.92" style="stroke:#EAF2F3;stroke-width:8.64"/>
	<line x1="430.77" y1="2249.23" x2="3859.02" y2="2249.23" style="stroke:#EAF2F3;stroke-width:8.64"/>
	<line x1="430.77" y1="2032.41" x2="3859.02" y2="2032.41" style="stroke:#EAF2F3;stroke-width:8.64"/>
	<line x1="430.77" y1="1815.72" x2="3859.02" y2="1815.72" style="stroke:#EAF2F3;stroke-width:8.64"/>
	<line x1="430.77" y1="1599.02" x2="3859.02" y2="1599.02" style="stroke:#EAF2F3;stroke-width:8.64"/>
	<line x1="430.77" y1="1382.33" x2="3859.02" y2="1382.33" style="stroke:#EAF2F3;stroke-width:8.64"/>
	<line x1="430.77" y1="1165.64" x2="3859.02" y2="1165.64" style="stroke:#EAF2F3;stroke-width:8.64"/>
	<line x1="430.77" y1="948.82" x2="3859.02" y2="948.82" style="stroke:#EAF2F3;stroke-width:8.64"/>
	<line x1="430.77" y1="732.13" x2="3859.02" y2="732.13" style="stroke:#EAF2F3;stroke-width:8.64"/>
	<line x1="430.77" y1="515.43" x2="3859.02" y2="515.43" style="stroke:#EAF2F3;stroke-width:8.64"/>
	<line x1="430.77" y1="298.74" x2="3859.02" y2="298.74" style="stroke:#EAF2F3;stroke-width:8.64"/>
	<defs>
		<path id="path_cQtUezVD" d="M514.68 2465.92 L514.68 2465.92 L535.34 2465.92 L556.01 2465.92 L576.67 2465.92 L597.22 2465.92 L617.88 2465.80 L638.55 2465.67 L659.22 2465.42 L679.76 2464.81 L700.42 2463.94 L721.09 2462.58 L741.76 2460.72 L762.30 2458.00 L782.97 2454.53 L803.63 2449.96 L824.30 2444.51 L844.84 2437.83 L865.51 2430.03 L886.17 2421.00 L906.84 2410.85 L927.38 2399.46 L948.05 2386.96 L968.72 2373.35 L989.38 2358.75 L1009.92 2343.03 L1030.59 2326.33 L1051.26 2308.63 L1071.92 2290.19 L1092.46 2270.76 L1113.13 2250.46 L1133.80 2229.55 L1154.46 2207.77 L1175.01 2185.37 L1195.67 2162.35 L1216.34 2138.71 L1237.01 2114.71 L1257.55 2090.45 L1278.21 2065.82 L1298.88 2041.20 L1319.55 2016.45 L1340.09 1991.69 L1360.76 1967.19 L1381.42 1942.81 L1402.09 1918.68 L1422.63 1894.92 L1443.30 1871.41 L1463.96 1848.39 L1484.63 1825.74 L1505.17 1803.59 L1525.84 1781.93 L1546.50 1760.65 L1567.17 1739.86 L1587.71 1719.56 L1608.38 1699.76 L1629.05 1680.45 L1649.71 1661.77 L1670.25 1643.45 L1690.92 1625.75 L1711.59 1608.55 L1732.25 1591.85 L1752.80 1575.76 L1773.46 1560.17 L1794.13 1545.07 L1814.79 1530.59 L1835.34 1516.48 L1856.00 1502.87 L1876.67 1489.87 L1897.34 1477.25 L1917.88 1465.00 L1938.54 1453.37 L1959.21 1441.98 L1979.88 1431.09 L2000.42 1420.69 L2021.09 1410.55 L2041.75 1400.77 L2062.42 1391.36 L2082.96 1382.33 L2103.63 1373.54 L2124.29 1365.13 L2144.96 1357.08 L2165.50 1349.16 L2186.17 1341.62 L2206.83 1334.31 L2227.50 1327.26 L2248.04 1320.45 L2268.71 1313.89 L2289.38 1307.58 L2310.04 1301.52 L2330.58 1295.58 L2351.25 1289.89 L2371.92 1284.32 L2392.58 1279.00 L2413.13 1273.80 L2433.79 1268.85 L2454.46 1263.90 L2475.12 1259.32 L2495.67 1254.74 L2516.33 1250.29 L2537.00 1246.08 L2557.66 1241.87 L2578.21 1237.79 L2598.87 1233.95 L2619.54 1230.11 L2640.21 1226.40 L2660.75 1222.81 L2681.41 1219.35 L2702.08 1215.88 L2722.75 1212.54 L2743.29 1209.32 L2763.96 1206.11 L2784.62 1203.01 L2805.29 1200.04 L2825.83 1197.07 L2846.50 1194.10 L2867.16 1191.25 L2887.83 1188.53 L2908.37 1185.81 L2929.04 1183.09 L2949.70 1180.36 L2970.37 1177.77 L2990.91 1175.29 L3011.58 1172.69 L3032.25 1170.22 L3052.91 1167.74 L3073.45 1165.27 L3094.12 1162.92 L3114.79 1160.44 L3135.45 1158.09 L3156.00 1155.74 L3156.00 978.27 L3135.45 980.87 L3114.79 983.60 L3094.12 986.32 L3073.45 989.04 L3052.91 991.76 L3032.25 994.49 L3011.58 997.33 L2990.91 1000.18 L2970.37 1003.03 L2949.70 1005.87 L2929.04 1008.84 L2908.37 1011.81 L2887.83 1014.78 L2867.16 1017.88 L2846.50 1020.97 L2825.83 1024.06 L2805.29 1027.40 L2784.62 1030.62 L2763.96 1033.96 L2743.29 1037.43 L2722.75 1041.02 L2702.08 1044.61 L2681.41 1048.32 L2660.75 1052.03 L2640.21 1055.99 L2619.54 1059.95 L2598.87 1064.16 L2578.21 1068.37 L2557.66 1072.70 L2537.00 1077.15 L2516.33 1081.86 L2495.67 1086.56 L2475.12 1091.51 L2454.46 1096.71 L2433.79 1101.90 L2413.13 1107.35 L2392.58 1113.04 L2371.92 1118.86 L2351.25 1124.92 L2330.58 1131.11 L2310.04 1137.67 L2289.38 1144.35 L2268.71 1151.28 L2248.04 1158.46 L2227.50 1166.01 L2206.83 1173.81 L2186.17 1181.85 L2165.50 1190.14 L2144.96 1198.80 L2124.29 1207.84 L2103.63 1217.12 L2082.96 1226.90 L2062.42 1236.92 L2041.75 1247.32 L2021.09 1258.08 L2000.42 1269.34 L1979.88 1280.98 L1959.21 1292.98 L1938.54 1305.48 L1917.88 1318.47 L1897.34 1331.84 L1876.67 1345.70 L1856.00 1360.06 L1835.34 1374.91 L1814.79 1390.25 L1794.13 1406.09 L1773.46 1422.43 L1752.80 1439.38 L1732.25 1456.95 L1711.59 1474.90 L1690.92 1493.59 L1670.25 1512.77 L1649.71 1532.57 L1629.05 1552.99 L1608.38 1574.03 L1587.71 1595.68 L1567.17 1618.08 L1546.50 1640.98 L1525.84 1664.49 L1505.17 1688.75 L1484.63 1713.50 L1463.96 1738.87 L1443.30 1764.73 L1422.63 1791.09 L1402.09 1817.70 L1381.42 1844.55 L1360.76 1871.65 L1340.09 1898.88 L1319.55 1926.23 L1298.88 1953.58 L1278.21 1980.80 L1257.55 2007.91 L1237.01 2034.88 L1216.34 2061.62 L1195.67 2088.22 L1175.01 2114.33 L1154.46 2140.08 L1133.80 2165.32 L1113.13 2189.95 L1092.46 2213.96 L1071.92 2237.10 L1051.26 2259.37 L1030.59 2280.54 L1009.92 2300.71 L989.38 2319.77 L968.72 2337.46 L948.05 2354.05 L927.38 2369.27 L906.84 2383.13 L886.17 2395.75 L865.51 2407.01 L844.84 2417.16 L824.30 2426.07 L803.63 2433.99 L782.97 2440.67 L762.30 2446.37 L741.76 2451.19 L721.09 2455.15 L700.42 2458.37 L679.76 2460.85 L659.22 2462.58 L638.55 2463.94 L617.88 2464.81 L597.22 2465.42 L576.67 2465.67 L556.01 2465.80 L535.34 2465.92 L514.68 2465.92 L514.68 2465.92 Z" stroke-linejoin="round"/>
	</defs>
	<defs>
		<clipPath id="clipPath_iJADpvrT">
			<use xlink:href="#path_cQtUezVD"/>
		</clipPath>
	</defs>
	<use xlink:href="#path_cQtUezVD" style="stroke:none;fill:#FF3333;fill-opacity:0.25"/>
	<use xlink:href="#path_cQtUezVD" style="fill:none;stroke:#FF0000;stroke-opacity:0.25;stroke-width:17.28" clip-path="url(#clipPath_iJADpvrT)"/>
	<defs>
		<path id="path_LunUHjft" d="M514.68 2465.92 L514.68 2465.92 L535.34 2465.92 L556.01 2465.92 L576.67 2465.92 L597.22 2465.92 L617.88 2465.80 L638.55 2465.67 L659.22 2465.42 L679.76 2464.93 L700.42 2464.19 L721.09 2463.07 L741.76 2461.34 L762.30 2458.99 L782.97 2455.90 L803.63 2452.06 L824.30 2447.36 L844.84 2441.66 L865.51 2434.98 L886.17 2427.31 L906.84 2418.77 L927.38 2409.24 L948.05 2398.72 L968.72 2387.21 L989.38 2374.96 L1009.92 2361.84 L1030.59 2347.98 L1051.26 2333.26 L1071.92 2317.79 L1092.46 2301.57 L1113.13 2284.87 L1133.80 2267.42 L1154.46 2249.35 L1175.01 2230.91 L1195.67 2211.98 L1216.34 2192.55 L1237.01 2172.87 L1257.55 2152.95 L1278.21 2132.90 L1298.88 2112.73 L1319.55 2092.43 L1340.09 2072.26 L1360.76 2052.21 L1381.42 2032.29 L1402.09 2012.61 L1422.63 1993.18 L1443.30 1974.00 L1463.96 1955.19 L1484.63 1936.62 L1505.17 1918.43 L1525.84 1900.74 L1546.50 1883.41 L1567.17 1866.46 L1587.71 1850.00 L1608.38 1833.91 L1629.05 1818.19 L1649.71 1802.97 L1670.25 1788.12 L1690.92 1773.76 L1711.59 1759.90 L1732.25 1746.41 L1752.80 1733.30 L1773.46 1720.67 L1794.13 1708.42 L1814.79 1696.54 L1835.34 1685.16 L1856.00 1674.14 L1876.67 1663.50 L1897.34 1653.23 L1917.88 1643.33 L1938.54 1633.80 L1959.21 1624.64 L1979.88 1615.73 L2000.42 1607.19 L2021.09 1598.90 L2041.75 1590.98 L2062.42 1583.31 L2082.96 1576.01 L2103.63 1568.83 L2124.29 1562.02 L2144.96 1555.34 L2165.50 1548.90 L2186.17 1542.84 L2206.83 1536.90 L2227.50 1531.08 L2248.04 1525.64 L2268.71 1520.32 L2289.38 1515.12 L2310.04 1510.17 L2330.58 1505.34 L2351.25 1500.64 L2371.92 1496.18 L2392.58 1491.85 L2413.13 1487.65 L2433.79 1483.56 L2454.46 1479.72 L2475.12 1475.89 L2495.67 1472.18 L2516.33 1468.59 L2537.00 1465.12 L2557.66 1461.78 L2578.21 1458.56 L2598.87 1455.35 L2619.54 1452.25 L2640.21 1449.28 L2660.75 1446.31 L2681.41 1443.47 L2702.08 1440.74 L2722.75 1438.02 L2743.29 1435.42 L2763.96 1432.82 L2784.62 1430.35 L2805.29 1427.87 L2825.83 1425.52 L2846.50 1423.05 L2867.16 1420.82 L2887.83 1418.47 L2908.37 1416.24 L2929.04 1414.14 L2949.70 1411.91 L2970.37 1409.80 L2990.91 1407.70 L3011.58 1405.60 L3032.25 1403.62 L3052.91 1401.64 L3073.45 1399.66 L3094.12 1397.68 L3114.79 1395.70 L3135.45 1393.72 L3156.00 1391.74 L3156.00 1021.96 L3135.45 1024.56 L3114.79 1027.16 L3094.12 1029.88 L3073.45 1032.48 L3052.91 1035.08 L3032.25 1037.80 L3011.58 1040.52 L2990.91 1043.25 L2970.37 1046.09 L2949.70 1048.94 L2929.04 1051.78 L2908.37 1054.63 L2887.83 1057.60 L2867.16 1060.57 L2846.50 1063.66 L2825.83 1066.76 L2805.29 1069.98 L2784.62 1073.19 L2763.96 1076.53 L2743.29 1079.88 L2722.75 1083.34 L2702.08 1086.93 L2681.41 1090.52 L2660.75 1094.23 L2640.21 1098.07 L2619.54 1102.03 L2598.87 1106.11 L2578.21 1110.32 L2557.66 1114.53 L2537.00 1118.98 L2516.33 1123.56 L2495.67 1128.26 L2475.12 1133.09 L2454.46 1138.16 L2433.79 1143.24 L2413.13 1148.68 L2392.58 1154.13 L2371.92 1159.94 L2351.25 1165.89 L2330.58 1171.95 L2310.04 1178.38 L2289.38 1184.94 L2268.71 1191.75 L2248.04 1198.80 L2227.50 1206.11 L2206.83 1213.78 L2186.17 1221.57 L2165.50 1229.74 L2144.96 1238.28 L2124.29 1247.07 L2103.63 1256.10 L2082.96 1265.63 L2062.42 1275.41 L2041.75 1285.56 L2021.09 1296.20 L2000.42 1307.09 L1979.88 1318.47 L1959.21 1330.23 L1938.54 1342.48 L1917.88 1355.10 L1897.34 1368.22 L1876.67 1381.84 L1856.00 1395.82 L1835.34 1410.42 L1814.79 1425.52 L1794.13 1441.11 L1773.46 1457.20 L1752.80 1473.78 L1732.25 1490.99 L1711.59 1508.68 L1690.92 1527.00 L1670.25 1545.93 L1649.71 1565.36 L1629.05 1585.41 L1608.38 1605.95 L1587.71 1627.24 L1567.17 1649.02 L1546.50 1671.42 L1525.84 1694.44 L1505.17 1718.07 L1484.63 1742.21 L1463.96 1766.96 L1443.30 1792.08 L1422.63 1817.57 L1402.09 1843.56 L1381.42 1869.80 L1360.76 1896.16 L1340.09 1922.76 L1319.55 1949.37 L1298.88 1975.98 L1278.21 2002.59 L1257.55 2028.94 L1237.01 2055.18 L1216.34 2081.29 L1195.67 2106.91 L1175.01 2132.16 L1154.46 2157.03 L1133.80 2181.29 L1113.13 2204.92 L1092.46 2227.94 L1071.92 2250.09 L1051.26 2271.38 L1030.59 2291.55 L1009.92 2310.86 L989.38 2328.92 L968.72 2345.75 L948.05 2361.47 L927.38 2375.95 L906.84 2389.07 L886.17 2400.95 L865.51 2411.59 L844.84 2421.12 L824.30 2429.41 L803.63 2436.71 L782.97 2442.90 L762.30 2448.22 L741.76 2452.55 L721.09 2456.14 L700.42 2459.11 L679.76 2461.34 L659.22 2462.95 L638.55 2464.19 L617.88 2464.93 L597.22 2465.42 L576.67 2465.67 L556.01 2465.80 L535.34 2465.92 L514.68 2465.92 L514.68 2465.92 Z" stroke-linejoin="round"/>
	</defs>
	<defs>
		<clipPath id="clipPath_pGFBgUbc">
			<use xlink:href="#path_LunUHjft"/>
		</clipPath>
	</defs>
	<use xlink:href="#path_LunUHjft" style="stroke:none;fill:#3333FF;fill-opacity:0.25"/>
	<use xlink:href="#path_LunUHjft" style="fill:none;stroke:#0000FF;stroke-opacity:0.25;stroke-width:17.28" clip-path="url(#clipPath_pGFBgUbc)"/>
	<path d=" M494.01 2465.92 L514.68 2465.92 L535.34 2465.92 L555.88 2465.92 L576.55 2465.92 L597.22 2465.80 L617.88 2465.67 L638.43 2465.30 L659.09 2464.68 L679.76 2463.69 L700.42 2462.08 L720.97 2459.98 L741.63 2457.26 L762.30 2453.54 L782.97 2448.97 L803.51 2443.40 L824.17 2436.71 L844.84 2429.04 L865.51 2420.01 L886.05 2409.86 L906.72 2398.47 L927.38 2385.85 L948.05 2371.99 L968.59 2357.02 L989.26 2340.80 L1009.92 2323.48 L1030.59 2305.16 L1051.13 2285.73 L1071.80 2265.44 L1092.46 2244.15 L1113.13 2222.12 L1133.67 2199.35 L1154.34 2175.96 L1175.01 2151.96 L1195.67 2127.33 L1216.21 2102.33 L1236.88 2076.96 L1257.55 2051.22 L1278.21 2025.48 L1298.76 1999.49 L1319.42 1973.38 L1340.09 1947.39 L1360.76 1921.53 L1381.30 1895.91 L1401.96 1870.42 L1422.63 1845.17 L1443.30 1820.42 L1463.84 1795.92 L1484.51 1772.03 L1505.17 1748.52 L1525.84 1725.62 L1546.38 1703.22 L1567.05 1681.32 L1587.71 1660.03 L1608.38 1639.37 L1628.92 1619.20 L1649.59 1599.64 L1670.25 1580.58 L1690.92 1562.15 L1711.46 1544.20 L1732.13 1526.88 L1752.80 1510.04 L1773.46 1493.83 L1794.00 1478.12 L1814.67 1462.89 L1835.34 1448.17 L1856.00 1434.06 L1876.55 1420.32 L1897.21 1407.08 L1917.88 1394.33 L1938.54 1381.96 L1959.09 1370.08 L1979.75 1358.69 L2000.42 1347.56 L2021.09 1336.91 L2041.63 1326.64 L2062.29 1316.74 L2082.96 1307.21 L2103.63 1298.05 L2124.17 1289.14 L2144.84 1280.61 L2165.50 1272.44 L2186.17 1264.39 L2206.71 1256.72 L2227.38 1249.42 L2248.04 1242.24 L2268.71 1235.31 L2289.25 1228.75 L2309.92 1222.32 L2330.58 1216.13 L2351.25 1210.19 L2371.79 1204.37 L2392.46 1198.80 L2413.13 1193.36 L2433.79 1188.16 L2454.33 1183.09 L2475.00 1178.14 L2495.67 1173.43 L2516.33 1168.86 L2536.88 1164.40 L2557.54 1160.07 L2578.21 1155.86 L2598.87 1151.78 L2619.42 1147.82 L2640.08 1143.98 L2660.75 1140.27 L2681.41 1136.68 L2701.96 1133.09 L2722.62 1129.63 L2743.29 1126.16 L2763.96 1122.94 L2784.50 1119.72 L2805.16 1116.51 L2825.83 1113.41 L2846.50 1110.32 L2867.04 1107.35 L2887.71 1104.50 L2908.37 1101.53 L2929.04 1098.81 L2949.58 1095.96 L2970.25 1093.24 L2990.91 1090.52 L3011.58 1087.80 L3032.12 1085.20 L3052.79 1082.60 L3073.45 1080.00 L3094.12 1077.40 L3114.66 1074.93 L3135.33 1072.45 L3156.00 1069.85" stroke-linejoin="round" style="fill:none;stroke:#FF0000;stroke-width:8.64"/>
	<path d=" M494.01 2465.92 L514.68 2465.92 L535.34 2465.92 L555.88 2465.92 L576.55 2465.92 L597.22 2465.80 L617.88 2465.67 L638.43 2465.42 L659.09 2464.81 L679.76 2463.94 L700.42 2462.58 L720.97 2460.72 L741.63 2458.12 L762.30 2454.91 L782.97 2450.82 L803.51 2445.87 L824.17 2439.93 L844.84 2433.00 L865.51 2424.96 L886.05 2415.92 L906.72 2405.78 L927.38 2394.51 L948.05 2382.14 L968.59 2368.77 L989.26 2354.42 L1009.92 2338.95 L1030.59 2322.61 L1051.13 2305.29 L1071.80 2287.10 L1092.46 2268.28 L1113.13 2248.61 L1133.67 2228.31 L1154.34 2207.40 L1175.01 2185.86 L1195.67 2163.96 L1216.21 2141.68 L1236.88 2119.04 L1257.55 2096.14 L1278.21 2073.12 L1298.76 2049.98 L1319.42 2026.72 L1340.09 2003.58 L1360.76 1980.43 L1381.30 1957.54 L1401.96 1934.89 L1422.63 1912.37 L1443.30 1890.22 L1463.84 1868.44 L1484.51 1847.03 L1505.17 1826.11 L1525.84 1805.69 L1546.38 1785.77 L1567.05 1766.22 L1587.71 1747.28 L1608.38 1728.72 L1628.92 1710.77 L1649.59 1693.32 L1670.25 1676.37 L1690.92 1659.91 L1711.46 1643.82 L1732.13 1628.35 L1752.80 1613.38 L1773.46 1598.90 L1794.00 1584.92 L1814.67 1571.30 L1835.34 1558.18 L1856.00 1545.56 L1876.55 1533.31 L1897.21 1521.55 L1917.88 1510.17 L1938.54 1499.15 L1959.09 1488.51 L1979.75 1478.36 L2000.42 1468.46 L2021.09 1458.93 L2041.63 1449.78 L2062.29 1440.99 L2082.96 1432.45 L2103.63 1424.28 L2124.17 1416.36 L2144.84 1408.69 L2165.50 1401.27 L2186.17 1394.21 L2206.71 1387.40 L2227.38 1380.85 L2248.04 1374.41 L2268.71 1368.22 L2289.25 1362.41 L2309.92 1356.59 L2330.58 1351.14 L2351.25 1345.82 L2371.79 1340.63 L2392.46 1335.68 L2413.13 1330.85 L2433.79 1326.15 L2454.33 1321.69 L2475.00 1317.24 L2495.67 1313.03 L2516.33 1308.94 L2536.88 1304.98 L2557.54 1301.15 L2578.21 1297.31 L2598.87 1293.72 L2619.42 1290.13 L2640.08 1286.79 L2660.75 1283.45 L2681.41 1280.11 L2701.96 1277.02 L2722.62 1273.92 L2743.29 1270.83 L2763.96 1267.86 L2784.50 1265.01 L2805.16 1262.17 L2825.83 1259.44 L2846.50 1256.72 L2867.04 1254.12 L2887.71 1251.40 L2908.37 1248.92 L2929.04 1246.33 L2949.58 1243.85 L2970.25 1241.38 L2990.91 1239.02 L3011.58 1236.67 L3032.12 1234.32 L3052.79 1231.97 L3073.45 1229.62 L3094.12 1227.39 L3114.66 1225.04 L3135.33 1222.81 L3156.00 1220.58" stroke-linejoin="round" style="fill:none;stroke:#0000FF;stroke-width:8.64"/>
	<line x1="430.77" y1="2529.28" x2="430.77" y2="235.38" style="stroke:#000000;stroke-width:5.76"/>
	<line x1="430.77" y1="2465.92" x2="390.80" y2="2465.92" style="stroke:#000000;stroke-width:5.76"/>
	<text x="370.75" y="2493.93" style="font-family:'Helvetica';font-size:79.94px;fill:#000000" text-anchor="end">0.0</text>
	<line x1="430.77" y1="2249.23" x2="390.80" y2="2249.23" style="stroke:#000000;stroke-width:5.76"/>
	<text x="370.75" y="2277.24" style="font-family:'Helvetica';font-size:79.94px;fill:#000000" text-anchor="end">0.1</text>
	<line x1="430.77" y1="2032.41" x2="390.80" y2="2032.41" style="stroke:#000000;stroke-width:5.76"/>
	<text x="370.75" y="2060.42" style="font-family:'Helvetica';font-size:79.94px;fill:#000000" text-anchor="end">0.2</text>
	<line x1="430.77" y1="1815.72" x2="390.80" y2="1815.72" style="stroke:#000000;stroke-width:5.76"/>
	<text x="370.75" y="1843.73" style="font-family:'Helvetica';font-size:79.94px;fill:#000000" text-anchor="end">0.3</text>
	<line x1="430.77" y1="1599.02" x2="390.80" y2="1599.02" style="stroke:#000000;stroke-width:5.76"/>
	<text x="370.75" y="1627.04" style="font-family:'Helvetica';font-size:79.94px;fill:#000000" text-anchor="end">0.4</text>
	<line x1="430.77" y1="1382.33" x2="390.80" y2="1382.33" style="stroke:#000000;stroke-width:5.76"/>
	<text x="370.75" y="1410.34" style="font-family:'Helvetica';font-size:79.94px;fill:#000000" text-anchor="end">0.5</text>
	<line x1="430.77" y1="1165.64" x2="390.80" y2="1165.64" style="stroke:#000000;stroke-width:5.76"/>
	<text x="370.75" y="1193.65" style="font-family:'Helvetica';font-size:79.94px;fill:#000000" text-anchor="end">0.6</text>
	<line x1="430.77" y1="948.82" x2="390.80" y2="948.82" style="stroke:#000000;stroke-width:5.76"/>
	<text x="370.75" y="976.83" style="font-family:'Helvetica';font-size:79.94px;fill:#000000" text-anchor="end">0.7</text>
	<line x1="430.77" y1="732.13" x2="390.80" y2="732.13" style="stroke:#000000;stroke-width:5.76"/>
	<text x="370.75" y="760.14" style="font-family:'Helvetica';font-size:79.94px;fill:#000000" text-anchor="end">0.8</text>
	<line x1="430.77" y1="515.43" x2="390.80" y2="515.43" style="stroke:#000000;stroke-width:5.76"/>
	<text x="370.75" y="543.45" style="font-family:'Helvetica';font-size:79.94px;fill:#000000" text-anchor="end">0.9</text>
	<line x1="430.77" y1="298.74" x2="390.80" y2="298.74" style="stroke:#000000;stroke-width:5.76"/>
	<text x="370.75" y="326.75" style="font-family:'Helvetica';font-size:79.94px;fill:#000000" text-anchor="end">1.0</text>
	<text x="190.71" y="1382.33" style="font-family:'Helvetica';font-size:99.99px;fill:#000000" transform="rotate(-90 190.71,1382.33)" text-anchor="middle">Cumulative incidence (%)</text>
	<line x1="430.77" y1="2529.28" x2="3859.02" y2="2529.28" style="stroke:#000000;stroke-width:5.76"/>
	<line x1="494.13" y1="2529.28" x2="494.13" y2="2569.25" style="stroke:#000000;stroke-width:5.76"/>
	<text x="494.13" y="2645.20" style="font-family:'Helvetica';font-size:79.94px;fill:#000000" text-anchor="middle">0</text>
	<line x1="906.84" y1="2529.28" x2="906.84" y2="2569.25" style="stroke:#000000;stroke-width:5.76"/>
	<text x="906.84" y="2645.20" style="font-family:'Helvetica';font-size:79.94px;fill:#000000" text-anchor="middle">20</text>
	<line x1="1319.55" y1="2529.28" x2="1319.55" y2="2569.25" style="stroke:#000000;stroke-width:5.76"/>
	<text x="1319.55" y="2645.20" style="font-family:'Helvetica';font-size:79.94px;fill:#000000" text-anchor="middle">40</text>
	<line x1="1732.25" y1="2529.28" x2="1732.25" y2="2569.25" style="stroke:#000000;stroke-width:5.76"/>
	<text x="1732.25" y="2645.20" style="font-family:'Helvetica';font-size:79.94px;fill:#000000" text-anchor="middle">60</text>
	<line x1="2144.96" y1="2529.28" x2="2144.96" y2="2569.25" style="stroke:#000000;stroke-width:5.76"/>
	<text x="2144.96" y="2645.20" style="font-family:'Helvetica';font-size:79.94px;fill:#000000" text-anchor="middle">80</text>
	<line x1="2557.66" y1="2529.28" x2="2557.66" y2="2569.25" style="stroke:#000000;stroke-width:5.76"/>
	<text x="2557.66" y="2645.20" style="font-family:'Helvetica';font-size:79.94px;fill:#000000" text-anchor="middle">100</text>
	<line x1="2970.37" y1="2529.28" x2="2970.37" y2="2569.25" style="stroke:#000000;stroke-width:5.76"/>
	<text x="2970.37" y="2645.20" style="font-family:'Helvetica';font-size:79.94px;fill:#000000" text-anchor="middle">120</text>
	<line x1="3383.08" y1="2529.28" x2="3383.08" y2="2569.25" style="stroke:#000000;stroke-width:5.76"/>
	<text x="3383.08" y="2645.20" style="font-family:'Helvetica';font-size:79.94px;fill:#000000" text-anchor="middle">140</text>
	<line x1="3795.78" y1="2529.28" x2="3795.78" y2="2569.25" style="stroke:#000000;stroke-width:5.76"/>
	<text x="3795.78" y="2645.20" style="font-family:'Helvetica';font-size:79.94px;fill:#000000" text-anchor="middle">160</text>
	<text x="2144.96" y="2735.17" style="font-family:'Helvetica';font-size:79.94px;fill:#000000" text-anchor="middle">Days since 1 Mar 2020</text>
	<rect x="465.30" y="269.91" width="917.48" height="326.46" style="fill:#FFFFFF"/>
	<rect x="468.18" y="272.79" width="911.72" height="320.70" style="fill:none;stroke:#EAF2F3;stroke-width:5.76"/>
	<rect x="508.49" y="313.10" width="374.34" height="99.99" style="fill:#FF3333;fill-opacity:0.25"/>
	<rect x="512.81" y="317.42" width="365.70" height="91.35" style="fill:none;stroke:#FF0000;stroke-opacity:0.25;stroke-width:8.64"/>
	<rect x="508.49" y="453.06" width="374.34" height="99.99" style="fill:#3333FF;fill-opacity:0.25"/>
	<rect x="512.81" y="457.38" width="365.70" height="91.35" style="fill:none;stroke:#0000FF;stroke-opacity:0.25;stroke-width:8.64"/>
	<text x="942.85" y="398.12" style="font-family:'Helvetica';font-size:99.99px;fill:#000000">No HCQ</text>
	<text x="942.85" y="538.09" style="font-family:'Helvetica';font-size:99.99px;fill:#000000">HCQ</text>
	<text x="1268.44" y="187.99" style="font-family:'Helvetica';font-size:99.99px;fill:#1E2D53">Time to SGSS positive COVID-19 test</text>
</svg>
