<?xml version="1.0" encoding="UTF-8" standalone="no"?>
<!-- This is a Stata 16.1 generated SVG file (http://www.stata.com) -->

<svg version="1.1" width="5.50in" height="4.00in" viewBox="0 0 3960 2880" xmlns="http://www.w3.org/2000/svg" xmlns:xlink="http://www.w3.org/1999/xlink">
	<desc>Stata Graph - Graph</desc>
	<rect x="0" y="0" width="3960" height="2880" style="fill:#EAF2F3;stroke:none"/>
	<rect x="0.00" y="0.00" width="3959.88" height="2880.00" style="fill:#FFFFFF"/>
	<rect x="2.88" y="2.88" width="3954.12" height="2874.24" style="fill:none;stroke:#EAF2F3;stroke-width:5.76"/>
	<rect x="619.12" y="490.93" width="3221.71" height="1818.32" style="fill:#FFFFFF"/>
	<rect x="622.00" y="493.81" width="3215.95" height="1812.56" style="fill:none;stroke:#FFFFFF;stroke-width:5.76"/>
	<line x1="619.12" y1="2245.89" x2="3840.83" y2="2245.89" style="stroke:#EAF2F3;stroke-width:8.64"/>
	<line x1="619.12" y1="2076.71" x2="3840.83" y2="2076.71" style="stroke:#EAF2F3;stroke-width:8.64"/>
	<line x1="619.12" y1="1907.54" x2="3840.83" y2="1907.54" style="stroke:#EAF2F3;stroke-width:8.64"/>
	<line x1="619.12" y1="1738.37" x2="3840.83" y2="1738.37" style="stroke:#EAF2F3;stroke-width:8.64"/>
	<line x1="619.12" y1="1569.20" x2="3840.83" y2="1569.20" style="stroke:#EAF2F3;stroke-width:8.64"/>
	<line x1="619.12" y1="1400.03" x2="3840.83" y2="1400.03" style="stroke:#EAF2F3;stroke-width:8.64"/>
	<line x1="619.12" y1="1230.86" x2="3840.83" y2="1230.86" style="stroke:#EAF2F3;stroke-width:8.64"/>
	<line x1="619.12" y1="1061.68" x2="3840.83" y2="1061.68" style="stroke:#EAF2F3;stroke-width:8.64"/>
	<line x1="619.12" y1="892.51" x2="3840.83" y2="892.51" style="stroke:#EAF2F3;stroke-width:8.64"/>
	<line x1="619.12" y1="723.47" x2="3840.83" y2="723.47" style="stroke:#EAF2F3;stroke-width:8.64"/>
	<line x1="619.12" y1="554.29" x2="3840.83" y2="554.29" style="stroke:#EAF2F3;stroke-width:8.64"/>
	<path d=" M682.48 2246.01 L682.48 2246.01 L682.48 2246.01 L701.79 2246.01 L701.79 2244.90 L721.09 2244.90 L721.09 2243.91 L740.52 2243.91 L740.52 2243.91 L759.83 2243.91 L759.83 2243.91 L779.13 2243.91 L779.13 2242.92 L798.56 2242.92 L798.56 2242.92 L817.86 2242.92 L817.86 2242.92 L837.17 2242.92 L837.17 2242.92 L856.60 2242.92 L856.60 2242.92 L875.90 2242.92 L875.90 2241.80 L895.21 2241.80 L895.21 2239.70 L914.64 2239.70 L914.64 2236.60 L933.94 2236.60 L933.94 2234.50 L953.25 2234.50 L953.25 2232.52 L972.55 2232.52 L972.55 2227.32 L991.98 2227.32 L991.98 2226.21 L1011.28 2226.21 L1011.28 2221.01 L1030.59 2221.01 L1030.59 2212.72 L1050.02 2212.72 L1050.02 2207.52 L1069.32 2207.52 L1069.32 2200.22 L1088.63 2200.22 L1088.63 2192.92 L1108.06 2192.92 L1108.06 2177.33 L1127.36 2177.33 L1127.36 2163.84 L1146.67 2163.84 L1146.67 2151.34 L1166.10 2151.34 L1166.10 2127.33 L1185.40 2127.33 L1185.40 2111.74 L1204.71 2111.74 L1204.71 2090.82 L1224.01 2090.82 L1224.01 2069.91 L1243.44 2069.91 L1243.44 2042.81 L1262.74 2042.81 L1262.74 2016.69 L1282.05 2016.69 L1282.05 1982.17 L1301.48 1982.17 L1301.48 1958.16 L1320.78 1958.16 L1320.78 1929.94 L1340.09 1929.94 L1340.09 1911.13 L1359.52 1911.13 L1359.52 1894.42 L1378.82 1894.42 L1378.82 1859.90 L1398.13 1859.90 L1398.13 1844.18 L1417.56 1844.18 L1417.56 1819.06 L1436.86 1819.06 L1436.86 1793.94 L1456.17 1793.94 L1456.17 1769.80 L1475.47 1769.80 L1475.47 1758.29 L1494.90 1758.29 L1494.90 1746.79 L1514.20 1746.79 L1514.20 1731.07 L1533.51 1731.07 L1533.51 1709.04 L1552.94 1709.04 L1552.94 1687.01 L1572.24 1687.01 L1572.24 1667.09 L1591.55 1667.09 L1591.55 1646.17 L1610.98 1646.17 L1610.98 1619.94 L1630.28 1619.94 L1630.28 1605.21 L1649.59 1605.21 L1649.59 1588.38 L1669.02 1588.38 L1669.02 1564.25 L1688.32 1564.25 L1688.32 1545.31 L1707.63 1545.31 L1707.63 1522.17 L1727.06 1522.17 L1727.06 1502.25 L1746.36 1502.25 L1746.36 1490.74 L1765.66 1490.74 L1765.66 1479.11 L1784.97 1479.11 L1784.97 1466.48 L1804.40 1466.48 L1804.40 1447.55 L1823.70 1447.55 L1823.70 1429.73 L1843.01 1429.73 L1843.01 1415.99 L1862.44 1415.99 L1862.44 1392.85 L1881.74 1392.85 L1881.74 1380.23 L1901.05 1380.23 L1901.05 1369.71 L1920.48 1369.71 L1920.48 1358.07 L1939.78 1358.07 L1939.78 1344.46 L1959.09 1344.46 L1959.09 1332.83 L1978.52 1332.83 L1978.52 1319.09 L1997.82 1319.09 L1997.82 1310.68 L2017.13 1310.68 L2017.13 1301.27 L2036.43 1301.27 L2036.43 1298.05 L2055.86 1298.05 L2055.86 1285.43 L2075.16 1285.43 L2075.16 1277.02 L2094.47 1277.02 L2094.47 1264.27 L2113.90 1264.27 L2113.90 1253.75 L2133.20 1253.75 L2133.20 1242.12 L2152.51 1242.12 L2152.51 1239.02 L2171.94 1239.02 L2171.94 1233.70 L2191.24 1233.70 L2191.24 1222.07 L2210.55 1222.07 L2210.55 1206.23 L2229.97 1206.23 L2229.97 1196.70 L2249.28 1196.70 L2249.28 1189.40 L2268.59 1189.40 L2268.59 1181.97 L2287.89 1181.97 L2287.89 1178.76 L2307.32 1178.76 L2307.32 1177.77 L2326.62 1177.77 L2326.62 1174.55 L2345.93 1174.55 L2345.93 1166.13 L2365.36 1166.13 L2365.36 1161.93 L2384.66 1161.93 L2384.66 1156.60 L2403.97 1156.60 L2403.97 1152.40 L2423.40 1152.40 L2423.40 1147.07 L2442.70 1147.07 L2442.70 1138.66 L2462.01 1138.66 L2462.01 1133.34 L2481.43 1133.34 L2481.43 1129.13 L2500.74 1129.13 L2500.74 1121.71 L2520.05 1121.71 L2520.05 1116.38 L2539.35 1116.38 L2539.35 1113.17 L2558.78 1113.17 L2558.78 1108.96 L2578.08 1108.96 L2578.08 1105.74 L2597.39 1105.74 L2597.39 1100.54 L2616.82 1100.54 L2616.82 1100.54 L2636.12 1100.54 L2636.12 1096.21 L2655.43 1096.21 L2655.43 1091.01 L2674.86 1091.01 L2674.86 1084.58 L2694.16 1084.58 L2694.16 1078.27 L2713.47 1078.27 L2713.47 1075.05 L2732.89 1075.05 L2732.89 1074.06 L2752.20 1074.06 L2752.20 1066.63 L2771.51 1066.63 L2771.51 1063.42 L2790.81 1063.42 L2790.81 1062.30 L2810.24 1062.30 L2810.24 1054.88 L2829.54 1054.88 L2829.54 1050.67 L2848.85 1050.67 L2848.85 1049.68 L2868.28 1049.68 L2868.28 1046.46 L2887.58 1046.46 L2887.58 1041.14 L2906.89 1041.14 L2906.89 1039.04 L2926.32 1039.04 L2926.32 1039.04 L2945.62 1039.04 L2945.62 1036.93 L2964.93 1036.93 L2964.93 1035.82 L2984.36 1035.82 L2984.36 1033.72 L3003.66 1033.72 L3003.66 1032.60 L3022.97 1032.60 L3022.97 1031.61 L3042.39 1031.61 L3042.39 1030.50 L3061.70 1030.50 L3061.70 1028.39 L3081.00 1028.39 L3081.00 1027.28 L3100.31 1027.28 L3100.31 1025.18 L3139.04 1025.18 L3139.04 1025.18 L3158.35 1025.18 L3158.35 1025.18 L3177.78 1025.18 L3177.78 1024.19" stroke-linejoin="round" style="fill:none;stroke:#1A476F;stroke-width:8.64"/>
	<path d=" M682.48 2246.01 L682.48 2246.01 L682.48 2246.01 L701.79 2246.01 L701.79 2246.01 L721.09 2246.01 L721.09 2246.01 L740.52 2246.01 L740.52 2246.01 L759.83 2246.01 L759.83 2246.01 L779.13 2246.01 L779.13 2246.01 L798.56 2246.01 L798.56 2246.01 L817.86 2246.01 L817.86 2246.01 L837.17 2246.01 L837.17 2246.01 L875.90 2246.01 L875.90 2246.01 L895.21 2246.01 L895.21 2246.01 L914.64 2246.01 L914.64 2240.44 L933.94 2240.44 L933.94 2240.44 L953.25 2240.44 L953.25 2240.44 L972.55 2240.44 L972.55 2240.44 L991.98 2240.44 L991.98 2240.44 L1011.28 2240.44 L1011.28 2234.87 L1050.02 2234.87 L1050.02 2223.73 L1069.32 2223.73 L1069.32 2212.60 L1088.63 2212.60 L1088.63 2207.15 L1108.06 2207.15 L1108.06 2196.01 L1127.36 2196.01 L1127.36 2179.31 L1146.67 2179.31 L1146.67 2151.58 L1166.10 2151.58 L1166.10 2129.31 L1185.40 2129.31 L1185.40 2112.73 L1204.71 2112.73 L1204.71 2112.73 L1224.01 2112.73 L1224.01 2090.45 L1243.44 2090.45 L1243.44 2090.45 L1262.74 2090.45 L1262.74 2068.30 L1282.05 2068.30 L1282.05 2046.02 L1301.48 2046.02 L1301.48 2023.87 L1320.78 2023.87 L1320.78 2007.16 L1340.09 2007.16 L1340.09 1990.46 L1359.52 1990.46 L1359.52 1984.89 L1378.82 1984.89 L1378.82 1957.17 L1398.13 1957.17 L1398.13 1940.46 L1417.56 1940.46 L1417.56 1940.46 L1436.86 1940.46 L1436.86 1918.31 L1456.17 1918.31 L1456.17 1896.03 L1475.47 1896.03 L1475.47 1884.90 L1494.90 1884.90 L1494.90 1873.76 L1514.20 1873.76 L1514.20 1868.19 L1533.51 1868.19 L1533.51 1862.62 L1552.94 1862.62 L1552.94 1840.34 L1572.24 1840.34 L1572.24 1807.05 L1591.55 1807.05 L1591.55 1801.49 L1610.98 1801.49 L1610.98 1779.21 L1630.28 1779.21 L1630.28 1768.07 L1649.59 1768.07 L1649.59 1762.50 L1669.02 1762.50 L1669.02 1756.93 L1688.32 1756.93 L1688.32 1740.23 L1707.63 1740.23 L1707.63 1729.09 L1727.06 1729.09 L1727.06 1701.24 L1746.36 1701.24 L1746.36 1684.54 L1765.66 1684.54 L1765.66 1667.83 L1784.97 1667.83 L1784.97 1645.56 L1804.40 1645.56 L1804.40 1634.42 L1823.70 1634.42 L1823.70 1628.85 L1843.01 1628.85 L1843.01 1623.28 L1862.44 1623.28 L1862.44 1595.43 L1881.74 1595.43 L1881.74 1584.30 L1901.05 1584.30 L1901.05 1584.30 L1920.48 1584.30 L1920.48 1578.73 L1939.78 1578.73 L1939.78 1562.02 L1959.09 1562.02 L1959.09 1545.31 L1978.52 1545.31 L1978.52 1539.75 L1997.82 1539.75 L1997.82 1534.18 L2017.13 1534.18 L2017.13 1523.04 L2036.43 1523.04 L2036.43 1511.90 L2055.86 1511.90 L2055.86 1500.76 L2075.16 1500.76 L2075.16 1500.76 L2094.47 1500.76 L2094.47 1489.63 L2113.90 1489.63 L2113.90 1478.49 L2133.20 1478.49 L2133.20 1478.49 L2152.51 1478.49 L2152.51 1472.92 L2171.94 1472.92 L2171.94 1467.35 L2191.24 1467.35 L2191.24 1461.78 L2210.55 1461.78 L2210.55 1444.95 L2229.97 1444.95 L2229.97 1439.38 L2249.28 1439.38 L2249.28 1422.67 L2268.59 1422.67 L2268.59 1417.11 L2287.89 1417.11 L2287.89 1417.11 L2307.32 1417.11 L2307.32 1411.54 L2326.62 1411.54 L2326.62 1411.54 L2345.93 1411.54 L2345.93 1405.97 L2365.36 1405.97 L2365.36 1400.40 L2384.66 1400.40 L2384.66 1400.40 L2403.97 1400.40 L2403.97 1400.40 L2462.01 1400.40 L2462.01 1394.83 L2481.43 1394.83 L2481.43 1389.26 L2500.74 1389.26 L2500.74 1383.69 L2520.05 1383.69 L2520.05 1378.12 L2539.35 1378.12 L2539.35 1378.12 L2558.78 1378.12 L2558.78 1378.12 L2578.08 1378.12 L2578.08 1372.55 L2597.39 1372.55 L2597.39 1372.55 L2616.82 1372.55 L2616.82 1372.55 L2636.12 1372.55 L2636.12 1366.86 L2655.43 1366.86 L2655.43 1361.29 L2674.86 1361.29 L2674.86 1361.29 L2713.47 1361.29 L2713.47 1361.29 L2732.89 1361.29 L2732.89 1350.15 L2752.20 1350.15 L2752.20 1327.88 L2790.81 1327.88 L2790.81 1327.88 L2810.24 1327.88 L2810.24 1327.88 L2848.85 1327.88 L2848.85 1322.31 L2868.28 1322.31 L2868.28 1322.31 L2887.58 1322.31 L2887.58 1316.62 L2926.32 1316.62 L2926.32 1305.48 L2964.93 1305.48 L2964.93 1305.48 L2984.36 1305.48 L2984.36 1294.34 L3003.66 1294.34 L3003.66 1288.77 L3042.39 1288.77 L3042.39 1283.20 L3119.74 1283.20 L3119.74 1277.51 L3177.78 1277.51 L3177.78 1277.51" stroke-linejoin="round" style="fill:none;stroke:#90353B;stroke-width:8.64"/>
	<line x1="619.12" y1="2309.25" x2="619.12" y2="490.93" style="stroke:#000000;stroke-width:5.76"/>
	<line x1="619.12" y1="2245.89" x2="579.15" y2="2245.89" style="stroke:#000000;stroke-width:5.76"/>
	<text x="559.23" y="2273.90" style="font-family:'Helvetica';font-size:79.94px;fill:#000000" text-anchor="end">0.000</text>
	<line x1="619.12" y1="2076.71" x2="579.15" y2="2076.71" style="stroke:#000000;stroke-width:5.76"/>
	<text x="559.23" y="2104.73" style="font-family:'Helvetica';font-size:79.94px;fill:#000000" text-anchor="end">0.001</text>
	<line x1="619.12" y1="1907.54" x2="579.15" y2="1907.54" style="stroke:#000000;stroke-width:5.76"/>
	<text x="559.23" y="1935.55" style="font-family:'Helvetica';font-size:79.94px;fill:#000000" text-anchor="end">0.002</text>
	<line x1="619.12" y1="1738.37" x2="579.15" y2="1738.37" style="stroke:#000000;stroke-width:5.76"/>
	<text x="559.23" y="1766.38" style="font-family:'Helvetica';font-size:79.94px;fill:#000000" text-anchor="end">0.003</text>
	<line x1="619.12" y1="1569.20" x2="579.15" y2="1569.20" style="stroke:#000000;stroke-width:5.76"/>
	<text x="559.23" y="1597.21" style="font-family:'Helvetica';font-size:79.94px;fill:#000000" text-anchor="end">0.004</text>
	<line x1="619.12" y1="1400.03" x2="579.15" y2="1400.03" style="stroke:#000000;stroke-width:5.76"/>
	<text x="559.23" y="1428.04" style="font-family:'Helvetica';font-size:79.94px;fill:#000000" text-anchor="end">0.005</text>
	<line x1="619.12" y1="1230.86" x2="579.15" y2="1230.86" style="stroke:#000000;stroke-width:5.76"/>
	<text x="559.23" y="1258.87" style="font-family:'Helvetica';font-size:79.94px;fill:#000000" text-anchor="end">0.006</text>
	<line x1="619.12" y1="1061.68" x2="579.15" y2="1061.68" style="stroke:#000000;stroke-width:5.76"/>
	<text x="559.23" y="1089.70" style="font-family:'Helvetica';font-size:79.94px;fill:#000000" text-anchor="end">0.007</text>
	<line x1="619.12" y1="892.51" x2="579.15" y2="892.51" style="stroke:#000000;stroke-width:5.76"/>
	<text x="559.23" y="920.52" style="font-family:'Helvetica';font-size:79.94px;fill:#000000" text-anchor="end">0.008</text>
	<line x1="619.12" y1="723.47" x2="579.15" y2="723.47" style="stroke:#000000;stroke-width:5.76"/>
	<text x="559.23" y="751.48" style="font-family:'Helvetica';font-size:79.94px;fill:#000000" text-anchor="end">0.009</text>
	<line x1="619.12" y1="554.29" x2="579.15" y2="554.29" style="stroke:#000000;stroke-width:5.76"/>
	<text x="559.23" y="582.31" style="font-family:'Helvetica';font-size:79.94px;fill:#000000" text-anchor="end">0.010</text>
	<text x="682.48" y="2747.83" style="font-family:'Helvetica';font-size:60.02px;fill:#000000" text-anchor="middle">30501</text>
	<text x="1069.45" y="2747.83" style="font-family:'Helvetica';font-size:60.02px;fill:#000000" text-anchor="middle">30467</text>
	<text x="1456.29" y="2747.83" style="font-family:'Helvetica';font-size:60.02px;fill:#000000" text-anchor="middle">30370</text>
	<text x="1843.13" y="2747.83" style="font-family:'Helvetica';font-size:60.02px;fill:#000000" text-anchor="middle">30262</text>
	<text x="2229.97" y="2747.83" style="font-family:'Helvetica';font-size:60.02px;fill:#000000" text-anchor="middle">30198</text>
	<text x="2616.82" y="2747.83" style="font-family:'Helvetica';font-size:60.02px;fill:#000000" text-anchor="middle">30149</text>
	<text x="3003.66" y="2747.83" style="font-family:'Helvetica';font-size:60.02px;fill:#000000" text-anchor="middle">30111</text>
	<text x="3390.63" y="2747.83" style="font-family:'Helvetica';font-size:60.02px;fill:#000000" text-anchor="middle">0</text>
	<text x="3777.47" y="2747.83" style="font-family:'Helvetica';font-size:60.02px;fill:#000000" text-anchor="middle">0</text>
	<text x="527.79" y="2747.83" style="font-family:'Helvetica';font-size:60.02px;fill:#000000" text-anchor="end">HCQ</text>
	<text x="682.48" y="2674.44" style="font-family:'Helvetica';font-size:60.02px;fill:#000000" text-anchor="middle">163735</text>
	<text x="1069.45" y="2674.44" style="font-family:'Helvetica';font-size:60.02px;fill:#000000" text-anchor="middle">162504</text>
	<text x="1456.29" y="2674.44" style="font-family:'Helvetica';font-size:60.02px;fill:#000000" text-anchor="middle">161077</text>
	<text x="1843.13" y="2674.44" style="font-family:'Helvetica';font-size:60.02px;fill:#000000" text-anchor="middle">159989</text>
	<text x="2229.97" y="2674.44" style="font-family:'Helvetica';font-size:60.02px;fill:#000000" text-anchor="middle">159196</text>
	<text x="2616.82" y="2674.44" style="font-family:'Helvetica';font-size:60.02px;fill:#000000" text-anchor="middle">158622</text>
	<text x="3003.66" y="2674.44" style="font-family:'Helvetica';font-size:60.02px;fill:#000000" text-anchor="middle">158199</text>
	<text x="3390.63" y="2674.44" style="font-family:'Helvetica';font-size:60.02px;fill:#000000" text-anchor="middle">0</text>
	<text x="3777.47" y="2674.44" style="font-family:'Helvetica';font-size:60.02px;fill:#000000" text-anchor="middle">0</text>
	<text x="527.79" y="2674.44" style="font-family:'Helvetica';font-size:60.02px;fill:#000000" text-anchor="end">No HCQ</text>
	<text x="527.79" y="2601.18" style="font-family:'Helvetica';font-size:60.02px;fill:#000000" text-anchor="end">Number at risk</text>
	<line x1="619.12" y1="2309.25" x2="3840.83" y2="2309.25" style="stroke:#000000;stroke-width:5.76"/>
	<line x1="682.48" y1="2309.25" x2="682.48" y2="2349.22" style="stroke:#000000;stroke-width:5.76"/>
	<text x="682.48" y="2425.17" style="font-family:'Helvetica';font-size:79.94px;fill:#000000" text-anchor="middle">0</text>
	<line x1="1069.45" y1="2309.25" x2="1069.45" y2="2349.22" style="stroke:#000000;stroke-width:5.76"/>
	<text x="1069.45" y="2425.17" style="font-family:'Helvetica';font-size:79.94px;fill:#000000" text-anchor="middle">20</text>
	<line x1="1456.29" y1="2309.25" x2="1456.29" y2="2349.22" style="stroke:#000000;stroke-width:5.76"/>
	<text x="1456.29" y="2425.17" style="font-family:'Helvetica';font-size:79.94px;fill:#000000" text-anchor="middle">40</text>
	<line x1="1843.13" y1="2309.25" x2="1843.13" y2="2349.22" style="stroke:#000000;stroke-width:5.76"/>
	<text x="1843.13" y="2425.17" style="font-family:'Helvetica';font-size:79.94px;fill:#000000" text-anchor="middle">60</text>
	<line x1="2229.97" y1="2309.25" x2="2229.97" y2="2349.22" style="stroke:#000000;stroke-width:5.76"/>
	<text x="2229.97" y="2425.17" style="font-family:'Helvetica';font-size:79.94px;fill:#000000" text-anchor="middle">80</text>
	<line x1="2616.82" y1="2309.25" x2="2616.82" y2="2349.22" style="stroke:#000000;stroke-width:5.76"/>
	<text x="2616.82" y="2425.17" style="font-family:'Helvetica';font-size:79.94px;fill:#000000" text-anchor="middle">100</text>
	<line x1="3003.66" y1="2309.25" x2="3003.66" y2="2349.22" style="stroke:#000000;stroke-width:5.76"/>
	<text x="3003.66" y="2425.17" style="font-family:'Helvetica';font-size:79.94px;fill:#000000" text-anchor="middle">120</text>
	<line x1="3390.63" y1="2309.25" x2="3390.63" y2="2349.22" style="stroke:#000000;stroke-width:5.76"/>
	<text x="3390.63" y="2425.17" style="font-family:'Helvetica';font-size:79.94px;fill:#000000" text-anchor="middle">140</text>
	<line x1="3777.47" y1="2309.25" x2="3777.47" y2="2349.22" style="stroke:#000000;stroke-width:5.76"/>
	<text x="3777.47" y="2425.17" style="font-family:'Helvetica';font-size:79.94px;fill:#000000" text-anchor="middle">160</text>
	<text x="2229.97" y="2515.14" style="font-family:'Helvetica';font-size:79.94px;fill:#000000" text-anchor="middle">Days since 1 Mar 2020</text>
	<rect x="1493.41" y="269.91" width="1473.12" height="186.37" style="fill:#FFFFFF"/>
	<rect x="1496.29" y="272.79" width="1467.36" height="180.61" style="fill:none;stroke:#EAF2F3;stroke-width:5.76"/>
	<line x1="1536.60" y1="363.09" x2="1910.95" y2="363.09" style="stroke:#1A476F;stroke-width:8.64"/>
	<line x1="2349.02" y1="363.09" x2="2723.37" y2="363.09" style="stroke:#90353B;stroke-width:8.64"/>
	<text x="1970.97" y="384.13" style="font-family:'Helvetica';font-size:60.02px;fill:#000000">No HCQ</text>
	<text x="2783.39" y="384.13" style="font-family:'Helvetica';font-size:60.02px;fill:#000000">HCQ</text>
	<text x="1353.58" y="187.99" style="font-family:'Helvetica';font-size:99.99px;fill:#1E2D53">Time to SGSS positive COVID-19 test</text>
</svg>
