<?xml version="1.0" encoding="UTF-8" standalone="no"?>
<!-- This is a Stata 16.1 generated SVG file (http://www.stata.com) -->

<svg version="1.1" width="5.50in" height="4.00in" viewBox="0 0 3960 2880" xmlns="http://www.w3.org/2000/svg" xmlns:xlink="http://www.w3.org/1999/xlink">
	<desc>Stata Graph - Graph</desc>
	<rect x="0" y="0" width="3960" height="2880" style="fill:#EAF2F3;stroke:none"/>
	<rect x="0.00" y="0.00" width="3959.88" height="2880.00" style="fill:#FFFFFF"/>
	<rect x="2.88" y="2.88" width="3954.12" height="2874.24" style="fill:none;stroke:#EAF2F3;stroke-width:5.76"/>
	<rect x="619.12" y="630.90" width="3221.71" height="1678.35" style="fill:#FFFFFF"/>
	<rect x="622.00" y="633.78" width="3215.95" height="1672.59" style="fill:none;stroke:#FFFFFF;stroke-width:5.76"/>
	<line x1="619.12" y1="2245.89" x2="3840.83" y2="2245.89" style="stroke:#EAF2F3;stroke-width:8.64"/>
	<line x1="619.12" y1="2090.70" x2="3840.83" y2="2090.70" style="stroke:#EAF2F3;stroke-width:8.64"/>
	<line x1="619.12" y1="1935.51" x2="3840.83" y2="1935.51" style="stroke:#EAF2F3;stroke-width:8.64"/>
	<line x1="619.12" y1="1780.45" x2="3840.83" y2="1780.45" style="stroke:#EAF2F3;stroke-width:8.64"/>
	<line x1="619.12" y1="1625.26" x2="3840.83" y2="1625.26" style="stroke:#EAF2F3;stroke-width:8.64"/>
	<line x1="619.12" y1="1470.07" x2="3840.83" y2="1470.07" style="stroke:#EAF2F3;stroke-width:8.64"/>
	<line x1="619.12" y1="1314.88" x2="3840.83" y2="1314.88" style="stroke:#EAF2F3;stroke-width:8.64"/>
	<line x1="619.12" y1="1159.70" x2="3840.83" y2="1159.70" style="stroke:#EAF2F3;stroke-width:8.64"/>
	<line x1="619.12" y1="1004.51" x2="3840.83" y2="1004.51" style="stroke:#EAF2F3;stroke-width:8.64"/>
	<line x1="619.12" y1="849.45" x2="3840.83" y2="849.45" style="stroke:#EAF2F3;stroke-width:8.64"/>
	<line x1="619.12" y1="694.26" x2="3840.83" y2="694.26" style="stroke:#EAF2F3;stroke-width:8.64"/>
	<defs>
		<path id="path_MMTkKnKX" d="M701.91 2245.76 L701.91 2245.76 L721.22 2245.76 L721.22 2245.39 L740.52 2245.39 L740.52 2245.39 L759.95 2245.39 L759.95 2245.39 L779.25 2245.39 L779.25 2245.02 L798.56 2245.02 L798.56 2245.02 L817.86 2245.02 L817.86 2245.02 L837.29 2245.02 L837.29 2245.02 L856.60 2245.02 L856.60 2245.02 L875.90 2245.02 L875.90 2244.52 L895.33 2244.52 L895.33 2243.29 L914.64 2243.29 L914.64 2241.43 L933.94 2241.43 L933.94 2240.07 L953.37 2240.07 L953.37 2238.71 L972.67 2238.71 L972.67 2235.12 L991.98 2235.12 L991.98 2234.38 L1011.41 2234.38 L1011.41 2230.66 L1030.71 2230.66 L1030.71 2224.48 L1050.02 2224.48 L1050.02 2220.52 L1069.45 2220.52 L1069.45 2214.82 L1088.75 2214.82 L1088.75 2209.13 L1108.06 2209.13 L1108.06 2196.63 L1127.36 2196.63 L1127.36 2185.74 L1146.79 2185.74 L1146.79 2175.47 L1166.10 2175.47 L1166.10 2155.67 L1185.40 2155.67 L1185.40 2142.67 L1204.83 2142.67 L1204.83 2125.23 L1224.13 2125.23 L1224.13 2107.53 L1243.44 2107.53 L1243.44 2084.63 L1262.87 2084.63 L1262.87 2062.36 L1282.17 2062.36 L1282.17 2032.90 L1301.48 2032.90 L1301.48 2012.24 L1320.91 2012.24 L1320.91 1987.86 L1340.21 1987.86 L1340.21 1971.65 L1359.52 1971.65 L1359.52 1957.17 L1378.82 1957.17 L1378.82 1927.34 L1398.25 1927.34 L1398.25 1913.73 L1417.56 1913.73 L1417.56 1891.83 L1436.86 1891.83 L1436.86 1870.04 L1456.29 1870.04 L1456.29 1849.01 L1475.60 1849.01 L1475.60 1838.98 L1494.90 1838.98 L1494.90 1828.96 L1514.33 1828.96 L1514.33 1815.22 L1533.63 1815.22 L1533.63 1795.92 L1552.94 1795.92 L1552.94 1776.73 L1572.37 1776.73 L1572.37 1759.28 L1591.67 1759.28 L1591.67 1740.85 L1610.98 1740.85 L1610.98 1717.83 L1630.28 1717.83 L1630.28 1704.96 L1649.71 1704.96 L1649.71 1690.23 L1669.02 1690.23 L1669.02 1669.07 L1688.32 1669.07 L1688.32 1652.49 L1707.75 1652.49 L1707.75 1632.07 L1727.06 1632.07 L1727.06 1614.49 L1746.36 1614.49 L1746.36 1604.35 L1765.79 1604.35 L1765.79 1594.20 L1785.09 1594.20 L1785.09 1583.06 L1804.40 1583.06 L1804.40 1566.35 L1823.83 1566.35 L1823.83 1550.64 L1843.13 1550.64 L1843.13 1538.51 L1862.44 1538.51 L1862.44 1518.09 L1881.74 1518.09 L1881.74 1506.95 L1901.17 1506.95 L1901.17 1497.67 L1920.48 1497.67 L1920.48 1487.52 L1939.78 1487.52 L1939.78 1475.39 L1959.21 1475.39 L1959.21 1466.11 L1978.52 1466.11 L1978.52 1453.98 L1997.82 1453.98 L1997.82 1446.56 L2017.25 1446.56 L2017.25 1438.14 L2036.55 1438.14 L2036.55 1435.30 L2055.86 1435.30 L2055.86 1424.16 L2075.29 1424.16 L2075.29 1416.73 L2094.59 1416.73 L2094.59 1405.47 L2113.90 1405.47 L2113.90 1396.19 L2133.20 1396.19 L2133.20 1385.92 L2152.63 1385.92 L2152.63 1383.07 L2171.94 1383.07 L2171.94 1378.37 L2191.24 1378.37 L2191.24 1368.10 L2210.67 1368.10 L2210.67 1354.11 L2229.97 1354.11 L2229.97 1345.70 L2249.28 1345.70 L2249.28 1339.14 L2268.71 1339.14 L2268.71 1332.58 L2288.01 1332.58 L2288.01 1329.86 L2307.32 1329.86 L2307.32 1328.87 L2326.75 1328.87 L2326.75 1326.02 L2346.05 1326.02 L2346.05 1318.60 L2365.36 1318.60 L2365.36 1314.88 L2384.79 1314.88 L2384.79 1309.19 L2404.09 1309.19 L2404.09 1305.48 L2423.40 1305.48 L2423.40 1300.78 L2442.70 1300.78 L2442.70 1293.23 L2462.13 1293.23 L2462.13 1288.65 L2481.43 1288.65 L2481.43 1284.81 L2500.74 1284.81 L2500.74 1277.39 L2520.17 1277.39 L2520.17 1272.68 L2539.47 1272.68 L2539.47 1269.84 L2558.78 1269.84 L2558.78 1266.13 L2578.21 1266.13 L2578.21 1263.28 L2597.51 1263.28 L2597.51 1258.58 L2616.82 1258.58 L2616.82 1258.58 L2636.25 1258.58 L2636.25 1254.86 L2655.55 1254.86 L2655.55 1250.16 L2674.86 1250.16 L2674.86 1244.47 L2694.16 1244.47 L2694.16 1238.78 L2713.59 1238.78 L2713.59 1236.05 L2732.89 1236.05 L2732.89 1235.06 L2752.20 1235.06 L2752.20 1228.50 L2771.63 1228.50 L2771.63 1225.66 L2790.93 1225.66 L2790.93 1224.79 L2810.24 1224.79 L2810.24 1218.11 L2829.67 1218.11 L2829.67 1214.40 L2848.97 1214.40 L2848.97 1213.41 L2868.28 1213.41 L2868.28 1210.56 L2887.71 1210.56 L2887.71 1205.86 L2907.01 1205.86 L2907.01 1204.00 L2926.32 1204.00 L2926.32 1204.00 L2945.62 1204.00 L2945.62 1202.15 L2965.05 1202.15 L2965.05 1201.16 L2984.36 1201.16 L2984.36 1199.30 L3003.66 1199.30 L3003.66 1198.43 L3023.09 1198.43 L3023.09 1197.44 L3042.39 1197.44 L3042.39 1196.45 L3061.70 1196.45 L3061.70 1194.60 L3081.13 1194.60 L3081.13 1193.61 L3100.43 1193.61 L3100.43 1191.75 L3119.74 1191.75 L3119.74 1191.75 L3139.17 1191.75 L3139.17 1191.75 L3158.47 1191.75 L3158.47 1191.75 L3177.78 1191.75 L3177.78 1189.89 L3197.08 1189.89 L3197.08 1188.90 L3216.51 1188.90 L3216.51 1186.06 L3235.82 1186.06 L3235.82 1185.19 L3255.12 1185.19 L3255.12 1184.20 L3274.55 1184.20 L3274.55 1184.20 L3293.85 1184.20 L3293.85 1182.34 L3313.16 1182.34 L3313.16 1181.35 L3332.59 1181.35 L3332.59 1179.50 L3351.89 1179.50 L3351.89 1177.64 L3371.20 1177.64 L3371.20 1176.65 L3390.63 1176.65 L3390.63 1174.80 L3409.93 1174.80 L3409.93 1174.80 L3429.24 1174.80 L3429.24 1174.80 L3448.54 1174.80 L3448.54 1174.80 L3467.97 1174.80 L3467.97 1172.94 L3487.28 1172.94 L3487.28 1171.95 L3506.58 1171.95 L3506.58 1170.96 L3526.01 1170.96 L3526.01 1170.09 L3545.31 1170.09 L3545.31 1170.09 L3564.62 1170.09 L3564.62 1170.09 L3584.05 1170.09 L3584.05 1163.41 L3603.35 1163.41 L3603.35 1163.41 L3622.66 1163.41 L3622.66 1163.41 L3642.09 1163.41 L3642.09 1162.42 L3661.39 1162.42 L3661.39 1161.55 L3680.70 1161.55 L3680.70 1158.71 L3700.13 1158.71 L3700.13 1155.86 L3719.43 1155.86 L3719.43 1154.00 L3719.43 1023.82 L3719.43 1025.92 L3700.13 1025.92 L3700.13 1028.89 L3680.70 1028.89 L3680.70 1031.86 L3661.39 1031.86 L3661.39 1032.85 L3642.09 1032.85 L3642.09 1033.84 L3622.66 1033.84 L3622.66 1033.84 L3603.35 1033.84 L3603.35 1033.84 L3584.05 1033.84 L3584.05 1040.89 L3564.62 1040.89 L3564.62 1040.89 L3545.31 1040.89 L3545.31 1040.89 L3526.01 1040.89 L3526.01 1041.88 L3506.58 1041.88 L3506.58 1042.87 L3487.28 1042.87 L3487.28 1043.86 L3467.97 1043.86 L3467.97 1045.97 L3448.54 1045.97 L3448.54 1045.97 L3429.24 1045.97 L3429.24 1045.97 L3409.93 1045.97 L3409.93 1045.97 L3390.63 1045.97 L3390.63 1047.95 L3371.20 1047.95 L3371.20 1048.94 L3351.89 1048.94 L3351.89 1050.92 L3332.59 1050.92 L3332.59 1052.90 L3313.16 1052.90 L3313.16 1053.89 L3293.85 1053.89 L3293.85 1055.87 L3274.55 1055.87 L3274.55 1055.87 L3255.12 1055.87 L3255.12 1056.86 L3235.82 1056.86 L3235.82 1057.97 L3216.51 1057.97 L3216.51 1060.94 L3197.08 1060.94 L3197.08 1061.93 L3177.78 1061.93 L3177.78 1063.91 L3158.47 1063.91 L3158.47 1063.91 L3139.17 1063.91 L3139.17 1063.91 L3119.74 1063.91 L3119.74 1063.91 L3100.43 1063.91 L3100.43 1065.89 L3081.13 1065.89 L3081.13 1066.88 L3061.70 1066.88 L3061.70 1068.86 L3042.39 1068.86 L3042.39 1069.85 L3023.09 1069.85 L3023.09 1070.97 L3003.66 1070.97 L3003.66 1071.96 L2984.36 1071.96 L2984.36 1073.94 L2965.05 1073.94 L2965.05 1074.93 L2945.62 1074.93 L2945.62 1076.91 L2926.32 1076.91 L2926.32 1076.91 L2907.01 1076.91 L2907.01 1078.89 L2887.71 1078.89 L2887.71 1083.84 L2868.28 1083.84 L2868.28 1086.93 L2848.97 1086.93 L2848.97 1087.92 L2829.67 1087.92 L2829.67 1091.88 L2810.24 1091.88 L2810.24 1098.81 L2790.93 1098.81 L2790.93 1099.80 L2771.63 1099.80 L2771.63 1102.77 L2752.20 1102.77 L2752.20 1109.82 L2732.89 1109.82 L2732.89 1110.81 L2713.59 1110.81 L2713.59 1113.78 L2694.16 1113.78 L2694.16 1119.72 L2674.86 1119.72 L2674.86 1125.79 L2655.55 1125.79 L2655.55 1130.74 L2636.25 1130.74 L2636.25 1134.70 L2616.82 1134.70 L2616.82 1134.70 L2597.51 1134.70 L2597.51 1139.65 L2578.21 1139.65 L2578.21 1142.74 L2558.78 1142.74 L2558.78 1146.70 L2539.47 1146.70 L2539.47 1149.67 L2520.17 1149.67 L2520.17 1154.62 L2500.74 1154.62 L2500.74 1162.67 L2481.43 1162.67 L2481.43 1166.63 L2462.13 1166.63 L2462.13 1171.58 L2442.70 1171.58 L2442.70 1179.50 L2423.40 1179.50 L2423.40 1184.57 L2404.09 1184.57 L2404.09 1188.53 L2384.79 1188.53 L2384.79 1194.47 L2365.36 1194.47 L2365.36 1198.43 L2346.05 1198.43 L2346.05 1206.48 L2326.75 1206.48 L2326.75 1209.45 L2307.32 1209.45 L2307.32 1210.44 L2288.01 1210.44 L2288.01 1213.41 L2268.71 1213.41 L2268.71 1220.34 L2249.28 1220.34 L2249.28 1227.27 L2229.97 1227.27 L2229.97 1236.30 L2210.67 1236.30 L2210.67 1251.15 L2191.24 1251.15 L2191.24 1262.17 L2171.94 1262.17 L2171.94 1267.12 L2152.63 1267.12 L2152.63 1270.09 L2133.20 1270.09 L2133.20 1280.98 L2113.90 1280.98 L2113.90 1291.00 L2094.59 1291.00 L2094.59 1302.88 L2075.29 1302.88 L2075.29 1310.80 L2055.86 1310.80 L2055.86 1322.81 L2036.55 1322.81 L2036.55 1325.78 L2017.25 1325.78 L2017.25 1334.69 L1997.82 1334.69 L1997.82 1342.73 L1978.52 1342.73 L1978.52 1355.60 L1959.21 1355.60 L1959.21 1365.50 L1939.78 1365.50 L1939.78 1378.49 L1920.48 1378.49 L1920.48 1389.38 L1901.17 1389.38 L1901.17 1399.41 L1881.74 1399.41 L1881.74 1411.29 L1862.44 1411.29 L1862.44 1433.19 L1843.13 1433.19 L1843.13 1446.06 L1823.83 1446.06 L1823.83 1463.02 L1804.40 1463.02 L1804.40 1480.96 L1785.09 1480.96 L1785.09 1492.84 L1765.79 1492.84 L1765.79 1503.86 L1746.36 1503.86 L1746.36 1514.75 L1727.06 1514.75 L1727.06 1533.68 L1707.75 1533.68 L1707.75 1555.59 L1688.32 1555.59 L1688.32 1573.53 L1669.02 1573.53 L1669.02 1596.42 L1649.71 1596.42 L1649.71 1612.39 L1630.28 1612.39 L1630.28 1626.37 L1610.98 1626.37 L1610.98 1651.25 L1591.67 1651.25 L1591.67 1671.30 L1572.37 1671.30 L1572.37 1690.23 L1552.94 1690.23 L1552.94 1711.14 L1533.63 1711.14 L1533.63 1732.18 L1514.33 1732.18 L1514.33 1747.16 L1494.90 1747.16 L1494.90 1758.17 L1475.60 1758.17 L1475.60 1769.19 L1456.29 1769.19 L1456.29 1792.20 L1436.86 1792.20 L1436.86 1816.21 L1417.56 1816.21 L1417.56 1840.34 L1398.25 1840.34 L1398.25 1855.44 L1378.82 1855.44 L1378.82 1888.61 L1359.52 1888.61 L1359.52 1904.70 L1340.21 1904.70 L1340.21 1922.76 L1320.91 1922.76 L1320.91 1950.11 L1301.48 1950.11 L1301.48 1973.38 L1282.17 1973.38 L1282.17 2006.92 L1262.87 2006.92 L1262.87 2032.29 L1243.44 2032.29 L1243.44 2058.89 L1224.13 2058.89 L1224.13 2079.44 L1204.83 2079.44 L1204.83 2100.10 L1185.40 2100.10 L1185.40 2115.70 L1166.10 2115.70 L1166.10 2139.70 L1146.79 2139.70 L1146.79 2152.33 L1127.36 2152.33 L1127.36 2166.19 L1108.06 2166.19 L1108.06 2182.15 L1088.75 2182.15 L1088.75 2189.82 L1069.45 2189.82 L1069.45 2197.50 L1050.02 2197.50 L1050.02 2202.94 L1030.71 2202.94 L1030.71 2211.98 L1011.41 2211.98 L1011.41 2217.67 L991.98 2217.67 L991.98 2218.78 L972.67 2218.78 L972.67 2224.72 L953.37 2224.72 L953.37 2227.07 L933.94 2227.07 L933.94 2229.55 L914.64 2229.55 L914.64 2233.26 L895.33 2233.26 L895.33 2235.86 L875.90 2235.86 L875.90 2237.10 L856.60 2237.10 L856.60 2237.10 L837.29 2237.10 L837.29 2237.10 L817.86 2237.10 L817.86 2237.10 L798.56 2237.10 L798.56 2237.10 L779.25 2237.10 L779.25 2238.34 L759.95 2238.34 L759.95 2238.34 L740.52 2238.34 L740.52 2238.34 L721.22 2238.34 L721.22 2239.20 L701.91 2239.20 L701.91 2245.76 Z" stroke-linejoin="round"/>
	</defs>
	<defs>
		<clipPath id="clipPath_VNtvmkOA">
			<use xlink:href="#path_MMTkKnKX"/>
		</clipPath>
	</defs>
	<use xlink:href="#path_MMTkKnKX" style="stroke:none;fill:#DDE3E9"/>
	<use xlink:href="#path_MMTkKnKX" style="fill:none;stroke:#DDE3E9;stroke-width:17.28" clip-path="url(#clipPath_VNtvmkOA)"/>
	<path d=" M701.79 2245.76 L721.09 2245.76 L721.09 2245.51 L740.52 2245.51 L740.52 2245.51 L759.83 2245.51 L759.83 2245.51 L779.13 2245.51 L779.13 2245.02 L798.56 2245.02 L798.56 2245.02 L817.86 2245.02 L817.86 2245.02 L837.17 2245.02 L837.17 2245.02 L856.60 2245.02 L856.60 2245.02 L875.90 2245.02 L875.90 2244.52 L895.21 2244.52 L895.21 2243.41 L914.64 2243.41 L914.64 2241.55 L933.94 2241.55 L933.94 2240.19 L953.25 2240.19 L953.25 2238.83 L972.55 2238.83 L972.55 2235.24 L991.98 2235.24 L991.98 2234.50 L1011.28 2234.50 L1011.28 2230.66 L1030.59 2230.66 L1030.59 2224.48 L1050.02 2224.48 L1050.02 2220.52 L1069.32 2220.52 L1069.32 2214.95 L1088.63 2214.95 L1088.63 2209.13 L1108.06 2209.13 L1108.06 2196.75 L1127.36 2196.75 L1127.36 2185.74 L1146.67 2185.74 L1146.67 2175.59 L1166.10 2175.59 L1166.10 2155.79 L1185.40 2155.79 L1185.40 2142.67 L1204.71 2142.67 L1204.71 2125.23 L1224.01 2125.23 L1224.01 2107.65 L1243.44 2107.65 L1243.44 2084.63 L1262.74 2084.63 L1262.74 2062.36 L1282.05 2062.36 L1282.05 2032.90 L1301.48 2032.90 L1301.48 2012.24 L1320.78 2012.24 L1320.78 1987.98 L1340.09 1987.98 L1340.09 1971.77 L1359.52 1971.77 L1359.52 1957.29 L1378.82 1957.29 L1378.82 1927.34 L1398.13 1927.34 L1398.13 1913.73 L1417.56 1913.73 L1417.56 1891.95 L1436.86 1891.95 L1436.86 1870.04 L1456.17 1870.04 L1456.17 1849.13 L1475.47 1849.13 L1475.47 1838.98 L1494.90 1838.98 L1494.90 1828.96 L1514.20 1828.96 L1514.20 1815.22 L1533.51 1815.22 L1533.51 1796.04 L1552.94 1796.04 L1552.94 1776.73 L1572.24 1776.73 L1572.24 1759.28 L1591.55 1759.28 L1591.55 1740.97 L1610.98 1740.97 L1610.98 1717.95 L1630.28 1717.95 L1630.28 1705.08 L1649.59 1705.08 L1649.59 1690.35 L1669.02 1690.35 L1669.02 1669.07 L1688.32 1669.07 L1688.32 1652.49 L1707.63 1652.49 L1707.63 1632.19 L1727.06 1632.19 L1727.06 1614.62 L1746.36 1614.62 L1746.36 1604.47 L1765.66 1604.47 L1765.66 1594.20 L1784.97 1594.20 L1784.97 1583.18 L1804.40 1583.18 L1804.40 1566.48 L1823.70 1566.48 L1823.70 1550.64 L1843.01 1550.64 L1843.01 1538.63 L1862.44 1538.63 L1862.44 1518.21 L1881.74 1518.21 L1881.74 1507.07 L1901.05 1507.07 L1901.05 1497.79 L1920.48 1497.79 L1920.48 1487.52 L1939.78 1487.52 L1939.78 1475.39 L1959.09 1475.39 L1959.09 1466.11 L1978.52 1466.11 L1978.52 1453.98 L1997.82 1453.98 L1997.82 1446.56 L2017.13 1446.56 L2017.13 1438.14 L2036.43 1438.14 L2036.43 1435.42 L2055.86 1435.42 L2055.86 1424.16 L2075.16 1424.16 L2075.16 1416.73 L2094.47 1416.73 L2094.47 1405.60 L2113.90 1405.60 L2113.90 1396.19 L2133.20 1396.19 L2133.20 1385.92 L2152.51 1385.92 L2152.51 1383.20 L2171.94 1383.20 L2171.94 1378.49 L2191.24 1378.49 L2191.24 1368.22 L2210.55 1368.22 L2210.55 1354.24 L2229.97 1354.24 L2229.97 1345.82 L2249.28 1345.82 L2249.28 1339.26 L2268.59 1339.26 L2268.59 1332.71 L2287.89 1332.71 L2287.89 1329.86 L2307.32 1329.86 L2307.32 1328.99 L2326.62 1328.99 L2326.62 1326.15 L2345.93 1326.15 L2345.93 1318.60 L2365.36 1318.60 L2365.36 1314.88 L2384.66 1314.88 L2384.66 1309.32 L2403.97 1309.32 L2403.97 1305.48 L2423.40 1305.48 L2423.40 1300.90 L2442.70 1300.90 L2442.70 1293.35 L2462.01 1293.35 L2462.01 1288.65 L2481.43 1288.65 L2481.43 1284.94 L2500.74 1284.94 L2500.74 1277.39 L2520.05 1277.39 L2520.05 1272.68 L2539.35 1272.68 L2539.35 1269.84 L2558.78 1269.84 L2558.78 1266.13 L2578.08 1266.13 L2578.08 1263.28 L2597.39 1263.28 L2597.39 1258.58 L2616.82 1258.58 L2616.82 1258.58 L2636.12 1258.58 L2636.12 1254.86 L2655.43 1254.86 L2655.43 1250.16 L2674.86 1250.16 L2674.86 1244.59 L2694.16 1244.59 L2694.16 1238.90 L2713.47 1238.90 L2713.47 1236.05 L2732.89 1236.05 L2732.89 1235.19 L2752.20 1235.19 L2752.20 1228.50 L2771.51 1228.50 L2771.51 1225.78 L2790.81 1225.78 L2790.81 1224.79 L2810.24 1224.79 L2810.24 1218.23 L2829.54 1218.23 L2829.54 1214.40 L2848.85 1214.40 L2848.85 1213.53 L2868.28 1213.53 L2868.28 1210.68 L2887.58 1210.68 L2887.58 1205.98 L2906.89 1205.98 L2906.89 1204.13 L2926.32 1204.13 L2926.32 1204.13 L2945.62 1204.13 L2945.62 1202.15 L2964.93 1202.15 L2964.93 1201.28 L2984.36 1201.28 L2984.36 1199.42 L3003.66 1199.42 L3003.66 1198.43 L3022.97 1198.43 L3022.97 1197.44 L3042.39 1197.44 L3042.39 1196.58 L3061.70 1196.58 L3061.70 1194.72 L3081.00 1194.72 L3081.00 1193.73 L3100.31 1193.73 L3100.31 1191.87 L3119.74 1191.87 L3119.74 1191.87 L3139.04 1191.87 L3139.04 1191.87 L3158.35 1191.87 L3158.35 1191.87 L3177.78 1191.87 L3177.78 1189.89 L3197.08 1189.89 L3197.08 1189.03 L3216.39 1189.03 L3216.39 1186.18 L3235.82 1186.18 L3235.82 1185.19 L3255.12 1185.19 L3255.12 1184.32 L3274.43 1184.32 L3274.43 1184.32 L3293.85 1184.32 L3293.85 1182.34 L3313.16 1182.34 L3313.16 1181.48 L3332.46 1181.48 L3332.46 1179.62 L3351.77 1179.62 L3351.77 1177.64 L3371.20 1177.64 L3371.20 1176.78 L3390.50 1176.78 L3390.50 1174.80 L3409.81 1174.80 L3409.81 1174.80 L3429.24 1174.80 L3429.24 1174.80 L3448.54 1174.80 L3448.54 1174.80 L3467.85 1174.80 L3467.85 1172.94 L3487.28 1172.94 L3487.28 1171.95 L3506.58 1171.95 L3506.58 1171.08 L3525.89 1171.08 L3525.89 1170.09 L3545.31 1170.09 L3545.31 1170.09 L3564.62 1170.09 L3564.62 1170.09 L3583.92 1170.09 L3583.92 1163.53 L3603.23 1163.53 L3603.23 1163.53 L3622.66 1163.53 L3622.66 1163.53 L3641.96 1163.53 L3641.96 1162.54 L3661.27 1162.54 L3661.27 1161.55 L3680.70 1161.55 L3680.70 1158.71 L3700.00 1158.71 L3700.00 1155.86 L3719.31 1155.86 L3719.31 1154.00" stroke-linejoin="round" style="fill:none;stroke:#8DA3B7;stroke-width:8.64"/>
	<path d=" M701.79 2239.20 L721.09 2239.20 L721.09 2238.46 L740.52 2238.46 L740.52 2238.46 L759.83 2238.46 L759.83 2238.46 L779.13 2238.46 L779.13 2237.22 L798.56 2237.22 L798.56 2237.22 L817.86 2237.22 L817.86 2237.22 L837.17 2237.22 L837.17 2237.22 L856.60 2237.22 L856.60 2237.22 L875.90 2237.22 L875.90 2235.86 L895.21 2235.86 L895.21 2233.26 L914.64 2233.26 L914.64 2229.55 L933.94 2229.55 L933.94 2227.20 L953.25 2227.20 L953.25 2224.72 L972.55 2224.72 L972.55 2218.91 L991.98 2218.91 L991.98 2217.79 L1011.28 2217.79 L1011.28 2211.98 L1030.59 2211.98 L1030.59 2203.07 L1050.02 2203.07 L1050.02 2197.50 L1069.32 2197.50 L1069.32 2189.82 L1088.63 2189.82 L1088.63 2182.28 L1108.06 2182.28 L1108.06 2166.19 L1127.36 2166.19 L1127.36 2152.45 L1146.67 2152.45 L1146.67 2139.83 L1166.10 2139.83 L1166.10 2115.70 L1185.40 2115.70 L1185.40 2100.23 L1204.71 2100.23 L1204.71 2079.56 L1224.01 2079.56 L1224.01 2059.02 L1243.44 2059.02 L1243.44 2032.41 L1262.74 2032.41 L1262.74 2006.92 L1282.05 2006.92 L1282.05 1973.38 L1301.48 1973.38 L1301.48 1950.11 L1320.78 1950.11 L1320.78 1922.89 L1340.09 1922.89 L1340.09 1904.70 L1359.52 1904.70 L1359.52 1888.61 L1378.82 1888.61 L1378.82 1855.44 L1398.13 1855.44 L1398.13 1840.34 L1417.56 1840.34 L1417.56 1816.34 L1436.86 1816.34 L1436.86 1792.20 L1456.17 1792.20 L1456.17 1769.19 L1475.47 1769.19 L1475.47 1758.17 L1494.90 1758.17 L1494.90 1747.28 L1514.20 1747.28 L1514.20 1732.18 L1533.51 1732.18 L1533.51 1711.27 L1552.94 1711.27 L1552.94 1690.23 L1572.24 1690.23 L1572.24 1671.30 L1591.55 1671.30 L1591.55 1651.37 L1610.98 1651.37 L1610.98 1626.37 L1630.28 1626.37 L1630.28 1612.51 L1649.59 1612.51 L1649.59 1596.55 L1669.02 1596.55 L1669.02 1573.65 L1688.32 1573.65 L1688.32 1555.71 L1707.63 1555.71 L1707.63 1533.81 L1727.06 1533.81 L1727.06 1514.87 L1746.36 1514.87 L1746.36 1503.86 L1765.66 1503.86 L1765.66 1492.97 L1784.97 1492.97 L1784.97 1480.96 L1804.40 1480.96 L1804.40 1463.14 L1823.70 1463.14 L1823.70 1446.19 L1843.01 1446.19 L1843.01 1433.19 L1862.44 1433.19 L1862.44 1411.41 L1881.74 1411.41 L1881.74 1399.41 L1901.05 1399.41 L1901.05 1389.51 L1920.48 1389.51 L1920.48 1378.49 L1939.78 1378.49 L1939.78 1365.62 L1959.09 1365.62 L1959.09 1355.72 L1978.52 1355.72 L1978.52 1342.73 L1997.82 1342.73 L1997.82 1334.81 L2017.13 1334.81 L2017.13 1325.90 L2036.43 1325.90 L2036.43 1322.81 L2055.86 1322.81 L2055.86 1310.92 L2075.16 1310.92 L2075.16 1303.00 L2094.47 1303.00 L2094.47 1291.00 L2113.90 1291.00 L2113.90 1281.10 L2133.20 1281.10 L2133.20 1270.09 L2152.51 1270.09 L2152.51 1267.12 L2171.94 1267.12 L2171.94 1262.17 L2191.24 1262.17 L2191.24 1251.28 L2210.55 1251.28 L2210.55 1236.30 L2229.97 1236.30 L2229.97 1227.39 L2249.28 1227.39 L2249.28 1220.46 L2268.59 1220.46 L2268.59 1213.41 L2287.89 1213.41 L2287.89 1210.44 L2307.32 1210.44 L2307.32 1209.45 L2326.62 1209.45 L2326.62 1206.48 L2345.93 1206.48 L2345.93 1198.56 L2365.36 1198.56 L2365.36 1194.60 L2384.66 1194.60 L2384.66 1188.53 L2403.97 1188.53 L2403.97 1184.57 L2423.40 1184.57 L2423.40 1179.62 L2442.70 1179.62 L2442.70 1171.58 L2462.01 1171.58 L2462.01 1166.63 L2481.43 1166.63 L2481.43 1162.67 L2500.74 1162.67 L2500.74 1154.75 L2520.05 1154.75 L2520.05 1149.67 L2539.35 1149.67 L2539.35 1146.70 L2558.78 1146.70 L2558.78 1142.74 L2578.08 1142.74 L2578.08 1139.77 L2597.39 1139.77 L2597.39 1134.82 L2616.82 1134.82 L2616.82 1134.82 L2636.12 1134.82 L2636.12 1130.74 L2655.43 1130.74 L2655.43 1125.79 L2674.86 1125.79 L2674.86 1119.85 L2694.16 1119.85 L2694.16 1113.91 L2713.47 1113.91 L2713.47 1110.81 L2732.89 1110.81 L2732.89 1109.82 L2752.20 1109.82 L2752.20 1102.89 L2771.51 1102.89 L2771.51 1099.92 L2790.81 1099.92 L2790.81 1098.93 L2810.24 1098.93 L2810.24 1091.88 L2829.54 1091.88 L2829.54 1087.92 L2848.85 1087.92 L2848.85 1086.93 L2868.28 1086.93 L2868.28 1083.96 L2887.58 1083.96 L2887.58 1079.01 L2906.89 1079.01 L2906.89 1076.91 L2926.32 1076.91 L2926.32 1076.91 L2945.62 1076.91 L2945.62 1074.93 L2964.93 1074.93 L2964.93 1073.94 L2984.36 1073.94 L2984.36 1071.96 L3003.66 1071.96 L3003.66 1070.97 L3022.97 1070.97 L3022.97 1069.98 L3042.39 1069.98 L3042.39 1068.99 L3061.70 1068.99 L3061.70 1067.01 L3081.00 1067.01 L3081.00 1066.02 L3100.31 1066.02 L3100.31 1064.04 L3119.74 1064.04 L3119.74 1064.04 L3139.04 1064.04 L3139.04 1064.04 L3158.35 1064.04 L3158.35 1064.04 L3177.78 1064.04 L3177.78 1061.93 L3197.08 1061.93 L3197.08 1060.94 L3216.39 1060.94 L3216.39 1057.97 L3235.82 1057.97 L3235.82 1056.98 L3255.12 1056.98 L3255.12 1055.99 L3274.43 1055.99 L3274.43 1055.99 L3293.85 1055.99 L3293.85 1054.01 L3313.16 1054.01 L3313.16 1053.02 L3332.46 1053.02 L3332.46 1050.92 L3351.77 1050.92 L3351.77 1048.94 L3371.20 1048.94 L3371.20 1047.95 L3390.50 1047.95 L3390.50 1045.97 L3409.81 1045.97 L3409.81 1045.97 L3429.24 1045.97 L3429.24 1045.97 L3448.54 1045.97 L3448.54 1045.97 L3467.85 1045.97 L3467.85 1043.99 L3487.28 1043.99 L3487.28 1043.00 L3506.58 1043.00 L3506.58 1042.01 L3525.89 1042.01 L3525.89 1041.02 L3545.31 1041.02 L3545.31 1041.02 L3564.62 1041.02 L3564.62 1041.02 L3583.92 1041.02 L3583.92 1033.96 L3603.23 1033.96 L3603.23 1033.96 L3622.66 1033.96 L3622.66 1033.96 L3641.96 1033.96 L3641.96 1032.97 L3661.27 1032.97 L3661.27 1031.98 L3680.70 1031.98 L3680.70 1028.89 L3700.00 1028.89 L3700.00 1025.92 L3719.31 1025.92 L3719.31 1023.94" stroke-linejoin="round" style="fill:none;stroke:#8DA3B7;stroke-width:8.64"/>
	<defs>
		<path id="path_OSOsacSC" d="M914.64 2245.14 L914.64 2245.14 L933.94 2245.14 L933.94 2245.14 L953.37 2245.14 L953.37 2245.14 L972.67 2245.14 L972.67 2245.14 L991.98 2245.14 L991.98 2245.14 L1011.41 2245.14 L1011.41 2243.41 L1050.02 2243.41 L1050.02 2238.34 L1069.45 2238.34 L1069.45 2232.27 L1088.75 2232.27 L1088.75 2228.93 L1108.06 2228.93 L1108.06 2222.12 L1127.36 2222.12 L1127.36 2211.36 L1146.79 2211.36 L1146.79 2192.30 L1166.10 2192.30 L1166.10 2176.46 L1185.40 2176.46 L1185.40 2164.21 L1204.83 2164.21 L1204.83 2164.21 L1224.13 2164.21 L1224.13 2147.75 L1243.44 2147.75 L1243.44 2147.75 L1262.87 2147.75 L1262.87 2131.04 L1282.17 2131.04 L1282.17 2114.09 L1301.48 2114.09 L1301.48 2096.89 L1320.91 2096.89 L1320.91 2084.02 L1340.21 2084.02 L1340.21 2070.90 L1359.52 2070.90 L1359.52 2066.57 L1378.82 2066.57 L1378.82 2044.66 L1398.25 2044.66 L1398.25 2031.42 L1417.56 2031.42 L1417.56 2031.42 L1436.86 2031.42 L1436.86 2013.72 L1456.29 2013.72 L1456.29 1995.90 L1475.60 1995.90 L1475.60 1986.99 L1494.90 1986.99 L1494.90 1978.08 L1514.33 1978.08 L1514.33 1973.63 L1533.63 1973.63 L1533.63 1969.05 L1552.94 1969.05 L1552.94 1951.10 L1572.37 1951.10 L1572.37 1924.00 L1591.67 1924.00 L1591.67 1919.42 L1610.98 1919.42 L1610.98 1901.35 L1630.28 1901.35 L1630.28 1892.20 L1649.71 1892.20 L1649.71 1887.62 L1669.02 1887.62 L1669.02 1883.04 L1688.32 1883.04 L1688.32 1869.43 L1707.75 1869.43 L1707.75 1860.27 L1727.06 1860.27 L1727.06 1837.37 L1746.36 1837.37 L1746.36 1823.51 L1765.79 1823.51 L1765.79 1809.78 L1785.09 1809.78 L1785.09 1791.34 L1804.40 1791.34 L1804.40 1782.06 L1823.83 1782.06 L1823.83 1777.48 L1843.13 1777.48 L1843.13 1772.77 L1862.44 1772.77 L1862.44 1749.63 L1881.74 1749.63 L1881.74 1740.47 L1901.17 1740.47 L1901.17 1740.47 L1920.48 1740.47 L1920.48 1735.77 L1939.78 1735.77 L1939.78 1721.91 L1959.21 1721.91 L1959.21 1707.93 L1978.52 1707.93 L1978.52 1703.22 L1997.82 1703.22 L1997.82 1698.65 L2017.25 1698.65 L2017.25 1689.24 L2036.55 1689.24 L2036.55 1679.96 L2055.86 1679.96 L2055.86 1670.68 L2075.29 1670.68 L2075.29 1670.68 L2094.59 1670.68 L2094.59 1661.27 L2113.90 1661.27 L2113.90 1651.99 L2133.20 1651.99 L2133.20 1651.99 L2152.63 1651.99 L2152.63 1647.29 L2171.94 1647.29 L2171.94 1642.59 L2191.24 1642.59 L2191.24 1637.88 L2210.67 1637.88 L2210.67 1623.90 L2229.97 1623.90 L2229.97 1619.20 L2249.28 1619.20 L2249.28 1605.09 L2268.71 1605.09 L2268.71 1600.39 L2288.01 1600.39 L2288.01 1600.39 L2307.32 1600.39 L2307.32 1595.81 L2326.75 1595.81 L2326.75 1595.81 L2346.05 1595.81 L2346.05 1591.10 L2365.36 1591.10 L2365.36 1586.40 L2384.79 1586.40 L2384.79 1586.40 L2404.09 1586.40 L2404.09 1586.40 L2462.13 1586.40 L2462.13 1581.70 L2481.43 1581.70 L2481.43 1577.00 L2500.74 1577.00 L2500.74 1572.29 L2520.17 1572.29 L2520.17 1567.59 L2539.47 1567.59 L2539.47 1567.59 L2558.78 1567.59 L2558.78 1567.59 L2578.21 1567.59 L2578.21 1562.89 L2597.51 1562.89 L2597.51 1562.89 L2616.82 1562.89 L2616.82 1562.89 L2636.25 1562.89 L2636.25 1558.18 L2655.55 1558.18 L2655.55 1553.48 L2674.86 1553.48 L2674.86 1553.48 L2713.59 1553.48 L2713.59 1553.48 L2732.89 1553.48 L2732.89 1544.08 L2752.20 1544.08 L2752.20 1525.14 L2790.93 1525.14 L2790.93 1525.14 L2810.24 1525.14 L2810.24 1525.14 L2848.97 1525.14 L2848.97 1520.44 L2868.28 1520.44 L2868.28 1520.44 L2887.71 1520.44 L2887.71 1515.74 L2926.32 1515.74 L2926.32 1506.33 L2945.62 1506.33 L2945.62 1506.33 L2965.05 1506.33 L2965.05 1506.33 L2984.36 1506.33 L2984.36 1496.80 L3003.66 1496.80 L3003.66 1492.10 L3023.09 1492.10 L3023.09 1492.10 L3042.39 1492.10 L3042.39 1487.40 L3061.70 1487.40 L3061.70 1487.40 L3081.13 1487.40 L3081.13 1487.40 L3100.43 1487.40 L3100.43 1487.40 L3119.74 1487.40 L3119.74 1482.70 L3158.47 1482.70 L3158.47 1482.70 L3177.78 1482.70 L3177.78 1477.87 L3197.08 1477.87 L3197.08 1477.87 L3216.51 1477.87 L3216.51 1477.87 L3235.82 1477.87 L3235.82 1477.87 L3274.55 1477.87 L3274.55 1477.87 L3293.85 1477.87 L3293.85 1477.87 L3332.59 1477.87 L3332.59 1477.87 L3371.20 1477.87 L3371.20 1477.87 L3390.63 1477.87 L3390.63 1477.87 L3409.93 1477.87 L3409.93 1477.87 L3429.24 1477.87 L3429.24 1468.46 L3448.54 1468.46 L3448.54 1468.46 L3467.97 1468.46 L3467.97 1468.46 L3487.28 1468.46 L3487.28 1468.46 L3545.31 1468.46 L3545.31 1463.64 L3564.62 1463.64 L3564.62 1454.23 L3584.05 1454.23 L3584.05 1454.23 L3622.66 1454.23 L3622.66 1449.41 L3642.09 1449.41 L3642.09 1449.41 L3719.43 1449.41 L3719.43 1449.41 L3719.43 1180.98 L3719.43 1180.98 L3642.09 1180.98 L3642.09 1180.98 L3622.66 1180.98 L3622.66 1186.43 L3584.05 1186.43 L3584.05 1186.43 L3564.62 1186.43 L3564.62 1197.44 L3545.31 1197.44 L3545.31 1202.89 L3487.28 1202.89 L3487.28 1202.89 L3467.97 1202.89 L3467.97 1202.89 L3448.54 1202.89 L3448.54 1202.89 L3429.24 1202.89 L3429.24 1213.90 L3409.93 1213.90 L3409.93 1213.90 L3390.63 1213.90 L3390.63 1213.90 L3371.20 1213.90 L3371.20 1213.90 L3332.59 1213.90 L3332.59 1213.90 L3293.85 1213.90 L3293.85 1213.90 L3274.55 1213.90 L3274.55 1213.90 L3235.82 1213.90 L3235.82 1213.90 L3216.51 1213.90 L3216.51 1213.90 L3197.08 1213.90 L3197.08 1213.90 L3177.78 1213.90 L3177.78 1219.35 L3158.47 1219.35 L3158.47 1219.35 L3119.74 1219.35 L3119.74 1224.92 L3100.43 1224.92 L3100.43 1224.92 L3081.13 1224.92 L3081.13 1224.92 L3061.70 1224.92 L3061.70 1224.92 L3042.39 1224.92 L3042.39 1230.36 L3023.09 1230.36 L3023.09 1230.36 L3003.66 1230.36 L3003.66 1235.81 L2984.36 1235.81 L2984.36 1246.82 L2965.05 1246.82 L2965.05 1246.82 L2945.62 1246.82 L2945.62 1246.82 L2926.32 1246.82 L2926.32 1257.83 L2887.71 1257.83 L2887.71 1263.28 L2868.28 1263.28 L2868.28 1263.28 L2848.97 1263.28 L2848.97 1268.72 L2810.24 1268.72 L2810.24 1268.72 L2790.93 1268.72 L2790.93 1268.72 L2752.20 1268.72 L2752.20 1290.75 L2732.89 1290.75 L2732.89 1301.77 L2713.59 1301.77 L2713.59 1301.77 L2674.86 1301.77 L2674.86 1301.77 L2655.55 1301.77 L2655.55 1307.21 L2636.25 1307.21 L2636.25 1312.78 L2616.82 1312.78 L2616.82 1312.78 L2597.51 1312.78 L2597.51 1312.78 L2578.21 1312.78 L2578.21 1318.23 L2558.78 1318.23 L2558.78 1318.23 L2539.47 1318.23 L2539.47 1318.23 L2520.17 1318.23 L2520.17 1323.67 L2500.74 1323.67 L2500.74 1329.24 L2481.43 1329.24 L2481.43 1334.69 L2462.13 1334.69 L2462.13 1340.25 L2404.09 1340.25 L2404.09 1340.25 L2384.79 1340.25 L2384.79 1340.25 L2365.36 1340.25 L2365.36 1345.70 L2346.05 1345.70 L2346.05 1351.27 L2326.75 1351.27 L2326.75 1351.27 L2307.32 1351.27 L2307.32 1356.71 L2288.01 1356.71 L2288.01 1356.71 L2268.71 1356.71 L2268.71 1362.28 L2249.28 1362.28 L2249.28 1378.74 L2229.97 1378.74 L2229.97 1384.19 L2210.67 1384.19 L2210.67 1400.77 L2191.24 1400.77 L2191.24 1406.34 L2171.94 1406.34 L2171.94 1411.78 L2152.63 1411.78 L2152.63 1417.35 L2133.20 1417.35 L2133.20 1417.35 L2113.90 1417.35 L2113.90 1428.37 L2094.59 1428.37 L2094.59 1439.38 L2075.29 1439.38 L2075.29 1439.38 L2055.86 1439.38 L2055.86 1450.40 L2036.55 1450.40 L2036.55 1461.53 L2017.25 1461.53 L2017.25 1472.55 L1997.82 1472.55 L1997.82 1478.12 L1978.52 1478.12 L1978.52 1483.56 L1959.21 1483.56 L1959.21 1500.14 L1939.78 1500.14 L1939.78 1516.85 L1920.48 1516.85 L1920.48 1522.42 L1901.17 1522.42 L1901.17 1522.42 L1881.74 1522.42 L1881.74 1533.43 L1862.44 1533.43 L1862.44 1561.28 L1843.13 1561.28 L1843.13 1566.72 L1823.83 1566.72 L1823.83 1572.29 L1804.40 1572.29 L1804.40 1583.43 L1785.09 1583.43 L1785.09 1605.71 L1765.79 1605.71 L1765.79 1622.41 L1746.36 1622.41 L1746.36 1639.24 L1727.06 1639.24 L1727.06 1667.21 L1707.75 1667.21 L1707.75 1678.35 L1688.32 1678.35 L1688.32 1695.18 L1669.02 1695.18 L1669.02 1700.87 L1649.71 1700.87 L1649.71 1706.44 L1630.28 1706.44 L1630.28 1717.70 L1610.98 1717.70 L1610.98 1740.23 L1591.67 1740.23 L1591.67 1745.80 L1572.37 1745.80 L1572.37 1779.70 L1552.94 1779.70 L1552.94 1802.48 L1533.63 1802.48 L1533.63 1808.04 L1514.33 1808.04 L1514.33 1813.74 L1494.90 1813.74 L1494.90 1825.12 L1475.60 1825.12 L1475.60 1836.51 L1456.29 1836.51 L1456.29 1859.40 L1436.86 1859.40 L1436.86 1882.30 L1417.56 1882.30 L1417.56 1882.30 L1398.25 1882.30 L1398.25 1899.50 L1378.82 1899.50 L1378.82 1928.46 L1359.52 1928.46 L1359.52 1934.27 L1340.21 1934.27 L1340.21 1951.60 L1320.91 1951.60 L1320.91 1969.17 L1301.48 1969.17 L1301.48 1992.68 L1282.17 1992.68 L1282.17 2016.32 L1262.87 2016.32 L1262.87 2040.08 L1243.44 2040.08 L1243.44 2040.08 L1224.13 2040.08 L1224.13 2064.21 L1204.83 2064.21 L1204.83 2064.21 L1185.40 2064.21 L1185.40 2082.53 L1166.10 2082.53 L1166.10 2107.16 L1146.79 2107.16 L1146.79 2138.71 L1127.36 2138.71 L1127.36 2158.14 L1108.06 2158.14 L1108.06 2171.39 L1088.75 2171.39 L1088.75 2178.19 L1069.45 2178.19 L1069.45 2191.80 L1050.02 2191.80 L1050.02 2205.29 L1011.41 2205.29 L1011.41 2209.87 L991.98 2209.87 L991.98 2209.87 L972.67 2209.87 L972.67 2209.87 L953.37 2209.87 L953.37 2209.87 L933.94 2209.87 L933.94 2209.87 L914.64 2209.87 L914.64 2245.14 Z" stroke-linejoin="round"/>
	</defs>
	<defs>
		<clipPath id="clipPath_PBwpCxTo">
			<use xlink:href="#path_OSOsacSC"/>
		</clipPath>
	</defs>
	<use xlink:href="#path_OSOsacSC" style="stroke:none;fill:#EEE1E2"/>
	<use xlink:href="#path_OSOsacSC" style="fill:none;stroke:#EEE1E2;stroke-width:17.28" clip-path="url(#clipPath_PBwpCxTo)"/>
	<path d=" M914.64 2245.27 L933.94 2245.27 L933.94 2245.27 L953.25 2245.27 L953.25 2245.27 L972.55 2245.27 L972.55 2245.27 L991.98 2245.27 L991.98 2245.27 L1011.28 2245.27 L1011.28 2243.41 L1050.02 2243.41 L1050.02 2238.34 L1069.32 2238.34 L1069.32 2232.27 L1088.63 2232.27 L1088.63 2229.05 L1108.06 2229.05 L1108.06 2222.25 L1127.36 2222.25 L1127.36 2211.36 L1146.67 2211.36 L1146.67 2192.30 L1166.10 2192.30 L1166.10 2176.46 L1185.40 2176.46 L1185.40 2164.33 L1204.71 2164.33 L1204.71 2164.33 L1224.01 2164.33 L1224.01 2147.87 L1243.44 2147.87 L1243.44 2147.87 L1262.74 2147.87 L1262.74 2131.04 L1282.05 2131.04 L1282.05 2114.09 L1301.48 2114.09 L1301.48 2097.01 L1320.78 2097.01 L1320.78 2084.02 L1340.09 2084.02 L1340.09 2071.02 L1359.52 2071.02 L1359.52 2066.69 L1378.82 2066.69 L1378.82 2044.79 L1398.13 2044.79 L1398.13 2031.54 L1417.56 2031.54 L1417.56 2031.54 L1436.86 2031.54 L1436.86 2013.85 L1456.17 2013.85 L1456.17 1996.03 L1475.47 1996.03 L1475.47 1987.12 L1494.90 1987.12 L1494.90 1978.08 L1514.20 1978.08 L1514.20 1973.63 L1533.51 1973.63 L1533.51 1969.17 L1552.94 1969.17 L1552.94 1951.23 L1572.24 1951.23 L1572.24 1924.00 L1591.55 1924.00 L1591.55 1919.55 L1610.98 1919.55 L1610.98 1901.35 L1630.28 1901.35 L1630.28 1892.32 L1649.59 1892.32 L1649.59 1887.74 L1669.02 1887.74 L1669.02 1883.16 L1688.32 1883.16 L1688.32 1869.43 L1707.63 1869.43 L1707.63 1860.27 L1727.06 1860.27 L1727.06 1837.37 L1746.36 1837.37 L1746.36 1823.64 L1765.66 1823.64 L1765.66 1809.78 L1784.97 1809.78 L1784.97 1791.34 L1804.40 1791.34 L1804.40 1782.18 L1823.70 1782.18 L1823.70 1777.48 L1843.01 1777.48 L1843.01 1772.90 L1862.44 1772.90 L1862.44 1749.76 L1881.74 1749.76 L1881.74 1740.47 L1901.05 1740.47 L1901.05 1740.47 L1920.48 1740.47 L1920.48 1735.90 L1939.78 1735.90 L1939.78 1721.91 L1959.09 1721.91 L1959.09 1707.93 L1978.52 1707.93 L1978.52 1703.35 L1997.82 1703.35 L1997.82 1698.65 L2017.13 1698.65 L2017.13 1689.36 L2036.43 1689.36 L2036.43 1680.08 L2055.86 1680.08 L2055.86 1670.68 L2075.16 1670.68 L2075.16 1670.68 L2094.47 1670.68 L2094.47 1661.40 L2113.90 1661.40 L2113.90 1651.99 L2133.20 1651.99 L2133.20 1651.99 L2152.51 1651.99 L2152.51 1647.29 L2171.94 1647.29 L2171.94 1642.71 L2191.24 1642.71 L2191.24 1638.01 L2210.55 1638.01 L2210.55 1623.90 L2229.97 1623.90 L2229.97 1619.32 L2249.28 1619.32 L2249.28 1605.21 L2268.59 1605.21 L2268.59 1600.51 L2287.89 1600.51 L2287.89 1600.51 L2307.32 1600.51 L2307.32 1595.81 L2326.62 1595.81 L2326.62 1595.81 L2345.93 1595.81 L2345.93 1591.10 L2365.36 1591.10 L2365.36 1586.40 L2384.66 1586.40 L2384.66 1586.40 L2403.97 1586.40 L2403.97 1586.40 L2462.01 1586.40 L2462.01 1581.70 L2481.43 1581.70 L2481.43 1577.00 L2500.74 1577.00 L2500.74 1572.29 L2520.05 1572.29 L2520.05 1567.59 L2539.35 1567.59 L2539.35 1567.59 L2558.78 1567.59 L2558.78 1567.59 L2578.08 1567.59 L2578.08 1562.89 L2597.39 1562.89 L2597.39 1562.89 L2616.82 1562.89 L2616.82 1562.89 L2636.12 1562.89 L2636.12 1558.18 L2655.43 1558.18 L2655.43 1553.48 L2674.86 1553.48 L2674.86 1553.48 L2713.47 1553.48 L2713.47 1553.48 L2732.89 1553.48 L2732.89 1544.08 L2752.20 1544.08 L2752.20 1525.27 L2790.81 1525.27 L2790.81 1525.27 L2810.24 1525.27 L2810.24 1525.27 L2848.85 1525.27 L2848.85 1520.56 L2868.28 1520.56 L2868.28 1520.56 L2887.58 1520.56 L2887.58 1515.74 L2926.32 1515.74 L2926.32 1506.33 L2945.62 1506.33 L2945.62 1506.33 L2964.93 1506.33 L2964.93 1506.33 L2984.36 1506.33 L2984.36 1496.93 L3003.66 1496.93 L3003.66 1492.10 L3022.97 1492.10 L3022.97 1492.10 L3042.39 1492.10 L3042.39 1487.40 L3061.70 1487.40 L3061.70 1487.40 L3081.00 1487.40 L3081.00 1487.40 L3100.31 1487.40 L3100.31 1487.40 L3119.74 1487.40 L3119.74 1482.70 L3158.35 1482.70 L3158.35 1482.70 L3177.78 1482.70 L3177.78 1477.99 L3197.08 1477.99 L3197.08 1477.99 L3216.39 1477.99 L3216.39 1477.99 L3235.82 1477.99 L3235.82 1477.99 L3274.43 1477.99 L3274.43 1477.99 L3293.85 1477.99 L3293.85 1477.99 L3332.46 1477.99 L3332.46 1477.99 L3371.20 1477.99 L3371.20 1477.99 L3390.50 1477.99 L3390.50 1477.99 L3409.81 1477.99 L3409.81 1477.99 L3429.24 1477.99 L3429.24 1468.46 L3448.54 1468.46 L3448.54 1468.46 L3467.85 1468.46 L3467.85 1468.46 L3487.28 1468.46 L3487.28 1468.46 L3545.31 1468.46 L3545.31 1463.76 L3564.62 1463.76 L3564.62 1454.23 L3583.92 1454.23 L3583.92 1454.23 L3622.66 1454.23 L3622.66 1449.53 L3641.96 1449.53 L3641.96 1449.53 L3719.31 1449.53 L3719.31 1449.53" stroke-linejoin="round" style="fill:none;stroke:#C89A9D;stroke-width:8.64"/>
	<path d=" M914.64 2210.00 L933.94 2210.00 L933.94 2210.00 L953.25 2210.00 L953.25 2210.00 L972.55 2210.00 L972.55 2210.00 L991.98 2210.00 L991.98 2210.00 L1011.28 2210.00 L1011.28 2205.42 L1050.02 2205.42 L1050.02 2191.93 L1069.32 2191.93 L1069.32 2178.19 L1088.63 2178.19 L1088.63 2171.51 L1108.06 2171.51 L1108.06 2158.14 L1127.36 2158.14 L1127.36 2138.71 L1146.67 2138.71 L1146.67 2107.16 L1166.10 2107.16 L1166.10 2082.53 L1185.40 2082.53 L1185.40 2064.21 L1204.71 2064.21 L1204.71 2064.21 L1224.01 2064.21 L1224.01 2040.21 L1243.44 2040.21 L1243.44 2040.21 L1262.74 2040.21 L1262.74 2016.32 L1282.05 2016.32 L1282.05 1992.68 L1301.48 1992.68 L1301.48 1969.17 L1320.78 1969.17 L1320.78 1951.72 L1340.09 1951.72 L1340.09 1934.27 L1359.52 1934.27 L1359.52 1928.46 L1378.82 1928.46 L1378.82 1899.62 L1398.13 1899.62 L1398.13 1882.42 L1417.56 1882.42 L1417.56 1882.42 L1436.86 1882.42 L1436.86 1859.40 L1456.17 1859.40 L1456.17 1836.63 L1475.47 1836.63 L1475.47 1825.25 L1494.90 1825.25 L1494.90 1813.86 L1514.20 1813.86 L1514.20 1808.17 L1533.51 1808.17 L1533.51 1802.48 L1552.94 1802.48 L1552.94 1779.83 L1572.24 1779.83 L1572.24 1745.92 L1591.55 1745.92 L1591.55 1740.23 L1610.98 1740.23 L1610.98 1717.70 L1630.28 1717.70 L1630.28 1706.57 L1649.59 1706.57 L1649.59 1700.87 L1669.02 1700.87 L1669.02 1695.30 L1688.32 1695.30 L1688.32 1678.47 L1707.63 1678.47 L1707.63 1667.21 L1727.06 1667.21 L1727.06 1639.24 L1746.36 1639.24 L1746.36 1622.54 L1765.66 1622.54 L1765.66 1605.83 L1784.97 1605.83 L1784.97 1583.55 L1804.40 1583.55 L1804.40 1572.42 L1823.70 1572.42 L1823.70 1566.85 L1843.01 1566.85 L1843.01 1561.28 L1862.44 1561.28 L1862.44 1533.56 L1881.74 1533.56 L1881.74 1522.42 L1901.05 1522.42 L1901.05 1522.42 L1920.48 1522.42 L1920.48 1516.85 L1939.78 1516.85 L1939.78 1500.27 L1959.09 1500.27 L1959.09 1483.69 L1978.52 1483.69 L1978.52 1478.12 L1997.82 1478.12 L1997.82 1472.55 L2017.13 1472.55 L2017.13 1461.53 L2036.43 1461.53 L2036.43 1450.52 L2055.86 1450.52 L2055.86 1439.50 L2075.16 1439.50 L2075.16 1439.50 L2094.47 1439.50 L2094.47 1428.37 L2113.90 1428.37 L2113.90 1417.35 L2133.20 1417.35 L2133.20 1417.35 L2152.51 1417.35 L2152.51 1411.91 L2171.94 1411.91 L2171.94 1406.34 L2191.24 1406.34 L2191.24 1400.89 L2210.55 1400.89 L2210.55 1384.31 L2229.97 1384.31 L2229.97 1378.74 L2249.28 1378.74 L2249.28 1362.28 L2268.59 1362.28 L2268.59 1356.84 L2287.89 1356.84 L2287.89 1356.84 L2307.32 1356.84 L2307.32 1351.27 L2326.62 1351.27 L2326.62 1351.27 L2345.93 1351.27 L2345.93 1345.82 L2365.36 1345.82 L2365.36 1340.25 L2384.66 1340.25 L2384.66 1340.25 L2403.97 1340.25 L2403.97 1340.25 L2462.01 1340.25 L2462.01 1334.81 L2481.43 1334.81 L2481.43 1329.24 L2500.74 1329.24 L2500.74 1323.80 L2520.05 1323.80 L2520.05 1318.23 L2539.35 1318.23 L2539.35 1318.23 L2558.78 1318.23 L2558.78 1318.23 L2578.08 1318.23 L2578.08 1312.78 L2597.39 1312.78 L2597.39 1312.78 L2616.82 1312.78 L2616.82 1312.78 L2636.12 1312.78 L2636.12 1307.34 L2655.43 1307.34 L2655.43 1301.77 L2674.86 1301.77 L2674.86 1301.77 L2713.47 1301.77 L2713.47 1301.77 L2732.89 1301.77 L2732.89 1290.75 L2752.20 1290.75 L2752.20 1268.85 L2790.81 1268.85 L2790.81 1268.85 L2810.24 1268.85 L2810.24 1268.85 L2848.85 1268.85 L2848.85 1263.40 L2868.28 1263.40 L2868.28 1263.40 L2887.58 1263.40 L2887.58 1257.83 L2926.32 1257.83 L2926.32 1246.94 L2945.62 1246.94 L2945.62 1246.94 L2964.93 1246.94 L2964.93 1246.94 L2984.36 1246.94 L2984.36 1235.93 L3003.66 1235.93 L3003.66 1230.36 L3022.97 1230.36 L3022.97 1230.36 L3042.39 1230.36 L3042.39 1224.92 L3061.70 1224.92 L3061.70 1224.92 L3081.00 1224.92 L3081.00 1224.92 L3100.31 1224.92 L3100.31 1224.92 L3119.74 1224.92 L3119.74 1219.47 L3158.35 1219.47 L3158.35 1219.47 L3177.78 1219.47 L3177.78 1214.03 L3197.08 1214.03 L3197.08 1214.03 L3216.39 1214.03 L3216.39 1214.03 L3235.82 1214.03 L3235.82 1214.03 L3274.43 1214.03 L3274.43 1214.03 L3293.85 1214.03 L3293.85 1214.03 L3332.46 1214.03 L3332.46 1214.03 L3371.20 1214.03 L3371.20 1214.03 L3390.50 1214.03 L3390.50 1214.03 L3409.81 1214.03 L3409.81 1214.03 L3429.24 1214.03 L3429.24 1203.01 L3448.54 1203.01 L3448.54 1203.01 L3467.85 1203.01 L3467.85 1203.01 L3487.28 1203.01 L3487.28 1203.01 L3545.31 1203.01 L3545.31 1197.44 L3564.62 1197.44 L3564.62 1186.55 L3583.92 1186.55 L3583.92 1186.55 L3622.66 1186.55 L3622.66 1181.11 L3641.96 1181.11 L3641.96 1181.11 L3719.31 1181.11 L3719.31 1181.11" stroke-linejoin="round" style="fill:none;stroke:#C89A9D;stroke-width:8.64"/>
	<path d=" M682.48 2246.01 L682.48 2246.01 L682.48 2246.01 L692.13 2246.01 L692.13 2246.01 L701.79 2246.01 L701.79 2245.02 L721.09 2245.02 L721.09 2244.03 L740.52 2244.03 L740.52 2244.03 L759.83 2244.03 L759.83 2244.03 L779.13 2244.03 L779.13 2243.16 L798.56 2243.16 L798.56 2243.16 L817.86 2243.16 L817.86 2243.16 L837.17 2243.16 L837.17 2243.16 L856.60 2243.16 L856.60 2243.16 L875.90 2243.16 L875.90 2242.17 L895.21 2242.17 L895.21 2240.32 L914.64 2240.32 L914.64 2237.47 L933.94 2237.47 L933.94 2235.49 L953.25 2235.49 L953.25 2233.63 L972.55 2233.63 L972.55 2228.93 L991.98 2228.93 L991.98 2227.94 L1011.28 2227.94 L1011.28 2223.24 L1030.59 2223.24 L1030.59 2215.57 L1050.02 2215.57 L1050.02 2210.86 L1069.32 2210.86 L1069.32 2204.18 L1088.63 2204.18 L1088.63 2197.50 L1108.06 2197.50 L1108.06 2183.27 L1127.36 2183.27 L1127.36 2170.89 L1146.67 2170.89 L1146.67 2159.50 L1166.10 2159.50 L1166.10 2137.60 L1185.40 2137.60 L1185.40 2123.25 L1204.71 2123.25 L1204.71 2104.19 L1224.01 2104.19 L1224.01 2085.13 L1243.44 2085.13 L1243.44 2060.38 L1262.74 2060.38 L1262.74 2036.49 L1282.05 2036.49 L1282.05 2005.06 L1301.48 2005.06 L1301.48 1983.03 L1320.78 1983.03 L1320.78 1957.29 L1340.09 1957.29 L1340.09 1940.09 L1359.52 1940.09 L1359.52 1924.74 L1378.82 1924.74 L1378.82 1893.19 L1398.13 1893.19 L1398.13 1878.95 L1417.56 1878.95 L1417.56 1855.94 L1436.86 1855.94 L1436.86 1833.04 L1456.17 1833.04 L1456.17 1811.01 L1475.47 1811.01 L1475.47 1800.50 L1494.90 1800.50 L1494.90 1789.98 L1514.20 1789.98 L1514.20 1775.62 L1533.51 1775.62 L1533.51 1755.45 L1552.94 1755.45 L1552.94 1735.40 L1572.24 1735.40 L1572.24 1717.08 L1591.55 1717.08 L1591.55 1698.03 L1610.98 1698.03 L1610.98 1674.02 L1630.28 1674.02 L1630.28 1660.53 L1649.59 1660.53 L1649.59 1645.18 L1669.02 1645.18 L1669.02 1623.16 L1688.32 1623.16 L1688.32 1605.95 L1707.63 1605.95 L1707.63 1584.79 L1727.06 1584.79 L1727.06 1566.60 L1746.36 1566.60 L1746.36 1555.96 L1765.66 1555.96 L1765.66 1545.44 L1784.97 1545.44 L1784.97 1533.93 L1804.40 1533.93 L1804.40 1516.60 L1823.70 1516.60 L1823.70 1500.27 L1843.01 1500.27 L1843.01 1487.77 L1862.44 1487.77 L1862.44 1466.61 L1881.74 1466.61 L1881.74 1455.10 L1901.05 1455.10 L1901.05 1445.45 L1920.48 1445.45 L1920.48 1434.80 L1939.78 1434.80 L1939.78 1422.30 L1959.09 1422.30 L1959.09 1412.77 L1978.52 1412.77 L1978.52 1400.15 L1997.82 1400.15 L1997.82 1392.48 L2017.13 1392.48 L2017.13 1383.82 L2036.43 1383.82 L2036.43 1380.97 L2055.86 1380.97 L2055.86 1369.34 L2075.16 1369.34 L2075.16 1361.66 L2094.47 1361.66 L2094.47 1350.15 L2113.90 1350.15 L2113.90 1340.50 L2133.20 1340.50 L2133.20 1329.86 L2152.51 1329.86 L2152.51 1327.01 L2171.94 1327.01 L2171.94 1322.19 L2191.24 1322.19 L2191.24 1311.54 L2210.55 1311.54 L2210.55 1297.06 L2229.97 1297.06 L2229.97 1288.40 L2249.28 1288.40 L2249.28 1281.60 L2268.59 1281.60 L2268.59 1274.91 L2287.89 1274.91 L2287.89 1271.94 L2307.32 1271.94 L2307.32 1271.08 L2326.62 1271.08 L2326.62 1268.11 L2345.93 1268.11 L2345.93 1260.43 L2365.36 1260.43 L2365.36 1256.60 L2384.66 1256.60 L2384.66 1250.78 L2403.97 1250.78 L2403.97 1246.82 L2423.40 1246.82 L2423.40 1241.99 L2442.70 1241.99 L2442.70 1234.32 L2462.01 1234.32 L2462.01 1229.49 L2481.43 1229.49 L2481.43 1225.66 L2500.74 1225.66 L2500.74 1217.86 L2520.05 1217.86 L2520.05 1213.04 L2539.35 1213.04 L2539.35 1210.19 L2558.78 1210.19 L2558.78 1206.23 L2578.08 1206.23 L2578.08 1203.38 L2597.39 1203.38 L2597.39 1198.56 L2616.82 1198.56 L2616.82 1198.56 L2636.12 1198.56 L2636.12 1194.72 L2655.43 1194.72 L2655.43 1189.77 L2674.86 1189.77 L2674.86 1183.95 L2694.16 1183.95 L2694.16 1178.26 L2713.47 1178.26 L2713.47 1175.29 L2732.89 1175.29 L2732.89 1174.30 L2752.20 1174.30 L2752.20 1167.49 L2771.51 1167.49 L2771.51 1164.65 L2790.81 1164.65 L2790.81 1163.66 L2810.24 1163.66 L2810.24 1156.85 L2829.54 1156.85 L2829.54 1153.01 L2848.85 1153.01 L2848.85 1152.02 L2868.28 1152.02 L2868.28 1149.18 L2887.58 1149.18 L2887.58 1144.23 L2906.89 1144.23 L2906.89 1142.37 L2926.32 1142.37 L2926.32 1142.37 L2945.62 1142.37 L2945.62 1140.39 L2964.93 1140.39 L2964.93 1139.40 L2984.36 1139.40 L2984.36 1137.55 L3003.66 1137.55 L3003.66 1136.56 L3022.97 1136.56 L3022.97 1135.57 L3042.39 1135.57 L3042.39 1134.58 L3061.70 1134.58 L3061.70 1132.60 L3081.00 1132.60 L3081.00 1131.73 L3100.31 1131.73 L3100.31 1129.75 L3119.74 1129.75 L3119.74 1129.75 L3139.04 1129.75 L3139.04 1129.75 L3158.35 1129.75 L3158.35 1129.75 L3177.78 1129.75 L3177.78 1127.77 L3197.08 1127.77 L3197.08 1126.78 L3216.39 1126.78 L3216.39 1123.93 L3235.82 1123.93 L3235.82 1122.94 L3255.12 1122.94 L3255.12 1121.95 L3274.43 1121.95 L3274.43 1121.95 L3293.85 1121.95 L3293.85 1119.97 L3313.16 1119.97 L3313.16 1118.98 L3332.46 1118.98 L3332.46 1117.13 L3351.77 1117.13 L3351.77 1115.15 L3371.20 1115.15 L3371.20 1114.16 L3390.50 1114.16 L3390.50 1112.18 L3409.81 1112.18 L3409.81 1112.18 L3429.24 1112.18 L3429.24 1112.18 L3448.54 1112.18 L3448.54 1112.18 L3467.85 1112.18 L3467.85 1110.32 L3487.28 1110.32 L3487.28 1109.33 L3506.58 1109.33 L3506.58 1108.34 L3525.89 1108.34 L3525.89 1107.35 L3545.31 1107.35 L3545.31 1107.35 L3564.62 1107.35 L3564.62 1107.35 L3583.92 1107.35 L3583.92 1100.54 L3603.23 1100.54 L3603.23 1100.54 L3622.66 1100.54 L3622.66 1100.54 L3641.96 1100.54 L3641.96 1099.55 L3661.27 1099.55 L3661.27 1098.56 L3680.70 1098.56 L3680.70 1095.72 L3700.00 1095.72 L3700.00 1092.75 L3719.31 1092.75 L3719.31 1090.77" stroke-linejoin="round" style="fill:none;stroke:#1A476F;stroke-width:8.64"/>
	<path d=" M682.48 2246.01 L682.48 2246.01 L682.48 2246.01 L692.13 2246.01 L692.13 2246.01 L701.79 2246.01 L701.79 2246.01 L721.09 2246.01 L721.09 2246.01 L740.52 2246.01 L740.52 2246.01 L759.83 2246.01 L759.83 2246.01 L779.13 2246.01 L779.13 2246.01 L798.56 2246.01 L798.56 2246.01 L817.86 2246.01 L817.86 2246.01 L837.17 2246.01 L837.17 2246.01 L875.90 2246.01 L875.90 2246.01 L895.21 2246.01 L895.21 2246.01 L914.64 2246.01 L914.64 2240.94 L933.94 2240.94 L933.94 2240.94 L953.25 2240.94 L953.25 2240.94 L972.55 2240.94 L972.55 2240.94 L991.98 2240.94 L991.98 2240.94 L1011.28 2240.94 L1011.28 2235.86 L1050.02 2235.86 L1050.02 2225.71 L1069.32 2225.71 L1069.32 2215.57 L1088.63 2215.57 L1088.63 2210.49 L1108.06 2210.49 L1108.06 2200.34 L1127.36 2200.34 L1127.36 2185.12 L1146.67 2185.12 L1146.67 2159.63 L1166.10 2159.63 L1166.10 2139.33 L1185.40 2139.33 L1185.40 2124.11 L1204.71 2124.11 L1204.71 2124.11 L1224.01 2124.11 L1224.01 2103.82 L1243.44 2103.82 L1243.44 2103.82 L1262.74 2103.82 L1262.74 2083.52 L1282.05 2083.52 L1282.05 2063.22 L1301.48 2063.22 L1301.48 2042.93 L1320.78 2042.93 L1320.78 2027.71 L1340.09 2027.71 L1340.09 2012.49 L1359.52 2012.49 L1359.52 2007.41 L1378.82 2007.41 L1378.82 1981.92 L1398.13 1981.92 L1398.13 1966.70 L1417.56 1966.70 L1417.56 1966.70 L1436.86 1966.70 L1436.86 1946.40 L1456.17 1946.40 L1456.17 1926.11 L1475.47 1926.11 L1475.47 1915.96 L1494.90 1915.96 L1494.90 1905.81 L1514.20 1905.81 L1514.20 1900.61 L1533.51 1900.61 L1533.51 1895.54 L1552.94 1895.54 L1552.94 1875.24 L1572.24 1875.24 L1572.24 1844.80 L1591.55 1844.80 L1591.55 1839.60 L1610.98 1839.60 L1610.98 1819.31 L1630.28 1819.31 L1630.28 1809.16 L1649.59 1809.16 L1649.59 1804.08 L1669.02 1804.08 L1669.02 1799.01 L1688.32 1799.01 L1688.32 1783.66 L1707.63 1783.66 L1707.63 1773.52 L1727.06 1773.52 L1727.06 1748.02 L1746.36 1748.02 L1746.36 1732.80 L1765.66 1732.80 L1765.66 1717.58 L1784.97 1717.58 L1784.97 1697.16 L1804.40 1697.16 L1804.40 1687.01 L1823.70 1687.01 L1823.70 1681.94 L1843.01 1681.94 L1843.01 1676.86 L1862.44 1676.86 L1862.44 1651.37 L1881.74 1651.37 L1881.74 1641.22 L1901.05 1641.22 L1901.05 1641.22 L1920.48 1641.22 L1920.48 1636.15 L1939.78 1636.15 L1939.78 1620.80 L1959.09 1620.80 L1959.09 1605.58 L1978.52 1605.58 L1978.52 1600.51 L1997.82 1600.51 L1997.82 1595.31 L2017.13 1595.31 L2017.13 1585.16 L2036.43 1585.16 L2036.43 1575.02 L2055.86 1575.02 L2055.86 1564.74 L2075.16 1564.74 L2075.16 1564.74 L2094.47 1564.74 L2094.47 1554.60 L2113.90 1554.60 L2113.90 1544.45 L2133.20 1544.45 L2133.20 1544.45 L2152.51 1544.45 L2152.51 1539.37 L2171.94 1539.37 L2171.94 1534.18 L2191.24 1534.18 L2191.24 1529.10 L2210.55 1529.10 L2210.55 1513.88 L2229.97 1513.88 L2229.97 1508.68 L2249.28 1508.68 L2249.28 1493.46 L2268.59 1493.46 L2268.59 1488.39 L2287.89 1488.39 L2287.89 1488.39 L2307.32 1488.39 L2307.32 1483.31 L2326.62 1483.31 L2326.62 1483.31 L2345.93 1483.31 L2345.93 1478.12 L2365.36 1478.12 L2365.36 1473.04 L2384.66 1473.04 L2384.66 1473.04 L2403.97 1473.04 L2403.97 1473.04 L2462.01 1473.04 L2462.01 1467.97 L2481.43 1467.97 L2481.43 1462.89 L2500.74 1462.89 L2500.74 1457.82 L2520.05 1457.82 L2520.05 1452.62 L2539.35 1452.62 L2539.35 1452.62 L2558.78 1452.62 L2558.78 1452.62 L2578.08 1452.62 L2578.08 1447.55 L2597.39 1447.55 L2597.39 1447.55 L2616.82 1447.55 L2616.82 1447.55 L2636.12 1447.55 L2636.12 1442.48 L2655.43 1442.48 L2655.43 1437.40 L2674.86 1437.40 L2674.86 1437.40 L2713.47 1437.40 L2713.47 1437.40 L2732.89 1437.40 L2732.89 1427.13 L2752.20 1427.13 L2752.20 1406.71 L2790.81 1406.71 L2790.81 1406.71 L2810.24 1406.71 L2810.24 1406.71 L2848.85 1406.71 L2848.85 1401.64 L2868.28 1401.64 L2868.28 1401.64 L2887.58 1401.64 L2887.58 1396.56 L2926.32 1396.56 L2926.32 1386.29 L2945.62 1386.29 L2945.62 1386.29 L2964.93 1386.29 L2964.93 1386.29 L2984.36 1386.29 L2984.36 1376.14 L3003.66 1376.14 L3003.66 1370.95 L3022.97 1370.95 L3022.97 1370.95 L3042.39 1370.95 L3042.39 1365.87 L3061.70 1365.87 L3061.70 1365.87 L3081.00 1365.87 L3081.00 1365.87 L3100.31 1365.87 L3100.31 1365.87 L3119.74 1365.87 L3119.74 1360.80 L3158.35 1360.80 L3158.35 1360.80 L3177.78 1360.80 L3177.78 1355.72 L3197.08 1355.72 L3197.08 1355.72 L3216.39 1355.72 L3216.39 1355.72 L3235.82 1355.72 L3235.82 1355.72 L3274.43 1355.72 L3274.43 1355.72 L3293.85 1355.72 L3293.85 1355.72 L3332.46 1355.72 L3332.46 1355.72 L3371.20 1355.72 L3371.20 1355.72 L3390.50 1355.72 L3390.50 1355.72 L3409.81 1355.72 L3409.81 1355.72 L3429.24 1355.72 L3429.24 1345.45 L3448.54 1345.45 L3448.54 1345.45 L3467.85 1345.45 L3467.85 1345.45 L3487.28 1345.45 L3487.28 1345.45 L3545.31 1345.45 L3545.31 1340.38 L3564.62 1340.38 L3564.62 1330.11 L3583.92 1330.11 L3583.92 1330.11 L3622.66 1330.11 L3622.66 1325.03 L3641.96 1325.03 L3641.96 1325.03 L3719.31 1325.03 L3719.31 1325.03" stroke-linejoin="round" style="fill:none;stroke:#90353B;stroke-width:8.64"/>
	<line x1="619.12" y1="2309.25" x2="619.12" y2="630.90" style="stroke:#000000;stroke-width:5.76"/>
	<line x1="619.12" y1="2245.89" x2="579.15" y2="2245.89" style="stroke:#000000;stroke-width:5.76"/>
	<text x="559.23" y="2273.90" style="font-family:'Helvetica';font-size:79.94px;fill:#000000" text-anchor="end">0.000</text>
	<line x1="619.12" y1="2090.70" x2="579.15" y2="2090.70" style="stroke:#000000;stroke-width:5.76"/>
	<text x="559.23" y="2118.71" style="font-family:'Helvetica';font-size:79.94px;fill:#000000" text-anchor="end">0.001</text>
	<line x1="619.12" y1="1935.51" x2="579.15" y2="1935.51" style="stroke:#000000;stroke-width:5.76"/>
	<text x="559.23" y="1963.52" style="font-family:'Helvetica';font-size:79.94px;fill:#000000" text-anchor="end">0.002</text>
	<line x1="619.12" y1="1780.45" x2="579.15" y2="1780.45" style="stroke:#000000;stroke-width:5.76"/>
	<text x="559.23" y="1808.46" style="font-family:'Helvetica';font-size:79.94px;fill:#000000" text-anchor="end">0.003</text>
	<line x1="619.12" y1="1625.26" x2="579.15" y2="1625.26" style="stroke:#000000;stroke-width:5.76"/>
	<text x="559.23" y="1653.27" style="font-family:'Helvetica';font-size:79.94px;fill:#000000" text-anchor="end">0.004</text>
	<line x1="619.12" y1="1470.07" x2="579.15" y2="1470.07" style="stroke:#000000;stroke-width:5.76"/>
	<text x="559.23" y="1498.08" style="font-family:'Helvetica';font-size:79.94px;fill:#000000" text-anchor="end">0.005</text>
	<line x1="619.12" y1="1314.88" x2="579.15" y2="1314.88" style="stroke:#000000;stroke-width:5.76"/>
	<text x="559.23" y="1342.90" style="font-family:'Helvetica';font-size:79.94px;fill:#000000" text-anchor="end">0.006</text>
	<line x1="619.12" y1="1159.70" x2="579.15" y2="1159.70" style="stroke:#000000;stroke-width:5.76"/>
	<text x="559.23" y="1187.71" style="font-family:'Helvetica';font-size:79.94px;fill:#000000" text-anchor="end">0.007</text>
	<line x1="619.12" y1="1004.51" x2="579.15" y2="1004.51" style="stroke:#000000;stroke-width:5.76"/>
	<text x="559.23" y="1032.52" style="font-family:'Helvetica';font-size:79.94px;fill:#000000" text-anchor="end">0.008</text>
	<line x1="619.12" y1="849.45" x2="579.15" y2="849.45" style="stroke:#000000;stroke-width:5.76"/>
	<text x="559.23" y="877.46" style="font-family:'Helvetica';font-size:79.94px;fill:#000000" text-anchor="end">0.009</text>
	<line x1="619.12" y1="694.26" x2="579.15" y2="694.26" style="stroke:#000000;stroke-width:5.76"/>
	<text x="559.23" y="722.27" style="font-family:'Helvetica';font-size:79.94px;fill:#000000" text-anchor="end">0.010</text>
	<line x1="619.12" y1="2309.25" x2="3840.83" y2="2309.25" style="stroke:#000000;stroke-width:5.76"/>
	<line x1="682.48" y1="2309.25" x2="682.48" y2="2349.22" style="stroke:#000000;stroke-width:5.76"/>
	<text x="682.48" y="2425.17" style="font-family:'Helvetica';font-size:79.94px;fill:#000000" text-anchor="middle">0</text>
	<line x1="1069.45" y1="2309.25" x2="1069.45" y2="2349.22" style="stroke:#000000;stroke-width:5.76"/>
	<text x="1069.45" y="2425.17" style="font-family:'Helvetica';font-size:79.94px;fill:#000000" text-anchor="middle">20</text>
	<line x1="1456.29" y1="2309.25" x2="1456.29" y2="2349.22" style="stroke:#000000;stroke-width:5.76"/>
	<text x="1456.29" y="2425.17" style="font-family:'Helvetica';font-size:79.94px;fill:#000000" text-anchor="middle">40</text>
	<line x1="1843.13" y1="2309.25" x2="1843.13" y2="2349.22" style="stroke:#000000;stroke-width:5.76"/>
	<text x="1843.13" y="2425.17" style="font-family:'Helvetica';font-size:79.94px;fill:#000000" text-anchor="middle">60</text>
	<line x1="2229.97" y1="2309.25" x2="2229.97" y2="2349.22" style="stroke:#000000;stroke-width:5.76"/>
	<text x="2229.97" y="2425.17" style="font-family:'Helvetica';font-size:79.94px;fill:#000000" text-anchor="middle">80</text>
	<line x1="2616.82" y1="2309.25" x2="2616.82" y2="2349.22" style="stroke:#000000;stroke-width:5.76"/>
	<text x="2616.82" y="2425.17" style="font-family:'Helvetica';font-size:79.94px;fill:#000000" text-anchor="middle">100</text>
	<line x1="3003.66" y1="2309.25" x2="3003.66" y2="2349.22" style="stroke:#000000;stroke-width:5.76"/>
	<text x="3003.66" y="2425.17" style="font-family:'Helvetica';font-size:79.94px;fill:#000000" text-anchor="middle">120</text>
	<line x1="3390.63" y1="2309.25" x2="3390.63" y2="2349.22" style="stroke:#000000;stroke-width:5.76"/>
	<text x="3390.63" y="2425.17" style="font-family:'Helvetica';font-size:79.94px;fill:#000000" text-anchor="middle">140</text>
	<line x1="3777.47" y1="2309.25" x2="3777.47" y2="2349.22" style="stroke:#000000;stroke-width:5.76"/>
	<text x="3777.47" y="2425.17" style="font-family:'Helvetica';font-size:79.94px;fill:#000000" text-anchor="middle">160</text>
	<text x="2229.97" y="2515.14" style="font-family:'Helvetica';font-size:79.94px;fill:#000000" text-anchor="middle">Days since 1 Mar 2020</text>
	<text x="682.48" y="2747.83" style="font-family:'Helvetica';font-size:60.02px;fill:#000000" text-anchor="middle">30609</text>
	<text x="1069.45" y="2747.83" style="font-family:'Helvetica';font-size:60.02px;fill:#000000" text-anchor="middle">30573</text>
	<text x="1456.29" y="2747.83" style="font-family:'Helvetica';font-size:60.02px;fill:#000000" text-anchor="middle">30476</text>
	<text x="1843.13" y="2747.83" style="font-family:'Helvetica';font-size:60.02px;fill:#000000" text-anchor="middle">30368</text>
	<text x="2229.97" y="2747.83" style="font-family:'Helvetica';font-size:60.02px;fill:#000000" text-anchor="middle">30303</text>
	<text x="2616.82" y="2747.83" style="font-family:'Helvetica';font-size:60.02px;fill:#000000" text-anchor="middle">30254</text>
	<text x="3003.66" y="2747.83" style="font-family:'Helvetica';font-size:60.02px;fill:#000000" text-anchor="middle">30208</text>
	<text x="3390.63" y="2747.83" style="font-family:'Helvetica';font-size:60.02px;fill:#000000" text-anchor="middle">30178</text>
	<text x="3777.47" y="2747.83" style="font-family:'Helvetica';font-size:60.02px;fill:#000000" text-anchor="middle">0</text>
	<text x="527.79" y="2747.83" style="font-family:'Helvetica';font-size:60.02px;fill:#000000" text-anchor="end">HCQ</text>
	<text x="682.48" y="2674.44" style="font-family:'Helvetica';font-size:60.02px;fill:#000000" text-anchor="middle">164411</text>
	<text x="1069.45" y="2674.44" style="font-family:'Helvetica';font-size:60.02px;fill:#000000" text-anchor="middle">163159</text>
	<text x="1456.29" y="2674.44" style="font-family:'Helvetica';font-size:60.02px;fill:#000000" text-anchor="middle">161730</text>
	<text x="1843.13" y="2674.44" style="font-family:'Helvetica';font-size:60.02px;fill:#000000" text-anchor="middle">160632</text>
	<text x="2229.97" y="2674.44" style="font-family:'Helvetica';font-size:60.02px;fill:#000000" text-anchor="middle">159834</text>
	<text x="2616.82" y="2674.44" style="font-family:'Helvetica';font-size:60.02px;fill:#000000" text-anchor="middle">159254</text>
	<text x="3003.66" y="2674.44" style="font-family:'Helvetica';font-size:60.02px;fill:#000000" text-anchor="middle">158768</text>
	<text x="3390.63" y="2674.44" style="font-family:'Helvetica';font-size:60.02px;fill:#000000" text-anchor="middle">158339</text>
	<text x="3777.47" y="2674.44" style="font-family:'Helvetica';font-size:60.02px;fill:#000000" text-anchor="middle">0</text>
	<text x="527.79" y="2674.44" style="font-family:'Helvetica';font-size:60.02px;fill:#000000" text-anchor="end">No HCQ</text>
	<text x="527.79" y="2601.18" style="font-family:'Helvetica';font-size:60.02px;fill:#000000" text-anchor="end">Number at risk</text>
	<rect x="1167.95" y="269.91" width="2124.05" height="326.46" style="fill:#FFFFFF"/>
	<rect x="1170.83" y="272.79" width="2118.29" height="320.70" style="fill:none;stroke:#EAF2F3;stroke-width:5.76"/>
	<rect x="1211.14" y="313.10" width="374.34" height="99.99" style="fill:#DDE3E9"/>
	<rect x="1215.46" y="317.42" width="365.70" height="91.35" style="fill:none;stroke:#DDE3E9;stroke-width:8.64"/>
	<rect x="2349.02" y="313.10" width="374.34" height="99.99" style="fill:#EEE1E2"/>
	<rect x="2353.34" y="317.42" width="365.70" height="91.35" style="fill:none;stroke:#EEE1E2;stroke-width:8.64"/>
	<line x1="1211.14" y1="503.06" x2="1585.48" y2="503.06" style="stroke:#1A476F;stroke-width:8.64"/>
	<line x1="2349.02" y1="503.06" x2="2723.37" y2="503.06" style="stroke:#90353B;stroke-width:8.64"/>
	<text x="1645.50" y="384.13" style="font-family:'Helvetica';font-size:60.02px;fill:#000000">No HCQ</text>
	<text x="2783.39" y="384.13" style="font-family:'Helvetica';font-size:60.02px;fill:#000000">95% CI</text>
	<text x="1645.50" y="524.10" style="font-family:'Helvetica';font-size:60.02px;fill:#000000">exposure = No HCQ</text>
	<text x="2783.39" y="524.10" style="font-family:'Helvetica';font-size:60.02px;fill:#000000">exposure = HCQ</text>
	<text x="1353.58" y="187.99" style="font-family:'Helvetica';font-size:99.99px;fill:#1E2D53">Time to SGSS positive COVID-19 test</text>
</svg>
