<?xml version="1.0" encoding="UTF-8" standalone="no"?>
<!-- This is a Stata 16.1 generated SVG file (http://www.stata.com) -->

<svg version="1.1" width="5.50in" height="4.00in" viewBox="0 0 3960 2880" xmlns="http://www.w3.org/2000/svg" xmlns:xlink="http://www.w3.org/1999/xlink">
	<desc>Stata Graph - Graph</desc>
	<rect x="0" y="0" width="3960" height="2880" style="fill:#EAF2F3;stroke:none"/>
	<rect x="0.00" y="0.00" width="3959.88" height="2880.00" style="fill:#FFFFFF"/>
	<rect x="2.88" y="2.88" width="3954.12" height="2874.24" style="fill:none;stroke:#EAF2F3;stroke-width:5.76"/>
	<rect x="619.12" y="630.90" width="3221.71" height="1678.35" style="fill:#FFFFFF"/>
	<rect x="622.00" y="633.78" width="3215.95" height="1672.59" style="fill:none;stroke:#FFFFFF;stroke-width:5.76"/>
	<line x1="619.12" y1="2245.89" x2="3840.83" y2="2245.89" style="stroke:#EAF2F3;stroke-width:8.64"/>
	<line x1="619.12" y1="2090.70" x2="3840.83" y2="2090.70" style="stroke:#EAF2F3;stroke-width:8.64"/>
	<line x1="619.12" y1="1935.51" x2="3840.83" y2="1935.51" style="stroke:#EAF2F3;stroke-width:8.64"/>
	<line x1="619.12" y1="1780.45" x2="3840.83" y2="1780.45" style="stroke:#EAF2F3;stroke-width:8.64"/>
	<line x1="619.12" y1="1625.26" x2="3840.83" y2="1625.26" style="stroke:#EAF2F3;stroke-width:8.64"/>
	<line x1="619.12" y1="1470.07" x2="3840.83" y2="1470.07" style="stroke:#EAF2F3;stroke-width:8.64"/>
	<line x1="619.12" y1="1314.88" x2="3840.83" y2="1314.88" style="stroke:#EAF2F3;stroke-width:8.64"/>
	<line x1="619.12" y1="1159.70" x2="3840.83" y2="1159.70" style="stroke:#EAF2F3;stroke-width:8.64"/>
	<line x1="619.12" y1="1004.51" x2="3840.83" y2="1004.51" style="stroke:#EAF2F3;stroke-width:8.64"/>
	<line x1="619.12" y1="849.45" x2="3840.83" y2="849.45" style="stroke:#EAF2F3;stroke-width:8.64"/>
	<line x1="619.12" y1="694.26" x2="3840.83" y2="694.26" style="stroke:#EAF2F3;stroke-width:8.64"/>
	<defs>
		<path id="path_UcbSKYjH" d="M701.91 2245.76 L701.91 2245.76 L721.22 2245.76 L721.22 2245.39 L740.52 2245.39 L740.52 2245.39 L759.95 2245.39 L759.95 2245.39 L779.25 2245.39 L779.25 2245.02 L798.56 2245.02 L798.56 2245.02 L817.86 2245.02 L817.86 2245.02 L837.29 2245.02 L837.29 2245.02 L856.60 2245.02 L856.60 2245.02 L875.90 2245.02 L875.90 2244.52 L895.33 2244.52 L895.33 2243.29 L914.64 2243.29 L914.64 2241.43 L933.94 2241.43 L933.94 2240.07 L953.37 2240.07 L953.37 2238.71 L972.67 2238.71 L972.67 2235.12 L991.98 2235.12 L991.98 2234.38 L1011.41 2234.38 L1011.41 2230.54 L1030.71 2230.54 L1030.71 2224.35 L1050.02 2224.35 L1050.02 2220.39 L1069.45 2220.39 L1069.45 2214.70 L1088.75 2214.70 L1088.75 2209.01 L1108.06 2209.01 L1108.06 2196.51 L1127.36 2196.51 L1127.36 2185.49 L1146.79 2185.49 L1146.79 2175.22 L1166.10 2175.22 L1166.10 2155.30 L1185.40 2155.30 L1185.40 2142.30 L1204.83 2142.30 L1204.83 2124.73 L1224.13 2124.73 L1224.13 2107.03 L1243.44 2107.03 L1243.44 2083.89 L1262.87 2083.89 L1262.87 2061.62 L1282.17 2061.62 L1282.17 2032.04 L1301.48 2032.04 L1301.48 2011.25 L1320.91 2011.25 L1320.91 1986.87 L1340.21 1986.87 L1340.21 1970.53 L1359.52 1970.53 L1359.52 1956.05 L1378.82 1956.05 L1378.82 1925.98 L1398.25 1925.98 L1398.25 1912.37 L1417.56 1912.37 L1417.56 1890.46 L1436.86 1890.46 L1436.86 1868.44 L1456.29 1868.44 L1456.29 1847.40 L1475.60 1847.40 L1475.60 1837.37 L1494.90 1837.37 L1494.90 1827.23 L1514.33 1827.23 L1514.33 1813.49 L1533.63 1813.49 L1533.63 1794.18 L1552.94 1794.18 L1552.94 1774.75 L1572.37 1774.75 L1572.37 1757.30 L1591.67 1757.30 L1591.67 1738.87 L1610.98 1738.87 L1610.98 1715.72 L1630.28 1715.72 L1630.28 1702.85 L1649.71 1702.85 L1649.71 1688.00 L1669.02 1688.00 L1669.02 1666.72 L1688.32 1666.72 L1688.32 1650.01 L1707.75 1650.01 L1707.75 1629.59 L1727.06 1629.59 L1727.06 1612.02 L1746.36 1612.02 L1746.36 1601.75 L1765.79 1601.75 L1765.79 1591.60 L1785.09 1591.60 L1785.09 1580.34 L1804.40 1580.34 L1804.40 1563.63 L1823.83 1563.63 L1823.83 1547.79 L1843.13 1547.79 L1843.13 1535.66 L1862.44 1535.66 L1862.44 1515.24 L1881.74 1515.24 L1881.74 1503.98 L1901.17 1503.98 L1901.17 1494.70 L1920.48 1494.70 L1920.48 1484.43 L1939.78 1484.43 L1939.78 1472.30 L1959.21 1472.30 L1959.21 1462.03 L1978.52 1462.03 L1978.52 1449.90 L1997.82 1449.90 L1997.82 1442.35 L2017.25 1442.35 L2017.25 1433.94 L2036.55 1433.94 L2036.55 1431.09 L2055.86 1431.09 L2055.86 1419.95 L2075.29 1419.95 L2075.29 1412.40 L2094.59 1412.40 L2094.59 1401.14 L2113.90 1401.14 L2113.90 1391.86 L2133.20 1391.86 L2133.20 1381.46 L2152.63 1381.46 L2152.63 1378.74 L2171.94 1378.74 L2171.94 1374.04 L2191.24 1374.04 L2191.24 1363.64 L2210.67 1363.64 L2210.67 1349.66 L2229.97 1349.66 L2229.97 1341.12 L2249.28 1341.12 L2249.28 1334.56 L2268.71 1334.56 L2268.71 1328.00 L2288.01 1328.00 L2288.01 1325.16 L2307.32 1325.16 L2307.32 1324.29 L2326.75 1324.29 L2326.75 1321.44 L2346.05 1321.44 L2346.05 1313.89 L2365.36 1313.89 L2365.36 1310.18 L2384.79 1310.18 L2384.79 1305.48 L2404.09 1305.48 L2404.09 1301.64 L2423.40 1301.64 L2423.40 1296.94 L2442.70 1296.94 L2442.70 1289.52 L2462.13 1289.52 L2462.13 1284.69 L2481.43 1284.69 L2481.43 1280.98 L2500.74 1280.98 L2500.74 1274.42 L2520.17 1274.42 L2520.17 1269.71 L2539.47 1269.71 L2539.47 1266.87 L2558.78 1266.87 L2558.78 1263.03 L2578.21 1263.03 L2578.21 1260.31 L2597.51 1260.31 L2597.51 1255.61 L2616.82 1255.61 L2616.82 1255.61 L2636.25 1255.61 L2636.25 1251.77 L2655.55 1251.77 L2655.55 1247.07 L2674.86 1247.07 L2674.86 1241.38 L2694.16 1241.38 L2694.16 1235.68 L2713.59 1235.68 L2713.59 1232.96 L2732.89 1232.96 L2732.89 1231.97 L2752.20 1231.97 L2752.20 1225.41 L2771.63 1225.41 L2771.63 1222.56 L2790.93 1222.56 L2790.93 1221.57 L2810.24 1221.57 L2810.24 1215.02 L2829.67 1215.02 L2829.67 1211.18 L2848.97 1211.18 L2848.97 1210.19 L2868.28 1210.19 L2868.28 1207.34 L2887.71 1207.34 L2887.71 1202.64 L2907.01 1202.64 L2907.01 1200.78 L2926.32 1200.78 L2926.32 1200.78 L2945.62 1200.78 L2945.62 1198.93 L2965.05 1198.93 L2965.05 1197.94 L2984.36 1197.94 L2984.36 1196.08 L3003.66 1196.08 L3003.66 1195.09 L3023.09 1195.09 L3023.09 1194.22 L3042.39 1194.22 L3042.39 1193.23 L3061.70 1193.23 L3061.70 1191.38 L3081.13 1191.38 L3081.13 1190.39 L3100.43 1190.39 L3100.43 1188.53 L3119.74 1188.53 L3119.74 1188.53 L3139.17 1188.53 L3139.17 1188.53 L3158.47 1188.53 L3158.47 1188.53 L3177.78 1188.53 L3177.78 1187.54 L3177.78 1059.21 L3177.78 1060.20 L3158.47 1060.20 L3158.47 1060.20 L3139.17 1060.20 L3139.17 1060.20 L3119.74 1060.20 L3119.74 1060.20 L3100.43 1060.20 L3100.43 1062.18 L3081.13 1062.18 L3081.13 1063.17 L3061.70 1063.17 L3061.70 1065.15 L3042.39 1065.15 L3042.39 1066.14 L3023.09 1066.14 L3023.09 1067.13 L3003.66 1067.13 L3003.66 1068.24 L2984.36 1068.24 L2984.36 1070.22 L2965.05 1070.22 L2965.05 1071.21 L2945.62 1071.21 L2945.62 1073.19 L2926.32 1073.19 L2926.32 1073.19 L2907.01 1073.19 L2907.01 1075.17 L2887.71 1075.17 L2887.71 1080.25 L2868.28 1080.25 L2868.28 1083.22 L2848.97 1083.22 L2848.97 1084.21 L2829.67 1084.21 L2829.67 1088.17 L2810.24 1088.17 L2810.24 1095.22 L2790.93 1095.22 L2790.93 1096.21 L2771.63 1096.21 L2771.63 1099.18 L2752.20 1099.18 L2752.20 1106.24 L2732.89 1106.24 L2732.89 1107.23 L2713.59 1107.23 L2713.59 1110.20 L2694.16 1110.20 L2694.16 1116.26 L2674.86 1116.26 L2674.86 1122.20 L2655.55 1122.20 L2655.55 1127.27 L2636.25 1127.27 L2636.25 1131.23 L2616.82 1131.23 L2616.82 1131.23 L2597.51 1131.23 L2597.51 1136.31 L2578.21 1136.31 L2578.21 1139.28 L2558.78 1139.28 L2558.78 1143.24 L2539.47 1143.24 L2539.47 1146.21 L2520.17 1146.21 L2520.17 1151.28 L2500.74 1151.28 L2500.74 1158.21 L2481.43 1158.21 L2481.43 1162.30 L2462.13 1162.30 L2462.13 1167.25 L2442.70 1167.25 L2442.70 1175.29 L2423.40 1175.29 L2423.40 1180.24 L2404.09 1180.24 L2404.09 1184.20 L2384.79 1184.20 L2384.79 1189.27 L2365.36 1189.27 L2365.36 1193.23 L2346.05 1193.23 L2346.05 1201.28 L2326.75 1201.28 L2326.75 1204.25 L2307.32 1204.25 L2307.32 1205.24 L2288.01 1205.24 L2288.01 1208.21 L2268.71 1208.21 L2268.71 1215.26 L2249.28 1215.26 L2249.28 1222.19 L2229.97 1222.19 L2229.97 1231.23 L2210.67 1231.23 L2210.67 1246.20 L2191.24 1246.20 L2191.24 1257.22 L2171.94 1257.22 L2171.94 1262.17 L2152.63 1262.17 L2152.63 1265.14 L2133.20 1265.14 L2133.20 1276.15 L2113.90 1276.15 L2113.90 1286.17 L2094.59 1286.17 L2094.59 1298.05 L2075.29 1298.05 L2075.29 1306.10 L2055.86 1306.10 L2055.86 1318.10 L2036.55 1318.10 L2036.55 1321.07 L2017.25 1321.07 L2017.25 1330.11 L1997.82 1330.11 L1997.82 1338.03 L1978.52 1338.03 L1978.52 1351.02 L1959.21 1351.02 L1959.21 1362.04 L1939.78 1362.04 L1939.78 1375.03 L1920.48 1375.03 L1920.48 1385.92 L1901.17 1385.92 L1901.17 1395.94 L1881.74 1395.94 L1881.74 1407.95 L1862.44 1407.95 L1862.44 1429.85 L1843.13 1429.85 L1843.13 1442.85 L1823.83 1442.85 L1823.83 1459.92 L1804.40 1459.92 L1804.40 1477.87 L1785.09 1477.87 L1785.09 1489.87 L1765.79 1489.87 L1765.79 1500.89 L1746.36 1500.89 L1746.36 1511.78 L1727.06 1511.78 L1727.06 1530.84 L1707.75 1530.84 L1707.75 1552.86 L1688.32 1552.86 L1688.32 1570.81 L1669.02 1570.81 L1669.02 1593.83 L1649.71 1593.83 L1649.71 1609.79 L1630.28 1609.79 L1630.28 1623.90 L1610.98 1623.90 L1610.98 1648.90 L1591.67 1648.90 L1591.67 1668.94 L1572.37 1668.94 L1572.37 1688.00 L1552.94 1688.00 L1552.94 1709.04 L1533.63 1709.04 L1533.63 1730.08 L1514.33 1730.08 L1514.33 1745.18 L1494.90 1745.18 L1494.90 1756.19 L1475.60 1756.19 L1475.60 1767.21 L1456.29 1767.21 L1456.29 1790.35 L1436.86 1790.35 L1436.86 1814.48 L1417.56 1814.48 L1417.56 1838.73 L1398.25 1838.73 L1398.25 1853.83 L1378.82 1853.83 L1378.82 1887.12 L1359.52 1887.12 L1359.52 1903.33 L1340.21 1903.33 L1340.21 1921.53 L1320.91 1921.53 L1320.91 1948.88 L1301.48 1948.88 L1301.48 1972.27 L1282.17 1972.27 L1282.17 2005.93 L1262.87 2005.93 L1262.87 2031.42 L1243.44 2031.42 L1243.44 2058.15 L1224.13 2058.15 L1224.13 2078.82 L1204.83 2078.82 L1204.83 2099.48 L1185.40 2099.48 L1185.40 2115.20 L1166.10 2115.20 L1166.10 2139.33 L1146.79 2139.33 L1146.79 2151.96 L1127.36 2151.96 L1127.36 2165.82 L1108.06 2165.82 L1108.06 2181.90 L1088.75 2181.90 L1088.75 2189.58 L1069.45 2189.58 L1069.45 2197.25 L1050.02 2197.25 L1050.02 2202.82 L1030.71 2202.82 L1030.71 2211.85 L1011.41 2211.85 L1011.41 2217.55 L991.98 2217.55 L991.98 2218.78 L972.67 2218.78 L972.67 2224.60 L953.37 2224.60 L953.37 2227.07 L933.94 2227.07 L933.94 2229.43 L914.64 2229.43 L914.64 2233.26 L895.33 2233.26 L895.33 2235.74 L875.90 2235.74 L875.90 2237.10 L856.60 2237.10 L856.60 2237.10 L837.29 2237.10 L837.29 2237.10 L817.86 2237.10 L817.86 2237.10 L798.56 2237.10 L798.56 2237.10 L779.25 2237.10 L779.25 2238.34 L759.95 2238.34 L759.95 2238.34 L740.52 2238.34 L740.52 2238.34 L721.22 2238.34 L721.22 2239.20 L701.91 2239.20 L701.91 2245.76 Z" stroke-linejoin="round"/>
	</defs>
	<defs>
		<clipPath id="clipPath_fQfvbEMV">
			<use xlink:href="#path_UcbSKYjH"/>
		</clipPath>
	</defs>
	<use xlink:href="#path_UcbSKYjH" style="stroke:none;fill:#DDE3E9"/>
	<use xlink:href="#path_UcbSKYjH" style="fill:none;stroke:#DDE3E9;stroke-width:17.28" clip-path="url(#clipPath_fQfvbEMV)"/>
	<path d=" M701.79 2245.76 L721.09 2245.76 L721.09 2245.51 L740.52 2245.51 L740.52 2245.51 L759.83 2245.51 L759.83 2245.51 L779.13 2245.51 L779.13 2245.02 L798.56 2245.02 L798.56 2245.02 L817.86 2245.02 L817.86 2245.02 L837.17 2245.02 L837.17 2245.02 L856.60 2245.02 L856.60 2245.02 L875.90 2245.02 L875.90 2244.52 L895.21 2244.52 L895.21 2243.41 L914.64 2243.41 L914.64 2241.55 L933.94 2241.55 L933.94 2240.19 L953.25 2240.19 L953.25 2238.83 L972.55 2238.83 L972.55 2235.12 L991.98 2235.12 L991.98 2234.38 L1011.28 2234.38 L1011.28 2230.66 L1030.59 2230.66 L1030.59 2224.35 L1050.02 2224.35 L1050.02 2220.39 L1069.32 2220.39 L1069.32 2214.82 L1088.63 2214.82 L1088.63 2209.01 L1108.06 2209.01 L1108.06 2196.51 L1127.36 2196.51 L1127.36 2185.49 L1146.67 2185.49 L1146.67 2175.22 L1166.10 2175.22 L1166.10 2155.42 L1185.40 2155.42 L1185.40 2142.30 L1204.71 2142.30 L1204.71 2124.73 L1224.01 2124.73 L1224.01 2107.03 L1243.44 2107.03 L1243.44 2084.02 L1262.74 2084.02 L1262.74 2061.62 L1282.05 2061.62 L1282.05 2032.04 L1301.48 2032.04 L1301.48 2011.37 L1320.78 2011.37 L1320.78 1986.99 L1340.09 1986.99 L1340.09 1970.66 L1359.52 1970.66 L1359.52 1956.05 L1378.82 1956.05 L1378.82 1926.11 L1398.13 1926.11 L1398.13 1912.37 L1417.56 1912.37 L1417.56 1890.46 L1436.86 1890.46 L1436.86 1868.56 L1456.17 1868.56 L1456.17 1847.52 L1475.47 1847.52 L1475.47 1837.37 L1494.90 1837.37 L1494.90 1827.35 L1514.20 1827.35 L1514.20 1813.49 L1533.51 1813.49 L1533.51 1794.18 L1552.94 1794.18 L1552.94 1774.88 L1572.24 1774.88 L1572.24 1757.30 L1591.55 1757.30 L1591.55 1738.87 L1610.98 1738.87 L1610.98 1715.85 L1630.28 1715.85 L1630.28 1702.85 L1649.59 1702.85 L1649.59 1688.13 L1669.02 1688.13 L1669.02 1666.72 L1688.32 1666.72 L1688.32 1650.13 L1707.63 1650.13 L1707.63 1629.71 L1727.06 1629.71 L1727.06 1612.02 L1746.36 1612.02 L1746.36 1601.87 L1765.66 1601.87 L1765.66 1591.60 L1784.97 1591.60 L1784.97 1580.46 L1804.40 1580.46 L1804.40 1563.75 L1823.70 1563.75 L1823.70 1547.91 L1843.01 1547.91 L1843.01 1535.79 L1862.44 1535.79 L1862.44 1515.24 L1881.74 1515.24 L1881.74 1504.10 L1901.05 1504.10 L1901.05 1494.70 L1920.48 1494.70 L1920.48 1484.43 L1939.78 1484.43 L1939.78 1472.30 L1959.09 1472.30 L1959.09 1462.03 L1978.52 1462.03 L1978.52 1449.90 L1997.82 1449.90 L1997.82 1442.48 L2017.13 1442.48 L2017.13 1434.06 L2036.43 1434.06 L2036.43 1431.21 L2055.86 1431.21 L2055.86 1419.95 L2075.16 1419.95 L2075.16 1412.53 L2094.47 1412.53 L2094.47 1401.27 L2113.90 1401.27 L2113.90 1391.86 L2133.20 1391.86 L2133.20 1381.59 L2152.51 1381.59 L2152.51 1378.74 L2171.94 1378.74 L2171.94 1374.04 L2191.24 1374.04 L2191.24 1363.77 L2210.55 1363.77 L2210.55 1349.66 L2229.97 1349.66 L2229.97 1341.24 L2249.28 1341.24 L2249.28 1334.69 L2268.59 1334.69 L2268.59 1328.13 L2287.89 1328.13 L2287.89 1325.28 L2307.32 1325.28 L2307.32 1324.29 L2326.62 1324.29 L2326.62 1321.44 L2345.93 1321.44 L2345.93 1314.02 L2365.36 1314.02 L2365.36 1310.18 L2384.66 1310.18 L2384.66 1305.48 L2403.97 1305.48 L2403.97 1301.77 L2423.40 1301.77 L2423.40 1297.06 L2442.70 1297.06 L2442.70 1289.52 L2462.01 1289.52 L2462.01 1284.81 L2481.43 1284.81 L2481.43 1281.10 L2500.74 1281.10 L2500.74 1274.42 L2520.05 1274.42 L2520.05 1269.71 L2539.35 1269.71 L2539.35 1266.87 L2558.78 1266.87 L2558.78 1263.16 L2578.08 1263.16 L2578.08 1260.31 L2597.39 1260.31 L2597.39 1255.61 L2616.82 1255.61 L2616.82 1255.61 L2636.12 1255.61 L2636.12 1251.89 L2655.43 1251.89 L2655.43 1247.07 L2674.86 1247.07 L2674.86 1241.50 L2694.16 1241.50 L2694.16 1235.81 L2713.47 1235.81 L2713.47 1232.96 L2732.89 1232.96 L2732.89 1231.97 L2752.20 1231.97 L2752.20 1225.41 L2771.51 1225.41 L2771.51 1222.56 L2790.81 1222.56 L2790.81 1221.70 L2810.24 1221.70 L2810.24 1215.02 L2829.54 1215.02 L2829.54 1211.30 L2848.85 1211.30 L2848.85 1210.31 L2868.28 1210.31 L2868.28 1207.47 L2887.58 1207.47 L2887.58 1202.76 L2906.89 1202.76 L2906.89 1200.91 L2926.32 1200.91 L2926.32 1200.91 L2945.62 1200.91 L2945.62 1198.93 L2964.93 1198.93 L2964.93 1198.06 L2984.36 1198.06 L2984.36 1196.08 L3003.66 1196.08 L3003.66 1195.21 L3022.97 1195.21 L3022.97 1194.22 L3042.39 1194.22 L3042.39 1193.23 L3061.70 1193.23 L3061.70 1191.38 L3081.00 1191.38 L3081.00 1190.39 L3100.31 1190.39 L3100.31 1188.53 L3119.74 1188.53 L3119.74 1188.53 L3139.04 1188.53 L3139.04 1188.53 L3158.35 1188.53 L3158.35 1188.53 L3177.78 1188.53 L3177.78 1187.54" stroke-linejoin="round" style="fill:none;stroke:#8DA3B7;stroke-width:8.64"/>
	<path d=" M701.79 2239.20 L721.09 2239.20 L721.09 2238.34 L740.52 2238.34 L740.52 2238.34 L759.83 2238.34 L759.83 2238.34 L779.13 2238.34 L779.13 2237.10 L798.56 2237.10 L798.56 2237.10 L817.86 2237.10 L817.86 2237.10 L837.17 2237.10 L837.17 2237.10 L856.60 2237.10 L856.60 2237.10 L875.90 2237.10 L875.90 2235.86 L895.21 2235.86 L895.21 2233.26 L914.64 2233.26 L914.64 2229.55 L933.94 2229.55 L933.94 2227.07 L953.25 2227.07 L953.25 2224.72 L972.55 2224.72 L972.55 2218.78 L991.98 2218.78 L991.98 2217.67 L1011.28 2217.67 L1011.28 2211.85 L1030.59 2211.85 L1030.59 2202.94 L1050.02 2202.94 L1050.02 2197.37 L1069.32 2197.37 L1069.32 2189.58 L1088.63 2189.58 L1088.63 2182.03 L1108.06 2182.03 L1108.06 2165.82 L1127.36 2165.82 L1127.36 2152.08 L1146.67 2152.08 L1146.67 2139.33 L1166.10 2139.33 L1166.10 2115.20 L1185.40 2115.20 L1185.40 2099.61 L1204.71 2099.61 L1204.71 2078.82 L1224.01 2078.82 L1224.01 2058.27 L1243.44 2058.27 L1243.44 2031.54 L1262.74 2031.54 L1262.74 2005.93 L1282.05 2005.93 L1282.05 1972.39 L1301.48 1972.39 L1301.48 1949.00 L1320.78 1949.00 L1320.78 1921.53 L1340.09 1921.53 L1340.09 1903.33 L1359.52 1903.33 L1359.52 1887.12 L1378.82 1887.12 L1378.82 1853.83 L1398.13 1853.83 L1398.13 1838.73 L1417.56 1838.73 L1417.56 1814.60 L1436.86 1814.60 L1436.86 1790.47 L1456.17 1790.47 L1456.17 1767.33 L1475.47 1767.33 L1475.47 1756.31 L1494.90 1756.31 L1494.90 1745.18 L1514.20 1745.18 L1514.20 1730.20 L1533.51 1730.20 L1533.51 1709.04 L1552.94 1709.04 L1552.94 1688.00 L1572.24 1688.00 L1572.24 1668.94 L1591.55 1668.94 L1591.55 1648.90 L1610.98 1648.90 L1610.98 1623.90 L1630.28 1623.90 L1630.28 1609.91 L1649.59 1609.91 L1649.59 1593.95 L1669.02 1593.95 L1669.02 1570.93 L1688.32 1570.93 L1688.32 1552.86 L1707.63 1552.86 L1707.63 1530.84 L1727.06 1530.84 L1727.06 1511.90 L1746.36 1511.90 L1746.36 1500.89 L1765.66 1500.89 L1765.66 1489.87 L1784.97 1489.87 L1784.97 1477.87 L1804.40 1477.87 L1804.40 1459.92 L1823.70 1459.92 L1823.70 1442.97 L1843.01 1442.97 L1843.01 1429.98 L1862.44 1429.98 L1862.44 1407.95 L1881.74 1407.95 L1881.74 1396.07 L1901.05 1396.07 L1901.05 1386.04 L1920.48 1386.04 L1920.48 1375.03 L1939.78 1375.03 L1939.78 1362.04 L1959.09 1362.04 L1959.09 1351.14 L1978.52 1351.14 L1978.52 1338.15 L1997.82 1338.15 L1997.82 1330.11 L2017.13 1330.11 L2017.13 1321.20 L2036.43 1321.20 L2036.43 1318.10 L2055.86 1318.10 L2055.86 1306.10 L2075.16 1306.10 L2075.16 1298.18 L2094.47 1298.18 L2094.47 1286.17 L2113.90 1286.17 L2113.90 1276.15 L2133.20 1276.15 L2133.20 1265.26 L2152.51 1265.26 L2152.51 1262.17 L2171.94 1262.17 L2171.94 1257.22 L2191.24 1257.22 L2191.24 1246.20 L2210.55 1246.20 L2210.55 1231.23 L2229.97 1231.23 L2229.97 1222.32 L2249.28 1222.32 L2249.28 1215.26 L2268.59 1215.26 L2268.59 1208.33 L2287.89 1208.33 L2287.89 1205.24 L2307.32 1205.24 L2307.32 1204.25 L2326.62 1204.25 L2326.62 1201.28 L2345.93 1201.28 L2345.93 1193.36 L2365.36 1193.36 L2365.36 1189.27 L2384.66 1189.27 L2384.66 1184.32 L2403.97 1184.32 L2403.97 1180.36 L2423.40 1180.36 L2423.40 1175.29 L2442.70 1175.29 L2442.70 1167.37 L2462.01 1167.37 L2462.01 1162.30 L2481.43 1162.30 L2481.43 1158.34 L2500.74 1158.34 L2500.74 1151.28 L2520.05 1151.28 L2520.05 1146.33 L2539.35 1146.33 L2539.35 1143.36 L2558.78 1143.36 L2558.78 1139.28 L2578.08 1139.28 L2578.08 1136.31 L2597.39 1136.31 L2597.39 1131.36 L2616.82 1131.36 L2616.82 1131.36 L2636.12 1131.36 L2636.12 1127.27 L2655.43 1127.27 L2655.43 1122.32 L2674.86 1122.32 L2674.86 1116.26 L2694.16 1116.26 L2694.16 1110.32 L2713.47 1110.32 L2713.47 1107.35 L2732.89 1107.35 L2732.89 1106.36 L2752.20 1106.36 L2752.20 1099.31 L2771.51 1099.31 L2771.51 1096.34 L2790.81 1096.34 L2790.81 1095.35 L2810.24 1095.35 L2810.24 1088.29 L2829.54 1088.29 L2829.54 1084.33 L2848.85 1084.33 L2848.85 1083.34 L2868.28 1083.34 L2868.28 1080.25 L2887.58 1080.25 L2887.58 1075.30 L2906.89 1075.30 L2906.89 1073.32 L2926.32 1073.32 L2926.32 1073.32 L2945.62 1073.32 L2945.62 1071.21 L2964.93 1071.21 L2964.93 1070.22 L2984.36 1070.22 L2984.36 1068.24 L3003.66 1068.24 L3003.66 1067.25 L3022.97 1067.25 L3022.97 1066.26 L3042.39 1066.26 L3042.39 1065.27 L3061.70 1065.27 L3061.70 1063.29 L3081.00 1063.29 L3081.00 1062.18 L3100.31 1062.18 L3100.31 1060.20 L3119.74 1060.20 L3119.74 1060.20 L3139.04 1060.20 L3139.04 1060.20 L3158.35 1060.20 L3158.35 1060.20 L3177.78 1060.20 L3177.78 1059.21" stroke-linejoin="round" style="fill:none;stroke:#8DA3B7;stroke-width:8.64"/>
	<defs>
		<path id="path_cbQNaQJp" d="M914.64 2245.14 L914.64 2245.14 L933.94 2245.14 L933.94 2245.14 L953.37 2245.14 L953.37 2245.14 L972.67 2245.14 L972.67 2245.14 L991.98 2245.14 L991.98 2245.14 L1011.41 2245.14 L1011.41 2243.29 L1050.02 2243.29 L1050.02 2238.21 L1069.45 2238.21 L1069.45 2232.15 L1088.75 2232.15 L1088.75 2228.93 L1108.06 2228.93 L1108.06 2222.00 L1127.36 2222.00 L1127.36 2211.23 L1146.79 2211.23 L1146.79 2192.05 L1166.10 2192.05 L1166.10 2176.21 L1185.40 2176.21 L1185.40 2163.96 L1204.83 2163.96 L1204.83 2163.96 L1224.13 2163.96 L1224.13 2147.38 L1243.44 2147.38 L1243.44 2147.38 L1262.87 2147.38 L1262.87 2130.67 L1282.17 2130.67 L1282.17 2113.59 L1301.48 2113.59 L1301.48 2096.39 L1320.91 2096.39 L1320.91 2083.40 L1340.21 2083.40 L1340.21 2070.40 L1359.52 2070.40 L1359.52 2065.95 L1378.82 2065.95 L1378.82 2044.04 L1398.25 2044.04 L1398.25 2030.68 L1417.56 2030.68 L1417.56 2030.68 L1436.86 2030.68 L1436.86 2012.98 L1456.29 2012.98 L1456.29 1995.04 L1475.60 1995.04 L1475.60 1986.13 L1494.90 1986.13 L1494.90 1977.09 L1514.33 1977.09 L1514.33 1972.64 L1533.63 1972.64 L1533.63 1968.18 L1552.94 1968.18 L1552.94 1950.11 L1572.37 1950.11 L1572.37 1922.89 L1591.67 1922.89 L1591.67 1918.31 L1610.98 1918.31 L1610.98 1900.12 L1630.28 1900.12 L1630.28 1890.96 L1649.71 1890.96 L1649.71 1886.38 L1669.02 1886.38 L1669.02 1881.80 L1688.32 1881.80 L1688.32 1868.06 L1707.75 1868.06 L1707.75 1858.91 L1727.06 1858.91 L1727.06 1835.89 L1746.36 1835.89 L1746.36 1822.03 L1765.79 1822.03 L1765.79 1808.17 L1785.09 1808.17 L1785.09 1789.73 L1804.40 1789.73 L1804.40 1780.45 L1823.83 1780.45 L1823.83 1775.87 L1843.13 1775.87 L1843.13 1771.17 L1862.44 1771.17 L1862.44 1748.02 L1881.74 1748.02 L1881.74 1738.62 L1901.17 1738.62 L1901.17 1738.62 L1920.48 1738.62 L1920.48 1734.04 L1939.78 1734.04 L1939.78 1720.06 L1959.21 1720.06 L1959.21 1706.07 L1978.52 1706.07 L1978.52 1701.37 L1997.82 1701.37 L1997.82 1696.67 L2017.25 1696.67 L2017.25 1687.38 L2036.55 1687.38 L2036.55 1677.98 L2055.86 1677.98 L2055.86 1668.57 L2075.29 1668.57 L2075.29 1668.57 L2094.59 1668.57 L2094.59 1659.29 L2113.90 1659.29 L2113.90 1649.89 L2133.20 1649.89 L2133.20 1649.89 L2152.63 1649.89 L2152.63 1645.18 L2171.94 1645.18 L2171.94 1640.48 L2191.24 1640.48 L2191.24 1635.78 L2210.67 1635.78 L2210.67 1621.67 L2229.97 1621.67 L2229.97 1616.97 L2249.28 1616.97 L2249.28 1602.86 L2268.71 1602.86 L2268.71 1598.16 L2288.01 1598.16 L2288.01 1598.16 L2307.32 1598.16 L2307.32 1593.45 L2326.75 1593.45 L2326.75 1593.45 L2346.05 1593.45 L2346.05 1588.75 L2365.36 1588.75 L2365.36 1584.05 L2384.79 1584.05 L2384.79 1584.05 L2404.09 1584.05 L2404.09 1584.05 L2462.13 1584.05 L2462.13 1579.35 L2481.43 1579.35 L2481.43 1574.64 L2500.74 1574.64 L2500.74 1569.94 L2520.17 1569.94 L2520.17 1565.24 L2539.47 1565.24 L2539.47 1565.24 L2558.78 1565.24 L2558.78 1565.24 L2578.21 1565.24 L2578.21 1560.54 L2597.51 1560.54 L2597.51 1560.54 L2616.82 1560.54 L2616.82 1560.54 L2636.25 1560.54 L2636.25 1555.71 L2655.55 1555.71 L2655.55 1551.01 L2674.86 1551.01 L2674.86 1551.01 L2713.59 1551.01 L2713.59 1551.01 L2732.89 1551.01 L2732.89 1541.60 L2752.20 1541.60 L2752.20 1522.67 L2790.93 1522.67 L2790.93 1522.67 L2810.24 1522.67 L2810.24 1522.67 L2848.97 1522.67 L2848.97 1517.96 L2868.28 1517.96 L2868.28 1517.96 L2887.71 1517.96 L2887.71 1513.14 L2926.32 1513.14 L2926.32 1503.73 L2945.62 1503.73 L2945.62 1503.73 L2965.05 1503.73 L2965.05 1503.73 L2984.36 1503.73 L2984.36 1494.20 L3003.66 1494.20 L3003.66 1489.50 L3023.09 1489.50 L3023.09 1489.50 L3042.39 1489.50 L3042.39 1484.68 L3061.70 1484.68 L3061.70 1484.68 L3081.13 1484.68 L3081.13 1484.68 L3119.74 1484.68 L3119.74 1479.97 L3177.78 1479.97 L3177.78 1479.97 L3177.78 1215.76 L3177.78 1215.76 L3119.74 1215.76 L3119.74 1221.33 L3081.13 1221.33 L3081.13 1221.33 L3061.70 1221.33 L3061.70 1221.33 L3042.39 1221.33 L3042.39 1226.77 L3023.09 1226.77 L3023.09 1226.77 L3003.66 1226.77 L3003.66 1232.34 L2984.36 1232.34 L2984.36 1243.36 L2965.05 1243.36 L2965.05 1243.36 L2945.62 1243.36 L2945.62 1243.36 L2926.32 1243.36 L2926.32 1254.37 L2887.71 1254.37 L2887.71 1259.81 L2868.28 1259.81 L2868.28 1259.81 L2848.97 1259.81 L2848.97 1265.38 L2810.24 1265.38 L2810.24 1265.38 L2790.93 1265.38 L2790.93 1265.38 L2752.20 1265.38 L2752.20 1287.41 L2732.89 1287.41 L2732.89 1298.43 L2713.59 1298.43 L2713.59 1298.43 L2674.86 1298.43 L2674.86 1298.43 L2655.55 1298.43 L2655.55 1303.99 L2636.25 1303.99 L2636.25 1309.44 L2616.82 1309.44 L2616.82 1309.44 L2597.51 1309.44 L2597.51 1309.44 L2578.21 1309.44 L2578.21 1315.01 L2558.78 1315.01 L2558.78 1315.01 L2539.47 1315.01 L2539.47 1315.01 L2520.17 1315.01 L2520.17 1320.45 L2500.74 1320.45 L2500.74 1326.02 L2481.43 1326.02 L2481.43 1331.59 L2462.13 1331.59 L2462.13 1337.04 L2404.09 1337.04 L2404.09 1337.04 L2384.79 1337.04 L2384.79 1337.04 L2365.36 1337.04 L2365.36 1342.61 L2346.05 1342.61 L2346.05 1348.05 L2326.75 1348.05 L2326.75 1348.05 L2307.32 1348.05 L2307.32 1353.62 L2288.01 1353.62 L2288.01 1353.62 L2268.71 1353.62 L2268.71 1359.19 L2249.28 1359.19 L2249.28 1375.77 L2229.97 1375.77 L2229.97 1381.22 L2210.67 1381.22 L2210.67 1397.80 L2191.24 1397.80 L2191.24 1403.37 L2171.94 1403.37 L2171.94 1408.94 L2152.63 1408.94 L2152.63 1414.38 L2133.20 1414.38 L2133.20 1414.38 L2113.90 1414.38 L2113.90 1425.52 L2094.59 1425.52 L2094.59 1436.53 L2075.29 1436.53 L2075.29 1436.53 L2055.86 1436.53 L2055.86 1447.67 L2036.55 1447.67 L2036.55 1458.81 L2017.25 1458.81 L2017.25 1469.82 L1997.82 1469.82 L1997.82 1475.39 L1978.52 1475.39 L1978.52 1480.96 L1959.21 1480.96 L1959.21 1497.67 L1939.78 1497.67 L1939.78 1514.25 L1920.48 1514.25 L1920.48 1519.82 L1901.17 1519.82 L1901.17 1519.82 L1881.74 1519.82 L1881.74 1530.96 L1862.44 1530.96 L1862.44 1558.80 L1843.13 1558.80 L1843.13 1564.37 L1823.83 1564.37 L1823.83 1569.94 L1804.40 1569.94 L1804.40 1581.20 L1785.09 1581.20 L1785.09 1603.48 L1765.79 1603.48 L1765.79 1620.31 L1746.36 1620.31 L1746.36 1637.14 L1727.06 1637.14 L1727.06 1665.23 L1707.75 1665.23 L1707.75 1676.37 L1688.32 1676.37 L1688.32 1693.32 L1669.02 1693.32 L1669.02 1698.89 L1649.71 1698.89 L1649.71 1704.59 L1630.28 1704.59 L1630.28 1715.85 L1610.98 1715.85 L1610.98 1738.49 L1591.67 1738.49 L1591.67 1744.06 L1572.37 1744.06 L1572.37 1778.10 L1552.94 1778.10 L1552.94 1800.87 L1533.63 1800.87 L1533.63 1806.56 L1514.33 1806.56 L1514.33 1812.25 L1494.90 1812.25 L1494.90 1823.64 L1475.60 1823.64 L1475.60 1835.15 L1456.29 1835.15 L1456.29 1858.04 L1436.86 1858.04 L1436.86 1881.06 L1417.56 1881.06 L1417.56 1881.06 L1398.25 1881.06 L1398.25 1898.38 L1378.82 1898.38 L1378.82 1927.34 L1359.52 1927.34 L1359.52 1933.16 L1340.21 1933.16 L1340.21 1950.61 L1320.91 1950.61 L1320.91 1968.18 L1301.48 1968.18 L1301.48 1991.69 L1282.17 1991.69 L1282.17 2015.46 L1262.87 2015.46 L1262.87 2039.46 L1243.44 2039.46 L1243.44 2039.46 L1224.13 2039.46 L1224.13 2063.60 L1204.83 2063.60 L1204.83 2063.60 L1185.40 2063.60 L1185.40 2081.91 L1166.10 2081.91 L1166.10 2106.66 L1146.79 2106.66 L1146.79 2138.34 L1127.36 2138.34 L1127.36 2157.77 L1108.06 2157.77 L1108.06 2171.14 L1088.75 2171.14 L1088.75 2177.94 L1069.45 2177.94 L1069.45 2191.68 L1050.02 2191.68 L1050.02 2205.17 L1011.41 2205.17 L1011.41 2209.75 L991.98 2209.75 L991.98 2209.75 L972.67 2209.75 L972.67 2209.75 L953.37 2209.75 L953.37 2209.75 L933.94 2209.75 L933.94 2209.75 L914.64 2209.75 L914.64 2245.14 Z" stroke-linejoin="round"/>
	</defs>
	<defs>
		<clipPath id="clipPath_jUajdUzk">
			<use xlink:href="#path_cbQNaQJp"/>
		</clipPath>
	</defs>
	<use xlink:href="#path_cbQNaQJp" style="stroke:none;fill:#EEE1E2"/>
	<use xlink:href="#path_cbQNaQJp" style="fill:none;stroke:#EEE1E2;stroke-width:17.28" clip-path="url(#clipPath_jUajdUzk)"/>
	<path d=" M914.64 2245.27 L933.94 2245.27 L933.94 2245.27 L953.25 2245.27 L953.25 2245.27 L972.55 2245.27 L972.55 2245.27 L991.98 2245.27 L991.98 2245.27 L1011.28 2245.27 L1011.28 2243.41 L1050.02 2243.41 L1050.02 2238.34 L1069.32 2238.34 L1069.32 2232.27 L1088.63 2232.27 L1088.63 2228.93 L1108.06 2228.93 L1108.06 2222.12 L1127.36 2222.12 L1127.36 2211.23 L1146.67 2211.23 L1146.67 2192.18 L1166.10 2192.18 L1166.10 2176.21 L1185.40 2176.21 L1185.40 2164.08 L1204.71 2164.08 L1204.71 2164.08 L1224.01 2164.08 L1224.01 2147.50 L1243.44 2147.50 L1243.44 2147.50 L1262.74 2147.50 L1262.74 2130.67 L1282.05 2130.67 L1282.05 2113.72 L1301.48 2113.72 L1301.48 2096.51 L1320.78 2096.51 L1320.78 2083.52 L1340.09 2083.52 L1340.09 2070.40 L1359.52 2070.40 L1359.52 2066.07 L1378.82 2066.07 L1378.82 2044.04 L1398.13 2044.04 L1398.13 2030.80 L1417.56 2030.80 L1417.56 2030.80 L1436.86 2030.80 L1436.86 2012.98 L1456.17 2012.98 L1456.17 1995.16 L1475.47 1995.16 L1475.47 1986.13 L1494.90 1986.13 L1494.90 1977.22 L1514.20 1977.22 L1514.20 1972.76 L1533.51 1972.76 L1533.51 1968.18 L1552.94 1968.18 L1552.94 1950.11 L1572.24 1950.11 L1572.24 1922.89 L1591.55 1922.89 L1591.55 1918.43 L1610.98 1918.43 L1610.98 1900.12 L1630.28 1900.12 L1630.28 1891.08 L1649.59 1891.08 L1649.59 1886.50 L1669.02 1886.50 L1669.02 1881.93 L1688.32 1881.93 L1688.32 1868.19 L1707.63 1868.19 L1707.63 1858.91 L1727.06 1858.91 L1727.06 1836.01 L1746.36 1836.01 L1746.36 1822.15 L1765.66 1822.15 L1765.66 1808.29 L1784.97 1808.29 L1784.97 1789.73 L1804.40 1789.73 L1804.40 1780.57 L1823.70 1780.57 L1823.70 1775.87 L1843.01 1775.87 L1843.01 1771.29 L1862.44 1771.29 L1862.44 1748.02 L1881.74 1748.02 L1881.74 1738.74 L1901.05 1738.74 L1901.05 1738.74 L1920.48 1738.74 L1920.48 1734.04 L1939.78 1734.04 L1939.78 1720.06 L1959.09 1720.06 L1959.09 1706.07 L1978.52 1706.07 L1978.52 1701.37 L1997.82 1701.37 L1997.82 1696.79 L2017.13 1696.79 L2017.13 1687.38 L2036.43 1687.38 L2036.43 1678.10 L2055.86 1678.10 L2055.86 1668.70 L2075.16 1668.70 L2075.16 1668.70 L2094.47 1668.70 L2094.47 1659.29 L2113.90 1659.29 L2113.90 1649.89 L2133.20 1649.89 L2133.20 1649.89 L2152.51 1649.89 L2152.51 1645.31 L2171.94 1645.31 L2171.94 1640.61 L2191.24 1640.61 L2191.24 1635.90 L2210.55 1635.90 L2210.55 1621.79 L2229.97 1621.79 L2229.97 1617.09 L2249.28 1617.09 L2249.28 1602.98 L2268.59 1602.98 L2268.59 1598.28 L2287.89 1598.28 L2287.89 1598.28 L2307.32 1598.28 L2307.32 1593.58 L2326.62 1593.58 L2326.62 1593.58 L2345.93 1593.58 L2345.93 1588.88 L2365.36 1588.88 L2365.36 1584.17 L2384.66 1584.17 L2384.66 1584.17 L2403.97 1584.17 L2403.97 1584.17 L2462.01 1584.17 L2462.01 1579.47 L2481.43 1579.47 L2481.43 1574.64 L2500.74 1574.64 L2500.74 1569.94 L2520.05 1569.94 L2520.05 1565.24 L2539.35 1565.24 L2539.35 1565.24 L2558.78 1565.24 L2558.78 1565.24 L2578.08 1565.24 L2578.08 1560.54 L2597.39 1560.54 L2597.39 1560.54 L2616.82 1560.54 L2616.82 1560.54 L2636.12 1560.54 L2636.12 1555.83 L2655.43 1555.83 L2655.43 1551.13 L2674.86 1551.13 L2674.86 1551.13 L2713.47 1551.13 L2713.47 1551.13 L2732.89 1551.13 L2732.89 1541.60 L2752.20 1541.60 L2752.20 1522.67 L2790.81 1522.67 L2790.81 1522.67 L2810.24 1522.67 L2810.24 1522.67 L2848.85 1522.67 L2848.85 1517.96 L2868.28 1517.96 L2868.28 1517.96 L2887.58 1517.96 L2887.58 1513.26 L2926.32 1513.26 L2926.32 1503.73 L2945.62 1503.73 L2945.62 1503.73 L2964.93 1503.73 L2964.93 1503.73 L2984.36 1503.73 L2984.36 1494.33 L3003.66 1494.33 L3003.66 1489.50 L3022.97 1489.50 L3022.97 1489.50 L3042.39 1489.50 L3042.39 1484.80 L3061.70 1484.80 L3061.70 1484.80 L3081.00 1484.80 L3081.00 1484.80 L3119.74 1484.80 L3119.74 1480.10 L3177.78 1480.10 L3177.78 1480.10" stroke-linejoin="round" style="fill:none;stroke:#C89A9D;stroke-width:8.64"/>
	<path d=" M914.64 2209.87 L933.94 2209.87 L933.94 2209.87 L953.25 2209.87 L953.25 2209.87 L972.55 2209.87 L972.55 2209.87 L991.98 2209.87 L991.98 2209.87 L1011.28 2209.87 L1011.28 2205.29 L1050.02 2205.29 L1050.02 2191.68 L1069.32 2191.68 L1069.32 2177.94 L1088.63 2177.94 L1088.63 2171.26 L1108.06 2171.26 L1108.06 2157.90 L1127.36 2157.90 L1127.36 2138.34 L1146.67 2138.34 L1146.67 2106.66 L1166.10 2106.66 L1166.10 2081.91 L1185.40 2081.91 L1185.40 2063.60 L1204.71 2063.60 L1204.71 2063.60 L1224.01 2063.60 L1224.01 2039.46 L1243.44 2039.46 L1243.44 2039.46 L1262.74 2039.46 L1262.74 2015.58 L1282.05 2015.58 L1282.05 1991.82 L1301.48 1991.82 L1301.48 1968.31 L1320.78 1968.31 L1320.78 1950.73 L1340.09 1950.73 L1340.09 1933.16 L1359.52 1933.16 L1359.52 1927.34 L1378.82 1927.34 L1378.82 1898.38 L1398.13 1898.38 L1398.13 1881.06 L1417.56 1881.06 L1417.56 1881.06 L1436.86 1881.06 L1436.86 1858.16 L1456.17 1858.16 L1456.17 1835.15 L1475.47 1835.15 L1475.47 1823.76 L1494.90 1823.76 L1494.90 1812.38 L1514.20 1812.38 L1514.20 1806.68 L1533.51 1806.68 L1533.51 1800.99 L1552.94 1800.99 L1552.94 1778.22 L1572.24 1778.22 L1572.24 1744.19 L1591.55 1744.19 L1591.55 1738.49 L1610.98 1738.49 L1610.98 1715.97 L1630.28 1715.97 L1630.28 1704.59 L1649.59 1704.59 L1649.59 1699.02 L1669.02 1699.02 L1669.02 1693.32 L1688.32 1693.32 L1688.32 1676.49 L1707.63 1676.49 L1707.63 1665.23 L1727.06 1665.23 L1727.06 1637.14 L1746.36 1637.14 L1746.36 1620.31 L1765.66 1620.31 L1765.66 1603.60 L1784.97 1603.60 L1784.97 1581.20 L1804.40 1581.20 L1804.40 1570.07 L1823.70 1570.07 L1823.70 1564.50 L1843.01 1564.50 L1843.01 1558.93 L1862.44 1558.93 L1862.44 1531.08 L1881.74 1531.08 L1881.74 1519.94 L1901.05 1519.94 L1901.05 1519.94 L1920.48 1519.94 L1920.48 1514.38 L1939.78 1514.38 L1939.78 1497.67 L1959.09 1497.67 L1959.09 1480.96 L1978.52 1480.96 L1978.52 1475.52 L1997.82 1475.52 L1997.82 1469.95 L2017.13 1469.95 L2017.13 1458.81 L2036.43 1458.81 L2036.43 1447.67 L2055.86 1447.67 L2055.86 1436.66 L2075.16 1436.66 L2075.16 1436.66 L2094.47 1436.66 L2094.47 1425.52 L2113.90 1425.52 L2113.90 1414.51 L2133.20 1414.51 L2133.20 1414.51 L2152.51 1414.51 L2152.51 1408.94 L2171.94 1408.94 L2171.94 1403.37 L2191.24 1403.37 L2191.24 1397.92 L2210.55 1397.92 L2210.55 1381.34 L2229.97 1381.34 L2229.97 1375.77 L2249.28 1375.77 L2249.28 1359.19 L2268.59 1359.19 L2268.59 1353.74 L2287.89 1353.74 L2287.89 1353.74 L2307.32 1353.74 L2307.32 1348.17 L2326.62 1348.17 L2326.62 1348.17 L2345.93 1348.17 L2345.93 1342.61 L2365.36 1342.61 L2365.36 1337.16 L2384.66 1337.16 L2384.66 1337.16 L2403.97 1337.16 L2403.97 1337.16 L2462.01 1337.16 L2462.01 1331.59 L2481.43 1331.59 L2481.43 1326.15 L2500.74 1326.15 L2500.74 1320.58 L2520.05 1320.58 L2520.05 1315.01 L2539.35 1315.01 L2539.35 1315.01 L2558.78 1315.01 L2558.78 1315.01 L2578.08 1315.01 L2578.08 1309.56 L2597.39 1309.56 L2597.39 1309.56 L2616.82 1309.56 L2616.82 1309.56 L2636.12 1309.56 L2636.12 1303.99 L2655.43 1303.99 L2655.43 1298.55 L2674.86 1298.55 L2674.86 1298.55 L2713.47 1298.55 L2713.47 1298.55 L2732.89 1298.55 L2732.89 1287.54 L2752.20 1287.54 L2752.20 1265.38 L2790.81 1265.38 L2790.81 1265.38 L2810.24 1265.38 L2810.24 1265.38 L2848.85 1265.38 L2848.85 1259.94 L2868.28 1259.94 L2868.28 1259.94 L2887.58 1259.94 L2887.58 1254.37 L2926.32 1254.37 L2926.32 1243.36 L2945.62 1243.36 L2945.62 1243.36 L2964.93 1243.36 L2964.93 1243.36 L2984.36 1243.36 L2984.36 1232.34 L3003.66 1232.34 L3003.66 1226.90 L3022.97 1226.90 L3022.97 1226.90 L3042.39 1226.90 L3042.39 1221.33 L3061.70 1221.33 L3061.70 1221.33 L3081.00 1221.33 L3081.00 1221.33 L3119.74 1221.33 L3119.74 1215.88 L3177.78 1215.88 L3177.78 1215.88" stroke-linejoin="round" style="fill:none;stroke:#C89A9D;stroke-width:8.64"/>
	<path d=" M682.48 2246.01 L682.48 2246.01 L682.48 2246.01 L701.79 2246.01 L701.79 2245.02 L721.09 2245.02 L721.09 2244.03 L740.52 2244.03 L740.52 2244.03 L759.83 2244.03 L759.83 2244.03 L779.13 2244.03 L779.13 2243.16 L798.56 2243.16 L798.56 2243.16 L817.86 2243.16 L817.86 2243.16 L837.17 2243.16 L837.17 2243.16 L856.60 2243.16 L856.60 2243.16 L875.90 2243.16 L875.90 2242.17 L895.21 2242.17 L895.21 2240.32 L914.64 2240.32 L914.64 2237.35 L933.94 2237.35 L933.94 2235.49 L953.25 2235.49 L953.25 2233.63 L972.55 2233.63 L972.55 2228.81 L991.98 2228.81 L991.98 2227.94 L1011.28 2227.94 L1011.28 2223.11 L1030.59 2223.11 L1030.59 2215.44 L1050.02 2215.44 L1050.02 2210.74 L1069.32 2210.74 L1069.32 2204.06 L1088.63 2204.06 L1088.63 2197.37 L1108.06 2197.37 L1108.06 2183.02 L1127.36 2183.02 L1127.36 2170.64 L1146.67 2170.64 L1146.67 2159.13 L1166.10 2159.13 L1166.10 2137.11 L1185.40 2137.11 L1185.40 2122.75 L1204.71 2122.75 L1204.71 2103.69 L1224.01 2103.69 L1224.01 2084.51 L1243.44 2084.51 L1243.44 2059.64 L1262.74 2059.64 L1262.74 2035.63 L1282.05 2035.63 L1282.05 2004.07 L1301.48 2004.07 L1301.48 1981.92 L1320.78 1981.92 L1320.78 1956.05 L1340.09 1956.05 L1340.09 1938.85 L1359.52 1938.85 L1359.52 1923.51 L1378.82 1923.51 L1378.82 1891.83 L1398.13 1891.83 L1398.13 1877.47 L1417.56 1877.47 L1417.56 1854.33 L1436.86 1854.33 L1436.86 1831.31 L1456.17 1831.31 L1456.17 1809.28 L1475.47 1809.28 L1475.47 1798.64 L1494.90 1798.64 L1494.90 1788.12 L1514.20 1788.12 L1514.20 1773.64 L1533.51 1773.64 L1533.51 1753.47 L1552.94 1753.47 L1552.94 1733.30 L1572.24 1733.30 L1572.24 1714.98 L1591.55 1714.98 L1591.55 1695.80 L1610.98 1695.80 L1610.98 1671.67 L1630.28 1671.67 L1630.28 1658.18 L1649.59 1658.18 L1649.59 1642.83 L1669.02 1642.83 L1669.02 1620.68 L1688.32 1620.68 L1688.32 1603.36 L1707.63 1603.36 L1707.63 1582.07 L1727.06 1582.07 L1727.06 1563.75 L1746.36 1563.75 L1746.36 1553.23 L1765.66 1553.23 L1765.66 1542.59 L1784.97 1542.59 L1784.97 1530.96 L1804.40 1530.96 L1804.40 1513.63 L1823.70 1513.63 L1823.70 1497.30 L1843.01 1497.30 L1843.01 1484.68 L1862.44 1484.68 L1862.44 1463.51 L1881.74 1463.51 L1881.74 1451.88 L1901.05 1451.88 L1901.05 1442.23 L1920.48 1442.23 L1920.48 1431.58 L1939.78 1431.58 L1939.78 1419.09 L1959.09 1419.09 L1959.09 1408.44 L1978.52 1408.44 L1978.52 1395.82 L1997.82 1395.82 L1997.82 1388.15 L2017.13 1388.15 L2017.13 1379.36 L2036.43 1379.36 L2036.43 1376.51 L2055.86 1376.51 L2055.86 1364.88 L2075.16 1364.88 L2075.16 1357.21 L2094.47 1357.21 L2094.47 1345.58 L2113.90 1345.58 L2113.90 1335.92 L2133.20 1335.92 L2133.20 1325.28 L2152.51 1325.28 L2152.51 1322.31 L2171.94 1322.31 L2171.94 1317.48 L2191.24 1317.48 L2191.24 1306.84 L2210.55 1306.84 L2210.55 1292.24 L2229.97 1292.24 L2229.97 1283.58 L2249.28 1283.58 L2249.28 1276.77 L2268.59 1276.77 L2268.59 1269.96 L2287.89 1269.96 L2287.89 1267.12 L2307.32 1267.12 L2307.32 1266.13 L2326.62 1266.13 L2326.62 1263.28 L2345.93 1263.28 L2345.93 1255.48 L2365.36 1255.48 L2365.36 1251.65 L2384.66 1251.65 L2384.66 1246.70 L2403.97 1246.70 L2403.97 1242.86 L2423.40 1242.86 L2423.40 1238.03 L2442.70 1238.03 L2442.70 1230.24 L2462.01 1230.24 L2462.01 1225.41 L2481.43 1225.41 L2481.43 1221.57 L2500.74 1221.57 L2500.74 1214.77 L2520.05 1214.77 L2520.05 1209.82 L2539.35 1209.82 L2539.35 1206.97 L2558.78 1206.97 L2558.78 1203.01 L2578.08 1203.01 L2578.08 1200.17 L2597.39 1200.17 L2597.39 1195.34 L2616.82 1195.34 L2616.82 1195.34 L2636.12 1195.34 L2636.12 1191.38 L2655.43 1191.38 L2655.43 1186.55 L2674.86 1186.55 L2674.86 1180.74 L2694.16 1180.74 L2694.16 1174.92 L2713.47 1174.92 L2713.47 1171.95 L2732.89 1171.95 L2732.89 1170.96 L2752.20 1170.96 L2752.20 1164.15 L2771.51 1164.15 L2771.51 1161.31 L2790.81 1161.31 L2790.81 1160.32 L2810.24 1160.32 L2810.24 1153.51 L2829.54 1153.51 L2829.54 1149.55 L2848.85 1149.55 L2848.85 1148.56 L2868.28 1148.56 L2868.28 1145.71 L2887.58 1145.71 L2887.58 1140.89 L2906.89 1140.89 L2906.89 1138.91 L2926.32 1138.91 L2926.32 1138.91 L2945.62 1138.91 L2945.62 1136.93 L2964.93 1136.93 L2964.93 1135.94 L2984.36 1135.94 L2984.36 1133.96 L3003.66 1133.96 L3003.66 1133.09 L3022.97 1133.09 L3022.97 1132.10 L3042.39 1132.10 L3042.39 1131.11 L3061.70 1131.11 L3061.70 1129.13 L3081.00 1129.13 L3081.00 1128.14 L3100.31 1128.14 L3100.31 1126.16 L3119.74 1126.16 L3119.74 1126.16 L3139.04 1126.16 L3139.04 1126.16 L3158.35 1126.16 L3158.35 1126.16 L3177.78 1126.16 L3177.78 1125.29" stroke-linejoin="round" style="fill:none;stroke:#1A476F;stroke-width:8.64"/>
	<path d=" M682.48 2246.01 L682.48 2246.01 L682.48 2246.01 L701.79 2246.01 L701.79 2246.01 L721.09 2246.01 L721.09 2246.01 L740.52 2246.01 L740.52 2246.01 L759.83 2246.01 L759.83 2246.01 L779.13 2246.01 L779.13 2246.01 L798.56 2246.01 L798.56 2246.01 L817.86 2246.01 L817.86 2246.01 L837.17 2246.01 L837.17 2246.01 L875.90 2246.01 L875.90 2246.01 L895.21 2246.01 L895.21 2246.01 L914.64 2246.01 L914.64 2240.81 L933.94 2240.81 L933.94 2240.81 L953.25 2240.81 L953.25 2240.81 L972.55 2240.81 L972.55 2240.81 L991.98 2240.81 L991.98 2240.81 L1011.28 2240.81 L1011.28 2235.74 L1050.02 2235.74 L1050.02 2225.59 L1069.32 2225.59 L1069.32 2215.44 L1088.63 2215.44 L1088.63 2210.37 L1108.06 2210.37 L1108.06 2200.10 L1127.36 2200.10 L1127.36 2184.87 L1146.67 2184.87 L1146.67 2159.38 L1166.10 2159.38 L1166.10 2138.96 L1185.40 2138.96 L1185.40 2123.74 L1204.71 2123.74 L1204.71 2123.74 L1224.01 2123.74 L1224.01 2103.32 L1243.44 2103.32 L1243.44 2103.32 L1262.74 2103.32 L1262.74 2083.03 L1282.05 2083.03 L1282.05 2062.61 L1301.48 2062.61 L1301.48 2042.19 L1320.78 2042.19 L1320.78 2026.96 L1340.09 2026.96 L1340.09 2011.62 L1359.52 2011.62 L1359.52 2006.55 L1378.82 2006.55 L1378.82 1981.05 L1398.13 1981.05 L1398.13 1965.71 L1417.56 1965.71 L1417.56 1965.71 L1436.86 1965.71 L1436.86 1945.41 L1456.17 1945.41 L1456.17 1924.99 L1475.47 1924.99 L1475.47 1914.72 L1494.90 1914.72 L1494.90 1904.57 L1514.20 1904.57 L1514.20 1899.50 L1533.51 1899.50 L1533.51 1894.42 L1552.94 1894.42 L1552.94 1874.00 L1572.24 1874.00 L1572.24 1843.31 L1591.55 1843.31 L1591.55 1838.24 L1610.98 1838.24 L1610.98 1817.82 L1630.28 1817.82 L1630.28 1807.67 L1649.59 1807.67 L1649.59 1802.48 L1669.02 1802.48 L1669.02 1797.40 L1688.32 1797.40 L1688.32 1782.06 L1707.63 1782.06 L1707.63 1771.91 L1727.06 1771.91 L1727.06 1746.29 L1746.36 1746.29 L1746.36 1731.07 L1765.66 1731.07 L1765.66 1715.72 L1784.97 1715.72 L1784.97 1695.30 L1804.40 1695.30 L1804.40 1685.03 L1823.70 1685.03 L1823.70 1679.96 L1843.01 1679.96 L1843.01 1674.88 L1862.44 1674.88 L1862.44 1649.27 L1881.74 1649.27 L1881.74 1639.12 L1901.05 1639.12 L1901.05 1639.12 L1920.48 1639.12 L1920.48 1633.92 L1939.78 1633.92 L1939.78 1618.70 L1959.09 1618.70 L1959.09 1603.36 L1978.52 1603.36 L1978.52 1598.16 L1997.82 1598.16 L1997.82 1593.08 L2017.13 1593.08 L2017.13 1582.81 L2036.43 1582.81 L2036.43 1572.66 L2055.86 1572.66 L2055.86 1562.39 L2075.16 1562.39 L2075.16 1562.39 L2094.47 1562.39 L2094.47 1552.24 L2113.90 1552.24 L2113.90 1541.97 L2133.20 1541.97 L2133.20 1541.97 L2152.51 1541.97 L2152.51 1536.90 L2171.94 1536.90 L2171.94 1531.70 L2191.24 1531.70 L2191.24 1526.63 L2210.55 1526.63 L2210.55 1511.28 L2229.97 1511.28 L2229.97 1506.21 L2249.28 1506.21 L2249.28 1490.86 L2268.59 1490.86 L2268.59 1485.67 L2287.89 1485.67 L2287.89 1485.67 L2307.32 1485.67 L2307.32 1480.59 L2326.62 1480.59 L2326.62 1480.59 L2345.93 1480.59 L2345.93 1475.52 L2365.36 1475.52 L2365.36 1470.32 L2384.66 1470.32 L2384.66 1470.32 L2403.97 1470.32 L2403.97 1470.32 L2462.01 1470.32 L2462.01 1465.25 L2481.43 1465.25 L2481.43 1460.17 L2500.74 1460.17 L2500.74 1454.97 L2520.05 1454.97 L2520.05 1449.90 L2539.35 1449.90 L2539.35 1449.90 L2558.78 1449.90 L2558.78 1449.90 L2578.08 1449.90 L2578.08 1444.83 L2597.39 1444.83 L2597.39 1444.83 L2616.82 1444.83 L2616.82 1444.83 L2636.12 1444.83 L2636.12 1439.63 L2655.43 1439.63 L2655.43 1434.55 L2674.86 1434.55 L2674.86 1434.55 L2713.47 1434.55 L2713.47 1434.55 L2732.89 1434.55 L2732.89 1424.28 L2752.20 1424.28 L2752.20 1403.86 L2790.81 1403.86 L2790.81 1403.86 L2810.24 1403.86 L2810.24 1403.86 L2848.85 1403.86 L2848.85 1398.67 L2868.28 1398.67 L2868.28 1398.67 L2887.58 1398.67 L2887.58 1393.59 L2926.32 1393.59 L2926.32 1383.32 L2945.62 1383.32 L2945.62 1383.32 L2964.93 1383.32 L2964.93 1383.32 L2984.36 1383.32 L2984.36 1373.05 L3003.66 1373.05 L3003.66 1367.98 L3022.97 1367.98 L3022.97 1367.98 L3042.39 1367.98 L3042.39 1362.78 L3061.70 1362.78 L3061.70 1362.78 L3081.00 1362.78 L3081.00 1362.78 L3119.74 1362.78 L3119.74 1357.70 L3177.78 1357.70 L3177.78 1357.70" stroke-linejoin="round" style="fill:none;stroke:#90353B;stroke-width:8.64"/>
	<line x1="619.12" y1="2309.25" x2="619.12" y2="630.90" style="stroke:#000000;stroke-width:5.76"/>
	<line x1="619.12" y1="2245.89" x2="579.15" y2="2245.89" style="stroke:#000000;stroke-width:5.76"/>
	<text x="559.23" y="2273.90" style="font-family:'Helvetica';font-size:79.94px;fill:#000000" text-anchor="end">0.000</text>
	<line x1="619.12" y1="2090.70" x2="579.15" y2="2090.70" style="stroke:#000000;stroke-width:5.76"/>
	<text x="559.23" y="2118.71" style="font-family:'Helvetica';font-size:79.94px;fill:#000000" text-anchor="end">0.001</text>
	<line x1="619.12" y1="1935.51" x2="579.15" y2="1935.51" style="stroke:#000000;stroke-width:5.76"/>
	<text x="559.23" y="1963.52" style="font-family:'Helvetica';font-size:79.94px;fill:#000000" text-anchor="end">0.002</text>
	<line x1="619.12" y1="1780.45" x2="579.15" y2="1780.45" style="stroke:#000000;stroke-width:5.76"/>
	<text x="559.23" y="1808.46" style="font-family:'Helvetica';font-size:79.94px;fill:#000000" text-anchor="end">0.003</text>
	<line x1="619.12" y1="1625.26" x2="579.15" y2="1625.26" style="stroke:#000000;stroke-width:5.76"/>
	<text x="559.23" y="1653.27" style="font-family:'Helvetica';font-size:79.94px;fill:#000000" text-anchor="end">0.004</text>
	<line x1="619.12" y1="1470.07" x2="579.15" y2="1470.07" style="stroke:#000000;stroke-width:5.76"/>
	<text x="559.23" y="1498.08" style="font-family:'Helvetica';font-size:79.94px;fill:#000000" text-anchor="end">0.005</text>
	<line x1="619.12" y1="1314.88" x2="579.15" y2="1314.88" style="stroke:#000000;stroke-width:5.76"/>
	<text x="559.23" y="1342.90" style="font-family:'Helvetica';font-size:79.94px;fill:#000000" text-anchor="end">0.006</text>
	<line x1="619.12" y1="1159.70" x2="579.15" y2="1159.70" style="stroke:#000000;stroke-width:5.76"/>
	<text x="559.23" y="1187.71" style="font-family:'Helvetica';font-size:79.94px;fill:#000000" text-anchor="end">0.007</text>
	<line x1="619.12" y1="1004.51" x2="579.15" y2="1004.51" style="stroke:#000000;stroke-width:5.76"/>
	<text x="559.23" y="1032.52" style="font-family:'Helvetica';font-size:79.94px;fill:#000000" text-anchor="end">0.008</text>
	<line x1="619.12" y1="849.45" x2="579.15" y2="849.45" style="stroke:#000000;stroke-width:5.76"/>
	<text x="559.23" y="877.46" style="font-family:'Helvetica';font-size:79.94px;fill:#000000" text-anchor="end">0.009</text>
	<line x1="619.12" y1="694.26" x2="579.15" y2="694.26" style="stroke:#000000;stroke-width:5.76"/>
	<text x="559.23" y="722.27" style="font-family:'Helvetica';font-size:79.94px;fill:#000000" text-anchor="end">0.010</text>
	<line x1="619.12" y1="2309.25" x2="3840.83" y2="2309.25" style="stroke:#000000;stroke-width:5.76"/>
	<line x1="682.48" y1="2309.25" x2="682.48" y2="2349.22" style="stroke:#000000;stroke-width:5.76"/>
	<text x="682.48" y="2425.17" style="font-family:'Helvetica';font-size:79.94px;fill:#000000" text-anchor="middle">0</text>
	<line x1="1069.45" y1="2309.25" x2="1069.45" y2="2349.22" style="stroke:#000000;stroke-width:5.76"/>
	<text x="1069.45" y="2425.17" style="font-family:'Helvetica';font-size:79.94px;fill:#000000" text-anchor="middle">20</text>
	<line x1="1456.29" y1="2309.25" x2="1456.29" y2="2349.22" style="stroke:#000000;stroke-width:5.76"/>
	<text x="1456.29" y="2425.17" style="font-family:'Helvetica';font-size:79.94px;fill:#000000" text-anchor="middle">40</text>
	<line x1="1843.13" y1="2309.25" x2="1843.13" y2="2349.22" style="stroke:#000000;stroke-width:5.76"/>
	<text x="1843.13" y="2425.17" style="font-family:'Helvetica';font-size:79.94px;fill:#000000" text-anchor="middle">60</text>
	<line x1="2229.97" y1="2309.25" x2="2229.97" y2="2349.22" style="stroke:#000000;stroke-width:5.76"/>
	<text x="2229.97" y="2425.17" style="font-family:'Helvetica';font-size:79.94px;fill:#000000" text-anchor="middle">80</text>
	<line x1="2616.82" y1="2309.25" x2="2616.82" y2="2349.22" style="stroke:#000000;stroke-width:5.76"/>
	<text x="2616.82" y="2425.17" style="font-family:'Helvetica';font-size:79.94px;fill:#000000" text-anchor="middle">100</text>
	<line x1="3003.66" y1="2309.25" x2="3003.66" y2="2349.22" style="stroke:#000000;stroke-width:5.76"/>
	<text x="3003.66" y="2425.17" style="font-family:'Helvetica';font-size:79.94px;fill:#000000" text-anchor="middle">120</text>
	<line x1="3390.63" y1="2309.25" x2="3390.63" y2="2349.22" style="stroke:#000000;stroke-width:5.76"/>
	<text x="3390.63" y="2425.17" style="font-family:'Helvetica';font-size:79.94px;fill:#000000" text-anchor="middle">140</text>
	<line x1="3777.47" y1="2309.25" x2="3777.47" y2="2349.22" style="stroke:#000000;stroke-width:5.76"/>
	<text x="3777.47" y="2425.17" style="font-family:'Helvetica';font-size:79.94px;fill:#000000" text-anchor="middle">160</text>
	<text x="2229.97" y="2515.14" style="font-family:'Helvetica';font-size:79.94px;fill:#000000" text-anchor="middle">Days since 1 Mar 2020</text>
	<text x="682.48" y="2747.83" style="font-family:'Helvetica';font-size:60.02px;fill:#000000" text-anchor="middle">30501</text>
	<text x="1069.45" y="2747.83" style="font-family:'Helvetica';font-size:60.02px;fill:#000000" text-anchor="middle">30467</text>
	<text x="1456.29" y="2747.83" style="font-family:'Helvetica';font-size:60.02px;fill:#000000" text-anchor="middle">30370</text>
	<text x="1843.13" y="2747.83" style="font-family:'Helvetica';font-size:60.02px;fill:#000000" text-anchor="middle">30262</text>
	<text x="2229.97" y="2747.83" style="font-family:'Helvetica';font-size:60.02px;fill:#000000" text-anchor="middle">30198</text>
	<text x="2616.82" y="2747.83" style="font-family:'Helvetica';font-size:60.02px;fill:#000000" text-anchor="middle">30149</text>
	<text x="3003.66" y="2747.83" style="font-family:'Helvetica';font-size:60.02px;fill:#000000" text-anchor="middle">30103</text>
	<text x="3390.63" y="2747.83" style="font-family:'Helvetica';font-size:60.02px;fill:#000000" text-anchor="middle">0</text>
	<text x="3777.47" y="2747.83" style="font-family:'Helvetica';font-size:60.02px;fill:#000000" text-anchor="middle">0</text>
	<text x="527.79" y="2747.83" style="font-family:'Helvetica';font-size:60.02px;fill:#000000" text-anchor="end">HCQ</text>
	<text x="682.48" y="2674.44" style="font-family:'Helvetica';font-size:60.02px;fill:#000000" text-anchor="middle">163735</text>
	<text x="1069.45" y="2674.44" style="font-family:'Helvetica';font-size:60.02px;fill:#000000" text-anchor="middle">162504</text>
	<text x="1456.29" y="2674.44" style="font-family:'Helvetica';font-size:60.02px;fill:#000000" text-anchor="middle">161077</text>
	<text x="1843.13" y="2674.44" style="font-family:'Helvetica';font-size:60.02px;fill:#000000" text-anchor="middle">159988</text>
	<text x="2229.97" y="2674.44" style="font-family:'Helvetica';font-size:60.02px;fill:#000000" text-anchor="middle">159194</text>
	<text x="2616.82" y="2674.44" style="font-family:'Helvetica';font-size:60.02px;fill:#000000" text-anchor="middle">158620</text>
	<text x="3003.66" y="2674.44" style="font-family:'Helvetica';font-size:60.02px;fill:#000000" text-anchor="middle">158147</text>
	<text x="3390.63" y="2674.44" style="font-family:'Helvetica';font-size:60.02px;fill:#000000" text-anchor="middle">0</text>
	<text x="3777.47" y="2674.44" style="font-family:'Helvetica';font-size:60.02px;fill:#000000" text-anchor="middle">0</text>
	<text x="527.79" y="2674.44" style="font-family:'Helvetica';font-size:60.02px;fill:#000000" text-anchor="end">No HCQ</text>
	<text x="527.79" y="2601.18" style="font-family:'Helvetica';font-size:60.02px;fill:#000000" text-anchor="end">Number at risk</text>
	<rect x="1167.95" y="269.91" width="2124.05" height="326.46" style="fill:#FFFFFF"/>
	<rect x="1170.83" y="272.79" width="2118.29" height="320.70" style="fill:none;stroke:#EAF2F3;stroke-width:5.76"/>
	<rect x="1211.14" y="313.10" width="374.34" height="99.99" style="fill:#DDE3E9"/>
	<rect x="1215.46" y="317.42" width="365.70" height="91.35" style="fill:none;stroke:#DDE3E9;stroke-width:8.64"/>
	<rect x="2349.02" y="313.10" width="374.34" height="99.99" style="fill:#EEE1E2"/>
	<rect x="2353.34" y="317.42" width="365.70" height="91.35" style="fill:none;stroke:#EEE1E2;stroke-width:8.64"/>
	<line x1="1211.14" y1="503.06" x2="1585.48" y2="503.06" style="stroke:#1A476F;stroke-width:8.64"/>
	<line x1="2349.02" y1="503.06" x2="2723.37" y2="503.06" style="stroke:#90353B;stroke-width:8.64"/>
	<text x="1645.50" y="384.13" style="font-family:'Helvetica';font-size:60.02px;fill:#000000">No HCQ</text>
	<text x="2783.39" y="384.13" style="font-family:'Helvetica';font-size:60.02px;fill:#000000">95% CI</text>
	<text x="1645.50" y="524.10" style="font-family:'Helvetica';font-size:60.02px;fill:#000000">exposure = No HCQ</text>
	<text x="2783.39" y="524.10" style="font-family:'Helvetica';font-size:60.02px;fill:#000000">exposure = HCQ</text>
	<text x="1353.58" y="187.99" style="font-family:'Helvetica';font-size:99.99px;fill:#1E2D53">Time to SGSS positive COVID-19 test</text>
</svg>
