<?xml version="1.0" encoding="UTF-8" standalone="no"?>
<!-- This is a Stata 16.1 generated SVG file (http://www.stata.com) -->

<svg version="1.1" width="5.50in" height="4.00in" viewBox="0 0 3960 2880" xmlns="http://www.w3.org/2000/svg" xmlns:xlink="http://www.w3.org/1999/xlink">
	<desc>Stata Graph - Graph</desc>
	<rect x="0" y="0" width="3960" height="2880" style="fill:#EAF2F3;stroke:none"/>
	<rect x="0.00" y="0.00" width="3959.88" height="2880.00" style="fill:#EAF2F3"/>
	<rect x="2.88" y="2.88" width="3954.12" height="2874.24" style="fill:none;stroke:#EAF2F3;stroke-width:5.76"/>
	<rect x="387.34" y="100.86" width="3471.68" height="2428.42" style="fill:#FFFFFF"/>
	<rect x="390.22" y="103.74" width="3465.92" height="2422.66" style="fill:none;stroke:#FFFFFF;stroke-width:5.76"/>
	<line x1="387.34" y1="2529.28" x2="3859.02" y2="2529.28" style="stroke:#EAF2F3;stroke-width:5.76"/>
	<line x1="387.34" y1="1937.99" x2="3859.02" y2="1937.99" style="stroke:#EAF2F3;stroke-width:5.76"/>
	<line x1="387.34" y1="1346.69" x2="3859.02" y2="1346.69" style="stroke:#EAF2F3;stroke-width:5.76"/>
	<line x1="387.34" y1="755.39" x2="3859.02" y2="755.39" style="stroke:#EAF2F3;stroke-width:5.76"/>
	<line x1="387.34" y1="164.22" x2="3859.02" y2="164.22" style="stroke:#EAF2F3;stroke-width:5.76"/>
	<line x1="477.92" y1="2529.28" x2="477.92" y2="100.86" style="stroke:#EAF2F3;stroke-width:5.76"/>
	<line x1="1321.03" y1="2529.28" x2="1321.03" y2="100.86" style="stroke:#EAF2F3;stroke-width:5.76"/>
	<line x1="2136.79" y1="2529.28" x2="2136.79" y2="100.86" style="stroke:#EAF2F3;stroke-width:5.76"/>
	<line x1="2979.90" y1="2529.28" x2="2979.90" y2="100.86" style="stroke:#EAF2F3;stroke-width:5.76"/>
	<rect x="464.31" y="1642.34" width="27.23" height="886.94" style="fill:#CAC27E"/>
	<rect x="468.63" y="1646.66" width="18.59" height="878.30" style="fill:none;stroke:#D7D29E;stroke-width:8.64"/>
	<rect x="491.54" y="1465.00" width="27.22" height="1064.28" style="fill:#CAC27E"/>
	<rect x="495.85" y="1469.32" width="18.59" height="1055.64" style="fill:none;stroke:#D7D29E;stroke-width:8.64"/>
	<rect x="518.76" y="1465.00" width="27.23" height="1064.28" style="fill:#CAC27E"/>
	<rect x="523.08" y="1469.32" width="18.59" height="1055.64" style="fill:none;stroke:#D7D29E;stroke-width:8.64"/>
	<rect x="545.99" y="1760.65" width="27.10" height="768.64" style="fill:#CAC27E"/>
	<rect x="550.30" y="1764.97" width="18.46" height="760.00" style="fill:none;stroke:#D7D29E;stroke-width:8.64"/>
	<rect x="573.09" y="1642.34" width="27.23" height="886.94" style="fill:#CAC27E"/>
	<rect x="577.41" y="1646.66" width="18.59" height="878.30" style="fill:none;stroke:#D7D29E;stroke-width:8.64"/>
	<rect x="600.31" y="1465.00" width="27.23" height="1064.28" style="fill:#CAC27E"/>
	<rect x="604.63" y="1469.32" width="18.59" height="1055.64" style="fill:none;stroke:#D7D29E;stroke-width:8.64"/>
	<rect x="627.54" y="1228.50" width="27.23" height="1300.78" style="fill:#CAC27E"/>
	<rect x="631.86" y="1232.82" width="18.59" height="1292.14" style="fill:none;stroke:#D7D29E;stroke-width:8.64"/>
	<rect x="654.76" y="1701.49" width="27.10" height="827.79" style="fill:#CAC27E"/>
	<rect x="659.08" y="1705.81" width="18.46" height="819.15" style="fill:none;stroke:#D7D29E;stroke-width:8.64"/>
	<rect x="681.86" y="1465.00" width="27.23" height="1064.28" style="fill:#CAC27E"/>
	<rect x="686.18" y="1469.32" width="18.59" height="1055.64" style="fill:none;stroke:#D7D29E;stroke-width:8.64"/>
	<rect x="709.09" y="1405.84" width="27.23" height="1123.44" style="fill:#CAC27E"/>
	<rect x="713.41" y="1410.16" width="18.59" height="1114.80" style="fill:none;stroke:#D7D29E;stroke-width:8.64"/>
	<rect x="736.31" y="1701.49" width="27.23" height="827.79" style="fill:#CAC27E"/>
	<rect x="740.63" y="1705.81" width="18.59" height="819.15" style="fill:none;stroke:#D7D29E;stroke-width:8.64"/>
	<rect x="763.54" y="1937.99" width="27.10" height="591.30" style="fill:#CAC27E"/>
	<rect x="767.86" y="1942.31" width="18.46" height="582.66" style="fill:none;stroke:#D7D29E;stroke-width:8.64"/>
	<rect x="790.64" y="1701.49" width="27.23" height="827.79" style="fill:#CAC27E"/>
	<rect x="794.96" y="1705.81" width="18.59" height="819.15" style="fill:none;stroke:#D7D29E;stroke-width:8.64"/>
	<rect x="817.86" y="1228.50" width="27.23" height="1300.78" style="fill:#CAC27E"/>
	<rect x="822.18" y="1232.82" width="18.59" height="1292.14" style="fill:none;stroke:#D7D29E;stroke-width:8.64"/>
	<rect x="845.09" y="1287.54" width="27.23" height="1241.75" style="fill:#CAC27E"/>
	<rect x="849.41" y="1291.86" width="18.59" height="1233.11" style="fill:none;stroke:#D7D29E;stroke-width:8.64"/>
	<rect x="872.31" y="1465.00" width="27.10" height="1064.28" style="fill:#CAC27E"/>
	<rect x="876.63" y="1469.32" width="18.46" height="1055.64" style="fill:none;stroke:#D7D29E;stroke-width:8.64"/>
	<rect x="899.41" y="1465.00" width="27.23" height="1064.28" style="fill:#CAC27E"/>
	<rect x="903.73" y="1469.32" width="18.59" height="1055.64" style="fill:none;stroke:#D7D29E;stroke-width:8.64"/>
	<rect x="926.64" y="1583.18" width="27.23" height="946.10" style="fill:#CAC27E"/>
	<rect x="930.96" y="1587.50" width="18.59" height="937.46" style="fill:none;stroke:#D7D29E;stroke-width:8.64"/>
	<rect x="953.87" y="1642.34" width="27.23" height="886.94" style="fill:#CAC27E"/>
	<rect x="958.18" y="1646.66" width="18.59" height="878.30" style="fill:none;stroke:#D7D29E;stroke-width:8.64"/>
	<rect x="981.09" y="1524.03" width="27.10" height="1005.25" style="fill:#CAC27E"/>
	<rect x="985.41" y="1528.35" width="18.46" height="996.61" style="fill:none;stroke:#D7D29E;stroke-width:8.64"/>
	<rect x="1008.19" y="1878.83" width="27.23" height="650.45" style="fill:#CAC27E"/>
	<rect x="1012.51" y="1883.15" width="18.59" height="641.81" style="fill:none;stroke:#D7D29E;stroke-width:8.64"/>
	<rect x="1035.42" y="1701.49" width="27.22" height="827.79" style="fill:#CAC27E"/>
	<rect x="1039.74" y="1705.81" width="18.59" height="819.15" style="fill:none;stroke:#D7D29E;stroke-width:8.64"/>
	<rect x="1062.64" y="1524.03" width="27.23" height="1005.25" style="fill:#CAC27E"/>
	<rect x="1066.96" y="1528.35" width="18.59" height="996.61" style="fill:none;stroke:#D7D29E;stroke-width:8.64"/>
	<rect x="1089.87" y="1287.54" width="27.10" height="1241.75" style="fill:#CAC27E"/>
	<rect x="1094.19" y="1291.86" width="18.46" height="1233.11" style="fill:none;stroke:#D7D29E;stroke-width:8.64"/>
	<rect x="1116.97" y="1346.69" width="27.23" height="1182.59" style="fill:#CAC27E"/>
	<rect x="1121.29" y="1351.01" width="18.59" height="1173.95" style="fill:none;stroke:#D7D29E;stroke-width:8.64"/>
	<rect x="1144.19" y="1405.84" width="27.22" height="1123.44" style="fill:#CAC27E"/>
	<rect x="1148.51" y="1410.16" width="18.59" height="1114.80" style="fill:none;stroke:#D7D29E;stroke-width:8.64"/>
	<rect x="1171.42" y="1169.35" width="27.22" height="1359.93" style="fill:#CAC27E"/>
	<rect x="1175.74" y="1173.67" width="18.59" height="1351.29" style="fill:none;stroke:#D7D29E;stroke-width:8.64"/>
	<rect x="1198.64" y="814.55" width="27.23" height="1714.73" style="fill:#CAC27E"/>
	<rect x="1202.96" y="818.87" width="18.59" height="1706.09" style="fill:none;stroke:#D7D29E;stroke-width:8.64"/>
	<rect x="1225.87" y="932.86" width="27.10" height="1596.42" style="fill:#CAC27E"/>
	<rect x="1230.19" y="937.18" width="18.46" height="1587.79" style="fill:none;stroke:#D7D29E;stroke-width:8.64"/>
	<rect x="1252.97" y="1110.20" width="27.22" height="1419.09" style="fill:#CAC27E"/>
	<rect x="1257.29" y="1114.52" width="18.59" height="1410.45" style="fill:none;stroke:#D7D29E;stroke-width:8.64"/>
	<rect x="1280.19" y="696.36" width="27.23" height="1832.92" style="fill:#CAC27E"/>
	<rect x="1284.51" y="700.68" width="18.59" height="1824.28" style="fill:none;stroke:#D7D29E;stroke-width:8.64"/>
	<rect x="1307.42" y="1346.69" width="27.22" height="1182.59" style="fill:#CAC27E"/>
	<rect x="1311.74" y="1351.01" width="18.59" height="1173.95" style="fill:none;stroke:#D7D29E;stroke-width:8.64"/>
	<rect x="1334.64" y="637.21" width="27.10" height="1892.07" style="fill:#CAC27E"/>
	<rect x="1338.96" y="641.53" width="18.46" height="1883.43" style="fill:none;stroke:#D7D29E;stroke-width:8.64"/>
	<rect x="1361.74" y="1405.84" width="27.23" height="1123.44" style="fill:#CAC27E"/>
	<rect x="1366.06" y="1410.16" width="18.59" height="1114.80" style="fill:none;stroke:#D7D29E;stroke-width:8.64"/>
	<rect x="1388.97" y="578.05" width="27.22" height="1951.23" style="fill:#CAC27E"/>
	<rect x="1393.29" y="582.37" width="18.59" height="1942.59" style="fill:none;stroke:#D7D29E;stroke-width:8.64"/>
	<rect x="1416.19" y="755.39" width="27.23" height="1773.89" style="fill:#CAC27E"/>
	<rect x="1420.51" y="759.71" width="18.59" height="1765.25" style="fill:none;stroke:#D7D29E;stroke-width:8.64"/>
	<rect x="1443.42" y="1169.35" width="27.10" height="1359.93" style="fill:#CAC27E"/>
	<rect x="1447.74" y="1173.67" width="18.46" height="1351.29" style="fill:none;stroke:#D7D29E;stroke-width:8.64"/>
	<rect x="1470.52" y="1228.50" width="27.22" height="1300.78" style="fill:#CAC27E"/>
	<rect x="1474.84" y="1232.82" width="18.59" height="1292.14" style="fill:none;stroke:#D7D29E;stroke-width:8.64"/>
	<rect x="1497.75" y="991.89" width="27.23" height="1537.39" style="fill:#CAC27E"/>
	<rect x="1502.07" y="996.21" width="18.59" height="1528.75" style="fill:none;stroke:#D7D29E;stroke-width:8.64"/>
	<rect x="1524.97" y="223.25" width="27.22" height="2306.03" style="fill:#CAC27E"/>
	<rect x="1529.29" y="227.57" width="18.59" height="2297.39" style="fill:none;stroke:#D7D29E;stroke-width:8.64"/>
	<rect x="1552.20" y="223.25" width="27.10" height="2306.03" style="fill:#CAC27E"/>
	<rect x="1556.52" y="227.57" width="18.46" height="2297.39" style="fill:none;stroke:#D7D29E;stroke-width:8.64"/>
	<rect x="1579.30" y="991.89" width="27.23" height="1537.39" style="fill:#CAC27E"/>
	<rect x="1583.62" y="996.21" width="18.59" height="1528.75" style="fill:none;stroke:#D7D29E;stroke-width:8.64"/>
	<rect x="1606.52" y="637.21" width="27.22" height="1892.07" style="fill:#CAC27E"/>
	<rect x="1610.84" y="641.53" width="18.59" height="1883.43" style="fill:none;stroke:#D7D29E;stroke-width:8.64"/>
	<rect x="1633.75" y="1169.35" width="27.23" height="1359.93" style="fill:#CAC27E"/>
	<rect x="1638.07" y="1173.67" width="18.59" height="1351.29" style="fill:none;stroke:#D7D29E;stroke-width:8.64"/>
	<rect x="1660.97" y="1228.50" width="27.10" height="1300.78" style="fill:#CAC27E"/>
	<rect x="1665.29" y="1232.82" width="18.46" height="1292.14" style="fill:none;stroke:#D7D29E;stroke-width:8.64"/>
	<rect x="1688.07" y="400.72" width="27.22" height="2128.57" style="fill:#CAC27E"/>
	<rect x="1692.39" y="405.03" width="18.59" height="2119.93" style="fill:none;stroke:#D7D29E;stroke-width:8.64"/>
	<rect x="1715.30" y="578.05" width="27.23" height="1951.23" style="fill:#CAC27E"/>
	<rect x="1719.62" y="582.37" width="18.59" height="1942.59" style="fill:none;stroke:#D7D29E;stroke-width:8.64"/>
	<rect x="1742.52" y="814.55" width="27.22" height="1714.73" style="fill:#CAC27E"/>
	<rect x="1746.84" y="818.87" width="18.59" height="1706.09" style="fill:none;stroke:#D7D29E;stroke-width:8.64"/>
	<rect x="1769.75" y="755.39" width="27.10" height="1773.89" style="fill:#CAC27E"/>
	<rect x="1774.07" y="759.71" width="18.46" height="1765.25" style="fill:none;stroke:#D7D29E;stroke-width:8.64"/>
	<rect x="1796.85" y="1051.04" width="27.23" height="1478.24" style="fill:#CAC27E"/>
	<rect x="1801.17" y="1055.36" width="18.59" height="1469.60" style="fill:none;stroke:#D7D29E;stroke-width:8.64"/>
	<rect x="1824.08" y="755.39" width="27.22" height="1773.89" style="fill:#CAC27E"/>
	<rect x="1828.39" y="759.71" width="18.59" height="1765.25" style="fill:none;stroke:#D7D29E;stroke-width:8.64"/>
	<rect x="1851.30" y="1346.69" width="27.23" height="1182.59" style="fill:#CAC27E"/>
	<rect x="1855.62" y="1351.01" width="18.59" height="1173.95" style="fill:none;stroke:#D7D29E;stroke-width:8.64"/>
	<rect x="1878.53" y="400.72" width="27.10" height="2128.57" style="fill:#CAC27E"/>
	<rect x="1882.84" y="405.03" width="18.46" height="2119.93" style="fill:none;stroke:#D7D29E;stroke-width:8.64"/>
	<rect x="1905.63" y="991.89" width="27.22" height="1537.39" style="fill:#CAC27E"/>
	<rect x="1909.95" y="996.21" width="18.59" height="1528.75" style="fill:none;stroke:#D7D29E;stroke-width:8.64"/>
	<rect x="1932.85" y="873.70" width="27.23" height="1655.58" style="fill:#CAC27E"/>
	<rect x="1937.17" y="878.02" width="18.59" height="1646.94" style="fill:none;stroke:#D7D29E;stroke-width:8.64"/>
	<rect x="1960.08" y="814.55" width="27.22" height="1714.73" style="fill:#CAC27E"/>
	<rect x="1964.40" y="818.87" width="18.59" height="1706.09" style="fill:none;stroke:#D7D29E;stroke-width:8.64"/>
	<rect x="1987.30" y="1465.00" width="27.10" height="1064.28" style="fill:#CAC27E"/>
	<rect x="1991.62" y="1469.32" width="18.46" height="1055.64" style="fill:none;stroke:#D7D29E;stroke-width:8.64"/>
	<rect x="2014.40" y="1051.04" width="27.23" height="1478.24" style="fill:#CAC27E"/>
	<rect x="2018.72" y="1055.36" width="18.59" height="1469.60" style="fill:none;stroke:#D7D29E;stroke-width:8.64"/>
	<rect x="2041.63" y="1583.18" width="27.22" height="946.10" style="fill:#CAC27E"/>
	<rect x="2045.95" y="1587.50" width="18.59" height="937.46" style="fill:none;stroke:#D7D29E;stroke-width:8.64"/>
	<rect x="2068.85" y="1287.54" width="27.22" height="1241.75" style="fill:#CAC27E"/>
	<rect x="2073.17" y="1291.86" width="18.59" height="1233.11" style="fill:none;stroke:#D7D29E;stroke-width:8.64"/>
	<rect x="2096.08" y="1405.84" width="27.10" height="1123.44" style="fill:#CAC27E"/>
	<rect x="2100.40" y="1410.16" width="18.46" height="1114.80" style="fill:none;stroke:#D7D29E;stroke-width:8.64"/>
	<rect x="2123.18" y="1287.54" width="27.22" height="1241.75" style="fill:#CAC27E"/>
	<rect x="2127.50" y="1291.86" width="18.59" height="1233.11" style="fill:none;stroke:#D7D29E;stroke-width:8.64"/>
	<rect x="2150.40" y="1524.03" width="27.22" height="1005.25" style="fill:#CAC27E"/>
	<rect x="2154.72" y="1528.35" width="18.59" height="996.61" style="fill:none;stroke:#D7D29E;stroke-width:8.64"/>
	<rect x="2177.63" y="991.89" width="27.23" height="1537.39" style="fill:#CAC27E"/>
	<rect x="2181.95" y="996.21" width="18.59" height="1528.75" style="fill:none;stroke:#D7D29E;stroke-width:8.64"/>
	<rect x="2204.85" y="1051.04" width="27.10" height="1478.24" style="fill:#CAC27E"/>
	<rect x="2209.17" y="1055.36" width="18.46" height="1469.60" style="fill:none;stroke:#D7D29E;stroke-width:8.64"/>
	<rect x="2231.95" y="873.70" width="27.22" height="1655.58" style="fill:#CAC27E"/>
	<rect x="2236.27" y="878.02" width="18.59" height="1646.94" style="fill:none;stroke:#D7D29E;stroke-width:8.64"/>
	<rect x="2259.18" y="1405.84" width="27.23" height="1123.44" style="fill:#CAC27E"/>
	<rect x="2263.50" y="1410.16" width="18.59" height="1114.80" style="fill:none;stroke:#D7D29E;stroke-width:8.64"/>
	<rect x="2286.41" y="1346.69" width="27.22" height="1182.59" style="fill:#CAC27E"/>
	<rect x="2290.72" y="1351.01" width="18.59" height="1173.95" style="fill:none;stroke:#D7D29E;stroke-width:8.64"/>
	<rect x="2313.63" y="1405.84" width="27.22" height="1123.44" style="fill:#CAC27E"/>
	<rect x="2317.95" y="1410.16" width="18.59" height="1114.80" style="fill:none;stroke:#D7D29E;stroke-width:8.64"/>
	<rect x="2340.86" y="1228.50" width="27.10" height="1300.78" style="fill:#CAC27E"/>
	<rect x="2345.17" y="1232.82" width="18.46" height="1292.14" style="fill:none;stroke:#D7D29E;stroke-width:8.64"/>
	<rect x="2367.96" y="1228.50" width="27.22" height="1300.78" style="fill:#CAC27E"/>
	<rect x="2372.28" y="1232.82" width="18.59" height="1292.14" style="fill:none;stroke:#D7D29E;stroke-width:8.64"/>
	<rect x="2395.18" y="1819.68" width="27.22" height="709.60" style="fill:#CAC27E"/>
	<rect x="2399.50" y="1824.00" width="18.59" height="700.96" style="fill:none;stroke:#D7D29E;stroke-width:8.64"/>
	<rect x="2422.41" y="1405.84" width="27.22" height="1123.44" style="fill:#CAC27E"/>
	<rect x="2426.73" y="1410.16" width="18.59" height="1114.80" style="fill:none;stroke:#D7D29E;stroke-width:8.64"/>
	<rect x="2449.63" y="1760.65" width="27.10" height="768.64" style="fill:#CAC27E"/>
	<rect x="2453.95" y="1764.97" width="18.46" height="760.00" style="fill:none;stroke:#D7D29E;stroke-width:8.64"/>
	<rect x="2476.73" y="1465.00" width="27.22" height="1064.28" style="fill:#CAC27E"/>
	<rect x="2481.05" y="1469.32" width="18.59" height="1055.64" style="fill:none;stroke:#D7D29E;stroke-width:8.64"/>
	<rect x="2503.96" y="1346.69" width="27.22" height="1182.59" style="fill:#CAC27E"/>
	<rect x="2508.28" y="1351.01" width="18.59" height="1173.95" style="fill:none;stroke:#D7D29E;stroke-width:8.64"/>
	<rect x="2531.18" y="1465.00" width="27.22" height="1064.28" style="fill:#CAC27E"/>
	<rect x="2535.50" y="1469.32" width="18.59" height="1055.64" style="fill:none;stroke:#D7D29E;stroke-width:8.64"/>
	<rect x="2558.41" y="1524.03" width="27.10" height="1005.25" style="fill:#CAC27E"/>
	<rect x="2562.73" y="1528.35" width="18.46" height="996.61" style="fill:none;stroke:#D7D29E;stroke-width:8.64"/>
	<rect x="2585.51" y="1228.50" width="27.22" height="1300.78" style="fill:#CAC27E"/>
	<rect x="2589.83" y="1232.82" width="18.59" height="1292.14" style="fill:none;stroke:#D7D29E;stroke-width:8.64"/>
	<rect x="2612.73" y="1405.84" width="27.22" height="1123.44" style="fill:#CAC27E"/>
	<rect x="2617.05" y="1410.16" width="18.59" height="1114.80" style="fill:none;stroke:#D7D29E;stroke-width:8.64"/>
	<rect x="2639.96" y="1405.84" width="27.23" height="1123.44" style="fill:#CAC27E"/>
	<rect x="2644.28" y="1410.16" width="18.59" height="1114.80" style="fill:none;stroke:#D7D29E;stroke-width:8.64"/>
	<rect x="2667.18" y="1287.54" width="27.10" height="1241.75" style="fill:#CAC27E"/>
	<rect x="2671.50" y="1291.86" width="18.46" height="1233.11" style="fill:none;stroke:#D7D29E;stroke-width:8.64"/>
	<rect x="2694.28" y="2056.29" width="27.23" height="472.99" style="fill:#CAC27E"/>
	<rect x="2698.60" y="2060.61" width="18.59" height="464.35" style="fill:none;stroke:#D7D29E;stroke-width:8.64"/>
	<rect x="2721.51" y="1819.68" width="27.22" height="709.60" style="fill:#CAC27E"/>
	<rect x="2725.83" y="1824.00" width="18.59" height="700.96" style="fill:none;stroke:#D7D29E;stroke-width:8.64"/>
	<rect x="2748.74" y="1287.54" width="27.22" height="1241.75" style="fill:#CAC27E"/>
	<rect x="2753.05" y="1291.86" width="18.59" height="1233.11" style="fill:none;stroke:#D7D29E;stroke-width:8.64"/>
	<rect x="2775.96" y="1287.54" width="27.10" height="1241.75" style="fill:#CAC27E"/>
	<rect x="2780.28" y="1291.86" width="18.46" height="1233.11" style="fill:none;stroke:#D7D29E;stroke-width:8.64"/>
	<rect x="2803.06" y="1583.18" width="27.22" height="946.10" style="fill:#CAC27E"/>
	<rect x="2807.38" y="1587.50" width="18.59" height="937.46" style="fill:none;stroke:#D7D29E;stroke-width:8.64"/>
	<rect x="2830.29" y="1583.18" width="27.22" height="946.10" style="fill:#CAC27E"/>
	<rect x="2834.61" y="1587.50" width="18.59" height="937.46" style="fill:none;stroke:#D7D29E;stroke-width:8.64"/>
	<rect x="2857.51" y="1642.34" width="27.22" height="886.94" style="fill:#CAC27E"/>
	<rect x="2861.83" y="1646.66" width="18.59" height="878.30" style="fill:none;stroke:#D7D29E;stroke-width:8.64"/>
	<rect x="2884.74" y="1583.18" width="27.10" height="946.10" style="fill:#CAC27E"/>
	<rect x="2889.06" y="1587.50" width="18.46" height="937.46" style="fill:none;stroke:#D7D29E;stroke-width:8.64"/>
	<rect x="2911.84" y="1819.68" width="27.22" height="709.60" style="fill:#CAC27E"/>
	<rect x="2916.16" y="1824.00" width="18.59" height="700.96" style="fill:none;stroke:#D7D29E;stroke-width:8.64"/>
	<rect x="2939.06" y="1937.99" width="27.22" height="591.30" style="fill:#CAC27E"/>
	<rect x="2943.38" y="1942.31" width="18.59" height="582.66" style="fill:none;stroke:#D7D29E;stroke-width:8.64"/>
	<rect x="2966.29" y="1997.14" width="27.22" height="532.14" style="fill:#CAC27E"/>
	<rect x="2970.61" y="2001.46" width="18.59" height="523.50" style="fill:none;stroke:#D7D29E;stroke-width:8.64"/>
	<rect x="2993.51" y="1819.68" width="27.10" height="709.60" style="fill:#CAC27E"/>
	<rect x="2997.83" y="1824.00" width="18.46" height="700.96" style="fill:none;stroke:#D7D29E;stroke-width:8.64"/>
	<rect x="3020.61" y="1287.54" width="27.22" height="1241.75" style="fill:#CAC27E"/>
	<rect x="3024.93" y="1291.86" width="18.59" height="1233.11" style="fill:none;stroke:#D7D29E;stroke-width:8.64"/>
	<rect x="3047.84" y="1701.49" width="27.22" height="827.79" style="fill:#CAC27E"/>
	<rect x="3052.16" y="1705.81" width="18.59" height="819.15" style="fill:none;stroke:#D7D29E;stroke-width:8.64"/>
	<rect x="3075.06" y="1583.18" width="27.23" height="946.10" style="fill:#CAC27E"/>
	<rect x="3079.38" y="1587.50" width="18.59" height="937.46" style="fill:none;stroke:#D7D29E;stroke-width:8.64"/>
	<rect x="3102.29" y="1937.99" width="27.10" height="591.30" style="fill:#CAC27E"/>
	<rect x="3106.61" y="1942.31" width="18.46" height="582.66" style="fill:none;stroke:#D7D29E;stroke-width:8.64"/>
	<rect x="3129.39" y="1228.50" width="27.22" height="1300.78" style="fill:#CAC27E"/>
	<rect x="3133.71" y="1232.82" width="18.59" height="1292.14" style="fill:none;stroke:#D7D29E;stroke-width:8.64"/>
	<rect x="3156.61" y="1997.14" width="27.23" height="532.14" style="fill:#CAC27E"/>
	<rect x="3160.93" y="2001.46" width="18.59" height="523.50" style="fill:none;stroke:#D7D29E;stroke-width:8.64"/>
	<rect x="3183.84" y="1405.84" width="27.22" height="1123.44" style="fill:#CAC27E"/>
	<rect x="3188.16" y="1410.16" width="18.59" height="1114.80" style="fill:none;stroke:#D7D29E;stroke-width:8.64"/>
	<rect x="3211.07" y="2056.29" width="27.10" height="472.99" style="fill:#CAC27E"/>
	<rect x="3215.38" y="2060.61" width="18.46" height="464.35" style="fill:none;stroke:#D7D29E;stroke-width:8.64"/>
	<rect x="3238.17" y="1583.18" width="27.22" height="946.10" style="fill:#CAC27E"/>
	<rect x="3242.49" y="1587.50" width="18.59" height="937.46" style="fill:none;stroke:#D7D29E;stroke-width:8.64"/>
	<rect x="3265.39" y="1878.83" width="27.22" height="650.45" style="fill:#CAC27E"/>
	<rect x="3269.71" y="1883.15" width="18.59" height="641.81" style="fill:none;stroke:#D7D29E;stroke-width:8.64"/>
	<rect x="3292.62" y="1937.99" width="27.22" height="591.30" style="fill:#CAC27E"/>
	<rect x="3296.94" y="1942.31" width="18.59" height="582.66" style="fill:none;stroke:#D7D29E;stroke-width:8.64"/>
	<rect x="3319.84" y="1997.14" width="27.22" height="532.14" style="fill:#CAC27E"/>
	<rect x="3324.16" y="2001.46" width="18.59" height="523.50" style="fill:none;stroke:#D7D29E;stroke-width:8.64"/>
	<rect x="3347.07" y="1642.34" width="27.10" height="886.94" style="fill:#CAC27E"/>
	<rect x="3351.39" y="1646.66" width="18.46" height="878.30" style="fill:none;stroke:#D7D29E;stroke-width:8.64"/>
	<rect x="3374.17" y="1642.34" width="27.22" height="886.94" style="fill:#CAC27E"/>
	<rect x="3378.49" y="1646.66" width="18.59" height="878.30" style="fill:none;stroke:#D7D29E;stroke-width:8.64"/>
	<rect x="3401.39" y="1878.83" width="27.22" height="650.45" style="fill:#CAC27E"/>
	<rect x="3405.71" y="1883.15" width="18.59" height="641.81" style="fill:none;stroke:#D7D29E;stroke-width:8.64"/>
	<rect x="3428.62" y="1819.68" width="27.23" height="709.60" style="fill:#CAC27E"/>
	<rect x="3432.94" y="1824.00" width="18.59" height="700.96" style="fill:none;stroke:#D7D29E;stroke-width:8.64"/>
	<rect x="3455.84" y="1524.03" width="27.10" height="1005.25" style="fill:#CAC27E"/>
	<rect x="3460.16" y="1528.35" width="18.46" height="996.61" style="fill:none;stroke:#D7D29E;stroke-width:8.64"/>
	<rect x="3482.94" y="1997.14" width="27.22" height="532.14" style="fill:#CAC27E"/>
	<rect x="3487.26" y="2001.46" width="18.59" height="523.50" style="fill:none;stroke:#D7D29E;stroke-width:8.64"/>
	<rect x="3510.17" y="2115.32" width="27.23" height="413.96" style="fill:#CAC27E"/>
	<rect x="3514.49" y="2119.64" width="18.59" height="405.32" style="fill:none;stroke:#D7D29E;stroke-width:8.64"/>
	<rect x="3537.39" y="1701.49" width="27.22" height="827.79" style="fill:#CAC27E"/>
	<rect x="3541.71" y="1705.81" width="18.59" height="819.15" style="fill:none;stroke:#D7D29E;stroke-width:8.64"/>
	<rect x="3564.62" y="1760.65" width="27.10" height="768.64" style="fill:#CAC27E"/>
	<rect x="3568.94" y="1764.97" width="18.46" height="760.00" style="fill:none;stroke:#D7D29E;stroke-width:8.64"/>
	<rect x="3591.72" y="2056.29" width="27.23" height="472.99" style="fill:#CAC27E"/>
	<rect x="3596.04" y="2060.61" width="18.59" height="464.35" style="fill:none;stroke:#D7D29E;stroke-width:8.64"/>
	<rect x="3618.95" y="1819.68" width="27.22" height="709.60" style="fill:#CAC27E"/>
	<rect x="3623.26" y="1824.00" width="18.59" height="700.96" style="fill:none;stroke:#D7D29E;stroke-width:8.64"/>
	<rect x="3646.17" y="2470.13" width="27.22" height="59.15" style="fill:#CAC27E"/>
	<rect x="3650.49" y="2474.45" width="18.59" height="50.51" style="fill:none;stroke:#D7D29E;stroke-width:8.64"/>
	<rect x="3673.39" y="2351.82" width="27.10" height="177.46" style="fill:#CAC27E"/>
	<rect x="3677.71" y="2356.14" width="18.46" height="168.82" style="fill:none;stroke:#D7D29E;stroke-width:8.64"/>
	<rect x="3727.72" y="2470.13" width="27.22" height="59.15" style="fill:#CAC27E"/>
	<rect x="3732.04" y="2474.45" width="18.59" height="50.51" style="fill:none;stroke:#D7D29E;stroke-width:8.64"/>
	<line x1="387.34" y1="2529.28" x2="387.34" y2="100.86" style="stroke:#000000;stroke-width:5.76"/>
	<line x1="387.34" y1="2529.28" x2="347.37" y2="2529.28" style="stroke:#000000;stroke-width:5.76"/>
	<text x="327.44" y="2557.29" style="font-family:'Helvetica';font-size:79.94px;fill:#000000" text-anchor="end">0</text>
	<line x1="387.34" y1="1937.99" x2="347.37" y2="1937.99" style="stroke:#000000;stroke-width:5.76"/>
	<text x="327.44" y="1966.00" style="font-family:'Helvetica';font-size:79.94px;fill:#000000" text-anchor="end">10</text>
	<line x1="387.34" y1="1346.69" x2="347.37" y2="1346.69" style="stroke:#000000;stroke-width:5.76"/>
	<text x="327.44" y="1374.70" style="font-family:'Helvetica';font-size:79.94px;fill:#000000" text-anchor="end">20</text>
	<line x1="387.34" y1="755.39" x2="347.37" y2="755.39" style="stroke:#000000;stroke-width:5.76"/>
	<text x="327.44" y="783.41" style="font-family:'Helvetica';font-size:79.94px;fill:#000000" text-anchor="end">30</text>
	<line x1="387.34" y1="164.22" x2="347.37" y2="164.22" style="stroke:#000000;stroke-width:5.76"/>
	<text x="327.44" y="192.23" style="font-family:'Helvetica';font-size:79.94px;fill:#000000" text-anchor="end">40</text>
	<text x="176.68" y="1315.01" style="font-family:'Helvetica';font-size:79.94px;fill:#000000" transform="rotate(-90 176.68,1315.01)" text-anchor="middle">Number of ONS deaths</text>
	<line x1="387.34" y1="2529.28" x2="3859.02" y2="2529.28" style="stroke:#000000;stroke-width:5.76"/>
	<line x1="477.92" y1="2529.28" x2="477.92" y2="2569.25" style="stroke:#000000;stroke-width:5.76"/>
	<text x="477.92" y="2645.20" style="font-family:'Helvetica';font-size:79.94px;fill:#000000" text-anchor="middle">01mar2020</text>
	<line x1="1321.03" y1="2529.28" x2="1321.03" y2="2569.25" style="stroke:#000000;stroke-width:5.76"/>
	<text x="1321.03" y="2645.20" style="font-family:'Helvetica';font-size:79.94px;fill:#000000" text-anchor="middle">01apr2020</text>
	<line x1="2136.79" y1="2529.28" x2="2136.79" y2="2569.25" style="stroke:#000000;stroke-width:5.76"/>
	<text x="2136.79" y="2645.20" style="font-family:'Helvetica';font-size:79.94px;fill:#000000" text-anchor="middle">01may2020</text>
	<line x1="2979.90" y1="2529.28" x2="2979.90" y2="2569.25" style="stroke:#000000;stroke-width:5.76"/>
	<text x="2979.90" y="2645.20" style="font-family:'Helvetica';font-size:79.94px;fill:#000000" text-anchor="middle">01jun2020</text>
	<line x1="3795.66" y1="2529.28" x2="3795.66" y2="2569.25" style="stroke:#000000;stroke-width:5.76"/>
	<text x="3795.66" y="2645.20" style="font-family:'Helvetica';font-size:79.94px;fill:#000000" text-anchor="middle">01jul2020</text>
	<text x="2123.18" y="2735.17" style="font-family:'Helvetica';font-size:79.94px;fill:#000000" text-anchor="middle">Date</text>
</svg>
