<?xml version="1.0" encoding="UTF-8" standalone="no"?>
<!-- This is a Stata 16.1 generated SVG file (http://www.stata.com) -->

<svg version="1.1" width="5.50in" height="4.00in" viewBox="0 0 3960 2880" xmlns="http://www.w3.org/2000/svg" xmlns:xlink="http://www.w3.org/1999/xlink">
	<desc>Stata Graph - Graph</desc>
	<rect x="0" y="0" width="3960" height="2880" style="fill:#EAF2F3;stroke:none"/>
	<rect x="0.00" y="0.00" width="3959.88" height="2880.00" style="fill:#EAF2F3"/>
	<rect x="2.88" y="2.88" width="3954.12" height="2874.24" style="fill:none;stroke:#EAF2F3;stroke-width:5.76"/>
	<rect x="387.34" y="100.86" width="3471.68" height="2428.42" style="fill:#FFFFFF"/>
	<rect x="390.22" y="103.74" width="3465.92" height="2422.66" style="fill:none;stroke:#FFFFFF;stroke-width:5.76"/>
	<line x1="387.34" y1="2529.28" x2="3859.02" y2="2529.28" style="stroke:#EAF2F3;stroke-width:5.76"/>
	<line x1="387.34" y1="1937.99" x2="3859.02" y2="1937.99" style="stroke:#EAF2F3;stroke-width:5.76"/>
	<line x1="387.34" y1="1346.69" x2="3859.02" y2="1346.69" style="stroke:#EAF2F3;stroke-width:5.76"/>
	<line x1="387.34" y1="755.39" x2="3859.02" y2="755.39" style="stroke:#EAF2F3;stroke-width:5.76"/>
	<line x1="387.34" y1="164.22" x2="3859.02" y2="164.22" style="stroke:#EAF2F3;stroke-width:5.76"/>
	<line x1="1251.48" y1="2529.28" x2="1251.48" y2="100.86" style="stroke:#EAF2F3;stroke-width:5.76"/>
	<line x1="2026.41" y1="2529.28" x2="2026.41" y2="100.86" style="stroke:#EAF2F3;stroke-width:5.76"/>
	<line x1="2827.07" y1="2529.28" x2="2827.07" y2="100.86" style="stroke:#EAF2F3;stroke-width:5.76"/>
	<line x1="3601.99" y1="2529.28" x2="3601.99" y2="100.86" style="stroke:#EAF2F3;stroke-width:5.76"/>
	<rect x="489.56" y="2470.13" width="25.74" height="59.15" style="fill:#CAC27E"/>
	<rect x="493.87" y="2474.45" width="17.10" height="50.51" style="fill:none;stroke:#D7D29E;stroke-width:8.64"/>
	<rect x="567.02" y="2470.13" width="25.74" height="59.15" style="fill:#CAC27E"/>
	<rect x="571.34" y="2474.45" width="17.10" height="50.51" style="fill:none;stroke:#D7D29E;stroke-width:8.64"/>
	<rect x="696.09" y="2470.13" width="25.86" height="59.15" style="fill:#CAC27E"/>
	<rect x="700.41" y="2474.45" width="17.22" height="50.51" style="fill:none;stroke:#D7D29E;stroke-width:8.64"/>
	<rect x="721.96" y="2410.97" width="25.86" height="118.31" style="fill:#CAC27E"/>
	<rect x="726.28" y="2415.29" width="17.22" height="109.67" style="fill:none;stroke:#D7D29E;stroke-width:8.64"/>
	<rect x="747.82" y="2292.79" width="25.86" height="236.49" style="fill:#CAC27E"/>
	<rect x="752.14" y="2297.11" width="17.22" height="227.85" style="fill:none;stroke:#D7D29E;stroke-width:8.64"/>
	<rect x="773.68" y="2410.97" width="25.74" height="118.31" style="fill:#CAC27E"/>
	<rect x="778.00" y="2415.29" width="17.10" height="109.67" style="fill:none;stroke:#D7D29E;stroke-width:8.64"/>
	<rect x="799.42" y="2410.97" width="25.86" height="118.31" style="fill:#CAC27E"/>
	<rect x="803.74" y="2415.29" width="17.22" height="109.67" style="fill:none;stroke:#D7D29E;stroke-width:8.64"/>
	<rect x="825.29" y="2233.63" width="25.86" height="295.65" style="fill:#CAC27E"/>
	<rect x="829.61" y="2237.95" width="17.22" height="287.01" style="fill:none;stroke:#D7D29E;stroke-width:8.64"/>
	<rect x="851.15" y="2470.13" width="25.74" height="59.15" style="fill:#CAC27E"/>
	<rect x="855.47" y="2474.45" width="17.10" height="50.51" style="fill:none;stroke:#D7D29E;stroke-width:8.64"/>
	<rect x="876.89" y="2174.48" width="25.86" height="354.80" style="fill:#CAC27E"/>
	<rect x="881.21" y="2178.80" width="17.22" height="346.16" style="fill:none;stroke:#D7D29E;stroke-width:8.64"/>
	<rect x="902.76" y="2174.48" width="25.86" height="354.80" style="fill:#CAC27E"/>
	<rect x="907.08" y="2178.80" width="17.22" height="346.16" style="fill:none;stroke:#D7D29E;stroke-width:8.64"/>
	<rect x="928.62" y="2115.32" width="25.86" height="413.96" style="fill:#CAC27E"/>
	<rect x="932.94" y="2119.64" width="17.22" height="405.32" style="fill:none;stroke:#D7D29E;stroke-width:8.64"/>
	<rect x="954.48" y="1997.14" width="25.74" height="532.14" style="fill:#CAC27E"/>
	<rect x="958.80" y="2001.46" width="17.10" height="523.50" style="fill:none;stroke:#D7D29E;stroke-width:8.64"/>
	<rect x="980.22" y="2056.29" width="25.86" height="472.99" style="fill:#CAC27E"/>
	<rect x="984.54" y="2060.61" width="17.22" height="464.35" style="fill:none;stroke:#D7D29E;stroke-width:8.64"/>
	<rect x="1006.09" y="1524.03" width="25.86" height="1005.25" style="fill:#CAC27E"/>
	<rect x="1010.41" y="1528.35" width="17.22" height="996.61" style="fill:none;stroke:#D7D29E;stroke-width:8.64"/>
	<rect x="1031.95" y="1583.18" width="25.86" height="946.10" style="fill:#CAC27E"/>
	<rect x="1036.27" y="1587.50" width="17.22" height="937.46" style="fill:none;stroke:#D7D29E;stroke-width:8.64"/>
	<rect x="1057.82" y="1465.00" width="25.74" height="1064.28" style="fill:#CAC27E"/>
	<rect x="1062.13" y="1469.32" width="17.10" height="1055.64" style="fill:none;stroke:#D7D29E;stroke-width:8.64"/>
	<rect x="1083.56" y="873.70" width="25.86" height="1655.58" style="fill:#CAC27E"/>
	<rect x="1087.87" y="878.02" width="17.22" height="1646.94" style="fill:none;stroke:#D7D29E;stroke-width:8.64"/>
	<rect x="1109.42" y="1465.00" width="25.86" height="1064.28" style="fill:#CAC27E"/>
	<rect x="1113.74" y="1469.32" width="17.22" height="1055.64" style="fill:none;stroke:#D7D29E;stroke-width:8.64"/>
	<rect x="1135.28" y="1346.69" width="25.74" height="1182.59" style="fill:#CAC27E"/>
	<rect x="1139.60" y="1351.01" width="17.10" height="1173.95" style="fill:none;stroke:#D7D29E;stroke-width:8.64"/>
	<rect x="1161.02" y="1110.20" width="25.86" height="1419.09" style="fill:#CAC27E"/>
	<rect x="1165.34" y="1114.52" width="17.22" height="1410.45" style="fill:none;stroke:#D7D29E;stroke-width:8.64"/>
	<rect x="1186.89" y="991.89" width="25.86" height="1537.39" style="fill:#CAC27E"/>
	<rect x="1191.21" y="996.21" width="17.22" height="1528.75" style="fill:none;stroke:#D7D29E;stroke-width:8.64"/>
	<rect x="1212.75" y="873.70" width="25.86" height="1655.58" style="fill:#CAC27E"/>
	<rect x="1217.07" y="878.02" width="17.22" height="1646.94" style="fill:none;stroke:#D7D29E;stroke-width:8.64"/>
	<rect x="1238.61" y="459.75" width="25.74" height="2069.54" style="fill:#CAC27E"/>
	<rect x="1242.93" y="464.07" width="17.10" height="2060.90" style="fill:none;stroke:#D7D29E;stroke-width:8.64"/>
	<rect x="1264.35" y="873.70" width="25.86" height="1655.58" style="fill:#CAC27E"/>
	<rect x="1268.67" y="878.02" width="17.22" height="1646.94" style="fill:none;stroke:#D7D29E;stroke-width:8.64"/>
	<rect x="1290.22" y="755.39" width="25.86" height="1773.89" style="fill:#CAC27E"/>
	<rect x="1294.54" y="759.71" width="17.22" height="1765.25" style="fill:none;stroke:#D7D29E;stroke-width:8.64"/>
	<rect x="1316.08" y="1287.54" width="25.74" height="1241.75" style="fill:#CAC27E"/>
	<rect x="1320.40" y="1291.86" width="17.10" height="1233.11" style="fill:none;stroke:#D7D29E;stroke-width:8.64"/>
	<rect x="1341.82" y="1524.03" width="25.86" height="1005.25" style="fill:#CAC27E"/>
	<rect x="1346.14" y="1528.35" width="17.22" height="996.61" style="fill:none;stroke:#D7D29E;stroke-width:8.64"/>
	<rect x="1367.68" y="223.25" width="25.86" height="2306.03" style="fill:#CAC27E"/>
	<rect x="1372.00" y="227.57" width="17.22" height="2297.39" style="fill:none;stroke:#D7D29E;stroke-width:8.64"/>
	<rect x="1393.55" y="1465.00" width="25.86" height="1064.28" style="fill:#CAC27E"/>
	<rect x="1397.87" y="1469.32" width="17.22" height="1055.64" style="fill:none;stroke:#D7D29E;stroke-width:8.64"/>
	<rect x="1419.41" y="1228.50" width="25.74" height="1300.78" style="fill:#CAC27E"/>
	<rect x="1423.73" y="1232.82" width="17.10" height="1292.14" style="fill:none;stroke:#D7D29E;stroke-width:8.64"/>
	<rect x="1445.15" y="873.70" width="25.86" height="1655.58" style="fill:#CAC27E"/>
	<rect x="1449.47" y="878.02" width="17.22" height="1646.94" style="fill:none;stroke:#D7D29E;stroke-width:8.64"/>
	<rect x="1471.02" y="932.86" width="25.86" height="1596.42" style="fill:#CAC27E"/>
	<rect x="1475.34" y="937.18" width="17.22" height="1587.79" style="fill:none;stroke:#D7D29E;stroke-width:8.64"/>
	<rect x="1496.88" y="1760.65" width="25.86" height="768.64" style="fill:#CAC27E"/>
	<rect x="1501.20" y="1764.97" width="17.22" height="760.00" style="fill:none;stroke:#D7D29E;stroke-width:8.64"/>
	<rect x="1522.74" y="1760.65" width="25.74" height="768.64" style="fill:#CAC27E"/>
	<rect x="1527.06" y="1764.97" width="17.10" height="760.00" style="fill:none;stroke:#D7D29E;stroke-width:8.64"/>
	<rect x="1548.48" y="1583.18" width="25.86" height="946.10" style="fill:#CAC27E"/>
	<rect x="1552.80" y="1587.50" width="17.22" height="937.46" style="fill:none;stroke:#D7D29E;stroke-width:8.64"/>
	<rect x="1574.35" y="1287.54" width="25.86" height="1241.75" style="fill:#CAC27E"/>
	<rect x="1578.67" y="1291.86" width="17.22" height="1233.11" style="fill:none;stroke:#D7D29E;stroke-width:8.64"/>
	<rect x="1600.21" y="991.89" width="25.74" height="1537.39" style="fill:#CAC27E"/>
	<rect x="1604.53" y="996.21" width="17.10" height="1528.75" style="fill:none;stroke:#D7D29E;stroke-width:8.64"/>
	<rect x="1625.95" y="991.89" width="25.86" height="1537.39" style="fill:#CAC27E"/>
	<rect x="1630.27" y="996.21" width="17.22" height="1528.75" style="fill:none;stroke:#D7D29E;stroke-width:8.64"/>
	<rect x="1651.82" y="1287.54" width="25.86" height="1241.75" style="fill:#CAC27E"/>
	<rect x="1656.13" y="1291.86" width="17.22" height="1233.11" style="fill:none;stroke:#D7D29E;stroke-width:8.64"/>
	<rect x="1677.68" y="873.70" width="25.86" height="1655.58" style="fill:#CAC27E"/>
	<rect x="1682.00" y="878.02" width="17.22" height="1646.94" style="fill:none;stroke:#D7D29E;stroke-width:8.64"/>
	<rect x="1703.54" y="1583.18" width="25.74" height="946.10" style="fill:#CAC27E"/>
	<rect x="1707.86" y="1587.50" width="17.10" height="937.46" style="fill:none;stroke:#D7D29E;stroke-width:8.64"/>
	<rect x="1729.28" y="1524.03" width="25.86" height="1005.25" style="fill:#CAC27E"/>
	<rect x="1733.60" y="1528.35" width="17.22" height="996.61" style="fill:none;stroke:#D7D29E;stroke-width:8.64"/>
	<rect x="1755.15" y="1051.04" width="25.86" height="1478.24" style="fill:#CAC27E"/>
	<rect x="1759.47" y="1055.36" width="17.22" height="1469.60" style="fill:none;stroke:#D7D29E;stroke-width:8.64"/>
	<rect x="1781.01" y="1287.54" width="25.86" height="1241.75" style="fill:#CAC27E"/>
	<rect x="1785.33" y="1291.86" width="17.22" height="1233.11" style="fill:none;stroke:#D7D29E;stroke-width:8.64"/>
	<rect x="1806.87" y="1110.20" width="25.74" height="1419.09" style="fill:#CAC27E"/>
	<rect x="1811.19" y="1114.52" width="17.10" height="1410.45" style="fill:none;stroke:#D7D29E;stroke-width:8.64"/>
	<rect x="1832.61" y="1110.20" width="25.86" height="1419.09" style="fill:#CAC27E"/>
	<rect x="1836.93" y="1114.52" width="17.22" height="1410.45" style="fill:none;stroke:#D7D29E;stroke-width:8.64"/>
	<rect x="1858.48" y="1701.49" width="25.86" height="827.79" style="fill:#CAC27E"/>
	<rect x="1862.80" y="1705.81" width="17.22" height="819.15" style="fill:none;stroke:#D7D29E;stroke-width:8.64"/>
	<rect x="1884.34" y="1701.49" width="25.74" height="827.79" style="fill:#CAC27E"/>
	<rect x="1888.66" y="1705.81" width="17.10" height="819.15" style="fill:none;stroke:#D7D29E;stroke-width:8.64"/>
	<rect x="1910.08" y="1642.34" width="25.86" height="886.94" style="fill:#CAC27E"/>
	<rect x="1914.40" y="1646.66" width="17.22" height="878.30" style="fill:none;stroke:#D7D29E;stroke-width:8.64"/>
	<rect x="1935.94" y="1346.69" width="25.86" height="1182.59" style="fill:#CAC27E"/>
	<rect x="1940.26" y="1351.01" width="17.22" height="1173.95" style="fill:none;stroke:#D7D29E;stroke-width:8.64"/>
	<rect x="1961.81" y="1346.69" width="25.86" height="1182.59" style="fill:#CAC27E"/>
	<rect x="1966.13" y="1351.01" width="17.22" height="1173.95" style="fill:none;stroke:#D7D29E;stroke-width:8.64"/>
	<rect x="1987.67" y="1701.49" width="25.74" height="827.79" style="fill:#CAC27E"/>
	<rect x="1991.99" y="1705.81" width="17.10" height="819.15" style="fill:none;stroke:#D7D29E;stroke-width:8.64"/>
	<rect x="2013.41" y="932.86" width="25.86" height="1596.42" style="fill:#CAC27E"/>
	<rect x="2017.73" y="937.18" width="17.22" height="1587.79" style="fill:none;stroke:#D7D29E;stroke-width:8.64"/>
	<rect x="2039.28" y="1701.49" width="25.86" height="827.79" style="fill:#CAC27E"/>
	<rect x="2043.60" y="1705.81" width="17.22" height="819.15" style="fill:none;stroke:#D7D29E;stroke-width:8.64"/>
	<rect x="2065.14" y="1937.99" width="25.86" height="591.30" style="fill:#CAC27E"/>
	<rect x="2069.46" y="1942.31" width="17.22" height="582.66" style="fill:none;stroke:#D7D29E;stroke-width:8.64"/>
	<rect x="2091.00" y="1819.68" width="25.74" height="709.60" style="fill:#CAC27E"/>
	<rect x="2095.32" y="1824.00" width="17.10" height="700.96" style="fill:none;stroke:#D7D29E;stroke-width:8.64"/>
	<rect x="2116.74" y="1583.18" width="25.86" height="946.10" style="fill:#CAC27E"/>
	<rect x="2121.06" y="1587.50" width="17.22" height="937.46" style="fill:none;stroke:#D7D29E;stroke-width:8.64"/>
	<rect x="2142.61" y="1701.49" width="25.86" height="827.79" style="fill:#CAC27E"/>
	<rect x="2146.93" y="1705.81" width="17.22" height="819.15" style="fill:none;stroke:#D7D29E;stroke-width:8.64"/>
	<rect x="2168.47" y="1701.49" width="25.74" height="827.79" style="fill:#CAC27E"/>
	<rect x="2172.79" y="1705.81" width="17.10" height="819.15" style="fill:none;stroke:#D7D29E;stroke-width:8.64"/>
	<rect x="2194.21" y="1997.14" width="25.86" height="532.14" style="fill:#CAC27E"/>
	<rect x="2198.53" y="2001.46" width="17.22" height="523.50" style="fill:none;stroke:#D7D29E;stroke-width:8.64"/>
	<rect x="2220.07" y="1878.83" width="25.86" height="650.45" style="fill:#CAC27E"/>
	<rect x="2224.39" y="1883.15" width="17.22" height="641.81" style="fill:none;stroke:#D7D29E;stroke-width:8.64"/>
	<rect x="2245.94" y="2233.63" width="25.86" height="295.65" style="fill:#CAC27E"/>
	<rect x="2250.26" y="2237.95" width="17.22" height="287.01" style="fill:none;stroke:#D7D29E;stroke-width:8.64"/>
	<rect x="2271.80" y="1701.49" width="25.74" height="827.79" style="fill:#CAC27E"/>
	<rect x="2276.12" y="1705.81" width="17.10" height="819.15" style="fill:none;stroke:#D7D29E;stroke-width:8.64"/>
	<rect x="2297.54" y="1997.14" width="25.86" height="532.14" style="fill:#CAC27E"/>
	<rect x="2301.86" y="2001.46" width="17.22" height="523.50" style="fill:none;stroke:#D7D29E;stroke-width:8.64"/>
	<rect x="2323.41" y="1701.49" width="25.86" height="827.79" style="fill:#CAC27E"/>
	<rect x="2327.73" y="1705.81" width="17.22" height="819.15" style="fill:none;stroke:#D7D29E;stroke-width:8.64"/>
	<rect x="2349.27" y="1819.68" width="25.86" height="709.60" style="fill:#CAC27E"/>
	<rect x="2353.59" y="1824.00" width="17.22" height="700.96" style="fill:none;stroke:#D7D29E;stroke-width:8.64"/>
	<rect x="2375.13" y="1878.83" width="25.74" height="650.45" style="fill:#CAC27E"/>
	<rect x="2379.45" y="1883.15" width="17.10" height="641.81" style="fill:none;stroke:#D7D29E;stroke-width:8.64"/>
	<rect x="2400.87" y="2292.79" width="25.86" height="236.49" style="fill:#CAC27E"/>
	<rect x="2405.19" y="2297.11" width="17.22" height="227.85" style="fill:none;stroke:#D7D29E;stroke-width:8.64"/>
	<rect x="2426.74" y="2174.48" width="25.86" height="354.80" style="fill:#CAC27E"/>
	<rect x="2431.06" y="2178.80" width="17.22" height="346.16" style="fill:none;stroke:#D7D29E;stroke-width:8.64"/>
	<rect x="2452.60" y="1819.68" width="25.74" height="709.60" style="fill:#CAC27E"/>
	<rect x="2456.92" y="1824.00" width="17.10" height="700.96" style="fill:none;stroke:#D7D29E;stroke-width:8.64"/>
	<rect x="2478.34" y="1465.00" width="25.86" height="1064.28" style="fill:#CAC27E"/>
	<rect x="2482.66" y="1469.32" width="17.22" height="1055.64" style="fill:none;stroke:#D7D29E;stroke-width:8.64"/>
	<rect x="2504.20" y="1937.99" width="25.86" height="591.30" style="fill:#CAC27E"/>
	<rect x="2508.52" y="1942.31" width="17.22" height="582.66" style="fill:none;stroke:#D7D29E;stroke-width:8.64"/>
	<rect x="2530.07" y="1937.99" width="25.86" height="591.30" style="fill:#CAC27E"/>
	<rect x="2534.39" y="1942.31" width="17.22" height="582.66" style="fill:none;stroke:#D7D29E;stroke-width:8.64"/>
	<rect x="2555.93" y="2056.29" width="25.74" height="472.99" style="fill:#CAC27E"/>
	<rect x="2560.25" y="2060.61" width="17.10" height="464.35" style="fill:none;stroke:#D7D29E;stroke-width:8.64"/>
	<rect x="2581.67" y="2351.82" width="25.86" height="177.46" style="fill:#CAC27E"/>
	<rect x="2585.99" y="2356.14" width="17.22" height="168.82" style="fill:none;stroke:#D7D29E;stroke-width:8.64"/>
	<rect x="2607.54" y="2410.97" width="25.86" height="118.31" style="fill:#CAC27E"/>
	<rect x="2611.86" y="2415.29" width="17.22" height="109.67" style="fill:none;stroke:#D7D29E;stroke-width:8.64"/>
	<rect x="2633.40" y="2351.82" width="25.86" height="177.46" style="fill:#CAC27E"/>
	<rect x="2637.72" y="2356.14" width="17.22" height="168.82" style="fill:none;stroke:#D7D29E;stroke-width:8.64"/>
	<rect x="2659.26" y="1937.99" width="25.74" height="591.30" style="fill:#CAC27E"/>
	<rect x="2663.58" y="1942.31" width="17.10" height="582.66" style="fill:none;stroke:#D7D29E;stroke-width:8.64"/>
	<rect x="2685.00" y="2233.63" width="25.86" height="295.65" style="fill:#CAC27E"/>
	<rect x="2689.32" y="2237.95" width="17.22" height="287.01" style="fill:none;stroke:#D7D29E;stroke-width:8.64"/>
	<rect x="2710.87" y="2233.63" width="25.86" height="295.65" style="fill:#CAC27E"/>
	<rect x="2715.19" y="2237.95" width="17.22" height="287.01" style="fill:none;stroke:#D7D29E;stroke-width:8.64"/>
	<rect x="2736.73" y="2292.79" width="25.74" height="236.49" style="fill:#CAC27E"/>
	<rect x="2741.05" y="2297.11" width="17.10" height="227.85" style="fill:none;stroke:#D7D29E;stroke-width:8.64"/>
	<rect x="2762.47" y="2233.63" width="25.86" height="295.65" style="fill:#CAC27E"/>
	<rect x="2766.79" y="2237.95" width="17.22" height="287.01" style="fill:none;stroke:#D7D29E;stroke-width:8.64"/>
	<rect x="2788.34" y="2056.29" width="25.86" height="472.99" style="fill:#CAC27E"/>
	<rect x="2792.65" y="2060.61" width="17.22" height="464.35" style="fill:none;stroke:#D7D29E;stroke-width:8.64"/>
	<rect x="2814.20" y="2174.48" width="25.86" height="354.80" style="fill:#CAC27E"/>
	<rect x="2818.52" y="2178.80" width="17.22" height="346.16" style="fill:none;stroke:#D7D29E;stroke-width:8.64"/>
	<rect x="2840.06" y="2233.63" width="25.74" height="295.65" style="fill:#CAC27E"/>
	<rect x="2844.38" y="2237.95" width="17.10" height="287.01" style="fill:none;stroke:#D7D29E;stroke-width:8.64"/>
	<rect x="2865.80" y="2056.29" width="25.86" height="472.99" style="fill:#CAC27E"/>
	<rect x="2870.12" y="2060.61" width="17.22" height="464.35" style="fill:none;stroke:#D7D29E;stroke-width:8.64"/>
	<rect x="2891.67" y="2174.48" width="25.86" height="354.80" style="fill:#CAC27E"/>
	<rect x="2895.99" y="2178.80" width="17.22" height="346.16" style="fill:none;stroke:#D7D29E;stroke-width:8.64"/>
	<rect x="2917.53" y="2351.82" width="25.86" height="177.46" style="fill:#CAC27E"/>
	<rect x="2921.85" y="2356.14" width="17.22" height="168.82" style="fill:none;stroke:#D7D29E;stroke-width:8.64"/>
	<rect x="2943.39" y="2292.79" width="25.74" height="236.49" style="fill:#CAC27E"/>
	<rect x="2947.71" y="2297.11" width="17.10" height="227.85" style="fill:none;stroke:#D7D29E;stroke-width:8.64"/>
	<rect x="2969.13" y="2292.79" width="25.86" height="236.49" style="fill:#CAC27E"/>
	<rect x="2973.45" y="2297.11" width="17.22" height="227.85" style="fill:none;stroke:#D7D29E;stroke-width:8.64"/>
	<rect x="2995.00" y="2233.63" width="25.86" height="295.65" style="fill:#CAC27E"/>
	<rect x="2999.32" y="2237.95" width="17.22" height="287.01" style="fill:none;stroke:#D7D29E;stroke-width:8.64"/>
	<rect x="3046.60" y="2233.63" width="25.86" height="295.65" style="fill:#CAC27E"/>
	<rect x="3050.92" y="2237.95" width="17.22" height="287.01" style="fill:none;stroke:#D7D29E;stroke-width:8.64"/>
	<rect x="3072.47" y="2174.48" width="25.86" height="354.80" style="fill:#CAC27E"/>
	<rect x="3076.78" y="2178.80" width="17.22" height="346.16" style="fill:none;stroke:#D7D29E;stroke-width:8.64"/>
	<rect x="3098.33" y="2174.48" width="25.86" height="354.80" style="fill:#CAC27E"/>
	<rect x="3102.65" y="2178.80" width="17.22" height="346.16" style="fill:none;stroke:#D7D29E;stroke-width:8.64"/>
	<rect x="3124.19" y="2174.48" width="25.74" height="354.80" style="fill:#CAC27E"/>
	<rect x="3128.51" y="2178.80" width="17.10" height="346.16" style="fill:none;stroke:#D7D29E;stroke-width:8.64"/>
	<rect x="3149.93" y="2351.82" width="25.86" height="177.46" style="fill:#CAC27E"/>
	<rect x="3154.25" y="2356.14" width="17.22" height="168.82" style="fill:none;stroke:#D7D29E;stroke-width:8.64"/>
	<rect x="3175.80" y="2351.82" width="25.86" height="177.46" style="fill:#CAC27E"/>
	<rect x="3180.12" y="2356.14" width="17.22" height="168.82" style="fill:none;stroke:#D7D29E;stroke-width:8.64"/>
	<rect x="3201.66" y="1878.83" width="25.86" height="650.45" style="fill:#CAC27E"/>
	<rect x="3205.98" y="1883.15" width="17.22" height="641.81" style="fill:none;stroke:#D7D29E;stroke-width:8.64"/>
	<rect x="3227.52" y="2351.82" width="25.74" height="177.46" style="fill:#CAC27E"/>
	<rect x="3231.84" y="2356.14" width="17.10" height="168.82" style="fill:none;stroke:#D7D29E;stroke-width:8.64"/>
	<rect x="3253.26" y="2470.13" width="25.86" height="59.15" style="fill:#CAC27E"/>
	<rect x="3257.58" y="2474.45" width="17.22" height="50.51" style="fill:none;stroke:#D7D29E;stroke-width:8.64"/>
	<rect x="3279.13" y="2115.32" width="25.86" height="413.96" style="fill:#CAC27E"/>
	<rect x="3283.45" y="2119.64" width="17.22" height="405.32" style="fill:none;stroke:#D7D29E;stroke-width:8.64"/>
	<rect x="3304.99" y="2292.79" width="25.74" height="236.49" style="fill:#CAC27E"/>
	<rect x="3309.31" y="2297.11" width="17.10" height="227.85" style="fill:none;stroke:#D7D29E;stroke-width:8.64"/>
	<rect x="3330.73" y="2410.97" width="25.86" height="118.31" style="fill:#CAC27E"/>
	<rect x="3335.05" y="2415.29" width="17.22" height="109.67" style="fill:none;stroke:#D7D29E;stroke-width:8.64"/>
	<rect x="3356.59" y="2351.82" width="25.86" height="177.46" style="fill:#CAC27E"/>
	<rect x="3360.91" y="2356.14" width="17.22" height="168.82" style="fill:none;stroke:#D7D29E;stroke-width:8.64"/>
	<rect x="3382.46" y="2174.48" width="25.86" height="354.80" style="fill:#CAC27E"/>
	<rect x="3386.78" y="2178.80" width="17.22" height="346.16" style="fill:none;stroke:#D7D29E;stroke-width:8.64"/>
	<rect x="3408.32" y="2410.97" width="25.74" height="118.31" style="fill:#CAC27E"/>
	<rect x="3412.64" y="2415.29" width="17.10" height="109.67" style="fill:none;stroke:#D7D29E;stroke-width:8.64"/>
	<rect x="3434.06" y="2410.97" width="25.86" height="118.31" style="fill:#CAC27E"/>
	<rect x="3438.38" y="2415.29" width="17.22" height="109.67" style="fill:none;stroke:#D7D29E;stroke-width:8.64"/>
	<rect x="3459.93" y="2410.97" width="25.86" height="118.31" style="fill:#CAC27E"/>
	<rect x="3464.25" y="2415.29" width="17.22" height="109.67" style="fill:none;stroke:#D7D29E;stroke-width:8.64"/>
	<rect x="3485.79" y="2470.13" width="25.86" height="59.15" style="fill:#CAC27E"/>
	<rect x="3490.11" y="2474.45" width="17.22" height="50.51" style="fill:none;stroke:#D7D29E;stroke-width:8.64"/>
	<rect x="3511.65" y="2292.79" width="25.74" height="236.49" style="fill:#CAC27E"/>
	<rect x="3515.97" y="2297.11" width="17.10" height="227.85" style="fill:none;stroke:#D7D29E;stroke-width:8.64"/>
	<rect x="3537.39" y="2410.97" width="25.86" height="118.31" style="fill:#CAC27E"/>
	<rect x="3541.71" y="2415.29" width="17.22" height="109.67" style="fill:none;stroke:#D7D29E;stroke-width:8.64"/>
	<rect x="3563.26" y="2470.13" width="25.86" height="59.15" style="fill:#CAC27E"/>
	<rect x="3567.58" y="2474.45" width="17.22" height="50.51" style="fill:none;stroke:#D7D29E;stroke-width:8.64"/>
	<rect x="3589.12" y="2410.97" width="25.74" height="118.31" style="fill:#CAC27E"/>
	<rect x="3593.44" y="2415.29" width="17.10" height="109.67" style="fill:none;stroke:#D7D29E;stroke-width:8.64"/>
	<rect x="3614.86" y="2410.97" width="25.86" height="118.31" style="fill:#CAC27E"/>
	<rect x="3619.18" y="2415.29" width="17.22" height="109.67" style="fill:none;stroke:#D7D29E;stroke-width:8.64"/>
	<rect x="3640.72" y="2470.13" width="25.86" height="59.15" style="fill:#CAC27E"/>
	<rect x="3645.04" y="2474.45" width="17.22" height="50.51" style="fill:none;stroke:#D7D29E;stroke-width:8.64"/>
	<rect x="3666.59" y="2410.97" width="25.86" height="118.31" style="fill:#CAC27E"/>
	<rect x="3670.91" y="2415.29" width="17.22" height="109.67" style="fill:none;stroke:#D7D29E;stroke-width:8.64"/>
	<rect x="3692.45" y="2470.13" width="25.74" height="59.15" style="fill:#CAC27E"/>
	<rect x="3696.77" y="2474.45" width="17.10" height="50.51" style="fill:none;stroke:#D7D29E;stroke-width:8.64"/>
	<rect x="3769.92" y="2470.13" width="25.74" height="59.15" style="fill:#CAC27E"/>
	<rect x="3774.24" y="2474.45" width="17.10" height="50.51" style="fill:none;stroke:#D7D29E;stroke-width:8.64"/>
	<line x1="387.34" y1="2529.28" x2="387.34" y2="100.86" style="stroke:#000000;stroke-width:5.76"/>
	<line x1="387.34" y1="2529.28" x2="347.37" y2="2529.28" style="stroke:#000000;stroke-width:5.76"/>
	<text x="327.44" y="2557.29" style="font-family:'Helvetica';font-size:79.94px;fill:#000000" text-anchor="end">0</text>
	<line x1="387.34" y1="1937.99" x2="347.37" y2="1937.99" style="stroke:#000000;stroke-width:5.76"/>
	<text x="327.44" y="1966.00" style="font-family:'Helvetica';font-size:79.94px;fill:#000000" text-anchor="end">10</text>
	<line x1="387.34" y1="1346.69" x2="347.37" y2="1346.69" style="stroke:#000000;stroke-width:5.76"/>
	<text x="327.44" y="1374.70" style="font-family:'Helvetica';font-size:79.94px;fill:#000000" text-anchor="end">20</text>
	<line x1="387.34" y1="755.39" x2="347.37" y2="755.39" style="stroke:#000000;stroke-width:5.76"/>
	<text x="327.44" y="783.41" style="font-family:'Helvetica';font-size:79.94px;fill:#000000" text-anchor="end">30</text>
	<line x1="387.34" y1="164.22" x2="347.37" y2="164.22" style="stroke:#000000;stroke-width:5.76"/>
	<text x="327.44" y="192.23" style="font-family:'Helvetica';font-size:79.94px;fill:#000000" text-anchor="end">40</text>
	<text x="176.68" y="1315.01" style="font-family:'Helvetica';font-size:79.94px;fill:#000000" transform="rotate(-90 176.68,1315.01)" text-anchor="middle">Number of SGSS positives tests</text>
	<line x1="387.34" y1="2529.28" x2="3859.02" y2="2529.28" style="stroke:#000000;stroke-width:5.76"/>
	<line x1="450.70" y1="2529.28" x2="450.70" y2="2569.25" style="stroke:#000000;stroke-width:5.76"/>
	<text x="450.70" y="2645.20" style="font-family:'Helvetica';font-size:79.94px;fill:#000000" text-anchor="middle">01mar2020</text>
	<line x1="1251.48" y1="2529.28" x2="1251.48" y2="2569.25" style="stroke:#000000;stroke-width:5.76"/>
	<text x="1251.48" y="2645.20" style="font-family:'Helvetica';font-size:79.94px;fill:#000000" text-anchor="middle">01apr2020</text>
	<line x1="2026.41" y1="2529.28" x2="2026.41" y2="2569.25" style="stroke:#000000;stroke-width:5.76"/>
	<text x="2026.41" y="2645.20" style="font-family:'Helvetica';font-size:79.94px;fill:#000000" text-anchor="middle">01may2020</text>
	<line x1="2827.07" y1="2529.28" x2="2827.07" y2="2569.25" style="stroke:#000000;stroke-width:5.76"/>
	<text x="2827.07" y="2645.20" style="font-family:'Helvetica';font-size:79.94px;fill:#000000" text-anchor="middle">01jun2020</text>
	<line x1="3601.99" y1="2529.28" x2="3601.99" y2="2569.25" style="stroke:#000000;stroke-width:5.76"/>
	<text x="3601.99" y="2645.20" style="font-family:'Helvetica';font-size:79.94px;fill:#000000" text-anchor="middle">01jul2020</text>
	<text x="2123.18" y="2735.17" style="font-family:'Helvetica';font-size:79.94px;fill:#000000" text-anchor="middle">Date</text>
</svg>
