<?xml version="1.0" encoding="UTF-8" standalone="no"?>
<!-- This is a Stata 16.1 generated SVG file (http://www.stata.com) -->

<svg version="1.1" width="5.50in" height="4.00in" viewBox="0 0 3960 2880" xmlns="http://www.w3.org/2000/svg" xmlns:xlink="http://www.w3.org/1999/xlink">
	<desc>Stata Graph - Graph</desc>
	<rect x="0" y="0" width="3960" height="2880" style="fill:#EAF2F3;stroke:none"/>
	<rect x="0.00" y="0.00" width="3959.88" height="2880.00" style="fill:#EAF2F3"/>
	<rect x="2.88" y="2.88" width="3954.12" height="2874.24" style="fill:none;stroke:#EAF2F3;stroke-width:5.76"/>
	<rect x="387.34" y="100.86" width="3471.68" height="2428.42" style="fill:#FFFFFF"/>
	<rect x="390.22" y="103.74" width="3465.92" height="2422.66" style="fill:none;stroke:#FFFFFF;stroke-width:5.76"/>
	<line x1="387.34" y1="2529.28" x2="3859.02" y2="2529.28" style="stroke:#EAF2F3;stroke-width:5.76"/>
	<line x1="387.34" y1="1740.85" x2="3859.02" y2="1740.85" style="stroke:#EAF2F3;stroke-width:5.76"/>
	<line x1="387.34" y1="952.53" x2="3859.02" y2="952.53" style="stroke:#EAF2F3;stroke-width:5.76"/>
	<line x1="387.34" y1="164.22" x2="3859.02" y2="164.22" style="stroke:#EAF2F3;stroke-width:5.76"/>
	<line x1="476.44" y1="2529.28" x2="476.44" y2="100.86" style="stroke:#EAF2F3;stroke-width:5.76"/>
	<line x1="1270.91" y1="2529.28" x2="1270.91" y2="100.86" style="stroke:#EAF2F3;stroke-width:5.76"/>
	<line x1="2039.89" y1="2529.28" x2="2039.89" y2="100.86" style="stroke:#EAF2F3;stroke-width:5.76"/>
	<line x1="2834.49" y1="2529.28" x2="2834.49" y2="100.86" style="stroke:#EAF2F3;stroke-width:5.76"/>
	<line x1="3603.48" y1="2529.28" x2="3603.48" y2="100.86" style="stroke:#EAF2F3;stroke-width:5.76"/>
	<rect x="463.57" y="2371.62" width="25.62" height="157.66" style="fill:#CAC27E"/>
	<rect x="467.89" y="2375.94" width="16.98" height="149.02" style="fill:none;stroke:#D7D29E;stroke-width:8.64"/>
	<rect x="668.62" y="2489.80" width="25.62" height="39.48" style="fill:#CAC27E"/>
	<rect x="672.94" y="2494.12" width="16.98" height="30.84" style="fill:none;stroke:#D7D29E;stroke-width:8.64"/>
	<rect x="719.85" y="2489.80" width="25.62" height="39.48" style="fill:#CAC27E"/>
	<rect x="724.17" y="2494.12" width="16.98" height="30.84" style="fill:none;stroke:#D7D29E;stroke-width:8.64"/>
	<rect x="771.21" y="2450.45" width="25.62" height="78.83" style="fill:#CAC27E"/>
	<rect x="775.53" y="2454.77" width="16.98" height="70.19" style="fill:none;stroke:#D7D29E;stroke-width:8.64"/>
	<rect x="848.06" y="2371.62" width="25.62" height="157.66" style="fill:#CAC27E"/>
	<rect x="852.38" y="2375.94" width="16.98" height="149.02" style="fill:none;stroke:#D7D29E;stroke-width:8.64"/>
	<rect x="873.67" y="2371.62" width="25.62" height="157.66" style="fill:#CAC27E"/>
	<rect x="877.99" y="2375.94" width="16.98" height="149.02" style="fill:none;stroke:#D7D29E;stroke-width:8.64"/>
	<rect x="899.29" y="2450.45" width="25.62" height="78.83" style="fill:#CAC27E"/>
	<rect x="903.61" y="2454.77" width="16.98" height="70.19" style="fill:none;stroke:#D7D29E;stroke-width:8.64"/>
	<rect x="924.91" y="2371.62" width="25.62" height="157.66" style="fill:#CAC27E"/>
	<rect x="929.23" y="2375.94" width="16.98" height="149.02" style="fill:none;stroke:#D7D29E;stroke-width:8.64"/>
	<rect x="950.52" y="2332.14" width="25.74" height="197.14" style="fill:#CAC27E"/>
	<rect x="954.84" y="2336.46" width="17.10" height="188.50" style="fill:none;stroke:#D7D29E;stroke-width:8.64"/>
	<rect x="976.26" y="2450.45" width="25.62" height="78.83" style="fill:#CAC27E"/>
	<rect x="980.58" y="2454.77" width="16.98" height="70.19" style="fill:none;stroke:#D7D29E;stroke-width:8.64"/>
	<rect x="1001.88" y="2371.62" width="25.62" height="157.66" style="fill:#CAC27E"/>
	<rect x="1006.20" y="2375.94" width="16.98" height="149.02" style="fill:none;stroke:#D7D29E;stroke-width:8.64"/>
	<rect x="1027.50" y="2213.96" width="25.62" height="315.32" style="fill:#CAC27E"/>
	<rect x="1031.82" y="2218.28" width="16.98" height="306.69" style="fill:none;stroke:#D7D29E;stroke-width:8.64"/>
	<rect x="1053.11" y="2135.13" width="25.62" height="394.16" style="fill:#CAC27E"/>
	<rect x="1057.43" y="2139.45" width="16.98" height="385.52" style="fill:none;stroke:#D7D29E;stroke-width:8.64"/>
	<rect x="1078.73" y="2135.13" width="25.62" height="394.16" style="fill:#CAC27E"/>
	<rect x="1083.05" y="2139.45" width="16.98" height="385.52" style="fill:none;stroke:#D7D29E;stroke-width:8.64"/>
	<rect x="1104.35" y="2135.13" width="25.62" height="394.16" style="fill:#CAC27E"/>
	<rect x="1108.66" y="2139.45" width="16.98" height="385.52" style="fill:none;stroke:#D7D29E;stroke-width:8.64"/>
	<rect x="1129.96" y="2213.96" width="25.62" height="315.32" style="fill:#CAC27E"/>
	<rect x="1134.28" y="2218.28" width="16.98" height="306.69" style="fill:none;stroke:#D7D29E;stroke-width:8.64"/>
	<rect x="1155.58" y="2174.48" width="25.74" height="354.80" style="fill:#CAC27E"/>
	<rect x="1159.90" y="2178.80" width="17.10" height="346.16" style="fill:none;stroke:#D7D29E;stroke-width:8.64"/>
	<rect x="1181.32" y="2174.48" width="25.62" height="354.80" style="fill:#CAC27E"/>
	<rect x="1185.64" y="2178.80" width="16.98" height="346.16" style="fill:none;stroke:#D7D29E;stroke-width:8.64"/>
	<rect x="1206.93" y="1780.32" width="25.62" height="748.96" style="fill:#CAC27E"/>
	<rect x="1211.25" y="1784.64" width="16.98" height="740.32" style="fill:none;stroke:#D7D29E;stroke-width:8.64"/>
	<rect x="1232.55" y="1780.32" width="25.62" height="748.96" style="fill:#CAC27E"/>
	<rect x="1236.87" y="1784.64" width="16.98" height="740.32" style="fill:none;stroke:#D7D29E;stroke-width:8.64"/>
	<rect x="1258.17" y="1110.20" width="25.62" height="1419.09" style="fill:#CAC27E"/>
	<rect x="1262.49" y="1114.52" width="16.98" height="1410.45" style="fill:none;stroke:#D7D29E;stroke-width:8.64"/>
	<rect x="1283.78" y="1622.66" width="25.62" height="906.62" style="fill:#CAC27E"/>
	<rect x="1288.10" y="1626.98" width="16.98" height="897.98" style="fill:none;stroke:#D7D29E;stroke-width:8.64"/>
	<rect x="1309.40" y="1267.86" width="25.62" height="1261.42" style="fill:#CAC27E"/>
	<rect x="1313.72" y="1272.18" width="16.98" height="1252.78" style="fill:none;stroke:#D7D29E;stroke-width:8.64"/>
	<rect x="1335.02" y="2174.48" width="25.62" height="354.80" style="fill:#CAC27E"/>
	<rect x="1339.33" y="2178.80" width="16.98" height="346.16" style="fill:none;stroke:#D7D29E;stroke-width:8.64"/>
	<rect x="1360.63" y="2135.13" width="25.74" height="394.16" style="fill:#CAC27E"/>
	<rect x="1364.95" y="2139.45" width="17.10" height="385.52" style="fill:none;stroke:#D7D29E;stroke-width:8.64"/>
	<rect x="1386.37" y="1465.00" width="25.62" height="1064.28" style="fill:#CAC27E"/>
	<rect x="1390.69" y="1469.32" width="16.98" height="1055.64" style="fill:none;stroke:#D7D29E;stroke-width:8.64"/>
	<rect x="1411.99" y="1937.99" width="25.62" height="591.30" style="fill:#CAC27E"/>
	<rect x="1416.31" y="1942.31" width="16.98" height="582.66" style="fill:none;stroke:#D7D29E;stroke-width:8.64"/>
	<rect x="1437.60" y="1701.49" width="25.62" height="827.79" style="fill:#CAC27E"/>
	<rect x="1441.92" y="1705.81" width="16.98" height="819.15" style="fill:none;stroke:#D7D29E;stroke-width:8.64"/>
	<rect x="1463.22" y="1622.66" width="25.62" height="906.62" style="fill:#CAC27E"/>
	<rect x="1467.54" y="1626.98" width="16.98" height="897.98" style="fill:none;stroke:#D7D29E;stroke-width:8.64"/>
	<rect x="1488.84" y="1898.51" width="25.62" height="630.77" style="fill:#CAC27E"/>
	<rect x="1493.16" y="1902.83" width="16.98" height="622.13" style="fill:none;stroke:#D7D29E;stroke-width:8.64"/>
	<rect x="1514.45" y="2253.31" width="25.62" height="275.97" style="fill:#CAC27E"/>
	<rect x="1518.77" y="2257.63" width="16.98" height="267.33" style="fill:none;stroke:#D7D29E;stroke-width:8.64"/>
	<rect x="1540.07" y="2135.13" width="25.62" height="394.16" style="fill:#CAC27E"/>
	<rect x="1544.39" y="2139.45" width="16.98" height="385.52" style="fill:none;stroke:#D7D29E;stroke-width:8.64"/>
	<rect x="1565.68" y="1898.51" width="25.74" height="630.77" style="fill:#CAC27E"/>
	<rect x="1570.00" y="1902.83" width="17.10" height="622.13" style="fill:none;stroke:#D7D29E;stroke-width:8.64"/>
	<rect x="1591.42" y="321.88" width="25.62" height="2207.40" style="fill:#CAC27E"/>
	<rect x="1595.74" y="326.20" width="16.98" height="2198.76" style="fill:none;stroke:#D7D29E;stroke-width:8.64"/>
	<rect x="1617.04" y="1149.67" width="25.62" height="1379.61" style="fill:#CAC27E"/>
	<rect x="1621.36" y="1153.99" width="16.98" height="1370.97" style="fill:none;stroke:#D7D29E;stroke-width:8.64"/>
	<rect x="1642.66" y="1819.68" width="25.62" height="709.60" style="fill:#CAC27E"/>
	<rect x="1646.98" y="1824.00" width="16.98" height="700.96" style="fill:none;stroke:#D7D29E;stroke-width:8.64"/>
	<rect x="1668.27" y="282.41" width="25.62" height="2246.88" style="fill:#CAC27E"/>
	<rect x="1672.59" y="286.73" width="16.98" height="2238.24" style="fill:none;stroke:#D7D29E;stroke-width:8.64"/>
	<rect x="1693.89" y="2292.79" width="25.62" height="236.49" style="fill:#CAC27E"/>
	<rect x="1698.21" y="2297.11" width="16.98" height="227.85" style="fill:none;stroke:#D7D29E;stroke-width:8.64"/>
	<rect x="1719.51" y="2135.13" width="25.62" height="394.16" style="fill:#CAC27E"/>
	<rect x="1723.83" y="2139.45" width="16.98" height="385.52" style="fill:none;stroke:#D7D29E;stroke-width:8.64"/>
	<rect x="1745.12" y="952.53" width="25.62" height="1576.75" style="fill:#CAC27E"/>
	<rect x="1749.44" y="956.85" width="16.98" height="1568.11" style="fill:none;stroke:#D7D29E;stroke-width:8.64"/>
	<rect x="1770.74" y="1622.66" width="25.74" height="906.62" style="fill:#CAC27E"/>
	<rect x="1775.06" y="1626.98" width="17.10" height="897.98" style="fill:none;stroke:#D7D29E;stroke-width:8.64"/>
	<rect x="1796.48" y="2174.48" width="25.62" height="354.80" style="fill:#CAC27E"/>
	<rect x="1800.80" y="2178.80" width="16.98" height="346.16" style="fill:none;stroke:#D7D29E;stroke-width:8.64"/>
	<rect x="1822.10" y="1465.00" width="25.62" height="1064.28" style="fill:#CAC27E"/>
	<rect x="1826.41" y="1469.32" width="16.98" height="1055.64" style="fill:none;stroke:#D7D29E;stroke-width:8.64"/>
	<rect x="1847.71" y="2016.82" width="25.62" height="512.46" style="fill:#CAC27E"/>
	<rect x="1852.03" y="2021.14" width="16.98" height="503.83" style="fill:none;stroke:#D7D29E;stroke-width:8.64"/>
	<rect x="1873.33" y="2174.48" width="25.62" height="354.80" style="fill:#CAC27E"/>
	<rect x="1877.65" y="2178.80" width="16.98" height="346.16" style="fill:none;stroke:#D7D29E;stroke-width:8.64"/>
	<rect x="1898.94" y="2371.62" width="25.62" height="157.66" style="fill:#CAC27E"/>
	<rect x="1903.26" y="2375.94" width="16.98" height="149.02" style="fill:none;stroke:#D7D29E;stroke-width:8.64"/>
	<rect x="1924.56" y="991.89" width="25.62" height="1537.39" style="fill:#CAC27E"/>
	<rect x="1928.88" y="996.21" width="16.98" height="1528.75" style="fill:none;stroke:#D7D29E;stroke-width:8.64"/>
	<rect x="1950.18" y="597.73" width="25.62" height="1931.55" style="fill:#CAC27E"/>
	<rect x="1954.50" y="602.05" width="16.98" height="1922.91" style="fill:none;stroke:#D7D29E;stroke-width:8.64"/>
	<rect x="1975.79" y="1819.68" width="25.74" height="709.60" style="fill:#CAC27E"/>
	<rect x="1980.11" y="1824.00" width="17.10" height="700.96" style="fill:none;stroke:#D7D29E;stroke-width:8.64"/>
	<rect x="2001.53" y="1504.35" width="25.62" height="1024.93" style="fill:#CAC27E"/>
	<rect x="2005.85" y="1508.67" width="16.98" height="1016.29" style="fill:none;stroke:#D7D29E;stroke-width:8.64"/>
	<rect x="2027.15" y="1583.18" width="25.62" height="946.10" style="fill:#CAC27E"/>
	<rect x="2031.47" y="1587.50" width="16.98" height="937.46" style="fill:none;stroke:#D7D29E;stroke-width:8.64"/>
	<rect x="2052.76" y="2292.79" width="25.62" height="236.49" style="fill:#CAC27E"/>
	<rect x="2057.08" y="2297.11" width="16.98" height="227.85" style="fill:none;stroke:#D7D29E;stroke-width:8.64"/>
	<rect x="2078.38" y="2410.97" width="25.62" height="118.31" style="fill:#CAC27E"/>
	<rect x="2082.70" y="2415.29" width="16.98" height="109.67" style="fill:none;stroke:#D7D29E;stroke-width:8.64"/>
	<rect x="2104.00" y="1780.32" width="25.62" height="748.96" style="fill:#CAC27E"/>
	<rect x="2108.32" y="1784.64" width="16.98" height="740.32" style="fill:none;stroke:#D7D29E;stroke-width:8.64"/>
	<rect x="2129.61" y="1583.18" width="25.62" height="946.10" style="fill:#CAC27E"/>
	<rect x="2133.93" y="1587.50" width="16.98" height="937.46" style="fill:none;stroke:#D7D29E;stroke-width:8.64"/>
	<rect x="2155.23" y="1977.34" width="25.74" height="551.94" style="fill:#CAC27E"/>
	<rect x="2159.55" y="1981.66" width="17.10" height="543.30" style="fill:none;stroke:#D7D29E;stroke-width:8.64"/>
	<rect x="2180.97" y="1662.01" width="25.62" height="867.27" style="fill:#CAC27E"/>
	<rect x="2185.29" y="1666.33" width="16.98" height="858.63" style="fill:none;stroke:#D7D29E;stroke-width:8.64"/>
	<rect x="2206.59" y="2056.29" width="25.62" height="472.99" style="fill:#CAC27E"/>
	<rect x="2210.91" y="2060.61" width="16.98" height="464.35" style="fill:none;stroke:#D7D29E;stroke-width:8.64"/>
	<rect x="2232.20" y="2332.14" width="25.62" height="197.14" style="fill:#CAC27E"/>
	<rect x="2236.52" y="2336.46" width="16.98" height="188.50" style="fill:none;stroke:#D7D29E;stroke-width:8.64"/>
	<rect x="2257.82" y="2450.45" width="25.62" height="78.83" style="fill:#CAC27E"/>
	<rect x="2262.14" y="2454.77" width="16.98" height="70.19" style="fill:none;stroke:#D7D29E;stroke-width:8.64"/>
	<rect x="2283.43" y="1819.68" width="25.62" height="709.60" style="fill:#CAC27E"/>
	<rect x="2287.75" y="1824.00" width="16.98" height="700.96" style="fill:none;stroke:#D7D29E;stroke-width:8.64"/>
	<rect x="2309.05" y="1898.51" width="25.62" height="630.77" style="fill:#CAC27E"/>
	<rect x="2313.37" y="1902.83" width="16.98" height="622.13" style="fill:none;stroke:#D7D29E;stroke-width:8.64"/>
	<rect x="2334.67" y="2095.65" width="25.62" height="433.63" style="fill:#CAC27E"/>
	<rect x="2338.99" y="2099.97" width="16.98" height="424.99" style="fill:none;stroke:#D7D29E;stroke-width:8.64"/>
	<rect x="2360.28" y="1543.83" width="25.74" height="985.45" style="fill:#CAC27E"/>
	<rect x="2364.60" y="1548.15" width="17.10" height="976.81" style="fill:none;stroke:#D7D29E;stroke-width:8.64"/>
	<rect x="2386.02" y="2135.13" width="25.62" height="394.16" style="fill:#CAC27E"/>
	<rect x="2390.34" y="2139.45" width="16.98" height="385.52" style="fill:none;stroke:#D7D29E;stroke-width:8.64"/>
	<rect x="2411.64" y="2410.97" width="25.62" height="118.31" style="fill:#CAC27E"/>
	<rect x="2415.96" y="2415.29" width="16.98" height="109.67" style="fill:none;stroke:#D7D29E;stroke-width:8.64"/>
	<rect x="2437.26" y="2371.62" width="25.62" height="157.66" style="fill:#CAC27E"/>
	<rect x="2441.58" y="2375.94" width="16.98" height="149.02" style="fill:none;stroke:#D7D29E;stroke-width:8.64"/>
	<rect x="2462.87" y="1346.69" width="25.62" height="1182.59" style="fill:#CAC27E"/>
	<rect x="2467.19" y="1351.01" width="16.98" height="1173.95" style="fill:none;stroke:#D7D29E;stroke-width:8.64"/>
	<rect x="2488.49" y="1662.01" width="25.62" height="867.27" style="fill:#CAC27E"/>
	<rect x="2492.81" y="1666.33" width="16.98" height="858.63" style="fill:none;stroke:#D7D29E;stroke-width:8.64"/>
	<rect x="2514.11" y="1859.15" width="25.62" height="670.13" style="fill:#CAC27E"/>
	<rect x="2518.42" y="1863.47" width="16.98" height="661.49" style="fill:none;stroke:#D7D29E;stroke-width:8.64"/>
	<rect x="2539.72" y="2135.13" width="25.62" height="394.16" style="fill:#CAC27E"/>
	<rect x="2544.04" y="2139.45" width="16.98" height="385.52" style="fill:none;stroke:#D7D29E;stroke-width:8.64"/>
	<rect x="2565.34" y="2174.48" width="25.74" height="354.80" style="fill:#CAC27E"/>
	<rect x="2569.66" y="2178.80" width="17.10" height="346.16" style="fill:none;stroke:#D7D29E;stroke-width:8.64"/>
	<rect x="2591.08" y="2450.45" width="25.62" height="78.83" style="fill:#CAC27E"/>
	<rect x="2595.40" y="2454.77" width="16.98" height="70.19" style="fill:none;stroke:#D7D29E;stroke-width:8.64"/>
	<rect x="2616.69" y="2450.45" width="25.62" height="78.83" style="fill:#CAC27E"/>
	<rect x="2621.01" y="2454.77" width="16.98" height="70.19" style="fill:none;stroke:#D7D29E;stroke-width:8.64"/>
	<rect x="2667.93" y="1977.34" width="25.62" height="551.94" style="fill:#CAC27E"/>
	<rect x="2672.25" y="1981.66" width="16.98" height="543.30" style="fill:none;stroke:#D7D29E;stroke-width:8.64"/>
	<rect x="2693.54" y="2332.14" width="25.62" height="197.14" style="fill:#CAC27E"/>
	<rect x="2697.86" y="2336.46" width="16.98" height="188.50" style="fill:none;stroke:#D7D29E;stroke-width:8.64"/>
	<rect x="2719.16" y="2371.62" width="25.62" height="157.66" style="fill:#CAC27E"/>
	<rect x="2723.48" y="2375.94" width="16.98" height="149.02" style="fill:none;stroke:#D7D29E;stroke-width:8.64"/>
	<rect x="2744.78" y="2253.31" width="25.62" height="275.97" style="fill:#CAC27E"/>
	<rect x="2749.09" y="2257.63" width="16.98" height="267.33" style="fill:none;stroke:#D7D29E;stroke-width:8.64"/>
	<rect x="2770.39" y="2410.97" width="25.74" height="118.31" style="fill:#CAC27E"/>
	<rect x="2774.71" y="2415.29" width="17.10" height="109.67" style="fill:none;stroke:#D7D29E;stroke-width:8.64"/>
	<rect x="2796.13" y="2450.45" width="25.62" height="78.83" style="fill:#CAC27E"/>
	<rect x="2800.45" y="2454.77" width="16.98" height="70.19" style="fill:none;stroke:#D7D29E;stroke-width:8.64"/>
	<rect x="2821.75" y="2292.79" width="25.62" height="236.49" style="fill:#CAC27E"/>
	<rect x="2826.07" y="2297.11" width="16.98" height="227.85" style="fill:none;stroke:#D7D29E;stroke-width:8.64"/>
	<rect x="2847.36" y="2174.48" width="25.62" height="354.80" style="fill:#CAC27E"/>
	<rect x="2851.68" y="2178.80" width="16.98" height="346.16" style="fill:none;stroke:#D7D29E;stroke-width:8.64"/>
	<rect x="2872.98" y="2332.14" width="25.62" height="197.14" style="fill:#CAC27E"/>
	<rect x="2877.30" y="2336.46" width="16.98" height="188.50" style="fill:none;stroke:#D7D29E;stroke-width:8.64"/>
	<rect x="2898.60" y="2135.13" width="25.62" height="394.16" style="fill:#CAC27E"/>
	<rect x="2902.92" y="2139.45" width="16.98" height="385.52" style="fill:none;stroke:#D7D29E;stroke-width:8.64"/>
	<rect x="2924.21" y="2410.97" width="25.62" height="118.31" style="fill:#CAC27E"/>
	<rect x="2928.53" y="2415.29" width="16.98" height="109.67" style="fill:none;stroke:#D7D29E;stroke-width:8.64"/>
	<rect x="2949.83" y="2371.62" width="25.62" height="157.66" style="fill:#CAC27E"/>
	<rect x="2954.15" y="2375.94" width="16.98" height="149.02" style="fill:none;stroke:#D7D29E;stroke-width:8.64"/>
	<rect x="2975.45" y="2450.45" width="25.74" height="78.83" style="fill:#CAC27E"/>
	<rect x="2979.76" y="2454.77" width="17.10" height="70.19" style="fill:none;stroke:#D7D29E;stroke-width:8.64"/>
	<rect x="3001.18" y="2292.79" width="25.62" height="236.49" style="fill:#CAC27E"/>
	<rect x="3005.50" y="2297.11" width="16.98" height="227.85" style="fill:none;stroke:#D7D29E;stroke-width:8.64"/>
	<rect x="3026.80" y="2056.29" width="25.62" height="472.99" style="fill:#CAC27E"/>
	<rect x="3031.12" y="2060.61" width="16.98" height="464.35" style="fill:none;stroke:#D7D29E;stroke-width:8.64"/>
	<rect x="3052.42" y="2174.48" width="25.62" height="354.80" style="fill:#CAC27E"/>
	<rect x="3056.74" y="2178.80" width="16.98" height="346.16" style="fill:none;stroke:#D7D29E;stroke-width:8.64"/>
	<rect x="3078.03" y="2174.48" width="25.62" height="354.80" style="fill:#CAC27E"/>
	<rect x="3082.35" y="2178.80" width="16.98" height="346.16" style="fill:none;stroke:#D7D29E;stroke-width:8.64"/>
	<rect x="3103.65" y="2292.79" width="25.62" height="236.49" style="fill:#CAC27E"/>
	<rect x="3107.97" y="2297.11" width="16.98" height="227.85" style="fill:none;stroke:#D7D29E;stroke-width:8.64"/>
	<rect x="3129.27" y="2371.62" width="25.62" height="157.66" style="fill:#CAC27E"/>
	<rect x="3133.59" y="2375.94" width="16.98" height="149.02" style="fill:none;stroke:#D7D29E;stroke-width:8.64"/>
	<rect x="3154.88" y="2332.14" width="25.62" height="197.14" style="fill:#CAC27E"/>
	<rect x="3159.20" y="2336.46" width="16.98" height="188.50" style="fill:none;stroke:#D7D29E;stroke-width:8.64"/>
	<rect x="3180.50" y="2292.79" width="25.74" height="236.49" style="fill:#CAC27E"/>
	<rect x="3184.82" y="2297.11" width="17.10" height="227.85" style="fill:none;stroke:#D7D29E;stroke-width:8.64"/>
	<rect x="3206.24" y="2332.14" width="25.62" height="197.14" style="fill:#CAC27E"/>
	<rect x="3210.56" y="2336.46" width="16.98" height="188.50" style="fill:none;stroke:#D7D29E;stroke-width:8.64"/>
	<rect x="3231.86" y="2450.45" width="25.62" height="78.83" style="fill:#CAC27E"/>
	<rect x="3236.17" y="2454.77" width="16.98" height="70.19" style="fill:none;stroke:#D7D29E;stroke-width:8.64"/>
	<rect x="3257.47" y="2332.14" width="25.62" height="197.14" style="fill:#CAC27E"/>
	<rect x="3261.79" y="2336.46" width="16.98" height="188.50" style="fill:none;stroke:#D7D29E;stroke-width:8.64"/>
	<rect x="3283.09" y="2292.79" width="25.62" height="236.49" style="fill:#CAC27E"/>
	<rect x="3287.41" y="2297.11" width="16.98" height="227.85" style="fill:none;stroke:#D7D29E;stroke-width:8.64"/>
	<rect x="3308.70" y="2410.97" width="25.62" height="118.31" style="fill:#CAC27E"/>
	<rect x="3313.02" y="2415.29" width="16.98" height="109.67" style="fill:none;stroke:#D7D29E;stroke-width:8.64"/>
	<rect x="3334.32" y="2410.97" width="25.62" height="118.31" style="fill:#CAC27E"/>
	<rect x="3338.64" y="2415.29" width="16.98" height="109.67" style="fill:none;stroke:#D7D29E;stroke-width:8.64"/>
	<rect x="3359.94" y="2332.14" width="25.62" height="197.14" style="fill:#CAC27E"/>
	<rect x="3364.26" y="2336.46" width="16.98" height="188.50" style="fill:none;stroke:#D7D29E;stroke-width:8.64"/>
	<rect x="3385.55" y="2332.14" width="25.74" height="197.14" style="fill:#CAC27E"/>
	<rect x="3389.87" y="2336.46" width="17.10" height="188.50" style="fill:none;stroke:#D7D29E;stroke-width:8.64"/>
	<rect x="3411.29" y="2292.79" width="25.62" height="236.49" style="fill:#CAC27E"/>
	<rect x="3415.61" y="2297.11" width="16.98" height="227.85" style="fill:none;stroke:#D7D29E;stroke-width:8.64"/>
	<rect x="3436.91" y="2410.97" width="25.62" height="118.31" style="fill:#CAC27E"/>
	<rect x="3441.23" y="2415.29" width="16.98" height="109.67" style="fill:none;stroke:#D7D29E;stroke-width:8.64"/>
	<rect x="3462.53" y="2489.80" width="25.62" height="39.48" style="fill:#CAC27E"/>
	<rect x="3466.84" y="2494.12" width="16.98" height="30.84" style="fill:none;stroke:#D7D29E;stroke-width:8.64"/>
	<rect x="3488.14" y="2450.45" width="25.62" height="78.83" style="fill:#CAC27E"/>
	<rect x="3492.46" y="2454.77" width="16.98" height="70.19" style="fill:none;stroke:#D7D29E;stroke-width:8.64"/>
	<rect x="3513.76" y="2489.80" width="25.62" height="39.48" style="fill:#CAC27E"/>
	<rect x="3518.08" y="2494.12" width="16.98" height="30.84" style="fill:none;stroke:#D7D29E;stroke-width:8.64"/>
	<rect x="3539.37" y="2450.45" width="25.62" height="78.83" style="fill:#CAC27E"/>
	<rect x="3543.69" y="2454.77" width="16.98" height="70.19" style="fill:none;stroke:#D7D29E;stroke-width:8.64"/>
	<rect x="3564.99" y="2253.31" width="25.62" height="275.97" style="fill:#CAC27E"/>
	<rect x="3569.31" y="2257.63" width="16.98" height="267.33" style="fill:none;stroke:#D7D29E;stroke-width:8.64"/>
	<rect x="3590.61" y="2410.97" width="25.74" height="118.31" style="fill:#CAC27E"/>
	<rect x="3594.93" y="2415.29" width="17.10" height="109.67" style="fill:none;stroke:#D7D29E;stroke-width:8.64"/>
	<rect x="3616.35" y="2410.97" width="25.62" height="118.31" style="fill:#CAC27E"/>
	<rect x="3620.67" y="2415.29" width="16.98" height="109.67" style="fill:none;stroke:#D7D29E;stroke-width:8.64"/>
	<rect x="3641.96" y="2213.96" width="25.62" height="315.32" style="fill:#CAC27E"/>
	<rect x="3646.28" y="2218.28" width="16.98" height="306.69" style="fill:none;stroke:#D7D29E;stroke-width:8.64"/>
	<rect x="3693.20" y="2450.45" width="25.62" height="78.83" style="fill:#CAC27E"/>
	<rect x="3697.51" y="2454.77" width="16.98" height="70.19" style="fill:none;stroke:#D7D29E;stroke-width:8.64"/>
	<rect x="3718.81" y="2410.97" width="25.62" height="118.31" style="fill:#CAC27E"/>
	<rect x="3723.13" y="2415.29" width="16.98" height="109.67" style="fill:none;stroke:#D7D29E;stroke-width:8.64"/>
	<rect x="3770.04" y="2489.80" width="25.62" height="39.48" style="fill:#CAC27E"/>
	<rect x="3774.36" y="2494.12" width="16.98" height="30.84" style="fill:none;stroke:#D7D29E;stroke-width:8.64"/>
	<line x1="387.34" y1="2529.28" x2="387.34" y2="100.86" style="stroke:#000000;stroke-width:5.76"/>
	<line x1="387.34" y1="2529.28" x2="347.37" y2="2529.28" style="stroke:#000000;stroke-width:5.76"/>
	<text x="327.44" y="2557.29" style="font-family:'Helvetica';font-size:79.94px;fill:#000000" text-anchor="end">0</text>
	<line x1="387.34" y1="1740.85" x2="347.37" y2="1740.85" style="stroke:#000000;stroke-width:5.76"/>
	<text x="327.44" y="1768.86" style="font-family:'Helvetica';font-size:79.94px;fill:#000000" text-anchor="end">20</text>
	<line x1="387.34" y1="952.53" x2="347.37" y2="952.53" style="stroke:#000000;stroke-width:5.76"/>
	<text x="327.44" y="980.55" style="font-family:'Helvetica';font-size:79.94px;fill:#000000" text-anchor="end">40</text>
	<line x1="387.34" y1="164.22" x2="347.37" y2="164.22" style="stroke:#000000;stroke-width:5.76"/>
	<text x="327.44" y="192.23" style="font-family:'Helvetica';font-size:79.94px;fill:#000000" text-anchor="end">60</text>
	<text x="176.68" y="1315.01" style="font-family:'Helvetica';font-size:79.94px;fill:#000000" transform="rotate(-90 176.68,1315.01)" text-anchor="middle">Number of primary care positives tests</text>
	<line x1="387.34" y1="2529.28" x2="3859.02" y2="2529.28" style="stroke:#000000;stroke-width:5.76"/>
	<line x1="476.44" y1="2529.28" x2="476.44" y2="2569.25" style="stroke:#000000;stroke-width:5.76"/>
	<text x="476.44" y="2645.20" style="font-family:'Helvetica';font-size:79.94px;fill:#000000" text-anchor="middle">01mar2020</text>
	<line x1="1270.91" y1="2529.28" x2="1270.91" y2="2569.25" style="stroke:#000000;stroke-width:5.76"/>
	<text x="1270.91" y="2645.20" style="font-family:'Helvetica';font-size:79.94px;fill:#000000" text-anchor="middle">01apr2020</text>
	<line x1="2039.89" y1="2529.28" x2="2039.89" y2="2569.25" style="stroke:#000000;stroke-width:5.76"/>
	<text x="2039.89" y="2645.20" style="font-family:'Helvetica';font-size:79.94px;fill:#000000" text-anchor="middle">01may2020</text>
	<line x1="2834.49" y1="2529.28" x2="2834.49" y2="2569.25" style="stroke:#000000;stroke-width:5.76"/>
	<text x="2834.49" y="2645.20" style="font-family:'Helvetica';font-size:79.94px;fill:#000000" text-anchor="middle">01jun2020</text>
	<line x1="3603.48" y1="2529.28" x2="3603.48" y2="2569.25" style="stroke:#000000;stroke-width:5.76"/>
	<text x="3603.48" y="2645.20" style="font-family:'Helvetica';font-size:79.94px;fill:#000000" text-anchor="middle">01jul2020</text>
	<text x="2123.18" y="2735.17" style="font-family:'Helvetica';font-size:79.94px;fill:#000000" text-anchor="middle">Date</text>
</svg>
