<?xml version="1.0" encoding="UTF-8" standalone="no"?>
<!-- This is a Stata 16.1 generated SVG file (http://www.stata.com) -->

<svg version="1.1" width="5.50in" height="4.00in" viewBox="0 0 3960 2880" xmlns="http://www.w3.org/2000/svg" xmlns:xlink="http://www.w3.org/1999/xlink">
	<desc>Stata Graph - Graph</desc>
	<rect x="0" y="0" width="3960" height="2880" style="fill:#EAF2F3;stroke:none"/>
	<rect x="0.00" y="0.00" width="3959.88" height="2880.00" style="fill:#FFFFFF"/>
	<rect x="2.88" y="2.88" width="3954.12" height="2874.24" style="fill:none;stroke:#EAF2F3;stroke-width:5.76"/>
	<rect x="430.77" y="235.38" width="3428.25" height="2293.90" style="fill:#FFFFFF"/>
	<rect x="433.65" y="238.26" width="3422.49" height="2288.14" style="fill:none;stroke:#FFFFFF;stroke-width:5.76"/>
	<line x1="430.77" y1="2465.92" x2="3859.02" y2="2465.92" style="stroke:#EAF2F3;stroke-width:8.64"/>
	<line x1="430.77" y1="2249.23" x2="3859.02" y2="2249.23" style="stroke:#EAF2F3;stroke-width:8.64"/>
	<line x1="430.77" y1="2032.41" x2="3859.02" y2="2032.41" style="stroke:#EAF2F3;stroke-width:8.64"/>
	<line x1="430.77" y1="1815.72" x2="3859.02" y2="1815.72" style="stroke:#EAF2F3;stroke-width:8.64"/>
	<line x1="430.77" y1="1599.02" x2="3859.02" y2="1599.02" style="stroke:#EAF2F3;stroke-width:8.64"/>
	<line x1="430.77" y1="1382.33" x2="3859.02" y2="1382.33" style="stroke:#EAF2F3;stroke-width:8.64"/>
	<line x1="430.77" y1="1165.64" x2="3859.02" y2="1165.64" style="stroke:#EAF2F3;stroke-width:8.64"/>
	<line x1="430.77" y1="948.82" x2="3859.02" y2="948.82" style="stroke:#EAF2F3;stroke-width:8.64"/>
	<line x1="430.77" y1="732.13" x2="3859.02" y2="732.13" style="stroke:#EAF2F3;stroke-width:8.64"/>
	<line x1="430.77" y1="515.43" x2="3859.02" y2="515.43" style="stroke:#EAF2F3;stroke-width:8.64"/>
	<line x1="430.77" y1="298.74" x2="3859.02" y2="298.74" style="stroke:#EAF2F3;stroke-width:8.64"/>
	<defs>
		<path id="path_NrgjjJNj" d="M514.68 2465.92 L514.68 2465.92 L535.34 2465.92 L556.01 2465.92 L576.67 2465.92 L597.22 2465.92 L617.88 2465.80 L638.55 2465.80 L659.22 2465.55 L679.76 2465.30 L700.42 2464.81 L721.09 2464.06 L741.76 2463.07 L762.30 2461.59 L782.97 2459.73 L803.63 2457.38 L824.30 2454.41 L844.84 2450.82 L865.51 2446.49 L886.17 2441.54 L906.84 2435.72 L927.38 2429.16 L948.05 2421.74 L968.72 2413.45 L989.38 2404.41 L1009.92 2394.51 L1030.59 2383.62 L1051.26 2371.99 L1071.92 2359.49 L1092.46 2346.00 L1113.13 2331.77 L1133.80 2316.67 L1154.46 2300.58 L1175.01 2283.63 L1195.67 2265.81 L1216.34 2247.12 L1237.01 2227.57 L1257.55 2207.03 L1278.21 2185.74 L1298.88 2163.47 L1319.55 2140.32 L1340.09 2116.44 L1360.76 2091.94 L1381.42 2066.81 L1402.09 2041.20 L1422.63 2015.21 L1443.30 1988.97 L1463.96 1962.61 L1484.63 1936.25 L1505.17 1909.89 L1525.84 1883.78 L1546.50 1857.92 L1567.17 1832.42 L1587.71 1807.43 L1608.38 1782.92 L1629.05 1759.04 L1649.71 1735.65 L1670.25 1713.00 L1690.92 1690.97 L1711.59 1669.44 L1732.25 1648.65 L1752.80 1628.48 L1773.46 1608.92 L1794.13 1589.99 L1814.79 1571.67 L1835.34 1553.98 L1856.00 1536.90 L1876.67 1520.44 L1897.34 1504.48 L1917.88 1489.13 L1938.54 1474.28 L1959.21 1459.92 L1979.88 1446.19 L2000.42 1432.82 L2021.09 1419.95 L2041.75 1407.58 L2062.42 1395.57 L2082.96 1383.94 L2103.63 1372.80 L2124.29 1361.91 L2144.96 1351.52 L2165.50 1341.37 L2186.17 1331.59 L2206.83 1322.06 L2227.50 1312.90 L2248.04 1303.99 L2268.71 1295.46 L2289.38 1287.16 L2310.04 1279.12 L2330.58 1271.32 L2351.25 1263.77 L2371.92 1256.47 L2392.58 1249.42 L2413.13 1242.61 L2433.79 1235.93 L2454.46 1229.49 L2475.12 1223.18 L2495.67 1217.12 L2516.33 1211.18 L2537.00 1205.36 L2557.66 1199.79 L2578.21 1194.35 L2598.87 1189.03 L2619.54 1183.95 L2640.21 1178.88 L2660.75 1174.05 L2681.41 1169.23 L2702.08 1164.52 L2722.75 1159.94 L2743.29 1155.49 L2763.96 1151.16 L2784.62 1146.95 L2805.29 1142.74 L2825.83 1138.66 L2846.50 1134.58 L2867.16 1130.74 L2887.83 1126.78 L2908.37 1123.07 L2929.04 1119.23 L2949.70 1115.64 L2970.37 1111.93 L2990.91 1108.34 L3011.58 1104.87 L3032.25 1101.41 L3052.91 1097.94 L3073.45 1094.48 L3094.12 1091.14 L3114.79 1087.80 L3135.45 1084.46 L3156.00 1081.24 L3156.00 893.26 L3135.45 896.97 L3114.79 900.68 L3094.12 904.52 L3073.45 908.23 L3052.91 912.07 L3032.25 915.90 L3011.58 919.86 L2990.91 923.82 L2970.37 927.78 L2949.70 931.74 L2929.04 935.83 L2908.37 939.91 L2887.83 944.12 L2867.16 948.33 L2846.50 952.66 L2825.83 956.99 L2805.29 961.44 L2784.62 966.02 L2763.96 970.60 L2743.29 975.30 L2722.75 980.13 L2702.08 985.08 L2681.41 990.15 L2660.75 995.35 L2640.21 1000.67 L2619.54 1006.12 L2598.87 1011.69 L2578.21 1017.38 L2557.66 1023.32 L2537.00 1029.38 L2516.33 1035.57 L2495.67 1042.01 L2475.12 1048.69 L2454.46 1055.50 L2433.79 1062.55 L2413.13 1069.85 L2392.58 1077.28 L2371.92 1085.07 L2351.25 1093.12 L2330.58 1101.41 L2310.04 1109.95 L2289.38 1118.73 L2268.71 1127.89 L2248.04 1137.42 L2227.50 1147.20 L2206.83 1157.35 L2186.17 1167.74 L2165.50 1178.63 L2144.96 1189.77 L2124.29 1201.40 L2103.63 1213.41 L2082.96 1225.78 L2062.42 1238.65 L2041.75 1251.89 L2021.09 1265.51 L2000.42 1279.61 L1979.88 1294.22 L1959.21 1309.32 L1938.54 1324.91 L1917.88 1341.12 L1897.34 1357.83 L1876.67 1375.03 L1856.00 1392.97 L1835.34 1411.54 L1814.79 1430.72 L1794.13 1450.52 L1773.46 1471.19 L1752.80 1492.47 L1732.25 1514.62 L1711.59 1537.39 L1690.92 1561.03 L1670.25 1585.53 L1649.71 1610.78 L1629.05 1636.77 L1608.38 1663.62 L1587.71 1691.10 L1567.17 1719.31 L1546.50 1748.02 L1525.84 1776.98 L1505.17 1806.31 L1484.63 1835.64 L1463.96 1865.09 L1443.30 1894.30 L1422.63 1923.38 L1402.09 1952.09 L1381.42 1980.43 L1360.76 2008.40 L1340.09 2035.75 L1319.55 2062.36 L1298.88 2088.47 L1278.21 2113.72 L1257.55 2138.34 L1237.01 2161.98 L1216.34 2185.00 L1195.67 2207.03 L1175.01 2228.19 L1154.46 2248.36 L1133.80 2267.67 L1113.13 2285.98 L1092.46 2303.31 L1071.92 2319.64 L1051.26 2334.86 L1030.59 2349.10 L1009.92 2362.34 L989.38 2374.59 L968.72 2385.85 L948.05 2396.25 L927.38 2405.53 L906.84 2414.07 L886.17 2421.74 L865.51 2428.55 L844.84 2434.73 L824.30 2440.18 L803.63 2444.88 L782.97 2448.97 L762.30 2452.55 L741.76 2455.52 L721.09 2458.00 L700.42 2460.10 L679.76 2461.71 L659.22 2463.07 L638.55 2464.06 L617.88 2464.81 L597.22 2465.30 L576.67 2465.55 L556.01 2465.80 L535.34 2465.92 L514.68 2465.92 L514.68 2465.92 Z" stroke-linejoin="round"/>
	</defs>
	<defs>
		<clipPath id="clipPath_NWkgvDiq">
			<use xlink:href="#path_NrgjjJNj"/>
		</clipPath>
	</defs>
	<use xlink:href="#path_NrgjjJNj" style="stroke:none;fill:#FF3333;fill-opacity:0.25"/>
	<use xlink:href="#path_NrgjjJNj" style="fill:none;stroke:#FF0000;stroke-opacity:0.25;stroke-width:17.28" clip-path="url(#clipPath_NWkgvDiq)"/>
	<defs>
		<path id="path_VFUkHVmd" d="M514.68 2465.92 L514.68 2465.92 L535.34 2465.92 L556.01 2465.92 L576.67 2465.92 L597.22 2465.92 L617.88 2465.80 L638.55 2465.80 L659.22 2465.55 L679.76 2465.30 L700.42 2464.93 L721.09 2464.31 L741.76 2463.32 L762.30 2462.08 L782.97 2460.47 L803.63 2458.37 L824.30 2455.77 L844.84 2452.68 L865.51 2448.97 L886.17 2444.63 L906.84 2439.56 L927.38 2433.99 L948.05 2427.56 L968.72 2420.63 L989.38 2412.83 L1009.92 2404.41 L1030.59 2395.13 L1051.26 2385.36 L1071.92 2374.71 L1092.46 2363.33 L1113.13 2351.32 L1133.80 2338.58 L1154.46 2324.96 L1175.01 2310.73 L1195.67 2295.76 L1216.34 2280.17 L1237.01 2263.71 L1257.55 2246.50 L1278.21 2228.68 L1298.88 2210.24 L1319.55 2190.94 L1340.09 2171.14 L1360.76 2150.84 L1381.42 2130.05 L1402.09 2108.89 L1422.63 2087.48 L1443.30 2065.82 L1463.96 2044.04 L1484.63 2022.14 L1505.17 2000.48 L1525.84 1978.82 L1546.50 1957.41 L1567.17 1936.38 L1587.71 1915.71 L1608.38 1895.41 L1629.05 1875.61 L1649.71 1856.31 L1670.25 1837.62 L1690.92 1819.43 L1711.59 1801.73 L1732.25 1784.65 L1752.80 1768.07 L1773.46 1751.98 L1794.13 1736.51 L1814.79 1721.54 L1835.34 1706.94 L1856.00 1692.95 L1876.67 1679.46 L1897.34 1666.35 L1917.88 1653.85 L1938.54 1641.60 L1959.21 1629.96 L1979.88 1618.58 L2000.42 1607.69 L2021.09 1597.04 L2041.75 1586.90 L2062.42 1577.00 L2082.96 1567.47 L2103.63 1558.18 L2124.29 1549.27 L2144.96 1540.61 L2165.50 1532.32 L2186.17 1524.28 L2206.83 1516.48 L2227.50 1508.93 L2248.04 1501.63 L2268.71 1494.58 L2289.38 1487.77 L2310.04 1481.09 L2330.58 1474.77 L2351.25 1468.59 L2371.92 1462.52 L2392.58 1456.71 L2413.13 1451.14 L2433.79 1445.57 L2454.46 1440.37 L2475.12 1435.17 L2495.67 1430.22 L2516.33 1425.40 L2537.00 1420.57 L2557.66 1415.99 L2578.21 1411.54 L2598.87 1407.21 L2619.54 1403.00 L2640.21 1398.91 L2660.75 1394.95 L2681.41 1390.99 L2702.08 1387.16 L2722.75 1383.44 L2743.29 1379.73 L2763.96 1376.27 L2784.62 1372.68 L2805.29 1369.34 L2825.83 1366.00 L2846.50 1362.65 L2867.16 1359.44 L2887.83 1356.22 L2908.37 1353.12 L2929.04 1350.03 L2949.70 1347.06 L2970.37 1343.97 L2990.91 1341.12 L3011.58 1338.15 L3032.25 1335.30 L3052.91 1332.46 L3073.45 1329.61 L3094.12 1326.89 L3114.79 1324.04 L3135.45 1321.32 L3156.00 1318.60 L3156.00 937.06 L3135.45 940.78 L3114.79 944.37 L3094.12 948.08 L3073.45 951.79 L3052.91 955.50 L3032.25 959.22 L3011.58 963.05 L2990.91 966.89 L2970.37 970.73 L2949.70 974.69 L2929.04 978.65 L2908.37 982.73 L2887.83 986.81 L2867.16 990.90 L2846.50 995.23 L2825.83 999.44 L2805.29 1003.89 L2784.62 1008.35 L2763.96 1012.93 L2743.29 1017.50 L2722.75 1022.33 L2702.08 1027.16 L2681.41 1032.11 L2660.75 1037.18 L2640.21 1042.50 L2619.54 1047.82 L2598.87 1053.27 L2578.21 1058.96 L2557.66 1064.78 L2537.00 1070.72 L2516.33 1076.91 L2495.67 1083.22 L2475.12 1089.78 L2454.46 1096.46 L2433.79 1103.39 L2413.13 1110.57 L2392.58 1117.87 L2371.92 1125.54 L2351.25 1133.34 L2330.58 1141.51 L2310.04 1149.92 L2289.38 1158.58 L2268.71 1167.49 L2248.04 1176.78 L2227.50 1186.43 L2206.83 1196.33 L2186.17 1206.60 L2165.50 1217.12 L2144.96 1228.13 L2124.29 1239.52 L2103.63 1251.28 L2082.96 1263.40 L2062.42 1275.90 L2041.75 1288.90 L2021.09 1302.26 L2000.42 1316.12 L1979.88 1330.48 L1959.21 1345.33 L1938.54 1360.67 L1917.88 1376.51 L1897.34 1392.85 L1876.67 1409.93 L1856.00 1427.50 L1835.34 1445.69 L1814.79 1464.63 L1794.13 1484.18 L1773.46 1504.48 L1752.80 1525.39 L1732.25 1547.05 L1711.59 1569.45 L1690.92 1592.59 L1670.25 1616.47 L1649.71 1641.10 L1629.05 1666.59 L1608.38 1692.71 L1587.71 1719.44 L1567.17 1746.91 L1546.50 1774.88 L1525.84 1803.09 L1505.17 1831.56 L1484.63 1860.27 L1463.96 1888.86 L1443.30 1917.44 L1422.63 1945.78 L1402.09 1973.87 L1381.42 2001.60 L1360.76 2028.70 L1340.09 2055.30 L1319.55 2081.29 L1298.88 2106.54 L1278.21 2131.04 L1257.55 2154.80 L1237.01 2177.70 L1216.34 2199.72 L1195.67 2220.89 L1175.01 2241.18 L1154.46 2260.49 L1133.80 2278.93 L1113.13 2296.50 L1092.46 2312.96 L1071.92 2328.55 L1051.26 2343.03 L1030.59 2356.64 L1009.92 2369.14 L989.38 2380.78 L968.72 2391.42 L948.05 2401.20 L927.38 2409.98 L906.84 2418.03 L886.17 2425.20 L865.51 2431.64 L844.84 2437.33 L824.30 2442.28 L803.63 2446.61 L782.97 2450.45 L762.30 2453.67 L741.76 2456.51 L721.09 2458.74 L700.42 2460.60 L679.76 2462.21 L659.22 2463.32 L638.55 2464.19 L617.88 2464.93 L597.22 2465.30 L576.67 2465.67 L556.01 2465.80 L535.34 2465.92 L514.68 2465.92 L514.68 2465.92 Z" stroke-linejoin="round"/>
	</defs>
	<defs>
		<clipPath id="clipPath_ELZmfWHU">
			<use xlink:href="#path_VFUkHVmd"/>
		</clipPath>
	</defs>
	<use xlink:href="#path_VFUkHVmd" style="stroke:none;fill:#3333FF;fill-opacity:0.25"/>
	<use xlink:href="#path_VFUkHVmd" style="fill:none;stroke:#0000FF;stroke-opacity:0.25;stroke-width:17.28" clip-path="url(#clipPath_ELZmfWHU)"/>
	<path d=" M494.01 2465.92 L514.68 2465.92 L535.34 2465.92 L555.88 2465.92 L576.55 2465.92 L597.22 2465.80 L617.88 2465.67 L638.43 2465.42 L659.09 2465.05 L679.76 2464.31 L700.42 2463.44 L720.97 2462.21 L741.63 2460.47 L762.30 2458.37 L782.97 2455.77 L803.51 2452.55 L824.17 2448.72 L844.84 2444.26 L865.51 2439.06 L886.05 2433.12 L906.72 2426.44 L927.38 2418.89 L948.05 2410.48 L968.59 2401.20 L989.26 2391.05 L1009.92 2379.91 L1030.59 2368.03 L1051.13 2355.04 L1071.80 2341.18 L1092.46 2326.33 L1113.13 2310.61 L1133.67 2293.90 L1154.34 2276.33 L1175.01 2257.89 L1195.67 2238.34 L1216.21 2218.04 L1236.88 2196.88 L1257.55 2174.73 L1278.21 2151.83 L1298.76 2128.07 L1319.42 2103.57 L1340.09 2078.20 L1360.76 2052.33 L1381.30 2025.85 L1401.96 1998.87 L1422.63 1971.52 L1443.30 1943.80 L1463.84 1916.08 L1484.51 1888.24 L1505.17 1860.39 L1525.84 1832.67 L1546.38 1805.32 L1567.05 1778.34 L1587.71 1751.74 L1608.38 1725.75 L1628.92 1700.38 L1649.59 1675.75 L1670.25 1651.87 L1690.92 1628.60 L1711.46 1606.08 L1732.13 1584.17 L1752.80 1563.14 L1773.46 1542.72 L1794.00 1522.92 L1814.67 1503.86 L1835.34 1485.42 L1856.00 1467.60 L1876.55 1450.40 L1897.21 1433.81 L1917.88 1417.72 L1938.54 1402.26 L1959.09 1387.40 L1979.75 1372.93 L2000.42 1358.94 L2021.09 1345.45 L2041.63 1332.46 L2062.29 1319.83 L2082.96 1307.58 L2103.63 1295.83 L2124.17 1284.44 L2144.84 1273.43 L2165.50 1262.78 L2186.17 1252.51 L2206.71 1242.49 L2227.38 1232.84 L2248.04 1223.55 L2268.71 1214.52 L2289.25 1205.86 L2309.92 1197.44 L2330.58 1189.27 L2351.25 1181.35 L2371.79 1173.68 L2392.46 1166.26 L2413.13 1159.08 L2433.79 1152.15 L2454.33 1145.34 L2475.00 1138.91 L2495.67 1132.47 L2516.33 1126.28 L2536.88 1120.34 L2557.54 1114.53 L2578.21 1108.83 L2598.87 1103.27 L2619.42 1097.94 L2640.08 1092.75 L2660.75 1087.67 L2681.41 1082.60 L2701.96 1077.77 L2722.62 1073.07 L2743.29 1068.37 L2763.96 1063.91 L2784.50 1059.46 L2805.16 1055.13 L2825.83 1050.79 L2846.50 1046.59 L2867.04 1042.50 L2887.71 1038.42 L2908.37 1034.46 L2929.04 1030.50 L2949.58 1026.66 L2970.25 1022.83 L2990.91 1019.11 L3011.58 1015.40 L3032.12 1011.69 L3052.79 1007.98 L3073.45 1004.39 L3094.12 1000.80 L3114.66 997.33 L3135.33 993.74 L3156.00 990.28" stroke-linejoin="round" style="fill:none;stroke:#FF0000;stroke-width:8.64"/>
	<path d=" M494.01 2465.92 L514.68 2465.92 L535.34 2465.92 L555.88 2465.92 L576.55 2465.92 L597.22 2465.80 L617.88 2465.67 L638.43 2465.42 L659.09 2465.05 L679.76 2464.56 L700.42 2463.69 L720.97 2462.58 L741.63 2461.09 L762.30 2459.11 L782.97 2456.76 L803.51 2453.92 L824.17 2450.57 L844.84 2446.49 L865.51 2441.91 L886.05 2436.59 L906.72 2430.53 L927.38 2423.72 L948.05 2416.17 L968.59 2407.88 L989.26 2398.72 L1009.92 2388.82 L1030.59 2378.05 L1051.13 2366.42 L1071.80 2354.05 L1092.46 2340.68 L1113.13 2326.57 L1133.67 2311.60 L1154.34 2295.88 L1175.01 2279.30 L1195.67 2261.85 L1216.21 2243.53 L1236.88 2224.48 L1257.55 2204.68 L1278.21 2184.13 L1298.76 2162.85 L1319.42 2140.82 L1340.09 2118.17 L1360.76 2094.78 L1381.30 2071.02 L1401.96 2046.89 L1422.63 2022.26 L1443.30 1997.51 L1463.84 1972.51 L1484.51 1947.51 L1505.17 1922.64 L1525.84 1897.77 L1546.38 1873.26 L1567.05 1848.88 L1587.71 1825.12 L1608.38 1801.73 L1628.92 1779.09 L1649.59 1756.93 L1670.25 1735.40 L1690.92 1714.61 L1711.46 1694.31 L1732.13 1674.76 L1752.80 1655.83 L1773.46 1637.51 L1794.00 1619.69 L1814.67 1602.61 L1835.34 1586.03 L1856.00 1570.07 L1876.55 1554.60 L1897.21 1539.75 L1917.88 1525.39 L1938.54 1511.53 L1959.09 1498.04 L1979.75 1485.05 L2000.42 1472.55 L2021.09 1460.42 L2041.63 1448.79 L2062.29 1437.40 L2082.96 1426.51 L2103.63 1415.87 L2124.17 1405.72 L2144.84 1395.82 L2165.50 1386.29 L2186.17 1377.01 L2206.71 1368.10 L2227.38 1359.44 L2248.04 1351.02 L2268.71 1342.98 L2289.25 1335.18 L2309.92 1327.51 L2330.58 1320.21 L2351.25 1313.15 L2371.79 1306.22 L2392.46 1299.66 L2413.13 1293.23 L2433.79 1286.92 L2454.33 1280.85 L2475.00 1275.04 L2495.67 1269.22 L2516.33 1263.77 L2536.88 1258.33 L2557.54 1253.13 L2578.21 1248.06 L2598.87 1243.11 L2619.42 1238.28 L2640.08 1233.58 L2660.75 1229.00 L2681.41 1224.54 L2701.96 1220.21 L2722.62 1215.88 L2743.29 1211.67 L2763.96 1207.71 L2784.50 1203.63 L2805.16 1199.79 L2825.83 1195.96 L2846.50 1192.12 L2867.04 1188.41 L2887.71 1184.82 L2908.37 1181.23 L2929.04 1177.77 L2949.58 1174.30 L2970.25 1170.84 L2990.91 1167.49 L3011.58 1164.15 L3032.12 1160.81 L3052.79 1157.47 L3073.45 1154.25 L3094.12 1151.03 L3114.66 1147.94 L3135.33 1144.72 L3156.00 1141.63" stroke-linejoin="round" style="fill:none;stroke:#0000FF;stroke-width:8.64"/>
	<line x1="430.77" y1="2529.28" x2="430.77" y2="235.38" style="stroke:#000000;stroke-width:5.76"/>
	<line x1="430.77" y1="2465.92" x2="390.80" y2="2465.92" style="stroke:#000000;stroke-width:5.76"/>
	<text x="370.75" y="2493.93" style="font-family:'Helvetica';font-size:79.94px;fill:#000000" text-anchor="end">0.0</text>
	<line x1="430.77" y1="2249.23" x2="390.80" y2="2249.23" style="stroke:#000000;stroke-width:5.76"/>
	<text x="370.75" y="2277.24" style="font-family:'Helvetica';font-size:79.94px;fill:#000000" text-anchor="end">0.1</text>
	<line x1="430.77" y1="2032.41" x2="390.80" y2="2032.41" style="stroke:#000000;stroke-width:5.76"/>
	<text x="370.75" y="2060.42" style="font-family:'Helvetica';font-size:79.94px;fill:#000000" text-anchor="end">0.2</text>
	<line x1="430.77" y1="1815.72" x2="390.80" y2="1815.72" style="stroke:#000000;stroke-width:5.76"/>
	<text x="370.75" y="1843.73" style="font-family:'Helvetica';font-size:79.94px;fill:#000000" text-anchor="end">0.3</text>
	<line x1="430.77" y1="1599.02" x2="390.80" y2="1599.02" style="stroke:#000000;stroke-width:5.76"/>
	<text x="370.75" y="1627.04" style="font-family:'Helvetica';font-size:79.94px;fill:#000000" text-anchor="end">0.4</text>
	<line x1="430.77" y1="1382.33" x2="390.80" y2="1382.33" style="stroke:#000000;stroke-width:5.76"/>
	<text x="370.75" y="1410.34" style="font-family:'Helvetica';font-size:79.94px;fill:#000000" text-anchor="end">0.5</text>
	<line x1="430.77" y1="1165.64" x2="390.80" y2="1165.64" style="stroke:#000000;stroke-width:5.76"/>
	<text x="370.75" y="1193.65" style="font-family:'Helvetica';font-size:79.94px;fill:#000000" text-anchor="end">0.6</text>
	<line x1="430.77" y1="948.82" x2="390.80" y2="948.82" style="stroke:#000000;stroke-width:5.76"/>
	<text x="370.75" y="976.83" style="font-family:'Helvetica';font-size:79.94px;fill:#000000" text-anchor="end">0.7</text>
	<line x1="430.77" y1="732.13" x2="390.80" y2="732.13" style="stroke:#000000;stroke-width:5.76"/>
	<text x="370.75" y="760.14" style="font-family:'Helvetica';font-size:79.94px;fill:#000000" text-anchor="end">0.8</text>
	<line x1="430.77" y1="515.43" x2="390.80" y2="515.43" style="stroke:#000000;stroke-width:5.76"/>
	<text x="370.75" y="543.45" style="font-family:'Helvetica';font-size:79.94px;fill:#000000" text-anchor="end">0.9</text>
	<line x1="430.77" y1="298.74" x2="390.80" y2="298.74" style="stroke:#000000;stroke-width:5.76"/>
	<text x="370.75" y="326.75" style="font-family:'Helvetica';font-size:79.94px;fill:#000000" text-anchor="end">1.0</text>
	<text x="190.71" y="1382.33" style="font-family:'Helvetica';font-size:99.99px;fill:#000000" transform="rotate(-90 190.71,1382.33)" text-anchor="middle">Cumulative incidence (%)</text>
	<line x1="430.77" y1="2529.28" x2="3859.02" y2="2529.28" style="stroke:#000000;stroke-width:5.76"/>
	<line x1="494.13" y1="2529.28" x2="494.13" y2="2569.25" style="stroke:#000000;stroke-width:5.76"/>
	<text x="494.13" y="2645.20" style="font-family:'Helvetica';font-size:79.94px;fill:#000000" text-anchor="middle">0</text>
	<line x1="906.84" y1="2529.28" x2="906.84" y2="2569.25" style="stroke:#000000;stroke-width:5.76"/>
	<text x="906.84" y="2645.20" style="font-family:'Helvetica';font-size:79.94px;fill:#000000" text-anchor="middle">20</text>
	<line x1="1319.55" y1="2529.28" x2="1319.55" y2="2569.25" style="stroke:#000000;stroke-width:5.76"/>
	<text x="1319.55" y="2645.20" style="font-family:'Helvetica';font-size:79.94px;fill:#000000" text-anchor="middle">40</text>
	<line x1="1732.25" y1="2529.28" x2="1732.25" y2="2569.25" style="stroke:#000000;stroke-width:5.76"/>
	<text x="1732.25" y="2645.20" style="font-family:'Helvetica';font-size:79.94px;fill:#000000" text-anchor="middle">60</text>
	<line x1="2144.96" y1="2529.28" x2="2144.96" y2="2569.25" style="stroke:#000000;stroke-width:5.76"/>
	<text x="2144.96" y="2645.20" style="font-family:'Helvetica';font-size:79.94px;fill:#000000" text-anchor="middle">80</text>
	<line x1="2557.66" y1="2529.28" x2="2557.66" y2="2569.25" style="stroke:#000000;stroke-width:5.76"/>
	<text x="2557.66" y="2645.20" style="font-family:'Helvetica';font-size:79.94px;fill:#000000" text-anchor="middle">100</text>
	<line x1="2970.37" y1="2529.28" x2="2970.37" y2="2569.25" style="stroke:#000000;stroke-width:5.76"/>
	<text x="2970.37" y="2645.20" style="font-family:'Helvetica';font-size:79.94px;fill:#000000" text-anchor="middle">120</text>
	<line x1="3383.08" y1="2529.28" x2="3383.08" y2="2569.25" style="stroke:#000000;stroke-width:5.76"/>
	<text x="3383.08" y="2645.20" style="font-family:'Helvetica';font-size:79.94px;fill:#000000" text-anchor="middle">140</text>
	<line x1="3795.78" y1="2529.28" x2="3795.78" y2="2569.25" style="stroke:#000000;stroke-width:5.76"/>
	<text x="3795.78" y="2645.20" style="font-family:'Helvetica';font-size:79.94px;fill:#000000" text-anchor="middle">160</text>
	<text x="2144.96" y="2735.17" style="font-family:'Helvetica';font-size:79.94px;fill:#000000" text-anchor="middle">Days since 1 Mar 2020</text>
	<rect x="465.30" y="269.91" width="917.48" height="326.46" style="fill:#FFFFFF"/>
	<rect x="468.18" y="272.79" width="911.72" height="320.70" style="fill:none;stroke:#EAF2F3;stroke-width:5.76"/>
	<rect x="508.49" y="313.10" width="374.34" height="99.99" style="fill:#FF3333;fill-opacity:0.25"/>
	<rect x="512.81" y="317.42" width="365.70" height="91.35" style="fill:none;stroke:#FF0000;stroke-opacity:0.25;stroke-width:8.64"/>
	<rect x="508.49" y="453.06" width="374.34" height="99.99" style="fill:#3333FF;fill-opacity:0.25"/>
	<rect x="512.81" y="457.38" width="365.70" height="91.35" style="fill:none;stroke:#0000FF;stroke-opacity:0.25;stroke-width:8.64"/>
	<text x="942.85" y="398.12" style="font-family:'Helvetica';font-size:99.99px;fill:#000000">No HCQ</text>
	<text x="942.85" y="538.09" style="font-family:'Helvetica';font-size:99.99px;fill:#000000">HCQ</text>
	<text x="1118.33" y="187.99" style="font-family:'Helvetica';font-size:99.99px;fill:#1E2D53">Time to Primary care positive COVID-19 test</text>
</svg>
