<?xml version="1.0" encoding="UTF-8" standalone="no"?>
<!-- This is a Stata 16.1 generated SVG file (http://www.stata.com) -->

<svg version="1.1" width="5.50in" height="4.00in" viewBox="0 0 3960 2880" xmlns="http://www.w3.org/2000/svg" xmlns:xlink="http://www.w3.org/1999/xlink">
	<desc>Stata Graph - Graph</desc>
	<rect x="0" y="0" width="3960" height="2880" style="fill:#EAF2F3;stroke:none"/>
	<rect x="0.00" y="0.00" width="3959.88" height="2880.00" style="fill:#FFFFFF"/>
	<rect x="2.88" y="2.88" width="3954.12" height="2874.24" style="fill:none;stroke:#EAF2F3;stroke-width:5.76"/>
	<rect x="619.12" y="490.93" width="3221.71" height="1818.32" style="fill:#FFFFFF"/>
	<rect x="622.00" y="493.81" width="3215.95" height="1812.56" style="fill:none;stroke:#FFFFFF;stroke-width:5.76"/>
	<line x1="619.12" y1="2245.89" x2="3840.83" y2="2245.89" style="stroke:#EAF2F3;stroke-width:8.64"/>
	<line x1="619.12" y1="2076.71" x2="3840.83" y2="2076.71" style="stroke:#EAF2F3;stroke-width:8.64"/>
	<line x1="619.12" y1="1907.54" x2="3840.83" y2="1907.54" style="stroke:#EAF2F3;stroke-width:8.64"/>
	<line x1="619.12" y1="1738.37" x2="3840.83" y2="1738.37" style="stroke:#EAF2F3;stroke-width:8.64"/>
	<line x1="619.12" y1="1569.20" x2="3840.83" y2="1569.20" style="stroke:#EAF2F3;stroke-width:8.64"/>
	<line x1="619.12" y1="1400.03" x2="3840.83" y2="1400.03" style="stroke:#EAF2F3;stroke-width:8.64"/>
	<line x1="619.12" y1="1230.86" x2="3840.83" y2="1230.86" style="stroke:#EAF2F3;stroke-width:8.64"/>
	<line x1="619.12" y1="1061.68" x2="3840.83" y2="1061.68" style="stroke:#EAF2F3;stroke-width:8.64"/>
	<line x1="619.12" y1="892.51" x2="3840.83" y2="892.51" style="stroke:#EAF2F3;stroke-width:8.64"/>
	<line x1="619.12" y1="723.47" x2="3840.83" y2="723.47" style="stroke:#EAF2F3;stroke-width:8.64"/>
	<line x1="619.12" y1="554.29" x2="3840.83" y2="554.29" style="stroke:#EAF2F3;stroke-width:8.64"/>
	<path d=" M682.48 2246.01 L682.48 2246.01 L682.48 2246.01 L701.79 2246.01 L701.79 2244.90 L721.09 2244.90 L721.09 2244.90 L740.52 2244.90 L740.52 2244.90 L759.83 2244.90 L759.83 2244.90 L779.13 2244.90 L779.13 2244.90 L798.56 2244.90 L798.56 2244.90 L817.86 2244.90 L817.86 2244.90 L837.17 2244.90 L837.17 2243.91 L856.60 2243.91 L856.60 2242.79 L875.90 2242.79 L875.90 2241.80 L895.21 2241.80 L895.21 2241.80 L914.64 2241.80 L914.64 2239.70 L933.94 2239.70 L933.94 2239.70 L953.25 2239.70 L953.25 2239.70 L972.55 2239.70 L972.55 2236.60 L991.98 2236.60 L991.98 2231.41 L1011.28 2231.41 L1011.28 2229.30 L1030.59 2229.30 L1030.59 2225.22 L1050.02 2225.22 L1050.02 2220.02 L1069.32 2220.02 L1069.32 2217.92 L1088.63 2217.92 L1088.63 2214.82 L1108.06 2214.82 L1108.06 2206.41 L1127.36 2206.41 L1127.36 2197.13 L1146.67 2197.13 L1146.67 2187.72 L1166.10 2187.72 L1166.10 2179.31 L1185.40 2179.31 L1185.40 2172.00 L1204.71 2172.00 L1204.71 2163.71 L1224.01 2163.71 L1224.01 2154.31 L1243.44 2154.31 L1243.44 2136.61 L1262.74 2136.61 L1262.74 2117.80 L1282.05 2117.80 L1282.05 2080.18 L1301.48 2080.18 L1301.48 2060.25 L1320.78 2060.25 L1320.78 2031.05 L1340.09 2031.05 L1340.09 2020.53 L1359.52 2020.53 L1359.52 2013.23 L1378.82 2013.23 L1378.82 1991.20 L1398.13 1991.20 L1398.13 1980.80 L1417.56 1980.80 L1417.56 1957.79 L1436.86 1957.79 L1436.86 1940.96 L1456.17 1940.96 L1456.17 1926.35 L1475.47 1926.35 L1475.47 1916.95 L1494.90 1916.95 L1494.90 1909.52 L1514.20 1909.52 L1514.20 1898.01 L1533.51 1898.01 L1533.51 1841.46 L1552.94 1841.46 L1552.94 1808.91 L1572.24 1808.91 L1572.24 1792.08 L1591.55 1792.08 L1591.55 1745.92 L1610.98 1745.92 L1610.98 1739.61 L1630.28 1739.61 L1630.28 1728.10 L1649.59 1728.10 L1649.59 1689.24 L1669.02 1689.24 L1669.02 1668.20 L1688.32 1668.20 L1688.32 1659.79 L1707.63 1659.79 L1707.63 1635.65 L1727.06 1635.65 L1727.06 1623.03 L1746.36 1623.03 L1746.36 1614.62 L1765.66 1614.62 L1765.66 1609.30 L1784.97 1609.30 L1784.97 1573.53 L1804.40 1573.53 L1804.40 1538.76 L1823.70 1538.76 L1823.70 1526.13 L1843.01 1526.13 L1843.01 1502.99 L1862.44 1502.99 L1862.44 1481.95 L1881.74 1481.95 L1881.74 1474.53 L1901.05 1474.53 L1901.05 1472.42 L1920.48 1472.42 L1920.48 1457.70 L1939.78 1457.70 L1939.78 1436.66 L1959.09 1436.66 L1959.09 1425.03 L1978.52 1425.03 L1978.52 1402.87 L1997.82 1402.87 L1997.82 1392.35 L2017.13 1392.35 L2017.13 1389.14 L2036.43 1389.14 L2036.43 1388.15 L2055.86 1388.15 L2055.86 1370.20 L2075.16 1370.20 L2075.16 1353.25 L2094.47 1353.25 L2094.47 1345.82 L2113.90 1345.82 L2113.90 1328.99 L2133.20 1328.99 L2133.20 1321.57 L2152.51 1321.57 L2152.51 1318.35 L2171.94 1318.35 L2171.94 1313.15 L2191.24 1313.15 L2191.24 1285.68 L2210.55 1285.68 L2210.55 1262.41 L2229.97 1262.41 L2229.97 1249.67 L2249.28 1249.67 L2249.28 1240.26 L2268.59 1240.26 L2268.59 1229.62 L2287.89 1229.62 L2287.89 1227.51 L2307.32 1227.51 L2307.32 1224.30 L2326.62 1224.30 L2326.62 1223.31 L2345.93 1223.31 L2345.93 1210.56 L2365.36 1210.56 L2365.36 1206.35 L2384.66 1206.35 L2384.66 1204.25 L2403.97 1204.25 L2403.97 1197.94 L2423.40 1197.94 L2423.40 1194.72 L2442.70 1194.72 L2442.70 1192.62 L2462.01 1192.62 L2462.01 1188.41 L2481.43 1188.41 L2481.43 1180.98 L2500.74 1180.98 L2500.74 1175.66 L2520.05 1175.66 L2520.05 1165.02 L2539.35 1165.02 L2539.35 1162.92 L2558.78 1162.92 L2558.78 1159.70 L2578.08 1159.70 L2578.08 1157.59 L2597.39 1157.59 L2597.39 1152.27 L2616.82 1152.27 L2616.82 1140.64 L2636.12 1140.64 L2636.12 1133.21 L2655.43 1133.21 L2655.43 1124.80 L2674.86 1124.80 L2674.86 1118.36 L2694.16 1118.36 L2694.16 1114.16 L2713.47 1114.16 L2713.47 1109.95 L2732.89 1109.95 L2732.89 1104.63 L2752.20 1104.63 L2752.20 1101.41 L2771.51 1101.41 L2771.51 1098.19 L2790.81 1098.19 L2790.81 1095.10 L2810.24 1095.10 L2810.24 1090.77 L2829.54 1090.77 L2829.54 1087.55 L2848.85 1087.55 L2848.85 1086.56 L2868.28 1086.56 L2868.28 1082.35 L2887.58 1082.35 L2887.58 1077.03 L2906.89 1077.03 L2906.89 1070.59 L2926.32 1070.59 L2926.32 1067.38 L2945.62 1067.38 L2945.62 1066.39 L2964.93 1066.39 L2964.93 1065.27 L2984.36 1065.27 L2984.36 1064.28 L3003.66 1064.28 L3003.66 1063.17 L3022.97 1063.17 L3022.97 1056.73 L3042.39 1056.73 L3042.39 1053.64 L3061.70 1053.64 L3061.70 1050.42 L3081.00 1050.42 L3081.00 1045.10 L3119.74 1045.10 L3119.74 1043.00 L3139.04 1043.00 L3139.04 1040.89 L3158.35 1040.89 L3158.35 1040.89 L3177.78 1040.89 L3177.78 1039.78" stroke-linejoin="round" style="fill:none;stroke:#1A476F;stroke-width:8.64"/>
	<path d=" M682.48 2246.01 L682.48 2246.01 L682.48 2246.01 L701.79 2246.01 L701.79 2246.01 L721.09 2246.01 L721.09 2246.01 L740.52 2246.01 L740.52 2246.01 L759.83 2246.01 L759.83 2246.01 L779.13 2246.01 L779.13 2246.01 L798.56 2246.01 L798.56 2246.01 L817.86 2246.01 L817.86 2246.01 L837.17 2246.01 L837.17 2246.01 L875.90 2246.01 L875.90 2246.01 L895.21 2246.01 L895.21 2246.01 L914.64 2246.01 L914.64 2246.01 L933.94 2246.01 L933.94 2246.01 L953.25 2246.01 L953.25 2246.01 L972.55 2246.01 L972.55 2240.44 L991.98 2240.44 L991.98 2240.44 L1011.28 2240.44 L1011.28 2240.44 L1050.02 2240.44 L1050.02 2234.87 L1069.32 2234.87 L1069.32 2234.87 L1088.63 2234.87 L1088.63 2229.30 L1108.06 2229.30 L1108.06 2223.73 L1127.36 2223.73 L1127.36 2212.60 L1146.67 2212.60 L1146.67 2207.15 L1166.10 2207.15 L1166.10 2196.01 L1185.40 2196.01 L1185.40 2190.44 L1204.71 2190.44 L1204.71 2184.87 L1224.01 2184.87 L1224.01 2179.31 L1243.44 2179.31 L1243.44 2162.60 L1262.74 2162.60 L1262.74 2151.58 L1282.05 2151.58 L1282.05 2140.45 L1301.48 2140.45 L1301.48 2140.45 L1320.78 2140.45 L1320.78 2123.74 L1340.09 2123.74 L1340.09 2118.17 L1359.52 2118.17 L1359.52 2101.59 L1378.82 2101.59 L1378.82 2073.74 L1398.13 2073.74 L1398.13 2057.04 L1417.56 2057.04 L1417.56 2040.33 L1436.86 2040.33 L1436.86 2001.47 L1456.17 2001.47 L1456.17 1990.33 L1475.47 1990.33 L1475.47 1990.33 L1494.90 1990.33 L1494.90 1973.63 L1514.20 1973.63 L1514.20 1956.92 L1533.51 1956.92 L1533.51 1918.06 L1552.94 1918.06 L1552.94 1906.92 L1572.24 1906.92 L1572.24 1906.92 L1591.55 1906.92 L1591.55 1862.37 L1610.98 1862.37 L1610.98 1862.37 L1630.28 1862.37 L1630.28 1856.80 L1649.59 1856.80 L1649.59 1834.53 L1669.02 1834.53 L1669.02 1823.39 L1688.32 1823.39 L1688.32 1817.82 L1707.63 1817.82 L1707.63 1806.68 L1727.06 1806.68 L1727.06 1801.11 L1746.36 1801.11 L1746.36 1789.98 L1765.66 1789.98 L1765.66 1778.84 L1784.97 1778.84 L1784.97 1756.56 L1804.40 1756.56 L1804.40 1672.90 L1823.70 1672.90 L1823.70 1639.49 L1843.01 1639.49 L1843.01 1617.22 L1862.44 1617.22 L1862.44 1594.82 L1881.74 1594.82 L1881.74 1589.25 L1901.05 1589.25 L1901.05 1578.11 L1920.48 1578.11 L1920.48 1566.97 L1939.78 1566.97 L1939.78 1544.70 L1959.09 1544.70 L1959.09 1527.99 L1978.52 1527.99 L1978.52 1527.99 L1997.82 1527.99 L1997.82 1516.85 L2017.13 1516.85 L2017.13 1505.59 L2036.43 1505.59 L2036.43 1494.45 L2055.86 1494.45 L2055.86 1488.88 L2075.16 1488.88 L2075.16 1483.31 L2094.47 1483.31 L2094.47 1466.61 L2113.90 1466.61 L2113.90 1433.07 L2133.20 1433.07 L2133.20 1427.50 L2152.51 1427.50 L2152.51 1427.50 L2171.94 1427.50 L2171.94 1427.50 L2191.24 1427.50 L2191.24 1410.79 L2210.55 1410.79 L2210.55 1405.23 L2229.97 1405.23 L2229.97 1388.52 L2249.28 1388.52 L2249.28 1382.95 L2268.59 1382.95 L2268.59 1377.38 L2287.89 1377.38 L2287.89 1377.38 L2307.32 1377.38 L2307.32 1377.38 L2326.62 1377.38 L2326.62 1377.38 L2345.93 1377.38 L2345.93 1371.69 L2384.66 1371.69 L2384.66 1371.69 L2403.97 1371.69 L2403.97 1366.12 L2462.01 1366.12 L2462.01 1360.55 L2481.43 1360.55 L2481.43 1349.41 L2500.74 1349.41 L2500.74 1349.41 L2520.05 1349.41 L2520.05 1349.41 L2539.35 1349.41 L2539.35 1343.84 L2558.78 1343.84 L2558.78 1338.27 L2578.08 1338.27 L2578.08 1338.27 L2597.39 1338.27 L2597.39 1332.58 L2616.82 1332.58 L2616.82 1327.01 L2636.12 1327.01 L2636.12 1315.87 L2655.43 1315.87 L2655.43 1310.31 L2674.86 1310.31 L2674.86 1310.31 L2713.47 1310.31 L2713.47 1304.74 L2732.89 1304.74 L2732.89 1299.04 L2752.20 1299.04 L2752.20 1287.91 L2790.81 1287.91 L2790.81 1276.77 L2810.24 1276.77 L2810.24 1271.20 L2848.85 1271.20 L2848.85 1259.94 L2868.28 1259.94 L2868.28 1254.37 L2887.58 1254.37 L2887.58 1254.37 L2926.32 1254.37 L2926.32 1254.37 L2964.93 1254.37 L2964.93 1248.80 L3003.66 1248.80 L3003.66 1243.23 L3022.97 1243.23 L3022.97 1237.66 L3081.00 1237.66 L3081.00 1220.83 L3139.04 1220.83 L3139.04 1215.26 L3177.78 1215.26 L3177.78 1215.26" stroke-linejoin="round" style="fill:none;stroke:#90353B;stroke-width:8.64"/>
	<line x1="619.12" y1="2309.25" x2="619.12" y2="490.93" style="stroke:#000000;stroke-width:5.76"/>
	<line x1="619.12" y1="2245.89" x2="579.15" y2="2245.89" style="stroke:#000000;stroke-width:5.76"/>
	<text x="559.23" y="2273.90" style="font-family:'Helvetica';font-size:79.94px;fill:#000000" text-anchor="end">0.000</text>
	<line x1="619.12" y1="2076.71" x2="579.15" y2="2076.71" style="stroke:#000000;stroke-width:5.76"/>
	<text x="559.23" y="2104.73" style="font-family:'Helvetica';font-size:79.94px;fill:#000000" text-anchor="end">0.001</text>
	<line x1="619.12" y1="1907.54" x2="579.15" y2="1907.54" style="stroke:#000000;stroke-width:5.76"/>
	<text x="559.23" y="1935.55" style="font-family:'Helvetica';font-size:79.94px;fill:#000000" text-anchor="end">0.002</text>
	<line x1="619.12" y1="1738.37" x2="579.15" y2="1738.37" style="stroke:#000000;stroke-width:5.76"/>
	<text x="559.23" y="1766.38" style="font-family:'Helvetica';font-size:79.94px;fill:#000000" text-anchor="end">0.003</text>
	<line x1="619.12" y1="1569.20" x2="579.15" y2="1569.20" style="stroke:#000000;stroke-width:5.76"/>
	<text x="559.23" y="1597.21" style="font-family:'Helvetica';font-size:79.94px;fill:#000000" text-anchor="end">0.004</text>
	<line x1="619.12" y1="1400.03" x2="579.15" y2="1400.03" style="stroke:#000000;stroke-width:5.76"/>
	<text x="559.23" y="1428.04" style="font-family:'Helvetica';font-size:79.94px;fill:#000000" text-anchor="end">0.005</text>
	<line x1="619.12" y1="1230.86" x2="579.15" y2="1230.86" style="stroke:#000000;stroke-width:5.76"/>
	<text x="559.23" y="1258.87" style="font-family:'Helvetica';font-size:79.94px;fill:#000000" text-anchor="end">0.006</text>
	<line x1="619.12" y1="1061.68" x2="579.15" y2="1061.68" style="stroke:#000000;stroke-width:5.76"/>
	<text x="559.23" y="1089.70" style="font-family:'Helvetica';font-size:79.94px;fill:#000000" text-anchor="end">0.007</text>
	<line x1="619.12" y1="892.51" x2="579.15" y2="892.51" style="stroke:#000000;stroke-width:5.76"/>
	<text x="559.23" y="920.52" style="font-family:'Helvetica';font-size:79.94px;fill:#000000" text-anchor="end">0.008</text>
	<line x1="619.12" y1="723.47" x2="579.15" y2="723.47" style="stroke:#000000;stroke-width:5.76"/>
	<text x="559.23" y="751.48" style="font-family:'Helvetica';font-size:79.94px;fill:#000000" text-anchor="end">0.009</text>
	<line x1="619.12" y1="554.29" x2="579.15" y2="554.29" style="stroke:#000000;stroke-width:5.76"/>
	<text x="559.23" y="582.31" style="font-family:'Helvetica';font-size:79.94px;fill:#000000" text-anchor="end">0.010</text>
	<text x="682.48" y="2747.83" style="font-family:'Helvetica';font-size:60.02px;fill:#000000" text-anchor="middle">30499</text>
	<text x="1069.45" y="2747.83" style="font-family:'Helvetica';font-size:60.02px;fill:#000000" text-anchor="middle">30467</text>
	<text x="1456.29" y="2747.83" style="font-family:'Helvetica';font-size:60.02px;fill:#000000" text-anchor="middle">30376</text>
	<text x="1843.13" y="2747.83" style="font-family:'Helvetica';font-size:60.02px;fill:#000000" text-anchor="middle">30237</text>
	<text x="2229.97" y="2747.83" style="font-family:'Helvetica';font-size:60.02px;fill:#000000" text-anchor="middle">30159</text>
	<text x="2616.82" y="2747.83" style="font-family:'Helvetica';font-size:60.02px;fill:#000000" text-anchor="middle">30109</text>
	<text x="3003.66" y="2747.83" style="font-family:'Helvetica';font-size:60.02px;fill:#000000" text-anchor="middle">30071</text>
	<text x="3390.63" y="2747.83" style="font-family:'Helvetica';font-size:60.02px;fill:#000000" text-anchor="middle">0</text>
	<text x="3777.47" y="2747.83" style="font-family:'Helvetica';font-size:60.02px;fill:#000000" text-anchor="middle">0</text>
	<text x="527.79" y="2747.83" style="font-family:'Helvetica';font-size:60.02px;fill:#000000" text-anchor="end">HCQ</text>
	<text x="682.48" y="2674.44" style="font-family:'Helvetica';font-size:60.02px;fill:#000000" text-anchor="middle">163727</text>
	<text x="1069.45" y="2674.44" style="font-family:'Helvetica';font-size:60.02px;fill:#000000" text-anchor="middle">162508</text>
	<text x="1456.29" y="2674.44" style="font-family:'Helvetica';font-size:60.02px;fill:#000000" text-anchor="middle">161155</text>
	<text x="1843.13" y="2674.44" style="font-family:'Helvetica';font-size:60.02px;fill:#000000" text-anchor="middle">159956</text>
	<text x="2229.97" y="2674.44" style="font-family:'Helvetica';font-size:60.02px;fill:#000000" text-anchor="middle">159100</text>
	<text x="2616.82" y="2674.44" style="font-family:'Helvetica';font-size:60.02px;fill:#000000" text-anchor="middle">158506</text>
	<text x="3003.66" y="2674.44" style="font-family:'Helvetica';font-size:60.02px;fill:#000000" text-anchor="middle">158054</text>
	<text x="3390.63" y="2674.44" style="font-family:'Helvetica';font-size:60.02px;fill:#000000" text-anchor="middle">0</text>
	<text x="3777.47" y="2674.44" style="font-family:'Helvetica';font-size:60.02px;fill:#000000" text-anchor="middle">0</text>
	<text x="527.79" y="2674.44" style="font-family:'Helvetica';font-size:60.02px;fill:#000000" text-anchor="end">No HCQ</text>
	<text x="527.79" y="2601.18" style="font-family:'Helvetica';font-size:60.02px;fill:#000000" text-anchor="end">Number at risk</text>
	<line x1="619.12" y1="2309.25" x2="3840.83" y2="2309.25" style="stroke:#000000;stroke-width:5.76"/>
	<line x1="682.48" y1="2309.25" x2="682.48" y2="2349.22" style="stroke:#000000;stroke-width:5.76"/>
	<text x="682.48" y="2425.17" style="font-family:'Helvetica';font-size:79.94px;fill:#000000" text-anchor="middle">0</text>
	<line x1="1069.45" y1="2309.25" x2="1069.45" y2="2349.22" style="stroke:#000000;stroke-width:5.76"/>
	<text x="1069.45" y="2425.17" style="font-family:'Helvetica';font-size:79.94px;fill:#000000" text-anchor="middle">20</text>
	<line x1="1456.29" y1="2309.25" x2="1456.29" y2="2349.22" style="stroke:#000000;stroke-width:5.76"/>
	<text x="1456.29" y="2425.17" style="font-family:'Helvetica';font-size:79.94px;fill:#000000" text-anchor="middle">40</text>
	<line x1="1843.13" y1="2309.25" x2="1843.13" y2="2349.22" style="stroke:#000000;stroke-width:5.76"/>
	<text x="1843.13" y="2425.17" style="font-family:'Helvetica';font-size:79.94px;fill:#000000" text-anchor="middle">60</text>
	<line x1="2229.97" y1="2309.25" x2="2229.97" y2="2349.22" style="stroke:#000000;stroke-width:5.76"/>
	<text x="2229.97" y="2425.17" style="font-family:'Helvetica';font-size:79.94px;fill:#000000" text-anchor="middle">80</text>
	<line x1="2616.82" y1="2309.25" x2="2616.82" y2="2349.22" style="stroke:#000000;stroke-width:5.76"/>
	<text x="2616.82" y="2425.17" style="font-family:'Helvetica';font-size:79.94px;fill:#000000" text-anchor="middle">100</text>
	<line x1="3003.66" y1="2309.25" x2="3003.66" y2="2349.22" style="stroke:#000000;stroke-width:5.76"/>
	<text x="3003.66" y="2425.17" style="font-family:'Helvetica';font-size:79.94px;fill:#000000" text-anchor="middle">120</text>
	<line x1="3390.63" y1="2309.25" x2="3390.63" y2="2349.22" style="stroke:#000000;stroke-width:5.76"/>
	<text x="3390.63" y="2425.17" style="font-family:'Helvetica';font-size:79.94px;fill:#000000" text-anchor="middle">140</text>
	<line x1="3777.47" y1="2309.25" x2="3777.47" y2="2349.22" style="stroke:#000000;stroke-width:5.76"/>
	<text x="3777.47" y="2425.17" style="font-family:'Helvetica';font-size:79.94px;fill:#000000" text-anchor="middle">160</text>
	<text x="2229.97" y="2515.14" style="font-family:'Helvetica';font-size:79.94px;fill:#000000" text-anchor="middle">Days since 1 Mar 2020</text>
	<rect x="1493.41" y="269.91" width="1473.12" height="186.37" style="fill:#FFFFFF"/>
	<rect x="1496.29" y="272.79" width="1467.36" height="180.61" style="fill:none;stroke:#EAF2F3;stroke-width:5.76"/>
	<line x1="1536.60" y1="363.09" x2="1910.95" y2="363.09" style="stroke:#1A476F;stroke-width:8.64"/>
	<line x1="2349.02" y1="363.09" x2="2723.37" y2="363.09" style="stroke:#90353B;stroke-width:8.64"/>
	<text x="1970.97" y="384.13" style="font-family:'Helvetica';font-size:60.02px;fill:#000000">No HCQ</text>
	<text x="2783.39" y="384.13" style="font-family:'Helvetica';font-size:60.02px;fill:#000000">HCQ</text>
	<text x="1203.35" y="187.99" style="font-family:'Helvetica';font-size:99.99px;fill:#1E2D53">Time to Primary care positive COVID-19 test</text>
</svg>
