<?xml version="1.0" encoding="UTF-8" standalone="no"?>
<!-- This is a Stata 16.1 generated SVG file (http://www.stata.com) -->

<svg version="1.1" width="5.50in" height="4.00in" viewBox="0 0 3960 2880" xmlns="http://www.w3.org/2000/svg" xmlns:xlink="http://www.w3.org/1999/xlink">
	<desc>Stata Graph - Graph</desc>
	<rect x="0" y="0" width="3960" height="2880" style="fill:#EAF2F3;stroke:none"/>
	<rect x="0.00" y="0.00" width="3959.88" height="2880.00" style="fill:#FFFFFF"/>
	<rect x="2.88" y="2.88" width="3954.12" height="2874.24" style="fill:none;stroke:#EAF2F3;stroke-width:5.76"/>
	<rect x="619.12" y="630.90" width="3221.71" height="1678.35" style="fill:#FFFFFF"/>
	<rect x="622.00" y="633.78" width="3215.95" height="1672.59" style="fill:none;stroke:#FFFFFF;stroke-width:5.76"/>
	<line x1="619.12" y1="2245.89" x2="3840.83" y2="2245.89" style="stroke:#EAF2F3;stroke-width:8.64"/>
	<line x1="619.12" y1="2090.70" x2="3840.83" y2="2090.70" style="stroke:#EAF2F3;stroke-width:8.64"/>
	<line x1="619.12" y1="1935.51" x2="3840.83" y2="1935.51" style="stroke:#EAF2F3;stroke-width:8.64"/>
	<line x1="619.12" y1="1780.45" x2="3840.83" y2="1780.45" style="stroke:#EAF2F3;stroke-width:8.64"/>
	<line x1="619.12" y1="1625.26" x2="3840.83" y2="1625.26" style="stroke:#EAF2F3;stroke-width:8.64"/>
	<line x1="619.12" y1="1470.07" x2="3840.83" y2="1470.07" style="stroke:#EAF2F3;stroke-width:8.64"/>
	<line x1="619.12" y1="1314.88" x2="3840.83" y2="1314.88" style="stroke:#EAF2F3;stroke-width:8.64"/>
	<line x1="619.12" y1="1159.70" x2="3840.83" y2="1159.70" style="stroke:#EAF2F3;stroke-width:8.64"/>
	<line x1="619.12" y1="1004.51" x2="3840.83" y2="1004.51" style="stroke:#EAF2F3;stroke-width:8.64"/>
	<line x1="619.12" y1="849.45" x2="3840.83" y2="849.45" style="stroke:#EAF2F3;stroke-width:8.64"/>
	<line x1="619.12" y1="694.26" x2="3840.83" y2="694.26" style="stroke:#EAF2F3;stroke-width:8.64"/>
	<defs>
		<path id="path_RBvBOVFT" d="M701.91 2245.76 L701.91 2245.76 L721.22 2245.76 L721.22 2245.76 L740.52 2245.76 L740.52 2245.76 L759.95 2245.76 L759.95 2245.76 L779.25 2245.76 L779.25 2245.76 L798.56 2245.76 L798.56 2245.76 L817.86 2245.76 L817.86 2245.76 L837.29 2245.76 L837.29 2245.39 L856.60 2245.39 L856.60 2245.02 L875.90 2245.02 L875.90 2244.52 L895.33 2244.52 L895.33 2244.52 L914.64 2244.52 L914.64 2243.29 L933.94 2243.29 L933.94 2243.29 L953.37 2243.29 L953.37 2243.29 L972.67 2243.29 L972.67 2241.43 L991.98 2241.43 L991.98 2237.96 L1011.41 2237.96 L1011.41 2236.60 L1030.71 2236.60 L1030.71 2233.63 L1050.02 2233.63 L1050.02 2229.80 L1069.45 2229.80 L1069.45 2228.31 L1088.75 2228.31 L1088.75 2225.96 L1108.06 2225.96 L1108.06 2219.53 L1127.36 2219.53 L1127.36 2212.22 L1146.79 2212.22 L1146.79 2204.80 L1166.10 2204.80 L1166.10 2198.12 L1185.40 2198.12 L1185.40 2192.18 L1204.83 2192.18 L1204.83 2185.37 L1224.13 2185.37 L1224.13 2177.70 L1243.44 2177.70 L1243.44 2162.97 L1262.87 2162.97 L1262.87 2147.38 L1282.17 2147.38 L1282.17 2115.70 L1301.48 2115.70 L1301.48 2098.87 L1320.91 2098.87 L1320.91 2073.87 L1340.21 2073.87 L1340.21 2064.96 L1359.52 2064.96 L1359.52 2058.65 L1378.82 2058.65 L1378.82 2039.83 L1398.25 2039.83 L1398.25 2030.80 L1417.56 2030.80 L1417.56 2011.00 L1436.86 2011.00 L1436.86 1996.52 L1456.29 1996.52 L1456.29 1983.77 L1475.60 1983.77 L1475.60 1975.61 L1494.90 1975.61 L1494.90 1969.30 L1514.33 1969.30 L1514.33 1959.27 L1533.63 1959.27 L1533.63 1910.02 L1552.94 1910.02 L1552.94 1881.55 L1572.37 1881.55 L1572.37 1866.95 L1591.67 1866.95 L1591.67 1826.48 L1610.98 1826.48 L1610.98 1821.04 L1630.28 1821.04 L1630.28 1810.89 L1649.71 1810.89 L1649.71 1776.73 L1669.02 1776.73 L1669.02 1758.29 L1688.32 1758.29 L1688.32 1750.87 L1707.75 1750.87 L1707.75 1729.58 L1727.06 1729.58 L1727.06 1718.57 L1746.36 1718.57 L1746.36 1711.14 L1765.79 1711.14 L1765.79 1706.44 L1785.09 1706.44 L1785.09 1674.88 L1804.40 1674.88 L1804.40 1644.32 L1823.83 1644.32 L1823.83 1633.18 L1843.13 1633.18 L1843.13 1612.64 L1862.44 1612.64 L1862.44 1594.07 L1881.74 1594.07 L1881.74 1587.51 L1901.17 1587.51 L1901.17 1585.66 L1920.48 1585.66 L1920.48 1572.66 L1939.78 1572.66 L1939.78 1553.98 L1959.21 1553.98 L1959.21 1543.71 L1978.52 1543.71 L1978.52 1524.15 L1997.82 1524.15 L1997.82 1514.75 L2017.25 1514.75 L2017.25 1511.90 L2036.55 1511.90 L2036.55 1511.03 L2055.86 1511.03 L2055.86 1495.07 L2075.29 1495.07 L2075.29 1480.10 L2094.59 1480.10 L2094.59 1473.54 L2113.90 1473.54 L2113.90 1458.56 L2133.20 1458.56 L2133.20 1452.00 L2152.63 1452.00 L2152.63 1449.28 L2171.94 1449.28 L2171.94 1444.58 L2191.24 1444.58 L2191.24 1420.20 L2210.67 1420.20 L2210.67 1399.53 L2229.97 1399.53 L2229.97 1388.27 L2249.28 1388.27 L2249.28 1379.86 L2268.71 1379.86 L2268.71 1370.45 L2288.01 1370.45 L2288.01 1368.59 L2307.32 1368.59 L2307.32 1365.75 L2326.75 1365.75 L2326.75 1364.76 L2346.05 1364.76 L2346.05 1353.50 L2365.36 1353.50 L2365.36 1349.78 L2384.79 1349.78 L2384.79 1347.80 L2404.09 1347.80 L2404.09 1342.23 L2423.40 1342.23 L2423.40 1339.39 L2442.70 1339.39 L2442.70 1337.53 L2462.13 1337.53 L2462.13 1333.70 L2481.43 1333.70 L2481.43 1327.14 L2500.74 1327.14 L2500.74 1322.43 L2520.17 1322.43 L2520.17 1313.03 L2539.47 1313.03 L2539.47 1311.17 L2558.78 1311.17 L2558.78 1308.33 L2578.21 1308.33 L2578.21 1306.47 L2597.51 1306.47 L2597.51 1301.77 L2616.82 1301.77 L2616.82 1291.37 L2636.25 1291.37 L2636.25 1284.69 L2655.55 1284.69 L2655.55 1277.14 L2674.86 1277.14 L2674.86 1271.57 L2694.16 1271.57 L2694.16 1267.73 L2713.59 1267.73 L2713.59 1264.02 L2732.89 1264.02 L2732.89 1259.20 L2752.20 1259.20 L2752.20 1256.35 L2771.63 1256.35 L2771.63 1253.63 L2790.93 1253.63 L2790.93 1250.78 L2810.24 1250.78 L2810.24 1246.94 L2829.67 1246.94 L2829.67 1244.10 L2848.97 1244.10 L2848.97 1243.23 L2868.28 1243.23 L2868.28 1239.39 L2887.71 1239.39 L2887.71 1234.69 L2907.01 1234.69 L2907.01 1229.00 L2926.32 1229.00 L2926.32 1226.15 L2945.62 1226.15 L2945.62 1225.16 L2965.05 1225.16 L2965.05 1224.30 L2984.36 1224.30 L2984.36 1223.31 L3003.66 1223.31 L3003.66 1222.32 L3023.09 1222.32 L3023.09 1216.62 L3042.39 1216.62 L3042.39 1213.78 L3061.70 1213.78 L3061.70 1211.06 L3081.13 1211.06 L3081.13 1206.23 L3100.43 1206.23 L3100.43 1206.23 L3119.74 1206.23 L3119.74 1204.37 L3139.17 1204.37 L3139.17 1202.52 L3158.47 1202.52 L3158.47 1202.52 L3177.78 1202.52 L3177.78 1201.53 L3177.78 1073.81 L3177.78 1074.80 L3158.47 1074.80 L3158.47 1074.80 L3139.17 1074.80 L3139.17 1076.91 L3119.74 1076.91 L3119.74 1078.89 L3100.43 1078.89 L3100.43 1078.89 L3081.13 1078.89 L3081.13 1083.84 L3061.70 1083.84 L3061.70 1086.93 L3042.39 1086.93 L3042.39 1089.90 L3023.09 1089.90 L3023.09 1095.96 L3003.66 1095.96 L3003.66 1096.95 L2984.36 1096.95 L2984.36 1097.94 L2965.05 1097.94 L2965.05 1098.93 L2945.62 1098.93 L2945.62 1099.92 L2926.32 1099.92 L2926.32 1103.02 L2907.01 1103.02 L2907.01 1108.96 L2887.71 1108.96 L2887.71 1114.03 L2868.28 1114.03 L2868.28 1117.99 L2848.97 1117.99 L2848.97 1118.98 L2829.67 1118.98 L2829.67 1122.08 L2810.24 1122.08 L2810.24 1126.04 L2790.93 1126.04 L2790.93 1129.01 L2771.63 1129.01 L2771.63 1132.10 L2752.20 1132.10 L2752.20 1135.07 L2732.89 1135.07 L2732.89 1140.02 L2713.59 1140.02 L2713.59 1144.10 L2694.16 1144.10 L2694.16 1148.06 L2674.86 1148.06 L2674.86 1154.13 L2655.55 1154.13 L2655.55 1162.17 L2636.25 1162.17 L2636.25 1169.10 L2616.82 1169.10 L2616.82 1180.12 L2597.51 1180.12 L2597.51 1185.19 L2578.21 1185.19 L2578.21 1187.17 L2558.78 1187.17 L2558.78 1190.14 L2539.47 1190.14 L2539.47 1192.12 L2520.17 1192.12 L2520.17 1202.15 L2500.74 1202.15 L2500.74 1207.22 L2481.43 1207.22 L2481.43 1214.27 L2462.13 1214.27 L2462.13 1218.23 L2442.70 1218.23 L2442.70 1220.21 L2423.40 1220.21 L2423.40 1223.18 L2404.09 1223.18 L2404.09 1229.25 L2384.79 1229.25 L2384.79 1231.23 L2365.36 1231.23 L2365.36 1235.19 L2346.05 1235.19 L2346.05 1247.19 L2326.75 1247.19 L2326.75 1248.31 L2307.32 1248.31 L2307.32 1251.28 L2288.01 1251.28 L2288.01 1253.26 L2268.71 1253.26 L2268.71 1263.28 L2249.28 1263.28 L2249.28 1272.31 L2229.97 1272.31 L2229.97 1284.32 L2210.67 1284.32 L2210.67 1306.22 L2191.24 1306.22 L2191.24 1332.33 L2171.94 1332.33 L2171.94 1337.28 L2152.63 1337.28 L2152.63 1340.25 L2133.20 1340.25 L2133.20 1347.31 L2113.90 1347.31 L2113.90 1363.27 L2094.59 1363.27 L2094.59 1370.33 L2075.29 1370.33 L2075.29 1386.29 L2055.86 1386.29 L2055.86 1403.37 L2036.55 1403.37 L2036.55 1404.36 L2017.25 1404.36 L2017.25 1407.33 L1997.82 1407.33 L1997.82 1417.35 L1978.52 1417.35 L1978.52 1438.39 L1959.21 1438.39 L1959.21 1449.41 L1939.78 1449.41 L1939.78 1469.45 L1920.48 1469.45 L1920.48 1483.44 L1901.17 1483.44 L1901.17 1485.42 L1881.74 1485.42 L1881.74 1492.47 L1862.44 1492.47 L1862.44 1512.52 L1843.13 1512.52 L1843.13 1534.55 L1823.83 1534.55 L1823.83 1546.55 L1804.40 1546.55 L1804.40 1579.59 L1785.09 1579.59 L1785.09 1613.75 L1765.79 1613.75 L1765.79 1618.70 L1746.36 1618.70 L1746.36 1626.74 L1727.06 1626.74 L1727.06 1638.75 L1707.75 1638.75 L1707.75 1661.89 L1688.32 1661.89 L1688.32 1669.93 L1669.02 1669.93 L1669.02 1689.98 L1649.71 1689.98 L1649.71 1727.23 L1630.28 1727.23 L1630.28 1738.25 L1610.98 1738.25 L1610.98 1744.31 L1591.67 1744.31 L1591.67 1788.61 L1572.37 1788.61 L1572.37 1804.70 L1552.94 1804.70 L1552.94 1836.01 L1533.63 1836.01 L1533.63 1890.59 L1514.33 1890.59 L1514.33 1901.73 L1494.90 1901.73 L1494.90 1908.90 L1475.60 1908.90 L1475.60 1917.94 L1456.29 1917.94 L1456.29 1932.17 L1436.86 1932.17 L1436.86 1948.50 L1417.56 1948.50 L1417.56 1970.90 L1398.25 1970.90 L1398.25 1981.05 L1378.82 1981.05 L1378.82 2002.46 L1359.52 2002.46 L1359.52 2009.64 L1340.21 2009.64 L1340.21 2019.91 L1320.91 2019.91 L1320.91 2048.62 L1301.48 2048.62 L1301.48 2068.30 L1282.17 2068.30 L1282.17 2105.55 L1262.87 2105.55 L1262.87 2124.36 L1243.44 2124.36 L1243.44 2142.30 L1224.13 2142.30 L1224.13 2151.83 L1204.83 2151.83 L1204.83 2160.37 L1185.40 2160.37 L1185.40 2167.92 L1166.10 2167.92 L1166.10 2176.46 L1146.79 2176.46 L1146.79 2186.24 L1127.36 2186.24 L1127.36 2196.14 L1108.06 2196.14 L1108.06 2205.05 L1088.75 2205.05 L1088.75 2208.39 L1069.45 2208.39 L1069.45 2210.62 L1050.02 2210.62 L1050.02 2216.43 L1030.71 2216.43 L1030.71 2221.01 L1011.41 2221.01 L1011.41 2223.36 L991.98 2223.36 L991.98 2229.43 L972.67 2229.43 L972.67 2233.26 L953.37 2233.26 L953.37 2233.26 L933.94 2233.26 L933.94 2233.26 L914.64 2233.26 L914.64 2235.74 L895.33 2235.74 L895.33 2235.74 L875.90 2235.74 L875.90 2237.10 L856.60 2237.10 L856.60 2238.34 L837.29 2238.34 L837.29 2239.20 L817.86 2239.20 L817.86 2239.20 L798.56 2239.20 L798.56 2239.20 L779.25 2239.20 L779.25 2239.20 L759.95 2239.20 L759.95 2239.20 L740.52 2239.20 L740.52 2239.20 L721.22 2239.20 L721.22 2239.20 L701.91 2239.20 L701.91 2245.76 Z" stroke-linejoin="round"/>
	</defs>
	<defs>
		<clipPath id="clipPath_KOyJYXJH">
			<use xlink:href="#path_RBvBOVFT"/>
		</clipPath>
	</defs>
	<use xlink:href="#path_RBvBOVFT" style="stroke:none;fill:#DDE3E9"/>
	<use xlink:href="#path_RBvBOVFT" style="fill:none;stroke:#DDE3E9;stroke-width:17.28" clip-path="url(#clipPath_KOyJYXJH)"/>
	<path d=" M701.79 2245.76 L721.09 2245.76 L721.09 2245.76 L740.52 2245.76 L740.52 2245.76 L759.83 2245.76 L759.83 2245.76 L779.13 2245.76 L779.13 2245.76 L798.56 2245.76 L798.56 2245.76 L817.86 2245.76 L817.86 2245.76 L837.17 2245.76 L837.17 2245.51 L856.60 2245.51 L856.60 2245.02 L875.90 2245.02 L875.90 2244.52 L895.21 2244.52 L895.21 2244.52 L914.64 2244.52 L914.64 2243.41 L933.94 2243.41 L933.94 2243.41 L953.25 2243.41 L953.25 2243.41 L972.55 2243.41 L972.55 2241.55 L991.98 2241.55 L991.98 2238.09 L1011.28 2238.09 L1011.28 2236.60 L1030.59 2236.60 L1030.59 2233.63 L1050.02 2233.63 L1050.02 2229.92 L1069.32 2229.92 L1069.32 2228.31 L1088.63 2228.31 L1088.63 2225.96 L1108.06 2225.96 L1108.06 2219.65 L1127.36 2219.65 L1127.36 2212.22 L1146.67 2212.22 L1146.67 2204.80 L1166.10 2204.80 L1166.10 2198.12 L1185.40 2198.12 L1185.40 2192.30 L1204.71 2192.30 L1204.71 2185.49 L1224.01 2185.49 L1224.01 2177.70 L1243.44 2177.70 L1243.44 2163.09 L1262.74 2163.09 L1262.74 2147.38 L1282.05 2147.38 L1282.05 2115.70 L1301.48 2115.70 L1301.48 2098.87 L1320.78 2098.87 L1320.78 2073.99 L1340.09 2073.99 L1340.09 2064.96 L1359.52 2064.96 L1359.52 2058.77 L1378.82 2058.77 L1378.82 2039.83 L1398.13 2039.83 L1398.13 2030.80 L1417.56 2030.80 L1417.56 2011.00 L1436.86 2011.00 L1436.86 1996.52 L1456.17 1996.52 L1456.17 1983.77 L1475.47 1983.77 L1475.47 1975.61 L1494.90 1975.61 L1494.90 1969.30 L1514.20 1969.30 L1514.20 1959.27 L1533.51 1959.27 L1533.51 1910.02 L1552.94 1910.02 L1552.94 1881.68 L1572.24 1881.68 L1572.24 1866.95 L1591.55 1866.95 L1591.55 1826.61 L1610.98 1826.61 L1610.98 1821.04 L1630.28 1821.04 L1630.28 1810.89 L1649.59 1810.89 L1649.59 1776.86 L1669.02 1776.86 L1669.02 1758.29 L1688.32 1758.29 L1688.32 1750.99 L1707.63 1750.99 L1707.63 1729.71 L1727.06 1729.71 L1727.06 1718.57 L1746.36 1718.57 L1746.36 1711.14 L1765.66 1711.14 L1765.66 1706.57 L1784.97 1706.57 L1784.97 1675.01 L1804.40 1675.01 L1804.40 1644.32 L1823.70 1644.32 L1823.70 1633.18 L1843.01 1633.18 L1843.01 1612.76 L1862.44 1612.76 L1862.44 1594.07 L1881.74 1594.07 L1881.74 1587.64 L1901.05 1587.64 L1901.05 1585.78 L1920.48 1585.78 L1920.48 1572.66 L1939.78 1572.66 L1939.78 1553.98 L1959.09 1553.98 L1959.09 1543.71 L1978.52 1543.71 L1978.52 1524.15 L1997.82 1524.15 L1997.82 1514.87 L2017.13 1514.87 L2017.13 1512.02 L2036.43 1512.02 L2036.43 1511.03 L2055.86 1511.03 L2055.86 1495.19 L2075.16 1495.19 L2075.16 1480.22 L2094.47 1480.22 L2094.47 1473.66 L2113.90 1473.66 L2113.90 1458.69 L2133.20 1458.69 L2133.20 1452.13 L2152.51 1452.13 L2152.51 1449.28 L2171.94 1449.28 L2171.94 1444.58 L2191.24 1444.58 L2191.24 1420.20 L2210.55 1420.20 L2210.55 1399.66 L2229.97 1399.66 L2229.97 1388.39 L2249.28 1388.39 L2249.28 1379.86 L2268.59 1379.86 L2268.59 1370.45 L2287.89 1370.45 L2287.89 1368.59 L2307.32 1368.59 L2307.32 1365.75 L2326.62 1365.75 L2326.62 1364.88 L2345.93 1364.88 L2345.93 1353.62 L2365.36 1353.62 L2365.36 1349.78 L2384.66 1349.78 L2384.66 1347.93 L2403.97 1347.93 L2403.97 1342.23 L2423.40 1342.23 L2423.40 1339.51 L2442.70 1339.51 L2442.70 1337.53 L2462.01 1337.53 L2462.01 1333.82 L2481.43 1333.82 L2481.43 1327.26 L2500.74 1327.26 L2500.74 1322.56 L2520.05 1322.56 L2520.05 1313.03 L2539.35 1313.03 L2539.35 1311.17 L2558.78 1311.17 L2558.78 1308.33 L2578.08 1308.33 L2578.08 1306.47 L2597.39 1306.47 L2597.39 1301.77 L2616.82 1301.77 L2616.82 1291.37 L2636.12 1291.37 L2636.12 1284.81 L2655.43 1284.81 L2655.43 1277.26 L2674.86 1277.26 L2674.86 1271.57 L2694.16 1271.57 L2694.16 1267.86 L2713.47 1267.86 L2713.47 1264.02 L2732.89 1264.02 L2732.89 1259.32 L2752.20 1259.32 L2752.20 1256.47 L2771.51 1256.47 L2771.51 1253.63 L2790.81 1253.63 L2790.81 1250.78 L2810.24 1250.78 L2810.24 1247.07 L2829.54 1247.07 L2829.54 1244.22 L2848.85 1244.22 L2848.85 1243.23 L2868.28 1243.23 L2868.28 1239.39 L2887.58 1239.39 L2887.58 1234.69 L2906.89 1234.69 L2906.89 1229.00 L2926.32 1229.00 L2926.32 1226.15 L2945.62 1226.15 L2945.62 1225.29 L2964.93 1225.29 L2964.93 1224.30 L2984.36 1224.30 L2984.36 1223.43 L3003.66 1223.43 L3003.66 1222.44 L3022.97 1222.44 L3022.97 1216.75 L3042.39 1216.75 L3042.39 1213.90 L3061.70 1213.90 L3061.70 1211.06 L3081.00 1211.06 L3081.00 1206.35 L3100.31 1206.35 L3100.31 1206.35 L3119.74 1206.35 L3119.74 1204.37 L3139.04 1204.37 L3139.04 1202.52 L3158.35 1202.52 L3158.35 1202.52 L3177.78 1202.52 L3177.78 1201.53" stroke-linejoin="round" style="fill:none;stroke:#8DA3B7;stroke-width:8.64"/>
	<path d=" M701.79 2239.20 L721.09 2239.20 L721.09 2239.20 L740.52 2239.20 L740.52 2239.20 L759.83 2239.20 L759.83 2239.20 L779.13 2239.20 L779.13 2239.20 L798.56 2239.20 L798.56 2239.20 L817.86 2239.20 L817.86 2239.20 L837.17 2239.20 L837.17 2238.34 L856.60 2238.34 L856.60 2237.10 L875.90 2237.10 L875.90 2235.86 L895.21 2235.86 L895.21 2235.86 L914.64 2235.86 L914.64 2233.26 L933.94 2233.26 L933.94 2233.26 L953.25 2233.26 L953.25 2233.26 L972.55 2233.26 L972.55 2229.55 L991.98 2229.55 L991.98 2223.49 L1011.28 2223.49 L1011.28 2221.13 L1030.59 2221.13 L1030.59 2216.43 L1050.02 2216.43 L1050.02 2210.74 L1069.32 2210.74 L1069.32 2208.51 L1088.63 2208.51 L1088.63 2205.05 L1108.06 2205.05 L1108.06 2196.14 L1127.36 2196.14 L1127.36 2186.36 L1146.67 2186.36 L1146.67 2176.58 L1166.10 2176.58 L1166.10 2167.92 L1185.40 2167.92 L1185.40 2160.37 L1204.71 2160.37 L1204.71 2151.96 L1224.01 2151.96 L1224.01 2142.43 L1243.44 2142.43 L1243.44 2124.48 L1262.74 2124.48 L1262.74 2105.67 L1282.05 2105.67 L1282.05 2068.30 L1301.48 2068.30 L1301.48 2048.75 L1320.78 2048.75 L1320.78 2020.03 L1340.09 2020.03 L1340.09 2009.76 L1359.52 2009.76 L1359.52 2002.59 L1378.82 2002.59 L1378.82 1981.18 L1398.13 1981.18 L1398.13 1970.90 L1417.56 1970.90 L1417.56 1948.50 L1436.86 1948.50 L1436.86 1932.29 L1456.17 1932.29 L1456.17 1918.06 L1475.47 1918.06 L1475.47 1908.90 L1494.90 1908.90 L1494.90 1901.85 L1514.20 1901.85 L1514.20 1890.71 L1533.51 1890.71 L1533.51 1836.01 L1552.94 1836.01 L1552.94 1804.83 L1572.24 1804.83 L1572.24 1788.61 L1591.55 1788.61 L1591.55 1744.31 L1610.98 1744.31 L1610.98 1738.37 L1630.28 1738.37 L1630.28 1727.23 L1649.59 1727.23 L1649.59 1690.11 L1669.02 1690.11 L1669.02 1669.93 L1688.32 1669.93 L1688.32 1661.89 L1707.63 1661.89 L1707.63 1638.87 L1727.06 1638.87 L1727.06 1626.87 L1746.36 1626.87 L1746.36 1618.82 L1765.66 1618.82 L1765.66 1613.75 L1784.97 1613.75 L1784.97 1579.72 L1804.40 1579.72 L1804.40 1546.55 L1823.70 1546.55 L1823.70 1534.55 L1843.01 1534.55 L1843.01 1512.52 L1862.44 1512.52 L1862.44 1492.47 L1881.74 1492.47 L1881.74 1485.54 L1901.05 1485.54 L1901.05 1483.56 L1920.48 1483.56 L1920.48 1469.45 L1939.78 1469.45 L1939.78 1449.41 L1959.09 1449.41 L1959.09 1438.39 L1978.52 1438.39 L1978.52 1417.48 L1997.82 1417.48 L1997.82 1407.45 L2017.13 1407.45 L2017.13 1404.36 L2036.43 1404.36 L2036.43 1403.37 L2055.86 1403.37 L2055.86 1386.41 L2075.16 1386.41 L2075.16 1370.33 L2094.47 1370.33 L2094.47 1363.40 L2113.90 1363.40 L2113.90 1347.31 L2133.20 1347.31 L2133.20 1340.38 L2152.51 1340.38 L2152.51 1337.41 L2171.94 1337.41 L2171.94 1332.33 L2191.24 1332.33 L2191.24 1306.35 L2210.55 1306.35 L2210.55 1284.32 L2229.97 1284.32 L2229.97 1272.31 L2249.28 1272.31 L2249.28 1263.28 L2268.59 1263.28 L2268.59 1253.26 L2287.89 1253.26 L2287.89 1251.28 L2307.32 1251.28 L2307.32 1248.31 L2326.62 1248.31 L2326.62 1247.32 L2345.93 1247.32 L2345.93 1235.31 L2365.36 1235.31 L2365.36 1231.35 L2384.66 1231.35 L2384.66 1229.25 L2403.97 1229.25 L2403.97 1223.31 L2423.40 1223.31 L2423.40 1220.34 L2442.70 1220.34 L2442.70 1218.23 L2462.01 1218.23 L2462.01 1214.27 L2481.43 1214.27 L2481.43 1207.22 L2500.74 1207.22 L2500.74 1202.27 L2520.05 1202.27 L2520.05 1192.24 L2539.35 1192.24 L2539.35 1190.26 L2558.78 1190.26 L2558.78 1187.17 L2578.08 1187.17 L2578.08 1185.19 L2597.39 1185.19 L2597.39 1180.24 L2616.82 1180.24 L2616.82 1169.23 L2636.12 1169.23 L2636.12 1162.17 L2655.43 1162.17 L2655.43 1154.13 L2674.86 1154.13 L2674.86 1148.19 L2694.16 1148.19 L2694.16 1144.10 L2713.47 1144.10 L2713.47 1140.14 L2732.89 1140.14 L2732.89 1135.07 L2752.20 1135.07 L2752.20 1132.10 L2771.51 1132.10 L2771.51 1129.13 L2790.81 1129.13 L2790.81 1126.04 L2810.24 1126.04 L2810.24 1122.08 L2829.54 1122.08 L2829.54 1119.11 L2848.85 1119.11 L2848.85 1118.12 L2868.28 1118.12 L2868.28 1114.03 L2887.58 1114.03 L2887.58 1109.08 L2906.89 1109.08 L2906.89 1103.02 L2926.32 1103.02 L2926.32 1100.05 L2945.62 1100.05 L2945.62 1099.06 L2964.93 1099.06 L2964.93 1098.07 L2984.36 1098.07 L2984.36 1096.95 L3003.66 1096.95 L3003.66 1095.96 L3022.97 1095.96 L3022.97 1090.02 L3042.39 1090.02 L3042.39 1086.93 L3061.70 1086.93 L3061.70 1083.96 L3081.00 1083.96 L3081.00 1078.89 L3100.31 1078.89 L3100.31 1078.89 L3119.74 1078.89 L3119.74 1076.91 L3139.04 1076.91 L3139.04 1074.93 L3158.35 1074.93 L3158.35 1074.93 L3177.78 1074.93 L3177.78 1073.94" stroke-linejoin="round" style="fill:none;stroke:#8DA3B7;stroke-width:8.64"/>
	<defs>
		<path id="path_njuWNNyj" d="M972.67 2245.14 L972.67 2245.14 L991.98 2245.14 L991.98 2245.14 L1011.41 2245.14 L1011.41 2245.14 L1050.02 2245.14 L1050.02 2243.29 L1069.45 2243.29 L1069.45 2243.29 L1088.75 2243.29 L1088.75 2240.94 L1108.06 2240.94 L1108.06 2238.21 L1127.36 2238.21 L1127.36 2232.15 L1146.79 2232.15 L1146.79 2228.93 L1166.10 2228.93 L1166.10 2222.00 L1185.40 2222.00 L1185.40 2218.54 L1204.83 2218.54 L1204.83 2214.82 L1224.13 2214.82 L1224.13 2211.23 L1243.44 2211.23 L1243.44 2199.85 L1262.87 2199.85 L1262.87 2192.05 L1282.17 2192.05 L1282.17 2184.13 L1301.48 2184.13 L1301.48 2184.13 L1320.91 2184.13 L1320.91 2172.13 L1340.21 2172.13 L1340.21 2168.04 L1359.52 2168.04 L1359.52 2155.67 L1378.82 2155.67 L1378.82 2134.75 L1398.25 2134.75 L1398.25 2122.13 L1417.56 2122.13 L1417.56 2109.26 L1436.86 2109.26 L1436.86 2078.94 L1456.29 2078.94 L1456.29 2070.28 L1475.60 2070.28 L1475.60 2070.28 L1494.90 2070.28 L1494.90 2057.04 L1514.33 2057.04 L1514.33 2043.92 L1533.63 2043.92 L1533.63 2012.73 L1552.94 2012.73 L1552.94 2003.82 L1572.37 2003.82 L1572.37 2003.82 L1591.67 2003.82 L1591.67 1967.93 L1610.98 1967.93 L1610.98 1967.93 L1630.28 1967.93 L1630.28 1963.36 L1649.71 1963.36 L1649.71 1945.29 L1669.02 1945.29 L1669.02 1936.25 L1688.32 1936.25 L1688.32 1931.67 L1707.75 1931.67 L1707.75 1922.64 L1727.06 1922.64 L1727.06 1918.06 L1746.36 1918.06 L1746.36 1908.90 L1765.79 1908.90 L1765.79 1899.75 L1785.09 1899.75 L1785.09 1881.55 L1804.40 1881.55 L1804.40 1812.50 L1823.83 1812.50 L1823.83 1784.65 L1843.13 1784.65 L1843.13 1766.09 L1862.44 1766.09 L1862.44 1747.53 L1881.74 1747.53 L1881.74 1742.83 L1901.17 1742.83 L1901.17 1733.54 L1920.48 1733.54 L1920.48 1724.26 L1939.78 1724.26 L1939.78 1705.58 L1959.21 1705.58 L1959.21 1691.47 L1978.52 1691.47 L1978.52 1691.47 L1997.82 1691.47 L1997.82 1682.19 L2017.25 1682.19 L2017.25 1672.78 L2036.55 1672.78 L2036.55 1663.38 L2055.86 1663.38 L2055.86 1658.67 L2075.29 1658.67 L2075.29 1654.09 L2094.59 1654.09 L2094.59 1639.99 L2113.90 1639.99 L2113.90 1611.77 L2133.20 1611.77 L2133.20 1607.07 L2152.63 1607.07 L2152.63 1607.07 L2171.94 1607.07 L2171.94 1607.07 L2191.24 1607.07 L2191.24 1592.96 L2210.67 1592.96 L2210.67 1588.13 L2229.97 1588.13 L2229.97 1574.03 L2249.28 1574.03 L2249.28 1569.32 L2268.71 1569.32 L2268.71 1564.62 L2288.01 1564.62 L2288.01 1564.62 L2307.32 1564.62 L2307.32 1564.62 L2326.75 1564.62 L2326.75 1564.62 L2346.05 1564.62 L2346.05 1559.92 L2384.79 1559.92 L2384.79 1559.92 L2404.09 1559.92 L2404.09 1555.09 L2462.13 1555.09 L2462.13 1550.39 L2481.43 1550.39 L2481.43 1540.98 L2500.74 1540.98 L2500.74 1540.98 L2520.17 1540.98 L2520.17 1540.98 L2539.47 1540.98 L2539.47 1536.28 L2558.78 1536.28 L2558.78 1531.45 L2578.21 1531.45 L2578.21 1531.45 L2597.51 1531.45 L2597.51 1526.75 L2616.82 1526.75 L2616.82 1522.05 L2636.25 1522.05 L2636.25 1512.52 L2655.55 1512.52 L2655.55 1507.82 L2674.86 1507.82 L2674.86 1507.82 L2713.59 1507.82 L2713.59 1503.11 L2732.89 1503.11 L2732.89 1498.29 L2752.20 1498.29 L2752.20 1488.88 L2790.93 1488.88 L2790.93 1479.35 L2810.24 1479.35 L2810.24 1474.53 L2848.97 1474.53 L2848.97 1465.12 L2868.28 1465.12 L2868.28 1460.30 L2887.71 1460.30 L2887.71 1460.30 L2926.32 1460.30 L2926.32 1460.30 L2945.62 1460.30 L2945.62 1460.30 L2965.05 1460.30 L2965.05 1455.59 L2984.36 1455.59 L2984.36 1455.59 L3003.66 1455.59 L3003.66 1450.77 L3023.09 1450.77 L3023.09 1446.06 L3042.39 1446.06 L3042.39 1446.06 L3061.70 1446.06 L3061.70 1446.06 L3081.13 1446.06 L3081.13 1431.71 L3139.17 1431.71 L3139.17 1427.01 L3177.78 1427.01 L3177.78 1427.01 L3177.78 1154.50 L3177.78 1154.50 L3139.17 1154.50 L3139.17 1159.94 L3081.13 1159.94 L3081.13 1176.40 L3061.70 1176.40 L3061.70 1176.40 L3042.39 1176.40 L3042.39 1176.40 L3023.09 1176.40 L3023.09 1181.97 L3003.66 1181.97 L3003.66 1187.42 L2984.36 1187.42 L2984.36 1187.42 L2965.05 1187.42 L2965.05 1192.99 L2945.62 1192.99 L2945.62 1192.99 L2926.32 1192.99 L2926.32 1192.99 L2887.71 1192.99 L2887.71 1192.99 L2868.28 1192.99 L2868.28 1198.43 L2848.97 1198.43 L2848.97 1209.45 L2810.24 1209.45 L2810.24 1215.02 L2790.93 1215.02 L2790.93 1226.03 L2752.20 1226.03 L2752.20 1237.04 L2732.89 1237.04 L2732.89 1242.49 L2713.59 1242.49 L2713.59 1248.06 L2674.86 1248.06 L2674.86 1248.06 L2655.55 1248.06 L2655.55 1253.50 L2636.25 1253.50 L2636.25 1264.52 L2616.82 1264.52 L2616.82 1270.09 L2597.51 1270.09 L2597.51 1275.53 L2578.21 1275.53 L2578.21 1275.53 L2558.78 1275.53 L2558.78 1281.10 L2539.47 1281.10 L2539.47 1286.55 L2520.17 1286.55 L2520.17 1286.55 L2500.74 1286.55 L2500.74 1286.55 L2481.43 1286.55 L2481.43 1297.68 L2462.13 1297.68 L2462.13 1303.13 L2404.09 1303.13 L2404.09 1308.70 L2384.79 1308.70 L2384.79 1308.70 L2346.05 1308.70 L2346.05 1314.14 L2326.75 1314.14 L2326.75 1314.14 L2307.32 1314.14 L2307.32 1314.14 L2288.01 1314.14 L2288.01 1314.14 L2268.71 1314.14 L2268.71 1319.71 L2249.28 1319.71 L2249.28 1325.16 L2229.97 1325.16 L2229.97 1341.74 L2210.67 1341.74 L2210.67 1347.31 L2191.24 1347.31 L2191.24 1363.89 L2171.94 1363.89 L2171.94 1363.89 L2152.63 1363.89 L2152.63 1363.89 L2133.20 1363.89 L2133.20 1369.46 L2113.90 1369.46 L2113.90 1402.63 L2094.59 1402.63 L2094.59 1419.21 L2075.29 1419.21 L2075.29 1424.78 L2055.86 1424.78 L2055.86 1430.35 L2036.55 1430.35 L2036.55 1441.36 L2017.25 1441.36 L2017.25 1452.50 L1997.82 1452.50 L1997.82 1463.64 L1978.52 1463.64 L1978.52 1463.64 L1959.21 1463.64 L1959.21 1480.22 L1939.78 1480.22 L1939.78 1502.50 L1920.48 1502.50 L1920.48 1513.63 L1901.17 1513.63 L1901.17 1524.77 L1881.74 1524.77 L1881.74 1530.34 L1862.44 1530.34 L1862.44 1552.62 L1843.13 1552.62 L1843.13 1575.02 L1823.83 1575.02 L1823.83 1608.55 L1804.40 1608.55 L1804.40 1692.83 L1785.09 1692.83 L1785.09 1715.35 L1765.79 1715.35 L1765.79 1726.74 L1746.36 1726.74 L1746.36 1738.00 L1727.06 1738.00 L1727.06 1743.69 L1707.75 1743.69 L1707.75 1755.08 L1688.32 1755.08 L1688.32 1760.65 L1669.02 1760.65 L1669.02 1772.03 L1649.71 1772.03 L1649.71 1794.80 L1630.28 1794.80 L1630.28 1800.50 L1610.98 1800.50 L1610.98 1800.50 L1591.67 1800.50 L1591.67 1846.28 L1572.37 1846.28 L1572.37 1846.28 L1552.94 1846.28 L1552.94 1857.79 L1533.63 1857.79 L1533.63 1898.14 L1514.33 1898.14 L1514.33 1915.46 L1494.90 1915.46 L1494.90 1932.91 L1475.60 1932.91 L1475.60 1932.91 L1456.29 1932.91 L1456.29 1944.67 L1436.86 1944.67 L1436.86 1985.75 L1417.56 1985.75 L1417.56 2003.45 L1398.25 2003.45 L1398.25 2021.27 L1378.82 2021.27 L1378.82 2051.34 L1359.52 2051.34 L1359.52 2069.54 L1340.21 2069.54 L1340.21 2075.72 L1320.91 2075.72 L1320.91 2094.16 L1301.48 2094.16 L1301.48 2094.16 L1282.17 2094.16 L1282.17 2106.66 L1262.87 2106.66 L1262.87 2119.16 L1243.44 2119.16 L1243.44 2138.34 L1224.13 2138.34 L1224.13 2144.78 L1204.83 2144.78 L1204.83 2151.21 L1185.40 2151.21 L1185.40 2157.77 L1166.10 2157.77 L1166.10 2171.14 L1146.79 2171.14 L1146.79 2177.94 L1127.36 2177.94 L1127.36 2191.68 L1108.06 2191.68 L1108.06 2198.49 L1088.75 2198.49 L1088.75 2205.17 L1069.45 2205.17 L1069.45 2205.17 L1050.02 2205.17 L1050.02 2209.75 L1011.41 2209.75 L1011.41 2209.75 L991.98 2209.75 L991.98 2209.75 L972.67 2209.75 L972.67 2245.14 Z" stroke-linejoin="round"/>
	</defs>
	<defs>
		<clipPath id="clipPath_WjaYOxlG">
			<use xlink:href="#path_njuWNNyj"/>
		</clipPath>
	</defs>
	<use xlink:href="#path_njuWNNyj" style="stroke:none;fill:#EEE1E2"/>
	<use xlink:href="#path_njuWNNyj" style="fill:none;stroke:#EEE1E2;stroke-width:17.28" clip-path="url(#clipPath_WjaYOxlG)"/>
	<path d=" M972.55 2245.27 L991.98 2245.27 L991.98 2245.27 L1011.28 2245.27 L1011.28 2245.27 L1050.02 2245.27 L1050.02 2243.41 L1069.32 2243.41 L1069.32 2243.41 L1088.63 2243.41 L1088.63 2241.06 L1108.06 2241.06 L1108.06 2238.34 L1127.36 2238.34 L1127.36 2232.27 L1146.67 2232.27 L1146.67 2228.93 L1166.10 2228.93 L1166.10 2222.12 L1185.40 2222.12 L1185.40 2218.54 L1204.71 2218.54 L1204.71 2214.95 L1224.01 2214.95 L1224.01 2211.23 L1243.44 2211.23 L1243.44 2199.85 L1262.74 2199.85 L1262.74 2192.18 L1282.05 2192.18 L1282.05 2184.26 L1301.48 2184.26 L1301.48 2184.26 L1320.78 2184.26 L1320.78 2172.13 L1340.09 2172.13 L1340.09 2168.04 L1359.52 2168.04 L1359.52 2155.79 L1378.82 2155.79 L1378.82 2134.88 L1398.13 2134.88 L1398.13 2122.13 L1417.56 2122.13 L1417.56 2109.26 L1436.86 2109.26 L1436.86 2079.06 L1456.17 2079.06 L1456.17 2070.28 L1475.47 2070.28 L1475.47 2070.28 L1494.90 2070.28 L1494.90 2057.16 L1514.20 2057.16 L1514.20 2043.92 L1533.51 2043.92 L1533.51 2012.86 L1552.94 2012.86 L1552.94 2003.95 L1572.24 2003.95 L1572.24 2003.95 L1591.55 2003.95 L1591.55 1967.93 L1610.98 1967.93 L1610.98 1967.93 L1630.28 1967.93 L1630.28 1963.48 L1649.59 1963.48 L1649.59 1945.41 L1669.02 1945.41 L1669.02 1936.25 L1688.32 1936.25 L1688.32 1931.80 L1707.63 1931.80 L1707.63 1922.64 L1727.06 1922.64 L1727.06 1918.06 L1746.36 1918.06 L1746.36 1909.03 L1765.66 1909.03 L1765.66 1899.87 L1784.97 1899.87 L1784.97 1881.55 L1804.40 1881.55 L1804.40 1812.50 L1823.70 1812.50 L1823.70 1784.78 L1843.01 1784.78 L1843.01 1766.22 L1862.44 1766.22 L1862.44 1747.53 L1881.74 1747.53 L1881.74 1742.95 L1901.05 1742.95 L1901.05 1733.54 L1920.48 1733.54 L1920.48 1724.26 L1939.78 1724.26 L1939.78 1705.58 L1959.09 1705.58 L1959.09 1691.59 L1978.52 1691.59 L1978.52 1691.59 L1997.82 1691.59 L1997.82 1682.19 L2017.13 1682.19 L2017.13 1672.90 L2036.43 1672.90 L2036.43 1663.50 L2055.86 1663.50 L2055.86 1658.80 L2075.16 1658.80 L2075.16 1654.09 L2094.47 1654.09 L2094.47 1639.99 L2113.90 1639.99 L2113.90 1611.77 L2133.20 1611.77 L2133.20 1607.07 L2152.51 1607.07 L2152.51 1607.07 L2171.94 1607.07 L2171.94 1607.07 L2191.24 1607.07 L2191.24 1592.96 L2210.55 1592.96 L2210.55 1588.26 L2229.97 1588.26 L2229.97 1574.15 L2249.28 1574.15 L2249.28 1569.32 L2268.59 1569.32 L2268.59 1564.62 L2287.89 1564.62 L2287.89 1564.62 L2307.32 1564.62 L2307.32 1564.62 L2326.62 1564.62 L2326.62 1564.62 L2345.93 1564.62 L2345.93 1559.92 L2384.66 1559.92 L2384.66 1559.92 L2403.97 1559.92 L2403.97 1555.21 L2462.01 1555.21 L2462.01 1550.51 L2481.43 1550.51 L2481.43 1540.98 L2500.74 1540.98 L2500.74 1540.98 L2520.05 1540.98 L2520.05 1540.98 L2539.35 1540.98 L2539.35 1536.28 L2558.78 1536.28 L2558.78 1531.58 L2578.08 1531.58 L2578.08 1531.58 L2597.39 1531.58 L2597.39 1526.88 L2616.82 1526.88 L2616.82 1522.05 L2636.12 1522.05 L2636.12 1512.64 L2655.43 1512.64 L2655.43 1507.82 L2674.86 1507.82 L2674.86 1507.82 L2713.47 1507.82 L2713.47 1503.11 L2732.89 1503.11 L2732.89 1498.41 L2752.20 1498.41 L2752.20 1488.88 L2790.81 1488.88 L2790.81 1479.35 L2810.24 1479.35 L2810.24 1474.65 L2848.85 1474.65 L2848.85 1465.12 L2868.28 1465.12 L2868.28 1460.42 L2887.58 1460.42 L2887.58 1460.42 L2926.32 1460.42 L2926.32 1460.42 L2945.62 1460.42 L2945.62 1460.42 L2964.93 1460.42 L2964.93 1455.59 L2984.36 1455.59 L2984.36 1455.59 L3003.66 1455.59 L3003.66 1450.89 L3022.97 1450.89 L3022.97 1446.06 L3042.39 1446.06 L3042.39 1446.06 L3061.70 1446.06 L3061.70 1446.06 L3081.00 1446.06 L3081.00 1431.83 L3139.04 1431.83 L3139.04 1427.01 L3177.78 1427.01 L3177.78 1427.01" stroke-linejoin="round" style="fill:none;stroke:#C89A9D;stroke-width:8.64"/>
	<path d=" M972.55 2209.87 L991.98 2209.87 L991.98 2209.87 L1011.28 2209.87 L1011.28 2209.87 L1050.02 2209.87 L1050.02 2205.29 L1069.32 2205.29 L1069.32 2205.29 L1088.63 2205.29 L1088.63 2198.61 L1108.06 2198.61 L1108.06 2191.68 L1127.36 2191.68 L1127.36 2177.94 L1146.67 2177.94 L1146.67 2171.14 L1166.10 2171.14 L1166.10 2157.90 L1185.40 2157.90 L1185.40 2151.34 L1204.71 2151.34 L1204.71 2144.78 L1224.01 2144.78 L1224.01 2138.34 L1243.44 2138.34 L1243.44 2119.28 L1262.74 2119.28 L1262.74 2106.66 L1282.05 2106.66 L1282.05 2094.29 L1301.48 2094.29 L1301.48 2094.29 L1320.78 2094.29 L1320.78 2075.72 L1340.09 2075.72 L1340.09 2069.66 L1359.52 2069.66 L1359.52 2051.47 L1378.82 2051.47 L1378.82 2021.40 L1398.13 2021.40 L1398.13 2003.58 L1417.56 2003.58 L1417.56 1985.75 L1436.86 1985.75 L1436.86 1944.67 L1456.17 1944.67 L1456.17 1933.04 L1475.47 1933.04 L1475.47 1933.04 L1494.90 1933.04 L1494.90 1915.59 L1514.20 1915.59 L1514.20 1898.14 L1533.51 1898.14 L1533.51 1857.79 L1552.94 1857.79 L1552.94 1846.28 L1572.24 1846.28 L1572.24 1846.28 L1591.55 1846.28 L1591.55 1800.62 L1610.98 1800.62 L1610.98 1800.62 L1630.28 1800.62 L1630.28 1794.93 L1649.59 1794.93 L1649.59 1772.16 L1669.02 1772.16 L1669.02 1760.77 L1688.32 1760.77 L1688.32 1755.08 L1707.63 1755.08 L1707.63 1743.82 L1727.06 1743.82 L1727.06 1738.12 L1746.36 1738.12 L1746.36 1726.74 L1765.66 1726.74 L1765.66 1715.48 L1784.97 1715.48 L1784.97 1692.83 L1804.40 1692.83 L1804.40 1608.55 L1823.70 1608.55 L1823.70 1575.02 L1843.01 1575.02 L1843.01 1552.74 L1862.44 1552.74 L1862.44 1530.34 L1881.74 1530.34 L1881.74 1524.77 L1901.05 1524.77 L1901.05 1513.63 L1920.48 1513.63 L1920.48 1502.50 L1939.78 1502.50 L1939.78 1480.34 L1959.09 1480.34 L1959.09 1463.64 L1978.52 1463.64 L1978.52 1463.64 L1997.82 1463.64 L1997.82 1452.50 L2017.13 1452.50 L2017.13 1441.49 L2036.43 1441.49 L2036.43 1430.35 L2055.86 1430.35 L2055.86 1424.78 L2075.16 1424.78 L2075.16 1419.33 L2094.47 1419.33 L2094.47 1402.63 L2113.90 1402.63 L2113.90 1369.46 L2133.20 1369.46 L2133.20 1363.89 L2152.51 1363.89 L2152.51 1363.89 L2171.94 1363.89 L2171.94 1363.89 L2191.24 1363.89 L2191.24 1347.31 L2210.55 1347.31 L2210.55 1341.86 L2229.97 1341.86 L2229.97 1325.28 L2249.28 1325.28 L2249.28 1319.71 L2268.59 1319.71 L2268.59 1314.27 L2287.89 1314.27 L2287.89 1314.27 L2307.32 1314.27 L2307.32 1314.27 L2326.62 1314.27 L2326.62 1314.27 L2345.93 1314.27 L2345.93 1308.70 L2384.66 1308.70 L2384.66 1308.70 L2403.97 1308.70 L2403.97 1303.25 L2462.01 1303.25 L2462.01 1297.68 L2481.43 1297.68 L2481.43 1286.67 L2500.74 1286.67 L2500.74 1286.67 L2520.05 1286.67 L2520.05 1286.67 L2539.35 1286.67 L2539.35 1281.10 L2558.78 1281.10 L2558.78 1275.65 L2578.08 1275.65 L2578.08 1275.65 L2597.39 1275.65 L2597.39 1270.09 L2616.82 1270.09 L2616.82 1264.64 L2636.12 1264.64 L2636.12 1253.63 L2655.43 1253.63 L2655.43 1248.06 L2674.86 1248.06 L2674.86 1248.06 L2713.47 1248.06 L2713.47 1242.61 L2732.89 1242.61 L2732.89 1237.04 L2752.20 1237.04 L2752.20 1226.03 L2790.81 1226.03 L2790.81 1215.02 L2810.24 1215.02 L2810.24 1209.57 L2848.85 1209.57 L2848.85 1198.56 L2868.28 1198.56 L2868.28 1192.99 L2887.58 1192.99 L2887.58 1192.99 L2926.32 1192.99 L2926.32 1192.99 L2945.62 1192.99 L2945.62 1192.99 L2964.93 1192.99 L2964.93 1187.54 L2984.36 1187.54 L2984.36 1187.54 L3003.66 1187.54 L3003.66 1181.97 L3022.97 1181.97 L3022.97 1176.53 L3042.39 1176.53 L3042.39 1176.53 L3061.70 1176.53 L3061.70 1176.53 L3081.00 1176.53 L3081.00 1159.94 L3139.04 1159.94 L3139.04 1154.50 L3177.78 1154.50 L3177.78 1154.50" stroke-linejoin="round" style="fill:none;stroke:#C89A9D;stroke-width:8.64"/>
	<path d=" M682.48 2246.01 L682.48 2246.01 L682.48 2246.01 L701.79 2246.01 L701.79 2245.02 L721.09 2245.02 L721.09 2245.02 L740.52 2245.02 L740.52 2245.02 L759.83 2245.02 L759.83 2245.02 L779.13 2245.02 L779.13 2245.02 L798.56 2245.02 L798.56 2245.02 L817.86 2245.02 L817.86 2245.02 L837.17 2245.02 L837.17 2244.03 L856.60 2244.03 L856.60 2243.16 L875.90 2243.16 L875.90 2242.17 L895.21 2242.17 L895.21 2242.17 L914.64 2242.17 L914.64 2240.19 L933.94 2240.19 L933.94 2240.19 L953.25 2240.19 L953.25 2240.19 L972.55 2240.19 L972.55 2237.35 L991.98 2237.35 L991.98 2232.64 L1011.28 2232.64 L1011.28 2230.79 L1030.59 2230.79 L1030.59 2226.95 L1050.02 2226.95 L1050.02 2222.12 L1069.32 2222.12 L1069.32 2220.27 L1088.63 2220.27 L1088.63 2217.42 L1108.06 2217.42 L1108.06 2209.75 L1127.36 2209.75 L1127.36 2201.09 L1146.67 2201.09 L1146.67 2192.55 L1166.10 2192.55 L1166.10 2184.87 L1185.40 2184.87 L1185.40 2178.19 L1204.71 2178.19 L1204.71 2170.52 L1224.01 2170.52 L1224.01 2161.86 L1243.44 2161.86 L1243.44 2145.64 L1262.74 2145.64 L1262.74 2128.32 L1282.05 2128.32 L1282.05 2093.92 L1301.48 2093.92 L1301.48 2075.60 L1320.78 2075.60 L1320.78 2048.75 L1340.09 2048.75 L1340.09 2039.22 L1359.52 2039.22 L1359.52 2032.53 L1378.82 2032.53 L1378.82 2012.36 L1398.13 2012.36 L1398.13 2002.71 L1417.56 2002.71 L1417.56 1981.55 L1436.86 1981.55 L1436.86 1966.20 L1456.17 1966.20 L1456.17 1952.84 L1475.47 1952.84 L1475.47 1944.17 L1494.90 1944.17 L1494.90 1937.37 L1514.20 1937.37 L1514.20 1926.85 L1533.51 1926.85 L1533.51 1874.87 L1552.94 1874.87 L1552.94 1845.05 L1572.24 1845.05 L1572.24 1829.70 L1591.55 1829.70 L1591.55 1787.25 L1610.98 1787.25 L1610.98 1781.56 L1630.28 1781.56 L1630.28 1770.92 L1649.59 1770.92 L1649.59 1735.28 L1669.02 1735.28 L1669.02 1715.97 L1688.32 1715.97 L1688.32 1708.30 L1707.63 1708.30 L1707.63 1686.15 L1727.06 1686.15 L1727.06 1674.51 L1746.36 1674.51 L1746.36 1666.84 L1765.66 1666.84 L1765.66 1662.01 L1784.97 1662.01 L1784.97 1629.22 L1804.40 1629.22 L1804.40 1597.29 L1823.70 1597.29 L1823.70 1585.78 L1843.01 1585.78 L1843.01 1564.50 L1862.44 1564.50 L1862.44 1545.19 L1881.74 1545.19 L1881.74 1538.38 L1901.05 1538.38 L1901.05 1536.40 L1920.48 1536.40 L1920.48 1522.92 L1939.78 1522.92 L1939.78 1503.61 L1959.09 1503.61 L1959.09 1492.97 L1978.52 1492.97 L1978.52 1472.67 L1997.82 1472.67 L1997.82 1462.89 L2017.13 1462.89 L2017.13 1460.05 L2036.43 1460.05 L2036.43 1459.06 L2055.86 1459.06 L2055.86 1442.60 L2075.16 1442.60 L2075.16 1427.13 L2094.47 1427.13 L2094.47 1420.32 L2113.90 1420.32 L2113.90 1404.85 L2133.20 1404.85 L2133.20 1398.05 L2152.51 1398.05 L2152.51 1395.20 L2171.94 1395.20 L2171.94 1390.37 L2191.24 1390.37 L2191.24 1365.13 L2210.55 1365.13 L2210.55 1343.84 L2229.97 1343.84 L2229.97 1332.21 L2249.28 1332.21 L2249.28 1323.42 L2268.59 1323.42 L2268.59 1313.77 L2287.89 1313.77 L2287.89 1311.79 L2307.32 1311.79 L2307.32 1308.82 L2326.62 1308.82 L2326.62 1307.95 L2345.93 1307.95 L2345.93 1296.32 L2365.36 1296.32 L2365.36 1292.36 L2384.66 1292.36 L2384.66 1290.38 L2403.97 1290.38 L2403.97 1284.57 L2423.40 1284.57 L2423.40 1281.72 L2442.70 1281.72 L2442.70 1279.74 L2462.01 1279.74 L2462.01 1275.90 L2481.43 1275.90 L2481.43 1269.10 L2500.74 1269.10 L2500.74 1264.27 L2520.05 1264.27 L2520.05 1254.49 L2539.35 1254.49 L2539.35 1252.51 L2558.78 1252.51 L2558.78 1249.67 L2578.08 1249.67 L2578.08 1247.69 L2597.39 1247.69 L2597.39 1242.86 L2616.82 1242.86 L2616.82 1232.09 L2636.12 1232.09 L2636.12 1225.29 L2655.43 1225.29 L2655.43 1217.49 L2674.86 1217.49 L2674.86 1211.67 L2694.16 1211.67 L2694.16 1207.84 L2713.47 1207.84 L2713.47 1203.88 L2732.89 1203.88 L2732.89 1199.05 L2752.20 1199.05 L2752.20 1196.08 L2771.51 1196.08 L2771.51 1193.23 L2790.81 1193.23 L2790.81 1190.26 L2810.24 1190.26 L2810.24 1186.43 L2829.54 1186.43 L2829.54 1183.46 L2848.85 1183.46 L2848.85 1182.47 L2868.28 1182.47 L2868.28 1178.63 L2887.58 1178.63 L2887.58 1173.68 L2906.89 1173.68 L2906.89 1167.87 L2926.32 1167.87 L2926.32 1164.90 L2945.62 1164.90 L2945.62 1164.03 L2964.93 1164.03 L2964.93 1163.04 L2984.36 1163.04 L2984.36 1162.05 L3003.66 1162.05 L3003.66 1161.06 L3022.97 1161.06 L3022.97 1155.24 L3042.39 1155.24 L3042.39 1152.27 L3061.70 1152.27 L3061.70 1149.30 L3081.00 1149.30 L3081.00 1144.48 L3100.31 1144.48 L3100.31 1144.48 L3119.74 1144.48 L3119.74 1142.50 L3139.04 1142.50 L3139.04 1140.52 L3158.35 1140.52 L3158.35 1140.52 L3177.78 1140.52 L3177.78 1139.53" stroke-linejoin="round" style="fill:none;stroke:#1A476F;stroke-width:8.64"/>
	<path d=" M682.48 2246.01 L682.48 2246.01 L682.48 2246.01 L701.79 2246.01 L701.79 2246.01 L721.09 2246.01 L721.09 2246.01 L740.52 2246.01 L740.52 2246.01 L759.83 2246.01 L759.83 2246.01 L779.13 2246.01 L779.13 2246.01 L798.56 2246.01 L798.56 2246.01 L817.86 2246.01 L817.86 2246.01 L837.17 2246.01 L837.17 2246.01 L875.90 2246.01 L875.90 2246.01 L895.21 2246.01 L895.21 2246.01 L914.64 2246.01 L914.64 2246.01 L933.94 2246.01 L933.94 2246.01 L953.25 2246.01 L953.25 2246.01 L972.55 2246.01 L972.55 2240.81 L991.98 2240.81 L991.98 2240.81 L1011.28 2240.81 L1011.28 2240.81 L1050.02 2240.81 L1050.02 2235.74 L1069.32 2235.74 L1069.32 2235.74 L1088.63 2235.74 L1088.63 2230.66 L1108.06 2230.66 L1108.06 2225.59 L1127.36 2225.59 L1127.36 2215.44 L1146.67 2215.44 L1146.67 2210.37 L1166.10 2210.37 L1166.10 2200.10 L1185.40 2200.10 L1185.40 2195.02 L1204.71 2195.02 L1204.71 2189.95 L1224.01 2189.95 L1224.01 2184.87 L1243.44 2184.87 L1243.44 2169.53 L1262.74 2169.53 L1262.74 2159.38 L1282.05 2159.38 L1282.05 2149.11 L1301.48 2149.11 L1301.48 2149.11 L1320.78 2149.11 L1320.78 2133.89 L1340.09 2133.89 L1340.09 2128.81 L1359.52 2128.81 L1359.52 2113.47 L1378.82 2113.47 L1378.82 2087.98 L1398.13 2087.98 L1398.13 2072.75 L1417.56 2072.75 L1417.56 2057.41 L1436.86 2057.41 L1436.86 2021.64 L1456.17 2021.64 L1456.17 2011.50 L1475.47 2011.50 L1475.47 2011.50 L1494.90 2011.50 L1494.90 1996.15 L1514.20 1996.15 L1514.20 1980.93 L1533.51 1980.93 L1533.51 1945.16 L1552.94 1945.16 L1552.94 1934.89 L1572.24 1934.89 L1572.24 1934.89 L1591.55 1934.89 L1591.55 1894.05 L1610.98 1894.05 L1610.98 1894.05 L1630.28 1894.05 L1630.28 1888.98 L1649.59 1888.98 L1649.59 1868.56 L1669.02 1868.56 L1669.02 1858.29 L1688.32 1858.29 L1688.32 1853.21 L1707.63 1853.21 L1707.63 1843.07 L1727.06 1843.07 L1727.06 1837.87 L1746.36 1837.87 L1746.36 1827.72 L1765.66 1827.72 L1765.66 1817.45 L1784.97 1817.45 L1784.97 1797.03 L1804.40 1797.03 L1804.40 1720.30 L1823.70 1720.30 L1823.70 1689.61 L1843.01 1689.61 L1843.01 1669.19 L1862.44 1669.19 L1862.44 1648.77 L1881.74 1648.77 L1881.74 1643.70 L1901.05 1643.70 L1901.05 1633.43 L1920.48 1633.43 L1920.48 1623.16 L1939.78 1623.16 L1939.78 1602.74 L1959.09 1602.74 L1959.09 1587.39 L1978.52 1587.39 L1978.52 1587.39 L1997.82 1587.39 L1997.82 1577.12 L2017.13 1577.12 L2017.13 1566.97 L2036.43 1566.97 L2036.43 1556.70 L2055.86 1556.70 L2055.86 1551.63 L2075.16 1551.63 L2075.16 1546.43 L2094.47 1546.43 L2094.47 1531.08 L2113.90 1531.08 L2113.90 1500.39 L2133.20 1500.39 L2133.20 1495.32 L2152.51 1495.32 L2152.51 1495.32 L2171.94 1495.32 L2171.94 1495.32 L2191.24 1495.32 L2191.24 1479.97 L2210.55 1479.97 L2210.55 1474.77 L2229.97 1474.77 L2229.97 1459.43 L2249.28 1459.43 L2249.28 1454.36 L2268.59 1454.36 L2268.59 1449.16 L2287.89 1449.16 L2287.89 1449.16 L2307.32 1449.16 L2307.32 1449.16 L2326.62 1449.16 L2326.62 1449.16 L2345.93 1449.16 L2345.93 1444.08 L2384.66 1444.08 L2384.66 1444.08 L2403.97 1444.08 L2403.97 1439.01 L2462.01 1439.01 L2462.01 1433.81 L2481.43 1433.81 L2481.43 1423.54 L2500.74 1423.54 L2500.74 1423.54 L2520.05 1423.54 L2520.05 1423.54 L2539.35 1423.54 L2539.35 1418.47 L2558.78 1418.47 L2558.78 1413.39 L2578.08 1413.39 L2578.08 1413.39 L2597.39 1413.39 L2597.39 1408.20 L2616.82 1408.20 L2616.82 1403.12 L2636.12 1403.12 L2636.12 1392.85 L2655.43 1392.85 L2655.43 1387.78 L2674.86 1387.78 L2674.86 1387.78 L2713.47 1387.78 L2713.47 1382.58 L2732.89 1382.58 L2732.89 1377.50 L2752.20 1377.50 L2752.20 1367.23 L2790.81 1367.23 L2790.81 1356.96 L2810.24 1356.96 L2810.24 1351.89 L2848.85 1351.89 L2848.85 1341.62 L2868.28 1341.62 L2868.28 1336.42 L2887.58 1336.42 L2887.58 1336.42 L2926.32 1336.42 L2926.32 1336.42 L2945.62 1336.42 L2945.62 1336.42 L2964.93 1336.42 L2964.93 1331.34 L2984.36 1331.34 L2984.36 1331.34 L3003.66 1331.34 L3003.66 1326.15 L3022.97 1326.15 L3022.97 1321.07 L3042.39 1321.07 L3042.39 1321.07 L3061.70 1321.07 L3061.70 1321.07 L3081.00 1321.07 L3081.00 1305.60 L3139.04 1305.60 L3139.04 1300.53 L3177.78 1300.53 L3177.78 1300.53" stroke-linejoin="round" style="fill:none;stroke:#90353B;stroke-width:8.64"/>
	<line x1="619.12" y1="2309.25" x2="619.12" y2="630.90" style="stroke:#000000;stroke-width:5.76"/>
	<line x1="619.12" y1="2245.89" x2="579.15" y2="2245.89" style="stroke:#000000;stroke-width:5.76"/>
	<text x="559.23" y="2273.90" style="font-family:'Helvetica';font-size:79.94px;fill:#000000" text-anchor="end">0.000</text>
	<line x1="619.12" y1="2090.70" x2="579.15" y2="2090.70" style="stroke:#000000;stroke-width:5.76"/>
	<text x="559.23" y="2118.71" style="font-family:'Helvetica';font-size:79.94px;fill:#000000" text-anchor="end">0.001</text>
	<line x1="619.12" y1="1935.51" x2="579.15" y2="1935.51" style="stroke:#000000;stroke-width:5.76"/>
	<text x="559.23" y="1963.52" style="font-family:'Helvetica';font-size:79.94px;fill:#000000" text-anchor="end">0.002</text>
	<line x1="619.12" y1="1780.45" x2="579.15" y2="1780.45" style="stroke:#000000;stroke-width:5.76"/>
	<text x="559.23" y="1808.46" style="font-family:'Helvetica';font-size:79.94px;fill:#000000" text-anchor="end">0.003</text>
	<line x1="619.12" y1="1625.26" x2="579.15" y2="1625.26" style="stroke:#000000;stroke-width:5.76"/>
	<text x="559.23" y="1653.27" style="font-family:'Helvetica';font-size:79.94px;fill:#000000" text-anchor="end">0.004</text>
	<line x1="619.12" y1="1470.07" x2="579.15" y2="1470.07" style="stroke:#000000;stroke-width:5.76"/>
	<text x="559.23" y="1498.08" style="font-family:'Helvetica';font-size:79.94px;fill:#000000" text-anchor="end">0.005</text>
	<line x1="619.12" y1="1314.88" x2="579.15" y2="1314.88" style="stroke:#000000;stroke-width:5.76"/>
	<text x="559.23" y="1342.90" style="font-family:'Helvetica';font-size:79.94px;fill:#000000" text-anchor="end">0.006</text>
	<line x1="619.12" y1="1159.70" x2="579.15" y2="1159.70" style="stroke:#000000;stroke-width:5.76"/>
	<text x="559.23" y="1187.71" style="font-family:'Helvetica';font-size:79.94px;fill:#000000" text-anchor="end">0.007</text>
	<line x1="619.12" y1="1004.51" x2="579.15" y2="1004.51" style="stroke:#000000;stroke-width:5.76"/>
	<text x="559.23" y="1032.52" style="font-family:'Helvetica';font-size:79.94px;fill:#000000" text-anchor="end">0.008</text>
	<line x1="619.12" y1="849.45" x2="579.15" y2="849.45" style="stroke:#000000;stroke-width:5.76"/>
	<text x="559.23" y="877.46" style="font-family:'Helvetica';font-size:79.94px;fill:#000000" text-anchor="end">0.009</text>
	<line x1="619.12" y1="694.26" x2="579.15" y2="694.26" style="stroke:#000000;stroke-width:5.76"/>
	<text x="559.23" y="722.27" style="font-family:'Helvetica';font-size:79.94px;fill:#000000" text-anchor="end">0.010</text>
	<line x1="619.12" y1="2309.25" x2="3840.83" y2="2309.25" style="stroke:#000000;stroke-width:5.76"/>
	<line x1="682.48" y1="2309.25" x2="682.48" y2="2349.22" style="stroke:#000000;stroke-width:5.76"/>
	<text x="682.48" y="2425.17" style="font-family:'Helvetica';font-size:79.94px;fill:#000000" text-anchor="middle">0</text>
	<line x1="1069.45" y1="2309.25" x2="1069.45" y2="2349.22" style="stroke:#000000;stroke-width:5.76"/>
	<text x="1069.45" y="2425.17" style="font-family:'Helvetica';font-size:79.94px;fill:#000000" text-anchor="middle">20</text>
	<line x1="1456.29" y1="2309.25" x2="1456.29" y2="2349.22" style="stroke:#000000;stroke-width:5.76"/>
	<text x="1456.29" y="2425.17" style="font-family:'Helvetica';font-size:79.94px;fill:#000000" text-anchor="middle">40</text>
	<line x1="1843.13" y1="2309.25" x2="1843.13" y2="2349.22" style="stroke:#000000;stroke-width:5.76"/>
	<text x="1843.13" y="2425.17" style="font-family:'Helvetica';font-size:79.94px;fill:#000000" text-anchor="middle">60</text>
	<line x1="2229.97" y1="2309.25" x2="2229.97" y2="2349.22" style="stroke:#000000;stroke-width:5.76"/>
	<text x="2229.97" y="2425.17" style="font-family:'Helvetica';font-size:79.94px;fill:#000000" text-anchor="middle">80</text>
	<line x1="2616.82" y1="2309.25" x2="2616.82" y2="2349.22" style="stroke:#000000;stroke-width:5.76"/>
	<text x="2616.82" y="2425.17" style="font-family:'Helvetica';font-size:79.94px;fill:#000000" text-anchor="middle">100</text>
	<line x1="3003.66" y1="2309.25" x2="3003.66" y2="2349.22" style="stroke:#000000;stroke-width:5.76"/>
	<text x="3003.66" y="2425.17" style="font-family:'Helvetica';font-size:79.94px;fill:#000000" text-anchor="middle">120</text>
	<line x1="3390.63" y1="2309.25" x2="3390.63" y2="2349.22" style="stroke:#000000;stroke-width:5.76"/>
	<text x="3390.63" y="2425.17" style="font-family:'Helvetica';font-size:79.94px;fill:#000000" text-anchor="middle">140</text>
	<line x1="3777.47" y1="2309.25" x2="3777.47" y2="2349.22" style="stroke:#000000;stroke-width:5.76"/>
	<text x="3777.47" y="2425.17" style="font-family:'Helvetica';font-size:79.94px;fill:#000000" text-anchor="middle">160</text>
	<text x="2229.97" y="2515.14" style="font-family:'Helvetica';font-size:79.94px;fill:#000000" text-anchor="middle">Days since 1 Mar 2020</text>
	<text x="682.48" y="2747.83" style="font-family:'Helvetica';font-size:60.02px;fill:#000000" text-anchor="middle">30499</text>
	<text x="1069.45" y="2747.83" style="font-family:'Helvetica';font-size:60.02px;fill:#000000" text-anchor="middle">30467</text>
	<text x="1456.29" y="2747.83" style="font-family:'Helvetica';font-size:60.02px;fill:#000000" text-anchor="middle">30376</text>
	<text x="1843.13" y="2747.83" style="font-family:'Helvetica';font-size:60.02px;fill:#000000" text-anchor="middle">30237</text>
	<text x="2229.97" y="2747.83" style="font-family:'Helvetica';font-size:60.02px;fill:#000000" text-anchor="middle">30159</text>
	<text x="2616.82" y="2747.83" style="font-family:'Helvetica';font-size:60.02px;fill:#000000" text-anchor="middle">30109</text>
	<text x="3003.66" y="2747.83" style="font-family:'Helvetica';font-size:60.02px;fill:#000000" text-anchor="middle">30063</text>
	<text x="3390.63" y="2747.83" style="font-family:'Helvetica';font-size:60.02px;fill:#000000" text-anchor="middle">0</text>
	<text x="3777.47" y="2747.83" style="font-family:'Helvetica';font-size:60.02px;fill:#000000" text-anchor="middle">0</text>
	<text x="527.79" y="2747.83" style="font-family:'Helvetica';font-size:60.02px;fill:#000000" text-anchor="end">HCQ</text>
	<text x="682.48" y="2674.44" style="font-family:'Helvetica';font-size:60.02px;fill:#000000" text-anchor="middle">163727</text>
	<text x="1069.45" y="2674.44" style="font-family:'Helvetica';font-size:60.02px;fill:#000000" text-anchor="middle">162508</text>
	<text x="1456.29" y="2674.44" style="font-family:'Helvetica';font-size:60.02px;fill:#000000" text-anchor="middle">161155</text>
	<text x="1843.13" y="2674.44" style="font-family:'Helvetica';font-size:60.02px;fill:#000000" text-anchor="middle">159955</text>
	<text x="2229.97" y="2674.44" style="font-family:'Helvetica';font-size:60.02px;fill:#000000" text-anchor="middle">159097</text>
	<text x="2616.82" y="2674.44" style="font-family:'Helvetica';font-size:60.02px;fill:#000000" text-anchor="middle">158503</text>
	<text x="3003.66" y="2674.44" style="font-family:'Helvetica';font-size:60.02px;fill:#000000" text-anchor="middle">158000</text>
	<text x="3390.63" y="2674.44" style="font-family:'Helvetica';font-size:60.02px;fill:#000000" text-anchor="middle">0</text>
	<text x="3777.47" y="2674.44" style="font-family:'Helvetica';font-size:60.02px;fill:#000000" text-anchor="middle">0</text>
	<text x="527.79" y="2674.44" style="font-family:'Helvetica';font-size:60.02px;fill:#000000" text-anchor="end">No HCQ</text>
	<text x="527.79" y="2601.18" style="font-family:'Helvetica';font-size:60.02px;fill:#000000" text-anchor="end">Number at risk</text>
	<rect x="1167.95" y="269.91" width="2124.05" height="326.46" style="fill:#FFFFFF"/>
	<rect x="1170.83" y="272.79" width="2118.29" height="320.70" style="fill:none;stroke:#EAF2F3;stroke-width:5.76"/>
	<rect x="1211.14" y="313.10" width="374.34" height="99.99" style="fill:#DDE3E9"/>
	<rect x="1215.46" y="317.42" width="365.70" height="91.35" style="fill:none;stroke:#DDE3E9;stroke-width:8.64"/>
	<rect x="2349.02" y="313.10" width="374.34" height="99.99" style="fill:#EEE1E2"/>
	<rect x="2353.34" y="317.42" width="365.70" height="91.35" style="fill:none;stroke:#EEE1E2;stroke-width:8.64"/>
	<line x1="1211.14" y1="503.06" x2="1585.48" y2="503.06" style="stroke:#1A476F;stroke-width:8.64"/>
	<line x1="2349.02" y1="503.06" x2="2723.37" y2="503.06" style="stroke:#90353B;stroke-width:8.64"/>
	<text x="1645.50" y="384.13" style="font-family:'Helvetica';font-size:60.02px;fill:#000000">No HCQ</text>
	<text x="2783.39" y="384.13" style="font-family:'Helvetica';font-size:60.02px;fill:#000000">95% CI</text>
	<text x="1645.50" y="524.10" style="font-family:'Helvetica';font-size:60.02px;fill:#000000">exposure = No HCQ</text>
	<text x="2783.39" y="524.10" style="font-family:'Helvetica';font-size:60.02px;fill:#000000">exposure = HCQ</text>
	<text x="1203.35" y="187.99" style="font-family:'Helvetica';font-size:99.99px;fill:#1E2D53">Time to Primary care positive COVID-19 test</text>
</svg>
