<?xml version="1.0" encoding="UTF-8" standalone="no"?>
<!-- This is a Stata 16.1 generated SVG file (http://www.stata.com) -->

<svg version="1.1" width="5.50in" height="4.00in" viewBox="0 0 3960 2880" xmlns="http://www.w3.org/2000/svg" xmlns:xlink="http://www.w3.org/1999/xlink">
	<desc>Stata Graph - Graph</desc>
	<rect x="0" y="0" width="3960" height="2880" style="fill:#EAF2F3;stroke:none"/>
	<rect x="0.00" y="0.00" width="3959.88" height="2880.00" style="fill:#FFFFFF"/>
	<rect x="2.88" y="2.88" width="3954.12" height="2874.24" style="fill:none;stroke:#EAF2F3;stroke-width:5.76"/>
	<rect x="619.12" y="630.90" width="3221.71" height="1678.35" style="fill:#FFFFFF"/>
	<rect x="622.00" y="633.78" width="3215.95" height="1672.59" style="fill:none;stroke:#FFFFFF;stroke-width:5.76"/>
	<line x1="619.12" y1="2245.89" x2="3840.83" y2="2245.89" style="stroke:#EAF2F3;stroke-width:8.64"/>
	<line x1="619.12" y1="2090.70" x2="3840.83" y2="2090.70" style="stroke:#EAF2F3;stroke-width:8.64"/>
	<line x1="619.12" y1="1935.51" x2="3840.83" y2="1935.51" style="stroke:#EAF2F3;stroke-width:8.64"/>
	<line x1="619.12" y1="1780.45" x2="3840.83" y2="1780.45" style="stroke:#EAF2F3;stroke-width:8.64"/>
	<line x1="619.12" y1="1625.26" x2="3840.83" y2="1625.26" style="stroke:#EAF2F3;stroke-width:8.64"/>
	<line x1="619.12" y1="1470.07" x2="3840.83" y2="1470.07" style="stroke:#EAF2F3;stroke-width:8.64"/>
	<line x1="619.12" y1="1314.88" x2="3840.83" y2="1314.88" style="stroke:#EAF2F3;stroke-width:8.64"/>
	<line x1="619.12" y1="1159.70" x2="3840.83" y2="1159.70" style="stroke:#EAF2F3;stroke-width:8.64"/>
	<line x1="619.12" y1="1004.51" x2="3840.83" y2="1004.51" style="stroke:#EAF2F3;stroke-width:8.64"/>
	<line x1="619.12" y1="849.45" x2="3840.83" y2="849.45" style="stroke:#EAF2F3;stroke-width:8.64"/>
	<line x1="619.12" y1="694.26" x2="3840.83" y2="694.26" style="stroke:#EAF2F3;stroke-width:8.64"/>
	<defs>
		<path id="path_KmXsrldN" d="M692.13 2245.02 L692.13 2245.02 L701.91 2245.02 L701.91 2244.52 L721.22 2244.52 L721.22 2244.52 L740.52 2244.52 L740.52 2244.52 L759.95 2244.52 L759.95 2244.52 L779.25 2244.52 L779.25 2244.52 L798.56 2244.52 L798.56 2244.52 L817.86 2244.52 L817.86 2244.52 L837.29 2244.52 L837.29 2243.91 L856.60 2243.91 L856.60 2243.29 L875.90 2243.29 L875.90 2242.79 L895.33 2242.79 L895.33 2242.79 L914.64 2242.79 L914.64 2241.43 L933.94 2241.43 L933.94 2241.43 L953.37 2241.43 L953.37 2241.43 L972.67 2241.43 L972.67 2239.45 L991.98 2239.45 L991.98 2235.86 L1011.41 2235.86 L1011.41 2234.38 L1030.71 2234.38 L1030.71 2229.92 L1050.02 2229.92 L1050.02 2225.96 L1069.45 2225.96 L1069.45 2224.48 L1088.75 2224.48 L1088.75 2222.00 L1108.06 2222.00 L1108.06 2215.69 L1127.36 2215.69 L1127.36 2208.26 L1146.79 2208.26 L1146.79 2200.84 L1166.10 2200.84 L1166.10 2194.16 L1185.40 2194.16 L1185.40 2188.22 L1204.83 2188.22 L1204.83 2183.14 L1224.13 2183.14 L1224.13 2174.60 L1243.44 2174.60 L1243.44 2160.74 L1262.87 2160.74 L1262.87 2145.15 L1282.17 2145.15 L1282.17 2115.32 L1301.48 2115.32 L1301.48 2098.62 L1320.91 2098.62 L1320.91 2073.74 L1340.21 2073.74 L1340.21 2066.57 L1359.52 2066.57 L1359.52 2060.38 L1378.82 2060.38 L1378.82 2041.57 L1398.25 2041.57 L1398.25 2033.52 L1417.56 2033.52 L1417.56 2013.72 L1436.86 2013.72 L1436.86 2000.23 L1456.29 2000.23 L1456.29 1990.33 L1475.60 1990.33 L1475.60 1982.17 L1494.90 1982.17 L1494.90 1976.72 L1514.33 1976.72 L1514.33 1967.69 L1533.63 1967.69 L1533.63 1918.68 L1552.94 1918.68 L1552.94 1891.33 L1572.37 1891.33 L1572.37 1877.59 L1591.67 1877.59 L1591.67 1837.37 L1610.98 1837.37 L1610.98 1831.93 L1630.28 1831.93 L1630.28 1822.77 L1649.71 1822.77 L1649.71 1788.74 L1669.02 1788.74 L1669.02 1771.29 L1688.32 1771.29 L1688.32 1763.99 L1707.75 1763.99 L1707.75 1746.41 L1727.06 1746.41 L1727.06 1735.40 L1746.36 1735.40 L1746.36 1727.98 L1765.79 1727.98 L1765.79 1722.53 L1785.09 1722.53 L1785.09 1692.95 L1804.40 1692.95 L1804.40 1659.66 L1823.83 1659.66 L1823.83 1648.53 L1843.13 1648.53 L1843.13 1626.37 L1862.44 1626.37 L1862.44 1607.81 L1881.74 1607.81 L1881.74 1602.24 L1901.17 1602.24 L1901.17 1600.39 L1920.48 1600.39 L1920.48 1586.40 L1939.78 1586.40 L1939.78 1565.98 L1959.21 1565.98 L1959.21 1556.70 L1978.52 1556.70 L1978.52 1537.15 L1997.82 1537.15 L1997.82 1528.86 L2017.25 1528.86 L2017.25 1526.01 L2036.55 1526.01 L2036.55 1524.15 L2055.86 1524.15 L2055.86 1506.46 L2075.29 1506.46 L2075.29 1491.61 L2094.59 1491.61 L2094.59 1484.06 L2113.90 1484.06 L2113.90 1469.21 L2133.20 1469.21 L2133.20 1462.65 L2152.63 1462.65 L2152.63 1459.80 L2171.94 1459.80 L2171.94 1454.23 L2191.24 1454.23 L2191.24 1430.84 L2210.67 1430.84 L2210.67 1409.43 L2229.97 1409.43 L2229.97 1399.16 L2249.28 1399.16 L2249.28 1390.75 L2268.71 1390.75 L2268.71 1381.34 L2288.01 1381.34 L2288.01 1379.48 L2307.32 1379.48 L2307.32 1376.64 L2326.75 1376.64 L2326.75 1374.78 L2346.05 1374.78 L2346.05 1361.66 L2365.36 1361.66 L2365.36 1357.95 L2384.79 1357.95 L2384.79 1355.10 L2404.09 1355.10 L2404.09 1346.69 L2423.40 1346.69 L2423.40 1342.98 L2442.70 1342.98 L2442.70 1337.28 L2462.13 1337.28 L2462.13 1333.57 L2481.43 1333.57 L2481.43 1327.01 L2500.74 1327.01 L2500.74 1320.45 L2520.17 1320.45 L2520.17 1310.06 L2539.47 1310.06 L2539.47 1308.20 L2558.78 1308.20 L2558.78 1304.49 L2578.21 1304.49 L2578.21 1301.64 L2597.51 1301.64 L2597.51 1296.94 L2616.82 1296.94 L2616.82 1289.39 L2636.25 1289.39 L2636.25 1280.98 L2655.55 1280.98 L2655.55 1274.42 L2674.86 1274.42 L2674.86 1269.71 L2694.16 1269.71 L2694.16 1266.00 L2713.59 1266.00 L2713.59 1262.17 L2732.89 1262.17 L2732.89 1256.60 L2752.20 1256.60 L2752.20 1252.76 L2771.63 1252.76 L2771.63 1249.91 L2790.93 1249.91 L2790.93 1246.20 L2810.24 1246.20 L2810.24 1241.50 L2829.67 1241.50 L2829.67 1238.65 L2848.97 1238.65 L2848.97 1237.66 L2868.28 1237.66 L2868.28 1232.96 L2887.71 1232.96 L2887.71 1228.26 L2907.01 1228.26 L2907.01 1223.55 L2926.32 1223.55 L2926.32 1220.71 L2945.62 1220.71 L2945.62 1219.84 L2965.05 1219.84 L2965.05 1218.85 L2984.36 1218.85 L2984.36 1217.86 L3003.66 1217.86 L3003.66 1217.00 L3023.09 1217.00 L3023.09 1211.30 L3042.39 1211.30 L3042.39 1208.46 L3061.70 1208.46 L3061.70 1205.61 L3081.13 1205.61 L3081.13 1201.90 L3100.43 1201.90 L3100.43 1201.90 L3119.74 1201.90 L3119.74 1200.04 L3139.17 1200.04 L3139.17 1198.06 L3158.47 1198.06 L3158.47 1198.06 L3177.78 1198.06 L3177.78 1194.35 L3197.08 1194.35 L3197.08 1192.49 L3216.51 1192.49 L3216.51 1189.65 L3235.82 1189.65 L3235.82 1187.67 L3255.12 1187.67 L3255.12 1186.80 L3274.55 1186.80 L3274.55 1186.80 L3293.85 1186.80 L3293.85 1181.97 L3313.16 1181.97 L3313.16 1181.11 L3332.59 1181.11 L3332.59 1179.25 L3351.89 1179.25 L3351.89 1176.40 L3371.20 1176.40 L3371.20 1175.41 L3390.63 1175.41 L3390.63 1173.56 L3409.93 1173.56 L3409.93 1171.58 L3429.24 1171.58 L3429.24 1169.72 L3448.54 1169.72 L3448.54 1169.72 L3467.97 1169.72 L3467.97 1167.87 L3487.28 1167.87 L3487.28 1165.02 L3506.58 1165.02 L3506.58 1163.16 L3526.01 1163.16 L3526.01 1163.16 L3545.31 1163.16 L3545.31 1161.18 L3564.62 1161.18 L3564.62 1160.32 L3584.05 1160.32 L3584.05 1160.32 L3603.35 1160.32 L3603.35 1156.48 L3622.66 1156.48 L3622.66 1153.63 L3642.09 1153.63 L3642.09 1153.63 L3661.39 1153.63 L3661.39 1151.78 L3680.70 1151.78 L3680.70 1149.80 L3700.13 1149.80 L3700.13 1147.94 L3719.43 1147.94 L3719.43 1146.95 L3738.74 1146.95 L3738.74 1146.08 L3738.74 1015.40 L3738.74 1016.39 L3719.43 1016.39 L3719.43 1017.38 L3700.13 1017.38 L3700.13 1019.36 L3680.70 1019.36 L3680.70 1021.34 L3661.39 1021.34 L3661.39 1023.44 L3642.09 1023.44 L3642.09 1023.44 L3622.66 1023.44 L3622.66 1026.41 L3603.35 1026.41 L3603.35 1030.37 L3584.05 1030.37 L3584.05 1030.37 L3564.62 1030.37 L3564.62 1031.36 L3545.31 1031.36 L3545.31 1033.47 L3526.01 1033.47 L3526.01 1033.47 L3506.58 1033.47 L3506.58 1035.45 L3487.28 1035.45 L3487.28 1038.42 L3467.97 1038.42 L3467.97 1040.40 L3448.54 1040.40 L3448.54 1040.40 L3429.24 1040.40 L3429.24 1042.50 L3409.93 1042.50 L3409.93 1044.48 L3390.63 1044.48 L3390.63 1046.46 L3371.20 1046.46 L3371.20 1047.45 L3351.89 1047.45 L3351.89 1050.42 L3332.59 1050.42 L3332.59 1052.40 L3313.16 1052.40 L3313.16 1053.52 L3293.85 1053.52 L3293.85 1058.47 L3274.55 1058.47 L3274.55 1058.47 L3255.12 1058.47 L3255.12 1059.46 L3235.82 1059.46 L3235.82 1061.44 L3216.51 1061.44 L3216.51 1064.53 L3197.08 1064.53 L3197.08 1066.51 L3177.78 1066.51 L3177.78 1070.47 L3158.47 1070.47 L3158.47 1070.47 L3139.17 1070.47 L3139.17 1072.45 L3119.74 1072.45 L3119.74 1074.43 L3100.43 1074.43 L3100.43 1074.43 L3081.13 1074.43 L3081.13 1078.51 L3061.70 1078.51 L3061.70 1081.49 L3042.39 1081.49 L3042.39 1084.46 L3023.09 1084.46 L3023.09 1090.52 L3003.66 1090.52 L3003.66 1091.51 L2984.36 1091.51 L2984.36 1092.50 L2965.05 1092.50 L2965.05 1093.49 L2945.62 1093.49 L2945.62 1094.48 L2926.32 1094.48 L2926.32 1097.45 L2907.01 1097.45 L2907.01 1102.52 L2887.71 1102.52 L2887.71 1107.47 L2868.28 1107.47 L2868.28 1112.42 L2848.97 1112.42 L2848.97 1113.41 L2829.67 1113.41 L2829.67 1116.51 L2810.24 1116.51 L2810.24 1121.46 L2790.93 1121.46 L2790.93 1125.42 L2771.63 1125.42 L2771.63 1128.39 L2752.20 1128.39 L2752.20 1132.47 L2732.89 1132.47 L2732.89 1138.41 L2713.59 1138.41 L2713.59 1142.37 L2694.16 1142.37 L2694.16 1146.46 L2674.86 1146.46 L2674.86 1151.41 L2655.55 1151.41 L2655.55 1158.34 L2636.25 1158.34 L2636.25 1167.37 L2616.82 1167.37 L2616.82 1175.41 L2597.51 1175.41 L2597.51 1180.36 L2578.21 1180.36 L2578.21 1183.33 L2558.78 1183.33 L2558.78 1187.29 L2539.47 1187.29 L2539.47 1189.27 L2520.17 1189.27 L2520.17 1200.29 L2500.74 1200.29 L2500.74 1207.34 L2481.43 1207.34 L2481.43 1214.27 L2462.13 1214.27 L2462.13 1218.23 L2442.70 1218.23 L2442.70 1224.30 L2423.40 1224.30 L2423.40 1228.26 L2404.09 1228.26 L2404.09 1237.17 L2384.79 1237.17 L2384.79 1240.14 L2365.36 1240.14 L2365.36 1244.22 L2346.05 1244.22 L2346.05 1258.21 L2326.75 1258.21 L2326.75 1260.19 L2307.32 1260.19 L2307.32 1263.16 L2288.01 1263.16 L2288.01 1265.14 L2268.71 1265.14 L2268.71 1275.04 L2249.28 1275.04 L2249.28 1284.07 L2229.97 1284.07 L2229.97 1295.08 L2210.67 1295.08 L2210.67 1317.98 L2191.24 1317.98 L2191.24 1342.85 L2171.94 1342.85 L2171.94 1348.79 L2152.63 1348.79 L2152.63 1351.89 L2133.20 1351.89 L2133.20 1358.82 L2113.90 1358.82 L2113.90 1374.78 L2094.59 1374.78 L2094.59 1382.70 L2075.29 1382.70 L2075.29 1398.67 L2055.86 1398.67 L2055.86 1417.60 L2036.55 1417.60 L2036.55 1419.70 L2017.25 1419.70 L2017.25 1422.67 L1997.82 1422.67 L1997.82 1431.58 L1978.52 1431.58 L1978.52 1452.50 L1959.21 1452.50 L1959.21 1462.52 L1939.78 1462.52 L1939.78 1484.43 L1920.48 1484.43 L1920.48 1499.40 L1901.17 1499.40 L1901.17 1501.38 L1881.74 1501.38 L1881.74 1507.45 L1862.44 1507.45 L1862.44 1527.37 L1843.13 1527.37 L1843.13 1551.38 L1823.83 1551.38 L1823.83 1563.26 L1804.40 1563.26 L1804.40 1599.27 L1785.09 1599.27 L1785.09 1631.20 L1765.79 1631.20 L1765.79 1637.26 L1746.36 1637.26 L1746.36 1645.18 L1727.06 1645.18 L1727.06 1657.19 L1707.75 1657.19 L1707.75 1676.25 L1688.32 1676.25 L1688.32 1684.29 L1669.02 1684.29 L1669.02 1703.22 L1649.71 1703.22 L1649.71 1740.35 L1630.28 1740.35 L1630.28 1750.37 L1610.98 1750.37 L1610.98 1756.31 L1591.67 1756.31 L1591.67 1800.50 L1572.37 1800.50 L1572.37 1815.59 L1552.94 1815.59 L1552.94 1845.79 L1533.63 1845.79 L1533.63 1900.12 L1514.33 1900.12 L1514.33 1910.26 L1494.90 1910.26 L1494.90 1916.33 L1475.60 1916.33 L1475.60 1925.49 L1456.29 1925.49 L1456.29 1936.50 L1436.86 1936.50 L1436.86 1951.72 L1417.56 1951.72 L1417.56 1974.00 L1398.25 1974.00 L1398.25 1983.16 L1378.82 1983.16 L1378.82 2004.57 L1359.52 2004.57 L1359.52 2011.74 L1340.21 2011.74 L1340.21 2019.91 L1320.91 2019.91 L1320.91 2048.50 L1301.48 2048.50 L1301.48 2067.93 L1282.17 2067.93 L1282.17 2103.07 L1262.87 2103.07 L1262.87 2121.88 L1243.44 2121.88 L1243.44 2138.59 L1224.13 2138.59 L1224.13 2149.11 L1204.83 2149.11 L1204.83 2155.42 L1185.40 2155.42 L1185.40 2162.85 L1166.10 2162.85 L1166.10 2171.39 L1146.79 2171.39 L1146.79 2181.16 L1127.36 2181.16 L1127.36 2190.81 L1108.06 2190.81 L1108.06 2199.60 L1088.75 2199.60 L1088.75 2202.94 L1069.45 2202.94 L1069.45 2205.17 L1050.02 2205.17 L1050.02 2210.86 L1030.71 2210.86 L1030.71 2217.67 L1011.41 2217.67 L1011.41 2220.02 L991.98 2220.02 L991.98 2225.96 L972.67 2225.96 L972.67 2229.55 L953.37 2229.55 L953.37 2229.55 L933.94 2229.55 L933.94 2229.55 L914.64 2229.55 L914.64 2232.02 L895.33 2232.02 L895.33 2232.02 L875.90 2232.02 L875.90 2233.26 L856.60 2233.26 L856.60 2234.50 L837.29 2234.50 L837.29 2235.86 L817.86 2235.86 L817.86 2235.86 L798.56 2235.86 L798.56 2235.86 L779.25 2235.86 L779.25 2235.86 L759.95 2235.86 L759.95 2235.86 L740.52 2235.86 L740.52 2235.86 L721.22 2235.86 L721.22 2235.86 L701.91 2235.86 L701.91 2237.10 L692.13 2237.10 L692.13 2245.02 Z" stroke-linejoin="round"/>
	</defs>
	<defs>
		<clipPath id="clipPath_FlSTngof">
			<use xlink:href="#path_KmXsrldN"/>
		</clipPath>
	</defs>
	<use xlink:href="#path_KmXsrldN" style="stroke:none;fill:#DDE3E9"/>
	<use xlink:href="#path_KmXsrldN" style="fill:none;stroke:#DDE3E9;stroke-width:17.28" clip-path="url(#clipPath_FlSTngof)"/>
	<path d=" M692.13 2245.02 L701.79 2245.02 L701.79 2244.52 L721.09 2244.52 L721.09 2244.52 L740.52 2244.52 L740.52 2244.52 L759.83 2244.52 L759.83 2244.52 L779.13 2244.52 L779.13 2244.52 L798.56 2244.52 L798.56 2244.52 L817.86 2244.52 L817.86 2244.52 L837.17 2244.52 L837.17 2244.03 L856.60 2244.03 L856.60 2243.41 L875.90 2243.41 L875.90 2242.79 L895.21 2242.79 L895.21 2242.79 L914.64 2242.79 L914.64 2241.55 L933.94 2241.55 L933.94 2241.55 L953.25 2241.55 L953.25 2241.55 L972.55 2241.55 L972.55 2239.45 L991.98 2239.45 L991.98 2235.98 L1011.28 2235.98 L1011.28 2234.50 L1030.59 2234.50 L1030.59 2229.92 L1050.02 2229.92 L1050.02 2226.08 L1069.32 2226.08 L1069.32 2224.48 L1088.63 2224.48 L1088.63 2222.12 L1108.06 2222.12 L1108.06 2215.69 L1127.36 2215.69 L1127.36 2208.39 L1146.67 2208.39 L1146.67 2200.84 L1166.10 2200.84 L1166.10 2194.16 L1185.40 2194.16 L1185.40 2188.22 L1204.71 2188.22 L1204.71 2183.14 L1224.01 2183.14 L1224.01 2174.60 L1243.44 2174.60 L1243.44 2160.87 L1262.74 2160.87 L1262.74 2145.27 L1282.05 2145.27 L1282.05 2115.45 L1301.48 2115.45 L1301.48 2098.62 L1320.78 2098.62 L1320.78 2073.74 L1340.09 2073.74 L1340.09 2066.69 L1359.52 2066.69 L1359.52 2060.38 L1378.82 2060.38 L1378.82 2041.69 L1398.13 2041.69 L1398.13 2033.52 L1417.56 2033.52 L1417.56 2013.85 L1436.86 2013.85 L1436.86 2000.23 L1456.17 2000.23 L1456.17 1990.33 L1475.47 1990.33 L1475.47 1982.17 L1494.90 1982.17 L1494.90 1976.72 L1514.20 1976.72 L1514.20 1967.69 L1533.51 1967.69 L1533.51 1918.68 L1552.94 1918.68 L1552.94 1891.33 L1572.24 1891.33 L1572.24 1877.72 L1591.55 1877.72 L1591.55 1837.50 L1610.98 1837.50 L1610.98 1831.93 L1630.28 1831.93 L1630.28 1822.77 L1649.59 1822.77 L1649.59 1788.86 L1669.02 1788.86 L1669.02 1771.41 L1688.32 1771.41 L1688.32 1763.99 L1707.63 1763.99 L1707.63 1746.54 L1727.06 1746.54 L1727.06 1735.40 L1746.36 1735.40 L1746.36 1728.10 L1765.66 1728.10 L1765.66 1722.53 L1784.97 1722.53 L1784.97 1692.95 L1804.40 1692.95 L1804.40 1659.66 L1823.70 1659.66 L1823.70 1648.65 L1843.01 1648.65 L1843.01 1626.37 L1862.44 1626.37 L1862.44 1607.81 L1881.74 1607.81 L1881.74 1602.24 L1901.05 1602.24 L1901.05 1600.39 L1920.48 1600.39 L1920.48 1586.52 L1939.78 1586.52 L1939.78 1566.11 L1959.09 1566.11 L1959.09 1556.82 L1978.52 1556.82 L1978.52 1537.27 L1997.82 1537.27 L1997.82 1528.86 L2017.13 1528.86 L2017.13 1526.13 L2036.43 1526.13 L2036.43 1524.28 L2055.86 1524.28 L2055.86 1506.58 L2075.16 1506.58 L2075.16 1491.61 L2094.47 1491.61 L2094.47 1484.18 L2113.90 1484.18 L2113.90 1469.21 L2133.20 1469.21 L2133.20 1462.65 L2152.51 1462.65 L2152.51 1459.92 L2171.94 1459.92 L2171.94 1454.36 L2191.24 1454.36 L2191.24 1430.97 L2210.55 1430.97 L2210.55 1409.43 L2229.97 1409.43 L2229.97 1399.16 L2249.28 1399.16 L2249.28 1390.75 L2268.59 1390.75 L2268.59 1381.46 L2287.89 1381.46 L2287.89 1379.48 L2307.32 1379.48 L2307.32 1376.76 L2326.62 1376.76 L2326.62 1374.91 L2345.93 1374.91 L2345.93 1361.79 L2365.36 1361.79 L2365.36 1357.95 L2384.66 1357.95 L2384.66 1355.23 L2403.97 1355.23 L2403.97 1346.81 L2423.40 1346.81 L2423.40 1342.98 L2442.70 1342.98 L2442.70 1337.41 L2462.01 1337.41 L2462.01 1333.70 L2481.43 1333.70 L2481.43 1327.01 L2500.74 1327.01 L2500.74 1320.45 L2520.05 1320.45 L2520.05 1310.18 L2539.35 1310.18 L2539.35 1308.33 L2558.78 1308.33 L2558.78 1304.49 L2578.08 1304.49 L2578.08 1301.77 L2597.39 1301.77 L2597.39 1297.06 L2616.82 1297.06 L2616.82 1289.52 L2636.12 1289.52 L2636.12 1281.10 L2655.43 1281.10 L2655.43 1274.42 L2674.86 1274.42 L2674.86 1269.71 L2694.16 1269.71 L2694.16 1266.00 L2713.47 1266.00 L2713.47 1262.29 L2732.89 1262.29 L2732.89 1256.60 L2752.20 1256.60 L2752.20 1252.88 L2771.51 1252.88 L2771.51 1250.04 L2790.81 1250.04 L2790.81 1246.20 L2810.24 1246.20 L2810.24 1241.50 L2829.54 1241.50 L2829.54 1238.65 L2848.85 1238.65 L2848.85 1237.79 L2868.28 1237.79 L2868.28 1233.08 L2887.58 1233.08 L2887.58 1228.38 L2906.89 1228.38 L2906.89 1223.68 L2926.32 1223.68 L2926.32 1220.83 L2945.62 1220.83 L2945.62 1219.84 L2964.93 1219.84 L2964.93 1218.98 L2984.36 1218.98 L2984.36 1217.99 L3003.66 1217.99 L3003.66 1217.00 L3022.97 1217.00 L3022.97 1211.43 L3042.39 1211.43 L3042.39 1208.58 L3061.70 1208.58 L3061.70 1205.73 L3081.00 1205.73 L3081.00 1201.90 L3100.31 1201.90 L3100.31 1201.90 L3119.74 1201.90 L3119.74 1200.04 L3139.04 1200.04 L3139.04 1198.18 L3158.35 1198.18 L3158.35 1198.18 L3177.78 1198.18 L3177.78 1194.35 L3197.08 1194.35 L3197.08 1192.49 L3216.39 1192.49 L3216.39 1189.65 L3235.82 1189.65 L3235.82 1187.79 L3255.12 1187.79 L3255.12 1186.80 L3274.43 1186.80 L3274.43 1186.80 L3293.85 1186.80 L3293.85 1182.10 L3313.16 1182.10 L3313.16 1181.11 L3332.46 1181.11 L3332.46 1179.25 L3351.77 1179.25 L3351.77 1176.40 L3371.20 1176.40 L3371.20 1175.41 L3390.50 1175.41 L3390.50 1173.56 L3409.81 1173.56 L3409.81 1171.70 L3429.24 1171.70 L3429.24 1169.85 L3448.54 1169.85 L3448.54 1169.85 L3467.85 1169.85 L3467.85 1167.87 L3487.28 1167.87 L3487.28 1165.02 L3506.58 1165.02 L3506.58 1163.16 L3525.89 1163.16 L3525.89 1163.16 L3545.31 1163.16 L3545.31 1161.31 L3564.62 1161.31 L3564.62 1160.32 L3583.92 1160.32 L3583.92 1160.32 L3603.23 1160.32 L3603.23 1156.48 L3622.66 1156.48 L3622.66 1153.76 L3641.96 1153.76 L3641.96 1153.76 L3661.27 1153.76 L3661.27 1151.78 L3680.70 1151.78 L3680.70 1149.92 L3700.00 1149.92 L3700.00 1148.06 L3719.31 1148.06 L3719.31 1147.07 L3738.74 1147.07 L3738.74 1146.08" stroke-linejoin="round" style="fill:none;stroke:#8DA3B7;stroke-width:8.64"/>
	<path d=" M692.13 2237.22 L701.79 2237.22 L701.79 2235.86 L721.09 2235.86 L721.09 2235.86 L740.52 2235.86 L740.52 2235.86 L759.83 2235.86 L759.83 2235.86 L779.13 2235.86 L779.13 2235.86 L798.56 2235.86 L798.56 2235.86 L817.86 2235.86 L817.86 2235.86 L837.17 2235.86 L837.17 2234.62 L856.60 2234.62 L856.60 2233.39 L875.90 2233.39 L875.90 2232.02 L895.21 2232.02 L895.21 2232.02 L914.64 2232.02 L914.64 2229.55 L933.94 2229.55 L933.94 2229.55 L953.25 2229.55 L953.25 2229.55 L972.55 2229.55 L972.55 2225.96 L991.98 2225.96 L991.98 2220.02 L1011.28 2220.02 L1011.28 2217.79 L1030.59 2217.79 L1030.59 2210.86 L1050.02 2210.86 L1050.02 2205.29 L1069.32 2205.29 L1069.32 2203.07 L1088.63 2203.07 L1088.63 2199.72 L1108.06 2199.72 L1108.06 2190.94 L1127.36 2190.94 L1127.36 2181.16 L1146.67 2181.16 L1146.67 2171.51 L1166.10 2171.51 L1166.10 2162.97 L1185.40 2162.97 L1185.40 2155.54 L1204.71 2155.54 L1204.71 2149.11 L1224.01 2149.11 L1224.01 2138.59 L1243.44 2138.59 L1243.44 2121.88 L1262.74 2121.88 L1262.74 2103.20 L1282.05 2103.20 L1282.05 2068.05 L1301.48 2068.05 L1301.48 2048.50 L1320.78 2048.50 L1320.78 2019.91 L1340.09 2019.91 L1340.09 2011.74 L1359.52 2011.74 L1359.52 2004.57 L1378.82 2004.57 L1378.82 1983.28 L1398.13 1983.28 L1398.13 1974.12 L1417.56 1974.12 L1417.56 1951.85 L1436.86 1951.85 L1436.86 1936.62 L1456.17 1936.62 L1456.17 1925.49 L1475.47 1925.49 L1475.47 1916.33 L1494.90 1916.33 L1494.90 1910.26 L1514.20 1910.26 L1514.20 1900.24 L1533.51 1900.24 L1533.51 1845.79 L1552.94 1845.79 L1552.94 1815.59 L1572.24 1815.59 L1572.24 1800.62 L1591.55 1800.62 L1591.55 1756.44 L1610.98 1756.44 L1610.98 1750.37 L1630.28 1750.37 L1630.28 1740.35 L1649.59 1740.35 L1649.59 1703.35 L1669.02 1703.35 L1669.02 1684.29 L1688.32 1684.29 L1688.32 1676.25 L1707.63 1676.25 L1707.63 1657.31 L1727.06 1657.31 L1727.06 1645.31 L1746.36 1645.31 L1746.36 1637.26 L1765.66 1637.26 L1765.66 1631.32 L1784.97 1631.32 L1784.97 1599.27 L1804.40 1599.27 L1804.40 1563.38 L1823.70 1563.38 L1823.70 1551.38 L1843.01 1551.38 L1843.01 1527.37 L1862.44 1527.37 L1862.44 1507.45 L1881.74 1507.45 L1881.74 1501.51 L1901.05 1501.51 L1901.05 1499.53 L1920.48 1499.53 L1920.48 1484.55 L1939.78 1484.55 L1939.78 1462.65 L1959.09 1462.65 L1959.09 1452.62 L1978.52 1452.62 L1978.52 1431.71 L1997.82 1431.71 L1997.82 1422.67 L2017.13 1422.67 L2017.13 1419.70 L2036.43 1419.70 L2036.43 1417.72 L2055.86 1417.72 L2055.86 1398.79 L2075.16 1398.79 L2075.16 1382.83 L2094.47 1382.83 L2094.47 1374.78 L2113.90 1374.78 L2113.90 1358.94 L2133.20 1358.94 L2133.20 1351.89 L2152.51 1351.89 L2152.51 1348.92 L2171.94 1348.92 L2171.94 1342.98 L2191.24 1342.98 L2191.24 1317.98 L2210.55 1317.98 L2210.55 1295.08 L2229.97 1295.08 L2229.97 1284.07 L2249.28 1284.07 L2249.28 1275.16 L2268.59 1275.16 L2268.59 1265.14 L2287.89 1265.14 L2287.89 1263.16 L2307.32 1263.16 L2307.32 1260.19 L2326.62 1260.19 L2326.62 1258.21 L2345.93 1258.21 L2345.93 1244.22 L2365.36 1244.22 L2365.36 1240.26 L2384.66 1240.26 L2384.66 1237.29 L2403.97 1237.29 L2403.97 1228.26 L2423.40 1228.26 L2423.40 1224.30 L2442.70 1224.30 L2442.70 1218.36 L2462.01 1218.36 L2462.01 1214.27 L2481.43 1214.27 L2481.43 1207.34 L2500.74 1207.34 L2500.74 1200.41 L2520.05 1200.41 L2520.05 1189.40 L2539.35 1189.40 L2539.35 1187.42 L2558.78 1187.42 L2558.78 1183.46 L2578.08 1183.46 L2578.08 1180.36 L2597.39 1180.36 L2597.39 1175.41 L2616.82 1175.41 L2616.82 1167.49 L2636.12 1167.49 L2636.12 1158.46 L2655.43 1158.46 L2655.43 1151.41 L2674.86 1151.41 L2674.86 1146.46 L2694.16 1146.46 L2694.16 1142.50 L2713.47 1142.50 L2713.47 1138.54 L2732.89 1138.54 L2732.89 1132.47 L2752.20 1132.47 L2752.20 1128.51 L2771.51 1128.51 L2771.51 1125.54 L2790.81 1125.54 L2790.81 1121.46 L2810.24 1121.46 L2810.24 1116.51 L2829.54 1116.51 L2829.54 1113.54 L2848.85 1113.54 L2848.85 1112.55 L2868.28 1112.55 L2868.28 1107.47 L2887.58 1107.47 L2887.58 1102.52 L2906.89 1102.52 L2906.89 1097.57 L2926.32 1097.57 L2926.32 1094.60 L2945.62 1094.60 L2945.62 1093.49 L2964.93 1093.49 L2964.93 1092.50 L2984.36 1092.50 L2984.36 1091.51 L3003.66 1091.51 L3003.66 1090.52 L3022.97 1090.52 L3022.97 1084.58 L3042.39 1084.58 L3042.39 1081.49 L3061.70 1081.49 L3061.70 1078.51 L3081.00 1078.51 L3081.00 1074.55 L3100.31 1074.55 L3100.31 1074.55 L3119.74 1074.55 L3119.74 1072.57 L3139.04 1072.57 L3139.04 1070.59 L3158.35 1070.59 L3158.35 1070.59 L3177.78 1070.59 L3177.78 1066.51 L3197.08 1066.51 L3197.08 1064.53 L3216.39 1064.53 L3216.39 1061.56 L3235.82 1061.56 L3235.82 1059.58 L3255.12 1059.58 L3255.12 1058.59 L3274.43 1058.59 L3274.43 1058.59 L3293.85 1058.59 L3293.85 1053.52 L3313.16 1053.52 L3313.16 1052.53 L3332.46 1052.53 L3332.46 1050.55 L3351.77 1050.55 L3351.77 1047.58 L3371.20 1047.58 L3371.20 1046.46 L3390.50 1046.46 L3390.50 1044.48 L3409.81 1044.48 L3409.81 1042.50 L3429.24 1042.50 L3429.24 1040.52 L3448.54 1040.52 L3448.54 1040.52 L3467.85 1040.52 L3467.85 1038.54 L3487.28 1038.54 L3487.28 1035.45 L3506.58 1035.45 L3506.58 1033.47 L3525.89 1033.47 L3525.89 1033.47 L3545.31 1033.47 L3545.31 1031.49 L3564.62 1031.49 L3564.62 1030.50 L3583.92 1030.50 L3583.92 1030.50 L3603.23 1030.50 L3603.23 1026.41 L3622.66 1026.41 L3622.66 1023.44 L3641.96 1023.44 L3641.96 1023.44 L3661.27 1023.44 L3661.27 1021.46 L3680.70 1021.46 L3680.70 1019.48 L3700.00 1019.48 L3700.00 1017.38 L3719.31 1017.38 L3719.31 1016.39 L3738.74 1016.39 L3738.74 1015.40" stroke-linejoin="round" style="fill:none;stroke:#8DA3B7;stroke-width:8.64"/>
	<defs>
		<path id="path_oEGqXGlC" d="M692.13 2243.41 L692.13 2243.41 L701.91 2243.41 L701.91 2243.41 L721.22 2243.41 L721.22 2243.41 L740.52 2243.41 L740.52 2243.41 L759.95 2243.41 L759.95 2243.41 L779.25 2243.41 L779.25 2243.41 L798.56 2243.41 L798.56 2243.41 L817.86 2243.41 L817.86 2243.41 L837.29 2243.41 L837.29 2243.41 L875.90 2243.41 L875.90 2243.41 L895.33 2243.41 L895.33 2243.41 L914.64 2243.41 L914.64 2243.41 L933.94 2243.41 L933.94 2243.41 L953.37 2243.41 L953.37 2243.41 L972.67 2243.41 L972.67 2240.94 L991.98 2240.94 L991.98 2240.94 L1011.41 2240.94 L1011.41 2240.94 L1050.02 2240.94 L1050.02 2238.34 L1069.45 2238.34 L1069.45 2238.34 L1088.75 2238.34 L1088.75 2235.37 L1108.06 2235.37 L1108.06 2232.27 L1127.36 2232.27 L1127.36 2225.59 L1146.79 2225.59 L1146.79 2222.12 L1166.10 2222.12 L1166.10 2214.95 L1185.40 2214.95 L1185.40 2214.95 L1204.83 2214.95 L1204.83 2214.95 L1224.13 2214.95 L1224.13 2211.36 L1243.44 2211.36 L1243.44 2199.97 L1262.87 2199.97 L1262.87 2192.30 L1282.17 2192.30 L1282.17 2184.38 L1301.48 2184.38 L1301.48 2184.38 L1320.91 2184.38 L1320.91 2172.38 L1340.21 2172.38 L1340.21 2168.29 L1359.52 2168.29 L1359.52 2160.12 L1378.82 2160.12 L1378.82 2139.33 L1398.25 2139.33 L1398.25 2126.71 L1417.56 2126.71 L1417.56 2113.96 L1436.86 2113.96 L1436.86 2096.89 L1456.29 2096.89 L1456.29 2083.89 L1475.60 2083.89 L1475.60 2083.89 L1494.90 2083.89 L1494.90 2070.90 L1514.33 2070.90 L1514.33 2057.78 L1533.63 2057.78 L1533.63 2026.96 L1552.94 2026.96 L1552.94 2018.05 L1572.37 2018.05 L1572.37 2018.05 L1591.67 2018.05 L1591.67 1982.29 L1610.98 1982.29 L1610.98 1982.29 L1630.28 1982.29 L1630.28 1977.83 L1649.71 1977.83 L1649.71 1959.89 L1669.02 1959.89 L1669.02 1950.86 L1688.32 1950.86 L1688.32 1946.40 L1707.75 1946.40 L1707.75 1937.37 L1727.06 1937.37 L1727.06 1932.79 L1746.36 1932.79 L1746.36 1923.75 L1765.79 1923.75 L1765.79 1914.60 L1785.09 1914.60 L1785.09 1891.83 L1804.40 1891.83 L1804.40 1823.14 L1823.83 1823.14 L1823.83 1790.84 L1843.13 1790.84 L1843.13 1772.40 L1862.44 1772.40 L1862.44 1753.84 L1881.74 1753.84 L1881.74 1744.56 L1901.17 1744.56 L1901.17 1735.28 L1920.48 1735.28 L1920.48 1726.00 L1939.78 1726.00 L1939.78 1712.01 L1959.21 1712.01 L1959.21 1693.45 L1978.52 1693.45 L1978.52 1693.45 L1997.82 1693.45 L1997.82 1679.46 L2017.25 1679.46 L2017.25 1670.06 L2036.55 1670.06 L2036.55 1660.78 L2055.86 1660.78 L2055.86 1656.07 L2075.29 1656.07 L2075.29 1651.37 L2094.59 1651.37 L2094.59 1637.39 L2113.90 1637.39 L2113.90 1609.30 L2133.20 1609.30 L2133.20 1604.59 L2152.63 1604.59 L2152.63 1604.59 L2171.94 1604.59 L2171.94 1604.59 L2191.24 1604.59 L2191.24 1590.48 L2210.67 1590.48 L2210.67 1585.78 L2229.97 1585.78 L2229.97 1566.97 L2249.28 1566.97 L2249.28 1557.57 L2268.71 1557.57 L2268.71 1552.86 L2288.01 1552.86 L2288.01 1552.86 L2307.32 1552.86 L2307.32 1552.86 L2326.75 1552.86 L2326.75 1552.86 L2346.05 1552.86 L2346.05 1552.86 L2384.79 1552.86 L2384.79 1552.86 L2404.09 1552.86 L2404.09 1548.16 L2462.13 1548.16 L2462.13 1543.46 L2481.43 1543.46 L2481.43 1529.23 L2500.74 1529.23 L2500.74 1524.52 L2520.17 1524.52 L2520.17 1524.52 L2539.47 1524.52 L2539.47 1519.82 L2558.78 1519.82 L2558.78 1515.12 L2578.21 1515.12 L2578.21 1510.42 L2597.51 1510.42 L2597.51 1505.59 L2616.82 1505.59 L2616.82 1500.89 L2636.25 1500.89 L2636.25 1481.95 L2655.55 1481.95 L2655.55 1472.55 L2674.86 1472.55 L2674.86 1472.55 L2713.59 1472.55 L2713.59 1467.84 L2732.89 1467.84 L2732.89 1458.32 L2752.20 1458.32 L2752.20 1453.61 L2790.93 1453.61 L2790.93 1444.08 L2810.24 1444.08 L2810.24 1439.38 L2848.97 1439.38 L2848.97 1429.85 L2868.28 1429.85 L2868.28 1425.15 L2887.71 1425.15 L2887.71 1425.15 L2926.32 1425.15 L2926.32 1425.15 L2945.62 1425.15 L2945.62 1425.15 L2965.05 1425.15 L2965.05 1420.32 L2984.36 1420.32 L2984.36 1415.62 L3003.66 1415.62 L3003.66 1410.92 L3023.09 1410.92 L3023.09 1410.92 L3042.39 1410.92 L3042.39 1410.92 L3061.70 1410.92 L3061.70 1406.09 L3081.13 1406.09 L3081.13 1391.86 L3100.43 1391.86 L3100.43 1391.86 L3119.74 1391.86 L3119.74 1391.86 L3139.17 1391.86 L3139.17 1387.16 L3158.47 1387.16 L3158.47 1387.16 L3177.78 1387.16 L3177.78 1387.16 L3197.08 1387.16 L3197.08 1387.16 L3216.51 1387.16 L3216.51 1387.16 L3235.82 1387.16 L3235.82 1387.16 L3274.55 1387.16 L3274.55 1387.16 L3293.85 1387.16 L3293.85 1382.33 L3332.59 1382.33 L3332.59 1382.33 L3371.20 1382.33 L3371.20 1382.33 L3390.63 1382.33 L3390.63 1382.33 L3409.93 1382.33 L3409.93 1382.33 L3448.54 1382.33 L3448.54 1377.63 L3467.97 1377.63 L3467.97 1372.80 L3487.28 1372.80 L3487.28 1372.80 L3545.31 1372.80 L3545.31 1372.80 L3564.62 1372.80 L3564.62 1363.27 L3584.05 1363.27 L3584.05 1358.57 L3622.66 1358.57 L3622.66 1358.57 L3642.09 1358.57 L3642.09 1353.74 L3661.39 1353.74 L3661.39 1344.21 L3700.13 1344.21 L3700.13 1339.39 L3738.74 1339.39 L3738.74 1339.39 L3738.74 1054.26 L3738.74 1054.26 L3700.13 1054.26 L3700.13 1059.70 L3661.39 1059.70 L3661.39 1070.72 L3642.09 1070.72 L3642.09 1076.16 L3622.66 1076.16 L3622.66 1076.16 L3584.05 1076.16 L3584.05 1081.61 L3564.62 1081.61 L3564.62 1092.62 L3545.31 1092.62 L3545.31 1092.62 L3487.28 1092.62 L3487.28 1092.62 L3467.97 1092.62 L3467.97 1098.07 L3448.54 1098.07 L3448.54 1103.51 L3409.93 1103.51 L3409.93 1103.51 L3390.63 1103.51 L3390.63 1103.51 L3371.20 1103.51 L3371.20 1103.51 L3332.59 1103.51 L3332.59 1103.51 L3293.85 1103.51 L3293.85 1108.96 L3274.55 1108.96 L3274.55 1108.96 L3235.82 1108.96 L3235.82 1108.96 L3216.51 1108.96 L3216.51 1108.96 L3197.08 1108.96 L3197.08 1108.96 L3177.78 1108.96 L3177.78 1108.96 L3158.47 1108.96 L3158.47 1108.96 L3139.17 1108.96 L3139.17 1114.40 L3119.74 1114.40 L3119.74 1114.40 L3100.43 1114.40 L3100.43 1114.40 L3081.13 1114.40 L3081.13 1130.86 L3061.70 1130.86 L3061.70 1136.31 L3042.39 1136.31 L3042.39 1136.31 L3023.09 1136.31 L3023.09 1136.31 L3003.66 1136.31 L3003.66 1141.88 L2984.36 1141.88 L2984.36 1147.32 L2965.05 1147.32 L2965.05 1152.77 L2945.62 1152.77 L2945.62 1152.77 L2926.32 1152.77 L2926.32 1152.77 L2887.71 1152.77 L2887.71 1152.77 L2868.28 1152.77 L2868.28 1158.21 L2848.97 1158.21 L2848.97 1169.23 L2810.24 1169.23 L2810.24 1174.67 L2790.93 1174.67 L2790.93 1185.69 L2752.20 1185.69 L2752.20 1191.13 L2732.89 1191.13 L2732.89 1202.02 L2713.59 1202.02 L2713.59 1207.59 L2674.86 1207.59 L2674.86 1207.59 L2655.55 1207.59 L2655.55 1218.48 L2636.25 1218.48 L2636.25 1240.51 L2616.82 1240.51 L2616.82 1245.95 L2597.51 1245.95 L2597.51 1251.40 L2578.21 1251.40 L2578.21 1256.97 L2558.78 1256.97 L2558.78 1262.41 L2539.47 1262.41 L2539.47 1267.98 L2520.17 1267.98 L2520.17 1267.98 L2500.74 1267.98 L2500.74 1273.43 L2481.43 1273.43 L2481.43 1289.89 L2462.13 1289.89 L2462.13 1295.46 L2404.09 1295.46 L2404.09 1300.90 L2384.79 1300.90 L2384.79 1300.90 L2346.05 1300.90 L2346.05 1300.90 L2326.75 1300.90 L2326.75 1300.90 L2307.32 1300.90 L2307.32 1300.90 L2288.01 1300.90 L2288.01 1300.90 L2268.71 1300.90 L2268.71 1306.35 L2249.28 1306.35 L2249.28 1317.36 L2229.97 1317.36 L2229.97 1339.39 L2210.67 1339.39 L2210.67 1344.83 L2191.24 1344.83 L2191.24 1361.42 L2171.94 1361.42 L2171.94 1361.42 L2152.63 1361.42 L2152.63 1361.42 L2133.20 1361.42 L2133.20 1366.86 L2113.90 1366.86 L2113.90 1400.03 L2094.59 1400.03 L2094.59 1416.49 L2075.29 1416.49 L2075.29 1422.06 L2055.86 1422.06 L2055.86 1427.62 L2036.55 1427.62 L2036.55 1438.64 L2017.25 1438.64 L2017.25 1449.65 L1997.82 1449.65 L1997.82 1466.24 L1978.52 1466.24 L1978.52 1466.24 L1959.21 1466.24 L1959.21 1488.39 L1939.78 1488.39 L1939.78 1505.09 L1920.48 1505.09 L1920.48 1516.11 L1901.17 1516.11 L1901.17 1527.25 L1881.74 1527.25 L1881.74 1538.38 L1862.44 1538.38 L1862.44 1560.54 L1843.13 1560.54 L1843.13 1582.81 L1823.83 1582.81 L1823.83 1621.92 L1804.40 1621.92 L1804.40 1705.95 L1785.09 1705.95 L1785.09 1734.16 L1765.79 1734.16 L1765.79 1745.42 L1746.36 1745.42 L1746.36 1756.69 L1727.06 1756.69 L1727.06 1762.38 L1707.75 1762.38 L1707.75 1773.76 L1688.32 1773.76 L1688.32 1779.33 L1669.02 1779.33 L1669.02 1790.72 L1649.71 1790.72 L1649.71 1813.49 L1630.28 1813.49 L1630.28 1819.18 L1610.98 1819.18 L1610.98 1819.18 L1591.67 1819.18 L1591.67 1864.85 L1572.37 1864.85 L1572.37 1864.85 L1552.94 1864.85 L1552.94 1876.36 L1533.63 1876.36 L1533.63 1916.70 L1514.33 1916.70 L1514.33 1934.03 L1494.90 1934.03 L1494.90 1951.47 L1475.60 1951.47 L1475.60 1951.47 L1456.29 1951.47 L1456.29 1969.05 L1436.86 1969.05 L1436.86 1992.56 L1417.56 1992.56 L1417.56 2010.26 L1398.25 2010.26 L1398.25 2028.08 L1378.82 2028.08 L1378.82 2058.15 L1359.52 2058.15 L1359.52 2070.28 L1340.21 2070.28 L1340.21 2076.34 L1320.91 2076.34 L1320.91 2094.78 L1301.48 2094.78 L1301.48 2094.78 L1282.17 2094.78 L1282.17 2107.16 L1262.87 2107.16 L1262.87 2119.66 L1243.44 2119.66 L1243.44 2138.71 L1224.13 2138.71 L1224.13 2145.15 L1204.83 2145.15 L1204.83 2145.15 L1185.40 2145.15 L1185.40 2145.15 L1166.10 2145.15 L1166.10 2158.14 L1146.79 2158.14 L1146.79 2164.70 L1127.36 2164.70 L1127.36 2178.19 L1108.06 2178.19 L1108.06 2185.00 L1088.75 2185.00 L1088.75 2191.80 L1069.45 2191.80 L1069.45 2191.80 L1050.02 2191.80 L1050.02 2198.73 L1011.41 2198.73 L1011.41 2198.73 L991.98 2198.73 L991.98 2198.73 L972.67 2198.73 L972.67 2205.42 L953.37 2205.42 L953.37 2205.42 L933.94 2205.42 L933.94 2205.42 L914.64 2205.42 L914.64 2205.42 L895.33 2205.42 L895.33 2205.42 L875.90 2205.42 L875.90 2205.42 L837.29 2205.42 L837.29 2205.42 L817.86 2205.42 L817.86 2205.42 L798.56 2205.42 L798.56 2205.42 L779.25 2205.42 L779.25 2205.42 L759.95 2205.42 L759.95 2205.42 L740.52 2205.42 L740.52 2205.42 L721.22 2205.42 L721.22 2205.42 L701.91 2205.42 L701.91 2205.42 L692.13 2205.42 L692.13 2243.41 Z" stroke-linejoin="round"/>
	</defs>
	<defs>
		<clipPath id="clipPath_LqjlxecW">
			<use xlink:href="#path_oEGqXGlC"/>
		</clipPath>
	</defs>
	<use xlink:href="#path_oEGqXGlC" style="stroke:none;fill:#EEE1E2"/>
	<use xlink:href="#path_oEGqXGlC" style="fill:none;stroke:#EEE1E2;stroke-width:17.28" clip-path="url(#clipPath_LqjlxecW)"/>
	<path d=" M692.13 2243.41 L701.79 2243.41 L701.79 2243.41 L721.09 2243.41 L721.09 2243.41 L740.52 2243.41 L740.52 2243.41 L759.83 2243.41 L759.83 2243.41 L779.13 2243.41 L779.13 2243.41 L798.56 2243.41 L798.56 2243.41 L817.86 2243.41 L817.86 2243.41 L837.17 2243.41 L837.17 2243.41 L875.90 2243.41 L875.90 2243.41 L895.21 2243.41 L895.21 2243.41 L914.64 2243.41 L914.64 2243.41 L933.94 2243.41 L933.94 2243.41 L953.25 2243.41 L953.25 2243.41 L972.55 2243.41 L972.55 2241.06 L991.98 2241.06 L991.98 2241.06 L1011.28 2241.06 L1011.28 2241.06 L1050.02 2241.06 L1050.02 2238.34 L1069.32 2238.34 L1069.32 2238.34 L1088.63 2238.34 L1088.63 2235.37 L1108.06 2235.37 L1108.06 2232.27 L1127.36 2232.27 L1127.36 2225.71 L1146.67 2225.71 L1146.67 2222.25 L1166.10 2222.25 L1166.10 2215.07 L1185.40 2215.07 L1185.40 2215.07 L1204.71 2215.07 L1204.71 2215.07 L1224.01 2215.07 L1224.01 2211.36 L1243.44 2211.36 L1243.44 2200.10 L1262.74 2200.10 L1262.74 2192.30 L1282.05 2192.30 L1282.05 2184.38 L1301.48 2184.38 L1301.48 2184.38 L1320.78 2184.38 L1320.78 2172.38 L1340.09 2172.38 L1340.09 2168.42 L1359.52 2168.42 L1359.52 2160.25 L1378.82 2160.25 L1378.82 2139.46 L1398.13 2139.46 L1398.13 2126.83 L1417.56 2126.83 L1417.56 2114.09 L1436.86 2114.09 L1436.86 2096.89 L1456.17 2096.89 L1456.17 2084.02 L1475.47 2084.02 L1475.47 2084.02 L1494.90 2084.02 L1494.90 2070.90 L1514.20 2070.90 L1514.20 2057.78 L1533.51 2057.78 L1533.51 2026.96 L1552.94 2026.96 L1552.94 2018.05 L1572.24 2018.05 L1572.24 2018.05 L1591.55 2018.05 L1591.55 1982.41 L1610.98 1982.41 L1610.98 1982.41 L1630.28 1982.41 L1630.28 1977.96 L1649.59 1977.96 L1649.59 1959.89 L1669.02 1959.89 L1669.02 1950.98 L1688.32 1950.98 L1688.32 1946.40 L1707.63 1946.40 L1707.63 1937.37 L1727.06 1937.37 L1727.06 1932.79 L1746.36 1932.79 L1746.36 1923.75 L1765.66 1923.75 L1765.66 1914.72 L1784.97 1914.72 L1784.97 1891.95 L1804.40 1891.95 L1804.40 1823.27 L1823.70 1823.27 L1823.70 1790.97 L1843.01 1790.97 L1843.01 1772.40 L1862.44 1772.40 L1862.44 1753.96 L1881.74 1753.96 L1881.74 1744.68 L1901.05 1744.68 L1901.05 1735.40 L1920.48 1735.40 L1920.48 1726.12 L1939.78 1726.12 L1939.78 1712.13 L1959.09 1712.13 L1959.09 1693.45 L1978.52 1693.45 L1978.52 1693.45 L1997.82 1693.45 L1997.82 1679.46 L2017.13 1679.46 L2017.13 1670.18 L2036.43 1670.18 L2036.43 1660.78 L2055.86 1660.78 L2055.86 1656.07 L2075.16 1656.07 L2075.16 1651.50 L2094.47 1651.50 L2094.47 1637.39 L2113.90 1637.39 L2113.90 1609.30 L2133.20 1609.30 L2133.20 1604.59 L2152.51 1604.59 L2152.51 1604.59 L2171.94 1604.59 L2171.94 1604.59 L2191.24 1604.59 L2191.24 1590.48 L2210.55 1590.48 L2210.55 1585.78 L2229.97 1585.78 L2229.97 1566.97 L2249.28 1566.97 L2249.28 1557.57 L2268.59 1557.57 L2268.59 1552.86 L2287.89 1552.86 L2287.89 1552.86 L2307.32 1552.86 L2307.32 1552.86 L2326.62 1552.86 L2326.62 1552.86 L2345.93 1552.86 L2345.93 1552.86 L2384.66 1552.86 L2384.66 1552.86 L2403.97 1552.86 L2403.97 1548.16 L2462.01 1548.16 L2462.01 1543.46 L2481.43 1543.46 L2481.43 1529.35 L2500.74 1529.35 L2500.74 1524.65 L2520.05 1524.65 L2520.05 1524.65 L2539.35 1524.65 L2539.35 1519.82 L2558.78 1519.82 L2558.78 1515.12 L2578.08 1515.12 L2578.08 1510.42 L2597.39 1510.42 L2597.39 1505.71 L2616.82 1505.71 L2616.82 1501.01 L2636.12 1501.01 L2636.12 1482.08 L2655.43 1482.08 L2655.43 1472.55 L2674.86 1472.55 L2674.86 1472.55 L2713.47 1472.55 L2713.47 1467.84 L2732.89 1467.84 L2732.89 1458.44 L2752.20 1458.44 L2752.20 1453.61 L2790.81 1453.61 L2790.81 1444.21 L2810.24 1444.21 L2810.24 1439.38 L2848.85 1439.38 L2848.85 1429.98 L2868.28 1429.98 L2868.28 1425.15 L2887.58 1425.15 L2887.58 1425.15 L2926.32 1425.15 L2926.32 1425.15 L2945.62 1425.15 L2945.62 1425.15 L2964.93 1425.15 L2964.93 1420.45 L2984.36 1420.45 L2984.36 1415.74 L3003.66 1415.74 L3003.66 1410.92 L3022.97 1410.92 L3022.97 1410.92 L3042.39 1410.92 L3042.39 1410.92 L3061.70 1410.92 L3061.70 1406.22 L3081.00 1406.22 L3081.00 1391.86 L3100.31 1391.86 L3100.31 1391.86 L3119.74 1391.86 L3119.74 1391.86 L3139.04 1391.86 L3139.04 1387.16 L3158.35 1387.16 L3158.35 1387.16 L3177.78 1387.16 L3177.78 1387.16 L3197.08 1387.16 L3197.08 1387.16 L3216.39 1387.16 L3216.39 1387.16 L3235.82 1387.16 L3235.82 1387.16 L3274.43 1387.16 L3274.43 1387.16 L3293.85 1387.16 L3293.85 1382.45 L3332.46 1382.45 L3332.46 1382.45 L3371.20 1382.45 L3371.20 1382.45 L3390.50 1382.45 L3390.50 1382.45 L3409.81 1382.45 L3409.81 1382.45 L3448.54 1382.45 L3448.54 1377.63 L3467.85 1377.63 L3467.85 1372.93 L3487.28 1372.93 L3487.28 1372.93 L3545.31 1372.93 L3545.31 1372.93 L3564.62 1372.93 L3564.62 1363.40 L3583.92 1363.40 L3583.92 1358.57 L3622.66 1358.57 L3622.66 1358.57 L3641.96 1358.57 L3641.96 1353.74 L3661.27 1353.74 L3661.27 1344.21 L3700.00 1344.21 L3700.00 1339.51 L3738.74 1339.51 L3738.74 1339.51" stroke-linejoin="round" style="fill:none;stroke:#C89A9D;stroke-width:8.64"/>
	<path d=" M692.13 2205.42 L701.79 2205.42 L701.79 2205.42 L721.09 2205.42 L721.09 2205.42 L740.52 2205.42 L740.52 2205.42 L759.83 2205.42 L759.83 2205.42 L779.13 2205.42 L779.13 2205.42 L798.56 2205.42 L798.56 2205.42 L817.86 2205.42 L817.86 2205.42 L837.17 2205.42 L837.17 2205.42 L875.90 2205.42 L875.90 2205.42 L895.21 2205.42 L895.21 2205.42 L914.64 2205.42 L914.64 2205.42 L933.94 2205.42 L933.94 2205.42 L953.25 2205.42 L953.25 2205.42 L972.55 2205.42 L972.55 2198.73 L991.98 2198.73 L991.98 2198.73 L1011.28 2198.73 L1011.28 2198.73 L1050.02 2198.73 L1050.02 2191.93 L1069.32 2191.93 L1069.32 2191.93 L1088.63 2191.93 L1088.63 2185.00 L1108.06 2185.00 L1108.06 2178.19 L1127.36 2178.19 L1127.36 2164.83 L1146.67 2164.83 L1146.67 2158.27 L1166.10 2158.27 L1166.10 2145.15 L1185.40 2145.15 L1185.40 2145.15 L1204.71 2145.15 L1204.71 2145.15 L1224.01 2145.15 L1224.01 2138.71 L1243.44 2138.71 L1243.44 2119.66 L1262.74 2119.66 L1262.74 2107.16 L1282.05 2107.16 L1282.05 2094.78 L1301.48 2094.78 L1301.48 2094.78 L1320.78 2094.78 L1320.78 2076.34 L1340.09 2076.34 L1340.09 2070.28 L1359.52 2070.28 L1359.52 2058.15 L1378.82 2058.15 L1378.82 2028.20 L1398.13 2028.20 L1398.13 2010.26 L1417.56 2010.26 L1417.56 1992.56 L1436.86 1992.56 L1436.86 1969.05 L1456.17 1969.05 L1456.17 1951.60 L1475.47 1951.60 L1475.47 1951.60 L1494.90 1951.60 L1494.90 1934.15 L1514.20 1934.15 L1514.20 1916.70 L1533.51 1916.70 L1533.51 1876.36 L1552.94 1876.36 L1552.94 1864.97 L1572.24 1864.97 L1572.24 1864.97 L1591.55 1864.97 L1591.55 1819.18 L1610.98 1819.18 L1610.98 1819.18 L1630.28 1819.18 L1630.28 1813.49 L1649.59 1813.49 L1649.59 1790.72 L1669.02 1790.72 L1669.02 1779.46 L1688.32 1779.46 L1688.32 1773.76 L1707.63 1773.76 L1707.63 1762.50 L1727.06 1762.50 L1727.06 1756.81 L1746.36 1756.81 L1746.36 1745.55 L1765.66 1745.55 L1765.66 1734.16 L1784.97 1734.16 L1784.97 1706.07 L1804.40 1706.07 L1804.40 1621.92 L1823.70 1621.92 L1823.70 1582.94 L1843.01 1582.94 L1843.01 1560.66 L1862.44 1560.66 L1862.44 1538.38 L1881.74 1538.38 L1881.74 1527.25 L1901.05 1527.25 L1901.05 1516.23 L1920.48 1516.23 L1920.48 1505.09 L1939.78 1505.09 L1939.78 1488.51 L1959.09 1488.51 L1959.09 1466.36 L1978.52 1466.36 L1978.52 1466.36 L1997.82 1466.36 L1997.82 1449.78 L2017.13 1449.78 L2017.13 1438.64 L2036.43 1438.64 L2036.43 1427.62 L2055.86 1427.62 L2055.86 1422.18 L2075.16 1422.18 L2075.16 1416.61 L2094.47 1416.61 L2094.47 1400.03 L2113.90 1400.03 L2113.90 1366.99 L2133.20 1366.99 L2133.20 1361.42 L2152.51 1361.42 L2152.51 1361.42 L2171.94 1361.42 L2171.94 1361.42 L2191.24 1361.42 L2191.24 1344.96 L2210.55 1344.96 L2210.55 1339.39 L2229.97 1339.39 L2229.97 1317.48 L2249.28 1317.48 L2249.28 1306.47 L2268.59 1306.47 L2268.59 1300.90 L2287.89 1300.90 L2287.89 1300.90 L2307.32 1300.90 L2307.32 1300.90 L2326.62 1300.90 L2326.62 1300.90 L2345.93 1300.90 L2345.93 1300.90 L2384.66 1300.90 L2384.66 1300.90 L2403.97 1300.90 L2403.97 1295.46 L2462.01 1295.46 L2462.01 1290.01 L2481.43 1290.01 L2481.43 1273.43 L2500.74 1273.43 L2500.74 1267.98 L2520.05 1267.98 L2520.05 1267.98 L2539.35 1267.98 L2539.35 1262.54 L2558.78 1262.54 L2558.78 1256.97 L2578.08 1256.97 L2578.08 1251.52 L2597.39 1251.52 L2597.39 1246.08 L2616.82 1246.08 L2616.82 1240.51 L2636.12 1240.51 L2636.12 1218.60 L2655.43 1218.60 L2655.43 1207.59 L2674.86 1207.59 L2674.86 1207.59 L2713.47 1207.59 L2713.47 1202.15 L2732.89 1202.15 L2732.89 1191.13 L2752.20 1191.13 L2752.20 1185.69 L2790.81 1185.69 L2790.81 1174.80 L2810.24 1174.80 L2810.24 1169.23 L2848.85 1169.23 L2848.85 1158.34 L2868.28 1158.34 L2868.28 1152.89 L2887.58 1152.89 L2887.58 1152.89 L2926.32 1152.89 L2926.32 1152.89 L2945.62 1152.89 L2945.62 1152.89 L2964.93 1152.89 L2964.93 1147.32 L2984.36 1147.32 L2984.36 1141.88 L3003.66 1141.88 L3003.66 1136.43 L3022.97 1136.43 L3022.97 1136.43 L3042.39 1136.43 L3042.39 1136.43 L3061.70 1136.43 L3061.70 1130.99 L3081.00 1130.99 L3081.00 1114.53 L3100.31 1114.53 L3100.31 1114.53 L3119.74 1114.53 L3119.74 1114.53 L3139.04 1114.53 L3139.04 1109.08 L3158.35 1109.08 L3158.35 1109.08 L3177.78 1109.08 L3177.78 1109.08 L3197.08 1109.08 L3197.08 1109.08 L3216.39 1109.08 L3216.39 1109.08 L3235.82 1109.08 L3235.82 1109.08 L3274.43 1109.08 L3274.43 1109.08 L3293.85 1109.08 L3293.85 1103.51 L3332.46 1103.51 L3332.46 1103.51 L3371.20 1103.51 L3371.20 1103.51 L3390.50 1103.51 L3390.50 1103.51 L3409.81 1103.51 L3409.81 1103.51 L3448.54 1103.51 L3448.54 1098.07 L3467.85 1098.07 L3467.85 1092.62 L3487.28 1092.62 L3487.28 1092.62 L3545.31 1092.62 L3545.31 1092.62 L3564.62 1092.62 L3564.62 1081.73 L3583.92 1081.73 L3583.92 1076.16 L3622.66 1076.16 L3622.66 1076.16 L3641.96 1076.16 L3641.96 1070.72 L3661.27 1070.72 L3661.27 1059.83 L3700.00 1059.83 L3700.00 1054.38 L3738.74 1054.38 L3738.74 1054.38" stroke-linejoin="round" style="fill:none;stroke:#C89A9D;stroke-width:8.64"/>
	<path d=" M682.48 2246.01 L682.48 2246.01 L682.48 2246.01 L692.13 2246.01 L692.13 2243.16 L701.79 2243.16 L701.79 2242.17 L721.09 2242.17 L721.09 2242.17 L740.52 2242.17 L740.52 2242.17 L759.83 2242.17 L759.83 2242.17 L779.13 2242.17 L779.13 2242.17 L798.56 2242.17 L798.56 2242.17 L817.86 2242.17 L817.86 2242.17 L837.17 2242.17 L837.17 2241.18 L856.60 2241.18 L856.60 2240.32 L875.90 2240.32 L875.90 2239.33 L895.21 2239.33 L895.21 2239.33 L914.64 2239.33 L914.64 2237.47 L933.94 2237.47 L933.94 2237.47 L953.25 2237.47 L953.25 2237.47 L972.55 2237.47 L972.55 2234.62 L991.98 2234.62 L991.98 2229.80 L1011.28 2229.80 L1011.28 2227.94 L1030.59 2227.94 L1030.59 2222.25 L1050.02 2222.25 L1050.02 2217.55 L1069.32 2217.55 L1069.32 2215.57 L1088.63 2215.57 L1088.63 2212.72 L1108.06 2212.72 L1108.06 2205.17 L1127.36 2205.17 L1127.36 2196.63 L1146.67 2196.63 L1146.67 2187.97 L1166.10 2187.97 L1166.10 2180.42 L1185.40 2180.42 L1185.40 2173.74 L1204.71 2173.74 L1204.71 2168.04 L1224.01 2168.04 L1224.01 2158.51 L1243.44 2158.51 L1243.44 2143.17 L1262.74 2143.17 L1262.74 2125.97 L1282.05 2125.97 L1282.05 2093.54 L1301.48 2093.54 L1301.48 2075.48 L1320.78 2075.48 L1320.78 2048.62 L1340.09 2048.62 L1340.09 2041.07 L1359.52 2041.07 L1359.52 2034.39 L1378.82 2034.39 L1378.82 2014.22 L1398.13 2014.22 L1398.13 2005.68 L1417.56 2005.68 L1417.56 1984.64 L1436.86 1984.64 L1436.86 1970.29 L1456.17 1970.29 L1456.17 1959.77 L1475.47 1959.77 L1475.47 1951.10 L1494.90 1951.10 L1494.90 1945.41 L1514.20 1945.41 L1514.20 1935.76 L1533.51 1935.76 L1533.51 1884.03 L1552.94 1884.03 L1552.94 1855.32 L1572.24 1855.32 L1572.24 1840.96 L1591.55 1840.96 L1591.55 1798.76 L1610.98 1798.76 L1610.98 1792.95 L1630.28 1792.95 L1630.28 1783.42 L1649.59 1783.42 L1649.59 1747.90 L1669.02 1747.90 L1669.02 1729.71 L1688.32 1729.71 L1688.32 1722.04 L1707.63 1722.04 L1707.63 1703.72 L1727.06 1703.72 L1727.06 1692.21 L1746.36 1692.21 L1746.36 1684.54 L1765.66 1684.54 L1765.66 1678.72 L1784.97 1678.72 L1784.97 1648.03 L1804.40 1648.03 L1804.40 1613.38 L1823.70 1613.38 L1823.70 1601.87 L1843.01 1601.87 L1843.01 1578.73 L1862.44 1578.73 L1862.44 1559.55 L1881.74 1559.55 L1881.74 1553.73 L1901.05 1553.73 L1901.05 1551.75 L1920.48 1551.75 L1920.48 1537.39 L1939.78 1537.39 L1939.78 1516.11 L1959.09 1516.11 L1959.09 1506.58 L1978.52 1506.58 L1978.52 1486.28 L1997.82 1486.28 L1997.82 1477.62 L2017.13 1477.62 L2017.13 1474.77 L2036.43 1474.77 L2036.43 1472.79 L2055.86 1472.79 L2055.86 1454.48 L2075.16 1454.48 L2075.16 1439.01 L2094.47 1439.01 L2094.47 1431.34 L2113.90 1431.34 L2113.90 1415.87 L2133.20 1415.87 L2133.20 1409.19 L2152.51 1409.19 L2152.51 1406.22 L2171.94 1406.22 L2171.94 1400.40 L2191.24 1400.40 L2191.24 1376.27 L2210.55 1376.27 L2210.55 1354.11 L2229.97 1354.11 L2229.97 1343.47 L2249.28 1343.47 L2249.28 1334.81 L2268.59 1334.81 L2268.59 1325.16 L2287.89 1325.16 L2287.89 1323.18 L2307.32 1323.18 L2307.32 1320.33 L2326.62 1320.33 L2326.62 1318.35 L2345.93 1318.35 L2345.93 1304.86 L2365.36 1304.86 L2365.36 1300.90 L2384.66 1300.90 L2384.66 1298.05 L2403.97 1298.05 L2403.97 1289.39 L2423.40 1289.39 L2423.40 1285.43 L2442.70 1285.43 L2442.70 1279.74 L2462.01 1279.74 L2462.01 1275.78 L2481.43 1275.78 L2481.43 1269.10 L2500.74 1269.10 L2500.74 1262.29 L2520.05 1262.29 L2520.05 1251.65 L2539.35 1251.65 L2539.35 1249.67 L2558.78 1249.67 L2558.78 1245.83 L2578.08 1245.83 L2578.08 1242.86 L2597.39 1242.86 L2597.39 1238.03 L2616.82 1238.03 L2616.82 1230.36 L2636.12 1230.36 L2636.12 1221.57 L2655.43 1221.57 L2655.43 1214.77 L2674.86 1214.77 L2674.86 1209.94 L2694.16 1209.94 L2694.16 1206.11 L2713.47 1206.11 L2713.47 1202.15 L2732.89 1202.15 L2732.89 1196.33 L2752.20 1196.33 L2752.20 1192.49 L2771.51 1192.49 L2771.51 1189.65 L2790.81 1189.65 L2790.81 1185.69 L2810.24 1185.69 L2810.24 1180.86 L2829.54 1180.86 L2829.54 1177.89 L2848.85 1177.89 L2848.85 1177.02 L2868.28 1177.02 L2868.28 1172.07 L2887.58 1172.07 L2887.58 1167.25 L2906.89 1167.25 L2906.89 1162.42 L2926.32 1162.42 L2926.32 1159.45 L2945.62 1159.45 L2945.62 1158.58 L2964.93 1158.58 L2964.93 1157.59 L2984.36 1157.59 L2984.36 1156.60 L3003.66 1156.60 L3003.66 1155.61 L3022.97 1155.61 L3022.97 1149.80 L3042.39 1149.80 L3042.39 1146.83 L3061.70 1146.83 L3061.70 1143.98 L3081.00 1143.98 L3081.00 1140.02 L3100.31 1140.02 L3100.31 1140.02 L3119.74 1140.02 L3119.74 1138.16 L3139.04 1138.16 L3139.04 1136.18 L3158.35 1136.18 L3158.35 1136.18 L3177.78 1136.18 L3177.78 1132.35 L3197.08 1132.35 L3197.08 1130.37 L3216.39 1130.37 L3216.39 1127.40 L3235.82 1127.40 L3235.82 1125.42 L3255.12 1125.42 L3255.12 1124.55 L3274.43 1124.55 L3274.43 1124.55 L3293.85 1124.55 L3293.85 1119.60 L3313.16 1119.60 L3313.16 1118.61 L3332.46 1118.61 L3332.46 1116.75 L3351.77 1116.75 L3351.77 1113.78 L3371.20 1113.78 L3371.20 1112.79 L3390.50 1112.79 L3390.50 1110.81 L3409.81 1110.81 L3409.81 1108.96 L3429.24 1108.96 L3429.24 1106.98 L3448.54 1106.98 L3448.54 1106.98 L3467.85 1106.98 L3467.85 1105.00 L3487.28 1105.00 L3487.28 1102.15 L3506.58 1102.15 L3506.58 1100.17 L3525.89 1100.17 L3525.89 1100.17 L3545.31 1100.17 L3545.31 1098.19 L3564.62 1098.19 L3564.62 1097.20 L3583.92 1097.20 L3583.92 1097.20 L3603.23 1097.20 L3603.23 1093.37 L3622.66 1093.37 L3622.66 1090.40 L3641.96 1090.40 L3641.96 1090.40 L3661.27 1090.40 L3661.27 1088.42 L3680.70 1088.42 L3680.70 1086.56 L3700.00 1086.56 L3700.00 1084.58 L3719.31 1084.58 L3719.31 1083.59 L3738.74 1083.59 L3738.74 1082.60" stroke-linejoin="round" style="fill:none;stroke:#1A476F;stroke-width:8.64"/>
	<path d=" M682.48 2246.01 L682.48 2246.01 L682.48 2246.01 L692.13 2246.01 L692.13 2235.86 L701.79 2235.86 L701.79 2235.86 L721.09 2235.86 L721.09 2235.86 L740.52 2235.86 L740.52 2235.86 L759.83 2235.86 L759.83 2235.86 L779.13 2235.86 L779.13 2235.86 L798.56 2235.86 L798.56 2235.86 L817.86 2235.86 L817.86 2235.86 L837.17 2235.86 L837.17 2235.86 L875.90 2235.86 L875.90 2235.86 L895.21 2235.86 L895.21 2235.86 L914.64 2235.86 L914.64 2235.86 L933.94 2235.86 L933.94 2235.86 L953.25 2235.86 L953.25 2235.86 L972.55 2235.86 L972.55 2230.79 L991.98 2230.79 L991.98 2230.79 L1011.28 2230.79 L1011.28 2230.79 L1050.02 2230.79 L1050.02 2225.71 L1069.32 2225.71 L1069.32 2225.71 L1088.63 2225.71 L1088.63 2220.64 L1108.06 2220.64 L1108.06 2215.57 L1127.36 2215.57 L1127.36 2205.42 L1146.67 2205.42 L1146.67 2200.34 L1166.10 2200.34 L1166.10 2190.20 L1185.40 2190.20 L1185.40 2190.20 L1204.71 2190.20 L1204.71 2190.20 L1224.01 2190.20 L1224.01 2185.12 L1243.44 2185.12 L1243.44 2169.78 L1262.74 2169.78 L1262.74 2159.63 L1282.05 2159.63 L1282.05 2149.48 L1301.48 2149.48 L1301.48 2149.48 L1320.78 2149.48 L1320.78 2134.26 L1340.09 2134.26 L1340.09 2129.19 L1359.52 2129.19 L1359.52 2119.04 L1378.82 2119.04 L1378.82 2093.67 L1398.13 2093.67 L1398.13 2078.45 L1417.56 2078.45 L1417.56 2063.10 L1436.86 2063.10 L1436.86 2042.81 L1456.17 2042.81 L1456.17 2027.58 L1475.47 2027.58 L1475.47 2027.58 L1494.90 2027.58 L1494.90 2012.36 L1514.20 2012.36 L1514.20 1997.02 L1533.51 1997.02 L1533.51 1961.50 L1552.94 1961.50 L1552.94 1951.35 L1572.24 1951.35 L1572.24 1951.35 L1591.55 1951.35 L1591.55 1910.64 L1610.98 1910.64 L1610.98 1910.64 L1630.28 1910.64 L1630.28 1905.44 L1649.59 1905.44 L1649.59 1885.14 L1669.02 1885.14 L1669.02 1874.99 L1688.32 1874.99 L1688.32 1869.92 L1707.63 1869.92 L1707.63 1859.65 L1727.06 1859.65 L1727.06 1854.58 L1746.36 1854.58 L1746.36 1844.43 L1765.66 1844.43 L1765.66 1834.16 L1784.97 1834.16 L1784.97 1808.79 L1804.40 1808.79 L1804.40 1732.31 L1823.70 1732.31 L1823.70 1696.67 L1843.01 1696.67 L1843.01 1676.25 L1862.44 1676.25 L1862.44 1655.95 L1881.74 1655.95 L1881.74 1645.68 L1901.05 1645.68 L1901.05 1635.53 L1920.48 1635.53 L1920.48 1625.38 L1939.78 1625.38 L1939.78 1610.04 L1959.09 1610.04 L1959.09 1589.62 L1978.52 1589.62 L1978.52 1589.62 L1997.82 1589.62 L1997.82 1574.40 L2017.13 1574.40 L2017.13 1564.13 L2036.43 1564.13 L2036.43 1553.98 L2055.86 1553.98 L2055.86 1548.90 L2075.16 1548.90 L2075.16 1543.71 L2094.47 1543.71 L2094.47 1528.48 L2113.90 1528.48 L2113.90 1497.92 L2133.20 1497.92 L2133.20 1492.72 L2152.51 1492.72 L2152.51 1492.72 L2171.94 1492.72 L2171.94 1492.72 L2191.24 1492.72 L2191.24 1477.50 L2210.55 1477.50 L2210.55 1472.30 L2229.97 1472.30 L2229.97 1452.00 L2249.28 1452.00 L2249.28 1441.73 L2268.59 1441.73 L2268.59 1436.66 L2287.89 1436.66 L2287.89 1436.66 L2307.32 1436.66 L2307.32 1436.66 L2326.62 1436.66 L2326.62 1436.66 L2345.93 1436.66 L2345.93 1436.66 L2384.66 1436.66 L2384.66 1436.66 L2403.97 1436.66 L2403.97 1431.58 L2462.01 1431.58 L2462.01 1426.39 L2481.43 1426.39 L2481.43 1411.17 L2500.74 1411.17 L2500.74 1405.97 L2520.05 1405.97 L2520.05 1405.97 L2539.35 1405.97 L2539.35 1400.89 L2558.78 1400.89 L2558.78 1395.82 L2578.08 1395.82 L2578.08 1390.75 L2597.39 1390.75 L2597.39 1385.55 L2616.82 1385.55 L2616.82 1380.47 L2636.12 1380.47 L2636.12 1360.06 L2655.43 1360.06 L2655.43 1349.78 L2674.86 1349.78 L2674.86 1349.78 L2713.47 1349.78 L2713.47 1344.71 L2732.89 1344.71 L2732.89 1334.44 L2752.20 1334.44 L2752.20 1329.36 L2790.81 1329.36 L2790.81 1319.22 L2810.24 1319.22 L2810.24 1314.02 L2848.85 1314.02 L2848.85 1303.87 L2868.28 1303.87 L2868.28 1298.67 L2887.58 1298.67 L2887.58 1298.67 L2926.32 1298.67 L2926.32 1298.67 L2945.62 1298.67 L2945.62 1298.67 L2964.93 1298.67 L2964.93 1293.60 L2984.36 1293.60 L2984.36 1288.53 L3003.66 1288.53 L3003.66 1283.33 L3022.97 1283.33 L3022.97 1283.33 L3042.39 1283.33 L3042.39 1283.33 L3061.70 1283.33 L3061.70 1278.25 L3081.00 1278.25 L3081.00 1262.91 L3100.31 1262.91 L3100.31 1262.91 L3119.74 1262.91 L3119.74 1262.91 L3139.04 1262.91 L3139.04 1257.83 L3158.35 1257.83 L3158.35 1257.83 L3177.78 1257.83 L3177.78 1257.83 L3197.08 1257.83 L3197.08 1257.83 L3216.39 1257.83 L3216.39 1257.83 L3235.82 1257.83 L3235.82 1257.83 L3274.43 1257.83 L3274.43 1257.83 L3293.85 1257.83 L3293.85 1252.64 L3332.46 1252.64 L3332.46 1252.64 L3371.20 1252.64 L3371.20 1252.64 L3390.50 1252.64 L3390.50 1252.64 L3409.81 1252.64 L3409.81 1252.64 L3448.54 1252.64 L3448.54 1247.56 L3467.85 1247.56 L3467.85 1242.49 L3487.28 1242.49 L3487.28 1242.49 L3545.31 1242.49 L3545.31 1242.49 L3564.62 1242.49 L3564.62 1232.22 L3583.92 1232.22 L3583.92 1227.14 L3622.66 1227.14 L3622.66 1227.14 L3641.96 1227.14 L3641.96 1221.95 L3661.27 1221.95 L3661.27 1211.67 L3700.00 1211.67 L3700.00 1206.60 L3738.74 1206.60 L3738.74 1206.60" stroke-linejoin="round" style="fill:none;stroke:#90353B;stroke-width:8.64"/>
	<line x1="619.12" y1="2309.25" x2="619.12" y2="630.90" style="stroke:#000000;stroke-width:5.76"/>
	<line x1="619.12" y1="2245.89" x2="579.15" y2="2245.89" style="stroke:#000000;stroke-width:5.76"/>
	<text x="559.23" y="2273.90" style="font-family:'Helvetica';font-size:79.94px;fill:#000000" text-anchor="end">0.000</text>
	<line x1="619.12" y1="2090.70" x2="579.15" y2="2090.70" style="stroke:#000000;stroke-width:5.76"/>
	<text x="559.23" y="2118.71" style="font-family:'Helvetica';font-size:79.94px;fill:#000000" text-anchor="end">0.001</text>
	<line x1="619.12" y1="1935.51" x2="579.15" y2="1935.51" style="stroke:#000000;stroke-width:5.76"/>
	<text x="559.23" y="1963.52" style="font-family:'Helvetica';font-size:79.94px;fill:#000000" text-anchor="end">0.002</text>
	<line x1="619.12" y1="1780.45" x2="579.15" y2="1780.45" style="stroke:#000000;stroke-width:5.76"/>
	<text x="559.23" y="1808.46" style="font-family:'Helvetica';font-size:79.94px;fill:#000000" text-anchor="end">0.003</text>
	<line x1="619.12" y1="1625.26" x2="579.15" y2="1625.26" style="stroke:#000000;stroke-width:5.76"/>
	<text x="559.23" y="1653.27" style="font-family:'Helvetica';font-size:79.94px;fill:#000000" text-anchor="end">0.004</text>
	<line x1="619.12" y1="1470.07" x2="579.15" y2="1470.07" style="stroke:#000000;stroke-width:5.76"/>
	<text x="559.23" y="1498.08" style="font-family:'Helvetica';font-size:79.94px;fill:#000000" text-anchor="end">0.005</text>
	<line x1="619.12" y1="1314.88" x2="579.15" y2="1314.88" style="stroke:#000000;stroke-width:5.76"/>
	<text x="559.23" y="1342.90" style="font-family:'Helvetica';font-size:79.94px;fill:#000000" text-anchor="end">0.006</text>
	<line x1="619.12" y1="1159.70" x2="579.15" y2="1159.70" style="stroke:#000000;stroke-width:5.76"/>
	<text x="559.23" y="1187.71" style="font-family:'Helvetica';font-size:79.94px;fill:#000000" text-anchor="end">0.007</text>
	<line x1="619.12" y1="1004.51" x2="579.15" y2="1004.51" style="stroke:#000000;stroke-width:5.76"/>
	<text x="559.23" y="1032.52" style="font-family:'Helvetica';font-size:79.94px;fill:#000000" text-anchor="end">0.008</text>
	<line x1="619.12" y1="849.45" x2="579.15" y2="849.45" style="stroke:#000000;stroke-width:5.76"/>
	<text x="559.23" y="877.46" style="font-family:'Helvetica';font-size:79.94px;fill:#000000" text-anchor="end">0.009</text>
	<line x1="619.12" y1="694.26" x2="579.15" y2="694.26" style="stroke:#000000;stroke-width:5.76"/>
	<text x="559.23" y="722.27" style="font-family:'Helvetica';font-size:79.94px;fill:#000000" text-anchor="end">0.010</text>
	<line x1="619.12" y1="2309.25" x2="3840.83" y2="2309.25" style="stroke:#000000;stroke-width:5.76"/>
	<line x1="682.48" y1="2309.25" x2="682.48" y2="2349.22" style="stroke:#000000;stroke-width:5.76"/>
	<text x="682.48" y="2425.17" style="font-family:'Helvetica';font-size:79.94px;fill:#000000" text-anchor="middle">0</text>
	<line x1="1069.45" y1="2309.25" x2="1069.45" y2="2349.22" style="stroke:#000000;stroke-width:5.76"/>
	<text x="1069.45" y="2425.17" style="font-family:'Helvetica';font-size:79.94px;fill:#000000" text-anchor="middle">20</text>
	<line x1="1456.29" y1="2309.25" x2="1456.29" y2="2349.22" style="stroke:#000000;stroke-width:5.76"/>
	<text x="1456.29" y="2425.17" style="font-family:'Helvetica';font-size:79.94px;fill:#000000" text-anchor="middle">40</text>
	<line x1="1843.13" y1="2309.25" x2="1843.13" y2="2349.22" style="stroke:#000000;stroke-width:5.76"/>
	<text x="1843.13" y="2425.17" style="font-family:'Helvetica';font-size:79.94px;fill:#000000" text-anchor="middle">60</text>
	<line x1="2229.97" y1="2309.25" x2="2229.97" y2="2349.22" style="stroke:#000000;stroke-width:5.76"/>
	<text x="2229.97" y="2425.17" style="font-family:'Helvetica';font-size:79.94px;fill:#000000" text-anchor="middle">80</text>
	<line x1="2616.82" y1="2309.25" x2="2616.82" y2="2349.22" style="stroke:#000000;stroke-width:5.76"/>
	<text x="2616.82" y="2425.17" style="font-family:'Helvetica';font-size:79.94px;fill:#000000" text-anchor="middle">100</text>
	<line x1="3003.66" y1="2309.25" x2="3003.66" y2="2349.22" style="stroke:#000000;stroke-width:5.76"/>
	<text x="3003.66" y="2425.17" style="font-family:'Helvetica';font-size:79.94px;fill:#000000" text-anchor="middle">120</text>
	<line x1="3390.63" y1="2309.25" x2="3390.63" y2="2349.22" style="stroke:#000000;stroke-width:5.76"/>
	<text x="3390.63" y="2425.17" style="font-family:'Helvetica';font-size:79.94px;fill:#000000" text-anchor="middle">140</text>
	<line x1="3777.47" y1="2309.25" x2="3777.47" y2="2349.22" style="stroke:#000000;stroke-width:5.76"/>
	<text x="3777.47" y="2425.17" style="font-family:'Helvetica';font-size:79.94px;fill:#000000" text-anchor="middle">160</text>
	<text x="2229.97" y="2515.14" style="font-family:'Helvetica';font-size:79.94px;fill:#000000" text-anchor="middle">Days since 1 Mar 2020</text>
	<text x="682.48" y="2747.83" style="font-family:'Helvetica';font-size:60.02px;fill:#000000" text-anchor="middle">30609</text>
	<text x="1069.45" y="2747.83" style="font-family:'Helvetica';font-size:60.02px;fill:#000000" text-anchor="middle">30573</text>
	<text x="1456.29" y="2747.83" style="font-family:'Helvetica';font-size:60.02px;fill:#000000" text-anchor="middle">30487</text>
	<text x="1843.13" y="2747.83" style="font-family:'Helvetica';font-size:60.02px;fill:#000000" text-anchor="middle">30343</text>
	<text x="2229.97" y="2747.83" style="font-family:'Helvetica';font-size:60.02px;fill:#000000" text-anchor="middle">30261</text>
	<text x="2616.82" y="2747.83" style="font-family:'Helvetica';font-size:60.02px;fill:#000000" text-anchor="middle">30207</text>
	<text x="3003.66" y="2747.83" style="font-family:'Helvetica';font-size:60.02px;fill:#000000" text-anchor="middle">30157</text>
	<text x="3390.63" y="2747.83" style="font-family:'Helvetica';font-size:60.02px;fill:#000000" text-anchor="middle">30121</text>
	<text x="3777.47" y="2747.83" style="font-family:'Helvetica';font-size:60.02px;fill:#000000" text-anchor="middle">0</text>
	<text x="527.79" y="2747.83" style="font-family:'Helvetica';font-size:60.02px;fill:#000000" text-anchor="end">HCQ</text>
	<text x="682.48" y="2674.44" style="font-family:'Helvetica';font-size:60.02px;fill:#000000" text-anchor="middle">164405</text>
	<text x="1069.45" y="2674.44" style="font-family:'Helvetica';font-size:60.02px;fill:#000000" text-anchor="middle">163161</text>
	<text x="1456.29" y="2674.44" style="font-family:'Helvetica';font-size:60.02px;fill:#000000" text-anchor="middle">161811</text>
	<text x="1843.13" y="2674.44" style="font-family:'Helvetica';font-size:60.02px;fill:#000000" text-anchor="middle">160608</text>
	<text x="2229.97" y="2674.44" style="font-family:'Helvetica';font-size:60.02px;fill:#000000" text-anchor="middle">159736</text>
	<text x="2616.82" y="2674.44" style="font-family:'Helvetica';font-size:60.02px;fill:#000000" text-anchor="middle">159122</text>
	<text x="3003.66" y="2674.44" style="font-family:'Helvetica';font-size:60.02px;fill:#000000" text-anchor="middle">158604</text>
	<text x="3390.63" y="2674.44" style="font-family:'Helvetica';font-size:60.02px;fill:#000000" text-anchor="middle">158152</text>
	<text x="3777.47" y="2674.44" style="font-family:'Helvetica';font-size:60.02px;fill:#000000" text-anchor="middle">0</text>
	<text x="527.79" y="2674.44" style="font-family:'Helvetica';font-size:60.02px;fill:#000000" text-anchor="end">No HCQ</text>
	<text x="527.79" y="2601.18" style="font-family:'Helvetica';font-size:60.02px;fill:#000000" text-anchor="end">Number at risk</text>
	<rect x="1167.95" y="269.91" width="2124.05" height="326.46" style="fill:#FFFFFF"/>
	<rect x="1170.83" y="272.79" width="2118.29" height="320.70" style="fill:none;stroke:#EAF2F3;stroke-width:5.76"/>
	<rect x="1211.14" y="313.10" width="374.34" height="99.99" style="fill:#DDE3E9"/>
	<rect x="1215.46" y="317.42" width="365.70" height="91.35" style="fill:none;stroke:#DDE3E9;stroke-width:8.64"/>
	<rect x="2349.02" y="313.10" width="374.34" height="99.99" style="fill:#EEE1E2"/>
	<rect x="2353.34" y="317.42" width="365.70" height="91.35" style="fill:none;stroke:#EEE1E2;stroke-width:8.64"/>
	<line x1="1211.14" y1="503.06" x2="1585.48" y2="503.06" style="stroke:#1A476F;stroke-width:8.64"/>
	<line x1="2349.02" y1="503.06" x2="2723.37" y2="503.06" style="stroke:#90353B;stroke-width:8.64"/>
	<text x="1645.50" y="384.13" style="font-family:'Helvetica';font-size:60.02px;fill:#000000">No HCQ</text>
	<text x="2783.39" y="384.13" style="font-family:'Helvetica';font-size:60.02px;fill:#000000">95% CI</text>
	<text x="1645.50" y="524.10" style="font-family:'Helvetica';font-size:60.02px;fill:#000000">exposure = No HCQ</text>
	<text x="2783.39" y="524.10" style="font-family:'Helvetica';font-size:60.02px;fill:#000000">exposure = HCQ</text>
	<text x="1203.35" y="187.99" style="font-family:'Helvetica';font-size:99.99px;fill:#1E2D53">Time to Primary care positive COVID-19 test</text>
</svg>
