<?xml version="1.0" encoding="UTF-8" standalone="no"?>
<!-- This is a Stata 16.1 generated SVG file (http://www.stata.com) -->

<svg version="1.1" width="5.50in" height="4.00in" viewBox="0 0 3960 2880" xmlns="http://www.w3.org/2000/svg" xmlns:xlink="http://www.w3.org/1999/xlink">
	<desc>Stata Graph - Graph</desc>
	<rect x="0" y="0" width="3960" height="2880" style="fill:#EAF2F3;stroke:none"/>
	<rect x="0.00" y="0.00" width="3959.88" height="2880.00" style="fill:#EAF2F3"/>
	<rect x="2.88" y="2.88" width="3954.12" height="2874.24" style="fill:none;stroke:#EAF2F3;stroke-width:5.76"/>
	<rect x="387.34" y="100.86" width="3471.68" height="2428.42" style="fill:#FFFFFF"/>
	<rect x="390.22" y="103.74" width="3465.92" height="2422.66" style="fill:none;stroke:#FFFFFF;stroke-width:5.76"/>
	<line x1="387.34" y1="2529.28" x2="3859.02" y2="2529.28" style="stroke:#EAF2F3;stroke-width:5.76"/>
	<line x1="387.34" y1="1937.99" x2="3859.02" y2="1937.99" style="stroke:#EAF2F3;stroke-width:5.76"/>
	<line x1="387.34" y1="1346.69" x2="3859.02" y2="1346.69" style="stroke:#EAF2F3;stroke-width:5.76"/>
	<line x1="387.34" y1="755.39" x2="3859.02" y2="755.39" style="stroke:#EAF2F3;stroke-width:5.76"/>
	<line x1="387.34" y1="164.22" x2="3859.02" y2="164.22" style="stroke:#EAF2F3;stroke-width:5.76"/>
	<line x1="476.81" y1="2529.28" x2="476.81" y2="100.86" style="stroke:#EAF2F3;stroke-width:5.76"/>
	<line x1="1283.78" y1="2529.28" x2="1283.78" y2="100.86" style="stroke:#EAF2F3;stroke-width:5.76"/>
	<line x1="2064.64" y1="2529.28" x2="2064.64" y2="100.86" style="stroke:#EAF2F3;stroke-width:5.76"/>
	<line x1="2871.62" y1="2529.28" x2="2871.62" y2="100.86" style="stroke:#EAF2F3;stroke-width:5.76"/>
	<line x1="3652.61" y1="2529.28" x2="3652.61" y2="100.86" style="stroke:#EAF2F3;stroke-width:5.76"/>
	<rect x="463.81" y="1642.34" width="25.99" height="886.94" style="fill:#CAC27E"/>
	<rect x="468.13" y="1646.66" width="17.35" height="878.30" style="fill:none;stroke:#D7D29E;stroke-width:8.64"/>
	<rect x="489.80" y="1465.00" width="25.99" height="1064.28" style="fill:#CAC27E"/>
	<rect x="494.12" y="1469.32" width="17.35" height="1055.64" style="fill:none;stroke:#D7D29E;stroke-width:8.64"/>
	<rect x="515.79" y="1465.00" width="26.11" height="1064.28" style="fill:#CAC27E"/>
	<rect x="520.11" y="1469.32" width="17.47" height="1055.64" style="fill:none;stroke:#D7D29E;stroke-width:8.64"/>
	<rect x="541.90" y="1760.65" width="25.99" height="768.64" style="fill:#CAC27E"/>
	<rect x="546.22" y="1764.97" width="17.35" height="760.00" style="fill:none;stroke:#D7D29E;stroke-width:8.64"/>
	<rect x="567.89" y="1642.34" width="25.99" height="886.94" style="fill:#CAC27E"/>
	<rect x="572.21" y="1646.66" width="17.35" height="878.30" style="fill:none;stroke:#D7D29E;stroke-width:8.64"/>
	<rect x="593.88" y="1465.00" width="26.11" height="1064.28" style="fill:#CAC27E"/>
	<rect x="598.20" y="1469.32" width="17.47" height="1055.64" style="fill:none;stroke:#D7D29E;stroke-width:8.64"/>
	<rect x="619.99" y="1228.50" width="25.99" height="1300.78" style="fill:#CAC27E"/>
	<rect x="624.31" y="1232.82" width="17.35" height="1292.14" style="fill:none;stroke:#D7D29E;stroke-width:8.64"/>
	<rect x="645.98" y="1701.49" width="25.99" height="827.79" style="fill:#CAC27E"/>
	<rect x="650.29" y="1705.81" width="17.35" height="819.15" style="fill:none;stroke:#D7D29E;stroke-width:8.64"/>
	<rect x="671.96" y="1465.00" width="26.11" height="1064.28" style="fill:#CAC27E"/>
	<rect x="676.28" y="1469.32" width="17.47" height="1055.64" style="fill:none;stroke:#D7D29E;stroke-width:8.64"/>
	<rect x="698.07" y="1405.84" width="25.99" height="1123.44" style="fill:#CAC27E"/>
	<rect x="702.39" y="1410.16" width="17.35" height="1114.80" style="fill:none;stroke:#D7D29E;stroke-width:8.64"/>
	<rect x="724.06" y="1701.49" width="25.99" height="827.79" style="fill:#CAC27E"/>
	<rect x="728.38" y="1705.81" width="17.35" height="819.15" style="fill:none;stroke:#D7D29E;stroke-width:8.64"/>
	<rect x="750.05" y="1937.99" width="26.11" height="591.30" style="fill:#CAC27E"/>
	<rect x="754.37" y="1942.31" width="17.47" height="582.66" style="fill:none;stroke:#D7D29E;stroke-width:8.64"/>
	<rect x="776.16" y="1701.49" width="25.99" height="827.79" style="fill:#CAC27E"/>
	<rect x="780.48" y="1705.81" width="17.35" height="819.15" style="fill:none;stroke:#D7D29E;stroke-width:8.64"/>
	<rect x="802.15" y="1228.50" width="26.11" height="1300.78" style="fill:#CAC27E"/>
	<rect x="806.47" y="1232.82" width="17.47" height="1292.14" style="fill:none;stroke:#D7D29E;stroke-width:8.64"/>
	<rect x="828.26" y="1287.54" width="25.99" height="1241.75" style="fill:#CAC27E"/>
	<rect x="832.58" y="1291.86" width="17.35" height="1233.11" style="fill:none;stroke:#D7D29E;stroke-width:8.64"/>
	<rect x="854.25" y="1465.00" width="25.99" height="1064.28" style="fill:#CAC27E"/>
	<rect x="858.57" y="1469.32" width="17.35" height="1055.64" style="fill:none;stroke:#D7D29E;stroke-width:8.64"/>
	<rect x="880.23" y="1465.00" width="26.11" height="1064.28" style="fill:#CAC27E"/>
	<rect x="884.55" y="1469.32" width="17.47" height="1055.64" style="fill:none;stroke:#D7D29E;stroke-width:8.64"/>
	<rect x="906.35" y="1583.18" width="25.99" height="946.10" style="fill:#CAC27E"/>
	<rect x="910.66" y="1587.50" width="17.35" height="937.46" style="fill:none;stroke:#D7D29E;stroke-width:8.64"/>
	<rect x="932.33" y="1642.34" width="25.99" height="886.94" style="fill:#CAC27E"/>
	<rect x="936.65" y="1646.66" width="17.35" height="878.30" style="fill:none;stroke:#D7D29E;stroke-width:8.64"/>
	<rect x="958.32" y="1524.03" width="26.11" height="1005.25" style="fill:#CAC27E"/>
	<rect x="962.64" y="1528.35" width="17.47" height="996.61" style="fill:none;stroke:#D7D29E;stroke-width:8.64"/>
	<rect x="984.43" y="1878.83" width="25.99" height="650.45" style="fill:#CAC27E"/>
	<rect x="988.75" y="1883.15" width="17.35" height="641.81" style="fill:none;stroke:#D7D29E;stroke-width:8.64"/>
	<rect x="1010.42" y="1701.49" width="25.99" height="827.79" style="fill:#CAC27E"/>
	<rect x="1014.74" y="1705.81" width="17.35" height="819.15" style="fill:none;stroke:#D7D29E;stroke-width:8.64"/>
	<rect x="1036.41" y="1524.03" width="26.11" height="1005.25" style="fill:#CAC27E"/>
	<rect x="1040.73" y="1528.35" width="17.47" height="996.61" style="fill:none;stroke:#D7D29E;stroke-width:8.64"/>
	<rect x="1062.52" y="1287.54" width="25.99" height="1241.75" style="fill:#CAC27E"/>
	<rect x="1066.84" y="1291.86" width="17.35" height="1233.11" style="fill:none;stroke:#D7D29E;stroke-width:8.64"/>
	<rect x="1088.51" y="1346.69" width="25.99" height="1182.59" style="fill:#CAC27E"/>
	<rect x="1092.82" y="1351.01" width="17.35" height="1173.95" style="fill:none;stroke:#D7D29E;stroke-width:8.64"/>
	<rect x="1114.49" y="1405.84" width="26.11" height="1123.44" style="fill:#CAC27E"/>
	<rect x="1118.81" y="1410.16" width="17.47" height="1114.80" style="fill:none;stroke:#D7D29E;stroke-width:8.64"/>
	<rect x="1140.60" y="1169.35" width="25.99" height="1359.93" style="fill:#CAC27E"/>
	<rect x="1144.92" y="1173.67" width="17.35" height="1351.29" style="fill:none;stroke:#D7D29E;stroke-width:8.64"/>
	<rect x="1166.59" y="814.55" width="25.99" height="1714.73" style="fill:#CAC27E"/>
	<rect x="1170.91" y="818.87" width="17.35" height="1706.09" style="fill:none;stroke:#D7D29E;stroke-width:8.64"/>
	<rect x="1192.58" y="932.86" width="26.11" height="1596.42" style="fill:#CAC27E"/>
	<rect x="1196.90" y="937.18" width="17.47" height="1587.79" style="fill:none;stroke:#D7D29E;stroke-width:8.64"/>
	<rect x="1218.69" y="1110.20" width="25.99" height="1419.09" style="fill:#CAC27E"/>
	<rect x="1223.01" y="1114.52" width="17.35" height="1410.45" style="fill:none;stroke:#D7D29E;stroke-width:8.64"/>
	<rect x="1244.68" y="696.36" width="25.99" height="1832.92" style="fill:#CAC27E"/>
	<rect x="1249.00" y="700.68" width="17.35" height="1824.28" style="fill:none;stroke:#D7D29E;stroke-width:8.64"/>
	<rect x="1270.66" y="1346.69" width="26.11" height="1182.59" style="fill:#CAC27E"/>
	<rect x="1274.98" y="1351.01" width="17.47" height="1173.95" style="fill:none;stroke:#D7D29E;stroke-width:8.64"/>
	<rect x="1296.78" y="637.21" width="25.99" height="1892.07" style="fill:#CAC27E"/>
	<rect x="1301.10" y="641.53" width="17.35" height="1883.43" style="fill:none;stroke:#D7D29E;stroke-width:8.64"/>
	<rect x="1322.76" y="1405.84" width="26.11" height="1123.44" style="fill:#CAC27E"/>
	<rect x="1327.08" y="1410.16" width="17.47" height="1114.80" style="fill:none;stroke:#D7D29E;stroke-width:8.64"/>
	<rect x="1348.88" y="578.05" width="25.99" height="1951.23" style="fill:#CAC27E"/>
	<rect x="1353.19" y="582.37" width="17.35" height="1942.59" style="fill:none;stroke:#D7D29E;stroke-width:8.64"/>
	<rect x="1374.86" y="755.39" width="25.99" height="1773.89" style="fill:#CAC27E"/>
	<rect x="1379.18" y="759.71" width="17.35" height="1765.25" style="fill:none;stroke:#D7D29E;stroke-width:8.64"/>
	<rect x="1400.85" y="1169.35" width="26.11" height="1359.93" style="fill:#CAC27E"/>
	<rect x="1405.17" y="1173.67" width="17.47" height="1351.29" style="fill:none;stroke:#D7D29E;stroke-width:8.64"/>
	<rect x="1426.96" y="1228.50" width="25.99" height="1300.78" style="fill:#CAC27E"/>
	<rect x="1431.28" y="1232.82" width="17.35" height="1292.14" style="fill:none;stroke:#D7D29E;stroke-width:8.64"/>
	<rect x="1452.95" y="991.89" width="25.99" height="1537.39" style="fill:#CAC27E"/>
	<rect x="1457.27" y="996.21" width="17.35" height="1528.75" style="fill:none;stroke:#D7D29E;stroke-width:8.64"/>
	<rect x="1478.94" y="223.25" width="26.11" height="2306.03" style="fill:#CAC27E"/>
	<rect x="1483.26" y="227.57" width="17.47" height="2297.39" style="fill:none;stroke:#D7D29E;stroke-width:8.64"/>
	<rect x="1505.05" y="223.25" width="25.99" height="2306.03" style="fill:#CAC27E"/>
	<rect x="1509.37" y="227.57" width="17.35" height="2297.39" style="fill:none;stroke:#D7D29E;stroke-width:8.64"/>
	<rect x="1531.04" y="991.89" width="25.99" height="1537.39" style="fill:#CAC27E"/>
	<rect x="1535.35" y="996.21" width="17.35" height="1528.75" style="fill:none;stroke:#D7D29E;stroke-width:8.64"/>
	<rect x="1557.02" y="637.21" width="26.11" height="1892.07" style="fill:#CAC27E"/>
	<rect x="1561.34" y="641.53" width="17.47" height="1883.43" style="fill:none;stroke:#D7D29E;stroke-width:8.64"/>
	<rect x="1583.13" y="1169.35" width="25.99" height="1359.93" style="fill:#CAC27E"/>
	<rect x="1587.45" y="1173.67" width="17.35" height="1351.29" style="fill:none;stroke:#D7D29E;stroke-width:8.64"/>
	<rect x="1609.12" y="1228.50" width="25.99" height="1300.78" style="fill:#CAC27E"/>
	<rect x="1613.44" y="1232.82" width="17.35" height="1292.14" style="fill:none;stroke:#D7D29E;stroke-width:8.64"/>
	<rect x="1635.11" y="400.72" width="26.11" height="2128.57" style="fill:#CAC27E"/>
	<rect x="1639.43" y="405.03" width="17.47" height="2119.93" style="fill:none;stroke:#D7D29E;stroke-width:8.64"/>
	<rect x="1661.22" y="578.05" width="25.99" height="1951.23" style="fill:#CAC27E"/>
	<rect x="1665.54" y="582.37" width="17.35" height="1942.59" style="fill:none;stroke:#D7D29E;stroke-width:8.64"/>
	<rect x="1687.21" y="814.55" width="25.99" height="1714.73" style="fill:#CAC27E"/>
	<rect x="1691.53" y="818.87" width="17.35" height="1706.09" style="fill:none;stroke:#D7D29E;stroke-width:8.64"/>
	<rect x="1713.19" y="755.39" width="26.11" height="1773.89" style="fill:#CAC27E"/>
	<rect x="1717.51" y="759.71" width="17.47" height="1765.25" style="fill:none;stroke:#D7D29E;stroke-width:8.64"/>
	<rect x="1739.31" y="991.89" width="25.99" height="1537.39" style="fill:#CAC27E"/>
	<rect x="1743.63" y="996.21" width="17.35" height="1528.75" style="fill:none;stroke:#D7D29E;stroke-width:8.64"/>
	<rect x="1765.29" y="755.39" width="25.99" height="1773.89" style="fill:#CAC27E"/>
	<rect x="1769.61" y="759.71" width="17.35" height="1765.25" style="fill:none;stroke:#D7D29E;stroke-width:8.64"/>
	<rect x="1791.28" y="1346.69" width="26.11" height="1182.59" style="fill:#CAC27E"/>
	<rect x="1795.60" y="1351.01" width="17.47" height="1173.95" style="fill:none;stroke:#D7D29E;stroke-width:8.64"/>
	<rect x="1817.39" y="400.72" width="25.99" height="2128.57" style="fill:#CAC27E"/>
	<rect x="1821.71" y="405.03" width="17.35" height="2119.93" style="fill:none;stroke:#D7D29E;stroke-width:8.64"/>
	<rect x="1843.38" y="991.89" width="26.11" height="1537.39" style="fill:#CAC27E"/>
	<rect x="1847.70" y="996.21" width="17.47" height="1528.75" style="fill:none;stroke:#D7D29E;stroke-width:8.64"/>
	<rect x="1869.49" y="873.70" width="25.99" height="1655.58" style="fill:#CAC27E"/>
	<rect x="1873.81" y="878.02" width="17.35" height="1646.94" style="fill:none;stroke:#D7D29E;stroke-width:8.64"/>
	<rect x="1895.48" y="814.55" width="25.99" height="1714.73" style="fill:#CAC27E"/>
	<rect x="1899.80" y="818.87" width="17.35" height="1706.09" style="fill:none;stroke:#D7D29E;stroke-width:8.64"/>
	<rect x="1921.47" y="1465.00" width="26.11" height="1064.28" style="fill:#CAC27E"/>
	<rect x="1925.79" y="1469.32" width="17.47" height="1055.64" style="fill:none;stroke:#D7D29E;stroke-width:8.64"/>
	<rect x="1947.58" y="1051.04" width="25.99" height="1478.24" style="fill:#CAC27E"/>
	<rect x="1951.90" y="1055.36" width="17.35" height="1469.60" style="fill:none;stroke:#D7D29E;stroke-width:8.64"/>
	<rect x="1973.57" y="1583.18" width="25.99" height="946.10" style="fill:#CAC27E"/>
	<rect x="1977.88" y="1587.50" width="17.35" height="937.46" style="fill:none;stroke:#D7D29E;stroke-width:8.64"/>
	<rect x="1999.55" y="1287.54" width="26.11" height="1241.75" style="fill:#CAC27E"/>
	<rect x="2003.87" y="1291.86" width="17.47" height="1233.11" style="fill:none;stroke:#D7D29E;stroke-width:8.64"/>
	<rect x="2025.66" y="1405.84" width="25.99" height="1123.44" style="fill:#CAC27E"/>
	<rect x="2029.98" y="1410.16" width="17.35" height="1114.80" style="fill:none;stroke:#D7D29E;stroke-width:8.64"/>
	<rect x="2051.65" y="1287.54" width="25.99" height="1241.75" style="fill:#CAC27E"/>
	<rect x="2055.97" y="1291.86" width="17.35" height="1233.11" style="fill:none;stroke:#D7D29E;stroke-width:8.64"/>
	<rect x="2077.64" y="1524.03" width="26.11" height="1005.25" style="fill:#CAC27E"/>
	<rect x="2081.96" y="1528.35" width="17.47" height="996.61" style="fill:none;stroke:#D7D29E;stroke-width:8.64"/>
	<rect x="2103.75" y="991.89" width="25.99" height="1537.39" style="fill:#CAC27E"/>
	<rect x="2108.07" y="996.21" width="17.35" height="1528.75" style="fill:none;stroke:#D7D29E;stroke-width:8.64"/>
	<rect x="2129.74" y="991.89" width="25.99" height="1537.39" style="fill:#CAC27E"/>
	<rect x="2134.06" y="996.21" width="17.35" height="1528.75" style="fill:none;stroke:#D7D29E;stroke-width:8.64"/>
	<rect x="2155.72" y="873.70" width="26.11" height="1655.58" style="fill:#CAC27E"/>
	<rect x="2160.04" y="878.02" width="17.47" height="1646.94" style="fill:none;stroke:#D7D29E;stroke-width:8.64"/>
	<rect x="2181.84" y="1405.84" width="25.99" height="1123.44" style="fill:#CAC27E"/>
	<rect x="2186.16" y="1410.16" width="17.35" height="1114.80" style="fill:none;stroke:#D7D29E;stroke-width:8.64"/>
	<rect x="2207.82" y="1346.69" width="25.99" height="1182.59" style="fill:#CAC27E"/>
	<rect x="2212.14" y="1351.01" width="17.35" height="1173.95" style="fill:none;stroke:#D7D29E;stroke-width:8.64"/>
	<rect x="2233.81" y="1405.84" width="26.11" height="1123.44" style="fill:#CAC27E"/>
	<rect x="2238.13" y="1410.16" width="17.47" height="1114.80" style="fill:none;stroke:#D7D29E;stroke-width:8.64"/>
	<rect x="2259.92" y="1228.50" width="25.99" height="1300.78" style="fill:#CAC27E"/>
	<rect x="2264.24" y="1232.82" width="17.35" height="1292.14" style="fill:none;stroke:#D7D29E;stroke-width:8.64"/>
	<rect x="2285.91" y="1169.35" width="26.11" height="1359.93" style="fill:#CAC27E"/>
	<rect x="2290.23" y="1173.67" width="17.47" height="1351.29" style="fill:none;stroke:#D7D29E;stroke-width:8.64"/>
	<rect x="2312.02" y="1819.68" width="25.99" height="709.60" style="fill:#CAC27E"/>
	<rect x="2316.34" y="1824.00" width="17.35" height="700.96" style="fill:none;stroke:#D7D29E;stroke-width:8.64"/>
	<rect x="2338.01" y="1405.84" width="25.99" height="1123.44" style="fill:#CAC27E"/>
	<rect x="2342.33" y="1410.16" width="17.35" height="1114.80" style="fill:none;stroke:#D7D29E;stroke-width:8.64"/>
	<rect x="2364.00" y="1760.65" width="26.11" height="768.64" style="fill:#CAC27E"/>
	<rect x="2368.32" y="1764.97" width="17.47" height="760.00" style="fill:none;stroke:#D7D29E;stroke-width:8.64"/>
	<rect x="2390.11" y="1465.00" width="25.99" height="1064.28" style="fill:#CAC27E"/>
	<rect x="2394.43" y="1469.32" width="17.35" height="1055.64" style="fill:none;stroke:#D7D29E;stroke-width:8.64"/>
	<rect x="2416.09" y="1346.69" width="25.99" height="1182.59" style="fill:#CAC27E"/>
	<rect x="2420.41" y="1351.01" width="17.35" height="1173.95" style="fill:none;stroke:#D7D29E;stroke-width:8.64"/>
	<rect x="2442.08" y="1465.00" width="26.11" height="1064.28" style="fill:#CAC27E"/>
	<rect x="2446.40" y="1469.32" width="17.47" height="1055.64" style="fill:none;stroke:#D7D29E;stroke-width:8.64"/>
	<rect x="2468.19" y="1524.03" width="25.99" height="1005.25" style="fill:#CAC27E"/>
	<rect x="2472.51" y="1528.35" width="17.35" height="996.61" style="fill:none;stroke:#D7D29E;stroke-width:8.64"/>
	<rect x="2494.18" y="1228.50" width="25.99" height="1300.78" style="fill:#CAC27E"/>
	<rect x="2498.50" y="1232.82" width="17.35" height="1292.14" style="fill:none;stroke:#D7D29E;stroke-width:8.64"/>
	<rect x="2520.17" y="1405.84" width="26.11" height="1123.44" style="fill:#CAC27E"/>
	<rect x="2524.49" y="1410.16" width="17.47" height="1114.80" style="fill:none;stroke:#D7D29E;stroke-width:8.64"/>
	<rect x="2546.28" y="1405.84" width="25.99" height="1123.44" style="fill:#CAC27E"/>
	<rect x="2550.60" y="1410.16" width="17.35" height="1114.80" style="fill:none;stroke:#D7D29E;stroke-width:8.64"/>
	<rect x="2572.27" y="1287.54" width="25.99" height="1241.75" style="fill:#CAC27E"/>
	<rect x="2576.59" y="1291.86" width="17.35" height="1233.11" style="fill:none;stroke:#D7D29E;stroke-width:8.64"/>
	<rect x="2598.26" y="2056.29" width="26.11" height="472.99" style="fill:#CAC27E"/>
	<rect x="2602.57" y="2060.61" width="17.47" height="464.35" style="fill:none;stroke:#D7D29E;stroke-width:8.64"/>
	<rect x="2624.37" y="1819.68" width="25.99" height="709.60" style="fill:#CAC27E"/>
	<rect x="2628.69" y="1824.00" width="17.35" height="700.96" style="fill:none;stroke:#D7D29E;stroke-width:8.64"/>
	<rect x="2650.35" y="1287.54" width="25.99" height="1241.75" style="fill:#CAC27E"/>
	<rect x="2654.67" y="1291.86" width="17.35" height="1233.11" style="fill:none;stroke:#D7D29E;stroke-width:8.64"/>
	<rect x="2676.34" y="1287.54" width="26.11" height="1241.75" style="fill:#CAC27E"/>
	<rect x="2680.66" y="1291.86" width="17.47" height="1233.11" style="fill:none;stroke:#D7D29E;stroke-width:8.64"/>
	<rect x="2702.45" y="1583.18" width="25.99" height="946.10" style="fill:#CAC27E"/>
	<rect x="2706.77" y="1587.50" width="17.35" height="937.46" style="fill:none;stroke:#D7D29E;stroke-width:8.64"/>
	<rect x="2728.44" y="1583.18" width="25.99" height="946.10" style="fill:#CAC27E"/>
	<rect x="2732.76" y="1587.50" width="17.35" height="937.46" style="fill:none;stroke:#D7D29E;stroke-width:8.64"/>
	<rect x="2754.43" y="1642.34" width="26.11" height="886.94" style="fill:#CAC27E"/>
	<rect x="2758.75" y="1646.66" width="17.47" height="878.30" style="fill:none;stroke:#D7D29E;stroke-width:8.64"/>
	<rect x="2780.54" y="1583.18" width="25.99" height="946.10" style="fill:#CAC27E"/>
	<rect x="2784.86" y="1587.50" width="17.35" height="937.46" style="fill:none;stroke:#D7D29E;stroke-width:8.64"/>
	<rect x="2806.53" y="1819.68" width="26.11" height="709.60" style="fill:#CAC27E"/>
	<rect x="2810.85" y="1824.00" width="17.47" height="700.96" style="fill:none;stroke:#D7D29E;stroke-width:8.64"/>
	<rect x="2832.64" y="1937.99" width="25.99" height="591.30" style="fill:#CAC27E"/>
	<rect x="2836.96" y="1942.31" width="17.35" height="582.66" style="fill:none;stroke:#D7D29E;stroke-width:8.64"/>
	<rect x="2858.63" y="1997.14" width="25.99" height="532.14" style="fill:#CAC27E"/>
	<rect x="2862.94" y="2001.46" width="17.35" height="523.50" style="fill:none;stroke:#D7D29E;stroke-width:8.64"/>
	<rect x="2884.61" y="1819.68" width="26.11" height="709.60" style="fill:#CAC27E"/>
	<rect x="2888.93" y="1824.00" width="17.47" height="700.96" style="fill:none;stroke:#D7D29E;stroke-width:8.64"/>
	<rect x="2910.72" y="1287.54" width="25.99" height="1241.75" style="fill:#CAC27E"/>
	<rect x="2915.04" y="1291.86" width="17.35" height="1233.11" style="fill:none;stroke:#D7D29E;stroke-width:8.64"/>
	<rect x="2936.71" y="1701.49" width="25.99" height="827.79" style="fill:#CAC27E"/>
	<rect x="2941.03" y="1705.81" width="17.35" height="819.15" style="fill:none;stroke:#D7D29E;stroke-width:8.64"/>
	<rect x="2962.70" y="1583.18" width="26.11" height="946.10" style="fill:#CAC27E"/>
	<rect x="2967.02" y="1587.50" width="17.47" height="937.46" style="fill:none;stroke:#D7D29E;stroke-width:8.64"/>
	<rect x="2988.81" y="1937.99" width="25.99" height="591.30" style="fill:#CAC27E"/>
	<rect x="2993.13" y="1942.31" width="17.35" height="582.66" style="fill:none;stroke:#D7D29E;stroke-width:8.64"/>
	<rect x="3014.80" y="1228.50" width="25.99" height="1300.78" style="fill:#CAC27E"/>
	<rect x="3019.12" y="1232.82" width="17.35" height="1292.14" style="fill:none;stroke:#D7D29E;stroke-width:8.64"/>
	<rect x="3040.78" y="1997.14" width="26.11" height="532.14" style="fill:#CAC27E"/>
	<rect x="3045.10" y="2001.46" width="17.47" height="523.50" style="fill:none;stroke:#D7D29E;stroke-width:8.64"/>
	<rect x="3066.90" y="1405.84" width="25.99" height="1123.44" style="fill:#CAC27E"/>
	<rect x="3071.22" y="1410.16" width="17.35" height="1114.80" style="fill:none;stroke:#D7D29E;stroke-width:8.64"/>
	<rect x="3092.88" y="2056.29" width="25.99" height="472.99" style="fill:#CAC27E"/>
	<rect x="3097.20" y="2060.61" width="17.35" height="464.35" style="fill:none;stroke:#D7D29E;stroke-width:8.64"/>
	<rect x="3118.87" y="1583.18" width="26.11" height="946.10" style="fill:#CAC27E"/>
	<rect x="3123.19" y="1587.50" width="17.47" height="937.46" style="fill:none;stroke:#D7D29E;stroke-width:8.64"/>
	<rect x="3144.98" y="1878.83" width="25.99" height="650.45" style="fill:#CAC27E"/>
	<rect x="3149.30" y="1883.15" width="17.35" height="641.81" style="fill:none;stroke:#D7D29E;stroke-width:8.64"/>
	<rect x="3170.97" y="1878.83" width="25.99" height="650.45" style="fill:#CAC27E"/>
	<rect x="3175.29" y="1883.15" width="17.35" height="641.81" style="fill:none;stroke:#D7D29E;stroke-width:8.64"/>
	<rect x="3196.96" y="1997.14" width="26.11" height="532.14" style="fill:#CAC27E"/>
	<rect x="3201.28" y="2001.46" width="17.47" height="523.50" style="fill:none;stroke:#D7D29E;stroke-width:8.64"/>
	<rect x="3223.07" y="1583.18" width="25.99" height="946.10" style="fill:#CAC27E"/>
	<rect x="3227.39" y="1587.50" width="17.35" height="937.46" style="fill:none;stroke:#D7D29E;stroke-width:8.64"/>
	<rect x="3249.06" y="1642.34" width="25.99" height="886.94" style="fill:#CAC27E"/>
	<rect x="3253.38" y="1646.66" width="17.35" height="878.30" style="fill:none;stroke:#D7D29E;stroke-width:8.64"/>
	<rect x="3275.04" y="1819.68" width="26.11" height="709.60" style="fill:#CAC27E"/>
	<rect x="3279.36" y="1824.00" width="17.47" height="700.96" style="fill:none;stroke:#D7D29E;stroke-width:8.64"/>
	<rect x="3301.16" y="1701.49" width="25.99" height="827.79" style="fill:#CAC27E"/>
	<rect x="3305.47" y="1705.81" width="17.35" height="819.15" style="fill:none;stroke:#D7D29E;stroke-width:8.64"/>
	<rect x="3327.14" y="1465.00" width="26.11" height="1064.28" style="fill:#CAC27E"/>
	<rect x="3331.46" y="1469.32" width="17.47" height="1055.64" style="fill:none;stroke:#D7D29E;stroke-width:8.64"/>
	<rect x="3353.25" y="1997.14" width="25.99" height="532.14" style="fill:#CAC27E"/>
	<rect x="3357.57" y="2001.46" width="17.35" height="523.50" style="fill:none;stroke:#D7D29E;stroke-width:8.64"/>
	<rect x="3379.24" y="2056.29" width="25.99" height="472.99" style="fill:#CAC27E"/>
	<rect x="3383.56" y="2060.61" width="17.35" height="464.35" style="fill:none;stroke:#D7D29E;stroke-width:8.64"/>
	<rect x="3405.23" y="1524.03" width="26.11" height="1005.25" style="fill:#CAC27E"/>
	<rect x="3409.55" y="1528.35" width="17.47" height="996.61" style="fill:none;stroke:#D7D29E;stroke-width:8.64"/>
	<rect x="3431.34" y="1701.49" width="25.99" height="827.79" style="fill:#CAC27E"/>
	<rect x="3435.66" y="1705.81" width="17.35" height="819.15" style="fill:none;stroke:#D7D29E;stroke-width:8.64"/>
	<rect x="3457.33" y="1878.83" width="25.99" height="650.45" style="fill:#CAC27E"/>
	<rect x="3461.65" y="1883.15" width="17.35" height="641.81" style="fill:none;stroke:#D7D29E;stroke-width:8.64"/>
	<rect x="3483.32" y="932.86" width="26.11" height="1596.42" style="fill:#CAC27E"/>
	<rect x="3487.63" y="937.18" width="17.47" height="1587.79" style="fill:none;stroke:#D7D29E;stroke-width:8.64"/>
	<rect x="3509.43" y="1760.65" width="25.99" height="768.64" style="fill:#CAC27E"/>
	<rect x="3513.75" y="1764.97" width="17.35" height="760.00" style="fill:none;stroke:#D7D29E;stroke-width:8.64"/>
	<rect x="3535.41" y="1760.65" width="25.99" height="768.64" style="fill:#CAC27E"/>
	<rect x="3539.73" y="1764.97" width="17.35" height="760.00" style="fill:none;stroke:#D7D29E;stroke-width:8.64"/>
	<rect x="3561.40" y="1819.68" width="26.11" height="709.60" style="fill:#CAC27E"/>
	<rect x="3565.72" y="1824.00" width="17.47" height="700.96" style="fill:none;stroke:#D7D29E;stroke-width:8.64"/>
	<rect x="3587.51" y="1819.68" width="25.99" height="709.60" style="fill:#CAC27E"/>
	<rect x="3591.83" y="1824.00" width="17.35" height="700.96" style="fill:none;stroke:#D7D29E;stroke-width:8.64"/>
	<rect x="3613.50" y="2056.29" width="25.99" height="472.99" style="fill:#CAC27E"/>
	<rect x="3617.82" y="2060.61" width="17.35" height="464.35" style="fill:none;stroke:#D7D29E;stroke-width:8.64"/>
	<rect x="3639.49" y="2056.29" width="26.11" height="472.99" style="fill:#CAC27E"/>
	<rect x="3643.81" y="2060.61" width="17.47" height="464.35" style="fill:none;stroke:#D7D29E;stroke-width:8.64"/>
	<rect x="3665.60" y="2115.32" width="25.99" height="413.96" style="fill:#CAC27E"/>
	<rect x="3669.92" y="2119.64" width="17.35" height="405.32" style="fill:none;stroke:#D7D29E;stroke-width:8.64"/>
	<rect x="3691.59" y="2410.97" width="25.99" height="118.31" style="fill:#CAC27E"/>
	<rect x="3695.91" y="2415.29" width="17.35" height="109.67" style="fill:none;stroke:#D7D29E;stroke-width:8.64"/>
	<rect x="3717.57" y="2410.97" width="26.11" height="118.31" style="fill:#CAC27E"/>
	<rect x="3721.89" y="2415.29" width="17.47" height="109.67" style="fill:none;stroke:#D7D29E;stroke-width:8.64"/>
	<rect x="3743.68" y="2470.13" width="25.99" height="59.15" style="fill:#CAC27E"/>
	<rect x="3748.00" y="2474.45" width="17.35" height="50.51" style="fill:none;stroke:#D7D29E;stroke-width:8.64"/>
	<rect x="3769.67" y="2470.13" width="25.99" height="59.15" style="fill:#CAC27E"/>
	<rect x="3773.99" y="2474.45" width="17.35" height="50.51" style="fill:none;stroke:#D7D29E;stroke-width:8.64"/>
	<line x1="387.34" y1="2529.28" x2="387.34" y2="100.86" style="stroke:#000000;stroke-width:5.76"/>
	<line x1="387.34" y1="2529.28" x2="347.37" y2="2529.28" style="stroke:#000000;stroke-width:5.76"/>
	<text x="327.44" y="2557.29" style="font-family:'Helvetica';font-size:79.94px;fill:#000000" text-anchor="end">0</text>
	<line x1="387.34" y1="1937.99" x2="347.37" y2="1937.99" style="stroke:#000000;stroke-width:5.76"/>
	<text x="327.44" y="1966.00" style="font-family:'Helvetica';font-size:79.94px;fill:#000000" text-anchor="end">10</text>
	<line x1="387.34" y1="1346.69" x2="347.37" y2="1346.69" style="stroke:#000000;stroke-width:5.76"/>
	<text x="327.44" y="1374.70" style="font-family:'Helvetica';font-size:79.94px;fill:#000000" text-anchor="end">20</text>
	<line x1="387.34" y1="755.39" x2="347.37" y2="755.39" style="stroke:#000000;stroke-width:5.76"/>
	<text x="327.44" y="783.41" style="font-family:'Helvetica';font-size:79.94px;fill:#000000" text-anchor="end">30</text>
	<line x1="387.34" y1="164.22" x2="347.37" y2="164.22" style="stroke:#000000;stroke-width:5.76"/>
	<text x="327.44" y="192.23" style="font-family:'Helvetica';font-size:79.94px;fill:#000000" text-anchor="end">40</text>
	<text x="176.68" y="1315.01" style="font-family:'Helvetica';font-size:79.94px;fill:#000000" transform="rotate(-90 176.68,1315.01)" text-anchor="middle">Number of ONS deaths</text>
	<line x1="387.34" y1="2529.28" x2="3859.02" y2="2529.28" style="stroke:#000000;stroke-width:5.76"/>
	<line x1="476.81" y1="2529.28" x2="476.81" y2="2569.25" style="stroke:#000000;stroke-width:5.76"/>
	<text x="476.81" y="2645.20" style="font-family:'Helvetica';font-size:79.94px;fill:#000000" text-anchor="middle">01mar2020</text>
	<line x1="1283.78" y1="2529.28" x2="1283.78" y2="2569.25" style="stroke:#000000;stroke-width:5.76"/>
	<text x="1283.78" y="2645.20" style="font-family:'Helvetica';font-size:79.94px;fill:#000000" text-anchor="middle">01apr2020</text>
	<line x1="2064.64" y1="2529.28" x2="2064.64" y2="2569.25" style="stroke:#000000;stroke-width:5.76"/>
	<text x="2064.64" y="2645.20" style="font-family:'Helvetica';font-size:79.94px;fill:#000000" text-anchor="middle">01may2020</text>
	<line x1="2871.62" y1="2529.28" x2="2871.62" y2="2569.25" style="stroke:#000000;stroke-width:5.76"/>
	<text x="2871.62" y="2645.20" style="font-family:'Helvetica';font-size:79.94px;fill:#000000" text-anchor="middle">01jun2020</text>
	<line x1="3652.61" y1="2529.28" x2="3652.61" y2="2569.25" style="stroke:#000000;stroke-width:5.76"/>
	<text x="3652.61" y="2645.20" style="font-family:'Helvetica';font-size:79.94px;fill:#000000" text-anchor="middle">01jul2020</text>
	<text x="2123.18" y="2735.17" style="font-family:'Helvetica';font-size:79.94px;fill:#000000" text-anchor="middle">Date</text>
</svg>
