<?xml version="1.0" encoding="UTF-8" standalone="no"?>
<!-- This is a Stata 16.1 generated SVG file (http://www.stata.com) -->

<svg version="1.1" width="5.50in" height="4.00in" viewBox="0 0 3960 2880" xmlns="http://www.w3.org/2000/svg" xmlns:xlink="http://www.w3.org/1999/xlink">
	<desc>Stata Graph - Graph</desc>
	<rect x="0" y="0" width="3960" height="2880" style="fill:#EAF2F3;stroke:none"/>
	<rect x="0.00" y="0.00" width="3959.88" height="2880.00" style="fill:#EAF2F3"/>
	<rect x="2.88" y="2.88" width="3954.12" height="2874.24" style="fill:none;stroke:#EAF2F3;stroke-width:5.76"/>
	<rect x="387.34" y="100.86" width="3471.68" height="2428.42" style="fill:#FFFFFF"/>
	<rect x="390.22" y="103.74" width="3465.92" height="2422.66" style="fill:none;stroke:#FFFFFF;stroke-width:5.76"/>
	<line x1="387.34" y1="2529.28" x2="3859.02" y2="2529.28" style="stroke:#EAF2F3;stroke-width:5.76"/>
	<line x1="387.34" y1="1740.85" x2="3859.02" y2="1740.85" style="stroke:#EAF2F3;stroke-width:5.76"/>
	<line x1="387.34" y1="952.53" x2="3859.02" y2="952.53" style="stroke:#EAF2F3;stroke-width:5.76"/>
	<line x1="387.34" y1="164.22" x2="3859.02" y2="164.22" style="stroke:#EAF2F3;stroke-width:5.76"/>
	<line x1="461.34" y1="2529.28" x2="461.34" y2="100.86" style="stroke:#EAF2F3;stroke-width:5.76"/>
	<line x1="1115.48" y1="2529.28" x2="1115.48" y2="100.86" style="stroke:#EAF2F3;stroke-width:5.76"/>
	<line x1="1748.59" y1="2529.28" x2="1748.59" y2="100.86" style="stroke:#EAF2F3;stroke-width:5.76"/>
	<line x1="2402.85" y1="2529.28" x2="2402.85" y2="100.86" style="stroke:#EAF2F3;stroke-width:5.76"/>
	<line x1="3035.96" y1="2529.28" x2="3035.96" y2="100.86" style="stroke:#EAF2F3;stroke-width:5.76"/>
	<line x1="3690.22" y1="2529.28" x2="3690.22" y2="100.86" style="stroke:#EAF2F3;stroke-width:5.76"/>
	<rect x="461.34" y="2332.14" width="21.04" height="197.14" style="fill:#CAC27E"/>
	<rect x="465.66" y="2336.46" width="12.40" height="188.50" style="fill:none;stroke:#D7D29E;stroke-width:8.64"/>
	<rect x="630.13" y="2489.80" width="21.16" height="39.48" style="fill:#CAC27E"/>
	<rect x="634.45" y="2494.12" width="12.52" height="30.84" style="fill:none;stroke:#D7D29E;stroke-width:8.64"/>
	<rect x="672.33" y="2489.80" width="21.16" height="39.48" style="fill:#CAC27E"/>
	<rect x="676.65" y="2494.12" width="12.52" height="30.84" style="fill:none;stroke:#D7D29E;stroke-width:8.64"/>
	<rect x="714.53" y="2450.45" width="21.16" height="78.83" style="fill:#CAC27E"/>
	<rect x="718.85" y="2454.77" width="12.52" height="70.19" style="fill:none;stroke:#D7D29E;stroke-width:8.64"/>
	<rect x="777.89" y="2371.62" width="21.04" height="157.66" style="fill:#CAC27E"/>
	<rect x="782.21" y="2375.94" width="12.40" height="149.02" style="fill:none;stroke:#D7D29E;stroke-width:8.64"/>
	<rect x="798.93" y="2371.62" width="21.16" height="157.66" style="fill:#CAC27E"/>
	<rect x="803.25" y="2375.94" width="12.52" height="149.02" style="fill:none;stroke:#D7D29E;stroke-width:8.64"/>
	<rect x="820.09" y="2450.45" width="21.04" height="78.83" style="fill:#CAC27E"/>
	<rect x="824.41" y="2454.77" width="12.40" height="70.19" style="fill:none;stroke:#D7D29E;stroke-width:8.64"/>
	<rect x="841.13" y="2332.14" width="21.16" height="197.14" style="fill:#CAC27E"/>
	<rect x="845.45" y="2336.46" width="12.52" height="188.50" style="fill:none;stroke:#D7D29E;stroke-width:8.64"/>
	<rect x="862.29" y="2332.14" width="21.04" height="197.14" style="fill:#CAC27E"/>
	<rect x="866.61" y="2336.46" width="12.40" height="188.50" style="fill:none;stroke:#D7D29E;stroke-width:8.64"/>
	<rect x="883.33" y="2450.45" width="21.16" height="78.83" style="fill:#CAC27E"/>
	<rect x="887.65" y="2454.77" width="12.52" height="70.19" style="fill:none;stroke:#D7D29E;stroke-width:8.64"/>
	<rect x="904.49" y="2371.62" width="21.16" height="157.66" style="fill:#CAC27E"/>
	<rect x="908.81" y="2375.94" width="12.52" height="149.02" style="fill:none;stroke:#D7D29E;stroke-width:8.64"/>
	<rect x="925.65" y="2213.96" width="21.04" height="315.32" style="fill:#CAC27E"/>
	<rect x="929.97" y="2218.28" width="12.40" height="306.69" style="fill:none;stroke:#D7D29E;stroke-width:8.64"/>
	<rect x="946.69" y="2135.13" width="21.16" height="394.16" style="fill:#CAC27E"/>
	<rect x="951.01" y="2139.45" width="12.52" height="385.52" style="fill:none;stroke:#D7D29E;stroke-width:8.64"/>
	<rect x="967.85" y="2135.13" width="21.04" height="394.16" style="fill:#CAC27E"/>
	<rect x="972.17" y="2139.45" width="12.40" height="385.52" style="fill:none;stroke:#D7D29E;stroke-width:8.64"/>
	<rect x="988.89" y="2135.13" width="21.16" height="394.16" style="fill:#CAC27E"/>
	<rect x="993.21" y="2139.45" width="12.52" height="385.52" style="fill:none;stroke:#D7D29E;stroke-width:8.64"/>
	<rect x="1010.05" y="2253.31" width="21.04" height="275.97" style="fill:#CAC27E"/>
	<rect x="1014.37" y="2257.63" width="12.40" height="267.33" style="fill:none;stroke:#D7D29E;stroke-width:8.64"/>
	<rect x="1031.09" y="2292.79" width="21.16" height="236.49" style="fill:#CAC27E"/>
	<rect x="1035.40" y="2297.11" width="12.52" height="227.85" style="fill:none;stroke:#D7D29E;stroke-width:8.64"/>
	<rect x="1052.25" y="2174.48" width="21.04" height="354.80" style="fill:#CAC27E"/>
	<rect x="1056.57" y="2178.80" width="12.40" height="346.16" style="fill:none;stroke:#D7D29E;stroke-width:8.64"/>
	<rect x="1073.28" y="1780.32" width="21.16" height="748.96" style="fill:#CAC27E"/>
	<rect x="1077.60" y="1784.64" width="12.52" height="740.32" style="fill:none;stroke:#D7D29E;stroke-width:8.64"/>
	<rect x="1094.44" y="1780.32" width="21.04" height="748.96" style="fill:#CAC27E"/>
	<rect x="1098.76" y="1784.64" width="12.40" height="740.32" style="fill:none;stroke:#D7D29E;stroke-width:8.64"/>
	<rect x="1115.48" y="1189.03" width="21.16" height="1340.25" style="fill:#CAC27E"/>
	<rect x="1119.80" y="1193.35" width="12.52" height="1331.61" style="fill:none;stroke:#D7D29E;stroke-width:8.64"/>
	<rect x="1136.64" y="1622.66" width="21.04" height="906.62" style="fill:#CAC27E"/>
	<rect x="1140.96" y="1626.98" width="12.40" height="897.98" style="fill:none;stroke:#D7D29E;stroke-width:8.64"/>
	<rect x="1157.68" y="1267.86" width="21.16" height="1261.42" style="fill:#CAC27E"/>
	<rect x="1162.00" y="1272.18" width="12.52" height="1252.78" style="fill:none;stroke:#D7D29E;stroke-width:8.64"/>
	<rect x="1178.84" y="2253.31" width="21.04" height="275.97" style="fill:#CAC27E"/>
	<rect x="1183.16" y="2257.63" width="12.40" height="267.33" style="fill:none;stroke:#D7D29E;stroke-width:8.64"/>
	<rect x="1199.88" y="2174.48" width="21.16" height="354.80" style="fill:#CAC27E"/>
	<rect x="1204.20" y="2178.80" width="12.52" height="346.16" style="fill:none;stroke:#D7D29E;stroke-width:8.64"/>
	<rect x="1221.04" y="1465.00" width="21.16" height="1064.28" style="fill:#CAC27E"/>
	<rect x="1225.36" y="1469.32" width="12.52" height="1055.64" style="fill:none;stroke:#D7D29E;stroke-width:8.64"/>
	<rect x="1242.20" y="2016.82" width="21.04" height="512.46" style="fill:#CAC27E"/>
	<rect x="1246.52" y="2021.14" width="12.40" height="503.83" style="fill:none;stroke:#D7D29E;stroke-width:8.64"/>
	<rect x="1263.24" y="1701.49" width="21.16" height="827.79" style="fill:#CAC27E"/>
	<rect x="1267.56" y="1705.81" width="12.52" height="819.15" style="fill:none;stroke:#D7D29E;stroke-width:8.64"/>
	<rect x="1284.40" y="1780.32" width="21.04" height="748.96" style="fill:#CAC27E"/>
	<rect x="1288.72" y="1784.64" width="12.40" height="740.32" style="fill:none;stroke:#D7D29E;stroke-width:8.64"/>
	<rect x="1305.44" y="1977.34" width="21.16" height="551.94" style="fill:#CAC27E"/>
	<rect x="1309.76" y="1981.66" width="12.52" height="543.30" style="fill:none;stroke:#D7D29E;stroke-width:8.64"/>
	<rect x="1326.60" y="2253.31" width="21.04" height="275.97" style="fill:#CAC27E"/>
	<rect x="1330.92" y="2257.63" width="12.40" height="267.33" style="fill:none;stroke:#D7D29E;stroke-width:8.64"/>
	<rect x="1347.64" y="2174.48" width="21.16" height="354.80" style="fill:#CAC27E"/>
	<rect x="1351.96" y="2178.80" width="12.52" height="346.16" style="fill:none;stroke:#D7D29E;stroke-width:8.64"/>
	<rect x="1368.80" y="1937.99" width="21.04" height="591.30" style="fill:#CAC27E"/>
	<rect x="1373.12" y="1942.31" width="12.40" height="582.66" style="fill:none;stroke:#D7D29E;stroke-width:8.64"/>
	<rect x="1389.84" y="321.88" width="21.16" height="2207.40" style="fill:#CAC27E"/>
	<rect x="1394.16" y="326.20" width="12.52" height="2198.76" style="fill:none;stroke:#D7D29E;stroke-width:8.64"/>
	<rect x="1411.00" y="1189.03" width="21.04" height="1340.25" style="fill:#CAC27E"/>
	<rect x="1415.32" y="1193.35" width="12.40" height="1331.61" style="fill:none;stroke:#D7D29E;stroke-width:8.64"/>
	<rect x="1432.04" y="1859.15" width="21.16" height="670.13" style="fill:#CAC27E"/>
	<rect x="1436.35" y="1863.47" width="12.52" height="661.49" style="fill:none;stroke:#D7D29E;stroke-width:8.64"/>
	<rect x="1453.20" y="282.41" width="21.04" height="2246.88" style="fill:#CAC27E"/>
	<rect x="1457.52" y="286.73" width="12.40" height="2238.24" style="fill:none;stroke:#D7D29E;stroke-width:8.64"/>
	<rect x="1474.23" y="2292.79" width="21.16" height="236.49" style="fill:#CAC27E"/>
	<rect x="1478.55" y="2297.11" width="12.52" height="227.85" style="fill:none;stroke:#D7D29E;stroke-width:8.64"/>
	<rect x="1495.39" y="2174.48" width="21.16" height="354.80" style="fill:#CAC27E"/>
	<rect x="1499.71" y="2178.80" width="12.52" height="346.16" style="fill:none;stroke:#D7D29E;stroke-width:8.64"/>
	<rect x="1516.56" y="913.06" width="21.04" height="1616.23" style="fill:#CAC27E"/>
	<rect x="1520.88" y="917.38" width="12.40" height="1607.59" style="fill:none;stroke:#D7D29E;stroke-width:8.64"/>
	<rect x="1537.59" y="1662.01" width="21.16" height="867.27" style="fill:#CAC27E"/>
	<rect x="1541.91" y="1666.33" width="12.52" height="858.63" style="fill:none;stroke:#D7D29E;stroke-width:8.64"/>
	<rect x="1558.76" y="2174.48" width="21.04" height="354.80" style="fill:#CAC27E"/>
	<rect x="1563.07" y="2178.80" width="12.40" height="346.16" style="fill:none;stroke:#D7D29E;stroke-width:8.64"/>
	<rect x="1579.79" y="1662.01" width="21.16" height="867.27" style="fill:#CAC27E"/>
	<rect x="1584.11" y="1666.33" width="12.52" height="858.63" style="fill:none;stroke:#D7D29E;stroke-width:8.64"/>
	<rect x="1600.95" y="2016.82" width="21.04" height="512.46" style="fill:#CAC27E"/>
	<rect x="1605.27" y="2021.14" width="12.40" height="503.83" style="fill:none;stroke:#D7D29E;stroke-width:8.64"/>
	<rect x="1621.99" y="2174.48" width="21.16" height="354.80" style="fill:#CAC27E"/>
	<rect x="1626.31" y="2178.80" width="12.52" height="346.16" style="fill:none;stroke:#D7D29E;stroke-width:8.64"/>
	<rect x="1643.15" y="2332.14" width="21.04" height="197.14" style="fill:#CAC27E"/>
	<rect x="1647.47" y="2336.46" width="12.40" height="188.50" style="fill:none;stroke:#D7D29E;stroke-width:8.64"/>
	<rect x="1664.19" y="1031.36" width="21.16" height="1497.92" style="fill:#CAC27E"/>
	<rect x="1668.51" y="1035.68" width="12.52" height="1489.28" style="fill:none;stroke:#D7D29E;stroke-width:8.64"/>
	<rect x="1685.35" y="479.55" width="21.04" height="2049.74" style="fill:#CAC27E"/>
	<rect x="1689.67" y="483.87" width="12.40" height="2041.10" style="fill:none;stroke:#D7D29E;stroke-width:8.64"/>
	<rect x="1706.39" y="1780.32" width="21.16" height="748.96" style="fill:#CAC27E"/>
	<rect x="1710.71" y="1784.64" width="12.52" height="740.32" style="fill:none;stroke:#D7D29E;stroke-width:8.64"/>
	<rect x="1727.55" y="1425.52" width="21.04" height="1103.76" style="fill:#CAC27E"/>
	<rect x="1731.87" y="1429.84" width="12.40" height="1095.12" style="fill:none;stroke:#D7D29E;stroke-width:8.64"/>
	<rect x="1748.59" y="1583.18" width="21.16" height="946.10" style="fill:#CAC27E"/>
	<rect x="1752.91" y="1587.50" width="12.52" height="937.46" style="fill:none;stroke:#D7D29E;stroke-width:8.64"/>
	<rect x="1769.75" y="2292.79" width="21.16" height="236.49" style="fill:#CAC27E"/>
	<rect x="1774.07" y="2297.11" width="12.52" height="227.85" style="fill:none;stroke:#D7D29E;stroke-width:8.64"/>
	<rect x="1790.91" y="2410.97" width="21.04" height="118.31" style="fill:#CAC27E"/>
	<rect x="1795.23" y="2415.29" width="12.40" height="109.67" style="fill:none;stroke:#D7D29E;stroke-width:8.64"/>
	<rect x="1811.95" y="1740.85" width="21.16" height="788.44" style="fill:#CAC27E"/>
	<rect x="1816.27" y="1745.17" width="12.52" height="779.80" style="fill:none;stroke:#D7D29E;stroke-width:8.64"/>
	<rect x="1833.11" y="1543.83" width="21.04" height="985.45" style="fill:#CAC27E"/>
	<rect x="1837.43" y="1548.15" width="12.40" height="976.81" style="fill:none;stroke:#D7D29E;stroke-width:8.64"/>
	<rect x="1854.15" y="1937.99" width="21.16" height="591.30" style="fill:#CAC27E"/>
	<rect x="1858.47" y="1942.31" width="12.52" height="582.66" style="fill:none;stroke:#D7D29E;stroke-width:8.64"/>
	<rect x="1875.31" y="1701.49" width="21.04" height="827.79" style="fill:#CAC27E"/>
	<rect x="1879.63" y="1705.81" width="12.40" height="819.15" style="fill:none;stroke:#D7D29E;stroke-width:8.64"/>
	<rect x="1896.35" y="2056.29" width="21.16" height="472.99" style="fill:#CAC27E"/>
	<rect x="1900.66" y="2060.61" width="12.52" height="464.35" style="fill:none;stroke:#D7D29E;stroke-width:8.64"/>
	<rect x="1917.51" y="2332.14" width="21.04" height="197.14" style="fill:#CAC27E"/>
	<rect x="1921.83" y="2336.46" width="12.40" height="188.50" style="fill:none;stroke:#D7D29E;stroke-width:8.64"/>
	<rect x="1938.54" y="2371.62" width="21.16" height="157.66" style="fill:#CAC27E"/>
	<rect x="1942.86" y="2375.94" width="12.52" height="149.02" style="fill:none;stroke:#D7D29E;stroke-width:8.64"/>
	<rect x="1959.70" y="1740.85" width="21.04" height="788.44" style="fill:#CAC27E"/>
	<rect x="1964.02" y="1745.17" width="12.40" height="779.80" style="fill:none;stroke:#D7D29E;stroke-width:8.64"/>
	<rect x="1980.74" y="1859.15" width="21.16" height="670.13" style="fill:#CAC27E"/>
	<rect x="1985.06" y="1863.47" width="12.52" height="661.49" style="fill:none;stroke:#D7D29E;stroke-width:8.64"/>
	<rect x="2001.90" y="2056.29" width="21.04" height="472.99" style="fill:#CAC27E"/>
	<rect x="2006.22" y="2060.61" width="12.40" height="464.35" style="fill:none;stroke:#D7D29E;stroke-width:8.64"/>
	<rect x="2022.94" y="1583.18" width="21.16" height="946.10" style="fill:#CAC27E"/>
	<rect x="2027.26" y="1587.50" width="12.52" height="937.46" style="fill:none;stroke:#D7D29E;stroke-width:8.64"/>
	<rect x="2044.10" y="2135.13" width="21.04" height="394.16" style="fill:#CAC27E"/>
	<rect x="2048.42" y="2139.45" width="12.40" height="385.52" style="fill:none;stroke:#D7D29E;stroke-width:8.64"/>
	<rect x="2065.14" y="2410.97" width="21.16" height="118.31" style="fill:#CAC27E"/>
	<rect x="2069.46" y="2415.29" width="12.52" height="109.67" style="fill:none;stroke:#D7D29E;stroke-width:8.64"/>
	<rect x="2086.30" y="2332.14" width="21.16" height="197.14" style="fill:#CAC27E"/>
	<rect x="2090.62" y="2336.46" width="12.52" height="188.50" style="fill:none;stroke:#D7D29E;stroke-width:8.64"/>
	<rect x="2107.46" y="1386.17" width="21.04" height="1143.11" style="fill:#CAC27E"/>
	<rect x="2111.78" y="1390.49" width="12.40" height="1134.47" style="fill:none;stroke:#D7D29E;stroke-width:8.64"/>
	<rect x="2128.50" y="1622.66" width="21.16" height="906.62" style="fill:#CAC27E"/>
	<rect x="2132.82" y="1626.98" width="12.52" height="897.98" style="fill:none;stroke:#D7D29E;stroke-width:8.64"/>
	<rect x="2149.66" y="1859.15" width="21.04" height="670.13" style="fill:#CAC27E"/>
	<rect x="2153.98" y="1863.47" width="12.40" height="661.49" style="fill:none;stroke:#D7D29E;stroke-width:8.64"/>
	<rect x="2170.70" y="2095.65" width="21.16" height="433.63" style="fill:#CAC27E"/>
	<rect x="2175.02" y="2099.97" width="12.52" height="424.99" style="fill:none;stroke:#D7D29E;stroke-width:8.64"/>
	<rect x="2191.86" y="2174.48" width="21.04" height="354.80" style="fill:#CAC27E"/>
	<rect x="2196.18" y="2178.80" width="12.40" height="346.16" style="fill:none;stroke:#D7D29E;stroke-width:8.64"/>
	<rect x="2212.90" y="2450.45" width="21.16" height="78.83" style="fill:#CAC27E"/>
	<rect x="2217.22" y="2454.77" width="12.52" height="70.19" style="fill:none;stroke:#D7D29E;stroke-width:8.64"/>
	<rect x="2234.06" y="2450.45" width="21.04" height="78.83" style="fill:#CAC27E"/>
	<rect x="2238.38" y="2454.77" width="12.40" height="70.19" style="fill:none;stroke:#D7D29E;stroke-width:8.64"/>
	<rect x="2255.10" y="2489.80" width="21.16" height="39.48" style="fill:#CAC27E"/>
	<rect x="2259.42" y="2494.12" width="12.52" height="30.84" style="fill:none;stroke:#D7D29E;stroke-width:8.64"/>
	<rect x="2276.26" y="1898.51" width="21.04" height="630.77" style="fill:#CAC27E"/>
	<rect x="2280.58" y="1902.83" width="12.40" height="622.13" style="fill:none;stroke:#D7D29E;stroke-width:8.64"/>
	<rect x="2297.30" y="2332.14" width="21.16" height="197.14" style="fill:#CAC27E"/>
	<rect x="2301.61" y="2336.46" width="12.52" height="188.50" style="fill:none;stroke:#D7D29E;stroke-width:8.64"/>
	<rect x="2318.46" y="2332.14" width="21.04" height="197.14" style="fill:#CAC27E"/>
	<rect x="2322.78" y="2336.46" width="12.40" height="188.50" style="fill:none;stroke:#D7D29E;stroke-width:8.64"/>
	<rect x="2339.49" y="2135.13" width="21.16" height="394.16" style="fill:#CAC27E"/>
	<rect x="2343.81" y="2139.45" width="12.52" height="385.52" style="fill:none;stroke:#D7D29E;stroke-width:8.64"/>
	<rect x="2360.66" y="2371.62" width="21.16" height="157.66" style="fill:#CAC27E"/>
	<rect x="2364.97" y="2375.94" width="12.52" height="149.02" style="fill:none;stroke:#D7D29E;stroke-width:8.64"/>
	<rect x="2381.82" y="2292.79" width="21.04" height="236.49" style="fill:#CAC27E"/>
	<rect x="2386.14" y="2297.11" width="12.40" height="227.85" style="fill:none;stroke:#D7D29E;stroke-width:8.64"/>
	<rect x="2402.85" y="2292.79" width="21.16" height="236.49" style="fill:#CAC27E"/>
	<rect x="2407.17" y="2297.11" width="12.52" height="227.85" style="fill:none;stroke:#D7D29E;stroke-width:8.64"/>
	<rect x="2424.01" y="2135.13" width="21.04" height="394.16" style="fill:#CAC27E"/>
	<rect x="2428.33" y="2139.45" width="12.40" height="385.52" style="fill:none;stroke:#D7D29E;stroke-width:8.64"/>
	<rect x="2445.05" y="2213.96" width="21.16" height="315.32" style="fill:#CAC27E"/>
	<rect x="2449.37" y="2218.28" width="12.52" height="306.69" style="fill:none;stroke:#D7D29E;stroke-width:8.64"/>
	<rect x="2466.21" y="2095.65" width="21.04" height="433.63" style="fill:#CAC27E"/>
	<rect x="2470.53" y="2099.97" width="12.40" height="424.99" style="fill:none;stroke:#D7D29E;stroke-width:8.64"/>
	<rect x="2487.25" y="2410.97" width="21.16" height="118.31" style="fill:#CAC27E"/>
	<rect x="2491.57" y="2415.29" width="12.52" height="109.67" style="fill:none;stroke:#D7D29E;stroke-width:8.64"/>
	<rect x="2508.41" y="2332.14" width="21.04" height="197.14" style="fill:#CAC27E"/>
	<rect x="2512.73" y="2336.46" width="12.40" height="188.50" style="fill:none;stroke:#D7D29E;stroke-width:8.64"/>
	<rect x="2529.45" y="2371.62" width="21.16" height="157.66" style="fill:#CAC27E"/>
	<rect x="2533.77" y="2375.94" width="12.52" height="149.02" style="fill:none;stroke:#D7D29E;stroke-width:8.64"/>
	<rect x="2550.61" y="2292.79" width="21.04" height="236.49" style="fill:#CAC27E"/>
	<rect x="2554.93" y="2297.11" width="12.40" height="227.85" style="fill:none;stroke:#D7D29E;stroke-width:8.64"/>
	<rect x="2571.65" y="2174.48" width="21.16" height="354.80" style="fill:#CAC27E"/>
	<rect x="2575.97" y="2178.80" width="12.52" height="346.16" style="fill:none;stroke:#D7D29E;stroke-width:8.64"/>
	<rect x="2592.81" y="2016.82" width="21.04" height="512.46" style="fill:#CAC27E"/>
	<rect x="2597.13" y="2021.14" width="12.40" height="503.83" style="fill:none;stroke:#D7D29E;stroke-width:8.64"/>
	<rect x="2613.85" y="2174.48" width="21.16" height="354.80" style="fill:#CAC27E"/>
	<rect x="2618.17" y="2178.80" width="12.52" height="346.16" style="fill:none;stroke:#D7D29E;stroke-width:8.64"/>
	<rect x="2635.01" y="2332.14" width="21.16" height="197.14" style="fill:#CAC27E"/>
	<rect x="2639.33" y="2336.46" width="12.52" height="188.50" style="fill:none;stroke:#D7D29E;stroke-width:8.64"/>
	<rect x="2656.17" y="2371.62" width="21.04" height="157.66" style="fill:#CAC27E"/>
	<rect x="2660.49" y="2375.94" width="12.40" height="149.02" style="fill:none;stroke:#D7D29E;stroke-width:8.64"/>
	<rect x="2677.21" y="2332.14" width="21.16" height="197.14" style="fill:#CAC27E"/>
	<rect x="2681.53" y="2336.46" width="12.52" height="188.50" style="fill:none;stroke:#D7D29E;stroke-width:8.64"/>
	<rect x="2698.37" y="2213.96" width="21.04" height="315.32" style="fill:#CAC27E"/>
	<rect x="2702.69" y="2218.28" width="12.40" height="306.69" style="fill:none;stroke:#D7D29E;stroke-width:8.64"/>
	<rect x="2719.41" y="2332.14" width="21.16" height="197.14" style="fill:#CAC27E"/>
	<rect x="2723.73" y="2336.46" width="12.52" height="188.50" style="fill:none;stroke:#D7D29E;stroke-width:8.64"/>
	<rect x="2740.57" y="2450.45" width="21.04" height="78.83" style="fill:#CAC27E"/>
	<rect x="2744.89" y="2454.77" width="12.40" height="70.19" style="fill:none;stroke:#D7D29E;stroke-width:8.64"/>
	<rect x="2761.61" y="2292.79" width="21.16" height="236.49" style="fill:#CAC27E"/>
	<rect x="2765.92" y="2297.11" width="12.52" height="227.85" style="fill:none;stroke:#D7D29E;stroke-width:8.64"/>
	<rect x="2782.77" y="2253.31" width="21.04" height="275.97" style="fill:#CAC27E"/>
	<rect x="2787.09" y="2257.63" width="12.40" height="267.33" style="fill:none;stroke:#D7D29E;stroke-width:8.64"/>
	<rect x="2803.80" y="2410.97" width="21.16" height="118.31" style="fill:#CAC27E"/>
	<rect x="2808.12" y="2415.29" width="12.52" height="109.67" style="fill:none;stroke:#D7D29E;stroke-width:8.64"/>
	<rect x="2824.97" y="2410.97" width="21.04" height="118.31" style="fill:#CAC27E"/>
	<rect x="2829.28" y="2415.29" width="12.40" height="109.67" style="fill:none;stroke:#D7D29E;stroke-width:8.64"/>
	<rect x="2846.00" y="2292.79" width="21.16" height="236.49" style="fill:#CAC27E"/>
	<rect x="2850.32" y="2297.11" width="12.52" height="227.85" style="fill:none;stroke:#D7D29E;stroke-width:8.64"/>
	<rect x="2867.16" y="2332.14" width="21.04" height="197.14" style="fill:#CAC27E"/>
	<rect x="2871.48" y="2336.46" width="12.40" height="188.50" style="fill:none;stroke:#D7D29E;stroke-width:8.64"/>
	<rect x="2888.20" y="2332.14" width="21.16" height="197.14" style="fill:#CAC27E"/>
	<rect x="2892.52" y="2336.46" width="12.52" height="188.50" style="fill:none;stroke:#D7D29E;stroke-width:8.64"/>
	<rect x="2909.36" y="2410.97" width="21.04" height="118.31" style="fill:#CAC27E"/>
	<rect x="2913.68" y="2415.29" width="12.40" height="109.67" style="fill:none;stroke:#D7D29E;stroke-width:8.64"/>
	<rect x="2930.40" y="2489.80" width="21.16" height="39.48" style="fill:#CAC27E"/>
	<rect x="2934.72" y="2494.12" width="12.52" height="30.84" style="fill:none;stroke:#D7D29E;stroke-width:8.64"/>
	<rect x="2951.56" y="2450.45" width="21.16" height="78.83" style="fill:#CAC27E"/>
	<rect x="2955.88" y="2454.77" width="12.52" height="70.19" style="fill:none;stroke:#D7D29E;stroke-width:8.64"/>
	<rect x="2972.72" y="2450.45" width="21.04" height="78.83" style="fill:#CAC27E"/>
	<rect x="2977.04" y="2454.77" width="12.40" height="70.19" style="fill:none;stroke:#D7D29E;stroke-width:8.64"/>
	<rect x="2993.76" y="2450.45" width="21.16" height="78.83" style="fill:#CAC27E"/>
	<rect x="2998.08" y="2454.77" width="12.52" height="70.19" style="fill:none;stroke:#D7D29E;stroke-width:8.64"/>
	<rect x="3014.92" y="2292.79" width="21.04" height="236.49" style="fill:#CAC27E"/>
	<rect x="3019.24" y="2297.11" width="12.40" height="227.85" style="fill:none;stroke:#D7D29E;stroke-width:8.64"/>
	<rect x="3035.96" y="2410.97" width="21.16" height="118.31" style="fill:#CAC27E"/>
	<rect x="3040.28" y="2415.29" width="12.52" height="109.67" style="fill:none;stroke:#D7D29E;stroke-width:8.64"/>
	<rect x="3057.12" y="2371.62" width="21.04" height="157.66" style="fill:#CAC27E"/>
	<rect x="3061.44" y="2375.94" width="12.40" height="149.02" style="fill:none;stroke:#D7D29E;stroke-width:8.64"/>
	<rect x="3078.16" y="2253.31" width="21.16" height="275.97" style="fill:#CAC27E"/>
	<rect x="3082.48" y="2257.63" width="12.52" height="267.33" style="fill:none;stroke:#D7D29E;stroke-width:8.64"/>
	<rect x="3120.36" y="2450.45" width="21.16" height="78.83" style="fill:#CAC27E"/>
	<rect x="3124.68" y="2454.77" width="12.52" height="70.19" style="fill:none;stroke:#D7D29E;stroke-width:8.64"/>
	<rect x="3141.52" y="2410.97" width="21.04" height="118.31" style="fill:#CAC27E"/>
	<rect x="3145.84" y="2415.29" width="12.40" height="109.67" style="fill:none;stroke:#D7D29E;stroke-width:8.64"/>
	<rect x="3183.72" y="2371.62" width="21.04" height="157.66" style="fill:#CAC27E"/>
	<rect x="3188.04" y="2375.94" width="12.40" height="149.02" style="fill:none;stroke:#D7D29E;stroke-width:8.64"/>
	<rect x="3204.75" y="2450.45" width="21.16" height="78.83" style="fill:#CAC27E"/>
	<rect x="3209.07" y="2454.77" width="12.52" height="70.19" style="fill:none;stroke:#D7D29E;stroke-width:8.64"/>
	<rect x="3225.91" y="2410.97" width="21.16" height="118.31" style="fill:#CAC27E"/>
	<rect x="3230.23" y="2415.29" width="12.52" height="109.67" style="fill:none;stroke:#D7D29E;stroke-width:8.64"/>
	<rect x="3247.08" y="2450.45" width="21.04" height="78.83" style="fill:#CAC27E"/>
	<rect x="3251.40" y="2454.77" width="12.40" height="70.19" style="fill:none;stroke:#D7D29E;stroke-width:8.64"/>
	<rect x="3268.11" y="2489.80" width="21.16" height="39.48" style="fill:#CAC27E"/>
	<rect x="3272.43" y="2494.12" width="12.52" height="30.84" style="fill:none;stroke:#D7D29E;stroke-width:8.64"/>
	<rect x="3310.31" y="2292.79" width="21.16" height="236.49" style="fill:#CAC27E"/>
	<rect x="3314.63" y="2297.11" width="12.52" height="227.85" style="fill:none;stroke:#D7D29E;stroke-width:8.64"/>
	<rect x="3331.47" y="2489.80" width="21.04" height="39.48" style="fill:#CAC27E"/>
	<rect x="3335.79" y="2494.12" width="12.40" height="30.84" style="fill:none;stroke:#D7D29E;stroke-width:8.64"/>
	<rect x="3352.51" y="2450.45" width="21.16" height="78.83" style="fill:#CAC27E"/>
	<rect x="3356.83" y="2454.77" width="12.52" height="70.19" style="fill:none;stroke:#D7D29E;stroke-width:8.64"/>
	<rect x="3373.67" y="2410.97" width="21.04" height="118.31" style="fill:#CAC27E"/>
	<rect x="3377.99" y="2415.29" width="12.40" height="109.67" style="fill:none;stroke:#D7D29E;stroke-width:8.64"/>
	<rect x="3394.71" y="2489.80" width="21.16" height="39.48" style="fill:#CAC27E"/>
	<rect x="3399.03" y="2494.12" width="12.52" height="30.84" style="fill:none;stroke:#D7D29E;stroke-width:8.64"/>
	<rect x="3415.87" y="2450.45" width="21.04" height="78.83" style="fill:#CAC27E"/>
	<rect x="3420.19" y="2454.77" width="12.40" height="70.19" style="fill:none;stroke:#D7D29E;stroke-width:8.64"/>
	<rect x="3436.91" y="2450.45" width="21.16" height="78.83" style="fill:#CAC27E"/>
	<rect x="3441.23" y="2454.77" width="12.52" height="70.19" style="fill:none;stroke:#D7D29E;stroke-width:8.64"/>
	<rect x="3458.07" y="2450.45" width="21.04" height="78.83" style="fill:#CAC27E"/>
	<rect x="3462.39" y="2454.77" width="12.40" height="70.19" style="fill:none;stroke:#D7D29E;stroke-width:8.64"/>
	<rect x="3479.11" y="2489.80" width="21.16" height="39.48" style="fill:#CAC27E"/>
	<rect x="3483.43" y="2494.12" width="12.52" height="30.84" style="fill:none;stroke:#D7D29E;stroke-width:8.64"/>
	<rect x="3500.27" y="2410.97" width="21.16" height="118.31" style="fill:#CAC27E"/>
	<rect x="3504.59" y="2415.29" width="12.52" height="109.67" style="fill:none;stroke:#D7D29E;stroke-width:8.64"/>
	<rect x="3521.43" y="2410.97" width="21.04" height="118.31" style="fill:#CAC27E"/>
	<rect x="3525.75" y="2415.29" width="12.40" height="109.67" style="fill:none;stroke:#D7D29E;stroke-width:8.64"/>
	<rect x="3542.47" y="2450.45" width="21.16" height="78.83" style="fill:#CAC27E"/>
	<rect x="3546.79" y="2454.77" width="12.52" height="70.19" style="fill:none;stroke:#D7D29E;stroke-width:8.64"/>
	<rect x="3584.67" y="2450.45" width="21.16" height="78.83" style="fill:#CAC27E"/>
	<rect x="3588.99" y="2454.77" width="12.52" height="70.19" style="fill:none;stroke:#D7D29E;stroke-width:8.64"/>
	<rect x="3605.83" y="2410.97" width="21.04" height="118.31" style="fill:#CAC27E"/>
	<rect x="3610.15" y="2415.29" width="12.40" height="109.67" style="fill:none;stroke:#D7D29E;stroke-width:8.64"/>
	<rect x="3626.86" y="2489.80" width="21.16" height="39.48" style="fill:#CAC27E"/>
	<rect x="3631.18" y="2494.12" width="12.52" height="30.84" style="fill:none;stroke:#D7D29E;stroke-width:8.64"/>
	<rect x="3648.03" y="2371.62" width="21.04" height="157.66" style="fill:#CAC27E"/>
	<rect x="3652.35" y="2375.94" width="12.40" height="149.02" style="fill:none;stroke:#D7D29E;stroke-width:8.64"/>
	<rect x="3669.06" y="2410.97" width="21.16" height="118.31" style="fill:#CAC27E"/>
	<rect x="3673.38" y="2415.29" width="12.52" height="109.67" style="fill:none;stroke:#D7D29E;stroke-width:8.64"/>
	<rect x="3690.22" y="2489.80" width="21.04" height="39.48" style="fill:#CAC27E"/>
	<rect x="3694.54" y="2494.12" width="12.40" height="30.84" style="fill:none;stroke:#D7D29E;stroke-width:8.64"/>
	<rect x="3711.26" y="2371.62" width="21.16" height="157.66" style="fill:#CAC27E"/>
	<rect x="3715.58" y="2375.94" width="12.52" height="149.02" style="fill:none;stroke:#D7D29E;stroke-width:8.64"/>
	<rect x="3732.42" y="2450.45" width="21.04" height="78.83" style="fill:#CAC27E"/>
	<rect x="3736.74" y="2454.77" width="12.40" height="70.19" style="fill:none;stroke:#D7D29E;stroke-width:8.64"/>
	<rect x="3753.46" y="2410.97" width="21.16" height="118.31" style="fill:#CAC27E"/>
	<rect x="3757.78" y="2415.29" width="12.52" height="109.67" style="fill:none;stroke:#D7D29E;stroke-width:8.64"/>
	<rect x="3774.62" y="2450.45" width="21.04" height="78.83" style="fill:#CAC27E"/>
	<rect x="3778.94" y="2454.77" width="12.40" height="70.19" style="fill:none;stroke:#D7D29E;stroke-width:8.64"/>
	<line x1="387.34" y1="2529.28" x2="387.34" y2="100.86" style="stroke:#000000;stroke-width:5.76"/>
	<line x1="387.34" y1="2529.28" x2="347.37" y2="2529.28" style="stroke:#000000;stroke-width:5.76"/>
	<text x="327.44" y="2557.29" style="font-family:'Helvetica';font-size:79.94px;fill:#000000" text-anchor="end">0</text>
	<line x1="387.34" y1="1740.85" x2="347.37" y2="1740.85" style="stroke:#000000;stroke-width:5.76"/>
	<text x="327.44" y="1768.86" style="font-family:'Helvetica';font-size:79.94px;fill:#000000" text-anchor="end">20</text>
	<line x1="387.34" y1="952.53" x2="347.37" y2="952.53" style="stroke:#000000;stroke-width:5.76"/>
	<text x="327.44" y="980.55" style="font-family:'Helvetica';font-size:79.94px;fill:#000000" text-anchor="end">40</text>
	<line x1="387.34" y1="164.22" x2="347.37" y2="164.22" style="stroke:#000000;stroke-width:5.76"/>
	<text x="327.44" y="192.23" style="font-family:'Helvetica';font-size:79.94px;fill:#000000" text-anchor="end">60</text>
	<text x="176.68" y="1315.01" style="font-family:'Helvetica';font-size:79.94px;fill:#000000" transform="rotate(-90 176.68,1315.01)" text-anchor="middle">Number of primary care positives tests</text>
	<line x1="387.34" y1="2529.28" x2="3859.02" y2="2529.28" style="stroke:#000000;stroke-width:5.76"/>
	<line x1="461.34" y1="2529.28" x2="461.34" y2="2569.25" style="stroke:#000000;stroke-width:5.76"/>
	<text x="461.34" y="2645.20" style="font-family:'Helvetica';font-size:79.94px;fill:#000000" text-anchor="middle">01mar2020</text>
	<line x1="1115.48" y1="2529.28" x2="1115.48" y2="2569.25" style="stroke:#000000;stroke-width:5.76"/>
	<text x="1115.48" y="2645.20" style="font-family:'Helvetica';font-size:79.94px;fill:#000000" text-anchor="middle">01apr2020</text>
	<line x1="1748.59" y1="2529.28" x2="1748.59" y2="2569.25" style="stroke:#000000;stroke-width:5.76"/>
	<text x="1748.59" y="2645.20" style="font-family:'Helvetica';font-size:79.94px;fill:#000000" text-anchor="middle">01may2020</text>
	<line x1="2402.85" y1="2529.28" x2="2402.85" y2="2569.25" style="stroke:#000000;stroke-width:5.76"/>
	<text x="2402.85" y="2645.20" style="font-family:'Helvetica';font-size:79.94px;fill:#000000" text-anchor="middle">01jun2020</text>
	<line x1="3035.96" y1="2529.28" x2="3035.96" y2="2569.25" style="stroke:#000000;stroke-width:5.76"/>
	<text x="3035.96" y="2645.20" style="font-family:'Helvetica';font-size:79.94px;fill:#000000" text-anchor="middle">01jul2020</text>
	<line x1="3690.22" y1="2529.28" x2="3690.22" y2="2569.25" style="stroke:#000000;stroke-width:5.76"/>
	<text x="3690.22" y="2645.20" style="font-family:'Helvetica';font-size:79.94px;fill:#000000" text-anchor="middle">01aug2020</text>
	<text x="2123.18" y="2735.17" style="font-family:'Helvetica';font-size:79.94px;fill:#000000" text-anchor="middle">Date</text>
</svg>
