<?xml version="1.0" encoding="UTF-8" standalone="no"?>
<!-- This is a Stata 16.1 generated SVG file (http://www.stata.com) -->

<svg version="1.1" width="5.50in" height="4.00in" viewBox="0 0 3960 2880" xmlns="http://www.w3.org/2000/svg" xmlns:xlink="http://www.w3.org/1999/xlink">
	<desc>Stata Graph - Graph</desc>
	<rect x="0" y="0" width="3960" height="2880" style="fill:#EAF2F3;stroke:none"/>
	<rect x="0.00" y="0.00" width="3959.88" height="2880.00" style="fill:#EAF2F3"/>
	<rect x="2.88" y="2.88" width="3954.12" height="2874.24" style="fill:none;stroke:#EAF2F3;stroke-width:5.76"/>
	<rect x="387.34" y="100.86" width="3471.68" height="2428.42" style="fill:#FFFFFF"/>
	<rect x="390.22" y="103.74" width="3465.92" height="2422.66" style="fill:none;stroke:#FFFFFF;stroke-width:5.76"/>
	<line x1="387.34" y1="2529.28" x2="3859.02" y2="2529.28" style="stroke:#EAF2F3;stroke-width:5.76"/>
	<line x1="387.34" y1="1937.99" x2="3859.02" y2="1937.99" style="stroke:#EAF2F3;stroke-width:5.76"/>
	<line x1="387.34" y1="1346.69" x2="3859.02" y2="1346.69" style="stroke:#EAF2F3;stroke-width:5.76"/>
	<line x1="387.34" y1="755.39" x2="3859.02" y2="755.39" style="stroke:#EAF2F3;stroke-width:5.76"/>
	<line x1="387.34" y1="164.22" x2="3859.02" y2="164.22" style="stroke:#EAF2F3;stroke-width:5.76"/>
	<line x1="1109.17" y1="2529.28" x2="1109.17" y2="100.86" style="stroke:#EAF2F3;stroke-width:5.76"/>
	<line x1="1746.24" y1="2529.28" x2="1746.24" y2="100.86" style="stroke:#EAF2F3;stroke-width:5.76"/>
	<line x1="2404.59" y1="2529.28" x2="2404.59" y2="100.86" style="stroke:#EAF2F3;stroke-width:5.76"/>
	<line x1="3041.78" y1="2529.28" x2="3041.78" y2="100.86" style="stroke:#EAF2F3;stroke-width:5.76"/>
	<line x1="3700.13" y1="2529.28" x2="3700.13" y2="100.86" style="stroke:#EAF2F3;stroke-width:5.76"/>
	<rect x="482.63" y="2470.13" width="21.16" height="59.15" style="fill:#CAC27E"/>
	<rect x="486.94" y="2474.45" width="12.52" height="50.51" style="fill:none;stroke:#D7D29E;stroke-width:8.64"/>
	<rect x="546.36" y="2470.13" width="21.16" height="59.15" style="fill:#CAC27E"/>
	<rect x="550.68" y="2474.45" width="12.52" height="50.51" style="fill:none;stroke:#D7D29E;stroke-width:8.64"/>
	<rect x="652.53" y="2470.13" width="21.16" height="59.15" style="fill:#CAC27E"/>
	<rect x="656.85" y="2474.45" width="12.52" height="50.51" style="fill:none;stroke:#D7D29E;stroke-width:8.64"/>
	<rect x="673.70" y="2410.97" width="21.28" height="118.31" style="fill:#CAC27E"/>
	<rect x="678.01" y="2415.29" width="12.65" height="109.67" style="fill:none;stroke:#D7D29E;stroke-width:8.64"/>
	<rect x="694.98" y="2292.79" width="21.28" height="236.49" style="fill:#CAC27E"/>
	<rect x="699.30" y="2297.11" width="12.65" height="227.85" style="fill:none;stroke:#D7D29E;stroke-width:8.64"/>
	<rect x="716.26" y="2410.97" width="21.16" height="118.31" style="fill:#CAC27E"/>
	<rect x="720.58" y="2415.29" width="12.52" height="109.67" style="fill:none;stroke:#D7D29E;stroke-width:8.64"/>
	<rect x="737.43" y="2410.97" width="21.28" height="118.31" style="fill:#CAC27E"/>
	<rect x="741.75" y="2415.29" width="12.65" height="109.67" style="fill:none;stroke:#D7D29E;stroke-width:8.64"/>
	<rect x="758.71" y="2233.63" width="21.29" height="295.65" style="fill:#CAC27E"/>
	<rect x="763.03" y="2237.95" width="12.65" height="287.01" style="fill:none;stroke:#D7D29E;stroke-width:8.64"/>
	<rect x="780.00" y="2470.13" width="21.16" height="59.15" style="fill:#CAC27E"/>
	<rect x="784.32" y="2474.45" width="12.52" height="50.51" style="fill:none;stroke:#D7D29E;stroke-width:8.64"/>
	<rect x="801.16" y="2174.48" width="21.28" height="354.80" style="fill:#CAC27E"/>
	<rect x="805.48" y="2178.80" width="12.65" height="346.16" style="fill:none;stroke:#D7D29E;stroke-width:8.64"/>
	<rect x="822.44" y="2174.48" width="21.16" height="354.80" style="fill:#CAC27E"/>
	<rect x="826.76" y="2178.80" width="12.52" height="346.16" style="fill:none;stroke:#D7D29E;stroke-width:8.64"/>
	<rect x="843.60" y="2115.32" width="21.28" height="413.96" style="fill:#CAC27E"/>
	<rect x="847.92" y="2119.64" width="12.65" height="405.32" style="fill:none;stroke:#D7D29E;stroke-width:8.64"/>
	<rect x="864.89" y="1997.14" width="21.29" height="532.14" style="fill:#CAC27E"/>
	<rect x="869.21" y="2001.46" width="12.65" height="523.50" style="fill:none;stroke:#D7D29E;stroke-width:8.64"/>
	<rect x="886.17" y="2056.29" width="21.16" height="472.99" style="fill:#CAC27E"/>
	<rect x="890.49" y="2060.61" width="12.52" height="464.35" style="fill:none;stroke:#D7D29E;stroke-width:8.64"/>
	<rect x="907.34" y="1524.03" width="21.28" height="1005.25" style="fill:#CAC27E"/>
	<rect x="911.65" y="1528.35" width="12.65" height="996.61" style="fill:none;stroke:#D7D29E;stroke-width:8.64"/>
	<rect x="928.62" y="1583.18" width="21.16" height="946.10" style="fill:#CAC27E"/>
	<rect x="932.94" y="1587.50" width="12.52" height="937.46" style="fill:none;stroke:#D7D29E;stroke-width:8.64"/>
	<rect x="949.78" y="1465.00" width="21.28" height="1064.28" style="fill:#CAC27E"/>
	<rect x="954.10" y="1469.32" width="12.65" height="1055.64" style="fill:none;stroke:#D7D29E;stroke-width:8.64"/>
	<rect x="971.07" y="873.70" width="21.29" height="1655.58" style="fill:#CAC27E"/>
	<rect x="975.39" y="878.02" width="12.65" height="1646.94" style="fill:none;stroke:#D7D29E;stroke-width:8.64"/>
	<rect x="992.35" y="1465.00" width="21.16" height="1064.28" style="fill:#CAC27E"/>
	<rect x="996.67" y="1469.32" width="12.52" height="1055.64" style="fill:none;stroke:#D7D29E;stroke-width:8.64"/>
	<rect x="1013.51" y="1346.69" width="21.28" height="1182.59" style="fill:#CAC27E"/>
	<rect x="1017.83" y="1351.01" width="12.65" height="1173.95" style="fill:none;stroke:#D7D29E;stroke-width:8.64"/>
	<rect x="1034.80" y="1110.20" width="21.29" height="1419.09" style="fill:#CAC27E"/>
	<rect x="1039.12" y="1114.52" width="12.65" height="1410.45" style="fill:none;stroke:#D7D29E;stroke-width:8.64"/>
	<rect x="1056.08" y="991.89" width="21.16" height="1537.39" style="fill:#CAC27E"/>
	<rect x="1060.40" y="996.21" width="12.52" height="1528.75" style="fill:none;stroke:#D7D29E;stroke-width:8.64"/>
	<rect x="1077.24" y="873.70" width="21.28" height="1655.58" style="fill:#CAC27E"/>
	<rect x="1081.56" y="878.02" width="12.65" height="1646.94" style="fill:none;stroke:#D7D29E;stroke-width:8.64"/>
	<rect x="1098.53" y="459.75" width="21.16" height="2069.54" style="fill:#CAC27E"/>
	<rect x="1102.85" y="464.07" width="12.52" height="2060.90" style="fill:none;stroke:#D7D29E;stroke-width:8.64"/>
	<rect x="1119.69" y="873.70" width="21.28" height="1655.58" style="fill:#CAC27E"/>
	<rect x="1124.01" y="878.02" width="12.65" height="1646.94" style="fill:none;stroke:#D7D29E;stroke-width:8.64"/>
	<rect x="1140.97" y="755.39" width="21.29" height="1773.89" style="fill:#CAC27E"/>
	<rect x="1145.29" y="759.71" width="12.65" height="1765.25" style="fill:none;stroke:#D7D29E;stroke-width:8.64"/>
	<rect x="1162.26" y="1287.54" width="21.16" height="1241.75" style="fill:#CAC27E"/>
	<rect x="1166.58" y="1291.86" width="12.52" height="1233.11" style="fill:none;stroke:#D7D29E;stroke-width:8.64"/>
	<rect x="1183.42" y="1524.03" width="21.28" height="1005.25" style="fill:#CAC27E"/>
	<rect x="1187.74" y="1528.35" width="12.65" height="996.61" style="fill:none;stroke:#D7D29E;stroke-width:8.64"/>
	<rect x="1204.71" y="223.25" width="21.29" height="2306.03" style="fill:#CAC27E"/>
	<rect x="1209.03" y="227.57" width="12.65" height="2297.39" style="fill:none;stroke:#D7D29E;stroke-width:8.64"/>
	<rect x="1225.99" y="1465.00" width="21.16" height="1064.28" style="fill:#CAC27E"/>
	<rect x="1230.31" y="1469.32" width="12.52" height="1055.64" style="fill:none;stroke:#D7D29E;stroke-width:8.64"/>
	<rect x="1247.15" y="1228.50" width="21.29" height="1300.78" style="fill:#CAC27E"/>
	<rect x="1251.47" y="1232.82" width="12.65" height="1292.14" style="fill:none;stroke:#D7D29E;stroke-width:8.64"/>
	<rect x="1268.44" y="873.70" width="21.16" height="1655.58" style="fill:#CAC27E"/>
	<rect x="1272.76" y="878.02" width="12.52" height="1646.94" style="fill:none;stroke:#D7D29E;stroke-width:8.64"/>
	<rect x="1289.60" y="932.86" width="21.28" height="1596.42" style="fill:#CAC27E"/>
	<rect x="1293.92" y="937.18" width="12.65" height="1587.79" style="fill:none;stroke:#D7D29E;stroke-width:8.64"/>
	<rect x="1310.88" y="1760.65" width="21.29" height="768.64" style="fill:#CAC27E"/>
	<rect x="1315.20" y="1764.97" width="12.65" height="760.00" style="fill:none;stroke:#D7D29E;stroke-width:8.64"/>
	<rect x="1332.17" y="1760.65" width="21.16" height="768.64" style="fill:#CAC27E"/>
	<rect x="1336.49" y="1764.97" width="12.52" height="760.00" style="fill:none;stroke:#D7D29E;stroke-width:8.64"/>
	<rect x="1353.33" y="1583.18" width="21.29" height="946.10" style="fill:#CAC27E"/>
	<rect x="1357.65" y="1587.50" width="12.65" height="937.46" style="fill:none;stroke:#D7D29E;stroke-width:8.64"/>
	<rect x="1374.62" y="1287.54" width="21.29" height="1241.75" style="fill:#CAC27E"/>
	<rect x="1378.93" y="1291.86" width="12.65" height="1233.11" style="fill:none;stroke:#D7D29E;stroke-width:8.64"/>
	<rect x="1395.90" y="991.89" width="21.16" height="1537.39" style="fill:#CAC27E"/>
	<rect x="1400.22" y="996.21" width="12.52" height="1528.75" style="fill:none;stroke:#D7D29E;stroke-width:8.64"/>
	<rect x="1417.06" y="991.89" width="21.29" height="1537.39" style="fill:#CAC27E"/>
	<rect x="1421.38" y="996.21" width="12.65" height="1528.75" style="fill:none;stroke:#D7D29E;stroke-width:8.64"/>
	<rect x="1438.35" y="1287.54" width="21.16" height="1241.75" style="fill:#CAC27E"/>
	<rect x="1442.67" y="1291.86" width="12.52" height="1233.11" style="fill:none;stroke:#D7D29E;stroke-width:8.64"/>
	<rect x="1459.51" y="873.70" width="21.29" height="1655.58" style="fill:#CAC27E"/>
	<rect x="1463.83" y="878.02" width="12.65" height="1646.94" style="fill:none;stroke:#D7D29E;stroke-width:8.64"/>
	<rect x="1480.79" y="1583.18" width="21.29" height="946.10" style="fill:#CAC27E"/>
	<rect x="1485.11" y="1587.50" width="12.65" height="937.46" style="fill:none;stroke:#D7D29E;stroke-width:8.64"/>
	<rect x="1502.08" y="1524.03" width="21.16" height="1005.25" style="fill:#CAC27E"/>
	<rect x="1506.40" y="1528.35" width="12.52" height="996.61" style="fill:none;stroke:#D7D29E;stroke-width:8.64"/>
	<rect x="1523.24" y="1051.04" width="21.29" height="1478.24" style="fill:#CAC27E"/>
	<rect x="1527.56" y="1055.36" width="12.65" height="1469.60" style="fill:none;stroke:#D7D29E;stroke-width:8.64"/>
	<rect x="1544.52" y="1287.54" width="21.16" height="1241.75" style="fill:#CAC27E"/>
	<rect x="1548.84" y="1291.86" width="12.52" height="1233.11" style="fill:none;stroke:#D7D29E;stroke-width:8.64"/>
	<rect x="1565.68" y="1110.20" width="21.29" height="1419.09" style="fill:#CAC27E"/>
	<rect x="1570.00" y="1114.52" width="12.65" height="1410.45" style="fill:none;stroke:#D7D29E;stroke-width:8.64"/>
	<rect x="1586.97" y="1110.20" width="21.29" height="1419.09" style="fill:#CAC27E"/>
	<rect x="1591.29" y="1114.52" width="12.65" height="1410.45" style="fill:none;stroke:#D7D29E;stroke-width:8.64"/>
	<rect x="1608.26" y="1701.49" width="21.16" height="827.79" style="fill:#CAC27E"/>
	<rect x="1612.57" y="1705.81" width="12.52" height="819.15" style="fill:none;stroke:#D7D29E;stroke-width:8.64"/>
	<rect x="1629.42" y="1701.49" width="21.29" height="827.79" style="fill:#CAC27E"/>
	<rect x="1633.74" y="1705.81" width="12.65" height="819.15" style="fill:none;stroke:#D7D29E;stroke-width:8.64"/>
	<rect x="1650.70" y="1642.34" width="21.28" height="886.94" style="fill:#CAC27E"/>
	<rect x="1655.02" y="1646.66" width="12.65" height="878.30" style="fill:none;stroke:#D7D29E;stroke-width:8.64"/>
	<rect x="1671.99" y="1346.69" width="21.16" height="1182.59" style="fill:#CAC27E"/>
	<rect x="1676.31" y="1351.01" width="12.52" height="1173.95" style="fill:none;stroke:#D7D29E;stroke-width:8.64"/>
	<rect x="1693.15" y="1346.69" width="21.28" height="1182.59" style="fill:#CAC27E"/>
	<rect x="1697.47" y="1351.01" width="12.65" height="1173.95" style="fill:none;stroke:#D7D29E;stroke-width:8.64"/>
	<rect x="1714.43" y="1701.49" width="21.16" height="827.79" style="fill:#CAC27E"/>
	<rect x="1718.75" y="1705.81" width="12.52" height="819.15" style="fill:none;stroke:#D7D29E;stroke-width:8.64"/>
	<rect x="1735.59" y="932.86" width="21.29" height="1596.42" style="fill:#CAC27E"/>
	<rect x="1739.91" y="937.18" width="12.65" height="1587.79" style="fill:none;stroke:#D7D29E;stroke-width:8.64"/>
	<rect x="1756.88" y="1701.49" width="21.28" height="827.79" style="fill:#CAC27E"/>
	<rect x="1761.20" y="1705.81" width="12.65" height="819.15" style="fill:none;stroke:#D7D29E;stroke-width:8.64"/>
	<rect x="1778.16" y="1937.99" width="21.16" height="591.30" style="fill:#CAC27E"/>
	<rect x="1782.48" y="1942.31" width="12.52" height="582.66" style="fill:none;stroke:#D7D29E;stroke-width:8.64"/>
	<rect x="1799.33" y="1819.68" width="21.28" height="709.60" style="fill:#CAC27E"/>
	<rect x="1803.64" y="1824.00" width="12.65" height="700.96" style="fill:none;stroke:#D7D29E;stroke-width:8.64"/>
	<rect x="1820.61" y="1583.18" width="21.29" height="946.10" style="fill:#CAC27E"/>
	<rect x="1824.93" y="1587.50" width="12.65" height="937.46" style="fill:none;stroke:#D7D29E;stroke-width:8.64"/>
	<rect x="1841.89" y="1760.65" width="21.16" height="768.64" style="fill:#CAC27E"/>
	<rect x="1846.21" y="1764.97" width="12.52" height="760.00" style="fill:none;stroke:#D7D29E;stroke-width:8.64"/>
	<rect x="1863.06" y="1701.49" width="21.28" height="827.79" style="fill:#CAC27E"/>
	<rect x="1867.38" y="1705.81" width="12.65" height="819.15" style="fill:none;stroke:#D7D29E;stroke-width:8.64"/>
	<rect x="1884.34" y="1997.14" width="21.16" height="532.14" style="fill:#CAC27E"/>
	<rect x="1888.66" y="2001.46" width="12.52" height="523.50" style="fill:none;stroke:#D7D29E;stroke-width:8.64"/>
	<rect x="1905.50" y="1878.83" width="21.28" height="650.45" style="fill:#CAC27E"/>
	<rect x="1909.82" y="1883.15" width="12.65" height="641.81" style="fill:none;stroke:#D7D29E;stroke-width:8.64"/>
	<rect x="1926.79" y="2233.63" width="21.29" height="295.65" style="fill:#CAC27E"/>
	<rect x="1931.11" y="2237.95" width="12.65" height="287.01" style="fill:none;stroke:#D7D29E;stroke-width:8.64"/>
	<rect x="1948.07" y="1701.49" width="21.16" height="827.79" style="fill:#CAC27E"/>
	<rect x="1952.39" y="1705.81" width="12.52" height="819.15" style="fill:none;stroke:#D7D29E;stroke-width:8.64"/>
	<rect x="1969.23" y="1997.14" width="21.28" height="532.14" style="fill:#CAC27E"/>
	<rect x="1973.55" y="2001.46" width="12.65" height="523.50" style="fill:none;stroke:#D7D29E;stroke-width:8.64"/>
	<rect x="1990.52" y="1701.49" width="21.16" height="827.79" style="fill:#CAC27E"/>
	<rect x="1994.84" y="1705.81" width="12.52" height="819.15" style="fill:none;stroke:#D7D29E;stroke-width:8.64"/>
	<rect x="2011.68" y="1819.68" width="21.28" height="709.60" style="fill:#CAC27E"/>
	<rect x="2016.00" y="1824.00" width="12.65" height="700.96" style="fill:none;stroke:#D7D29E;stroke-width:8.64"/>
	<rect x="2032.96" y="1878.83" width="21.29" height="650.45" style="fill:#CAC27E"/>
	<rect x="2037.28" y="1883.15" width="12.65" height="641.81" style="fill:none;stroke:#D7D29E;stroke-width:8.64"/>
	<rect x="2054.25" y="2292.79" width="21.16" height="236.49" style="fill:#CAC27E"/>
	<rect x="2058.57" y="2297.11" width="12.52" height="227.85" style="fill:none;stroke:#D7D29E;stroke-width:8.64"/>
	<rect x="2075.41" y="2174.48" width="21.28" height="354.80" style="fill:#CAC27E"/>
	<rect x="2079.73" y="2178.80" width="12.65" height="346.16" style="fill:none;stroke:#D7D29E;stroke-width:8.64"/>
	<rect x="2096.70" y="1819.68" width="21.28" height="709.60" style="fill:#CAC27E"/>
	<rect x="2101.02" y="1824.00" width="12.65" height="700.96" style="fill:none;stroke:#D7D29E;stroke-width:8.64"/>
	<rect x="2117.98" y="1465.00" width="21.16" height="1064.28" style="fill:#CAC27E"/>
	<rect x="2122.30" y="1469.32" width="12.52" height="1055.64" style="fill:none;stroke:#D7D29E;stroke-width:8.64"/>
	<rect x="2139.14" y="1937.99" width="21.28" height="591.30" style="fill:#CAC27E"/>
	<rect x="2143.46" y="1942.31" width="12.65" height="582.66" style="fill:none;stroke:#D7D29E;stroke-width:8.64"/>
	<rect x="2160.43" y="1937.99" width="21.16" height="591.30" style="fill:#CAC27E"/>
	<rect x="2164.75" y="1942.31" width="12.52" height="582.66" style="fill:none;stroke:#D7D29E;stroke-width:8.64"/>
	<rect x="2181.59" y="2056.29" width="21.29" height="472.99" style="fill:#CAC27E"/>
	<rect x="2185.91" y="2060.61" width="12.65" height="464.35" style="fill:none;stroke:#D7D29E;stroke-width:8.64"/>
	<rect x="2202.87" y="2351.82" width="21.28" height="177.46" style="fill:#CAC27E"/>
	<rect x="2207.19" y="2356.14" width="12.65" height="168.82" style="fill:none;stroke:#D7D29E;stroke-width:8.64"/>
	<rect x="2224.16" y="2410.97" width="21.16" height="118.31" style="fill:#CAC27E"/>
	<rect x="2228.48" y="2415.29" width="12.52" height="109.67" style="fill:none;stroke:#D7D29E;stroke-width:8.64"/>
	<rect x="2245.32" y="2351.82" width="21.28" height="177.46" style="fill:#CAC27E"/>
	<rect x="2249.64" y="2356.14" width="12.65" height="168.82" style="fill:none;stroke:#D7D29E;stroke-width:8.64"/>
	<rect x="2266.61" y="1937.99" width="21.28" height="591.30" style="fill:#CAC27E"/>
	<rect x="2270.92" y="1942.31" width="12.65" height="582.66" style="fill:none;stroke:#D7D29E;stroke-width:8.64"/>
	<rect x="2287.89" y="2233.63" width="21.16" height="295.65" style="fill:#CAC27E"/>
	<rect x="2292.21" y="2237.95" width="12.52" height="287.01" style="fill:none;stroke:#D7D29E;stroke-width:8.64"/>
	<rect x="2309.05" y="2174.48" width="21.28" height="354.80" style="fill:#CAC27E"/>
	<rect x="2313.37" y="2178.80" width="12.65" height="346.16" style="fill:none;stroke:#D7D29E;stroke-width:8.64"/>
	<rect x="2330.34" y="2292.79" width="21.16" height="236.49" style="fill:#CAC27E"/>
	<rect x="2334.66" y="2297.11" width="12.52" height="227.85" style="fill:none;stroke:#D7D29E;stroke-width:8.64"/>
	<rect x="2351.50" y="2233.63" width="21.28" height="295.65" style="fill:#CAC27E"/>
	<rect x="2355.82" y="2237.95" width="12.65" height="287.01" style="fill:none;stroke:#D7D29E;stroke-width:8.64"/>
	<rect x="2372.78" y="2056.29" width="21.29" height="472.99" style="fill:#CAC27E"/>
	<rect x="2377.10" y="2060.61" width="12.65" height="464.35" style="fill:none;stroke:#D7D29E;stroke-width:8.64"/>
	<rect x="2394.07" y="2174.48" width="21.16" height="354.80" style="fill:#CAC27E"/>
	<rect x="2398.39" y="2178.80" width="12.52" height="346.16" style="fill:none;stroke:#D7D29E;stroke-width:8.64"/>
	<rect x="2415.23" y="2233.63" width="21.28" height="295.65" style="fill:#CAC27E"/>
	<rect x="2419.55" y="2237.95" width="12.65" height="287.01" style="fill:none;stroke:#D7D29E;stroke-width:8.64"/>
	<rect x="2436.51" y="1997.14" width="21.16" height="532.14" style="fill:#CAC27E"/>
	<rect x="2440.83" y="2001.46" width="12.52" height="523.50" style="fill:none;stroke:#D7D29E;stroke-width:8.64"/>
	<rect x="2457.68" y="2174.48" width="21.28" height="354.80" style="fill:#CAC27E"/>
	<rect x="2461.99" y="2178.80" width="12.65" height="346.16" style="fill:none;stroke:#D7D29E;stroke-width:8.64"/>
	<rect x="2478.96" y="2351.82" width="21.28" height="177.46" style="fill:#CAC27E"/>
	<rect x="2483.28" y="2356.14" width="12.65" height="168.82" style="fill:none;stroke:#D7D29E;stroke-width:8.64"/>
	<rect x="2500.24" y="2292.79" width="21.16" height="236.49" style="fill:#CAC27E"/>
	<rect x="2504.56" y="2297.11" width="12.52" height="227.85" style="fill:none;stroke:#D7D29E;stroke-width:8.64"/>
	<rect x="2521.41" y="2292.79" width="21.28" height="236.49" style="fill:#CAC27E"/>
	<rect x="2525.73" y="2297.11" width="12.65" height="227.85" style="fill:none;stroke:#D7D29E;stroke-width:8.64"/>
	<rect x="2542.69" y="2233.63" width="21.29" height="295.65" style="fill:#CAC27E"/>
	<rect x="2547.01" y="2237.95" width="12.65" height="287.01" style="fill:none;stroke:#D7D29E;stroke-width:8.64"/>
	<rect x="2585.14" y="2233.63" width="21.29" height="295.65" style="fill:#CAC27E"/>
	<rect x="2589.46" y="2237.95" width="12.65" height="287.01" style="fill:none;stroke:#D7D29E;stroke-width:8.64"/>
	<rect x="2606.42" y="2174.48" width="21.16" height="354.80" style="fill:#CAC27E"/>
	<rect x="2610.74" y="2178.80" width="12.52" height="346.16" style="fill:none;stroke:#D7D29E;stroke-width:8.64"/>
	<rect x="2627.58" y="2174.48" width="21.29" height="354.80" style="fill:#CAC27E"/>
	<rect x="2631.90" y="2178.80" width="12.65" height="346.16" style="fill:none;stroke:#D7D29E;stroke-width:8.64"/>
	<rect x="2648.87" y="2174.48" width="21.28" height="354.80" style="fill:#CAC27E"/>
	<rect x="2653.19" y="2178.80" width="12.65" height="346.16" style="fill:none;stroke:#D7D29E;stroke-width:8.64"/>
	<rect x="2670.15" y="2351.82" width="21.16" height="177.46" style="fill:#CAC27E"/>
	<rect x="2674.47" y="2356.14" width="12.52" height="168.82" style="fill:none;stroke:#D7D29E;stroke-width:8.64"/>
	<rect x="2691.32" y="2351.82" width="21.28" height="177.46" style="fill:#CAC27E"/>
	<rect x="2695.63" y="2356.14" width="12.65" height="168.82" style="fill:none;stroke:#D7D29E;stroke-width:8.64"/>
	<rect x="2712.60" y="1878.83" width="21.29" height="650.45" style="fill:#CAC27E"/>
	<rect x="2716.92" y="1883.15" width="12.65" height="641.81" style="fill:none;stroke:#D7D29E;stroke-width:8.64"/>
	<rect x="2733.89" y="2351.82" width="21.16" height="177.46" style="fill:#CAC27E"/>
	<rect x="2738.20" y="2356.14" width="12.52" height="168.82" style="fill:none;stroke:#D7D29E;stroke-width:8.64"/>
	<rect x="2755.05" y="2470.13" width="21.29" height="59.15" style="fill:#CAC27E"/>
	<rect x="2759.37" y="2474.45" width="12.65" height="50.51" style="fill:none;stroke:#D7D29E;stroke-width:8.64"/>
	<rect x="2776.33" y="2115.32" width="21.16" height="413.96" style="fill:#CAC27E"/>
	<rect x="2780.65" y="2119.64" width="12.52" height="405.32" style="fill:none;stroke:#D7D29E;stroke-width:8.64"/>
	<rect x="2797.49" y="2292.79" width="21.29" height="236.49" style="fill:#CAC27E"/>
	<rect x="2801.81" y="2297.11" width="12.65" height="227.85" style="fill:none;stroke:#D7D29E;stroke-width:8.64"/>
	<rect x="2818.78" y="2410.97" width="21.28" height="118.31" style="fill:#CAC27E"/>
	<rect x="2823.10" y="2415.29" width="12.65" height="109.67" style="fill:none;stroke:#D7D29E;stroke-width:8.64"/>
	<rect x="2840.06" y="2351.82" width="21.16" height="177.46" style="fill:#CAC27E"/>
	<rect x="2844.38" y="2356.14" width="12.52" height="168.82" style="fill:none;stroke:#D7D29E;stroke-width:8.64"/>
	<rect x="2861.22" y="2174.48" width="21.28" height="354.80" style="fill:#CAC27E"/>
	<rect x="2865.54" y="2178.80" width="12.65" height="346.16" style="fill:none;stroke:#D7D29E;stroke-width:8.64"/>
	<rect x="2882.51" y="2410.97" width="21.16" height="118.31" style="fill:#CAC27E"/>
	<rect x="2886.83" y="2415.29" width="12.52" height="109.67" style="fill:none;stroke:#D7D29E;stroke-width:8.64"/>
	<rect x="2903.67" y="2410.97" width="21.28" height="118.31" style="fill:#CAC27E"/>
	<rect x="2907.99" y="2415.29" width="12.65" height="109.67" style="fill:none;stroke:#D7D29E;stroke-width:8.64"/>
	<rect x="2924.95" y="2410.97" width="21.28" height="118.31" style="fill:#CAC27E"/>
	<rect x="2929.27" y="2415.29" width="12.65" height="109.67" style="fill:none;stroke:#D7D29E;stroke-width:8.64"/>
	<rect x="2946.24" y="2470.13" width="21.16" height="59.15" style="fill:#CAC27E"/>
	<rect x="2950.56" y="2474.45" width="12.52" height="50.51" style="fill:none;stroke:#D7D29E;stroke-width:8.64"/>
	<rect x="2967.40" y="2292.79" width="21.29" height="236.49" style="fill:#CAC27E"/>
	<rect x="2971.72" y="2297.11" width="12.65" height="227.85" style="fill:none;stroke:#D7D29E;stroke-width:8.64"/>
	<rect x="2988.69" y="2410.97" width="21.28" height="118.31" style="fill:#CAC27E"/>
	<rect x="2993.01" y="2415.29" width="12.65" height="109.67" style="fill:none;stroke:#D7D29E;stroke-width:8.64"/>
	<rect x="3009.97" y="2470.13" width="21.16" height="59.15" style="fill:#CAC27E"/>
	<rect x="3014.29" y="2474.45" width="12.52" height="50.51" style="fill:none;stroke:#D7D29E;stroke-width:8.64"/>
	<rect x="3031.13" y="2410.97" width="21.28" height="118.31" style="fill:#CAC27E"/>
	<rect x="3035.45" y="2415.29" width="12.65" height="109.67" style="fill:none;stroke:#D7D29E;stroke-width:8.64"/>
	<rect x="3052.42" y="2410.97" width="21.16" height="118.31" style="fill:#CAC27E"/>
	<rect x="3056.74" y="2415.29" width="12.52" height="109.67" style="fill:none;stroke:#D7D29E;stroke-width:8.64"/>
	<rect x="3073.58" y="2470.13" width="21.28" height="59.15" style="fill:#CAC27E"/>
	<rect x="3077.90" y="2474.45" width="12.65" height="50.51" style="fill:none;stroke:#D7D29E;stroke-width:8.64"/>
	<rect x="3094.86" y="2410.97" width="21.28" height="118.31" style="fill:#CAC27E"/>
	<rect x="3099.18" y="2415.29" width="12.65" height="109.67" style="fill:none;stroke:#D7D29E;stroke-width:8.64"/>
	<rect x="3116.15" y="2470.13" width="21.16" height="59.15" style="fill:#CAC27E"/>
	<rect x="3120.47" y="2474.45" width="12.52" height="50.51" style="fill:none;stroke:#D7D29E;stroke-width:8.64"/>
	<rect x="3179.88" y="2351.82" width="21.16" height="177.46" style="fill:#CAC27E"/>
	<rect x="3184.20" y="2356.14" width="12.52" height="168.82" style="fill:none;stroke:#D7D29E;stroke-width:8.64"/>
	<rect x="3201.04" y="2470.13" width="21.28" height="59.15" style="fill:#CAC27E"/>
	<rect x="3205.36" y="2474.45" width="12.65" height="50.51" style="fill:none;stroke:#D7D29E;stroke-width:8.64"/>
	<rect x="3222.33" y="2351.82" width="21.16" height="177.46" style="fill:#CAC27E"/>
	<rect x="3226.65" y="2356.14" width="12.52" height="168.82" style="fill:none;stroke:#D7D29E;stroke-width:8.64"/>
	<rect x="3243.49" y="2470.13" width="21.28" height="59.15" style="fill:#CAC27E"/>
	<rect x="3247.81" y="2474.45" width="12.65" height="50.51" style="fill:none;stroke:#D7D29E;stroke-width:8.64"/>
	<rect x="3264.77" y="2470.13" width="21.28" height="59.15" style="fill:#CAC27E"/>
	<rect x="3269.09" y="2474.45" width="12.65" height="50.51" style="fill:none;stroke:#D7D29E;stroke-width:8.64"/>
	<rect x="3307.22" y="2410.97" width="21.28" height="118.31" style="fill:#CAC27E"/>
	<rect x="3311.54" y="2415.29" width="12.65" height="109.67" style="fill:none;stroke:#D7D29E;stroke-width:8.64"/>
	<rect x="3328.50" y="2470.13" width="21.16" height="59.15" style="fill:#CAC27E"/>
	<rect x="3332.82" y="2474.45" width="12.52" height="50.51" style="fill:none;stroke:#D7D29E;stroke-width:8.64"/>
	<rect x="3349.66" y="2410.97" width="21.28" height="118.31" style="fill:#CAC27E"/>
	<rect x="3353.98" y="2415.29" width="12.65" height="109.67" style="fill:none;stroke:#D7D29E;stroke-width:8.64"/>
	<rect x="3370.95" y="2410.97" width="21.29" height="118.31" style="fill:#CAC27E"/>
	<rect x="3375.27" y="2415.29" width="12.65" height="109.67" style="fill:none;stroke:#D7D29E;stroke-width:8.64"/>
	<rect x="3392.24" y="2470.13" width="21.16" height="59.15" style="fill:#CAC27E"/>
	<rect x="3396.55" y="2474.45" width="12.52" height="50.51" style="fill:none;stroke:#D7D29E;stroke-width:8.64"/>
	<rect x="3413.40" y="2410.97" width="21.29" height="118.31" style="fill:#CAC27E"/>
	<rect x="3417.72" y="2415.29" width="12.65" height="109.67" style="fill:none;stroke:#D7D29E;stroke-width:8.64"/>
	<rect x="3455.97" y="2410.97" width="21.16" height="118.31" style="fill:#CAC27E"/>
	<rect x="3460.29" y="2415.29" width="12.52" height="109.67" style="fill:none;stroke:#D7D29E;stroke-width:8.64"/>
	<rect x="3498.41" y="2410.97" width="21.16" height="118.31" style="fill:#CAC27E"/>
	<rect x="3502.73" y="2415.29" width="12.52" height="109.67" style="fill:none;stroke:#D7D29E;stroke-width:8.64"/>
	<rect x="3519.57" y="2470.13" width="21.28" height="59.15" style="fill:#CAC27E"/>
	<rect x="3523.89" y="2474.45" width="12.65" height="50.51" style="fill:none;stroke:#D7D29E;stroke-width:8.64"/>
	<rect x="3540.86" y="2470.13" width="21.29" height="59.15" style="fill:#CAC27E"/>
	<rect x="3545.18" y="2474.45" width="12.65" height="50.51" style="fill:none;stroke:#D7D29E;stroke-width:8.64"/>
	<rect x="3562.14" y="2470.13" width="21.16" height="59.15" style="fill:#CAC27E"/>
	<rect x="3566.46" y="2474.45" width="12.52" height="50.51" style="fill:none;stroke:#D7D29E;stroke-width:8.64"/>
	<rect x="3583.30" y="2470.13" width="21.29" height="59.15" style="fill:#CAC27E"/>
	<rect x="3587.62" y="2474.45" width="12.65" height="50.51" style="fill:none;stroke:#D7D29E;stroke-width:8.64"/>
	<rect x="3604.59" y="2410.97" width="21.28" height="118.31" style="fill:#CAC27E"/>
	<rect x="3608.91" y="2415.29" width="12.65" height="109.67" style="fill:none;stroke:#D7D29E;stroke-width:8.64"/>
	<rect x="3625.88" y="2115.32" width="21.16" height="413.96" style="fill:#CAC27E"/>
	<rect x="3630.19" y="2119.64" width="12.52" height="405.32" style="fill:none;stroke:#D7D29E;stroke-width:8.64"/>
	<rect x="3668.32" y="2470.13" width="21.16" height="59.15" style="fill:#CAC27E"/>
	<rect x="3672.64" y="2474.45" width="12.52" height="50.51" style="fill:none;stroke:#D7D29E;stroke-width:8.64"/>
	<rect x="3689.48" y="2470.13" width="21.28" height="59.15" style="fill:#CAC27E"/>
	<rect x="3693.80" y="2474.45" width="12.65" height="50.51" style="fill:none;stroke:#D7D29E;stroke-width:8.64"/>
	<rect x="3710.77" y="2470.13" width="21.28" height="59.15" style="fill:#CAC27E"/>
	<rect x="3715.09" y="2474.45" width="12.65" height="50.51" style="fill:none;stroke:#D7D29E;stroke-width:8.64"/>
	<rect x="3732.05" y="2351.82" width="21.16" height="177.46" style="fill:#CAC27E"/>
	<rect x="3736.37" y="2356.14" width="12.52" height="168.82" style="fill:none;stroke:#D7D29E;stroke-width:8.64"/>
	<rect x="3753.21" y="2351.82" width="21.29" height="177.46" style="fill:#CAC27E"/>
	<rect x="3757.53" y="2356.14" width="12.65" height="168.82" style="fill:none;stroke:#D7D29E;stroke-width:8.64"/>
	<rect x="3774.50" y="2410.97" width="21.16" height="118.31" style="fill:#CAC27E"/>
	<rect x="3778.82" y="2415.29" width="12.52" height="109.67" style="fill:none;stroke:#D7D29E;stroke-width:8.64"/>
	<line x1="387.34" y1="2529.28" x2="387.34" y2="100.86" style="stroke:#000000;stroke-width:5.76"/>
	<line x1="387.34" y1="2529.28" x2="347.37" y2="2529.28" style="stroke:#000000;stroke-width:5.76"/>
	<text x="327.44" y="2557.29" style="font-family:'Helvetica';font-size:79.94px;fill:#000000" text-anchor="end">0</text>
	<line x1="387.34" y1="1937.99" x2="347.37" y2="1937.99" style="stroke:#000000;stroke-width:5.76"/>
	<text x="327.44" y="1966.00" style="font-family:'Helvetica';font-size:79.94px;fill:#000000" text-anchor="end">10</text>
	<line x1="387.34" y1="1346.69" x2="347.37" y2="1346.69" style="stroke:#000000;stroke-width:5.76"/>
	<text x="327.44" y="1374.70" style="font-family:'Helvetica';font-size:79.94px;fill:#000000" text-anchor="end">20</text>
	<line x1="387.34" y1="755.39" x2="347.37" y2="755.39" style="stroke:#000000;stroke-width:5.76"/>
	<text x="327.44" y="783.41" style="font-family:'Helvetica';font-size:79.94px;fill:#000000" text-anchor="end">30</text>
	<line x1="387.34" y1="164.22" x2="347.37" y2="164.22" style="stroke:#000000;stroke-width:5.76"/>
	<text x="327.44" y="192.23" style="font-family:'Helvetica';font-size:79.94px;fill:#000000" text-anchor="end">40</text>
	<text x="176.68" y="1315.01" style="font-family:'Helvetica';font-size:79.94px;fill:#000000" transform="rotate(-90 176.68,1315.01)" text-anchor="middle">Number of SGSS positives tests</text>
	<line x1="387.34" y1="2529.28" x2="3859.02" y2="2529.28" style="stroke:#000000;stroke-width:5.76"/>
	<line x1="450.70" y1="2529.28" x2="450.70" y2="2569.25" style="stroke:#000000;stroke-width:5.76"/>
	<text x="450.70" y="2645.20" style="font-family:'Helvetica';font-size:79.94px;fill:#000000" text-anchor="middle">01mar2020</text>
	<line x1="1109.17" y1="2529.28" x2="1109.17" y2="2569.25" style="stroke:#000000;stroke-width:5.76"/>
	<text x="1109.17" y="2645.20" style="font-family:'Helvetica';font-size:79.94px;fill:#000000" text-anchor="middle">01apr2020</text>
	<line x1="1746.24" y1="2529.28" x2="1746.24" y2="2569.25" style="stroke:#000000;stroke-width:5.76"/>
	<text x="1746.24" y="2645.20" style="font-family:'Helvetica';font-size:79.94px;fill:#000000" text-anchor="middle">01may2020</text>
	<line x1="2404.59" y1="2529.28" x2="2404.59" y2="2569.25" style="stroke:#000000;stroke-width:5.76"/>
	<text x="2404.59" y="2645.20" style="font-family:'Helvetica';font-size:79.94px;fill:#000000" text-anchor="middle">01jun2020</text>
	<line x1="3041.78" y1="2529.28" x2="3041.78" y2="2569.25" style="stroke:#000000;stroke-width:5.76"/>
	<text x="3041.78" y="2645.20" style="font-family:'Helvetica';font-size:79.94px;fill:#000000" text-anchor="middle">01jul2020</text>
	<line x1="3700.13" y1="2529.28" x2="3700.13" y2="2569.25" style="stroke:#000000;stroke-width:5.76"/>
	<text x="3700.13" y="2645.20" style="font-family:'Helvetica';font-size:79.94px;fill:#000000" text-anchor="middle">01aug2020</text>
	<text x="2123.18" y="2735.17" style="font-family:'Helvetica';font-size:79.94px;fill:#000000" text-anchor="middle">Date</text>
</svg>
